G04 #@! TF.GenerationSoftware,KiCad,Pcbnew,10.0.5*
G04 #@! TF.CreationDate,2026-09-23T16:28:01+09:00*
G04 #@! TF.ProjectId,keyboard,6b657962-6f61-4726-942e-6b696361645f,rev?*
G04 #@! TF.SameCoordinates,Original*
G04 #@! TF.FileFunction,Legend,Top*
G04 #@! TF.FilePolarity,Positive*
%FSLAX46Y46*%
G04 Gerber Fmt 4.6, Leading zero omitted, Abs format (unit mm)*
G04 Created by KiCad (PCBNEW 10.0.5) date 2026-09-23 16:28:01*
%MOMM*%
%LPD*%
G01*
G04 APERTURE LIST*
%ADD10C,0.101600*%
%ADD11C,0.100000*%
%ADD12C,0.127000*%
%ADD13C,0.504000*%
%ADD14C,0.120000*%
G04 APERTURE END LIST*
D10*
X148002976Y2227688D02*
X148002976Y1580069D01*
X148002976Y1580069D02*
X148041071Y1503879D01*
X148041071Y1503879D02*
X148079166Y1465784D01*
X148079166Y1465784D02*
X148155357Y1427688D01*
X148155357Y1427688D02*
X148307738Y1427688D01*
X148307738Y1427688D02*
X148383928Y1465784D01*
X148383928Y1465784D02*
X148422023Y1503879D01*
X148422023Y1503879D02*
X148460119Y1580069D01*
X148460119Y1580069D02*
X148460119Y2227688D01*
X149260118Y1427688D02*
X148802975Y1427688D01*
X149031547Y1427688D02*
X149031547Y2227688D01*
X149031547Y2227688D02*
X148955356Y2113403D01*
X148955356Y2113403D02*
X148879166Y2037212D01*
X148879166Y2037212D02*
X148802975Y1999117D01*
G04 #@! TO.C,U1*
D11*
X141627500Y-22021500D02*
X155597500Y-22021500D01*
D12*
X144117500Y-1066500D02*
X144121228Y-56228D01*
X144621228Y443500D02*
X152616500Y443500D01*
X153116500Y-56500D02*
X153116500Y-1066500D01*
D11*
X155597500Y-1066500D02*
X141627500Y-1066500D01*
D13*
X139764500Y-1482500D02*
G75*
G02*
X139260500Y-1482500I-252000J0D01*
G01*
X139260500Y-1482500D02*
G75*
G02*
X139764500Y-1482500I252000J0D01*
G01*
X141038500Y-2199500D02*
G75*
G02*
X140534500Y-2199500I-252000J0D01*
G01*
X140534500Y-2199500D02*
G75*
G02*
X141038500Y-2199500I252000J0D01*
G01*
G04 #@! TO.C,SWP1*
D14*
X155500000Y-29087500D02*
X155500000Y-28887500D01*
X155500000Y-32087500D02*
X155500000Y-30387500D01*
X156600000Y-27037500D02*
X157400000Y-27037500D01*
X156600000Y-33937500D02*
X157400000Y-33937500D01*
G04 #@! TD*
M02*
