G04 #@! TF.GenerationSoftware,KiCad,Pcbnew,10.0.5*
G04 #@! TF.CreationDate,2026-09-23T16:28:01+09:00*
G04 #@! TF.ProjectId,keyboard,6b657962-6f61-4726-942e-6b696361645f,rev?*
G04 #@! TF.SameCoordinates,Original*
G04 #@! TF.FileFunction,Copper,L1,Top*
G04 #@! TF.FilePolarity,Positive*
%FSLAX46Y46*%
G04 Gerber Fmt 4.6, Leading zero omitted, Abs format (unit mm)*
G04 Created by KiCad (PCBNEW 10.0.5) date 2026-09-23 16:28:01*
%MOMM*%
%LPD*%
G01*
G04 APERTURE LIST*
G04 Aperture macros list*
%AMRoundRect*
0 Rectangle with rounded corners*
0 $1 Rounding radius*
0 $2 $3 $4 $5 $6 $7 $8 $9 X,Y pos of 4 corners*
0 Add a 4 corners polygon primitive as box body*
4,1,4,$2,$3,$4,$5,$6,$7,$8,$9,$2,$3,0*
0 Add four circle primitives for the rounded corners*
1,1,$1+$1,$2,$3*
1,1,$1+$1,$4,$5*
1,1,$1+$1,$6,$7*
1,1,$1+$1,$8,$9*
0 Add four rect primitives between the rounded corners*
20,1,$1+$1,$2,$3,$4,$5,0*
20,1,$1+$1,$4,$5,$6,$7,0*
20,1,$1+$1,$6,$7,$8,$9,0*
20,1,$1+$1,$8,$9,$2,$3,0*%
%AMFreePoly0*
4,1,15,-0.616000,0.142500,-0.283500,0.475000,0.521000,0.475000,0.557355,0.467769,0.588175,0.447175,0.608769,0.416355,0.616000,0.380000,0.616000,-0.380000,0.608769,-0.416355,0.588175,-0.447175,0.557355,-0.467769,0.521000,-0.475000,-0.283500,-0.475000,-0.616000,-0.142500,-0.616000,0.142500,-0.616000,0.142500,$1*%
G04 Aperture macros list end*
G04 #@! TA.AperFunction,SMDPad,CuDef*
%ADD10RoundRect,0.095000X0.921000X0.380000X-0.921000X0.380000X-0.921000X-0.380000X0.921000X-0.380000X0*%
G04 #@! TD*
G04 #@! TA.AperFunction,SMDPad,CuDef*
%ADD11RoundRect,0.095000X-0.921000X-0.380000X0.921000X-0.380000X0.921000X0.380000X-0.921000X0.380000X0*%
G04 #@! TD*
G04 #@! TA.AperFunction,SMDPad,CuDef*
%ADD12FreePoly0,180.000000*%
G04 #@! TD*
G04 #@! TA.AperFunction,ComponentPad*
%ADD13O,1.800000X1.200000*%
G04 #@! TD*
G04 #@! TA.AperFunction,SMDPad,CuDef*
%ADD14FreePoly0,0.000000*%
G04 #@! TD*
G04 #@! TA.AperFunction,SMDPad,CuDef*
%ADD15C,1.700000*%
G04 #@! TD*
G04 #@! TA.AperFunction,ComponentPad*
%ADD16O,1.900000X1.900000*%
G04 #@! TD*
G04 #@! TA.AperFunction,ComponentPad*
%ADD17O,1.200000X2.500000*%
G04 #@! TD*
G04 #@! TA.AperFunction,SMDPad,CuDef*
%ADD18RoundRect,0.150000X0.500000X-0.150000X0.500000X0.150000X-0.500000X0.150000X-0.500000X-0.150000X0*%
G04 #@! TD*
G04 #@! TA.AperFunction,SMDPad,CuDef*
%ADD19RoundRect,0.175000X0.175000X-0.350000X0.175000X0.350000X-0.175000X0.350000X-0.175000X-0.350000X0*%
G04 #@! TD*
G04 #@! TA.AperFunction,ComponentPad*
%ADD20RoundRect,0.250000X0.350000X0.625000X-0.350000X0.625000X-0.350000X-0.625000X0.350000X-0.625000X0*%
G04 #@! TD*
G04 #@! TA.AperFunction,ComponentPad*
%ADD21O,1.200000X1.750000*%
G04 #@! TD*
G04 #@! TA.AperFunction,ViaPad*
%ADD22C,0.650000*%
G04 #@! TD*
G04 #@! TA.AperFunction,ViaPad*
%ADD23C,0.500000*%
G04 #@! TD*
G04 #@! TA.AperFunction,Conductor*
%ADD24C,0.250000*%
G04 #@! TD*
G04 #@! TA.AperFunction,Conductor*
%ADD25C,0.200000*%
G04 #@! TD*
G04 APERTURE END LIST*
D10*
G04 #@! TO.P,U1,1*
G04 #@! TO.N,/ROW0*
X140357500Y-3987500D03*
G04 #@! TO.P,U1,2*
G04 #@! TO.N,/ROW1*
X140357500Y-6527500D03*
G04 #@! TO.P,U1,3*
G04 #@! TO.N,/ROW2*
X140357500Y-9067500D03*
G04 #@! TO.P,U1,4*
G04 #@! TO.N,/ROW3*
X140357500Y-11607500D03*
G04 #@! TO.P,U1,5*
G04 #@! TO.N,/ROW4*
X140357500Y-14147500D03*
G04 #@! TO.P,U1,6*
G04 #@! TO.N,/ROW5*
X140357500Y-16687500D03*
G04 #@! TO.P,U1,7*
G04 #@! TO.N,/ROW6*
X140357500Y-19227500D03*
D11*
G04 #@! TO.P,U1,8*
G04 #@! TO.N,/ROW7*
X156867500Y-19227500D03*
G04 #@! TO.P,U1,9*
G04 #@! TO.N,/COL0*
X156867500Y-16687500D03*
G04 #@! TO.P,U1,10*
G04 #@! TO.N,/COL1*
X156867500Y-14147500D03*
G04 #@! TO.P,U1,11*
G04 #@! TO.N,/COL2*
X156867500Y-11607500D03*
G04 #@! TO.P,U1,12*
G04 #@! TO.N,+3V3_LEFT*
X156867500Y-9067500D03*
G04 #@! TO.P,U1,13*
G04 #@! TO.N,/GND_LEFT*
X156867500Y-6527500D03*
G04 #@! TO.P,U1,14*
G04 #@! TO.N,VBUS_LEFT*
X156867500Y-3987500D03*
D12*
G04 #@! TO.P,U1,15*
G04 #@! TO.N,/COL3*
X139957500Y-5257500D03*
G04 #@! TO.P,U1,16*
G04 #@! TO.N,/RGB_DATA_LEFT*
X139957500Y-7797500D03*
D13*
G04 #@! TO.P,U1,17*
G04 #@! TO.N,/RGB_EN_LEFT*
X139957500Y-10337500D03*
D12*
G04 #@! TO.P,U1,18*
G04 #@! TO.N,unconnected-(U1-D14_NFC1-Pad18)*
X139957500Y-12877500D03*
G04 #@! TO.P,U1,19*
G04 #@! TO.N,unconnected-(U1-D15_NFC2-Pad19)*
X139957500Y-15417500D03*
G04 #@! TO.P,U1,20*
G04 #@! TO.N,unconnected-(U1-D16_BAT_ADC-Pad20)*
X139957500Y-17957500D03*
D14*
G04 #@! TO.P,U1,21*
G04 #@! TO.N,unconnected-(U1-D17_P1.03-Pad21)*
X157267500Y-17957500D03*
G04 #@! TO.P,U1,22*
G04 #@! TO.N,unconnected-(U1-D18_P1.05-Pad22)*
X157267500Y-15417500D03*
G04 #@! TO.P,U1,23*
G04 #@! TO.N,unconnected-(U1-D19_P1.07-Pad23)*
X157267500Y-12877500D03*
D15*
G04 #@! TO.P,U1,24*
G04 #@! TO.N,unconnected-(U1-SWDIO-Pad24)*
X147342500Y-3035000D03*
G04 #@! TO.P,U1,25*
G04 #@! TO.N,unconnected-(U1-SWCLK-Pad25)*
X149882500Y-3035000D03*
D16*
G04 #@! TO.P,U1,26*
G04 #@! TO.N,unconnected-(U1-RESET-Pad26)*
X147342500Y-5575000D03*
G04 #@! TO.P,U1,27*
G04 #@! TO.N,/GND_LEFT*
X149882500Y-5575000D03*
D17*
G04 #@! TO.P,U1,28*
G04 #@! TO.N,/VBAT_LEFT*
X147618512Y-17125323D03*
G04 #@! TO.P,U1,29*
G04 #@! TO.N,/GND_LEFT*
X149618512Y-17125323D03*
G04 #@! TD*
D18*
G04 #@! TO.P,SWP1,1*
G04 #@! TO.N,/power/BAT_RAW_LEFT*
X155050000Y-32737500D03*
G04 #@! TO.P,SWP1,2*
G04 #@! TO.N,/VBAT_LEFT*
X155050000Y-29737500D03*
G04 #@! TO.P,SWP1,3*
G04 #@! TO.N,unconnected-(SWP1-Pad3)*
X155050000Y-28237500D03*
D19*
G04 #@! TO.P,SWP1,SH*
G04 #@! TO.N,N/C*
X155900000Y-34162500D03*
X158100000Y-34162500D03*
X155900000Y-26812500D03*
X158100000Y-26812500D03*
G04 #@! TD*
D20*
G04 #@! TO.P,J1,1*
G04 #@! TO.N,/power/BAT_RAW_LEFT*
X141500000Y-30300000D03*
D21*
G04 #@! TO.P,J1,2*
G04 #@! TO.N,/GND_LEFT*
X139500000Y-30300000D03*
G04 #@! TD*
D22*
G04 #@! TO.N,/COL0*
X83487500Y-47022400D03*
X121623000Y-58489800D03*
X100750000Y-31971500D03*
X83487500Y-37586400D03*
X50432600Y-44009200D03*
X118608000Y-12002500D03*
X102942000Y-18365300D03*
G04 #@! TO.N,/ROW0*
X79500000Y-18083200D03*
X99000000Y-18083200D03*
X63996400Y-17486500D03*
G04 #@! TO.N,/ROW1*
X138862000Y-6527500D03*
X40602700Y-24235900D03*
X79000000Y-37197200D03*
X98500000Y-37818300D03*
G04 #@! TO.N,/ROW2*
X116000000Y-41607900D03*
X60902100Y-41319100D03*
G04 #@! TO.N,/ROW3*
X98500000Y-52950800D03*
X136869000Y-45100000D03*
X114891000Y-52394400D03*
G04 #@! TO.N,/ROW4*
X93983500Y-67983400D03*
X135568000Y-61285800D03*
X42485400Y-59483000D03*
X60500000Y-59545900D03*
G04 #@! TO.N,/ROW5*
X117500000Y-76329100D03*
X139702000Y-75808900D03*
X144422000Y-17647900D03*
X78932700Y-77325300D03*
G04 #@! TO.N,/ROW6*
X41576200Y-78799900D03*
X101994000Y-90417500D03*
X82500000Y-90417500D03*
X135908000Y-78914300D03*
G04 #@! TO.N,/ROW7*
X128223000Y-93762500D03*
X52000000Y-92247900D03*
D23*
G04 #@! TO.N,/COL1*
X151000000Y-32400000D03*
D22*
X45387500Y-25365600D03*
X155598000Y-14989200D03*
X25875100Y-58067900D03*
D23*
X149300000Y-32299999D03*
D22*
X118945000Y-47715100D03*
X64437500Y-63182400D03*
D23*
X155600000Y-24000000D03*
D22*
X115595000Y-100663000D03*
D23*
X140700000Y-38900000D03*
D22*
X113581000Y-100663000D03*
X26022100Y-19594500D03*
D23*
X146000000Y-27800000D03*
X146600000Y-24800000D03*
D22*
G04 #@! TO.N,/COL2*
X102556000Y-56686100D03*
X117874000Y-72370800D03*
X64437500Y-43232400D03*
X118377000Y-85882100D03*
X105194000Y-71783300D03*
X26493400Y-43232400D03*
X88093200Y-22401500D03*
X121588000Y-23253300D03*
X88093200Y-17370900D03*
X90631300Y-82373500D03*
X102538000Y-10833800D03*
X114998000Y-93998500D03*
X135921000Y-103996000D03*
G04 #@! TO.N,/GND_LEFT*
X56924200Y-54600700D03*
X142351200Y-109882200D03*
X138624300Y-55557600D03*
D23*
X152500000Y-22200000D03*
D22*
X83224700Y-70412200D03*
X150911700Y-70767300D03*
X64937500Y-14093800D03*
X114993400Y-35940400D03*
X121294200Y-71162600D03*
X145335500Y-100467100D03*
X123414300Y-107799900D03*
X45887500Y-35905600D03*
X35493000Y-54600700D03*
X54987500Y-35986300D03*
X45887500Y-54600700D03*
X63432700Y-35986300D03*
X102257600Y-72300100D03*
X114966200Y-18795900D03*
X130313100Y-35121400D03*
X35934400Y-35905600D03*
X95191200Y-52785500D03*
X97475900Y-16751500D03*
D23*
X84101000Y-13125700D03*
D22*
X139875000Y-70767300D03*
X131187500Y-16528500D03*
D23*
X150400000Y-31200000D03*
D22*
X93087500Y-12697400D03*
X122087500Y-35940400D03*
X133330400Y-56027700D03*
X74037500Y-13125700D03*
X102258900Y-16635700D03*
X98628800Y-55198700D03*
X114074200Y-71162600D03*
X24857100Y-55063300D03*
X122087500Y-16528500D03*
X86745600Y-70102500D03*
D23*
G04 #@! TO.N,/COL3*
X83437500Y-64100000D03*
X80837500Y-61900000D03*
X63837500Y-44600000D03*
D22*
X65687500Y-18445800D03*
X24782700Y-23460400D03*
X45387500Y-16215600D03*
X47891500Y-73688300D03*
D23*
X64037500Y-34500000D03*
X65237500Y-51700000D03*
X64037500Y-38000000D03*
D22*
X64115500Y-77003000D03*
D23*
X65237500Y-52900000D03*
D22*
X84948800Y-71623600D03*
D23*
X81037500Y-57600000D03*
G04 #@! TO.N,/RGB_DATA_LEFT*
X145065600Y-18067000D03*
D22*
G04 #@! TO.N,/RGB_EN_LEFT*
X148599100Y-36433500D03*
D23*
X144750000Y-36433500D03*
D22*
X145710400Y-15496100D03*
D23*
G04 #@! TO.N,/VBAT_LEFT*
X147100000Y-31300000D03*
D22*
X147997400Y-35185300D03*
D23*
X151100000Y-31000000D03*
X146600000Y-31800000D03*
X144000000Y-39500000D03*
D22*
X151987400Y-30550800D03*
G04 #@! TO.N,/matrix/SW37_A*
X41000000Y-51830100D03*
X39342900Y-51830100D03*
G04 #@! TO.N,/matrix/SW33_A*
X60930000Y-50953200D03*
X58087500Y-49547700D03*
G04 #@! TO.N,/matrix/SW15_A*
X77137500Y-27355100D03*
X80413000Y-29647100D03*
D23*
G04 #@! TO.N,/power/BAT_RAW_LEFT*
X141500000Y-32100000D03*
X155653600Y-29019400D03*
X152600000Y-31200000D03*
D22*
G04 #@! TO.N,/matrix/SW7_A*
X62859900Y-15890700D03*
X62284800Y-15315600D03*
G04 #@! TO.N,/matrix/SW11_A*
X40750200Y-17421200D03*
X40789500Y-18669300D03*
G04 #@! TO.N,/matrix/SW48_A*
X136111000Y-72784400D03*
X137000000Y-77931200D03*
X134955000Y-77931200D03*
X135535000Y-72208900D03*
G04 #@! TO.N,/RGB_5V_LEFT*
X104173500Y-73080000D03*
X144375200Y-25237200D03*
X83354100Y-49833100D03*
X146982000Y-29725300D03*
X87887500Y-51203900D03*
X123436200Y-37784700D03*
X147773900Y-31781200D03*
X105703100Y-34043600D03*
X47298500Y-36885000D03*
X47067300Y-75799800D03*
X87887500Y-69981200D03*
X25581700Y-75937500D03*
X28356300Y-36525100D03*
G04 #@! TO.N,/rgb/RGB_LED_left_16*
X49787500Y-58944200D03*
X133124000Y-59493200D03*
G04 #@! TO.N,/rgb/RGB_LED_left_17*
X56601200Y-60265200D03*
X55389600Y-60392600D03*
X35493000Y-60392600D03*
X125988000Y-60492300D03*
G04 #@! TO.N,/rgb/RGB_LED_left_14*
X68837500Y-61751900D03*
X112138000Y-59732900D03*
G04 #@! TO.N,/rgb/RGB_LED_left_15*
X106938000Y-59532900D03*
X57318200Y-61150200D03*
G04 #@! TO.N,/rgb/RGB_LED_left_23*
X49787500Y-79742000D03*
X131188000Y-79742000D03*
G04 #@! TO.N,/rgb/RGB_LED_left_24*
X122982000Y-77953600D03*
X35563500Y-78204100D03*
G04 #@! TO.N,/rgb/RGB_LED_left_13*
X142057000Y-57371400D03*
X75974200Y-57911100D03*
G04 #@! TO.N,/rgb/RGB_LED_left_4*
X37726100Y-21179500D03*
X125988000Y-20698800D03*
G04 #@! TO.N,/rgb/RGB_LED_left_5*
X91678000Y-36824600D03*
X30737500Y-22819500D03*
G04 #@! TO.N,/rgb/RGB_LED_left_3*
X131188000Y-21304600D03*
X49796300Y-21304600D03*
G04 #@! TO.N,/rgb/RGB_LED_left_12*
X87887500Y-57102400D03*
X148600000Y-56769700D03*
G04 #@! TO.N,/power/RGB_SW_LEFT*
X146000000Y-29401300D03*
X145621200Y-34995200D03*
G04 #@! TO.N,/rgb/RGB_LED_left_19*
X87887500Y-74491800D03*
X148975000Y-75098600D03*
G04 #@! TO.N,/rgb/RGB_LED_left_20*
X141602000Y-73787800D03*
X74037500Y-76089800D03*
G04 #@! TO.N,/rgb/RGB_LED_left_18*
X28075100Y-60745400D03*
X93087500Y-74331200D03*
G04 #@! TO.N,/rgb/RGB_LED_left_6*
X77186800Y-33137600D03*
X87887500Y-35476700D03*
G04 #@! TO.N,/rgb/RGB_LED_left_25*
X32401900Y-93136400D03*
X100231000Y-96102000D03*
G04 #@! TO.N,/rgb/RGB_LED_left_1*
X114074000Y-20299700D03*
X68837500Y-19895900D03*
G04 #@! TO.N,/rgb/RGB_LED_left_2*
X106938000Y-19659400D03*
X57130300Y-19286700D03*
G04 #@! TO.N,/rgb/RGB_LED_left_10*
X34578900Y-40360100D03*
X125988000Y-39992600D03*
G04 #@! TO.N,/rgb/RGB_LED_left_11*
X28356300Y-44009100D03*
X93087500Y-55133300D03*
G04 #@! TO.N,/rgb/RGB_LED_left_7*
X68837500Y-39225000D03*
X114074000Y-39225000D03*
G04 #@! TO.N,/rgb/RGB_LED_left_8*
X57282600Y-37887100D03*
X105001000Y-38608300D03*
G04 #@! TO.N,/RGB_DATA_SHIFTED_LEFT*
X98783600Y-25379500D03*
X129178700Y-23041000D03*
G04 #@! TO.N,/rgb/RGB_LED_left_21*
X114074000Y-76697100D03*
X68837500Y-76697100D03*
G04 #@! TO.N,/rgb/RGB_LED_left_9*
X130985000Y-39736900D03*
X49787500Y-39738500D03*
G04 #@! TO.N,/rgb/RGB_LED_left_29*
X125536000Y-107667000D03*
X145020000Y-110492000D03*
G04 #@! TO.N,/rgb/RGB_LED_left_26*
X92687400Y-93192600D03*
X75974200Y-92641600D03*
G04 #@! TO.N,/rgb/RGB_LED_left_0*
X85698500Y-15815700D03*
X77134800Y-15815700D03*
G04 #@! TO.N,/rgb/RGB_LED_left_22*
X56924200Y-78835800D03*
X105001000Y-78835800D03*
G04 #@! TO.N,/rgb/RGB_LED_left_28*
X128517000Y-98718500D03*
X37881300Y-98696800D03*
G04 #@! TO.N,/rgb/RGB_LED_left_27*
X66900800Y-98039600D03*
X43081300Y-98039600D03*
G04 #@! TD*
G04 #@! TO.N,/COL0*
D24*
X93726600Y-51999900D02*
X92213200Y-50486500D01*
X118608000Y-12002500D02*
X116379000Y-14231600D01*
X121623000Y-58489800D02*
X120859000Y-57726000D01*
X83273600Y-46808500D02*
X72456900Y-46808500D01*
X92820200Y-56252300D02*
X93726600Y-55345900D01*
X87624400Y-57726000D02*
X87231000Y-57332600D01*
X72456900Y-46808500D02*
X69657600Y-44009200D01*
X83487500Y-47022400D02*
X83273600Y-46808500D01*
X158183000Y-5994400D02*
X158183000Y-9618100D01*
X156428000Y-16687500D02*
X156868000Y-16687500D01*
X152334000Y-4176100D02*
X153821000Y-5662500D01*
X85937400Y-50486500D02*
X83487500Y-48036600D01*
X141784000Y-3219100D02*
X142741000Y-4176100D01*
X95134700Y-37586400D02*
X83487500Y-37586400D01*
X87839800Y-56252300D02*
X92820200Y-56252300D01*
X116379000Y-14231600D02*
X107076000Y-14231600D01*
X107076000Y-14231600D02*
X102942000Y-18365300D01*
X153821000Y-5662500D02*
X157851000Y-5662500D01*
X157851000Y-5662500D02*
X158183000Y-5994400D01*
X93726600Y-55345900D02*
X93726600Y-51999900D01*
X158183000Y-9618100D02*
X157143000Y-10658300D01*
X118608000Y-12002500D02*
X127392000Y-3219100D01*
X69657600Y-44009200D02*
X50432600Y-44009200D01*
X83487500Y-48036600D02*
X83487500Y-47022400D01*
X92213200Y-50486500D02*
X85937400Y-50486500D01*
X154986000Y-15245900D02*
X156428000Y-16687500D01*
X87231000Y-56861100D02*
X87839800Y-56252300D01*
X154986000Y-11602900D02*
X154986000Y-15245900D01*
X142741000Y-4176100D02*
X152334000Y-4176100D01*
X100750000Y-31971500D02*
X95134700Y-37586400D01*
X155931000Y-10658300D02*
X154986000Y-11602900D01*
X127392000Y-3219100D02*
X141784000Y-3219100D01*
X87231000Y-57332600D02*
X87231000Y-56861100D01*
X120859000Y-57726000D02*
X87624400Y-57726000D01*
X157143000Y-10658300D02*
X155931000Y-10658300D01*
G04 #@! TO.N,/ROW0*
X105347000Y-16790000D02*
X105347000Y-18564800D01*
X66850300Y-14632600D02*
X63996400Y-17486500D01*
X75034000Y-14632600D02*
X66850300Y-14632600D01*
X127981000Y-3987500D02*
X117335000Y-14633300D01*
X100955000Y-18083200D02*
X99000000Y-18083200D01*
X107503000Y-14633300D02*
X105347000Y-16790000D01*
X101848000Y-18976000D02*
X100955000Y-18083200D01*
X140358000Y-3987500D02*
X127981000Y-3987500D01*
X99000000Y-18083200D02*
X79500000Y-18083200D01*
X104935000Y-18976000D02*
X101848000Y-18976000D01*
X79500000Y-18083200D02*
X78484600Y-18083200D01*
X78484600Y-18083200D02*
X75034000Y-14632600D01*
X117335000Y-14633300D02*
X107503000Y-14633300D01*
X105347000Y-18564800D02*
X104935000Y-18976000D01*
G04 #@! TO.N,/ROW1*
X135314000Y-10075500D02*
X135314000Y-14287400D01*
X106771000Y-32867900D02*
X106273000Y-32867900D01*
X106273000Y-32867900D02*
X105873000Y-33267400D01*
X125386000Y-24100100D02*
X116354000Y-33132200D01*
X79376900Y-38202200D02*
X79000000Y-37825300D01*
X105873000Y-33267500D02*
X103051000Y-33267500D01*
X54894400Y-24235900D02*
X68483800Y-37825300D01*
X79000000Y-37825300D02*
X79000000Y-37197200D01*
X140358000Y-6527500D02*
X138862000Y-6527500D01*
X98330200Y-37988100D02*
X91139900Y-37988100D01*
X107035000Y-33132200D02*
X106771000Y-32867900D01*
X103051000Y-33267500D02*
X98500000Y-37818300D01*
X91139900Y-37988100D02*
X90925800Y-38202200D01*
X132694000Y-20651800D02*
X129245000Y-24100100D01*
X98500000Y-37818300D02*
X98330200Y-37988100D01*
X68483800Y-37825300D02*
X79000000Y-37825300D01*
X135314000Y-14287400D02*
X132694000Y-16907900D01*
X138862000Y-6527500D02*
X135314000Y-10075500D01*
X129245000Y-24100100D02*
X125386000Y-24100100D01*
X132694000Y-16907900D02*
X132694000Y-20651800D01*
X40602700Y-24235900D02*
X54894400Y-24235900D01*
X90925800Y-38202200D02*
X79376900Y-38202200D01*
X116354000Y-33132200D02*
X107035000Y-33132200D01*
X105873000Y-33267400D02*
X105873000Y-33267500D01*
G04 #@! TO.N,/ROW2*
X116000000Y-41607900D02*
X95694500Y-41607900D01*
X131586000Y-31082500D02*
X131586000Y-40051200D01*
X91971900Y-39996600D02*
X90649400Y-41319100D01*
X135831000Y-12960400D02*
X135831000Y-14621800D01*
X131586000Y-40051200D02*
X130030000Y-41607900D01*
X135831000Y-14621800D02*
X134234000Y-16218400D01*
D25*
X139724000Y-9068000D02*
X138700000Y-9068000D01*
D24*
X130030000Y-41607900D02*
X116000000Y-41607900D01*
X94083200Y-39996600D02*
X91971900Y-39996600D01*
X140358000Y-9067500D02*
X139724000Y-9067500D01*
X90649400Y-41319100D02*
X60902100Y-41319100D01*
X134234000Y-28434900D02*
X131586000Y-31082500D01*
X95694500Y-41607900D02*
X94083200Y-39996600D01*
X135831000Y-12960400D02*
X135831000Y-12960000D01*
D25*
X138700000Y-9068000D02*
X135831000Y-11900000D01*
X135831000Y-11900000D02*
X135831000Y-12960000D01*
D24*
X134234000Y-16218400D02*
X134234000Y-28434900D01*
G04 #@! TO.N,/ROW3*
X128956000Y-43250400D02*
X131988000Y-40219000D01*
X139726000Y-11607500D02*
X140358000Y-11607500D01*
X125541000Y-43250400D02*
X128956000Y-43250400D01*
X99056400Y-52394400D02*
X98500000Y-52950800D01*
X131988000Y-31609900D02*
X134654000Y-28944300D01*
X134654000Y-28944300D02*
X134654000Y-16679400D01*
X140357500Y-11607500D02*
X140358000Y-11607500D01*
X136869000Y-45100000D02*
X131988000Y-40219000D01*
X114891000Y-52394400D02*
X99056400Y-52394400D01*
X131988000Y-40218600D02*
X131988000Y-31609900D01*
X114891000Y-52394400D02*
X116397000Y-52394400D01*
X131988000Y-40219000D02*
X131988000Y-40218600D01*
X134654000Y-16679400D02*
X139726000Y-11607500D01*
X116397000Y-52394400D02*
X125541000Y-43250400D01*
G04 #@! TO.N,/ROW4*
X82262200Y-65858500D02*
X72456900Y-65858500D01*
X143350000Y-50808200D02*
X138661000Y-46118800D01*
X92594000Y-69372900D02*
X85776600Y-69372900D01*
X138661000Y-46041300D02*
X135357000Y-42736800D01*
X57843000Y-62559700D02*
X55999500Y-60716200D01*
X138661000Y-46118800D02*
X138661000Y-46041300D01*
X85776600Y-69372900D02*
X82262200Y-65858500D01*
X72456900Y-65858500D02*
X69158100Y-62559700D01*
X98610000Y-61285800D02*
X135568000Y-61285800D01*
X93859100Y-67859000D02*
X93859100Y-66036700D01*
X55999500Y-60716200D02*
X55999500Y-59545900D01*
X69158100Y-62559700D02*
X57843000Y-62559700D01*
X135357000Y-18583300D02*
X139792000Y-14147500D01*
X147396000Y-50808200D02*
X143350000Y-50808200D01*
X144981000Y-61285800D02*
X149226000Y-57041000D01*
X139792000Y-14147500D02*
X140358000Y-14147500D01*
X149226000Y-57041000D02*
X149226000Y-52638200D01*
X42548300Y-59545900D02*
X42485400Y-59483000D01*
X135357000Y-42736800D02*
X135357000Y-18583300D01*
X93859100Y-66036700D02*
X98610000Y-61285800D01*
X55999500Y-59545900D02*
X60500000Y-59545900D01*
X93983500Y-67983400D02*
X93859100Y-67859000D01*
X93983500Y-67983400D02*
X92594000Y-69372900D01*
X135568000Y-61285800D02*
X144981000Y-61285800D01*
X55999500Y-59545900D02*
X42548300Y-59545900D01*
X149226000Y-52638200D02*
X147396000Y-50808200D01*
X140357500Y-14147500D02*
X140358000Y-14147500D01*
G04 #@! TO.N,/ROW5*
X78932700Y-77325300D02*
X116504000Y-77325300D01*
X116504000Y-77325300D02*
X117500000Y-76329100D01*
X139702000Y-75808900D02*
X132595000Y-75808900D01*
X130606000Y-77798000D02*
X124117000Y-77798000D01*
X124117000Y-77798000D02*
X122648000Y-76329100D01*
X141318000Y-17647900D02*
X144422000Y-17647900D01*
X140357500Y-16687500D02*
X140358000Y-16687500D01*
X140358000Y-16687500D02*
X141318000Y-17647900D01*
X122648000Y-76329100D02*
X117500000Y-76329100D01*
X132595000Y-75808900D02*
X130606000Y-77798000D01*
G04 #@! TO.N,/ROW6*
X150882000Y-47014100D02*
X150882000Y-51504400D01*
X135758000Y-38453200D02*
X139910000Y-42604700D01*
X146473000Y-42604700D02*
X150882000Y-47014100D01*
X41576200Y-78799900D02*
X46336900Y-83560600D01*
X140358000Y-19227500D02*
X135758000Y-23826700D01*
X137652000Y-78914300D02*
X135908000Y-78914300D01*
X78896000Y-86813500D02*
X82500000Y-90417500D01*
X135758000Y-23826700D02*
X135758000Y-38453200D01*
X72456900Y-86813500D02*
X78896000Y-86813500D01*
X139910000Y-42604700D02*
X146473000Y-42604700D01*
X148849000Y-76123300D02*
X140444000Y-76123300D01*
X154414000Y-55036000D02*
X154414000Y-70558600D01*
X140444000Y-76123300D02*
X137652000Y-78914300D01*
X150882000Y-51504400D02*
X154414000Y-55036000D01*
X69204000Y-83560600D02*
X72456900Y-86813500D01*
X124553000Y-90417500D02*
X135908000Y-79062300D01*
X46336900Y-83560600D02*
X69204000Y-83560600D01*
X101994000Y-90417500D02*
X124553000Y-90417500D01*
X135908000Y-79062300D02*
X135908000Y-78914300D01*
X154414000Y-70558600D02*
X148849000Y-76123300D01*
X101994000Y-90417500D02*
X82500000Y-90417500D01*
G04 #@! TO.N,/ROW7*
D25*
X158086000Y-32656700D02*
X157391000Y-33352100D01*
X148003000Y-77543500D02*
X140110000Y-77543500D01*
D24*
X86920400Y-90820400D02*
X86020000Y-91720800D01*
X99772400Y-90820400D02*
X86920400Y-90820400D01*
X127857000Y-93396800D02*
X102349000Y-93396800D01*
D25*
X156526000Y-22413700D02*
X156526000Y-26741900D01*
D24*
X74872100Y-92247900D02*
X52000000Y-92247900D01*
D25*
X128223000Y-89430900D02*
X128223000Y-93762500D01*
X157391000Y-33352100D02*
X157391000Y-68155500D01*
D24*
X86020000Y-91720800D02*
X75399200Y-91720800D01*
D25*
X156526000Y-26741900D02*
X158086000Y-28302200D01*
D24*
X75399200Y-91720800D02*
X74872100Y-92247900D01*
X102349000Y-93396800D02*
X99772400Y-90820400D01*
X156526000Y-19569100D02*
X156526000Y-22413700D01*
D25*
X157391000Y-68155500D02*
X148003000Y-77543500D01*
D24*
X128223000Y-93762500D02*
X127857000Y-93396800D01*
D25*
X140110000Y-77543500D02*
X128223000Y-89430900D01*
D24*
X156868000Y-19227500D02*
X156526000Y-19569100D01*
D25*
X158086000Y-28302200D02*
X158086000Y-32656700D01*
G04 #@! TO.N,/COL1*
D24*
X152200000Y-21500000D02*
X152500000Y-21400000D01*
X31030100Y-24241200D02*
X30668800Y-24241200D01*
X145400000Y-28800000D02*
X146000000Y-27800000D01*
X118945000Y-47715100D02*
X112307000Y-47715100D01*
X93916800Y-40398300D02*
X92138300Y-40398300D01*
X153000000Y-21600000D02*
X155600000Y-24000000D01*
X25875100Y-58067900D02*
X27950800Y-60143600D01*
X115595000Y-100663000D02*
X113581000Y-100663000D01*
X146600000Y-24800000D02*
X152200000Y-21500000D01*
X71652700Y-41925700D02*
X24229600Y-41925700D01*
X108026000Y-43434400D02*
X96952900Y-43434400D01*
X30668800Y-24241200D02*
X30667800Y-24240100D01*
X151000000Y-33900000D02*
X151000000Y-32400000D01*
X146200000Y-35600000D02*
X145900000Y-35800000D01*
X147500000Y-34100000D02*
X146200000Y-35600000D01*
X152500000Y-21400000D02*
X153000000Y-21600000D01*
X96952900Y-43434400D02*
X93916800Y-40398300D01*
X92138300Y-40398300D02*
X90811900Y-41724700D01*
X149200000Y-37000000D02*
X151000000Y-33900000D01*
X24229600Y-56422400D02*
X24229600Y-41925700D01*
X32154500Y-25365600D02*
X31030100Y-24241200D01*
X156868000Y-14147500D02*
X156440000Y-14147500D01*
X145900000Y-35800000D02*
X145300000Y-35800000D01*
X112307000Y-47715100D02*
X108026000Y-43434400D01*
X24231100Y-31572000D02*
X24231100Y-30806000D01*
X156440000Y-14147500D02*
X155598000Y-14989200D01*
X36625600Y-63182400D02*
X64437500Y-63182400D01*
X45387500Y-25365600D02*
X32154500Y-25365600D01*
X24229600Y-31573500D02*
X24231100Y-31572000D01*
X140700000Y-38900000D02*
X148900000Y-37200000D01*
X148900000Y-37200000D02*
X149200000Y-37000000D01*
X145000000Y-35600000D02*
X144800000Y-35300000D01*
X24231100Y-30806000D02*
X24999600Y-30037500D01*
X24999600Y-29908300D02*
X30667800Y-24240100D01*
X25875100Y-58067900D02*
X24229600Y-56422400D01*
X144800000Y-35300000D02*
X145000000Y-29500000D01*
X145300000Y-35800000D02*
X145000000Y-35600000D01*
X33586800Y-60143600D02*
X36625600Y-63182400D01*
X27950800Y-60143600D02*
X33586800Y-60143600D01*
X149300000Y-32299999D02*
X147500000Y-34100000D01*
X24999600Y-30037500D02*
X24999600Y-29908300D01*
X30667800Y-24240100D02*
X26022100Y-19594500D01*
X71853700Y-41724700D02*
X71652700Y-41925700D01*
X24229600Y-41925700D02*
X24229600Y-31573500D01*
X145000000Y-29500000D02*
X145400000Y-28800000D01*
X90811900Y-41724700D02*
X71853700Y-41724700D01*
G04 #@! TO.N,/COL2*
X156868000Y-11607500D02*
X158585000Y-9890300D01*
X71113900Y-43232400D02*
X72070500Y-42275800D01*
X93386000Y-48732900D02*
X101339000Y-56686100D01*
X117286000Y-71783300D02*
X117874000Y-72370800D01*
X142441000Y-2799600D02*
X108755000Y-2799600D01*
D25*
X102538000Y-10833800D02*
X96000400Y-17370900D01*
D24*
X26493400Y-43232400D02*
X64437500Y-43232400D01*
X156867500Y-11607500D02*
X156868000Y-11607500D01*
X158585000Y-5827900D02*
X157880000Y-5123100D01*
X90434900Y-21296800D02*
X100560000Y-21296800D01*
X158585000Y-9890300D02*
X158585000Y-5827900D01*
X157880000Y-5123100D02*
X154132000Y-5123100D01*
X102516000Y-23253300D02*
X121588000Y-23253300D01*
X88921600Y-42275800D02*
X93386000Y-46740200D01*
X100560000Y-21296800D02*
X102516000Y-23253300D01*
X102538000Y-9017200D02*
X102538000Y-10833800D01*
X125924000Y-93998500D02*
X135921000Y-103996000D01*
X150917000Y-1907800D02*
X143333000Y-1907800D01*
X154132000Y-5123100D02*
X150917000Y-1907800D01*
X99933600Y-85882100D02*
X118377000Y-85882100D01*
X101339000Y-56686100D02*
X102556000Y-56686100D01*
X108755000Y-2799600D02*
X102538000Y-9017200D01*
X90631300Y-82373500D02*
X96425000Y-82373500D01*
X96425000Y-82373500D02*
X99933600Y-85882100D01*
X72070500Y-42275800D02*
X88921600Y-42275800D01*
X105194000Y-71783300D02*
X117286000Y-71783300D01*
X93386000Y-46740200D02*
X93386000Y-48732900D01*
X88093200Y-22401500D02*
X89330200Y-22401500D01*
X143333000Y-1907800D02*
X142441000Y-2799600D01*
X64437500Y-43232400D02*
X71113900Y-43232400D01*
D25*
X96000400Y-17370900D02*
X88093200Y-17370900D01*
D24*
X114998000Y-93998500D02*
X125924000Y-93998500D01*
X89330200Y-22401500D02*
X90434900Y-21296800D01*
G04 #@! TO.N,/GND_LEFT*
X147380000Y-106797200D02*
X147380000Y-102511600D01*
X147380000Y-102511600D02*
X145335500Y-100467100D01*
X54987500Y-35986300D02*
X54514600Y-35513400D01*
X104525500Y-71527700D02*
X104525500Y-72480500D01*
X145222700Y-111142100D02*
X128162300Y-111142100D01*
X142351200Y-109882200D02*
X144295000Y-109882200D01*
X86745600Y-70102500D02*
X83534400Y-70102500D01*
X104890600Y-71162600D02*
X104525500Y-71527700D01*
X151603700Y-6062700D02*
X151847500Y-6062700D01*
X114074200Y-71162600D02*
X121294200Y-71162600D01*
X95191200Y-52785500D02*
X96215600Y-52785500D01*
X128162300Y-111142100D02*
X125869000Y-108848800D01*
X104525500Y-72480500D02*
X104825100Y-72780100D01*
X46279700Y-35513400D02*
X45887500Y-35905600D01*
X74037500Y-13125700D02*
X73069400Y-14093800D01*
X96215600Y-52785500D02*
X98628800Y-55198700D01*
X138624300Y-55557600D02*
X133800500Y-55557600D01*
X144791400Y-109385800D02*
X147380000Y-106797200D01*
X54514600Y-35513400D02*
X46279700Y-35513400D01*
X84529300Y-12697400D02*
X93087500Y-12697400D01*
X104825100Y-72780100D02*
X104825100Y-73309500D01*
X84101000Y-13125700D02*
X84529300Y-12697400D01*
X35030400Y-55063300D02*
X35493000Y-54600700D01*
X152500000Y-22200000D02*
X150400000Y-31200000D01*
X151603700Y-6062700D02*
X151603700Y-13613400D01*
X145669400Y-110263800D02*
X145669400Y-110695400D01*
X104447200Y-73687400D02*
X103644900Y-73687400D01*
X122906500Y-35121400D02*
X122087500Y-35940400D01*
X130313100Y-35121400D02*
X122906500Y-35121400D01*
X45887500Y-54600700D02*
X56924200Y-54600700D01*
X133800500Y-55557600D02*
X133330400Y-56027700D01*
X63432700Y-35986300D02*
X54987500Y-35986300D01*
X73069400Y-14093800D02*
X64937500Y-14093800D01*
X114074200Y-71162600D02*
X104890600Y-71162600D01*
X139875000Y-70767300D02*
X150911700Y-70767300D01*
X151847500Y-6062700D02*
X156402700Y-6062700D01*
X156402700Y-6062700D02*
X156867500Y-6527500D01*
X114993400Y-35940400D02*
X122087500Y-35940400D01*
X103644900Y-73687400D02*
X102257600Y-72300100D01*
X117233600Y-16528500D02*
X114966200Y-18795900D01*
X24857100Y-55063300D02*
X35030400Y-55063300D01*
X144791400Y-109385800D02*
X145669400Y-110263800D01*
X145669400Y-110695400D02*
X145222700Y-111142100D01*
X45887500Y-35905600D02*
X35934400Y-35905600D01*
X102258900Y-16635700D02*
X97591700Y-16635700D01*
X151116000Y-5575000D02*
X151603700Y-6062700D01*
X83534400Y-70102500D02*
X83224700Y-70412200D01*
X104825100Y-73309500D02*
X104447200Y-73687400D01*
X97591700Y-16635700D02*
X97475900Y-16751500D01*
X122087500Y-16528500D02*
X131187500Y-16528500D01*
X45887500Y-54600700D02*
X35493000Y-54600700D01*
X149882500Y-5575000D02*
X151116000Y-5575000D01*
X124463200Y-108848800D02*
X123414300Y-107799900D01*
X151603700Y-13613400D02*
X149618500Y-15598600D01*
X149618500Y-17125300D02*
X149618500Y-15598600D01*
X144295000Y-109882200D02*
X144791400Y-109385800D01*
X125869000Y-108848800D02*
X124463200Y-108848800D01*
X84101000Y-13125700D02*
X74037500Y-13125700D01*
X122087500Y-16528500D02*
X117233600Y-16528500D01*
G04 #@! TO.N,/COL3*
X40867100Y-16215600D02*
X40142100Y-16940600D01*
D25*
X64937500Y-50900000D02*
X65237500Y-51700000D01*
D24*
X47891500Y-73688300D02*
X60800800Y-73688300D01*
D25*
X76037500Y-57100000D02*
X81037500Y-57600000D01*
D24*
X113548000Y-18988600D02*
X105491000Y-18988600D01*
D25*
X63837500Y-44600000D02*
X64937500Y-50900000D01*
D24*
X45387500Y-16215600D02*
X40867100Y-16215600D01*
D25*
X80837500Y-61900000D02*
X83437500Y-64100000D01*
D24*
X101700000Y-19396500D02*
X101054000Y-18750000D01*
X139958000Y-5257500D02*
X127279000Y-5257500D01*
X65991700Y-18750000D02*
X65687500Y-18445800D01*
X40142100Y-16940600D02*
X27780300Y-16940600D01*
X105491000Y-18988600D02*
X105083000Y-19396500D01*
D25*
X64037500Y-34500000D02*
X64037500Y-38000000D01*
D24*
X45387500Y-16215600D02*
X61808400Y-16215600D01*
X84948800Y-71623600D02*
X84796300Y-71776100D01*
D25*
X69537500Y-57100000D02*
X76037500Y-57100000D01*
D24*
X101054000Y-18750000D02*
X65991700Y-18750000D01*
X84796300Y-71776100D02*
X69342400Y-71776100D01*
X69342400Y-71776100D02*
X64115500Y-77003000D01*
X61808400Y-16215600D02*
X64038600Y-18445800D01*
X105083000Y-19396500D02*
X101700000Y-19396500D01*
D25*
X65237500Y-52900000D02*
X69537500Y-57100000D01*
D24*
X127279000Y-5257500D02*
X113548000Y-18988600D01*
X64038600Y-18445800D02*
X65687500Y-18445800D01*
X24782700Y-19938200D02*
X24782700Y-23460400D01*
X27780300Y-16940600D02*
X24782700Y-19938200D01*
X60800800Y-73688300D02*
X64115500Y-77003000D01*
G04 #@! TO.N,/RGB_DATA_LEFT*
X140476900Y-8316900D02*
X139957500Y-7797500D01*
X145065600Y-11654100D02*
X141728400Y-8316900D01*
X145065600Y-18067000D02*
X145065600Y-11654100D01*
X141728400Y-8316900D02*
X140476900Y-8316900D01*
G04 #@! TO.N,/RGB_EN_LEFT*
X143773400Y-21612100D02*
X145710400Y-19675100D01*
X145710400Y-19675100D02*
X145710400Y-15496100D01*
X144750000Y-36433500D02*
X143773400Y-35456900D01*
X144750000Y-36433500D02*
X148599100Y-36433500D01*
X143773400Y-35456900D02*
X143773400Y-21612100D01*
G04 #@! TO.N,/VBAT_LEFT*
X149200000Y-37800000D02*
X144000000Y-39500000D01*
X151800000Y-32300000D02*
X151600000Y-34200000D01*
X146600000Y-31800000D02*
X147100000Y-31300000D01*
X147997400Y-35185300D02*
X147997400Y-34540800D01*
X151100000Y-31000000D02*
X151800000Y-32300000D01*
X149300000Y-37700000D02*
X149200000Y-37800000D01*
X151600000Y-34200000D02*
X149700000Y-37400000D01*
X155050000Y-29737500D02*
X154236700Y-30550800D01*
X147997400Y-34540800D02*
X151987400Y-30550800D01*
X149700000Y-37400000D02*
X149300000Y-37700000D01*
X154236700Y-30550800D02*
X151987400Y-30550800D01*
G04 #@! TO.N,/matrix/SW37_A*
X41000000Y-51830100D02*
X39342900Y-51830100D01*
G04 #@! TO.N,/matrix/SW33_A*
X59524500Y-49547700D02*
X58087500Y-49547700D01*
X60930000Y-50953200D02*
X59524500Y-49547700D01*
G04 #@! TO.N,/matrix/SW15_A*
X80413000Y-29647100D02*
X78121000Y-27355100D01*
X78121000Y-27355100D02*
X77137500Y-27355100D01*
G04 #@! TO.N,/power/BAT_RAW_LEFT*
X152200000Y-34500000D02*
X152400000Y-32900000D01*
X155653600Y-29019400D02*
X155941400Y-29307200D01*
X144100000Y-40300000D02*
X149500000Y-38400000D01*
X149500000Y-38400000D02*
X150100000Y-37900000D01*
X141500000Y-32100000D02*
X139900000Y-39000000D01*
X150100000Y-37900000D02*
X150300000Y-37700000D01*
X156354200Y-30008900D02*
X155050000Y-31313100D01*
X139900000Y-39000000D02*
X140200000Y-39500000D01*
X156354200Y-29685600D02*
X156354200Y-30008900D01*
X140200000Y-39500000D02*
X140700000Y-39700000D01*
X150300000Y-37700000D02*
X152200000Y-34500000D01*
X155050000Y-31313100D02*
X155050000Y-32737500D01*
X155975800Y-29307200D02*
X156354200Y-29685600D01*
X152400000Y-32900000D02*
X152600000Y-31200000D01*
X140700000Y-39700000D02*
X144100000Y-40300000D01*
X155941400Y-29307200D02*
X155975800Y-29307200D01*
G04 #@! TO.N,/matrix/SW7_A*
X62859900Y-15890700D02*
X62284800Y-15315600D01*
G04 #@! TO.N,/matrix/SW11_A*
X40789500Y-18669300D02*
X40789500Y-17460500D01*
X40789500Y-17460500D02*
X40750200Y-17421200D01*
G04 #@! TO.N,/matrix/SW48_A*
X134955000Y-77931200D02*
X137000000Y-77931200D01*
X136111000Y-72784400D02*
X135535000Y-72208900D01*
G04 #@! TO.N,/RGB_5V_LEFT*
X104173500Y-73080000D02*
X100917400Y-69823900D01*
X84724900Y-51203900D02*
X83354100Y-49833100D01*
X35624700Y-75799800D02*
X34252800Y-74427900D01*
X46938600Y-36525100D02*
X28356300Y-36525100D01*
X105703100Y-34043600D02*
X105703100Y-36009400D01*
X47067300Y-75799800D02*
X35624700Y-75799800D01*
X87887500Y-51203900D02*
X84724900Y-51203900D01*
X100917400Y-69823900D02*
X88044800Y-69823900D01*
X146982000Y-29725300D02*
X146982000Y-27844000D01*
X146982000Y-29725300D02*
X147773900Y-30517200D01*
X146982000Y-27844000D02*
X144375200Y-25237200D01*
X107478400Y-37784700D02*
X123436200Y-37784700D01*
X88044800Y-69823900D02*
X87887500Y-69981200D01*
X147773900Y-30517200D02*
X147773900Y-31781200D01*
X34252800Y-74427900D02*
X27091300Y-74427900D01*
X27091300Y-74427900D02*
X25581700Y-75937500D01*
X105703100Y-36009400D02*
X107478400Y-37784700D01*
X47298500Y-36885000D02*
X46938600Y-36525100D01*
G04 #@! TO.N,/rgb/RGB_LED_left_16*
X119534000Y-58529400D02*
X120498000Y-59493200D01*
X120498000Y-59493200D02*
X133124000Y-59493200D01*
X58656300Y-58944200D02*
X59071100Y-58529400D01*
X59071100Y-58529400D02*
X119534000Y-58529400D01*
X49787500Y-58944200D02*
X58656300Y-58944200D01*
G04 #@! TO.N,/rgb/RGB_LED_left_17*
X115535000Y-60492300D02*
X125988000Y-60492300D01*
X56601200Y-60265200D02*
X71097800Y-60265200D01*
X55389600Y-60392600D02*
X35493000Y-60392600D01*
X72431900Y-58931100D02*
X113974000Y-58931100D01*
X71097800Y-60265200D02*
X72431900Y-58931100D01*
X113974000Y-58931100D02*
X115535000Y-60492300D01*
G04 #@! TO.N,/rgb/RGB_LED_left_14*
X92138300Y-63741700D02*
X93916800Y-63741700D01*
X72147900Y-61351400D02*
X89748000Y-61351400D01*
X107588000Y-59733000D02*
X107588000Y-59732900D01*
X107187000Y-60134600D02*
X107588000Y-59733000D01*
X97523800Y-60134700D02*
X97523800Y-60134600D01*
X89748000Y-61351400D02*
X92138300Y-63741700D01*
X71747400Y-61751900D02*
X72147900Y-61351400D01*
X93916800Y-63741700D02*
X97523800Y-60134700D01*
X68837500Y-61751900D02*
X71747400Y-61751900D01*
X107588000Y-59732900D02*
X112138000Y-59732900D01*
X97523800Y-60134600D02*
X107187000Y-60134600D01*
G04 #@! TO.N,/rgb/RGB_LED_left_15*
X73298500Y-59432800D02*
X106837000Y-59432800D01*
X57318200Y-61150200D02*
X71581100Y-61150200D01*
X106837000Y-59432800D02*
X106938000Y-59532900D01*
X71581100Y-61150200D02*
X73298500Y-59432800D01*
G04 #@! TO.N,/rgb/RGB_LED_left_23*
X131188000Y-79742000D02*
X49787500Y-79742000D01*
G04 #@! TO.N,/rgb/RGB_LED_left_24*
X35563500Y-78204100D02*
X35814000Y-77953600D01*
X35814000Y-77953600D02*
X122982000Y-77953600D01*
G04 #@! TO.N,/rgb/RGB_LED_left_13*
X142057000Y-57371400D02*
X132103000Y-57371400D01*
X130383000Y-59091500D02*
X120698000Y-59091500D01*
X119734000Y-58127700D02*
X76190800Y-58127700D01*
X76190800Y-58127700D02*
X75974200Y-57911100D01*
X120698000Y-59091500D02*
X119734000Y-58127700D01*
X132103000Y-57371400D02*
X130383000Y-59091500D01*
G04 #@! TO.N,/rgb/RGB_LED_left_4*
X89713700Y-20493400D02*
X89507600Y-20699500D01*
X125783000Y-20902900D02*
X101502000Y-20902900D01*
X101502000Y-20902900D02*
X101093000Y-20493400D01*
X89507600Y-20699500D02*
X38206100Y-20699500D01*
X101093000Y-20493400D02*
X89713700Y-20493400D01*
X125988000Y-20698800D02*
X125783000Y-20902900D01*
X38206100Y-20699500D02*
X37726100Y-21179500D01*
G04 #@! TO.N,/rgb/RGB_LED_left_5*
X80022900Y-36824600D02*
X74336000Y-31137700D01*
X74336000Y-31137700D02*
X74336000Y-29612800D01*
X91678000Y-36824600D02*
X80022900Y-36824600D01*
X74336000Y-29612800D02*
X67542700Y-22819500D01*
X67542700Y-22819500D02*
X30737500Y-22819500D01*
G04 #@! TO.N,/rgb/RGB_LED_left_3*
X89758800Y-21304600D02*
X49796300Y-21304600D01*
X100926000Y-20895100D02*
X90168300Y-20895100D01*
X131188000Y-21304600D02*
X101336000Y-21304600D01*
X101336000Y-21304600D02*
X100926000Y-20895100D01*
X90168300Y-20895100D02*
X89758800Y-21304600D01*
G04 #@! TO.N,/rgb/RGB_LED_left_12*
X87887500Y-57102400D02*
X88072900Y-57287800D01*
X114374000Y-54622100D02*
X138955000Y-54622100D01*
X138955000Y-54622100D02*
X141103000Y-56769700D01*
X88072900Y-57287800D02*
X111708000Y-57287800D01*
X141103000Y-56769700D02*
X148600000Y-56769700D01*
X111708000Y-57287800D02*
X114374000Y-54622100D01*
G04 #@! TO.N,/power/RGB_SW_LEFT*
X145621200Y-34995200D02*
X145621200Y-29780100D01*
X145621200Y-29780100D02*
X146000000Y-29401300D01*
G04 #@! TO.N,/rgb/RGB_LED_left_19*
X148975000Y-75098600D02*
X144355000Y-75098600D01*
X111600000Y-75876700D02*
X89272400Y-75876700D01*
X114281000Y-73195300D02*
X111600000Y-75876700D01*
X142431000Y-73174700D02*
X136572000Y-73174700D01*
X135862000Y-73386100D02*
X135671000Y-73195300D01*
X135671000Y-73195300D02*
X114281000Y-73195300D01*
X89272400Y-75876700D02*
X87887500Y-74491800D01*
X144355000Y-75098600D02*
X142431000Y-73174700D01*
X136360000Y-73386100D02*
X135862000Y-73386100D01*
X136572000Y-73174700D02*
X136360000Y-73386100D01*
G04 #@! TO.N,/rgb/RGB_LED_left_20*
X114392000Y-73652800D02*
X111766000Y-76278400D01*
X111766000Y-76278400D02*
X74226100Y-76278400D01*
X74226100Y-76278400D02*
X74037500Y-76089800D01*
X135560000Y-73652800D02*
X114392000Y-73652800D01*
X135695000Y-73787800D02*
X135560000Y-73652800D01*
X141602000Y-73787800D02*
X135695000Y-73787800D01*
G04 #@! TO.N,/rgb/RGB_LED_left_18*
X53406900Y-67763500D02*
X50079200Y-64435800D01*
X84440500Y-71281000D02*
X63711600Y-71281000D01*
X50079200Y-64435800D02*
X36337100Y-64435800D01*
X93087500Y-74331200D02*
X88801800Y-74331200D01*
X88801800Y-74331200D02*
X85492500Y-71021900D01*
X32646700Y-60745400D02*
X28075100Y-60745400D01*
X84699600Y-71021900D02*
X84440500Y-71281000D01*
X36337100Y-64435800D02*
X32646700Y-60745400D01*
X63711600Y-71281000D02*
X60194100Y-67763500D01*
X85492500Y-71021900D02*
X84699600Y-71021900D01*
X60194100Y-67763500D02*
X53406900Y-67763500D01*
G04 #@! TO.N,/rgb/RGB_LED_left_6*
X85548400Y-33137600D02*
X87887500Y-35476700D01*
X77186800Y-33137600D02*
X85548400Y-33137600D01*
G04 #@! TO.N,/rgb/RGB_LED_left_25*
X93926900Y-96102000D02*
X100231000Y-96102000D01*
X56459800Y-92715700D02*
X73603700Y-92715700D01*
X73603700Y-92715700D02*
X75144400Y-94256400D01*
X56039100Y-93136400D02*
X56459800Y-92715700D01*
X75144400Y-94256400D02*
X92081300Y-94256400D01*
X92081300Y-94256400D02*
X93926900Y-96102000D01*
X32401900Y-93136400D02*
X56039100Y-93136400D01*
G04 #@! TO.N,/rgb/RGB_LED_left_1*
X101467000Y-20299700D02*
X101063000Y-19895900D01*
X114074000Y-20299700D02*
X101467000Y-20299700D01*
X101063000Y-19895900D02*
X68837500Y-19895900D01*
G04 #@! TO.N,/rgb/RGB_LED_left_2*
X101574000Y-19838200D02*
X101022000Y-19286700D01*
X106759000Y-19838200D02*
X101574000Y-19838200D01*
X106938000Y-19659400D02*
X106759000Y-19838200D01*
X101022000Y-19286700D02*
X57130300Y-19286700D01*
G04 #@! TO.N,/rgb/RGB_LED_left_10*
X94249600Y-39594900D02*
X91805500Y-39594900D01*
X91805500Y-39594900D02*
X91040300Y-40360100D01*
X94922900Y-40268200D02*
X94249600Y-39594900D01*
X91040300Y-40360100D02*
X34578900Y-40360100D01*
X125712000Y-40268200D02*
X94922900Y-40268200D01*
X125988000Y-39992600D02*
X125712000Y-40268200D01*
G04 #@! TO.N,/rgb/RGB_LED_left_11*
X54379300Y-48842700D02*
X59670500Y-48842700D01*
X74705900Y-52317500D02*
X77521700Y-55133300D01*
X63145300Y-52317500D02*
X74705900Y-52317500D01*
X28356300Y-44009100D02*
X49545700Y-44009100D01*
X77521700Y-55133300D02*
X93087500Y-55133300D01*
X59670500Y-48842700D02*
X63145300Y-52317500D01*
X49545700Y-44009100D02*
X54379300Y-48842700D01*
G04 #@! TO.N,/rgb/RGB_LED_left_7*
X94582400Y-38791500D02*
X91472700Y-38791500D01*
X95015900Y-39225000D02*
X94582400Y-38791500D01*
X91039200Y-39225000D02*
X68837500Y-39225000D01*
X91472700Y-38791500D02*
X91039200Y-39225000D01*
X114074000Y-39225000D02*
X95015900Y-39225000D01*
G04 #@! TO.N,/rgb/RGB_LED_left_8*
X94967300Y-38608300D02*
X94748800Y-38389800D01*
X94748800Y-38389800D02*
X91306300Y-38389800D01*
X91087800Y-38608300D02*
X58003800Y-38608300D01*
X91306300Y-38389800D02*
X91087800Y-38608300D01*
X105001000Y-38608300D02*
X94967300Y-38608300D01*
X58003800Y-38608300D02*
X57282600Y-37887100D01*
G04 #@! TO.N,/RGB_DATA_SHIFTED_LEFT*
X124464400Y-23041000D02*
X120044400Y-27461000D01*
X120044400Y-27461000D02*
X111244800Y-27461000D01*
X109163300Y-25379500D02*
X98783600Y-25379500D01*
X111244800Y-27461000D02*
X109163300Y-25379500D01*
X129178700Y-23041000D02*
X124464400Y-23041000D01*
G04 #@! TO.N,/rgb/RGB_LED_left_21*
X114074000Y-76697100D02*
X68837500Y-76697100D01*
G04 #@! TO.N,/rgb/RGB_LED_left_9*
X126583000Y-39736900D02*
X126237000Y-39390900D01*
X125302000Y-39826800D02*
X95049600Y-39826800D01*
X126237000Y-39390900D02*
X125738000Y-39390900D01*
X91005500Y-39826800D02*
X49875800Y-39826800D01*
X125738000Y-39390900D02*
X125302000Y-39826800D01*
X95049600Y-39826800D02*
X94416000Y-39193200D01*
X130985000Y-39736900D02*
X126583000Y-39736900D01*
X91639100Y-39193200D02*
X91005500Y-39826800D01*
X49875800Y-39826800D02*
X49787500Y-39738500D01*
X94416000Y-39193200D02*
X91639100Y-39193200D01*
G04 #@! TO.N,/rgb/RGB_LED_left_29*
X128361000Y-110492000D02*
X145020000Y-110492000D01*
X125536000Y-107667000D02*
X128361000Y-110492000D01*
G04 #@! TO.N,/rgb/RGB_LED_left_26*
X92136400Y-92641600D02*
X75974200Y-92641600D01*
X92687400Y-93192600D02*
X92136400Y-92641600D01*
G04 #@! TO.N,/rgb/RGB_LED_left_0*
X85698500Y-15815700D02*
X77134800Y-15815700D01*
G04 #@! TO.N,/rgb/RGB_LED_left_22*
X56924200Y-78835800D02*
X105001000Y-78835800D01*
G04 #@! TO.N,/rgb/RGB_LED_left_28*
X117885000Y-99780500D02*
X115436000Y-99780500D01*
X115436000Y-99780500D02*
X114352000Y-98696800D01*
X128517000Y-98718500D02*
X118947000Y-98718500D01*
X114352000Y-98696800D02*
X37881300Y-98696800D01*
X118947000Y-98718500D02*
X117885000Y-99780500D01*
G04 #@! TO.N,/rgb/RGB_LED_left_27*
X66900800Y-98039600D02*
X43081300Y-98039600D01*
G04 #@! TD*
M02*
