%TF.GenerationSoftware,KiCad,Pcbnew,10.0.5*%
%TF.CreationDate,2026-09-23T16:28:01+09:00*%
%TF.ProjectId,keyboard,6b657962-6f61-4726-942e-6b696361645f,rev?*%
%TF.SameCoordinates,Original*%
%TF.FileFunction,Drillmap*%
%TF.FilePolarity,Positive*%
%FSLAX45Y45*%
G04 Gerber Fmt 4.5, Leading zero omitted, Abs format (unit mm)*
G04 Created by KiCad (PCBNEW 10.0.5) date 2026-09-23 16:28:01*
%MOMM*%
%LPD*%
G01*
G04 APERTURE LIST*
%ADD10C,0.050000*%
%ADD11C,0.120000*%
%ADD12C,0.200000*%
%ADD13C,0.100000*%
%ADD14C,0.180000*%
%ADD15C,0.220000*%
%ADD16C,0.300000*%
%ADD17C,0.305000*%
%ADD18C,0.400000*%
G04 APERTURE END LIST*
D10*
X1705000Y-2181250D02*
X2116750Y-2181250D01*
X1705000Y-8296250D02*
X1705000Y-2181250D01*
X2116750Y-2181250D02*
X2118750Y-1976500D01*
X2118750Y-416750D02*
X2181250Y-416750D01*
X2118750Y-1976500D02*
X2118750Y-416750D01*
X2181250Y-276250D02*
X4086250Y-276250D01*
X2181250Y-416750D02*
X2181250Y-276250D01*
X2181250Y-8296250D02*
X1705000Y-8296250D01*
X2181250Y-10201250D02*
X2181250Y-8296250D01*
X4086250Y-181000D02*
X5928750Y-181000D01*
X4086250Y-276250D02*
X4086250Y-181000D01*
X5915000Y-10106000D02*
X5915000Y-10201250D01*
X5915000Y-10201250D02*
X2181250Y-10201250D01*
X5928750Y-131000D02*
X5991250Y-131000D01*
X5928750Y-181000D02*
X5928750Y-131000D01*
X5991250Y9500D02*
X7833750Y9500D01*
X5991250Y-131000D02*
X5991250Y9500D01*
X7833750Y59500D02*
X7896250Y59500D01*
X7833750Y9500D02*
X7833750Y59500D01*
X7896250Y200000D02*
X10201250Y200000D01*
X7896250Y59500D02*
X7896250Y200000D01*
X8772500Y-9915500D02*
X8772500Y-10106000D01*
X8772500Y-10106000D02*
X5915000Y-10106000D01*
X10201250Y200000D02*
X10201250Y9500D01*
X10201250Y9500D02*
X12106250Y9500D01*
X10540208Y-11413151D02*
X10941502Y-9915500D01*
X10941502Y-9915500D02*
X8772500Y-9915500D01*
X12106250Y9500D02*
X12106250Y-181000D01*
X12106250Y-181000D02*
X13734150Y-181000D01*
X12257034Y-12366223D02*
X12380297Y-11906201D01*
X12380297Y-11906201D02*
X10540208Y-11413151D01*
X13734150Y239250D02*
X15988350Y239250D01*
X13734150Y-181000D02*
X13734150Y239250D01*
X14011250Y-7820000D02*
X14011250Y-7984701D01*
X14011250Y-7984701D02*
X15696384Y-8436231D01*
X14483493Y-12962801D02*
X12257034Y-12366223D01*
X14639594Y-12380226D02*
X14483493Y-12962801D01*
X14853546Y-12437555D02*
X14639594Y-12380226D01*
X15540284Y-9018804D02*
X15754236Y-9076133D01*
X15696384Y-8436231D02*
X15540284Y-9018804D01*
X15754236Y-9076133D02*
X14853546Y-12437555D01*
X15894500Y-2520122D02*
X15916250Y-3610000D01*
X15895518Y-2415750D02*
X15894500Y-2520122D01*
X15916250Y-3610000D02*
X15916250Y-7820000D01*
X15916250Y-7820000D02*
X14011250Y-7820000D01*
X15988350Y239250D02*
X15988350Y-2415750D01*
X15988350Y-2415750D02*
X15895518Y-2415750D01*
D11*
X12683750Y-5508500D02*
X12683750Y-5828500D01*
X12683750Y-5828500D02*
X13033750Y-5828500D01*
X13033750Y-5508500D02*
X12683750Y-5508500D01*
X13033750Y-5828500D02*
X13033750Y-5508500D01*
X10778750Y-5318000D02*
X10778750Y-5638000D01*
X10778750Y-5638000D02*
X11128750Y-5638000D01*
X11128750Y-5318000D02*
X10778750Y-5318000D01*
X11128750Y-5638000D02*
X11128750Y-5318000D01*
X5063750Y-5508500D02*
X5063750Y-5828500D01*
X5063750Y-5828500D02*
X5413750Y-5828500D01*
X5413750Y-5508500D02*
X5063750Y-5508500D01*
X5413750Y-5828500D02*
X5413750Y-5508500D01*
X12683750Y-7413500D02*
X12683750Y-7733500D01*
X12683750Y-7733500D02*
X13033750Y-7733500D01*
X13033750Y-7413500D02*
X12683750Y-7413500D01*
X13033750Y-7733500D02*
X13033750Y-7413500D01*
X6968750Y-5318000D02*
X6968750Y-5638000D01*
X6968750Y-5638000D02*
X7318750Y-5638000D01*
X7318750Y-5318000D02*
X6968750Y-5318000D01*
X7318750Y-5638000D02*
X7318750Y-5318000D01*
X3158750Y-1793750D02*
X3158750Y-2113750D01*
X3158750Y-2113750D02*
X3508750Y-2113750D01*
X3508750Y-1793750D02*
X3158750Y-1793750D01*
X3508750Y-2113750D02*
X3508750Y-1793750D01*
X12683750Y-1698500D02*
X12683750Y-2018500D01*
X12683750Y-2018500D02*
X13033750Y-2018500D01*
X13033750Y-1698500D02*
X12683750Y-1698500D01*
X13033750Y-2018500D02*
X13033750Y-1698500D01*
X14425000Y-5190000D02*
X14425000Y-5510000D01*
X14425000Y-5510000D02*
X14775000Y-5510000D01*
X14775000Y-5190000D02*
X14425000Y-5190000D01*
X14775000Y-5510000D02*
X14775000Y-5190000D01*
X14462500Y-7140000D02*
X14462500Y-7460000D01*
X14462500Y-7460000D02*
X14812500Y-7460000D01*
X14812500Y-7140000D02*
X14462500Y-7140000D01*
X14812500Y-7460000D02*
X14812500Y-7140000D01*
X2920630Y-5603750D02*
X2920630Y-5923750D01*
X2920630Y-5923750D02*
X3270630Y-5923750D01*
X3270630Y-5603750D02*
X2920630Y-5603750D01*
X3270630Y-5923750D02*
X3270630Y-5603750D01*
X8873750Y-3222500D02*
X8873750Y-3542500D01*
X8873750Y-3542500D02*
X9223750Y-3542500D01*
X9223750Y-3222500D02*
X8873750Y-3222500D01*
X9223750Y-3542500D02*
X9223750Y-3222500D01*
X2920630Y-7508750D02*
X2920630Y-7828750D01*
X2920630Y-7828750D02*
X3270630Y-7828750D01*
X3270630Y-7508750D02*
X2920630Y-7508750D01*
X3270630Y-7828750D02*
X3270630Y-7508750D01*
X10778750Y-1508000D02*
X10778750Y-1828000D01*
X10778750Y-1828000D02*
X11128750Y-1828000D01*
X11128750Y-1508000D02*
X10778750Y-1508000D01*
X11128750Y-1828000D02*
X11128750Y-1508000D01*
X2920630Y-3698750D02*
X2920630Y-4018750D01*
X2920630Y-4018750D02*
X3270630Y-4018750D01*
X3270630Y-3698750D02*
X2920630Y-3698750D01*
X3270630Y-4018750D02*
X3270630Y-3698750D01*
X10778750Y-3413000D02*
X10778750Y-3733000D01*
X10778750Y-3733000D02*
X11128750Y-3733000D01*
X11128750Y-3413000D02*
X10778750Y-3413000D01*
X11128750Y-3733000D02*
X11128750Y-3413000D01*
X8873750Y-7032500D02*
X8873750Y-7352500D01*
X8873750Y-7352500D02*
X9223750Y-7352500D01*
X9223750Y-7032500D02*
X8873750Y-7032500D01*
X9223750Y-7352500D02*
X9223750Y-7032500D01*
X6968750Y-7223000D02*
X6968750Y-7543000D01*
X6968750Y-7543000D02*
X7318750Y-7543000D01*
X7318750Y-7223000D02*
X6968750Y-7223000D01*
X7318750Y-7543000D02*
X7318750Y-7223000D01*
X5063750Y-3603500D02*
X5063750Y-3923500D01*
X5063750Y-3923500D02*
X5413750Y-3923500D01*
X5413750Y-3603500D02*
X5063750Y-3603500D01*
X5413750Y-3923500D02*
X5413750Y-3603500D01*
X14283978Y-10664736D02*
X14593075Y-10747558D01*
X14374565Y-10326662D02*
X14283978Y-10664736D01*
X14593075Y-10747558D02*
X14683661Y-10409484D01*
X14683661Y-10409484D02*
X14374565Y-10326662D01*
X9588130Y-9128000D02*
X9588130Y-9448000D01*
X9588130Y-9448000D02*
X9938130Y-9448000D01*
X9938130Y-9128000D02*
X9588130Y-9128000D01*
X9938130Y-9448000D02*
X9938130Y-9128000D01*
X6968750Y-1508000D02*
X6968750Y-1828000D01*
X6968750Y-1828000D02*
X7318750Y-1828000D01*
X7318750Y-1508000D02*
X6968750Y-1508000D01*
X7318750Y-1828000D02*
X7318750Y-1508000D01*
X12683750Y-3603500D02*
X12683750Y-3923500D01*
X12683750Y-3923500D02*
X13033750Y-3923500D01*
X13033750Y-3603500D02*
X12683750Y-3603500D01*
X13033750Y-3923500D02*
X13033750Y-3603500D01*
X10778750Y-7223000D02*
X10778750Y-7543000D01*
X10778750Y-7543000D02*
X11128750Y-7543000D01*
X11128750Y-7223000D02*
X10778750Y-7223000D01*
X11128750Y-7543000D02*
X11128750Y-7223000D01*
X12382258Y-10401696D02*
X12691355Y-10484518D01*
X12472845Y-10063622D02*
X12382258Y-10401696D01*
X12691355Y-10484518D02*
X12781941Y-10146444D01*
X12781941Y-10146444D02*
X12472845Y-10063622D01*
X5063750Y-7413500D02*
X5063750Y-7733500D01*
X5063750Y-7733500D02*
X5413750Y-7733500D01*
X5413750Y-7413500D02*
X5063750Y-7413500D01*
X5413750Y-7733500D02*
X5413750Y-7413500D01*
X8873750Y-1317500D02*
X8873750Y-1637500D01*
X8873750Y-1637500D02*
X9223750Y-1637500D01*
X9223750Y-1317500D02*
X8873750Y-1317500D01*
X9223750Y-1637500D02*
X9223750Y-1317500D01*
X6968750Y-9318500D02*
X6968750Y-9638500D01*
X6968750Y-9638500D02*
X7318750Y-9638500D01*
X7318750Y-9318500D02*
X6968750Y-9318500D01*
X7318750Y-9638500D02*
X7318750Y-9318500D01*
X6968750Y-3413000D02*
X6968750Y-3733000D01*
X6968750Y-3733000D02*
X7318750Y-3733000D01*
X7318750Y-3413000D02*
X6968750Y-3413000D01*
X7318750Y-3733000D02*
X7318750Y-3413000D01*
X3873130Y-9413750D02*
X3873130Y-9733750D01*
X3873130Y-9733750D02*
X4223130Y-9733750D01*
X4223130Y-9413750D02*
X3873130Y-9413750D01*
X4223130Y-9733750D02*
X4223130Y-9413750D01*
X8873750Y-5127500D02*
X8873750Y-5447500D01*
X8873750Y-5447500D02*
X9223750Y-5447500D01*
X9223750Y-5127500D02*
X8873750Y-5127500D01*
X9223750Y-5447500D02*
X9223750Y-5127500D01*
X5063750Y-1698500D02*
X5063750Y-2018500D01*
X5063750Y-2018500D02*
X5413750Y-2018500D01*
X5413750Y-1698500D02*
X5063750Y-1698500D01*
X5413750Y-2018500D02*
X5413750Y-1698500D01*
D12*
D13*
X15657500Y-2856250D02*
X15742500Y-2941250D01*
X15742500Y-2856250D02*
X15657500Y-2941250D01*
X15657500Y-3156250D02*
X15742500Y-3241250D01*
X15742500Y-3156250D02*
X15657500Y-3241250D01*
D14*
X13935230Y-10891920D02*
G75*
G02*
X13755230Y-10891920I-90000J0D01*
G01*
X13755230Y-10891920D02*
G75*
G02*
X13935230Y-10891920I90000J0D01*
G01*
X14198190Y-9910540D02*
G75*
G02*
X14018190Y-9910540I-90000J0D01*
G01*
X14018190Y-9910540D02*
G75*
G02*
X14198190Y-9910540I90000J0D01*
G01*
D12*
X2587630Y-3233750D02*
X2587630Y-3433750D01*
X2487630Y-3333750D02*
X2687630Y-3333750D01*
X2587630Y-5138750D02*
X2587630Y-5338750D01*
X2487630Y-5238750D02*
X2687630Y-5238750D01*
X2587630Y-7043750D02*
X2587630Y-7243750D01*
X2487630Y-7143750D02*
X2687630Y-7143750D01*
X2825750Y-1328750D02*
X2825750Y-1528750D01*
X2725750Y-1428750D02*
X2925750Y-1428750D01*
X3540130Y-8948750D02*
X3540130Y-9148750D01*
X3440130Y-9048750D02*
X3640130Y-9048750D01*
X3603630Y-3233750D02*
X3603630Y-3433750D01*
X3503630Y-3333750D02*
X3703630Y-3333750D01*
X3603630Y-5138750D02*
X3603630Y-5338750D01*
X3503630Y-5238750D02*
X3703630Y-5238750D01*
X3603630Y-7043750D02*
X3603630Y-7243750D01*
X3503630Y-7143750D02*
X3703630Y-7143750D01*
X3841750Y-1328750D02*
X3841750Y-1528750D01*
X3741750Y-1428750D02*
X3941750Y-1428750D01*
X4556130Y-8948750D02*
X4556130Y-9148750D01*
X4456130Y-9048750D02*
X4656130Y-9048750D01*
X4730750Y-1233500D02*
X4730750Y-1433500D01*
X4630750Y-1333500D02*
X4830750Y-1333500D01*
X4730750Y-3138500D02*
X4730750Y-3338500D01*
X4630750Y-3238500D02*
X4830750Y-3238500D01*
X4730750Y-5043500D02*
X4730750Y-5243500D01*
X4630750Y-5143500D02*
X4830750Y-5143500D01*
X4730750Y-6948500D02*
X4730750Y-7148500D01*
X4630750Y-7048500D02*
X4830750Y-7048500D01*
X5746750Y-1233500D02*
X5746750Y-1433500D01*
X5646750Y-1333500D02*
X5846750Y-1333500D01*
X5746750Y-3138500D02*
X5746750Y-3338500D01*
X5646750Y-3238500D02*
X5846750Y-3238500D01*
X5746750Y-5043500D02*
X5746750Y-5243500D01*
X5646750Y-5143500D02*
X5846750Y-5143500D01*
X5746750Y-6948500D02*
X5746750Y-7148500D01*
X5646750Y-7048500D02*
X5846750Y-7048500D01*
X6635750Y-1043000D02*
X6635750Y-1243000D01*
X6535750Y-1143000D02*
X6735750Y-1143000D01*
X6635750Y-2948000D02*
X6635750Y-3148000D01*
X6535750Y-3048000D02*
X6735750Y-3048000D01*
X6635750Y-4853000D02*
X6635750Y-5053000D01*
X6535750Y-4953000D02*
X6735750Y-4953000D01*
X6635750Y-6758000D02*
X6635750Y-6958000D01*
X6535750Y-6858000D02*
X6735750Y-6858000D01*
X6635750Y-8853500D02*
X6635750Y-9053500D01*
X6535750Y-8953500D02*
X6735750Y-8953500D01*
X7651750Y-1043000D02*
X7651750Y-1243000D01*
X7551750Y-1143000D02*
X7751750Y-1143000D01*
X7651750Y-2948000D02*
X7651750Y-3148000D01*
X7551750Y-3048000D02*
X7751750Y-3048000D01*
X7651750Y-4853000D02*
X7651750Y-5053000D01*
X7551750Y-4953000D02*
X7751750Y-4953000D01*
X7651750Y-6758000D02*
X7651750Y-6958000D01*
X7551750Y-6858000D02*
X7751750Y-6858000D01*
X7651750Y-8853500D02*
X7651750Y-9053500D01*
X7551750Y-8953500D02*
X7751750Y-8953500D01*
X8540750Y-852500D02*
X8540750Y-1052500D01*
X8440750Y-952500D02*
X8640750Y-952500D01*
X8540750Y-2757500D02*
X8540750Y-2957500D01*
X8440750Y-2857500D02*
X8640750Y-2857500D01*
X8540750Y-4662500D02*
X8540750Y-4862500D01*
X8440750Y-4762500D02*
X8640750Y-4762500D01*
X8540750Y-6567500D02*
X8540750Y-6767500D01*
X8440750Y-6667500D02*
X8640750Y-6667500D01*
X9255130Y-8663000D02*
X9255130Y-8863000D01*
X9155130Y-8763000D02*
X9355130Y-8763000D01*
X9556750Y-852500D02*
X9556750Y-1052500D01*
X9456750Y-952500D02*
X9656750Y-952500D01*
X9556750Y-2757500D02*
X9556750Y-2957500D01*
X9456750Y-2857500D02*
X9656750Y-2857500D01*
X9556750Y-4662500D02*
X9556750Y-4862500D01*
X9456750Y-4762500D02*
X9656750Y-4762500D01*
X9556750Y-6567500D02*
X9556750Y-6767500D01*
X9456750Y-6667500D02*
X9656750Y-6667500D01*
X10271130Y-8663000D02*
X10271130Y-8863000D01*
X10171130Y-8763000D02*
X10371130Y-8763000D01*
X10445750Y-1043000D02*
X10445750Y-1243000D01*
X10345750Y-1143000D02*
X10545750Y-1143000D01*
X10445750Y-2948000D02*
X10445750Y-3148000D01*
X10345750Y-3048000D02*
X10545750Y-3048000D01*
X10445750Y-4853000D02*
X10445750Y-5053000D01*
X10345750Y-4953000D02*
X10545750Y-4953000D01*
X10445750Y-6758000D02*
X10445750Y-6958000D01*
X10345750Y-6858000D02*
X10545750Y-6858000D01*
X11461750Y-1043000D02*
X11461750Y-1243000D01*
X11361750Y-1143000D02*
X11561750Y-1143000D01*
X11461750Y-2948000D02*
X11461750Y-3148000D01*
X11361750Y-3048000D02*
X11561750Y-3048000D01*
X11461750Y-4853000D02*
X11461750Y-5053000D01*
X11361750Y-4953000D02*
X11561750Y-4953000D01*
X11461750Y-6758000D02*
X11461750Y-6958000D01*
X11361750Y-6858000D02*
X11561750Y-6858000D01*
X11943510Y-10528880D02*
X11943510Y-10728880D01*
X11843510Y-10628880D02*
X12043510Y-10628880D01*
X12206470Y-9547500D02*
X12206470Y-9747500D01*
X12106470Y-9647500D02*
X12306470Y-9647500D01*
X12350750Y-1233500D02*
X12350750Y-1433500D01*
X12250750Y-1333500D02*
X12450750Y-1333500D01*
X12350750Y-3138500D02*
X12350750Y-3338500D01*
X12250750Y-3238500D02*
X12450750Y-3238500D01*
X12350750Y-5043500D02*
X12350750Y-5243500D01*
X12250750Y-5143500D02*
X12450750Y-5143500D01*
X12350750Y-6948500D02*
X12350750Y-7148500D01*
X12250750Y-7048500D02*
X12450750Y-7048500D01*
X13366750Y-1233500D02*
X13366750Y-1433500D01*
X13266750Y-1333500D02*
X13466750Y-1333500D01*
X13366750Y-3138500D02*
X13366750Y-3338500D01*
X13266750Y-3238500D02*
X13466750Y-3238500D01*
X13366750Y-5043500D02*
X13366750Y-5243500D01*
X13266750Y-5143500D02*
X13466750Y-5143500D01*
X13366750Y-6948500D02*
X13366750Y-7148500D01*
X13266750Y-7048500D02*
X13466750Y-7048500D01*
X14255750Y-4662500D02*
X14255750Y-4862500D01*
X14155750Y-4762500D02*
X14355750Y-4762500D01*
X14255750Y-6567500D02*
X14255750Y-6767500D01*
X14155750Y-6667500D02*
X14355750Y-6667500D01*
X15271750Y-4662500D02*
X15271750Y-4862500D01*
X15171750Y-4762500D02*
X15371750Y-4762500D01*
X15271750Y-6567500D02*
X15271750Y-6767500D01*
X15171750Y-6667500D02*
X15371750Y-6667500D01*
D15*
X2192783Y-3938532D02*
X2192783Y-3782967D01*
X2037217Y-3782967D01*
X2037217Y-3938532D01*
X2192783Y-3938532D01*
X8342782Y-9678533D02*
X8342782Y-9522968D01*
X8187217Y-9522968D01*
X8187217Y-9678533D01*
X8342782Y-9678533D01*
X14902782Y-2708533D02*
X14902782Y-2552968D01*
X14747217Y-2552968D01*
X14747217Y-2708533D01*
X14902782Y-2708533D01*
D16*
X2714630Y-3229750D02*
X2864630Y-3079750D01*
X2714630Y-2929750D01*
X2564630Y-3079750D01*
X2714630Y-3229750D01*
X2714630Y-5134750D02*
X2864630Y-4984750D01*
X2714630Y-4834750D01*
X2564630Y-4984750D01*
X2714630Y-5134750D01*
X2714630Y-7039750D02*
X2864630Y-6889750D01*
X2714630Y-6739750D01*
X2564630Y-6889750D01*
X2714630Y-7039750D01*
X2952750Y-1324750D02*
X3102750Y-1174750D01*
X2952750Y-1024750D01*
X2802750Y-1174750D01*
X2952750Y-1324750D01*
X3349630Y-2975750D02*
X3499630Y-2825750D01*
X3349630Y-2675750D01*
X3199630Y-2825750D01*
X3349630Y-2975750D01*
X3349630Y-4880750D02*
X3499630Y-4730750D01*
X3349630Y-4580750D01*
X3199630Y-4730750D01*
X3349630Y-4880750D01*
X3349630Y-6785750D02*
X3499630Y-6635750D01*
X3349630Y-6485750D01*
X3199630Y-6635750D01*
X3349630Y-6785750D01*
X3587750Y-1070750D02*
X3737750Y-920750D01*
X3587750Y-770750D01*
X3437750Y-920750D01*
X3587750Y-1070750D01*
X3667130Y-8944750D02*
X3817130Y-8794750D01*
X3667130Y-8644750D01*
X3517130Y-8794750D01*
X3667130Y-8944750D01*
X4302130Y-8690750D02*
X4452130Y-8540750D01*
X4302130Y-8390750D01*
X4152130Y-8540750D01*
X4302130Y-8690750D01*
X4857750Y-1229500D02*
X5007750Y-1079500D01*
X4857750Y-929500D01*
X4707750Y-1079500D01*
X4857750Y-1229500D01*
X4857750Y-3134500D02*
X5007750Y-2984500D01*
X4857750Y-2834500D01*
X4707750Y-2984500D01*
X4857750Y-3134500D01*
X4857750Y-5039500D02*
X5007750Y-4889500D01*
X4857750Y-4739500D01*
X4707750Y-4889500D01*
X4857750Y-5039500D01*
X4857750Y-6944500D02*
X5007750Y-6794500D01*
X4857750Y-6644500D01*
X4707750Y-6794500D01*
X4857750Y-6944500D01*
X5492750Y-975500D02*
X5642750Y-825500D01*
X5492750Y-675500D01*
X5342750Y-825500D01*
X5492750Y-975500D01*
X5492750Y-2880500D02*
X5642750Y-2730500D01*
X5492750Y-2580500D01*
X5342750Y-2730500D01*
X5492750Y-2880500D01*
X5492750Y-4785500D02*
X5642750Y-4635500D01*
X5492750Y-4485500D01*
X5342750Y-4635500D01*
X5492750Y-4785500D01*
X5492750Y-6690500D02*
X5642750Y-6540500D01*
X5492750Y-6390500D01*
X5342750Y-6540500D01*
X5492750Y-6690500D01*
X6762750Y-1039000D02*
X6912750Y-889000D01*
X6762750Y-739000D01*
X6612750Y-889000D01*
X6762750Y-1039000D01*
X6762750Y-2944000D02*
X6912750Y-2794000D01*
X6762750Y-2644000D01*
X6612750Y-2794000D01*
X6762750Y-2944000D01*
X6762750Y-4849000D02*
X6912750Y-4699000D01*
X6762750Y-4549000D01*
X6612750Y-4699000D01*
X6762750Y-4849000D01*
X6762750Y-6754000D02*
X6912750Y-6604000D01*
X6762750Y-6454000D01*
X6612750Y-6604000D01*
X6762750Y-6754000D01*
X6762750Y-8849500D02*
X6912750Y-8699500D01*
X6762750Y-8549500D01*
X6612750Y-8699500D01*
X6762750Y-8849500D01*
X7397750Y-785000D02*
X7547750Y-635000D01*
X7397750Y-485000D01*
X7247750Y-635000D01*
X7397750Y-785000D01*
X7397750Y-2690000D02*
X7547750Y-2540000D01*
X7397750Y-2390000D01*
X7247750Y-2540000D01*
X7397750Y-2690000D01*
X7397750Y-4595000D02*
X7547750Y-4445000D01*
X7397750Y-4295000D01*
X7247750Y-4445000D01*
X7397750Y-4595000D01*
X7397750Y-6500000D02*
X7547750Y-6350000D01*
X7397750Y-6200000D01*
X7247750Y-6350000D01*
X7397750Y-6500000D01*
X7397750Y-8595500D02*
X7547750Y-8445500D01*
X7397750Y-8295500D01*
X7247750Y-8445500D01*
X7397750Y-8595500D01*
X8667750Y-848500D02*
X8817750Y-698500D01*
X8667750Y-548500D01*
X8517750Y-698500D01*
X8667750Y-848500D01*
X8667750Y-2753500D02*
X8817750Y-2603500D01*
X8667750Y-2453500D01*
X8517750Y-2603500D01*
X8667750Y-2753500D01*
X8667750Y-4658500D02*
X8817750Y-4508500D01*
X8667750Y-4358500D01*
X8517750Y-4508500D01*
X8667750Y-4658500D01*
X8667750Y-6563500D02*
X8817750Y-6413500D01*
X8667750Y-6263500D01*
X8517750Y-6413500D01*
X8667750Y-6563500D01*
X9302750Y-594500D02*
X9452750Y-444500D01*
X9302750Y-294500D01*
X9152750Y-444500D01*
X9302750Y-594500D01*
X9302750Y-2499500D02*
X9452750Y-2349500D01*
X9302750Y-2199500D01*
X9152750Y-2349500D01*
X9302750Y-2499500D01*
X9302750Y-4404500D02*
X9452750Y-4254500D01*
X9302750Y-4104500D01*
X9152750Y-4254500D01*
X9302750Y-4404500D01*
X9302750Y-6309500D02*
X9452750Y-6159500D01*
X9302750Y-6009500D01*
X9152750Y-6159500D01*
X9302750Y-6309500D01*
X9382130Y-8659000D02*
X9532130Y-8509000D01*
X9382130Y-8359000D01*
X9232130Y-8509000D01*
X9382130Y-8659000D01*
X10017130Y-8405000D02*
X10167130Y-8255000D01*
X10017130Y-8105000D01*
X9867130Y-8255000D01*
X10017130Y-8405000D01*
X10572750Y-1039000D02*
X10722750Y-889000D01*
X10572750Y-739000D01*
X10422750Y-889000D01*
X10572750Y-1039000D01*
X10572750Y-2944000D02*
X10722750Y-2794000D01*
X10572750Y-2644000D01*
X10422750Y-2794000D01*
X10572750Y-2944000D01*
X10572750Y-4849000D02*
X10722750Y-4699000D01*
X10572750Y-4549000D01*
X10422750Y-4699000D01*
X10572750Y-4849000D01*
X10572750Y-6754000D02*
X10722750Y-6604000D01*
X10572750Y-6454000D01*
X10422750Y-6604000D01*
X10572750Y-6754000D01*
X11207750Y-785000D02*
X11357750Y-635000D01*
X11207750Y-485000D01*
X11057750Y-635000D01*
X11207750Y-785000D01*
X11207750Y-2690000D02*
X11357750Y-2540000D01*
X11207750Y-2390000D01*
X11057750Y-2540000D01*
X11207750Y-2690000D01*
X11207750Y-4595000D02*
X11357750Y-4445000D01*
X11207750Y-4295000D01*
X11057750Y-4445000D01*
X11207750Y-4595000D01*
X11207750Y-6500000D02*
X11357750Y-6350000D01*
X11207750Y-6200000D01*
X11057750Y-6350000D01*
X11207750Y-6500000D01*
X11650040Y-9911365D02*
X11800040Y-9761365D01*
X11650040Y-9611365D01*
X11500040Y-9761365D01*
X11650040Y-9911365D01*
X11731035Y-10590468D02*
X11881035Y-10440468D01*
X11731035Y-10290468D01*
X11581035Y-10440468D01*
X11731035Y-10590468D01*
X12477750Y-1229500D02*
X12627750Y-1079500D01*
X12477750Y-929500D01*
X12327750Y-1079500D01*
X12477750Y-1229500D01*
X12477750Y-3134500D02*
X12627750Y-2984500D01*
X12477750Y-2834500D01*
X12327750Y-2984500D01*
X12477750Y-3134500D01*
X12477750Y-5039500D02*
X12627750Y-4889500D01*
X12477750Y-4739500D01*
X12327750Y-4889500D01*
X12477750Y-5039500D01*
X12477750Y-6944500D02*
X12627750Y-6794500D01*
X12477750Y-6644500D01*
X12327750Y-6794500D01*
X12477750Y-6944500D01*
X13112750Y-975500D02*
X13262750Y-825500D01*
X13112750Y-675500D01*
X12962750Y-825500D01*
X13112750Y-975500D01*
X13112750Y-2880500D02*
X13262750Y-2730500D01*
X13112750Y-2580500D01*
X12962750Y-2730500D01*
X13112750Y-2880500D01*
X13112750Y-4785500D02*
X13262750Y-4635500D01*
X13112750Y-4485500D01*
X12962750Y-4635500D01*
X13112750Y-4785500D01*
X13112750Y-6690500D02*
X13262750Y-6540500D01*
X13112750Y-6390500D01*
X12962750Y-6540500D01*
X13112750Y-6690500D01*
X13551760Y-10174405D02*
X13701760Y-10024405D01*
X13551760Y-9874405D01*
X13401760Y-10024405D01*
X13551760Y-10174405D01*
X13632755Y-10853508D02*
X13782755Y-10703508D01*
X13632755Y-10553508D01*
X13482755Y-10703508D01*
X13632755Y-10853508D01*
X13667730Y-11704350D02*
X13817730Y-11554350D01*
X13667730Y-11404350D01*
X13517730Y-11554350D01*
X13667730Y-11704350D01*
X14285690Y-9398100D02*
X14435690Y-9248100D01*
X14285690Y-9098100D01*
X14135690Y-9248100D01*
X14285690Y-9398100D01*
X14382750Y-4658500D02*
X14532750Y-4508500D01*
X14382750Y-4358500D01*
X14232750Y-4508500D01*
X14382750Y-4658500D01*
X14382750Y-6563500D02*
X14532750Y-6413500D01*
X14382750Y-6263500D01*
X14232750Y-6413500D01*
X14382750Y-6563500D01*
X15017750Y-4404500D02*
X15167750Y-4254500D01*
X15017750Y-4104500D01*
X14867750Y-4254500D01*
X15017750Y-4404500D01*
X15017750Y-6309500D02*
X15167750Y-6159500D01*
X15017750Y-6009500D01*
X14867750Y-6159500D01*
X15017750Y-6309500D01*
D17*
X12840067Y-11217008D02*
X13145067Y-11522008D01*
X13145067Y-11217008D02*
X12840067Y-11522008D01*
X13145067Y-11369508D02*
G75*
G02*
X12840067Y-11369508I-152500J0D01*
G01*
X12840067Y-11369508D02*
G75*
G02*
X13145067Y-11369508I152500J0D01*
G01*
X13456057Y-8918105D02*
X13761057Y-9223105D01*
X13761057Y-8918105D02*
X13456057Y-9223105D01*
X13761057Y-9070605D02*
G75*
G02*
X13456057Y-9070605I-152500J0D01*
G01*
X13456057Y-9070605D02*
G75*
G02*
X13761057Y-9070605I152500J0D01*
G01*
D18*
X2895630Y-3133750D02*
X3295630Y-3533750D01*
X3295630Y-3133750D02*
X2895630Y-3533750D01*
X3095630Y-3133750D02*
X3095630Y-3533750D01*
X2895630Y-3333750D02*
X3295630Y-3333750D01*
X2895630Y-5038750D02*
X3295630Y-5438750D01*
X3295630Y-5038750D02*
X2895630Y-5438750D01*
X3095630Y-5038750D02*
X3095630Y-5438750D01*
X2895630Y-5238750D02*
X3295630Y-5238750D01*
X2895630Y-6943750D02*
X3295630Y-7343750D01*
X3295630Y-6943750D02*
X2895630Y-7343750D01*
X3095630Y-6943750D02*
X3095630Y-7343750D01*
X2895630Y-7143750D02*
X3295630Y-7143750D01*
X3133750Y-1228750D02*
X3533750Y-1628750D01*
X3533750Y-1228750D02*
X3133750Y-1628750D01*
X3333750Y-1228750D02*
X3333750Y-1628750D01*
X3133750Y-1428750D02*
X3533750Y-1428750D01*
X3848130Y-8848750D02*
X4248130Y-9248750D01*
X4248130Y-8848750D02*
X3848130Y-9248750D01*
X4048130Y-8848750D02*
X4048130Y-9248750D01*
X3848130Y-9048750D02*
X4248130Y-9048750D01*
X5038750Y-1133500D02*
X5438750Y-1533500D01*
X5438750Y-1133500D02*
X5038750Y-1533500D01*
X5238750Y-1133500D02*
X5238750Y-1533500D01*
X5038750Y-1333500D02*
X5438750Y-1333500D01*
X5038750Y-3038500D02*
X5438750Y-3438500D01*
X5438750Y-3038500D02*
X5038750Y-3438500D01*
X5238750Y-3038500D02*
X5238750Y-3438500D01*
X5038750Y-3238500D02*
X5438750Y-3238500D01*
X5038750Y-4943500D02*
X5438750Y-5343500D01*
X5438750Y-4943500D02*
X5038750Y-5343500D01*
X5238750Y-4943500D02*
X5238750Y-5343500D01*
X5038750Y-5143500D02*
X5438750Y-5143500D01*
X5038750Y-6848500D02*
X5438750Y-7248500D01*
X5438750Y-6848500D02*
X5038750Y-7248500D01*
X5238750Y-6848500D02*
X5238750Y-7248500D01*
X5038750Y-7048500D02*
X5438750Y-7048500D01*
X6943750Y-943000D02*
X7343750Y-1343000D01*
X7343750Y-943000D02*
X6943750Y-1343000D01*
X7143750Y-943000D02*
X7143750Y-1343000D01*
X6943750Y-1143000D02*
X7343750Y-1143000D01*
X6943750Y-2848000D02*
X7343750Y-3248000D01*
X7343750Y-2848000D02*
X6943750Y-3248000D01*
X7143750Y-2848000D02*
X7143750Y-3248000D01*
X6943750Y-3048000D02*
X7343750Y-3048000D01*
X6943750Y-4753000D02*
X7343750Y-5153000D01*
X7343750Y-4753000D02*
X6943750Y-5153000D01*
X7143750Y-4753000D02*
X7143750Y-5153000D01*
X6943750Y-4953000D02*
X7343750Y-4953000D01*
X6943750Y-6658000D02*
X7343750Y-7058000D01*
X7343750Y-6658000D02*
X6943750Y-7058000D01*
X7143750Y-6658000D02*
X7143750Y-7058000D01*
X6943750Y-6858000D02*
X7343750Y-6858000D01*
X6943750Y-8753500D02*
X7343750Y-9153500D01*
X7343750Y-8753500D02*
X6943750Y-9153500D01*
X7143750Y-8753500D02*
X7143750Y-9153500D01*
X6943750Y-8953500D02*
X7343750Y-8953500D01*
X8848750Y-752500D02*
X9248750Y-1152500D01*
X9248750Y-752500D02*
X8848750Y-1152500D01*
X9048750Y-752500D02*
X9048750Y-1152500D01*
X8848750Y-952500D02*
X9248750Y-952500D01*
X8848750Y-2657500D02*
X9248750Y-3057500D01*
X9248750Y-2657500D02*
X8848750Y-3057500D01*
X9048750Y-2657500D02*
X9048750Y-3057500D01*
X8848750Y-2857500D02*
X9248750Y-2857500D01*
X8848750Y-4562500D02*
X9248750Y-4962500D01*
X9248750Y-4562500D02*
X8848750Y-4962500D01*
X9048750Y-4562500D02*
X9048750Y-4962500D01*
X8848750Y-4762500D02*
X9248750Y-4762500D01*
X8848750Y-6467500D02*
X9248750Y-6867500D01*
X9248750Y-6467500D02*
X8848750Y-6867500D01*
X9048750Y-6467500D02*
X9048750Y-6867500D01*
X8848750Y-6667500D02*
X9248750Y-6667500D01*
X9563130Y-8563000D02*
X9963130Y-8963000D01*
X9963130Y-8563000D02*
X9563130Y-8963000D01*
X9763130Y-8563000D02*
X9763130Y-8963000D01*
X9563130Y-8763000D02*
X9963130Y-8763000D01*
X10753750Y-943000D02*
X11153750Y-1343000D01*
X11153750Y-943000D02*
X10753750Y-1343000D01*
X10953750Y-943000D02*
X10953750Y-1343000D01*
X10753750Y-1143000D02*
X11153750Y-1143000D01*
X10753750Y-2848000D02*
X11153750Y-3248000D01*
X11153750Y-2848000D02*
X10753750Y-3248000D01*
X10953750Y-2848000D02*
X10953750Y-3248000D01*
X10753750Y-3048000D02*
X11153750Y-3048000D01*
X10753750Y-4753000D02*
X11153750Y-5153000D01*
X11153750Y-4753000D02*
X10753750Y-5153000D01*
X10953750Y-4753000D02*
X10953750Y-5153000D01*
X10753750Y-4953000D02*
X11153750Y-4953000D01*
X10753750Y-6658000D02*
X11153750Y-7058000D01*
X11153750Y-6658000D02*
X10753750Y-7058000D01*
X10953750Y-6658000D02*
X10953750Y-7058000D01*
X10753750Y-6858000D02*
X11153750Y-6858000D01*
X11874990Y-9938190D02*
X12274990Y-10338190D01*
X12274990Y-9938190D02*
X11874990Y-10338190D01*
X12074990Y-9938190D02*
X12074990Y-10338190D01*
X11874990Y-10138190D02*
X12274990Y-10138190D01*
X12658750Y-1133500D02*
X13058750Y-1533500D01*
X13058750Y-1133500D02*
X12658750Y-1533500D01*
X12858750Y-1133500D02*
X12858750Y-1533500D01*
X12658750Y-1333500D02*
X13058750Y-1333500D01*
X12658750Y-3038500D02*
X13058750Y-3438500D01*
X13058750Y-3038500D02*
X12658750Y-3438500D01*
X12858750Y-3038500D02*
X12858750Y-3438500D01*
X12658750Y-3238500D02*
X13058750Y-3238500D01*
X12658750Y-4943500D02*
X13058750Y-5343500D01*
X13058750Y-4943500D02*
X12658750Y-5343500D01*
X12858750Y-4943500D02*
X12858750Y-5343500D01*
X12658750Y-5143500D02*
X13058750Y-5143500D01*
X12658750Y-6848500D02*
X13058750Y-7248500D01*
X13058750Y-6848500D02*
X12658750Y-7248500D01*
X12858750Y-6848500D02*
X12858750Y-7248500D01*
X12658750Y-7048500D02*
X13058750Y-7048500D01*
X13776710Y-10201230D02*
X14176710Y-10601230D01*
X14176710Y-10201230D02*
X13776710Y-10601230D01*
X13976710Y-10201230D02*
X13976710Y-10601230D01*
X13776710Y-10401230D02*
X14176710Y-10401230D01*
X14264638Y-11563949D02*
X14664638Y-11963949D01*
X14664638Y-11563949D02*
X14264638Y-11963949D01*
X14464638Y-11563949D02*
X14464638Y-11963949D01*
X14264638Y-11763949D02*
X14664638Y-11763949D01*
X14563750Y-4562500D02*
X14963750Y-4962500D01*
X14963750Y-4562500D02*
X14563750Y-4962500D01*
X14763750Y-4562500D02*
X14763750Y-4962500D01*
X14563750Y-4762500D02*
X14963750Y-4762500D01*
X14563750Y-6467500D02*
X14963750Y-6867500D01*
X14963750Y-6467500D02*
X14563750Y-6867500D01*
X14763750Y-6467500D02*
X14763750Y-6867500D01*
X14563750Y-6667500D02*
X14963750Y-6667500D01*
X14880627Y-9265045D02*
X15280627Y-9665045D01*
X15280627Y-9265045D02*
X14880627Y-9665045D01*
X15080627Y-9265045D02*
X15080627Y-9665045D01*
X14880627Y-9465045D02*
X15280627Y-9465045D01*
D12*
X1963277Y-13276785D02*
X1963277Y-13076785D01*
X1963277Y-13076785D02*
X2010896Y-13076785D01*
X2010896Y-13076785D02*
X2039467Y-13086309D01*
X2039467Y-13086309D02*
X2058515Y-13105356D01*
X2058515Y-13105356D02*
X2068039Y-13124404D01*
X2068039Y-13124404D02*
X2077562Y-13162499D01*
X2077562Y-13162499D02*
X2077562Y-13191070D01*
X2077562Y-13191070D02*
X2068039Y-13229166D01*
X2068039Y-13229166D02*
X2058515Y-13248213D01*
X2058515Y-13248213D02*
X2039467Y-13267261D01*
X2039467Y-13267261D02*
X2010896Y-13276785D01*
X2010896Y-13276785D02*
X1963277Y-13276785D01*
X2163277Y-13276785D02*
X2163277Y-13143451D01*
X2163277Y-13181547D02*
X2172801Y-13162499D01*
X2172801Y-13162499D02*
X2182324Y-13152975D01*
X2182324Y-13152975D02*
X2201372Y-13143451D01*
X2201372Y-13143451D02*
X2220420Y-13143451D01*
X2287086Y-13276785D02*
X2287086Y-13143451D01*
X2287086Y-13076785D02*
X2277563Y-13086309D01*
X2277563Y-13086309D02*
X2287086Y-13095832D01*
X2287086Y-13095832D02*
X2296610Y-13086309D01*
X2296610Y-13086309D02*
X2287086Y-13076785D01*
X2287086Y-13076785D02*
X2287086Y-13095832D01*
X2410896Y-13276785D02*
X2391848Y-13267261D01*
X2391848Y-13267261D02*
X2382324Y-13248213D01*
X2382324Y-13248213D02*
X2382324Y-13076785D01*
X2515658Y-13276785D02*
X2496610Y-13267261D01*
X2496610Y-13267261D02*
X2487086Y-13248213D01*
X2487086Y-13248213D02*
X2487086Y-13076785D01*
X2744229Y-13276785D02*
X2744229Y-13076785D01*
X2744229Y-13076785D02*
X2810896Y-13219642D01*
X2810896Y-13219642D02*
X2877562Y-13076785D01*
X2877562Y-13076785D02*
X2877562Y-13276785D01*
X3058515Y-13276785D02*
X3058515Y-13172023D01*
X3058515Y-13172023D02*
X3048991Y-13152975D01*
X3048991Y-13152975D02*
X3029943Y-13143451D01*
X3029943Y-13143451D02*
X2991848Y-13143451D01*
X2991848Y-13143451D02*
X2972801Y-13152975D01*
X3058515Y-13267261D02*
X3039467Y-13276785D01*
X3039467Y-13276785D02*
X2991848Y-13276785D01*
X2991848Y-13276785D02*
X2972801Y-13267261D01*
X2972801Y-13267261D02*
X2963277Y-13248213D01*
X2963277Y-13248213D02*
X2963277Y-13229166D01*
X2963277Y-13229166D02*
X2972801Y-13210118D01*
X2972801Y-13210118D02*
X2991848Y-13200594D01*
X2991848Y-13200594D02*
X3039467Y-13200594D01*
X3039467Y-13200594D02*
X3058515Y-13191070D01*
X3153753Y-13143451D02*
X3153753Y-13343451D01*
X3153753Y-13152975D02*
X3172801Y-13143451D01*
X3172801Y-13143451D02*
X3210896Y-13143451D01*
X3210896Y-13143451D02*
X3229943Y-13152975D01*
X3229943Y-13152975D02*
X3239467Y-13162499D01*
X3239467Y-13162499D02*
X3248991Y-13181547D01*
X3248991Y-13181547D02*
X3248991Y-13238689D01*
X3248991Y-13238689D02*
X3239467Y-13257737D01*
X3239467Y-13257737D02*
X3229943Y-13267261D01*
X3229943Y-13267261D02*
X3210896Y-13276785D01*
X3210896Y-13276785D02*
X3172801Y-13276785D01*
X3172801Y-13276785D02*
X3153753Y-13267261D01*
X3334705Y-13257737D02*
X3344229Y-13267261D01*
X3344229Y-13267261D02*
X3334705Y-13276785D01*
X3334705Y-13276785D02*
X3325182Y-13267261D01*
X3325182Y-13267261D02*
X3334705Y-13257737D01*
X3334705Y-13257737D02*
X3334705Y-13276785D01*
X3334705Y-13152975D02*
X3344229Y-13162499D01*
X3344229Y-13162499D02*
X3334705Y-13172023D01*
X3334705Y-13172023D02*
X3325182Y-13162499D01*
X3325182Y-13162499D02*
X3334705Y-13152975D01*
X3334705Y-13152975D02*
X3334705Y-13172023D01*
D13*
X1617500Y-13562801D02*
X1702500Y-13647801D01*
X1702500Y-13562801D02*
X1617500Y-13647801D01*
D12*
X2001372Y-13496785D02*
X2020420Y-13496785D01*
X2020420Y-13496785D02*
X2039467Y-13506309D01*
X2039467Y-13506309D02*
X2048991Y-13515832D01*
X2048991Y-13515832D02*
X2058515Y-13534880D01*
X2058515Y-13534880D02*
X2068039Y-13572975D01*
X2068039Y-13572975D02*
X2068039Y-13620594D01*
X2068039Y-13620594D02*
X2058515Y-13658689D01*
X2058515Y-13658689D02*
X2048991Y-13677737D01*
X2048991Y-13677737D02*
X2039467Y-13687261D01*
X2039467Y-13687261D02*
X2020420Y-13696785D01*
X2020420Y-13696785D02*
X2001372Y-13696785D01*
X2001372Y-13696785D02*
X1982324Y-13687261D01*
X1982324Y-13687261D02*
X1972801Y-13677737D01*
X1972801Y-13677737D02*
X1963277Y-13658689D01*
X1963277Y-13658689D02*
X1953753Y-13620594D01*
X1953753Y-13620594D02*
X1953753Y-13572975D01*
X1953753Y-13572975D02*
X1963277Y-13534880D01*
X1963277Y-13534880D02*
X1972801Y-13515832D01*
X1972801Y-13515832D02*
X1982324Y-13506309D01*
X1982324Y-13506309D02*
X2001372Y-13496785D01*
X2153753Y-13677737D02*
X2163277Y-13687261D01*
X2163277Y-13687261D02*
X2153753Y-13696785D01*
X2153753Y-13696785D02*
X2144229Y-13687261D01*
X2144229Y-13687261D02*
X2153753Y-13677737D01*
X2153753Y-13677737D02*
X2153753Y-13696785D01*
X2277563Y-13582499D02*
X2258515Y-13572975D01*
X2258515Y-13572975D02*
X2248991Y-13563451D01*
X2248991Y-13563451D02*
X2239467Y-13544404D01*
X2239467Y-13544404D02*
X2239467Y-13534880D01*
X2239467Y-13534880D02*
X2248991Y-13515832D01*
X2248991Y-13515832D02*
X2258515Y-13506309D01*
X2258515Y-13506309D02*
X2277563Y-13496785D01*
X2277563Y-13496785D02*
X2315658Y-13496785D01*
X2315658Y-13496785D02*
X2334705Y-13506309D01*
X2334705Y-13506309D02*
X2344229Y-13515832D01*
X2344229Y-13515832D02*
X2353753Y-13534880D01*
X2353753Y-13534880D02*
X2353753Y-13544404D01*
X2353753Y-13544404D02*
X2344229Y-13563451D01*
X2344229Y-13563451D02*
X2334705Y-13572975D01*
X2334705Y-13572975D02*
X2315658Y-13582499D01*
X2315658Y-13582499D02*
X2277563Y-13582499D01*
X2277563Y-13582499D02*
X2258515Y-13592023D01*
X2258515Y-13592023D02*
X2248991Y-13601547D01*
X2248991Y-13601547D02*
X2239467Y-13620594D01*
X2239467Y-13620594D02*
X2239467Y-13658689D01*
X2239467Y-13658689D02*
X2248991Y-13677737D01*
X2248991Y-13677737D02*
X2258515Y-13687261D01*
X2258515Y-13687261D02*
X2277563Y-13696785D01*
X2277563Y-13696785D02*
X2315658Y-13696785D01*
X2315658Y-13696785D02*
X2334705Y-13687261D01*
X2334705Y-13687261D02*
X2344229Y-13677737D01*
X2344229Y-13677737D02*
X2353753Y-13658689D01*
X2353753Y-13658689D02*
X2353753Y-13620594D01*
X2353753Y-13620594D02*
X2344229Y-13601547D01*
X2344229Y-13601547D02*
X2334705Y-13592023D01*
X2334705Y-13592023D02*
X2315658Y-13582499D01*
X2534705Y-13496785D02*
X2439467Y-13496785D01*
X2439467Y-13496785D02*
X2429944Y-13592023D01*
X2429944Y-13592023D02*
X2439467Y-13582499D01*
X2439467Y-13582499D02*
X2458515Y-13572975D01*
X2458515Y-13572975D02*
X2506134Y-13572975D01*
X2506134Y-13572975D02*
X2525182Y-13582499D01*
X2525182Y-13582499D02*
X2534705Y-13592023D01*
X2534705Y-13592023D02*
X2544229Y-13611070D01*
X2544229Y-13611070D02*
X2544229Y-13658689D01*
X2544229Y-13658689D02*
X2534705Y-13677737D01*
X2534705Y-13677737D02*
X2525182Y-13687261D01*
X2525182Y-13687261D02*
X2506134Y-13696785D01*
X2506134Y-13696785D02*
X2458515Y-13696785D01*
X2458515Y-13696785D02*
X2439467Y-13687261D01*
X2439467Y-13687261D02*
X2429944Y-13677737D01*
X2668039Y-13496785D02*
X2687086Y-13496785D01*
X2687086Y-13496785D02*
X2706134Y-13506309D01*
X2706134Y-13506309D02*
X2715658Y-13515832D01*
X2715658Y-13515832D02*
X2725182Y-13534880D01*
X2725182Y-13534880D02*
X2734705Y-13572975D01*
X2734705Y-13572975D02*
X2734705Y-13620594D01*
X2734705Y-13620594D02*
X2725182Y-13658689D01*
X2725182Y-13658689D02*
X2715658Y-13677737D01*
X2715658Y-13677737D02*
X2706134Y-13687261D01*
X2706134Y-13687261D02*
X2687086Y-13696785D01*
X2687086Y-13696785D02*
X2668039Y-13696785D01*
X2668039Y-13696785D02*
X2648991Y-13687261D01*
X2648991Y-13687261D02*
X2639467Y-13677737D01*
X2639467Y-13677737D02*
X2629944Y-13658689D01*
X2629944Y-13658689D02*
X2620420Y-13620594D01*
X2620420Y-13620594D02*
X2620420Y-13572975D01*
X2620420Y-13572975D02*
X2629944Y-13534880D01*
X2629944Y-13534880D02*
X2639467Y-13515832D01*
X2639467Y-13515832D02*
X2648991Y-13506309D01*
X2648991Y-13506309D02*
X2668039Y-13496785D01*
X2820420Y-13696785D02*
X2820420Y-13563451D01*
X2820420Y-13582499D02*
X2829943Y-13572975D01*
X2829943Y-13572975D02*
X2848991Y-13563451D01*
X2848991Y-13563451D02*
X2877563Y-13563451D01*
X2877563Y-13563451D02*
X2896610Y-13572975D01*
X2896610Y-13572975D02*
X2906134Y-13592023D01*
X2906134Y-13592023D02*
X2906134Y-13696785D01*
X2906134Y-13592023D02*
X2915658Y-13572975D01*
X2915658Y-13572975D02*
X2934705Y-13563451D01*
X2934705Y-13563451D02*
X2963277Y-13563451D01*
X2963277Y-13563451D02*
X2982324Y-13572975D01*
X2982324Y-13572975D02*
X2991848Y-13592023D01*
X2991848Y-13592023D02*
X2991848Y-13696785D01*
X3087086Y-13696785D02*
X3087086Y-13563451D01*
X3087086Y-13582499D02*
X3096610Y-13572975D01*
X3096610Y-13572975D02*
X3115658Y-13563451D01*
X3115658Y-13563451D02*
X3144229Y-13563451D01*
X3144229Y-13563451D02*
X3163277Y-13572975D01*
X3163277Y-13572975D02*
X3172801Y-13592023D01*
X3172801Y-13592023D02*
X3172801Y-13696785D01*
X3172801Y-13592023D02*
X3182324Y-13572975D01*
X3182324Y-13572975D02*
X3201372Y-13563451D01*
X3201372Y-13563451D02*
X3229943Y-13563451D01*
X3229943Y-13563451D02*
X3248991Y-13572975D01*
X3248991Y-13572975D02*
X3258515Y-13592023D01*
X3258515Y-13592023D02*
X3258515Y-13696785D01*
X3648991Y-13487261D02*
X3477563Y-13744404D01*
X3906134Y-13496785D02*
X3925182Y-13496785D01*
X3925182Y-13496785D02*
X3944229Y-13506309D01*
X3944229Y-13506309D02*
X3953753Y-13515832D01*
X3953753Y-13515832D02*
X3963277Y-13534880D01*
X3963277Y-13534880D02*
X3972801Y-13572975D01*
X3972801Y-13572975D02*
X3972801Y-13620594D01*
X3972801Y-13620594D02*
X3963277Y-13658689D01*
X3963277Y-13658689D02*
X3953753Y-13677737D01*
X3953753Y-13677737D02*
X3944229Y-13687261D01*
X3944229Y-13687261D02*
X3925182Y-13696785D01*
X3925182Y-13696785D02*
X3906134Y-13696785D01*
X3906134Y-13696785D02*
X3887086Y-13687261D01*
X3887086Y-13687261D02*
X3877563Y-13677737D01*
X3877563Y-13677737D02*
X3868039Y-13658689D01*
X3868039Y-13658689D02*
X3858515Y-13620594D01*
X3858515Y-13620594D02*
X3858515Y-13572975D01*
X3858515Y-13572975D02*
X3868039Y-13534880D01*
X3868039Y-13534880D02*
X3877563Y-13515832D01*
X3877563Y-13515832D02*
X3887086Y-13506309D01*
X3887086Y-13506309D02*
X3906134Y-13496785D01*
X4058515Y-13677737D02*
X4068039Y-13687261D01*
X4068039Y-13687261D02*
X4058515Y-13696785D01*
X4058515Y-13696785D02*
X4048991Y-13687261D01*
X4048991Y-13687261D02*
X4058515Y-13677737D01*
X4058515Y-13677737D02*
X4058515Y-13696785D01*
X4191848Y-13496785D02*
X4210896Y-13496785D01*
X4210896Y-13496785D02*
X4229944Y-13506309D01*
X4229944Y-13506309D02*
X4239468Y-13515832D01*
X4239468Y-13515832D02*
X4248991Y-13534880D01*
X4248991Y-13534880D02*
X4258515Y-13572975D01*
X4258515Y-13572975D02*
X4258515Y-13620594D01*
X4258515Y-13620594D02*
X4248991Y-13658689D01*
X4248991Y-13658689D02*
X4239468Y-13677737D01*
X4239468Y-13677737D02*
X4229944Y-13687261D01*
X4229944Y-13687261D02*
X4210896Y-13696785D01*
X4210896Y-13696785D02*
X4191848Y-13696785D01*
X4191848Y-13696785D02*
X4172801Y-13687261D01*
X4172801Y-13687261D02*
X4163277Y-13677737D01*
X4163277Y-13677737D02*
X4153753Y-13658689D01*
X4153753Y-13658689D02*
X4144229Y-13620594D01*
X4144229Y-13620594D02*
X4144229Y-13572975D01*
X4144229Y-13572975D02*
X4153753Y-13534880D01*
X4153753Y-13534880D02*
X4163277Y-13515832D01*
X4163277Y-13515832D02*
X4172801Y-13506309D01*
X4172801Y-13506309D02*
X4191848Y-13496785D01*
X4325182Y-13496785D02*
X4448991Y-13496785D01*
X4448991Y-13496785D02*
X4382325Y-13572975D01*
X4382325Y-13572975D02*
X4410896Y-13572975D01*
X4410896Y-13572975D02*
X4429944Y-13582499D01*
X4429944Y-13582499D02*
X4439468Y-13592023D01*
X4439468Y-13592023D02*
X4448991Y-13611070D01*
X4448991Y-13611070D02*
X4448991Y-13658689D01*
X4448991Y-13658689D02*
X4439468Y-13677737D01*
X4439468Y-13677737D02*
X4429944Y-13687261D01*
X4429944Y-13687261D02*
X4410896Y-13696785D01*
X4410896Y-13696785D02*
X4353753Y-13696785D01*
X4353753Y-13696785D02*
X4334706Y-13687261D01*
X4334706Y-13687261D02*
X4325182Y-13677737D01*
X4515658Y-13496785D02*
X4639468Y-13496785D01*
X4639468Y-13496785D02*
X4572801Y-13572975D01*
X4572801Y-13572975D02*
X4601372Y-13572975D01*
X4601372Y-13572975D02*
X4620420Y-13582499D01*
X4620420Y-13582499D02*
X4629944Y-13592023D01*
X4629944Y-13592023D02*
X4639468Y-13611070D01*
X4639468Y-13611070D02*
X4639468Y-13658689D01*
X4639468Y-13658689D02*
X4629944Y-13677737D01*
X4629944Y-13677737D02*
X4620420Y-13687261D01*
X4620420Y-13687261D02*
X4601372Y-13696785D01*
X4601372Y-13696785D02*
X4544229Y-13696785D01*
X4544229Y-13696785D02*
X4525182Y-13687261D01*
X4525182Y-13687261D02*
X4515658Y-13677737D01*
X4820420Y-13496785D02*
X4725182Y-13496785D01*
X4725182Y-13496785D02*
X4715658Y-13592023D01*
X4715658Y-13592023D02*
X4725182Y-13582499D01*
X4725182Y-13582499D02*
X4744229Y-13572975D01*
X4744229Y-13572975D02*
X4791849Y-13572975D01*
X4791849Y-13572975D02*
X4810896Y-13582499D01*
X4810896Y-13582499D02*
X4820420Y-13592023D01*
X4820420Y-13592023D02*
X4829944Y-13611070D01*
X4829944Y-13611070D02*
X4829944Y-13658689D01*
X4829944Y-13658689D02*
X4820420Y-13677737D01*
X4820420Y-13677737D02*
X4810896Y-13687261D01*
X4810896Y-13687261D02*
X4791849Y-13696785D01*
X4791849Y-13696785D02*
X4744229Y-13696785D01*
X4744229Y-13696785D02*
X4725182Y-13687261D01*
X4725182Y-13687261D02*
X4715658Y-13677737D01*
X4906134Y-13496785D02*
X4906134Y-13534880D01*
X4982325Y-13496785D02*
X4982325Y-13534880D01*
X5277563Y-13772975D02*
X5268039Y-13763451D01*
X5268039Y-13763451D02*
X5248991Y-13734880D01*
X5248991Y-13734880D02*
X5239468Y-13715832D01*
X5239468Y-13715832D02*
X5229944Y-13687261D01*
X5229944Y-13687261D02*
X5220420Y-13639642D01*
X5220420Y-13639642D02*
X5220420Y-13601547D01*
X5220420Y-13601547D02*
X5229944Y-13553928D01*
X5229944Y-13553928D02*
X5239468Y-13525356D01*
X5239468Y-13525356D02*
X5248991Y-13506309D01*
X5248991Y-13506309D02*
X5268039Y-13477737D01*
X5268039Y-13477737D02*
X5277563Y-13468213D01*
X5344230Y-13515832D02*
X5353753Y-13506309D01*
X5353753Y-13506309D02*
X5372801Y-13496785D01*
X5372801Y-13496785D02*
X5420420Y-13496785D01*
X5420420Y-13496785D02*
X5439468Y-13506309D01*
X5439468Y-13506309D02*
X5448991Y-13515832D01*
X5448991Y-13515832D02*
X5458515Y-13534880D01*
X5458515Y-13534880D02*
X5458515Y-13553928D01*
X5458515Y-13553928D02*
X5448991Y-13582499D01*
X5448991Y-13582499D02*
X5334706Y-13696785D01*
X5334706Y-13696785D02*
X5458515Y-13696785D01*
X5696610Y-13696785D02*
X5696610Y-13496785D01*
X5782325Y-13696785D02*
X5782325Y-13592023D01*
X5782325Y-13592023D02*
X5772801Y-13572975D01*
X5772801Y-13572975D02*
X5753753Y-13563451D01*
X5753753Y-13563451D02*
X5725182Y-13563451D01*
X5725182Y-13563451D02*
X5706134Y-13572975D01*
X5706134Y-13572975D02*
X5696610Y-13582499D01*
X5906134Y-13696785D02*
X5887087Y-13687261D01*
X5887087Y-13687261D02*
X5877563Y-13677737D01*
X5877563Y-13677737D02*
X5868039Y-13658689D01*
X5868039Y-13658689D02*
X5868039Y-13601547D01*
X5868039Y-13601547D02*
X5877563Y-13582499D01*
X5877563Y-13582499D02*
X5887087Y-13572975D01*
X5887087Y-13572975D02*
X5906134Y-13563451D01*
X5906134Y-13563451D02*
X5934706Y-13563451D01*
X5934706Y-13563451D02*
X5953753Y-13572975D01*
X5953753Y-13572975D02*
X5963277Y-13582499D01*
X5963277Y-13582499D02*
X5972801Y-13601547D01*
X5972801Y-13601547D02*
X5972801Y-13658689D01*
X5972801Y-13658689D02*
X5963277Y-13677737D01*
X5963277Y-13677737D02*
X5953753Y-13687261D01*
X5953753Y-13687261D02*
X5934706Y-13696785D01*
X5934706Y-13696785D02*
X5906134Y-13696785D01*
X6087087Y-13696785D02*
X6068039Y-13687261D01*
X6068039Y-13687261D02*
X6058515Y-13668213D01*
X6058515Y-13668213D02*
X6058515Y-13496785D01*
X6239468Y-13687261D02*
X6220420Y-13696785D01*
X6220420Y-13696785D02*
X6182325Y-13696785D01*
X6182325Y-13696785D02*
X6163277Y-13687261D01*
X6163277Y-13687261D02*
X6153753Y-13668213D01*
X6153753Y-13668213D02*
X6153753Y-13592023D01*
X6153753Y-13592023D02*
X6163277Y-13572975D01*
X6163277Y-13572975D02*
X6182325Y-13563451D01*
X6182325Y-13563451D02*
X6220420Y-13563451D01*
X6220420Y-13563451D02*
X6239468Y-13572975D01*
X6239468Y-13572975D02*
X6248991Y-13592023D01*
X6248991Y-13592023D02*
X6248991Y-13611070D01*
X6248991Y-13611070D02*
X6153753Y-13630118D01*
X6325182Y-13687261D02*
X6344230Y-13696785D01*
X6344230Y-13696785D02*
X6382325Y-13696785D01*
X6382325Y-13696785D02*
X6401372Y-13687261D01*
X6401372Y-13687261D02*
X6410896Y-13668213D01*
X6410896Y-13668213D02*
X6410896Y-13658689D01*
X6410896Y-13658689D02*
X6401372Y-13639642D01*
X6401372Y-13639642D02*
X6382325Y-13630118D01*
X6382325Y-13630118D02*
X6353753Y-13630118D01*
X6353753Y-13630118D02*
X6334706Y-13620594D01*
X6334706Y-13620594D02*
X6325182Y-13601547D01*
X6325182Y-13601547D02*
X6325182Y-13592023D01*
X6325182Y-13592023D02*
X6334706Y-13572975D01*
X6334706Y-13572975D02*
X6353753Y-13563451D01*
X6353753Y-13563451D02*
X6382325Y-13563451D01*
X6382325Y-13563451D02*
X6401372Y-13572975D01*
X6477563Y-13772975D02*
X6487087Y-13763451D01*
X6487087Y-13763451D02*
X6506134Y-13734880D01*
X6506134Y-13734880D02*
X6515658Y-13715832D01*
X6515658Y-13715832D02*
X6525182Y-13687261D01*
X6525182Y-13687261D02*
X6534706Y-13639642D01*
X6534706Y-13639642D02*
X6534706Y-13601547D01*
X6534706Y-13601547D02*
X6525182Y-13553928D01*
X6525182Y-13553928D02*
X6515658Y-13525356D01*
X6515658Y-13525356D02*
X6506134Y-13506309D01*
X6506134Y-13506309D02*
X6487087Y-13477737D01*
X6487087Y-13477737D02*
X6477563Y-13468213D01*
X6839468Y-13772975D02*
X6829944Y-13763451D01*
X6829944Y-13763451D02*
X6810896Y-13734880D01*
X6810896Y-13734880D02*
X6801372Y-13715832D01*
X6801372Y-13715832D02*
X6791849Y-13687261D01*
X6791849Y-13687261D02*
X6782325Y-13639642D01*
X6782325Y-13639642D02*
X6782325Y-13601547D01*
X6782325Y-13601547D02*
X6791849Y-13553928D01*
X6791849Y-13553928D02*
X6801372Y-13525356D01*
X6801372Y-13525356D02*
X6810896Y-13506309D01*
X6810896Y-13506309D02*
X6829944Y-13477737D01*
X6829944Y-13477737D02*
X6839468Y-13468213D01*
X6915658Y-13563451D02*
X6915658Y-13696785D01*
X6915658Y-13582499D02*
X6925182Y-13572975D01*
X6925182Y-13572975D02*
X6944230Y-13563451D01*
X6944230Y-13563451D02*
X6972801Y-13563451D01*
X6972801Y-13563451D02*
X6991849Y-13572975D01*
X6991849Y-13572975D02*
X7001372Y-13592023D01*
X7001372Y-13592023D02*
X7001372Y-13696785D01*
X7125182Y-13696785D02*
X7106134Y-13687261D01*
X7106134Y-13687261D02*
X7096611Y-13677737D01*
X7096611Y-13677737D02*
X7087087Y-13658689D01*
X7087087Y-13658689D02*
X7087087Y-13601547D01*
X7087087Y-13601547D02*
X7096611Y-13582499D01*
X7096611Y-13582499D02*
X7106134Y-13572975D01*
X7106134Y-13572975D02*
X7125182Y-13563451D01*
X7125182Y-13563451D02*
X7153753Y-13563451D01*
X7153753Y-13563451D02*
X7172801Y-13572975D01*
X7172801Y-13572975D02*
X7182325Y-13582499D01*
X7182325Y-13582499D02*
X7191849Y-13601547D01*
X7191849Y-13601547D02*
X7191849Y-13658689D01*
X7191849Y-13658689D02*
X7182325Y-13677737D01*
X7182325Y-13677737D02*
X7172801Y-13687261D01*
X7172801Y-13687261D02*
X7153753Y-13696785D01*
X7153753Y-13696785D02*
X7125182Y-13696785D01*
X7248992Y-13563451D02*
X7325182Y-13563451D01*
X7277563Y-13496785D02*
X7277563Y-13668213D01*
X7277563Y-13668213D02*
X7287087Y-13687261D01*
X7287087Y-13687261D02*
X7306134Y-13696785D01*
X7306134Y-13696785D02*
X7325182Y-13696785D01*
X7544230Y-13563451D02*
X7544230Y-13763451D01*
X7544230Y-13572975D02*
X7563277Y-13563451D01*
X7563277Y-13563451D02*
X7601373Y-13563451D01*
X7601373Y-13563451D02*
X7620420Y-13572975D01*
X7620420Y-13572975D02*
X7629944Y-13582499D01*
X7629944Y-13582499D02*
X7639468Y-13601547D01*
X7639468Y-13601547D02*
X7639468Y-13658689D01*
X7639468Y-13658689D02*
X7629944Y-13677737D01*
X7629944Y-13677737D02*
X7620420Y-13687261D01*
X7620420Y-13687261D02*
X7601373Y-13696785D01*
X7601373Y-13696785D02*
X7563277Y-13696785D01*
X7563277Y-13696785D02*
X7544230Y-13687261D01*
X7753753Y-13696785D02*
X7734706Y-13687261D01*
X7734706Y-13687261D02*
X7725182Y-13668213D01*
X7725182Y-13668213D02*
X7725182Y-13496785D01*
X7915658Y-13696785D02*
X7915658Y-13592023D01*
X7915658Y-13592023D02*
X7906134Y-13572975D01*
X7906134Y-13572975D02*
X7887087Y-13563451D01*
X7887087Y-13563451D02*
X7848992Y-13563451D01*
X7848992Y-13563451D02*
X7829944Y-13572975D01*
X7915658Y-13687261D02*
X7896611Y-13696785D01*
X7896611Y-13696785D02*
X7848992Y-13696785D01*
X7848992Y-13696785D02*
X7829944Y-13687261D01*
X7829944Y-13687261D02*
X7820420Y-13668213D01*
X7820420Y-13668213D02*
X7820420Y-13649166D01*
X7820420Y-13649166D02*
X7829944Y-13630118D01*
X7829944Y-13630118D02*
X7848992Y-13620594D01*
X7848992Y-13620594D02*
X7896611Y-13620594D01*
X7896611Y-13620594D02*
X7915658Y-13611070D01*
X7982325Y-13563451D02*
X8058515Y-13563451D01*
X8010896Y-13496785D02*
X8010896Y-13668213D01*
X8010896Y-13668213D02*
X8020420Y-13687261D01*
X8020420Y-13687261D02*
X8039468Y-13696785D01*
X8039468Y-13696785D02*
X8058515Y-13696785D01*
X8201373Y-13687261D02*
X8182325Y-13696785D01*
X8182325Y-13696785D02*
X8144230Y-13696785D01*
X8144230Y-13696785D02*
X8125182Y-13687261D01*
X8125182Y-13687261D02*
X8115658Y-13668213D01*
X8115658Y-13668213D02*
X8115658Y-13592023D01*
X8115658Y-13592023D02*
X8125182Y-13572975D01*
X8125182Y-13572975D02*
X8144230Y-13563451D01*
X8144230Y-13563451D02*
X8182325Y-13563451D01*
X8182325Y-13563451D02*
X8201373Y-13572975D01*
X8201373Y-13572975D02*
X8210896Y-13592023D01*
X8210896Y-13592023D02*
X8210896Y-13611070D01*
X8210896Y-13611070D02*
X8115658Y-13630118D01*
X8382325Y-13696785D02*
X8382325Y-13496785D01*
X8382325Y-13687261D02*
X8363277Y-13696785D01*
X8363277Y-13696785D02*
X8325182Y-13696785D01*
X8325182Y-13696785D02*
X8306134Y-13687261D01*
X8306134Y-13687261D02*
X8296611Y-13677737D01*
X8296611Y-13677737D02*
X8287087Y-13658689D01*
X8287087Y-13658689D02*
X8287087Y-13601547D01*
X8287087Y-13601547D02*
X8296611Y-13582499D01*
X8296611Y-13582499D02*
X8306134Y-13572975D01*
X8306134Y-13572975D02*
X8325182Y-13563451D01*
X8325182Y-13563451D02*
X8363277Y-13563451D01*
X8363277Y-13563451D02*
X8382325Y-13572975D01*
X8458516Y-13772975D02*
X8468039Y-13763451D01*
X8468039Y-13763451D02*
X8487087Y-13734880D01*
X8487087Y-13734880D02*
X8496611Y-13715832D01*
X8496611Y-13715832D02*
X8506135Y-13687261D01*
X8506135Y-13687261D02*
X8515658Y-13639642D01*
X8515658Y-13639642D02*
X8515658Y-13601547D01*
X8515658Y-13601547D02*
X8506135Y-13553928D01*
X8506135Y-13553928D02*
X8496611Y-13525356D01*
X8496611Y-13525356D02*
X8487087Y-13506309D01*
X8487087Y-13506309D02*
X8468039Y-13477737D01*
X8468039Y-13477737D02*
X8458516Y-13468213D01*
D14*
X1702500Y-13869301D02*
G75*
G02*
X1522500Y-13869301I-90000J0D01*
G01*
X1522500Y-13869301D02*
G75*
G02*
X1702500Y-13869301I90000J0D01*
G01*
D12*
X2068039Y-13960785D02*
X1953753Y-13960785D01*
X2010896Y-13960785D02*
X2010896Y-13760785D01*
X2010896Y-13760785D02*
X1991848Y-13789356D01*
X1991848Y-13789356D02*
X1972801Y-13808404D01*
X1972801Y-13808404D02*
X1953753Y-13817928D01*
X2153753Y-13941737D02*
X2163277Y-13951261D01*
X2163277Y-13951261D02*
X2153753Y-13960785D01*
X2153753Y-13960785D02*
X2144229Y-13951261D01*
X2144229Y-13951261D02*
X2153753Y-13941737D01*
X2153753Y-13941737D02*
X2153753Y-13960785D01*
X2277563Y-13846499D02*
X2258515Y-13836975D01*
X2258515Y-13836975D02*
X2248991Y-13827451D01*
X2248991Y-13827451D02*
X2239467Y-13808404D01*
X2239467Y-13808404D02*
X2239467Y-13798880D01*
X2239467Y-13798880D02*
X2248991Y-13779832D01*
X2248991Y-13779832D02*
X2258515Y-13770309D01*
X2258515Y-13770309D02*
X2277563Y-13760785D01*
X2277563Y-13760785D02*
X2315658Y-13760785D01*
X2315658Y-13760785D02*
X2334705Y-13770309D01*
X2334705Y-13770309D02*
X2344229Y-13779832D01*
X2344229Y-13779832D02*
X2353753Y-13798880D01*
X2353753Y-13798880D02*
X2353753Y-13808404D01*
X2353753Y-13808404D02*
X2344229Y-13827451D01*
X2344229Y-13827451D02*
X2334705Y-13836975D01*
X2334705Y-13836975D02*
X2315658Y-13846499D01*
X2315658Y-13846499D02*
X2277563Y-13846499D01*
X2277563Y-13846499D02*
X2258515Y-13856023D01*
X2258515Y-13856023D02*
X2248991Y-13865547D01*
X2248991Y-13865547D02*
X2239467Y-13884594D01*
X2239467Y-13884594D02*
X2239467Y-13922689D01*
X2239467Y-13922689D02*
X2248991Y-13941737D01*
X2248991Y-13941737D02*
X2258515Y-13951261D01*
X2258515Y-13951261D02*
X2277563Y-13960785D01*
X2277563Y-13960785D02*
X2315658Y-13960785D01*
X2315658Y-13960785D02*
X2334705Y-13951261D01*
X2334705Y-13951261D02*
X2344229Y-13941737D01*
X2344229Y-13941737D02*
X2353753Y-13922689D01*
X2353753Y-13922689D02*
X2353753Y-13884594D01*
X2353753Y-13884594D02*
X2344229Y-13865547D01*
X2344229Y-13865547D02*
X2334705Y-13856023D01*
X2334705Y-13856023D02*
X2315658Y-13846499D01*
X2477563Y-13760785D02*
X2496610Y-13760785D01*
X2496610Y-13760785D02*
X2515658Y-13770309D01*
X2515658Y-13770309D02*
X2525182Y-13779832D01*
X2525182Y-13779832D02*
X2534705Y-13798880D01*
X2534705Y-13798880D02*
X2544229Y-13836975D01*
X2544229Y-13836975D02*
X2544229Y-13884594D01*
X2544229Y-13884594D02*
X2534705Y-13922689D01*
X2534705Y-13922689D02*
X2525182Y-13941737D01*
X2525182Y-13941737D02*
X2515658Y-13951261D01*
X2515658Y-13951261D02*
X2496610Y-13960785D01*
X2496610Y-13960785D02*
X2477563Y-13960785D01*
X2477563Y-13960785D02*
X2458515Y-13951261D01*
X2458515Y-13951261D02*
X2448991Y-13941737D01*
X2448991Y-13941737D02*
X2439467Y-13922689D01*
X2439467Y-13922689D02*
X2429944Y-13884594D01*
X2429944Y-13884594D02*
X2429944Y-13836975D01*
X2429944Y-13836975D02*
X2439467Y-13798880D01*
X2439467Y-13798880D02*
X2448991Y-13779832D01*
X2448991Y-13779832D02*
X2458515Y-13770309D01*
X2458515Y-13770309D02*
X2477563Y-13760785D01*
X2668039Y-13760785D02*
X2687086Y-13760785D01*
X2687086Y-13760785D02*
X2706134Y-13770309D01*
X2706134Y-13770309D02*
X2715658Y-13779832D01*
X2715658Y-13779832D02*
X2725182Y-13798880D01*
X2725182Y-13798880D02*
X2734705Y-13836975D01*
X2734705Y-13836975D02*
X2734705Y-13884594D01*
X2734705Y-13884594D02*
X2725182Y-13922689D01*
X2725182Y-13922689D02*
X2715658Y-13941737D01*
X2715658Y-13941737D02*
X2706134Y-13951261D01*
X2706134Y-13951261D02*
X2687086Y-13960785D01*
X2687086Y-13960785D02*
X2668039Y-13960785D01*
X2668039Y-13960785D02*
X2648991Y-13951261D01*
X2648991Y-13951261D02*
X2639467Y-13941737D01*
X2639467Y-13941737D02*
X2629944Y-13922689D01*
X2629944Y-13922689D02*
X2620420Y-13884594D01*
X2620420Y-13884594D02*
X2620420Y-13836975D01*
X2620420Y-13836975D02*
X2629944Y-13798880D01*
X2629944Y-13798880D02*
X2639467Y-13779832D01*
X2639467Y-13779832D02*
X2648991Y-13770309D01*
X2648991Y-13770309D02*
X2668039Y-13760785D01*
X2820420Y-13960785D02*
X2820420Y-13827451D01*
X2820420Y-13846499D02*
X2829943Y-13836975D01*
X2829943Y-13836975D02*
X2848991Y-13827451D01*
X2848991Y-13827451D02*
X2877563Y-13827451D01*
X2877563Y-13827451D02*
X2896610Y-13836975D01*
X2896610Y-13836975D02*
X2906134Y-13856023D01*
X2906134Y-13856023D02*
X2906134Y-13960785D01*
X2906134Y-13856023D02*
X2915658Y-13836975D01*
X2915658Y-13836975D02*
X2934705Y-13827451D01*
X2934705Y-13827451D02*
X2963277Y-13827451D01*
X2963277Y-13827451D02*
X2982324Y-13836975D01*
X2982324Y-13836975D02*
X2991848Y-13856023D01*
X2991848Y-13856023D02*
X2991848Y-13960785D01*
X3087086Y-13960785D02*
X3087086Y-13827451D01*
X3087086Y-13846499D02*
X3096610Y-13836975D01*
X3096610Y-13836975D02*
X3115658Y-13827451D01*
X3115658Y-13827451D02*
X3144229Y-13827451D01*
X3144229Y-13827451D02*
X3163277Y-13836975D01*
X3163277Y-13836975D02*
X3172801Y-13856023D01*
X3172801Y-13856023D02*
X3172801Y-13960785D01*
X3172801Y-13856023D02*
X3182324Y-13836975D01*
X3182324Y-13836975D02*
X3201372Y-13827451D01*
X3201372Y-13827451D02*
X3229943Y-13827451D01*
X3229943Y-13827451D02*
X3248991Y-13836975D01*
X3248991Y-13836975D02*
X3258515Y-13856023D01*
X3258515Y-13856023D02*
X3258515Y-13960785D01*
X3648991Y-13751261D02*
X3477563Y-14008404D01*
X3906134Y-13760785D02*
X3925182Y-13760785D01*
X3925182Y-13760785D02*
X3944229Y-13770309D01*
X3944229Y-13770309D02*
X3953753Y-13779832D01*
X3953753Y-13779832D02*
X3963277Y-13798880D01*
X3963277Y-13798880D02*
X3972801Y-13836975D01*
X3972801Y-13836975D02*
X3972801Y-13884594D01*
X3972801Y-13884594D02*
X3963277Y-13922689D01*
X3963277Y-13922689D02*
X3953753Y-13941737D01*
X3953753Y-13941737D02*
X3944229Y-13951261D01*
X3944229Y-13951261D02*
X3925182Y-13960785D01*
X3925182Y-13960785D02*
X3906134Y-13960785D01*
X3906134Y-13960785D02*
X3887086Y-13951261D01*
X3887086Y-13951261D02*
X3877563Y-13941737D01*
X3877563Y-13941737D02*
X3868039Y-13922689D01*
X3868039Y-13922689D02*
X3858515Y-13884594D01*
X3858515Y-13884594D02*
X3858515Y-13836975D01*
X3858515Y-13836975D02*
X3868039Y-13798880D01*
X3868039Y-13798880D02*
X3877563Y-13779832D01*
X3877563Y-13779832D02*
X3887086Y-13770309D01*
X3887086Y-13770309D02*
X3906134Y-13760785D01*
X4058515Y-13941737D02*
X4068039Y-13951261D01*
X4068039Y-13951261D02*
X4058515Y-13960785D01*
X4058515Y-13960785D02*
X4048991Y-13951261D01*
X4048991Y-13951261D02*
X4058515Y-13941737D01*
X4058515Y-13941737D02*
X4058515Y-13960785D01*
X4191848Y-13760785D02*
X4210896Y-13760785D01*
X4210896Y-13760785D02*
X4229944Y-13770309D01*
X4229944Y-13770309D02*
X4239468Y-13779832D01*
X4239468Y-13779832D02*
X4248991Y-13798880D01*
X4248991Y-13798880D02*
X4258515Y-13836975D01*
X4258515Y-13836975D02*
X4258515Y-13884594D01*
X4258515Y-13884594D02*
X4248991Y-13922689D01*
X4248991Y-13922689D02*
X4239468Y-13941737D01*
X4239468Y-13941737D02*
X4229944Y-13951261D01*
X4229944Y-13951261D02*
X4210896Y-13960785D01*
X4210896Y-13960785D02*
X4191848Y-13960785D01*
X4191848Y-13960785D02*
X4172801Y-13951261D01*
X4172801Y-13951261D02*
X4163277Y-13941737D01*
X4163277Y-13941737D02*
X4153753Y-13922689D01*
X4153753Y-13922689D02*
X4144229Y-13884594D01*
X4144229Y-13884594D02*
X4144229Y-13836975D01*
X4144229Y-13836975D02*
X4153753Y-13798880D01*
X4153753Y-13798880D02*
X4163277Y-13779832D01*
X4163277Y-13779832D02*
X4172801Y-13770309D01*
X4172801Y-13770309D02*
X4191848Y-13760785D01*
X4325182Y-13760785D02*
X4458515Y-13760785D01*
X4458515Y-13760785D02*
X4372801Y-13960785D01*
X4572801Y-13760785D02*
X4591849Y-13760785D01*
X4591849Y-13760785D02*
X4610896Y-13770309D01*
X4610896Y-13770309D02*
X4620420Y-13779832D01*
X4620420Y-13779832D02*
X4629944Y-13798880D01*
X4629944Y-13798880D02*
X4639468Y-13836975D01*
X4639468Y-13836975D02*
X4639468Y-13884594D01*
X4639468Y-13884594D02*
X4629944Y-13922689D01*
X4629944Y-13922689D02*
X4620420Y-13941737D01*
X4620420Y-13941737D02*
X4610896Y-13951261D01*
X4610896Y-13951261D02*
X4591849Y-13960785D01*
X4591849Y-13960785D02*
X4572801Y-13960785D01*
X4572801Y-13960785D02*
X4553753Y-13951261D01*
X4553753Y-13951261D02*
X4544229Y-13941737D01*
X4544229Y-13941737D02*
X4534706Y-13922689D01*
X4534706Y-13922689D02*
X4525182Y-13884594D01*
X4525182Y-13884594D02*
X4525182Y-13836975D01*
X4525182Y-13836975D02*
X4534706Y-13798880D01*
X4534706Y-13798880D02*
X4544229Y-13779832D01*
X4544229Y-13779832D02*
X4553753Y-13770309D01*
X4553753Y-13770309D02*
X4572801Y-13760785D01*
X4734706Y-13960785D02*
X4772801Y-13960785D01*
X4772801Y-13960785D02*
X4791849Y-13951261D01*
X4791849Y-13951261D02*
X4801372Y-13941737D01*
X4801372Y-13941737D02*
X4820420Y-13913166D01*
X4820420Y-13913166D02*
X4829944Y-13875070D01*
X4829944Y-13875070D02*
X4829944Y-13798880D01*
X4829944Y-13798880D02*
X4820420Y-13779832D01*
X4820420Y-13779832D02*
X4810896Y-13770309D01*
X4810896Y-13770309D02*
X4791849Y-13760785D01*
X4791849Y-13760785D02*
X4753753Y-13760785D01*
X4753753Y-13760785D02*
X4734706Y-13770309D01*
X4734706Y-13770309D02*
X4725182Y-13779832D01*
X4725182Y-13779832D02*
X4715658Y-13798880D01*
X4715658Y-13798880D02*
X4715658Y-13846499D01*
X4715658Y-13846499D02*
X4725182Y-13865547D01*
X4725182Y-13865547D02*
X4734706Y-13875070D01*
X4734706Y-13875070D02*
X4753753Y-13884594D01*
X4753753Y-13884594D02*
X4791849Y-13884594D01*
X4791849Y-13884594D02*
X4810896Y-13875070D01*
X4810896Y-13875070D02*
X4820420Y-13865547D01*
X4820420Y-13865547D02*
X4829944Y-13846499D01*
X4906134Y-13760785D02*
X4906134Y-13798880D01*
X4982325Y-13760785D02*
X4982325Y-13798880D01*
X5277563Y-14036975D02*
X5268039Y-14027451D01*
X5268039Y-14027451D02*
X5248991Y-13998880D01*
X5248991Y-13998880D02*
X5239468Y-13979832D01*
X5239468Y-13979832D02*
X5229944Y-13951261D01*
X5229944Y-13951261D02*
X5220420Y-13903642D01*
X5220420Y-13903642D02*
X5220420Y-13865547D01*
X5220420Y-13865547D02*
X5229944Y-13817928D01*
X5229944Y-13817928D02*
X5239468Y-13789356D01*
X5239468Y-13789356D02*
X5248991Y-13770309D01*
X5248991Y-13770309D02*
X5268039Y-13741737D01*
X5268039Y-13741737D02*
X5277563Y-13732213D01*
X5344230Y-13779832D02*
X5353753Y-13770309D01*
X5353753Y-13770309D02*
X5372801Y-13760785D01*
X5372801Y-13760785D02*
X5420420Y-13760785D01*
X5420420Y-13760785D02*
X5439468Y-13770309D01*
X5439468Y-13770309D02*
X5448991Y-13779832D01*
X5448991Y-13779832D02*
X5458515Y-13798880D01*
X5458515Y-13798880D02*
X5458515Y-13817928D01*
X5458515Y-13817928D02*
X5448991Y-13846499D01*
X5448991Y-13846499D02*
X5334706Y-13960785D01*
X5334706Y-13960785D02*
X5458515Y-13960785D01*
X5696610Y-13960785D02*
X5696610Y-13760785D01*
X5782325Y-13960785D02*
X5782325Y-13856023D01*
X5782325Y-13856023D02*
X5772801Y-13836975D01*
X5772801Y-13836975D02*
X5753753Y-13827451D01*
X5753753Y-13827451D02*
X5725182Y-13827451D01*
X5725182Y-13827451D02*
X5706134Y-13836975D01*
X5706134Y-13836975D02*
X5696610Y-13846499D01*
X5906134Y-13960785D02*
X5887087Y-13951261D01*
X5887087Y-13951261D02*
X5877563Y-13941737D01*
X5877563Y-13941737D02*
X5868039Y-13922689D01*
X5868039Y-13922689D02*
X5868039Y-13865547D01*
X5868039Y-13865547D02*
X5877563Y-13846499D01*
X5877563Y-13846499D02*
X5887087Y-13836975D01*
X5887087Y-13836975D02*
X5906134Y-13827451D01*
X5906134Y-13827451D02*
X5934706Y-13827451D01*
X5934706Y-13827451D02*
X5953753Y-13836975D01*
X5953753Y-13836975D02*
X5963277Y-13846499D01*
X5963277Y-13846499D02*
X5972801Y-13865547D01*
X5972801Y-13865547D02*
X5972801Y-13922689D01*
X5972801Y-13922689D02*
X5963277Y-13941737D01*
X5963277Y-13941737D02*
X5953753Y-13951261D01*
X5953753Y-13951261D02*
X5934706Y-13960785D01*
X5934706Y-13960785D02*
X5906134Y-13960785D01*
X6087087Y-13960785D02*
X6068039Y-13951261D01*
X6068039Y-13951261D02*
X6058515Y-13932213D01*
X6058515Y-13932213D02*
X6058515Y-13760785D01*
X6239468Y-13951261D02*
X6220420Y-13960785D01*
X6220420Y-13960785D02*
X6182325Y-13960785D01*
X6182325Y-13960785D02*
X6163277Y-13951261D01*
X6163277Y-13951261D02*
X6153753Y-13932213D01*
X6153753Y-13932213D02*
X6153753Y-13856023D01*
X6153753Y-13856023D02*
X6163277Y-13836975D01*
X6163277Y-13836975D02*
X6182325Y-13827451D01*
X6182325Y-13827451D02*
X6220420Y-13827451D01*
X6220420Y-13827451D02*
X6239468Y-13836975D01*
X6239468Y-13836975D02*
X6248991Y-13856023D01*
X6248991Y-13856023D02*
X6248991Y-13875070D01*
X6248991Y-13875070D02*
X6153753Y-13894118D01*
X6325182Y-13951261D02*
X6344230Y-13960785D01*
X6344230Y-13960785D02*
X6382325Y-13960785D01*
X6382325Y-13960785D02*
X6401372Y-13951261D01*
X6401372Y-13951261D02*
X6410896Y-13932213D01*
X6410896Y-13932213D02*
X6410896Y-13922689D01*
X6410896Y-13922689D02*
X6401372Y-13903642D01*
X6401372Y-13903642D02*
X6382325Y-13894118D01*
X6382325Y-13894118D02*
X6353753Y-13894118D01*
X6353753Y-13894118D02*
X6334706Y-13884594D01*
X6334706Y-13884594D02*
X6325182Y-13865547D01*
X6325182Y-13865547D02*
X6325182Y-13856023D01*
X6325182Y-13856023D02*
X6334706Y-13836975D01*
X6334706Y-13836975D02*
X6353753Y-13827451D01*
X6353753Y-13827451D02*
X6382325Y-13827451D01*
X6382325Y-13827451D02*
X6401372Y-13836975D01*
X6477563Y-14036975D02*
X6487087Y-14027451D01*
X6487087Y-14027451D02*
X6506134Y-13998880D01*
X6506134Y-13998880D02*
X6515658Y-13979832D01*
X6515658Y-13979832D02*
X6525182Y-13951261D01*
X6525182Y-13951261D02*
X6534706Y-13903642D01*
X6534706Y-13903642D02*
X6534706Y-13865547D01*
X6534706Y-13865547D02*
X6525182Y-13817928D01*
X6525182Y-13817928D02*
X6515658Y-13789356D01*
X6515658Y-13789356D02*
X6506134Y-13770309D01*
X6506134Y-13770309D02*
X6487087Y-13741737D01*
X6487087Y-13741737D02*
X6477563Y-13732213D01*
X6839468Y-14036975D02*
X6829944Y-14027451D01*
X6829944Y-14027451D02*
X6810896Y-13998880D01*
X6810896Y-13998880D02*
X6801372Y-13979832D01*
X6801372Y-13979832D02*
X6791849Y-13951261D01*
X6791849Y-13951261D02*
X6782325Y-13903642D01*
X6782325Y-13903642D02*
X6782325Y-13865547D01*
X6782325Y-13865547D02*
X6791849Y-13817928D01*
X6791849Y-13817928D02*
X6801372Y-13789356D01*
X6801372Y-13789356D02*
X6810896Y-13770309D01*
X6810896Y-13770309D02*
X6829944Y-13741737D01*
X6829944Y-13741737D02*
X6839468Y-13732213D01*
X6915658Y-13827451D02*
X6915658Y-13960785D01*
X6915658Y-13846499D02*
X6925182Y-13836975D01*
X6925182Y-13836975D02*
X6944230Y-13827451D01*
X6944230Y-13827451D02*
X6972801Y-13827451D01*
X6972801Y-13827451D02*
X6991849Y-13836975D01*
X6991849Y-13836975D02*
X7001372Y-13856023D01*
X7001372Y-13856023D02*
X7001372Y-13960785D01*
X7125182Y-13960785D02*
X7106134Y-13951261D01*
X7106134Y-13951261D02*
X7096611Y-13941737D01*
X7096611Y-13941737D02*
X7087087Y-13922689D01*
X7087087Y-13922689D02*
X7087087Y-13865547D01*
X7087087Y-13865547D02*
X7096611Y-13846499D01*
X7096611Y-13846499D02*
X7106134Y-13836975D01*
X7106134Y-13836975D02*
X7125182Y-13827451D01*
X7125182Y-13827451D02*
X7153753Y-13827451D01*
X7153753Y-13827451D02*
X7172801Y-13836975D01*
X7172801Y-13836975D02*
X7182325Y-13846499D01*
X7182325Y-13846499D02*
X7191849Y-13865547D01*
X7191849Y-13865547D02*
X7191849Y-13922689D01*
X7191849Y-13922689D02*
X7182325Y-13941737D01*
X7182325Y-13941737D02*
X7172801Y-13951261D01*
X7172801Y-13951261D02*
X7153753Y-13960785D01*
X7153753Y-13960785D02*
X7125182Y-13960785D01*
X7248992Y-13827451D02*
X7325182Y-13827451D01*
X7277563Y-13760785D02*
X7277563Y-13932213D01*
X7277563Y-13932213D02*
X7287087Y-13951261D01*
X7287087Y-13951261D02*
X7306134Y-13960785D01*
X7306134Y-13960785D02*
X7325182Y-13960785D01*
X7544230Y-13827451D02*
X7544230Y-14027451D01*
X7544230Y-13836975D02*
X7563277Y-13827451D01*
X7563277Y-13827451D02*
X7601373Y-13827451D01*
X7601373Y-13827451D02*
X7620420Y-13836975D01*
X7620420Y-13836975D02*
X7629944Y-13846499D01*
X7629944Y-13846499D02*
X7639468Y-13865547D01*
X7639468Y-13865547D02*
X7639468Y-13922689D01*
X7639468Y-13922689D02*
X7629944Y-13941737D01*
X7629944Y-13941737D02*
X7620420Y-13951261D01*
X7620420Y-13951261D02*
X7601373Y-13960785D01*
X7601373Y-13960785D02*
X7563277Y-13960785D01*
X7563277Y-13960785D02*
X7544230Y-13951261D01*
X7753753Y-13960785D02*
X7734706Y-13951261D01*
X7734706Y-13951261D02*
X7725182Y-13932213D01*
X7725182Y-13932213D02*
X7725182Y-13760785D01*
X7915658Y-13960785D02*
X7915658Y-13856023D01*
X7915658Y-13856023D02*
X7906134Y-13836975D01*
X7906134Y-13836975D02*
X7887087Y-13827451D01*
X7887087Y-13827451D02*
X7848992Y-13827451D01*
X7848992Y-13827451D02*
X7829944Y-13836975D01*
X7915658Y-13951261D02*
X7896611Y-13960785D01*
X7896611Y-13960785D02*
X7848992Y-13960785D01*
X7848992Y-13960785D02*
X7829944Y-13951261D01*
X7829944Y-13951261D02*
X7820420Y-13932213D01*
X7820420Y-13932213D02*
X7820420Y-13913166D01*
X7820420Y-13913166D02*
X7829944Y-13894118D01*
X7829944Y-13894118D02*
X7848992Y-13884594D01*
X7848992Y-13884594D02*
X7896611Y-13884594D01*
X7896611Y-13884594D02*
X7915658Y-13875070D01*
X7982325Y-13827451D02*
X8058515Y-13827451D01*
X8010896Y-13760785D02*
X8010896Y-13932213D01*
X8010896Y-13932213D02*
X8020420Y-13951261D01*
X8020420Y-13951261D02*
X8039468Y-13960785D01*
X8039468Y-13960785D02*
X8058515Y-13960785D01*
X8201373Y-13951261D02*
X8182325Y-13960785D01*
X8182325Y-13960785D02*
X8144230Y-13960785D01*
X8144230Y-13960785D02*
X8125182Y-13951261D01*
X8125182Y-13951261D02*
X8115658Y-13932213D01*
X8115658Y-13932213D02*
X8115658Y-13856023D01*
X8115658Y-13856023D02*
X8125182Y-13836975D01*
X8125182Y-13836975D02*
X8144230Y-13827451D01*
X8144230Y-13827451D02*
X8182325Y-13827451D01*
X8182325Y-13827451D02*
X8201373Y-13836975D01*
X8201373Y-13836975D02*
X8210896Y-13856023D01*
X8210896Y-13856023D02*
X8210896Y-13875070D01*
X8210896Y-13875070D02*
X8115658Y-13894118D01*
X8382325Y-13960785D02*
X8382325Y-13760785D01*
X8382325Y-13951261D02*
X8363277Y-13960785D01*
X8363277Y-13960785D02*
X8325182Y-13960785D01*
X8325182Y-13960785D02*
X8306134Y-13951261D01*
X8306134Y-13951261D02*
X8296611Y-13941737D01*
X8296611Y-13941737D02*
X8287087Y-13922689D01*
X8287087Y-13922689D02*
X8287087Y-13865547D01*
X8287087Y-13865547D02*
X8296611Y-13846499D01*
X8296611Y-13846499D02*
X8306134Y-13836975D01*
X8306134Y-13836975D02*
X8325182Y-13827451D01*
X8325182Y-13827451D02*
X8363277Y-13827451D01*
X8363277Y-13827451D02*
X8382325Y-13836975D01*
X8458516Y-14036975D02*
X8468039Y-14027451D01*
X8468039Y-14027451D02*
X8487087Y-13998880D01*
X8487087Y-13998880D02*
X8496611Y-13979832D01*
X8496611Y-13979832D02*
X8506135Y-13951261D01*
X8506135Y-13951261D02*
X8515658Y-13903642D01*
X8515658Y-13903642D02*
X8515658Y-13865547D01*
X8515658Y-13865547D02*
X8506135Y-13817928D01*
X8506135Y-13817928D02*
X8496611Y-13789356D01*
X8496611Y-13789356D02*
X8487087Y-13770309D01*
X8487087Y-13770309D02*
X8468039Y-13741737D01*
X8468039Y-13741737D02*
X8458516Y-13732213D01*
X1602500Y-14069301D02*
X1602500Y-14269301D01*
X1502500Y-14169301D02*
X1702500Y-14169301D01*
X1953753Y-14079832D02*
X1963277Y-14070309D01*
X1963277Y-14070309D02*
X1982324Y-14060785D01*
X1982324Y-14060785D02*
X2029943Y-14060785D01*
X2029943Y-14060785D02*
X2048991Y-14070309D01*
X2048991Y-14070309D02*
X2058515Y-14079832D01*
X2058515Y-14079832D02*
X2068039Y-14098880D01*
X2068039Y-14098880D02*
X2068039Y-14117928D01*
X2068039Y-14117928D02*
X2058515Y-14146499D01*
X2058515Y-14146499D02*
X1944229Y-14260785D01*
X1944229Y-14260785D02*
X2068039Y-14260785D01*
X2153753Y-14241737D02*
X2163277Y-14251261D01*
X2163277Y-14251261D02*
X2153753Y-14260785D01*
X2153753Y-14260785D02*
X2144229Y-14251261D01*
X2144229Y-14251261D02*
X2153753Y-14241737D01*
X2153753Y-14241737D02*
X2153753Y-14260785D01*
X2287086Y-14060785D02*
X2306134Y-14060785D01*
X2306134Y-14060785D02*
X2325182Y-14070309D01*
X2325182Y-14070309D02*
X2334705Y-14079832D01*
X2334705Y-14079832D02*
X2344229Y-14098880D01*
X2344229Y-14098880D02*
X2353753Y-14136975D01*
X2353753Y-14136975D02*
X2353753Y-14184594D01*
X2353753Y-14184594D02*
X2344229Y-14222689D01*
X2344229Y-14222689D02*
X2334705Y-14241737D01*
X2334705Y-14241737D02*
X2325182Y-14251261D01*
X2325182Y-14251261D02*
X2306134Y-14260785D01*
X2306134Y-14260785D02*
X2287086Y-14260785D01*
X2287086Y-14260785D02*
X2268039Y-14251261D01*
X2268039Y-14251261D02*
X2258515Y-14241737D01*
X2258515Y-14241737D02*
X2248991Y-14222689D01*
X2248991Y-14222689D02*
X2239467Y-14184594D01*
X2239467Y-14184594D02*
X2239467Y-14136975D01*
X2239467Y-14136975D02*
X2248991Y-14098880D01*
X2248991Y-14098880D02*
X2258515Y-14079832D01*
X2258515Y-14079832D02*
X2268039Y-14070309D01*
X2268039Y-14070309D02*
X2287086Y-14060785D01*
X2477563Y-14060785D02*
X2496610Y-14060785D01*
X2496610Y-14060785D02*
X2515658Y-14070309D01*
X2515658Y-14070309D02*
X2525182Y-14079832D01*
X2525182Y-14079832D02*
X2534705Y-14098880D01*
X2534705Y-14098880D02*
X2544229Y-14136975D01*
X2544229Y-14136975D02*
X2544229Y-14184594D01*
X2544229Y-14184594D02*
X2534705Y-14222689D01*
X2534705Y-14222689D02*
X2525182Y-14241737D01*
X2525182Y-14241737D02*
X2515658Y-14251261D01*
X2515658Y-14251261D02*
X2496610Y-14260785D01*
X2496610Y-14260785D02*
X2477563Y-14260785D01*
X2477563Y-14260785D02*
X2458515Y-14251261D01*
X2458515Y-14251261D02*
X2448991Y-14241737D01*
X2448991Y-14241737D02*
X2439467Y-14222689D01*
X2439467Y-14222689D02*
X2429944Y-14184594D01*
X2429944Y-14184594D02*
X2429944Y-14136975D01*
X2429944Y-14136975D02*
X2439467Y-14098880D01*
X2439467Y-14098880D02*
X2448991Y-14079832D01*
X2448991Y-14079832D02*
X2458515Y-14070309D01*
X2458515Y-14070309D02*
X2477563Y-14060785D01*
X2668039Y-14060785D02*
X2687086Y-14060785D01*
X2687086Y-14060785D02*
X2706134Y-14070309D01*
X2706134Y-14070309D02*
X2715658Y-14079832D01*
X2715658Y-14079832D02*
X2725182Y-14098880D01*
X2725182Y-14098880D02*
X2734705Y-14136975D01*
X2734705Y-14136975D02*
X2734705Y-14184594D01*
X2734705Y-14184594D02*
X2725182Y-14222689D01*
X2725182Y-14222689D02*
X2715658Y-14241737D01*
X2715658Y-14241737D02*
X2706134Y-14251261D01*
X2706134Y-14251261D02*
X2687086Y-14260785D01*
X2687086Y-14260785D02*
X2668039Y-14260785D01*
X2668039Y-14260785D02*
X2648991Y-14251261D01*
X2648991Y-14251261D02*
X2639467Y-14241737D01*
X2639467Y-14241737D02*
X2629944Y-14222689D01*
X2629944Y-14222689D02*
X2620420Y-14184594D01*
X2620420Y-14184594D02*
X2620420Y-14136975D01*
X2620420Y-14136975D02*
X2629944Y-14098880D01*
X2629944Y-14098880D02*
X2639467Y-14079832D01*
X2639467Y-14079832D02*
X2648991Y-14070309D01*
X2648991Y-14070309D02*
X2668039Y-14060785D01*
X2820420Y-14260785D02*
X2820420Y-14127451D01*
X2820420Y-14146499D02*
X2829943Y-14136975D01*
X2829943Y-14136975D02*
X2848991Y-14127451D01*
X2848991Y-14127451D02*
X2877563Y-14127451D01*
X2877563Y-14127451D02*
X2896610Y-14136975D01*
X2896610Y-14136975D02*
X2906134Y-14156023D01*
X2906134Y-14156023D02*
X2906134Y-14260785D01*
X2906134Y-14156023D02*
X2915658Y-14136975D01*
X2915658Y-14136975D02*
X2934705Y-14127451D01*
X2934705Y-14127451D02*
X2963277Y-14127451D01*
X2963277Y-14127451D02*
X2982324Y-14136975D01*
X2982324Y-14136975D02*
X2991848Y-14156023D01*
X2991848Y-14156023D02*
X2991848Y-14260785D01*
X3087086Y-14260785D02*
X3087086Y-14127451D01*
X3087086Y-14146499D02*
X3096610Y-14136975D01*
X3096610Y-14136975D02*
X3115658Y-14127451D01*
X3115658Y-14127451D02*
X3144229Y-14127451D01*
X3144229Y-14127451D02*
X3163277Y-14136975D01*
X3163277Y-14136975D02*
X3172801Y-14156023D01*
X3172801Y-14156023D02*
X3172801Y-14260785D01*
X3172801Y-14156023D02*
X3182324Y-14136975D01*
X3182324Y-14136975D02*
X3201372Y-14127451D01*
X3201372Y-14127451D02*
X3229943Y-14127451D01*
X3229943Y-14127451D02*
X3248991Y-14136975D01*
X3248991Y-14136975D02*
X3258515Y-14156023D01*
X3258515Y-14156023D02*
X3258515Y-14260785D01*
X3648991Y-14051261D02*
X3477563Y-14308404D01*
X3906134Y-14060785D02*
X3925182Y-14060785D01*
X3925182Y-14060785D02*
X3944229Y-14070309D01*
X3944229Y-14070309D02*
X3953753Y-14079832D01*
X3953753Y-14079832D02*
X3963277Y-14098880D01*
X3963277Y-14098880D02*
X3972801Y-14136975D01*
X3972801Y-14136975D02*
X3972801Y-14184594D01*
X3972801Y-14184594D02*
X3963277Y-14222689D01*
X3963277Y-14222689D02*
X3953753Y-14241737D01*
X3953753Y-14241737D02*
X3944229Y-14251261D01*
X3944229Y-14251261D02*
X3925182Y-14260785D01*
X3925182Y-14260785D02*
X3906134Y-14260785D01*
X3906134Y-14260785D02*
X3887086Y-14251261D01*
X3887086Y-14251261D02*
X3877563Y-14241737D01*
X3877563Y-14241737D02*
X3868039Y-14222689D01*
X3868039Y-14222689D02*
X3858515Y-14184594D01*
X3858515Y-14184594D02*
X3858515Y-14136975D01*
X3858515Y-14136975D02*
X3868039Y-14098880D01*
X3868039Y-14098880D02*
X3877563Y-14079832D01*
X3877563Y-14079832D02*
X3887086Y-14070309D01*
X3887086Y-14070309D02*
X3906134Y-14060785D01*
X4058515Y-14241737D02*
X4068039Y-14251261D01*
X4068039Y-14251261D02*
X4058515Y-14260785D01*
X4058515Y-14260785D02*
X4048991Y-14251261D01*
X4048991Y-14251261D02*
X4058515Y-14241737D01*
X4058515Y-14241737D02*
X4058515Y-14260785D01*
X4191848Y-14060785D02*
X4210896Y-14060785D01*
X4210896Y-14060785D02*
X4229944Y-14070309D01*
X4229944Y-14070309D02*
X4239468Y-14079832D01*
X4239468Y-14079832D02*
X4248991Y-14098880D01*
X4248991Y-14098880D02*
X4258515Y-14136975D01*
X4258515Y-14136975D02*
X4258515Y-14184594D01*
X4258515Y-14184594D02*
X4248991Y-14222689D01*
X4248991Y-14222689D02*
X4239468Y-14241737D01*
X4239468Y-14241737D02*
X4229944Y-14251261D01*
X4229944Y-14251261D02*
X4210896Y-14260785D01*
X4210896Y-14260785D02*
X4191848Y-14260785D01*
X4191848Y-14260785D02*
X4172801Y-14251261D01*
X4172801Y-14251261D02*
X4163277Y-14241737D01*
X4163277Y-14241737D02*
X4153753Y-14222689D01*
X4153753Y-14222689D02*
X4144229Y-14184594D01*
X4144229Y-14184594D02*
X4144229Y-14136975D01*
X4144229Y-14136975D02*
X4153753Y-14098880D01*
X4153753Y-14098880D02*
X4163277Y-14079832D01*
X4163277Y-14079832D02*
X4172801Y-14070309D01*
X4172801Y-14070309D02*
X4191848Y-14060785D01*
X4325182Y-14060785D02*
X4458515Y-14060785D01*
X4458515Y-14060785D02*
X4372801Y-14260785D01*
X4563277Y-14146499D02*
X4544229Y-14136975D01*
X4544229Y-14136975D02*
X4534706Y-14127451D01*
X4534706Y-14127451D02*
X4525182Y-14108404D01*
X4525182Y-14108404D02*
X4525182Y-14098880D01*
X4525182Y-14098880D02*
X4534706Y-14079832D01*
X4534706Y-14079832D02*
X4544229Y-14070309D01*
X4544229Y-14070309D02*
X4563277Y-14060785D01*
X4563277Y-14060785D02*
X4601372Y-14060785D01*
X4601372Y-14060785D02*
X4620420Y-14070309D01*
X4620420Y-14070309D02*
X4629944Y-14079832D01*
X4629944Y-14079832D02*
X4639468Y-14098880D01*
X4639468Y-14098880D02*
X4639468Y-14108404D01*
X4639468Y-14108404D02*
X4629944Y-14127451D01*
X4629944Y-14127451D02*
X4620420Y-14136975D01*
X4620420Y-14136975D02*
X4601372Y-14146499D01*
X4601372Y-14146499D02*
X4563277Y-14146499D01*
X4563277Y-14146499D02*
X4544229Y-14156023D01*
X4544229Y-14156023D02*
X4534706Y-14165547D01*
X4534706Y-14165547D02*
X4525182Y-14184594D01*
X4525182Y-14184594D02*
X4525182Y-14222689D01*
X4525182Y-14222689D02*
X4534706Y-14241737D01*
X4534706Y-14241737D02*
X4544229Y-14251261D01*
X4544229Y-14251261D02*
X4563277Y-14260785D01*
X4563277Y-14260785D02*
X4601372Y-14260785D01*
X4601372Y-14260785D02*
X4620420Y-14251261D01*
X4620420Y-14251261D02*
X4629944Y-14241737D01*
X4629944Y-14241737D02*
X4639468Y-14222689D01*
X4639468Y-14222689D02*
X4639468Y-14184594D01*
X4639468Y-14184594D02*
X4629944Y-14165547D01*
X4629944Y-14165547D02*
X4620420Y-14156023D01*
X4620420Y-14156023D02*
X4601372Y-14146499D01*
X4706134Y-14060785D02*
X4839468Y-14060785D01*
X4839468Y-14060785D02*
X4753753Y-14260785D01*
X4906134Y-14060785D02*
X4906134Y-14098880D01*
X4982325Y-14060785D02*
X4982325Y-14098880D01*
X5277563Y-14336975D02*
X5268039Y-14327451D01*
X5268039Y-14327451D02*
X5248991Y-14298880D01*
X5248991Y-14298880D02*
X5239468Y-14279832D01*
X5239468Y-14279832D02*
X5229944Y-14251261D01*
X5229944Y-14251261D02*
X5220420Y-14203642D01*
X5220420Y-14203642D02*
X5220420Y-14165547D01*
X5220420Y-14165547D02*
X5229944Y-14117928D01*
X5229944Y-14117928D02*
X5239468Y-14089356D01*
X5239468Y-14089356D02*
X5248991Y-14070309D01*
X5248991Y-14070309D02*
X5268039Y-14041737D01*
X5268039Y-14041737D02*
X5277563Y-14032213D01*
X5439468Y-14060785D02*
X5401372Y-14060785D01*
X5401372Y-14060785D02*
X5382325Y-14070309D01*
X5382325Y-14070309D02*
X5372801Y-14079832D01*
X5372801Y-14079832D02*
X5353753Y-14108404D01*
X5353753Y-14108404D02*
X5344230Y-14146499D01*
X5344230Y-14146499D02*
X5344230Y-14222689D01*
X5344230Y-14222689D02*
X5353753Y-14241737D01*
X5353753Y-14241737D02*
X5363277Y-14251261D01*
X5363277Y-14251261D02*
X5382325Y-14260785D01*
X5382325Y-14260785D02*
X5420420Y-14260785D01*
X5420420Y-14260785D02*
X5439468Y-14251261D01*
X5439468Y-14251261D02*
X5448991Y-14241737D01*
X5448991Y-14241737D02*
X5458515Y-14222689D01*
X5458515Y-14222689D02*
X5458515Y-14175070D01*
X5458515Y-14175070D02*
X5448991Y-14156023D01*
X5448991Y-14156023D02*
X5439468Y-14146499D01*
X5439468Y-14146499D02*
X5420420Y-14136975D01*
X5420420Y-14136975D02*
X5382325Y-14136975D01*
X5382325Y-14136975D02*
X5363277Y-14146499D01*
X5363277Y-14146499D02*
X5353753Y-14156023D01*
X5353753Y-14156023D02*
X5344230Y-14175070D01*
X5582325Y-14060785D02*
X5601372Y-14060785D01*
X5601372Y-14060785D02*
X5620420Y-14070309D01*
X5620420Y-14070309D02*
X5629944Y-14079832D01*
X5629944Y-14079832D02*
X5639468Y-14098880D01*
X5639468Y-14098880D02*
X5648991Y-14136975D01*
X5648991Y-14136975D02*
X5648991Y-14184594D01*
X5648991Y-14184594D02*
X5639468Y-14222689D01*
X5639468Y-14222689D02*
X5629944Y-14241737D01*
X5629944Y-14241737D02*
X5620420Y-14251261D01*
X5620420Y-14251261D02*
X5601372Y-14260785D01*
X5601372Y-14260785D02*
X5582325Y-14260785D01*
X5582325Y-14260785D02*
X5563277Y-14251261D01*
X5563277Y-14251261D02*
X5553753Y-14241737D01*
X5553753Y-14241737D02*
X5544230Y-14222689D01*
X5544230Y-14222689D02*
X5534706Y-14184594D01*
X5534706Y-14184594D02*
X5534706Y-14136975D01*
X5534706Y-14136975D02*
X5544230Y-14098880D01*
X5544230Y-14098880D02*
X5553753Y-14079832D01*
X5553753Y-14079832D02*
X5563277Y-14070309D01*
X5563277Y-14070309D02*
X5582325Y-14060785D01*
X5887087Y-14260785D02*
X5887087Y-14060785D01*
X5972801Y-14260785D02*
X5972801Y-14156023D01*
X5972801Y-14156023D02*
X5963277Y-14136975D01*
X5963277Y-14136975D02*
X5944230Y-14127451D01*
X5944230Y-14127451D02*
X5915658Y-14127451D01*
X5915658Y-14127451D02*
X5896610Y-14136975D01*
X5896610Y-14136975D02*
X5887087Y-14146499D01*
X6096610Y-14260785D02*
X6077563Y-14251261D01*
X6077563Y-14251261D02*
X6068039Y-14241737D01*
X6068039Y-14241737D02*
X6058515Y-14222689D01*
X6058515Y-14222689D02*
X6058515Y-14165547D01*
X6058515Y-14165547D02*
X6068039Y-14146499D01*
X6068039Y-14146499D02*
X6077563Y-14136975D01*
X6077563Y-14136975D02*
X6096610Y-14127451D01*
X6096610Y-14127451D02*
X6125182Y-14127451D01*
X6125182Y-14127451D02*
X6144230Y-14136975D01*
X6144230Y-14136975D02*
X6153753Y-14146499D01*
X6153753Y-14146499D02*
X6163277Y-14165547D01*
X6163277Y-14165547D02*
X6163277Y-14222689D01*
X6163277Y-14222689D02*
X6153753Y-14241737D01*
X6153753Y-14241737D02*
X6144230Y-14251261D01*
X6144230Y-14251261D02*
X6125182Y-14260785D01*
X6125182Y-14260785D02*
X6096610Y-14260785D01*
X6277563Y-14260785D02*
X6258515Y-14251261D01*
X6258515Y-14251261D02*
X6248991Y-14232213D01*
X6248991Y-14232213D02*
X6248991Y-14060785D01*
X6429944Y-14251261D02*
X6410896Y-14260785D01*
X6410896Y-14260785D02*
X6372801Y-14260785D01*
X6372801Y-14260785D02*
X6353753Y-14251261D01*
X6353753Y-14251261D02*
X6344230Y-14232213D01*
X6344230Y-14232213D02*
X6344230Y-14156023D01*
X6344230Y-14156023D02*
X6353753Y-14136975D01*
X6353753Y-14136975D02*
X6372801Y-14127451D01*
X6372801Y-14127451D02*
X6410896Y-14127451D01*
X6410896Y-14127451D02*
X6429944Y-14136975D01*
X6429944Y-14136975D02*
X6439468Y-14156023D01*
X6439468Y-14156023D02*
X6439468Y-14175070D01*
X6439468Y-14175070D02*
X6344230Y-14194118D01*
X6515658Y-14251261D02*
X6534706Y-14260785D01*
X6534706Y-14260785D02*
X6572801Y-14260785D01*
X6572801Y-14260785D02*
X6591849Y-14251261D01*
X6591849Y-14251261D02*
X6601372Y-14232213D01*
X6601372Y-14232213D02*
X6601372Y-14222689D01*
X6601372Y-14222689D02*
X6591849Y-14203642D01*
X6591849Y-14203642D02*
X6572801Y-14194118D01*
X6572801Y-14194118D02*
X6544230Y-14194118D01*
X6544230Y-14194118D02*
X6525182Y-14184594D01*
X6525182Y-14184594D02*
X6515658Y-14165547D01*
X6515658Y-14165547D02*
X6515658Y-14156023D01*
X6515658Y-14156023D02*
X6525182Y-14136975D01*
X6525182Y-14136975D02*
X6544230Y-14127451D01*
X6544230Y-14127451D02*
X6572801Y-14127451D01*
X6572801Y-14127451D02*
X6591849Y-14136975D01*
X6668039Y-14336975D02*
X6677563Y-14327451D01*
X6677563Y-14327451D02*
X6696611Y-14298880D01*
X6696611Y-14298880D02*
X6706134Y-14279832D01*
X6706134Y-14279832D02*
X6715658Y-14251261D01*
X6715658Y-14251261D02*
X6725182Y-14203642D01*
X6725182Y-14203642D02*
X6725182Y-14165547D01*
X6725182Y-14165547D02*
X6715658Y-14117928D01*
X6715658Y-14117928D02*
X6706134Y-14089356D01*
X6706134Y-14089356D02*
X6696611Y-14070309D01*
X6696611Y-14070309D02*
X6677563Y-14041737D01*
X6677563Y-14041737D02*
X6668039Y-14032213D01*
X7029944Y-14336975D02*
X7020420Y-14327451D01*
X7020420Y-14327451D02*
X7001372Y-14298880D01*
X7001372Y-14298880D02*
X6991849Y-14279832D01*
X6991849Y-14279832D02*
X6982325Y-14251261D01*
X6982325Y-14251261D02*
X6972801Y-14203642D01*
X6972801Y-14203642D02*
X6972801Y-14165547D01*
X6972801Y-14165547D02*
X6982325Y-14117928D01*
X6982325Y-14117928D02*
X6991849Y-14089356D01*
X6991849Y-14089356D02*
X7001372Y-14070309D01*
X7001372Y-14070309D02*
X7020420Y-14041737D01*
X7020420Y-14041737D02*
X7029944Y-14032213D01*
X7106134Y-14127451D02*
X7106134Y-14260785D01*
X7106134Y-14146499D02*
X7115658Y-14136975D01*
X7115658Y-14136975D02*
X7134706Y-14127451D01*
X7134706Y-14127451D02*
X7163277Y-14127451D01*
X7163277Y-14127451D02*
X7182325Y-14136975D01*
X7182325Y-14136975D02*
X7191849Y-14156023D01*
X7191849Y-14156023D02*
X7191849Y-14260785D01*
X7315658Y-14260785D02*
X7296611Y-14251261D01*
X7296611Y-14251261D02*
X7287087Y-14241737D01*
X7287087Y-14241737D02*
X7277563Y-14222689D01*
X7277563Y-14222689D02*
X7277563Y-14165547D01*
X7277563Y-14165547D02*
X7287087Y-14146499D01*
X7287087Y-14146499D02*
X7296611Y-14136975D01*
X7296611Y-14136975D02*
X7315658Y-14127451D01*
X7315658Y-14127451D02*
X7344230Y-14127451D01*
X7344230Y-14127451D02*
X7363277Y-14136975D01*
X7363277Y-14136975D02*
X7372801Y-14146499D01*
X7372801Y-14146499D02*
X7382325Y-14165547D01*
X7382325Y-14165547D02*
X7382325Y-14222689D01*
X7382325Y-14222689D02*
X7372801Y-14241737D01*
X7372801Y-14241737D02*
X7363277Y-14251261D01*
X7363277Y-14251261D02*
X7344230Y-14260785D01*
X7344230Y-14260785D02*
X7315658Y-14260785D01*
X7439468Y-14127451D02*
X7515658Y-14127451D01*
X7468039Y-14060785D02*
X7468039Y-14232213D01*
X7468039Y-14232213D02*
X7477563Y-14251261D01*
X7477563Y-14251261D02*
X7496611Y-14260785D01*
X7496611Y-14260785D02*
X7515658Y-14260785D01*
X7734706Y-14127451D02*
X7734706Y-14327451D01*
X7734706Y-14136975D02*
X7753753Y-14127451D01*
X7753753Y-14127451D02*
X7791849Y-14127451D01*
X7791849Y-14127451D02*
X7810896Y-14136975D01*
X7810896Y-14136975D02*
X7820420Y-14146499D01*
X7820420Y-14146499D02*
X7829944Y-14165547D01*
X7829944Y-14165547D02*
X7829944Y-14222689D01*
X7829944Y-14222689D02*
X7820420Y-14241737D01*
X7820420Y-14241737D02*
X7810896Y-14251261D01*
X7810896Y-14251261D02*
X7791849Y-14260785D01*
X7791849Y-14260785D02*
X7753753Y-14260785D01*
X7753753Y-14260785D02*
X7734706Y-14251261D01*
X7944230Y-14260785D02*
X7925182Y-14251261D01*
X7925182Y-14251261D02*
X7915658Y-14232213D01*
X7915658Y-14232213D02*
X7915658Y-14060785D01*
X8106134Y-14260785D02*
X8106134Y-14156023D01*
X8106134Y-14156023D02*
X8096611Y-14136975D01*
X8096611Y-14136975D02*
X8077563Y-14127451D01*
X8077563Y-14127451D02*
X8039468Y-14127451D01*
X8039468Y-14127451D02*
X8020420Y-14136975D01*
X8106134Y-14251261D02*
X8087087Y-14260785D01*
X8087087Y-14260785D02*
X8039468Y-14260785D01*
X8039468Y-14260785D02*
X8020420Y-14251261D01*
X8020420Y-14251261D02*
X8010896Y-14232213D01*
X8010896Y-14232213D02*
X8010896Y-14213166D01*
X8010896Y-14213166D02*
X8020420Y-14194118D01*
X8020420Y-14194118D02*
X8039468Y-14184594D01*
X8039468Y-14184594D02*
X8087087Y-14184594D01*
X8087087Y-14184594D02*
X8106134Y-14175070D01*
X8172801Y-14127451D02*
X8248992Y-14127451D01*
X8201373Y-14060785D02*
X8201373Y-14232213D01*
X8201373Y-14232213D02*
X8210896Y-14251261D01*
X8210896Y-14251261D02*
X8229944Y-14260785D01*
X8229944Y-14260785D02*
X8248992Y-14260785D01*
X8391849Y-14251261D02*
X8372801Y-14260785D01*
X8372801Y-14260785D02*
X8334706Y-14260785D01*
X8334706Y-14260785D02*
X8315658Y-14251261D01*
X8315658Y-14251261D02*
X8306134Y-14232213D01*
X8306134Y-14232213D02*
X8306134Y-14156023D01*
X8306134Y-14156023D02*
X8315658Y-14136975D01*
X8315658Y-14136975D02*
X8334706Y-14127451D01*
X8334706Y-14127451D02*
X8372801Y-14127451D01*
X8372801Y-14127451D02*
X8391849Y-14136975D01*
X8391849Y-14136975D02*
X8401373Y-14156023D01*
X8401373Y-14156023D02*
X8401373Y-14175070D01*
X8401373Y-14175070D02*
X8306134Y-14194118D01*
X8572801Y-14260785D02*
X8572801Y-14060785D01*
X8572801Y-14251261D02*
X8553754Y-14260785D01*
X8553754Y-14260785D02*
X8515658Y-14260785D01*
X8515658Y-14260785D02*
X8496611Y-14251261D01*
X8496611Y-14251261D02*
X8487087Y-14241737D01*
X8487087Y-14241737D02*
X8477563Y-14222689D01*
X8477563Y-14222689D02*
X8477563Y-14165547D01*
X8477563Y-14165547D02*
X8487087Y-14146499D01*
X8487087Y-14146499D02*
X8496611Y-14136975D01*
X8496611Y-14136975D02*
X8515658Y-14127451D01*
X8515658Y-14127451D02*
X8553754Y-14127451D01*
X8553754Y-14127451D02*
X8572801Y-14136975D01*
X8648992Y-14336975D02*
X8658516Y-14327451D01*
X8658516Y-14327451D02*
X8677563Y-14298880D01*
X8677563Y-14298880D02*
X8687087Y-14279832D01*
X8687087Y-14279832D02*
X8696611Y-14251261D01*
X8696611Y-14251261D02*
X8706135Y-14203642D01*
X8706135Y-14203642D02*
X8706135Y-14165547D01*
X8706135Y-14165547D02*
X8696611Y-14117928D01*
X8696611Y-14117928D02*
X8687087Y-14089356D01*
X8687087Y-14089356D02*
X8677563Y-14070309D01*
X8677563Y-14070309D02*
X8658516Y-14041737D01*
X8658516Y-14041737D02*
X8648992Y-14032213D01*
X1673211Y-14560012D02*
X1673211Y-14418590D01*
X1531789Y-14418590D01*
X1531789Y-14560012D01*
X1673211Y-14560012D01*
X1953753Y-14399832D02*
X1963277Y-14390309D01*
X1963277Y-14390309D02*
X1982324Y-14380785D01*
X1982324Y-14380785D02*
X2029943Y-14380785D01*
X2029943Y-14380785D02*
X2048991Y-14390309D01*
X2048991Y-14390309D02*
X2058515Y-14399832D01*
X2058515Y-14399832D02*
X2068039Y-14418880D01*
X2068039Y-14418880D02*
X2068039Y-14437928D01*
X2068039Y-14437928D02*
X2058515Y-14466499D01*
X2058515Y-14466499D02*
X1944229Y-14580785D01*
X1944229Y-14580785D02*
X2068039Y-14580785D01*
X2153753Y-14561737D02*
X2163277Y-14571261D01*
X2163277Y-14571261D02*
X2153753Y-14580785D01*
X2153753Y-14580785D02*
X2144229Y-14571261D01*
X2144229Y-14571261D02*
X2153753Y-14561737D01*
X2153753Y-14561737D02*
X2153753Y-14580785D01*
X2239467Y-14399832D02*
X2248991Y-14390309D01*
X2248991Y-14390309D02*
X2268039Y-14380785D01*
X2268039Y-14380785D02*
X2315658Y-14380785D01*
X2315658Y-14380785D02*
X2334705Y-14390309D01*
X2334705Y-14390309D02*
X2344229Y-14399832D01*
X2344229Y-14399832D02*
X2353753Y-14418880D01*
X2353753Y-14418880D02*
X2353753Y-14437928D01*
X2353753Y-14437928D02*
X2344229Y-14466499D01*
X2344229Y-14466499D02*
X2229944Y-14580785D01*
X2229944Y-14580785D02*
X2353753Y-14580785D01*
X2477563Y-14380785D02*
X2496610Y-14380785D01*
X2496610Y-14380785D02*
X2515658Y-14390309D01*
X2515658Y-14390309D02*
X2525182Y-14399832D01*
X2525182Y-14399832D02*
X2534705Y-14418880D01*
X2534705Y-14418880D02*
X2544229Y-14456975D01*
X2544229Y-14456975D02*
X2544229Y-14504594D01*
X2544229Y-14504594D02*
X2534705Y-14542689D01*
X2534705Y-14542689D02*
X2525182Y-14561737D01*
X2525182Y-14561737D02*
X2515658Y-14571261D01*
X2515658Y-14571261D02*
X2496610Y-14580785D01*
X2496610Y-14580785D02*
X2477563Y-14580785D01*
X2477563Y-14580785D02*
X2458515Y-14571261D01*
X2458515Y-14571261D02*
X2448991Y-14561737D01*
X2448991Y-14561737D02*
X2439467Y-14542689D01*
X2439467Y-14542689D02*
X2429944Y-14504594D01*
X2429944Y-14504594D02*
X2429944Y-14456975D01*
X2429944Y-14456975D02*
X2439467Y-14418880D01*
X2439467Y-14418880D02*
X2448991Y-14399832D01*
X2448991Y-14399832D02*
X2458515Y-14390309D01*
X2458515Y-14390309D02*
X2477563Y-14380785D01*
X2668039Y-14380785D02*
X2687086Y-14380785D01*
X2687086Y-14380785D02*
X2706134Y-14390309D01*
X2706134Y-14390309D02*
X2715658Y-14399832D01*
X2715658Y-14399832D02*
X2725182Y-14418880D01*
X2725182Y-14418880D02*
X2734705Y-14456975D01*
X2734705Y-14456975D02*
X2734705Y-14504594D01*
X2734705Y-14504594D02*
X2725182Y-14542689D01*
X2725182Y-14542689D02*
X2715658Y-14561737D01*
X2715658Y-14561737D02*
X2706134Y-14571261D01*
X2706134Y-14571261D02*
X2687086Y-14580785D01*
X2687086Y-14580785D02*
X2668039Y-14580785D01*
X2668039Y-14580785D02*
X2648991Y-14571261D01*
X2648991Y-14571261D02*
X2639467Y-14561737D01*
X2639467Y-14561737D02*
X2629944Y-14542689D01*
X2629944Y-14542689D02*
X2620420Y-14504594D01*
X2620420Y-14504594D02*
X2620420Y-14456975D01*
X2620420Y-14456975D02*
X2629944Y-14418880D01*
X2629944Y-14418880D02*
X2639467Y-14399832D01*
X2639467Y-14399832D02*
X2648991Y-14390309D01*
X2648991Y-14390309D02*
X2668039Y-14380785D01*
X2820420Y-14580785D02*
X2820420Y-14447451D01*
X2820420Y-14466499D02*
X2829943Y-14456975D01*
X2829943Y-14456975D02*
X2848991Y-14447451D01*
X2848991Y-14447451D02*
X2877563Y-14447451D01*
X2877563Y-14447451D02*
X2896610Y-14456975D01*
X2896610Y-14456975D02*
X2906134Y-14476023D01*
X2906134Y-14476023D02*
X2906134Y-14580785D01*
X2906134Y-14476023D02*
X2915658Y-14456975D01*
X2915658Y-14456975D02*
X2934705Y-14447451D01*
X2934705Y-14447451D02*
X2963277Y-14447451D01*
X2963277Y-14447451D02*
X2982324Y-14456975D01*
X2982324Y-14456975D02*
X2991848Y-14476023D01*
X2991848Y-14476023D02*
X2991848Y-14580785D01*
X3087086Y-14580785D02*
X3087086Y-14447451D01*
X3087086Y-14466499D02*
X3096610Y-14456975D01*
X3096610Y-14456975D02*
X3115658Y-14447451D01*
X3115658Y-14447451D02*
X3144229Y-14447451D01*
X3144229Y-14447451D02*
X3163277Y-14456975D01*
X3163277Y-14456975D02*
X3172801Y-14476023D01*
X3172801Y-14476023D02*
X3172801Y-14580785D01*
X3172801Y-14476023D02*
X3182324Y-14456975D01*
X3182324Y-14456975D02*
X3201372Y-14447451D01*
X3201372Y-14447451D02*
X3229943Y-14447451D01*
X3229943Y-14447451D02*
X3248991Y-14456975D01*
X3248991Y-14456975D02*
X3258515Y-14476023D01*
X3258515Y-14476023D02*
X3258515Y-14580785D01*
X3648991Y-14371261D02*
X3477563Y-14628404D01*
X3906134Y-14380785D02*
X3925182Y-14380785D01*
X3925182Y-14380785D02*
X3944229Y-14390309D01*
X3944229Y-14390309D02*
X3953753Y-14399832D01*
X3953753Y-14399832D02*
X3963277Y-14418880D01*
X3963277Y-14418880D02*
X3972801Y-14456975D01*
X3972801Y-14456975D02*
X3972801Y-14504594D01*
X3972801Y-14504594D02*
X3963277Y-14542689D01*
X3963277Y-14542689D02*
X3953753Y-14561737D01*
X3953753Y-14561737D02*
X3944229Y-14571261D01*
X3944229Y-14571261D02*
X3925182Y-14580785D01*
X3925182Y-14580785D02*
X3906134Y-14580785D01*
X3906134Y-14580785D02*
X3887086Y-14571261D01*
X3887086Y-14571261D02*
X3877563Y-14561737D01*
X3877563Y-14561737D02*
X3868039Y-14542689D01*
X3868039Y-14542689D02*
X3858515Y-14504594D01*
X3858515Y-14504594D02*
X3858515Y-14456975D01*
X3858515Y-14456975D02*
X3868039Y-14418880D01*
X3868039Y-14418880D02*
X3877563Y-14399832D01*
X3877563Y-14399832D02*
X3887086Y-14390309D01*
X3887086Y-14390309D02*
X3906134Y-14380785D01*
X4058515Y-14561737D02*
X4068039Y-14571261D01*
X4068039Y-14571261D02*
X4058515Y-14580785D01*
X4058515Y-14580785D02*
X4048991Y-14571261D01*
X4048991Y-14571261D02*
X4058515Y-14561737D01*
X4058515Y-14561737D02*
X4058515Y-14580785D01*
X4191848Y-14380785D02*
X4210896Y-14380785D01*
X4210896Y-14380785D02*
X4229944Y-14390309D01*
X4229944Y-14390309D02*
X4239468Y-14399832D01*
X4239468Y-14399832D02*
X4248991Y-14418880D01*
X4248991Y-14418880D02*
X4258515Y-14456975D01*
X4258515Y-14456975D02*
X4258515Y-14504594D01*
X4258515Y-14504594D02*
X4248991Y-14542689D01*
X4248991Y-14542689D02*
X4239468Y-14561737D01*
X4239468Y-14561737D02*
X4229944Y-14571261D01*
X4229944Y-14571261D02*
X4210896Y-14580785D01*
X4210896Y-14580785D02*
X4191848Y-14580785D01*
X4191848Y-14580785D02*
X4172801Y-14571261D01*
X4172801Y-14571261D02*
X4163277Y-14561737D01*
X4163277Y-14561737D02*
X4153753Y-14542689D01*
X4153753Y-14542689D02*
X4144229Y-14504594D01*
X4144229Y-14504594D02*
X4144229Y-14456975D01*
X4144229Y-14456975D02*
X4153753Y-14418880D01*
X4153753Y-14418880D02*
X4163277Y-14399832D01*
X4163277Y-14399832D02*
X4172801Y-14390309D01*
X4172801Y-14390309D02*
X4191848Y-14380785D01*
X4372801Y-14466499D02*
X4353753Y-14456975D01*
X4353753Y-14456975D02*
X4344229Y-14447451D01*
X4344229Y-14447451D02*
X4334706Y-14428404D01*
X4334706Y-14428404D02*
X4334706Y-14418880D01*
X4334706Y-14418880D02*
X4344229Y-14399832D01*
X4344229Y-14399832D02*
X4353753Y-14390309D01*
X4353753Y-14390309D02*
X4372801Y-14380785D01*
X4372801Y-14380785D02*
X4410896Y-14380785D01*
X4410896Y-14380785D02*
X4429944Y-14390309D01*
X4429944Y-14390309D02*
X4439468Y-14399832D01*
X4439468Y-14399832D02*
X4448991Y-14418880D01*
X4448991Y-14418880D02*
X4448991Y-14428404D01*
X4448991Y-14428404D02*
X4439468Y-14447451D01*
X4439468Y-14447451D02*
X4429944Y-14456975D01*
X4429944Y-14456975D02*
X4410896Y-14466499D01*
X4410896Y-14466499D02*
X4372801Y-14466499D01*
X4372801Y-14466499D02*
X4353753Y-14476023D01*
X4353753Y-14476023D02*
X4344229Y-14485547D01*
X4344229Y-14485547D02*
X4334706Y-14504594D01*
X4334706Y-14504594D02*
X4334706Y-14542689D01*
X4334706Y-14542689D02*
X4344229Y-14561737D01*
X4344229Y-14561737D02*
X4353753Y-14571261D01*
X4353753Y-14571261D02*
X4372801Y-14580785D01*
X4372801Y-14580785D02*
X4410896Y-14580785D01*
X4410896Y-14580785D02*
X4429944Y-14571261D01*
X4429944Y-14571261D02*
X4439468Y-14561737D01*
X4439468Y-14561737D02*
X4448991Y-14542689D01*
X4448991Y-14542689D02*
X4448991Y-14504594D01*
X4448991Y-14504594D02*
X4439468Y-14485547D01*
X4439468Y-14485547D02*
X4429944Y-14476023D01*
X4429944Y-14476023D02*
X4410896Y-14466499D01*
X4620420Y-14380785D02*
X4582325Y-14380785D01*
X4582325Y-14380785D02*
X4563277Y-14390309D01*
X4563277Y-14390309D02*
X4553753Y-14399832D01*
X4553753Y-14399832D02*
X4534706Y-14428404D01*
X4534706Y-14428404D02*
X4525182Y-14466499D01*
X4525182Y-14466499D02*
X4525182Y-14542689D01*
X4525182Y-14542689D02*
X4534706Y-14561737D01*
X4534706Y-14561737D02*
X4544229Y-14571261D01*
X4544229Y-14571261D02*
X4563277Y-14580785D01*
X4563277Y-14580785D02*
X4601372Y-14580785D01*
X4601372Y-14580785D02*
X4620420Y-14571261D01*
X4620420Y-14571261D02*
X4629944Y-14561737D01*
X4629944Y-14561737D02*
X4639468Y-14542689D01*
X4639468Y-14542689D02*
X4639468Y-14495070D01*
X4639468Y-14495070D02*
X4629944Y-14476023D01*
X4629944Y-14476023D02*
X4620420Y-14466499D01*
X4620420Y-14466499D02*
X4601372Y-14456975D01*
X4601372Y-14456975D02*
X4563277Y-14456975D01*
X4563277Y-14456975D02*
X4544229Y-14466499D01*
X4544229Y-14466499D02*
X4534706Y-14476023D01*
X4534706Y-14476023D02*
X4525182Y-14495070D01*
X4810896Y-14380785D02*
X4772801Y-14380785D01*
X4772801Y-14380785D02*
X4753753Y-14390309D01*
X4753753Y-14390309D02*
X4744229Y-14399832D01*
X4744229Y-14399832D02*
X4725182Y-14428404D01*
X4725182Y-14428404D02*
X4715658Y-14466499D01*
X4715658Y-14466499D02*
X4715658Y-14542689D01*
X4715658Y-14542689D02*
X4725182Y-14561737D01*
X4725182Y-14561737D02*
X4734706Y-14571261D01*
X4734706Y-14571261D02*
X4753753Y-14580785D01*
X4753753Y-14580785D02*
X4791849Y-14580785D01*
X4791849Y-14580785D02*
X4810896Y-14571261D01*
X4810896Y-14571261D02*
X4820420Y-14561737D01*
X4820420Y-14561737D02*
X4829944Y-14542689D01*
X4829944Y-14542689D02*
X4829944Y-14495070D01*
X4829944Y-14495070D02*
X4820420Y-14476023D01*
X4820420Y-14476023D02*
X4810896Y-14466499D01*
X4810896Y-14466499D02*
X4791849Y-14456975D01*
X4791849Y-14456975D02*
X4753753Y-14456975D01*
X4753753Y-14456975D02*
X4734706Y-14466499D01*
X4734706Y-14466499D02*
X4725182Y-14476023D01*
X4725182Y-14476023D02*
X4715658Y-14495070D01*
X4906134Y-14380785D02*
X4906134Y-14418880D01*
X4982325Y-14380785D02*
X4982325Y-14418880D01*
X5277563Y-14656975D02*
X5268039Y-14647451D01*
X5268039Y-14647451D02*
X5248991Y-14618880D01*
X5248991Y-14618880D02*
X5239468Y-14599832D01*
X5239468Y-14599832D02*
X5229944Y-14571261D01*
X5229944Y-14571261D02*
X5220420Y-14523642D01*
X5220420Y-14523642D02*
X5220420Y-14485547D01*
X5220420Y-14485547D02*
X5229944Y-14437928D01*
X5229944Y-14437928D02*
X5239468Y-14409356D01*
X5239468Y-14409356D02*
X5248991Y-14390309D01*
X5248991Y-14390309D02*
X5268039Y-14361737D01*
X5268039Y-14361737D02*
X5277563Y-14352213D01*
X5334706Y-14380785D02*
X5458515Y-14380785D01*
X5458515Y-14380785D02*
X5391849Y-14456975D01*
X5391849Y-14456975D02*
X5420420Y-14456975D01*
X5420420Y-14456975D02*
X5439468Y-14466499D01*
X5439468Y-14466499D02*
X5448991Y-14476023D01*
X5448991Y-14476023D02*
X5458515Y-14495070D01*
X5458515Y-14495070D02*
X5458515Y-14542689D01*
X5458515Y-14542689D02*
X5448991Y-14561737D01*
X5448991Y-14561737D02*
X5439468Y-14571261D01*
X5439468Y-14571261D02*
X5420420Y-14580785D01*
X5420420Y-14580785D02*
X5363277Y-14580785D01*
X5363277Y-14580785D02*
X5344230Y-14571261D01*
X5344230Y-14571261D02*
X5334706Y-14561737D01*
X5696610Y-14580785D02*
X5696610Y-14380785D01*
X5782325Y-14580785D02*
X5782325Y-14476023D01*
X5782325Y-14476023D02*
X5772801Y-14456975D01*
X5772801Y-14456975D02*
X5753753Y-14447451D01*
X5753753Y-14447451D02*
X5725182Y-14447451D01*
X5725182Y-14447451D02*
X5706134Y-14456975D01*
X5706134Y-14456975D02*
X5696610Y-14466499D01*
X5906134Y-14580785D02*
X5887087Y-14571261D01*
X5887087Y-14571261D02*
X5877563Y-14561737D01*
X5877563Y-14561737D02*
X5868039Y-14542689D01*
X5868039Y-14542689D02*
X5868039Y-14485547D01*
X5868039Y-14485547D02*
X5877563Y-14466499D01*
X5877563Y-14466499D02*
X5887087Y-14456975D01*
X5887087Y-14456975D02*
X5906134Y-14447451D01*
X5906134Y-14447451D02*
X5934706Y-14447451D01*
X5934706Y-14447451D02*
X5953753Y-14456975D01*
X5953753Y-14456975D02*
X5963277Y-14466499D01*
X5963277Y-14466499D02*
X5972801Y-14485547D01*
X5972801Y-14485547D02*
X5972801Y-14542689D01*
X5972801Y-14542689D02*
X5963277Y-14561737D01*
X5963277Y-14561737D02*
X5953753Y-14571261D01*
X5953753Y-14571261D02*
X5934706Y-14580785D01*
X5934706Y-14580785D02*
X5906134Y-14580785D01*
X6087087Y-14580785D02*
X6068039Y-14571261D01*
X6068039Y-14571261D02*
X6058515Y-14552213D01*
X6058515Y-14552213D02*
X6058515Y-14380785D01*
X6239468Y-14571261D02*
X6220420Y-14580785D01*
X6220420Y-14580785D02*
X6182325Y-14580785D01*
X6182325Y-14580785D02*
X6163277Y-14571261D01*
X6163277Y-14571261D02*
X6153753Y-14552213D01*
X6153753Y-14552213D02*
X6153753Y-14476023D01*
X6153753Y-14476023D02*
X6163277Y-14456975D01*
X6163277Y-14456975D02*
X6182325Y-14447451D01*
X6182325Y-14447451D02*
X6220420Y-14447451D01*
X6220420Y-14447451D02*
X6239468Y-14456975D01*
X6239468Y-14456975D02*
X6248991Y-14476023D01*
X6248991Y-14476023D02*
X6248991Y-14495070D01*
X6248991Y-14495070D02*
X6153753Y-14514118D01*
X6325182Y-14571261D02*
X6344230Y-14580785D01*
X6344230Y-14580785D02*
X6382325Y-14580785D01*
X6382325Y-14580785D02*
X6401372Y-14571261D01*
X6401372Y-14571261D02*
X6410896Y-14552213D01*
X6410896Y-14552213D02*
X6410896Y-14542689D01*
X6410896Y-14542689D02*
X6401372Y-14523642D01*
X6401372Y-14523642D02*
X6382325Y-14514118D01*
X6382325Y-14514118D02*
X6353753Y-14514118D01*
X6353753Y-14514118D02*
X6334706Y-14504594D01*
X6334706Y-14504594D02*
X6325182Y-14485547D01*
X6325182Y-14485547D02*
X6325182Y-14476023D01*
X6325182Y-14476023D02*
X6334706Y-14456975D01*
X6334706Y-14456975D02*
X6353753Y-14447451D01*
X6353753Y-14447451D02*
X6382325Y-14447451D01*
X6382325Y-14447451D02*
X6401372Y-14456975D01*
X6477563Y-14656975D02*
X6487087Y-14647451D01*
X6487087Y-14647451D02*
X6506134Y-14618880D01*
X6506134Y-14618880D02*
X6515658Y-14599832D01*
X6515658Y-14599832D02*
X6525182Y-14571261D01*
X6525182Y-14571261D02*
X6534706Y-14523642D01*
X6534706Y-14523642D02*
X6534706Y-14485547D01*
X6534706Y-14485547D02*
X6525182Y-14437928D01*
X6525182Y-14437928D02*
X6515658Y-14409356D01*
X6515658Y-14409356D02*
X6506134Y-14390309D01*
X6506134Y-14390309D02*
X6487087Y-14361737D01*
X6487087Y-14361737D02*
X6477563Y-14352213D01*
X6839468Y-14656975D02*
X6829944Y-14647451D01*
X6829944Y-14647451D02*
X6810896Y-14618880D01*
X6810896Y-14618880D02*
X6801372Y-14599832D01*
X6801372Y-14599832D02*
X6791849Y-14571261D01*
X6791849Y-14571261D02*
X6782325Y-14523642D01*
X6782325Y-14523642D02*
X6782325Y-14485547D01*
X6782325Y-14485547D02*
X6791849Y-14437928D01*
X6791849Y-14437928D02*
X6801372Y-14409356D01*
X6801372Y-14409356D02*
X6810896Y-14390309D01*
X6810896Y-14390309D02*
X6829944Y-14361737D01*
X6829944Y-14361737D02*
X6839468Y-14352213D01*
X6915658Y-14447451D02*
X6915658Y-14580785D01*
X6915658Y-14466499D02*
X6925182Y-14456975D01*
X6925182Y-14456975D02*
X6944230Y-14447451D01*
X6944230Y-14447451D02*
X6972801Y-14447451D01*
X6972801Y-14447451D02*
X6991849Y-14456975D01*
X6991849Y-14456975D02*
X7001372Y-14476023D01*
X7001372Y-14476023D02*
X7001372Y-14580785D01*
X7125182Y-14580785D02*
X7106134Y-14571261D01*
X7106134Y-14571261D02*
X7096611Y-14561737D01*
X7096611Y-14561737D02*
X7087087Y-14542689D01*
X7087087Y-14542689D02*
X7087087Y-14485547D01*
X7087087Y-14485547D02*
X7096611Y-14466499D01*
X7096611Y-14466499D02*
X7106134Y-14456975D01*
X7106134Y-14456975D02*
X7125182Y-14447451D01*
X7125182Y-14447451D02*
X7153753Y-14447451D01*
X7153753Y-14447451D02*
X7172801Y-14456975D01*
X7172801Y-14456975D02*
X7182325Y-14466499D01*
X7182325Y-14466499D02*
X7191849Y-14485547D01*
X7191849Y-14485547D02*
X7191849Y-14542689D01*
X7191849Y-14542689D02*
X7182325Y-14561737D01*
X7182325Y-14561737D02*
X7172801Y-14571261D01*
X7172801Y-14571261D02*
X7153753Y-14580785D01*
X7153753Y-14580785D02*
X7125182Y-14580785D01*
X7248992Y-14447451D02*
X7325182Y-14447451D01*
X7277563Y-14380785D02*
X7277563Y-14552213D01*
X7277563Y-14552213D02*
X7287087Y-14571261D01*
X7287087Y-14571261D02*
X7306134Y-14580785D01*
X7306134Y-14580785D02*
X7325182Y-14580785D01*
X7544230Y-14447451D02*
X7544230Y-14647451D01*
X7544230Y-14456975D02*
X7563277Y-14447451D01*
X7563277Y-14447451D02*
X7601373Y-14447451D01*
X7601373Y-14447451D02*
X7620420Y-14456975D01*
X7620420Y-14456975D02*
X7629944Y-14466499D01*
X7629944Y-14466499D02*
X7639468Y-14485547D01*
X7639468Y-14485547D02*
X7639468Y-14542689D01*
X7639468Y-14542689D02*
X7629944Y-14561737D01*
X7629944Y-14561737D02*
X7620420Y-14571261D01*
X7620420Y-14571261D02*
X7601373Y-14580785D01*
X7601373Y-14580785D02*
X7563277Y-14580785D01*
X7563277Y-14580785D02*
X7544230Y-14571261D01*
X7753753Y-14580785D02*
X7734706Y-14571261D01*
X7734706Y-14571261D02*
X7725182Y-14552213D01*
X7725182Y-14552213D02*
X7725182Y-14380785D01*
X7915658Y-14580785D02*
X7915658Y-14476023D01*
X7915658Y-14476023D02*
X7906134Y-14456975D01*
X7906134Y-14456975D02*
X7887087Y-14447451D01*
X7887087Y-14447451D02*
X7848992Y-14447451D01*
X7848992Y-14447451D02*
X7829944Y-14456975D01*
X7915658Y-14571261D02*
X7896611Y-14580785D01*
X7896611Y-14580785D02*
X7848992Y-14580785D01*
X7848992Y-14580785D02*
X7829944Y-14571261D01*
X7829944Y-14571261D02*
X7820420Y-14552213D01*
X7820420Y-14552213D02*
X7820420Y-14533166D01*
X7820420Y-14533166D02*
X7829944Y-14514118D01*
X7829944Y-14514118D02*
X7848992Y-14504594D01*
X7848992Y-14504594D02*
X7896611Y-14504594D01*
X7896611Y-14504594D02*
X7915658Y-14495070D01*
X7982325Y-14447451D02*
X8058515Y-14447451D01*
X8010896Y-14380785D02*
X8010896Y-14552213D01*
X8010896Y-14552213D02*
X8020420Y-14571261D01*
X8020420Y-14571261D02*
X8039468Y-14580785D01*
X8039468Y-14580785D02*
X8058515Y-14580785D01*
X8201373Y-14571261D02*
X8182325Y-14580785D01*
X8182325Y-14580785D02*
X8144230Y-14580785D01*
X8144230Y-14580785D02*
X8125182Y-14571261D01*
X8125182Y-14571261D02*
X8115658Y-14552213D01*
X8115658Y-14552213D02*
X8115658Y-14476023D01*
X8115658Y-14476023D02*
X8125182Y-14456975D01*
X8125182Y-14456975D02*
X8144230Y-14447451D01*
X8144230Y-14447451D02*
X8182325Y-14447451D01*
X8182325Y-14447451D02*
X8201373Y-14456975D01*
X8201373Y-14456975D02*
X8210896Y-14476023D01*
X8210896Y-14476023D02*
X8210896Y-14495070D01*
X8210896Y-14495070D02*
X8115658Y-14514118D01*
X8382325Y-14580785D02*
X8382325Y-14380785D01*
X8382325Y-14571261D02*
X8363277Y-14580785D01*
X8363277Y-14580785D02*
X8325182Y-14580785D01*
X8325182Y-14580785D02*
X8306134Y-14571261D01*
X8306134Y-14571261D02*
X8296611Y-14561737D01*
X8296611Y-14561737D02*
X8287087Y-14542689D01*
X8287087Y-14542689D02*
X8287087Y-14485547D01*
X8287087Y-14485547D02*
X8296611Y-14466499D01*
X8296611Y-14466499D02*
X8306134Y-14456975D01*
X8306134Y-14456975D02*
X8325182Y-14447451D01*
X8325182Y-14447451D02*
X8363277Y-14447451D01*
X8363277Y-14447451D02*
X8382325Y-14456975D01*
X8458516Y-14656975D02*
X8468039Y-14647451D01*
X8468039Y-14647451D02*
X8487087Y-14618880D01*
X8487087Y-14618880D02*
X8496611Y-14599832D01*
X8496611Y-14599832D02*
X8506135Y-14571261D01*
X8506135Y-14571261D02*
X8515658Y-14523642D01*
X8515658Y-14523642D02*
X8515658Y-14485547D01*
X8515658Y-14485547D02*
X8506135Y-14437928D01*
X8506135Y-14437928D02*
X8496611Y-14409356D01*
X8496611Y-14409356D02*
X8487087Y-14390309D01*
X8487087Y-14390309D02*
X8468039Y-14361737D01*
X8468039Y-14361737D02*
X8458516Y-14352213D01*
X1602500Y-14909301D02*
X1702500Y-14809301D01*
X1602500Y-14709301D01*
X1502500Y-14809301D01*
X1602500Y-14909301D01*
X1944229Y-14700785D02*
X2068039Y-14700785D01*
X2068039Y-14700785D02*
X2001372Y-14776975D01*
X2001372Y-14776975D02*
X2029943Y-14776975D01*
X2029943Y-14776975D02*
X2048991Y-14786499D01*
X2048991Y-14786499D02*
X2058515Y-14796023D01*
X2058515Y-14796023D02*
X2068039Y-14815070D01*
X2068039Y-14815070D02*
X2068039Y-14862689D01*
X2068039Y-14862689D02*
X2058515Y-14881737D01*
X2058515Y-14881737D02*
X2048991Y-14891261D01*
X2048991Y-14891261D02*
X2029943Y-14900785D01*
X2029943Y-14900785D02*
X1972801Y-14900785D01*
X1972801Y-14900785D02*
X1953753Y-14891261D01*
X1953753Y-14891261D02*
X1944229Y-14881737D01*
X2153753Y-14881737D02*
X2163277Y-14891261D01*
X2163277Y-14891261D02*
X2153753Y-14900785D01*
X2153753Y-14900785D02*
X2144229Y-14891261D01*
X2144229Y-14891261D02*
X2153753Y-14881737D01*
X2153753Y-14881737D02*
X2153753Y-14900785D01*
X2287086Y-14700785D02*
X2306134Y-14700785D01*
X2306134Y-14700785D02*
X2325182Y-14710309D01*
X2325182Y-14710309D02*
X2334705Y-14719832D01*
X2334705Y-14719832D02*
X2344229Y-14738880D01*
X2344229Y-14738880D02*
X2353753Y-14776975D01*
X2353753Y-14776975D02*
X2353753Y-14824594D01*
X2353753Y-14824594D02*
X2344229Y-14862689D01*
X2344229Y-14862689D02*
X2334705Y-14881737D01*
X2334705Y-14881737D02*
X2325182Y-14891261D01*
X2325182Y-14891261D02*
X2306134Y-14900785D01*
X2306134Y-14900785D02*
X2287086Y-14900785D01*
X2287086Y-14900785D02*
X2268039Y-14891261D01*
X2268039Y-14891261D02*
X2258515Y-14881737D01*
X2258515Y-14881737D02*
X2248991Y-14862689D01*
X2248991Y-14862689D02*
X2239467Y-14824594D01*
X2239467Y-14824594D02*
X2239467Y-14776975D01*
X2239467Y-14776975D02*
X2248991Y-14738880D01*
X2248991Y-14738880D02*
X2258515Y-14719832D01*
X2258515Y-14719832D02*
X2268039Y-14710309D01*
X2268039Y-14710309D02*
X2287086Y-14700785D01*
X2477563Y-14700785D02*
X2496610Y-14700785D01*
X2496610Y-14700785D02*
X2515658Y-14710309D01*
X2515658Y-14710309D02*
X2525182Y-14719832D01*
X2525182Y-14719832D02*
X2534705Y-14738880D01*
X2534705Y-14738880D02*
X2544229Y-14776975D01*
X2544229Y-14776975D02*
X2544229Y-14824594D01*
X2544229Y-14824594D02*
X2534705Y-14862689D01*
X2534705Y-14862689D02*
X2525182Y-14881737D01*
X2525182Y-14881737D02*
X2515658Y-14891261D01*
X2515658Y-14891261D02*
X2496610Y-14900785D01*
X2496610Y-14900785D02*
X2477563Y-14900785D01*
X2477563Y-14900785D02*
X2458515Y-14891261D01*
X2458515Y-14891261D02*
X2448991Y-14881737D01*
X2448991Y-14881737D02*
X2439467Y-14862689D01*
X2439467Y-14862689D02*
X2429944Y-14824594D01*
X2429944Y-14824594D02*
X2429944Y-14776975D01*
X2429944Y-14776975D02*
X2439467Y-14738880D01*
X2439467Y-14738880D02*
X2448991Y-14719832D01*
X2448991Y-14719832D02*
X2458515Y-14710309D01*
X2458515Y-14710309D02*
X2477563Y-14700785D01*
X2668039Y-14700785D02*
X2687086Y-14700785D01*
X2687086Y-14700785D02*
X2706134Y-14710309D01*
X2706134Y-14710309D02*
X2715658Y-14719832D01*
X2715658Y-14719832D02*
X2725182Y-14738880D01*
X2725182Y-14738880D02*
X2734705Y-14776975D01*
X2734705Y-14776975D02*
X2734705Y-14824594D01*
X2734705Y-14824594D02*
X2725182Y-14862689D01*
X2725182Y-14862689D02*
X2715658Y-14881737D01*
X2715658Y-14881737D02*
X2706134Y-14891261D01*
X2706134Y-14891261D02*
X2687086Y-14900785D01*
X2687086Y-14900785D02*
X2668039Y-14900785D01*
X2668039Y-14900785D02*
X2648991Y-14891261D01*
X2648991Y-14891261D02*
X2639467Y-14881737D01*
X2639467Y-14881737D02*
X2629944Y-14862689D01*
X2629944Y-14862689D02*
X2620420Y-14824594D01*
X2620420Y-14824594D02*
X2620420Y-14776975D01*
X2620420Y-14776975D02*
X2629944Y-14738880D01*
X2629944Y-14738880D02*
X2639467Y-14719832D01*
X2639467Y-14719832D02*
X2648991Y-14710309D01*
X2648991Y-14710309D02*
X2668039Y-14700785D01*
X2820420Y-14900785D02*
X2820420Y-14767451D01*
X2820420Y-14786499D02*
X2829943Y-14776975D01*
X2829943Y-14776975D02*
X2848991Y-14767451D01*
X2848991Y-14767451D02*
X2877563Y-14767451D01*
X2877563Y-14767451D02*
X2896610Y-14776975D01*
X2896610Y-14776975D02*
X2906134Y-14796023D01*
X2906134Y-14796023D02*
X2906134Y-14900785D01*
X2906134Y-14796023D02*
X2915658Y-14776975D01*
X2915658Y-14776975D02*
X2934705Y-14767451D01*
X2934705Y-14767451D02*
X2963277Y-14767451D01*
X2963277Y-14767451D02*
X2982324Y-14776975D01*
X2982324Y-14776975D02*
X2991848Y-14796023D01*
X2991848Y-14796023D02*
X2991848Y-14900785D01*
X3087086Y-14900785D02*
X3087086Y-14767451D01*
X3087086Y-14786499D02*
X3096610Y-14776975D01*
X3096610Y-14776975D02*
X3115658Y-14767451D01*
X3115658Y-14767451D02*
X3144229Y-14767451D01*
X3144229Y-14767451D02*
X3163277Y-14776975D01*
X3163277Y-14776975D02*
X3172801Y-14796023D01*
X3172801Y-14796023D02*
X3172801Y-14900785D01*
X3172801Y-14796023D02*
X3182324Y-14776975D01*
X3182324Y-14776975D02*
X3201372Y-14767451D01*
X3201372Y-14767451D02*
X3229943Y-14767451D01*
X3229943Y-14767451D02*
X3248991Y-14776975D01*
X3248991Y-14776975D02*
X3258515Y-14796023D01*
X3258515Y-14796023D02*
X3258515Y-14900785D01*
X3648991Y-14691261D02*
X3477563Y-14948404D01*
X3906134Y-14700785D02*
X3925182Y-14700785D01*
X3925182Y-14700785D02*
X3944229Y-14710309D01*
X3944229Y-14710309D02*
X3953753Y-14719832D01*
X3953753Y-14719832D02*
X3963277Y-14738880D01*
X3963277Y-14738880D02*
X3972801Y-14776975D01*
X3972801Y-14776975D02*
X3972801Y-14824594D01*
X3972801Y-14824594D02*
X3963277Y-14862689D01*
X3963277Y-14862689D02*
X3953753Y-14881737D01*
X3953753Y-14881737D02*
X3944229Y-14891261D01*
X3944229Y-14891261D02*
X3925182Y-14900785D01*
X3925182Y-14900785D02*
X3906134Y-14900785D01*
X3906134Y-14900785D02*
X3887086Y-14891261D01*
X3887086Y-14891261D02*
X3877563Y-14881737D01*
X3877563Y-14881737D02*
X3868039Y-14862689D01*
X3868039Y-14862689D02*
X3858515Y-14824594D01*
X3858515Y-14824594D02*
X3858515Y-14776975D01*
X3858515Y-14776975D02*
X3868039Y-14738880D01*
X3868039Y-14738880D02*
X3877563Y-14719832D01*
X3877563Y-14719832D02*
X3887086Y-14710309D01*
X3887086Y-14710309D02*
X3906134Y-14700785D01*
X4058515Y-14881737D02*
X4068039Y-14891261D01*
X4068039Y-14891261D02*
X4058515Y-14900785D01*
X4058515Y-14900785D02*
X4048991Y-14891261D01*
X4048991Y-14891261D02*
X4058515Y-14881737D01*
X4058515Y-14881737D02*
X4058515Y-14900785D01*
X4258515Y-14900785D02*
X4144229Y-14900785D01*
X4201372Y-14900785D02*
X4201372Y-14700785D01*
X4201372Y-14700785D02*
X4182325Y-14729356D01*
X4182325Y-14729356D02*
X4163277Y-14748404D01*
X4163277Y-14748404D02*
X4144229Y-14757928D01*
X4448991Y-14900785D02*
X4334706Y-14900785D01*
X4391848Y-14900785D02*
X4391848Y-14700785D01*
X4391848Y-14700785D02*
X4372801Y-14729356D01*
X4372801Y-14729356D02*
X4353753Y-14748404D01*
X4353753Y-14748404D02*
X4334706Y-14757928D01*
X4563277Y-14786499D02*
X4544229Y-14776975D01*
X4544229Y-14776975D02*
X4534706Y-14767451D01*
X4534706Y-14767451D02*
X4525182Y-14748404D01*
X4525182Y-14748404D02*
X4525182Y-14738880D01*
X4525182Y-14738880D02*
X4534706Y-14719832D01*
X4534706Y-14719832D02*
X4544229Y-14710309D01*
X4544229Y-14710309D02*
X4563277Y-14700785D01*
X4563277Y-14700785D02*
X4601372Y-14700785D01*
X4601372Y-14700785D02*
X4620420Y-14710309D01*
X4620420Y-14710309D02*
X4629944Y-14719832D01*
X4629944Y-14719832D02*
X4639468Y-14738880D01*
X4639468Y-14738880D02*
X4639468Y-14748404D01*
X4639468Y-14748404D02*
X4629944Y-14767451D01*
X4629944Y-14767451D02*
X4620420Y-14776975D01*
X4620420Y-14776975D02*
X4601372Y-14786499D01*
X4601372Y-14786499D02*
X4563277Y-14786499D01*
X4563277Y-14786499D02*
X4544229Y-14796023D01*
X4544229Y-14796023D02*
X4534706Y-14805547D01*
X4534706Y-14805547D02*
X4525182Y-14824594D01*
X4525182Y-14824594D02*
X4525182Y-14862689D01*
X4525182Y-14862689D02*
X4534706Y-14881737D01*
X4534706Y-14881737D02*
X4544229Y-14891261D01*
X4544229Y-14891261D02*
X4563277Y-14900785D01*
X4563277Y-14900785D02*
X4601372Y-14900785D01*
X4601372Y-14900785D02*
X4620420Y-14891261D01*
X4620420Y-14891261D02*
X4629944Y-14881737D01*
X4629944Y-14881737D02*
X4639468Y-14862689D01*
X4639468Y-14862689D02*
X4639468Y-14824594D01*
X4639468Y-14824594D02*
X4629944Y-14805547D01*
X4629944Y-14805547D02*
X4620420Y-14796023D01*
X4620420Y-14796023D02*
X4601372Y-14786499D01*
X4829944Y-14900785D02*
X4715658Y-14900785D01*
X4772801Y-14900785D02*
X4772801Y-14700785D01*
X4772801Y-14700785D02*
X4753753Y-14729356D01*
X4753753Y-14729356D02*
X4734706Y-14748404D01*
X4734706Y-14748404D02*
X4715658Y-14757928D01*
X4906134Y-14700785D02*
X4906134Y-14738880D01*
X4982325Y-14700785D02*
X4982325Y-14738880D01*
X5277563Y-14976975D02*
X5268039Y-14967451D01*
X5268039Y-14967451D02*
X5248991Y-14938880D01*
X5248991Y-14938880D02*
X5239468Y-14919832D01*
X5239468Y-14919832D02*
X5229944Y-14891261D01*
X5229944Y-14891261D02*
X5220420Y-14843642D01*
X5220420Y-14843642D02*
X5220420Y-14805547D01*
X5220420Y-14805547D02*
X5229944Y-14757928D01*
X5229944Y-14757928D02*
X5239468Y-14729356D01*
X5239468Y-14729356D02*
X5248991Y-14710309D01*
X5248991Y-14710309D02*
X5268039Y-14681737D01*
X5268039Y-14681737D02*
X5277563Y-14672213D01*
X5439468Y-14700785D02*
X5401372Y-14700785D01*
X5401372Y-14700785D02*
X5382325Y-14710309D01*
X5382325Y-14710309D02*
X5372801Y-14719832D01*
X5372801Y-14719832D02*
X5353753Y-14748404D01*
X5353753Y-14748404D02*
X5344230Y-14786499D01*
X5344230Y-14786499D02*
X5344230Y-14862689D01*
X5344230Y-14862689D02*
X5353753Y-14881737D01*
X5353753Y-14881737D02*
X5363277Y-14891261D01*
X5363277Y-14891261D02*
X5382325Y-14900785D01*
X5382325Y-14900785D02*
X5420420Y-14900785D01*
X5420420Y-14900785D02*
X5439468Y-14891261D01*
X5439468Y-14891261D02*
X5448991Y-14881737D01*
X5448991Y-14881737D02*
X5458515Y-14862689D01*
X5458515Y-14862689D02*
X5458515Y-14815070D01*
X5458515Y-14815070D02*
X5448991Y-14796023D01*
X5448991Y-14796023D02*
X5439468Y-14786499D01*
X5439468Y-14786499D02*
X5420420Y-14776975D01*
X5420420Y-14776975D02*
X5382325Y-14776975D01*
X5382325Y-14776975D02*
X5363277Y-14786499D01*
X5363277Y-14786499D02*
X5353753Y-14796023D01*
X5353753Y-14796023D02*
X5344230Y-14815070D01*
X5629944Y-14767451D02*
X5629944Y-14900785D01*
X5582325Y-14691261D02*
X5534706Y-14834118D01*
X5534706Y-14834118D02*
X5658515Y-14834118D01*
X5887087Y-14900785D02*
X5887087Y-14700785D01*
X5972801Y-14900785D02*
X5972801Y-14796023D01*
X5972801Y-14796023D02*
X5963277Y-14776975D01*
X5963277Y-14776975D02*
X5944230Y-14767451D01*
X5944230Y-14767451D02*
X5915658Y-14767451D01*
X5915658Y-14767451D02*
X5896610Y-14776975D01*
X5896610Y-14776975D02*
X5887087Y-14786499D01*
X6096610Y-14900785D02*
X6077563Y-14891261D01*
X6077563Y-14891261D02*
X6068039Y-14881737D01*
X6068039Y-14881737D02*
X6058515Y-14862689D01*
X6058515Y-14862689D02*
X6058515Y-14805547D01*
X6058515Y-14805547D02*
X6068039Y-14786499D01*
X6068039Y-14786499D02*
X6077563Y-14776975D01*
X6077563Y-14776975D02*
X6096610Y-14767451D01*
X6096610Y-14767451D02*
X6125182Y-14767451D01*
X6125182Y-14767451D02*
X6144230Y-14776975D01*
X6144230Y-14776975D02*
X6153753Y-14786499D01*
X6153753Y-14786499D02*
X6163277Y-14805547D01*
X6163277Y-14805547D02*
X6163277Y-14862689D01*
X6163277Y-14862689D02*
X6153753Y-14881737D01*
X6153753Y-14881737D02*
X6144230Y-14891261D01*
X6144230Y-14891261D02*
X6125182Y-14900785D01*
X6125182Y-14900785D02*
X6096610Y-14900785D01*
X6277563Y-14900785D02*
X6258515Y-14891261D01*
X6258515Y-14891261D02*
X6248991Y-14872213D01*
X6248991Y-14872213D02*
X6248991Y-14700785D01*
X6429944Y-14891261D02*
X6410896Y-14900785D01*
X6410896Y-14900785D02*
X6372801Y-14900785D01*
X6372801Y-14900785D02*
X6353753Y-14891261D01*
X6353753Y-14891261D02*
X6344230Y-14872213D01*
X6344230Y-14872213D02*
X6344230Y-14796023D01*
X6344230Y-14796023D02*
X6353753Y-14776975D01*
X6353753Y-14776975D02*
X6372801Y-14767451D01*
X6372801Y-14767451D02*
X6410896Y-14767451D01*
X6410896Y-14767451D02*
X6429944Y-14776975D01*
X6429944Y-14776975D02*
X6439468Y-14796023D01*
X6439468Y-14796023D02*
X6439468Y-14815070D01*
X6439468Y-14815070D02*
X6344230Y-14834118D01*
X6515658Y-14891261D02*
X6534706Y-14900785D01*
X6534706Y-14900785D02*
X6572801Y-14900785D01*
X6572801Y-14900785D02*
X6591849Y-14891261D01*
X6591849Y-14891261D02*
X6601372Y-14872213D01*
X6601372Y-14872213D02*
X6601372Y-14862689D01*
X6601372Y-14862689D02*
X6591849Y-14843642D01*
X6591849Y-14843642D02*
X6572801Y-14834118D01*
X6572801Y-14834118D02*
X6544230Y-14834118D01*
X6544230Y-14834118D02*
X6525182Y-14824594D01*
X6525182Y-14824594D02*
X6515658Y-14805547D01*
X6515658Y-14805547D02*
X6515658Y-14796023D01*
X6515658Y-14796023D02*
X6525182Y-14776975D01*
X6525182Y-14776975D02*
X6544230Y-14767451D01*
X6544230Y-14767451D02*
X6572801Y-14767451D01*
X6572801Y-14767451D02*
X6591849Y-14776975D01*
X6668039Y-14976975D02*
X6677563Y-14967451D01*
X6677563Y-14967451D02*
X6696611Y-14938880D01*
X6696611Y-14938880D02*
X6706134Y-14919832D01*
X6706134Y-14919832D02*
X6715658Y-14891261D01*
X6715658Y-14891261D02*
X6725182Y-14843642D01*
X6725182Y-14843642D02*
X6725182Y-14805547D01*
X6725182Y-14805547D02*
X6715658Y-14757928D01*
X6715658Y-14757928D02*
X6706134Y-14729356D01*
X6706134Y-14729356D02*
X6696611Y-14710309D01*
X6696611Y-14710309D02*
X6677563Y-14681737D01*
X6677563Y-14681737D02*
X6668039Y-14672213D01*
X7029944Y-14976975D02*
X7020420Y-14967451D01*
X7020420Y-14967451D02*
X7001372Y-14938880D01*
X7001372Y-14938880D02*
X6991849Y-14919832D01*
X6991849Y-14919832D02*
X6982325Y-14891261D01*
X6982325Y-14891261D02*
X6972801Y-14843642D01*
X6972801Y-14843642D02*
X6972801Y-14805547D01*
X6972801Y-14805547D02*
X6982325Y-14757928D01*
X6982325Y-14757928D02*
X6991849Y-14729356D01*
X6991849Y-14729356D02*
X7001372Y-14710309D01*
X7001372Y-14710309D02*
X7020420Y-14681737D01*
X7020420Y-14681737D02*
X7029944Y-14672213D01*
X7106134Y-14767451D02*
X7106134Y-14900785D01*
X7106134Y-14786499D02*
X7115658Y-14776975D01*
X7115658Y-14776975D02*
X7134706Y-14767451D01*
X7134706Y-14767451D02*
X7163277Y-14767451D01*
X7163277Y-14767451D02*
X7182325Y-14776975D01*
X7182325Y-14776975D02*
X7191849Y-14796023D01*
X7191849Y-14796023D02*
X7191849Y-14900785D01*
X7315658Y-14900785D02*
X7296611Y-14891261D01*
X7296611Y-14891261D02*
X7287087Y-14881737D01*
X7287087Y-14881737D02*
X7277563Y-14862689D01*
X7277563Y-14862689D02*
X7277563Y-14805547D01*
X7277563Y-14805547D02*
X7287087Y-14786499D01*
X7287087Y-14786499D02*
X7296611Y-14776975D01*
X7296611Y-14776975D02*
X7315658Y-14767451D01*
X7315658Y-14767451D02*
X7344230Y-14767451D01*
X7344230Y-14767451D02*
X7363277Y-14776975D01*
X7363277Y-14776975D02*
X7372801Y-14786499D01*
X7372801Y-14786499D02*
X7382325Y-14805547D01*
X7382325Y-14805547D02*
X7382325Y-14862689D01*
X7382325Y-14862689D02*
X7372801Y-14881737D01*
X7372801Y-14881737D02*
X7363277Y-14891261D01*
X7363277Y-14891261D02*
X7344230Y-14900785D01*
X7344230Y-14900785D02*
X7315658Y-14900785D01*
X7439468Y-14767451D02*
X7515658Y-14767451D01*
X7468039Y-14700785D02*
X7468039Y-14872213D01*
X7468039Y-14872213D02*
X7477563Y-14891261D01*
X7477563Y-14891261D02*
X7496611Y-14900785D01*
X7496611Y-14900785D02*
X7515658Y-14900785D01*
X7734706Y-14767451D02*
X7734706Y-14967451D01*
X7734706Y-14776975D02*
X7753753Y-14767451D01*
X7753753Y-14767451D02*
X7791849Y-14767451D01*
X7791849Y-14767451D02*
X7810896Y-14776975D01*
X7810896Y-14776975D02*
X7820420Y-14786499D01*
X7820420Y-14786499D02*
X7829944Y-14805547D01*
X7829944Y-14805547D02*
X7829944Y-14862689D01*
X7829944Y-14862689D02*
X7820420Y-14881737D01*
X7820420Y-14881737D02*
X7810896Y-14891261D01*
X7810896Y-14891261D02*
X7791849Y-14900785D01*
X7791849Y-14900785D02*
X7753753Y-14900785D01*
X7753753Y-14900785D02*
X7734706Y-14891261D01*
X7944230Y-14900785D02*
X7925182Y-14891261D01*
X7925182Y-14891261D02*
X7915658Y-14872213D01*
X7915658Y-14872213D02*
X7915658Y-14700785D01*
X8106134Y-14900785D02*
X8106134Y-14796023D01*
X8106134Y-14796023D02*
X8096611Y-14776975D01*
X8096611Y-14776975D02*
X8077563Y-14767451D01*
X8077563Y-14767451D02*
X8039468Y-14767451D01*
X8039468Y-14767451D02*
X8020420Y-14776975D01*
X8106134Y-14891261D02*
X8087087Y-14900785D01*
X8087087Y-14900785D02*
X8039468Y-14900785D01*
X8039468Y-14900785D02*
X8020420Y-14891261D01*
X8020420Y-14891261D02*
X8010896Y-14872213D01*
X8010896Y-14872213D02*
X8010896Y-14853166D01*
X8010896Y-14853166D02*
X8020420Y-14834118D01*
X8020420Y-14834118D02*
X8039468Y-14824594D01*
X8039468Y-14824594D02*
X8087087Y-14824594D01*
X8087087Y-14824594D02*
X8106134Y-14815070D01*
X8172801Y-14767451D02*
X8248992Y-14767451D01*
X8201373Y-14700785D02*
X8201373Y-14872213D01*
X8201373Y-14872213D02*
X8210896Y-14891261D01*
X8210896Y-14891261D02*
X8229944Y-14900785D01*
X8229944Y-14900785D02*
X8248992Y-14900785D01*
X8391849Y-14891261D02*
X8372801Y-14900785D01*
X8372801Y-14900785D02*
X8334706Y-14900785D01*
X8334706Y-14900785D02*
X8315658Y-14891261D01*
X8315658Y-14891261D02*
X8306134Y-14872213D01*
X8306134Y-14872213D02*
X8306134Y-14796023D01*
X8306134Y-14796023D02*
X8315658Y-14776975D01*
X8315658Y-14776975D02*
X8334706Y-14767451D01*
X8334706Y-14767451D02*
X8372801Y-14767451D01*
X8372801Y-14767451D02*
X8391849Y-14776975D01*
X8391849Y-14776975D02*
X8401373Y-14796023D01*
X8401373Y-14796023D02*
X8401373Y-14815070D01*
X8401373Y-14815070D02*
X8306134Y-14834118D01*
X8572801Y-14900785D02*
X8572801Y-14700785D01*
X8572801Y-14891261D02*
X8553754Y-14900785D01*
X8553754Y-14900785D02*
X8515658Y-14900785D01*
X8515658Y-14900785D02*
X8496611Y-14891261D01*
X8496611Y-14891261D02*
X8487087Y-14881737D01*
X8487087Y-14881737D02*
X8477563Y-14862689D01*
X8477563Y-14862689D02*
X8477563Y-14805547D01*
X8477563Y-14805547D02*
X8487087Y-14786499D01*
X8487087Y-14786499D02*
X8496611Y-14776975D01*
X8496611Y-14776975D02*
X8515658Y-14767451D01*
X8515658Y-14767451D02*
X8553754Y-14767451D01*
X8553754Y-14767451D02*
X8572801Y-14776975D01*
X8648992Y-14976975D02*
X8658516Y-14967451D01*
X8658516Y-14967451D02*
X8677563Y-14938880D01*
X8677563Y-14938880D02*
X8687087Y-14919832D01*
X8687087Y-14919832D02*
X8696611Y-14891261D01*
X8696611Y-14891261D02*
X8706135Y-14843642D01*
X8706135Y-14843642D02*
X8706135Y-14805547D01*
X8706135Y-14805547D02*
X8696611Y-14757928D01*
X8696611Y-14757928D02*
X8687087Y-14729356D01*
X8687087Y-14729356D02*
X8677563Y-14710309D01*
X8677563Y-14710309D02*
X8658516Y-14681737D01*
X8658516Y-14681737D02*
X8648992Y-14672213D01*
X1502500Y-15029301D02*
X1702500Y-15229301D01*
X1702500Y-15029301D02*
X1502500Y-15229301D01*
X1702500Y-15129301D02*
G75*
G02*
X1502500Y-15129301I-100000J0D01*
G01*
X1502500Y-15129301D02*
G75*
G02*
X1702500Y-15129301I100000J0D01*
G01*
X1944229Y-15020785D02*
X2068039Y-15020785D01*
X2068039Y-15020785D02*
X2001372Y-15096975D01*
X2001372Y-15096975D02*
X2029943Y-15096975D01*
X2029943Y-15096975D02*
X2048991Y-15106499D01*
X2048991Y-15106499D02*
X2058515Y-15116023D01*
X2058515Y-15116023D02*
X2068039Y-15135070D01*
X2068039Y-15135070D02*
X2068039Y-15182689D01*
X2068039Y-15182689D02*
X2058515Y-15201737D01*
X2058515Y-15201737D02*
X2048991Y-15211261D01*
X2048991Y-15211261D02*
X2029943Y-15220785D01*
X2029943Y-15220785D02*
X1972801Y-15220785D01*
X1972801Y-15220785D02*
X1953753Y-15211261D01*
X1953753Y-15211261D02*
X1944229Y-15201737D01*
X2153753Y-15201737D02*
X2163277Y-15211261D01*
X2163277Y-15211261D02*
X2153753Y-15220785D01*
X2153753Y-15220785D02*
X2144229Y-15211261D01*
X2144229Y-15211261D02*
X2153753Y-15201737D01*
X2153753Y-15201737D02*
X2153753Y-15220785D01*
X2287086Y-15020785D02*
X2306134Y-15020785D01*
X2306134Y-15020785D02*
X2325182Y-15030309D01*
X2325182Y-15030309D02*
X2334705Y-15039832D01*
X2334705Y-15039832D02*
X2344229Y-15058880D01*
X2344229Y-15058880D02*
X2353753Y-15096975D01*
X2353753Y-15096975D02*
X2353753Y-15144594D01*
X2353753Y-15144594D02*
X2344229Y-15182689D01*
X2344229Y-15182689D02*
X2334705Y-15201737D01*
X2334705Y-15201737D02*
X2325182Y-15211261D01*
X2325182Y-15211261D02*
X2306134Y-15220785D01*
X2306134Y-15220785D02*
X2287086Y-15220785D01*
X2287086Y-15220785D02*
X2268039Y-15211261D01*
X2268039Y-15211261D02*
X2258515Y-15201737D01*
X2258515Y-15201737D02*
X2248991Y-15182689D01*
X2248991Y-15182689D02*
X2239467Y-15144594D01*
X2239467Y-15144594D02*
X2239467Y-15096975D01*
X2239467Y-15096975D02*
X2248991Y-15058880D01*
X2248991Y-15058880D02*
X2258515Y-15039832D01*
X2258515Y-15039832D02*
X2268039Y-15030309D01*
X2268039Y-15030309D02*
X2287086Y-15020785D01*
X2534705Y-15020785D02*
X2439467Y-15020785D01*
X2439467Y-15020785D02*
X2429944Y-15116023D01*
X2429944Y-15116023D02*
X2439467Y-15106499D01*
X2439467Y-15106499D02*
X2458515Y-15096975D01*
X2458515Y-15096975D02*
X2506134Y-15096975D01*
X2506134Y-15096975D02*
X2525182Y-15106499D01*
X2525182Y-15106499D02*
X2534705Y-15116023D01*
X2534705Y-15116023D02*
X2544229Y-15135070D01*
X2544229Y-15135070D02*
X2544229Y-15182689D01*
X2544229Y-15182689D02*
X2534705Y-15201737D01*
X2534705Y-15201737D02*
X2525182Y-15211261D01*
X2525182Y-15211261D02*
X2506134Y-15220785D01*
X2506134Y-15220785D02*
X2458515Y-15220785D01*
X2458515Y-15220785D02*
X2439467Y-15211261D01*
X2439467Y-15211261D02*
X2429944Y-15201737D01*
X2668039Y-15020785D02*
X2687086Y-15020785D01*
X2687086Y-15020785D02*
X2706134Y-15030309D01*
X2706134Y-15030309D02*
X2715658Y-15039832D01*
X2715658Y-15039832D02*
X2725182Y-15058880D01*
X2725182Y-15058880D02*
X2734705Y-15096975D01*
X2734705Y-15096975D02*
X2734705Y-15144594D01*
X2734705Y-15144594D02*
X2725182Y-15182689D01*
X2725182Y-15182689D02*
X2715658Y-15201737D01*
X2715658Y-15201737D02*
X2706134Y-15211261D01*
X2706134Y-15211261D02*
X2687086Y-15220785D01*
X2687086Y-15220785D02*
X2668039Y-15220785D01*
X2668039Y-15220785D02*
X2648991Y-15211261D01*
X2648991Y-15211261D02*
X2639467Y-15201737D01*
X2639467Y-15201737D02*
X2629944Y-15182689D01*
X2629944Y-15182689D02*
X2620420Y-15144594D01*
X2620420Y-15144594D02*
X2620420Y-15096975D01*
X2620420Y-15096975D02*
X2629944Y-15058880D01*
X2629944Y-15058880D02*
X2639467Y-15039832D01*
X2639467Y-15039832D02*
X2648991Y-15030309D01*
X2648991Y-15030309D02*
X2668039Y-15020785D01*
X2820420Y-15220785D02*
X2820420Y-15087451D01*
X2820420Y-15106499D02*
X2829943Y-15096975D01*
X2829943Y-15096975D02*
X2848991Y-15087451D01*
X2848991Y-15087451D02*
X2877563Y-15087451D01*
X2877563Y-15087451D02*
X2896610Y-15096975D01*
X2896610Y-15096975D02*
X2906134Y-15116023D01*
X2906134Y-15116023D02*
X2906134Y-15220785D01*
X2906134Y-15116023D02*
X2915658Y-15096975D01*
X2915658Y-15096975D02*
X2934705Y-15087451D01*
X2934705Y-15087451D02*
X2963277Y-15087451D01*
X2963277Y-15087451D02*
X2982324Y-15096975D01*
X2982324Y-15096975D02*
X2991848Y-15116023D01*
X2991848Y-15116023D02*
X2991848Y-15220785D01*
X3087086Y-15220785D02*
X3087086Y-15087451D01*
X3087086Y-15106499D02*
X3096610Y-15096975D01*
X3096610Y-15096975D02*
X3115658Y-15087451D01*
X3115658Y-15087451D02*
X3144229Y-15087451D01*
X3144229Y-15087451D02*
X3163277Y-15096975D01*
X3163277Y-15096975D02*
X3172801Y-15116023D01*
X3172801Y-15116023D02*
X3172801Y-15220785D01*
X3172801Y-15116023D02*
X3182324Y-15096975D01*
X3182324Y-15096975D02*
X3201372Y-15087451D01*
X3201372Y-15087451D02*
X3229943Y-15087451D01*
X3229943Y-15087451D02*
X3248991Y-15096975D01*
X3248991Y-15096975D02*
X3258515Y-15116023D01*
X3258515Y-15116023D02*
X3258515Y-15220785D01*
X3648991Y-15011261D02*
X3477563Y-15268404D01*
X3906134Y-15020785D02*
X3925182Y-15020785D01*
X3925182Y-15020785D02*
X3944229Y-15030309D01*
X3944229Y-15030309D02*
X3953753Y-15039832D01*
X3953753Y-15039832D02*
X3963277Y-15058880D01*
X3963277Y-15058880D02*
X3972801Y-15096975D01*
X3972801Y-15096975D02*
X3972801Y-15144594D01*
X3972801Y-15144594D02*
X3963277Y-15182689D01*
X3963277Y-15182689D02*
X3953753Y-15201737D01*
X3953753Y-15201737D02*
X3944229Y-15211261D01*
X3944229Y-15211261D02*
X3925182Y-15220785D01*
X3925182Y-15220785D02*
X3906134Y-15220785D01*
X3906134Y-15220785D02*
X3887086Y-15211261D01*
X3887086Y-15211261D02*
X3877563Y-15201737D01*
X3877563Y-15201737D02*
X3868039Y-15182689D01*
X3868039Y-15182689D02*
X3858515Y-15144594D01*
X3858515Y-15144594D02*
X3858515Y-15096975D01*
X3858515Y-15096975D02*
X3868039Y-15058880D01*
X3868039Y-15058880D02*
X3877563Y-15039832D01*
X3877563Y-15039832D02*
X3887086Y-15030309D01*
X3887086Y-15030309D02*
X3906134Y-15020785D01*
X4058515Y-15201737D02*
X4068039Y-15211261D01*
X4068039Y-15211261D02*
X4058515Y-15220785D01*
X4058515Y-15220785D02*
X4048991Y-15211261D01*
X4048991Y-15211261D02*
X4058515Y-15201737D01*
X4058515Y-15201737D02*
X4058515Y-15220785D01*
X4258515Y-15220785D02*
X4144229Y-15220785D01*
X4201372Y-15220785D02*
X4201372Y-15020785D01*
X4201372Y-15020785D02*
X4182325Y-15049356D01*
X4182325Y-15049356D02*
X4163277Y-15068404D01*
X4163277Y-15068404D02*
X4144229Y-15077928D01*
X4334706Y-15039832D02*
X4344229Y-15030309D01*
X4344229Y-15030309D02*
X4363277Y-15020785D01*
X4363277Y-15020785D02*
X4410896Y-15020785D01*
X4410896Y-15020785D02*
X4429944Y-15030309D01*
X4429944Y-15030309D02*
X4439468Y-15039832D01*
X4439468Y-15039832D02*
X4448991Y-15058880D01*
X4448991Y-15058880D02*
X4448991Y-15077928D01*
X4448991Y-15077928D02*
X4439468Y-15106499D01*
X4439468Y-15106499D02*
X4325182Y-15220785D01*
X4325182Y-15220785D02*
X4448991Y-15220785D01*
X4572801Y-15020785D02*
X4591849Y-15020785D01*
X4591849Y-15020785D02*
X4610896Y-15030309D01*
X4610896Y-15030309D02*
X4620420Y-15039832D01*
X4620420Y-15039832D02*
X4629944Y-15058880D01*
X4629944Y-15058880D02*
X4639468Y-15096975D01*
X4639468Y-15096975D02*
X4639468Y-15144594D01*
X4639468Y-15144594D02*
X4629944Y-15182689D01*
X4629944Y-15182689D02*
X4620420Y-15201737D01*
X4620420Y-15201737D02*
X4610896Y-15211261D01*
X4610896Y-15211261D02*
X4591849Y-15220785D01*
X4591849Y-15220785D02*
X4572801Y-15220785D01*
X4572801Y-15220785D02*
X4553753Y-15211261D01*
X4553753Y-15211261D02*
X4544229Y-15201737D01*
X4544229Y-15201737D02*
X4534706Y-15182689D01*
X4534706Y-15182689D02*
X4525182Y-15144594D01*
X4525182Y-15144594D02*
X4525182Y-15096975D01*
X4525182Y-15096975D02*
X4534706Y-15058880D01*
X4534706Y-15058880D02*
X4544229Y-15039832D01*
X4544229Y-15039832D02*
X4553753Y-15030309D01*
X4553753Y-15030309D02*
X4572801Y-15020785D01*
X4829944Y-15220785D02*
X4715658Y-15220785D01*
X4772801Y-15220785D02*
X4772801Y-15020785D01*
X4772801Y-15020785D02*
X4753753Y-15049356D01*
X4753753Y-15049356D02*
X4734706Y-15068404D01*
X4734706Y-15068404D02*
X4715658Y-15077928D01*
X4906134Y-15020785D02*
X4906134Y-15058880D01*
X4982325Y-15020785D02*
X4982325Y-15058880D01*
X5277563Y-15296975D02*
X5268039Y-15287451D01*
X5268039Y-15287451D02*
X5248991Y-15258880D01*
X5248991Y-15258880D02*
X5239468Y-15239832D01*
X5239468Y-15239832D02*
X5229944Y-15211261D01*
X5229944Y-15211261D02*
X5220420Y-15163642D01*
X5220420Y-15163642D02*
X5220420Y-15125547D01*
X5220420Y-15125547D02*
X5229944Y-15077928D01*
X5229944Y-15077928D02*
X5239468Y-15049356D01*
X5239468Y-15049356D02*
X5248991Y-15030309D01*
X5248991Y-15030309D02*
X5268039Y-15001737D01*
X5268039Y-15001737D02*
X5277563Y-14992213D01*
X5344230Y-15039832D02*
X5353753Y-15030309D01*
X5353753Y-15030309D02*
X5372801Y-15020785D01*
X5372801Y-15020785D02*
X5420420Y-15020785D01*
X5420420Y-15020785D02*
X5439468Y-15030309D01*
X5439468Y-15030309D02*
X5448991Y-15039832D01*
X5448991Y-15039832D02*
X5458515Y-15058880D01*
X5458515Y-15058880D02*
X5458515Y-15077928D01*
X5458515Y-15077928D02*
X5448991Y-15106499D01*
X5448991Y-15106499D02*
X5334706Y-15220785D01*
X5334706Y-15220785D02*
X5458515Y-15220785D01*
X5696610Y-15220785D02*
X5696610Y-15020785D01*
X5782325Y-15220785D02*
X5782325Y-15116023D01*
X5782325Y-15116023D02*
X5772801Y-15096975D01*
X5772801Y-15096975D02*
X5753753Y-15087451D01*
X5753753Y-15087451D02*
X5725182Y-15087451D01*
X5725182Y-15087451D02*
X5706134Y-15096975D01*
X5706134Y-15096975D02*
X5696610Y-15106499D01*
X5906134Y-15220785D02*
X5887087Y-15211261D01*
X5887087Y-15211261D02*
X5877563Y-15201737D01*
X5877563Y-15201737D02*
X5868039Y-15182689D01*
X5868039Y-15182689D02*
X5868039Y-15125547D01*
X5868039Y-15125547D02*
X5877563Y-15106499D01*
X5877563Y-15106499D02*
X5887087Y-15096975D01*
X5887087Y-15096975D02*
X5906134Y-15087451D01*
X5906134Y-15087451D02*
X5934706Y-15087451D01*
X5934706Y-15087451D02*
X5953753Y-15096975D01*
X5953753Y-15096975D02*
X5963277Y-15106499D01*
X5963277Y-15106499D02*
X5972801Y-15125547D01*
X5972801Y-15125547D02*
X5972801Y-15182689D01*
X5972801Y-15182689D02*
X5963277Y-15201737D01*
X5963277Y-15201737D02*
X5953753Y-15211261D01*
X5953753Y-15211261D02*
X5934706Y-15220785D01*
X5934706Y-15220785D02*
X5906134Y-15220785D01*
X6087087Y-15220785D02*
X6068039Y-15211261D01*
X6068039Y-15211261D02*
X6058515Y-15192213D01*
X6058515Y-15192213D02*
X6058515Y-15020785D01*
X6239468Y-15211261D02*
X6220420Y-15220785D01*
X6220420Y-15220785D02*
X6182325Y-15220785D01*
X6182325Y-15220785D02*
X6163277Y-15211261D01*
X6163277Y-15211261D02*
X6153753Y-15192213D01*
X6153753Y-15192213D02*
X6153753Y-15116023D01*
X6153753Y-15116023D02*
X6163277Y-15096975D01*
X6163277Y-15096975D02*
X6182325Y-15087451D01*
X6182325Y-15087451D02*
X6220420Y-15087451D01*
X6220420Y-15087451D02*
X6239468Y-15096975D01*
X6239468Y-15096975D02*
X6248991Y-15116023D01*
X6248991Y-15116023D02*
X6248991Y-15135070D01*
X6248991Y-15135070D02*
X6153753Y-15154118D01*
X6325182Y-15211261D02*
X6344230Y-15220785D01*
X6344230Y-15220785D02*
X6382325Y-15220785D01*
X6382325Y-15220785D02*
X6401372Y-15211261D01*
X6401372Y-15211261D02*
X6410896Y-15192213D01*
X6410896Y-15192213D02*
X6410896Y-15182689D01*
X6410896Y-15182689D02*
X6401372Y-15163642D01*
X6401372Y-15163642D02*
X6382325Y-15154118D01*
X6382325Y-15154118D02*
X6353753Y-15154118D01*
X6353753Y-15154118D02*
X6334706Y-15144594D01*
X6334706Y-15144594D02*
X6325182Y-15125547D01*
X6325182Y-15125547D02*
X6325182Y-15116023D01*
X6325182Y-15116023D02*
X6334706Y-15096975D01*
X6334706Y-15096975D02*
X6353753Y-15087451D01*
X6353753Y-15087451D02*
X6382325Y-15087451D01*
X6382325Y-15087451D02*
X6401372Y-15096975D01*
X6477563Y-15296975D02*
X6487087Y-15287451D01*
X6487087Y-15287451D02*
X6506134Y-15258880D01*
X6506134Y-15258880D02*
X6515658Y-15239832D01*
X6515658Y-15239832D02*
X6525182Y-15211261D01*
X6525182Y-15211261D02*
X6534706Y-15163642D01*
X6534706Y-15163642D02*
X6534706Y-15125547D01*
X6534706Y-15125547D02*
X6525182Y-15077928D01*
X6525182Y-15077928D02*
X6515658Y-15049356D01*
X6515658Y-15049356D02*
X6506134Y-15030309D01*
X6506134Y-15030309D02*
X6487087Y-15001737D01*
X6487087Y-15001737D02*
X6477563Y-14992213D01*
X6839468Y-15296975D02*
X6829944Y-15287451D01*
X6829944Y-15287451D02*
X6810896Y-15258880D01*
X6810896Y-15258880D02*
X6801372Y-15239832D01*
X6801372Y-15239832D02*
X6791849Y-15211261D01*
X6791849Y-15211261D02*
X6782325Y-15163642D01*
X6782325Y-15163642D02*
X6782325Y-15125547D01*
X6782325Y-15125547D02*
X6791849Y-15077928D01*
X6791849Y-15077928D02*
X6801372Y-15049356D01*
X6801372Y-15049356D02*
X6810896Y-15030309D01*
X6810896Y-15030309D02*
X6829944Y-15001737D01*
X6829944Y-15001737D02*
X6839468Y-14992213D01*
X6915658Y-15087451D02*
X6915658Y-15220785D01*
X6915658Y-15106499D02*
X6925182Y-15096975D01*
X6925182Y-15096975D02*
X6944230Y-15087451D01*
X6944230Y-15087451D02*
X6972801Y-15087451D01*
X6972801Y-15087451D02*
X6991849Y-15096975D01*
X6991849Y-15096975D02*
X7001372Y-15116023D01*
X7001372Y-15116023D02*
X7001372Y-15220785D01*
X7125182Y-15220785D02*
X7106134Y-15211261D01*
X7106134Y-15211261D02*
X7096611Y-15201737D01*
X7096611Y-15201737D02*
X7087087Y-15182689D01*
X7087087Y-15182689D02*
X7087087Y-15125547D01*
X7087087Y-15125547D02*
X7096611Y-15106499D01*
X7096611Y-15106499D02*
X7106134Y-15096975D01*
X7106134Y-15096975D02*
X7125182Y-15087451D01*
X7125182Y-15087451D02*
X7153753Y-15087451D01*
X7153753Y-15087451D02*
X7172801Y-15096975D01*
X7172801Y-15096975D02*
X7182325Y-15106499D01*
X7182325Y-15106499D02*
X7191849Y-15125547D01*
X7191849Y-15125547D02*
X7191849Y-15182689D01*
X7191849Y-15182689D02*
X7182325Y-15201737D01*
X7182325Y-15201737D02*
X7172801Y-15211261D01*
X7172801Y-15211261D02*
X7153753Y-15220785D01*
X7153753Y-15220785D02*
X7125182Y-15220785D01*
X7248992Y-15087451D02*
X7325182Y-15087451D01*
X7277563Y-15020785D02*
X7277563Y-15192213D01*
X7277563Y-15192213D02*
X7287087Y-15211261D01*
X7287087Y-15211261D02*
X7306134Y-15220785D01*
X7306134Y-15220785D02*
X7325182Y-15220785D01*
X7544230Y-15087451D02*
X7544230Y-15287451D01*
X7544230Y-15096975D02*
X7563277Y-15087451D01*
X7563277Y-15087451D02*
X7601373Y-15087451D01*
X7601373Y-15087451D02*
X7620420Y-15096975D01*
X7620420Y-15096975D02*
X7629944Y-15106499D01*
X7629944Y-15106499D02*
X7639468Y-15125547D01*
X7639468Y-15125547D02*
X7639468Y-15182689D01*
X7639468Y-15182689D02*
X7629944Y-15201737D01*
X7629944Y-15201737D02*
X7620420Y-15211261D01*
X7620420Y-15211261D02*
X7601373Y-15220785D01*
X7601373Y-15220785D02*
X7563277Y-15220785D01*
X7563277Y-15220785D02*
X7544230Y-15211261D01*
X7753753Y-15220785D02*
X7734706Y-15211261D01*
X7734706Y-15211261D02*
X7725182Y-15192213D01*
X7725182Y-15192213D02*
X7725182Y-15020785D01*
X7915658Y-15220785D02*
X7915658Y-15116023D01*
X7915658Y-15116023D02*
X7906134Y-15096975D01*
X7906134Y-15096975D02*
X7887087Y-15087451D01*
X7887087Y-15087451D02*
X7848992Y-15087451D01*
X7848992Y-15087451D02*
X7829944Y-15096975D01*
X7915658Y-15211261D02*
X7896611Y-15220785D01*
X7896611Y-15220785D02*
X7848992Y-15220785D01*
X7848992Y-15220785D02*
X7829944Y-15211261D01*
X7829944Y-15211261D02*
X7820420Y-15192213D01*
X7820420Y-15192213D02*
X7820420Y-15173166D01*
X7820420Y-15173166D02*
X7829944Y-15154118D01*
X7829944Y-15154118D02*
X7848992Y-15144594D01*
X7848992Y-15144594D02*
X7896611Y-15144594D01*
X7896611Y-15144594D02*
X7915658Y-15135070D01*
X7982325Y-15087451D02*
X8058515Y-15087451D01*
X8010896Y-15020785D02*
X8010896Y-15192213D01*
X8010896Y-15192213D02*
X8020420Y-15211261D01*
X8020420Y-15211261D02*
X8039468Y-15220785D01*
X8039468Y-15220785D02*
X8058515Y-15220785D01*
X8201373Y-15211261D02*
X8182325Y-15220785D01*
X8182325Y-15220785D02*
X8144230Y-15220785D01*
X8144230Y-15220785D02*
X8125182Y-15211261D01*
X8125182Y-15211261D02*
X8115658Y-15192213D01*
X8115658Y-15192213D02*
X8115658Y-15116023D01*
X8115658Y-15116023D02*
X8125182Y-15096975D01*
X8125182Y-15096975D02*
X8144230Y-15087451D01*
X8144230Y-15087451D02*
X8182325Y-15087451D01*
X8182325Y-15087451D02*
X8201373Y-15096975D01*
X8201373Y-15096975D02*
X8210896Y-15116023D01*
X8210896Y-15116023D02*
X8210896Y-15135070D01*
X8210896Y-15135070D02*
X8115658Y-15154118D01*
X8382325Y-15220785D02*
X8382325Y-15020785D01*
X8382325Y-15211261D02*
X8363277Y-15220785D01*
X8363277Y-15220785D02*
X8325182Y-15220785D01*
X8325182Y-15220785D02*
X8306134Y-15211261D01*
X8306134Y-15211261D02*
X8296611Y-15201737D01*
X8296611Y-15201737D02*
X8287087Y-15182689D01*
X8287087Y-15182689D02*
X8287087Y-15125547D01*
X8287087Y-15125547D02*
X8296611Y-15106499D01*
X8296611Y-15106499D02*
X8306134Y-15096975D01*
X8306134Y-15096975D02*
X8325182Y-15087451D01*
X8325182Y-15087451D02*
X8363277Y-15087451D01*
X8363277Y-15087451D02*
X8382325Y-15096975D01*
X8458516Y-15296975D02*
X8468039Y-15287451D01*
X8468039Y-15287451D02*
X8487087Y-15258880D01*
X8487087Y-15258880D02*
X8496611Y-15239832D01*
X8496611Y-15239832D02*
X8506135Y-15211261D01*
X8506135Y-15211261D02*
X8515658Y-15163642D01*
X8515658Y-15163642D02*
X8515658Y-15125547D01*
X8515658Y-15125547D02*
X8506135Y-15077928D01*
X8506135Y-15077928D02*
X8496611Y-15049356D01*
X8496611Y-15049356D02*
X8487087Y-15030309D01*
X8487087Y-15030309D02*
X8468039Y-15001737D01*
X8468039Y-15001737D02*
X8458516Y-14992213D01*
X1502500Y-15349301D02*
X1702500Y-15549301D01*
X1702500Y-15349301D02*
X1502500Y-15549301D01*
X1602500Y-15349301D02*
X1602500Y-15549301D01*
X1502500Y-15449301D02*
X1702500Y-15449301D01*
X2048991Y-15407451D02*
X2048991Y-15540785D01*
X2001372Y-15331261D02*
X1953753Y-15474118D01*
X1953753Y-15474118D02*
X2077562Y-15474118D01*
X2153753Y-15521737D02*
X2163277Y-15531261D01*
X2163277Y-15531261D02*
X2153753Y-15540785D01*
X2153753Y-15540785D02*
X2144229Y-15531261D01*
X2144229Y-15531261D02*
X2153753Y-15521737D01*
X2153753Y-15521737D02*
X2153753Y-15540785D01*
X2287086Y-15340785D02*
X2306134Y-15340785D01*
X2306134Y-15340785D02*
X2325182Y-15350309D01*
X2325182Y-15350309D02*
X2334705Y-15359832D01*
X2334705Y-15359832D02*
X2344229Y-15378880D01*
X2344229Y-15378880D02*
X2353753Y-15416975D01*
X2353753Y-15416975D02*
X2353753Y-15464594D01*
X2353753Y-15464594D02*
X2344229Y-15502689D01*
X2344229Y-15502689D02*
X2334705Y-15521737D01*
X2334705Y-15521737D02*
X2325182Y-15531261D01*
X2325182Y-15531261D02*
X2306134Y-15540785D01*
X2306134Y-15540785D02*
X2287086Y-15540785D01*
X2287086Y-15540785D02*
X2268039Y-15531261D01*
X2268039Y-15531261D02*
X2258515Y-15521737D01*
X2258515Y-15521737D02*
X2248991Y-15502689D01*
X2248991Y-15502689D02*
X2239467Y-15464594D01*
X2239467Y-15464594D02*
X2239467Y-15416975D01*
X2239467Y-15416975D02*
X2248991Y-15378880D01*
X2248991Y-15378880D02*
X2258515Y-15359832D01*
X2258515Y-15359832D02*
X2268039Y-15350309D01*
X2268039Y-15350309D02*
X2287086Y-15340785D01*
X2477563Y-15340785D02*
X2496610Y-15340785D01*
X2496610Y-15340785D02*
X2515658Y-15350309D01*
X2515658Y-15350309D02*
X2525182Y-15359832D01*
X2525182Y-15359832D02*
X2534705Y-15378880D01*
X2534705Y-15378880D02*
X2544229Y-15416975D01*
X2544229Y-15416975D02*
X2544229Y-15464594D01*
X2544229Y-15464594D02*
X2534705Y-15502689D01*
X2534705Y-15502689D02*
X2525182Y-15521737D01*
X2525182Y-15521737D02*
X2515658Y-15531261D01*
X2515658Y-15531261D02*
X2496610Y-15540785D01*
X2496610Y-15540785D02*
X2477563Y-15540785D01*
X2477563Y-15540785D02*
X2458515Y-15531261D01*
X2458515Y-15531261D02*
X2448991Y-15521737D01*
X2448991Y-15521737D02*
X2439467Y-15502689D01*
X2439467Y-15502689D02*
X2429944Y-15464594D01*
X2429944Y-15464594D02*
X2429944Y-15416975D01*
X2429944Y-15416975D02*
X2439467Y-15378880D01*
X2439467Y-15378880D02*
X2448991Y-15359832D01*
X2448991Y-15359832D02*
X2458515Y-15350309D01*
X2458515Y-15350309D02*
X2477563Y-15340785D01*
X2668039Y-15340785D02*
X2687086Y-15340785D01*
X2687086Y-15340785D02*
X2706134Y-15350309D01*
X2706134Y-15350309D02*
X2715658Y-15359832D01*
X2715658Y-15359832D02*
X2725182Y-15378880D01*
X2725182Y-15378880D02*
X2734705Y-15416975D01*
X2734705Y-15416975D02*
X2734705Y-15464594D01*
X2734705Y-15464594D02*
X2725182Y-15502689D01*
X2725182Y-15502689D02*
X2715658Y-15521737D01*
X2715658Y-15521737D02*
X2706134Y-15531261D01*
X2706134Y-15531261D02*
X2687086Y-15540785D01*
X2687086Y-15540785D02*
X2668039Y-15540785D01*
X2668039Y-15540785D02*
X2648991Y-15531261D01*
X2648991Y-15531261D02*
X2639467Y-15521737D01*
X2639467Y-15521737D02*
X2629944Y-15502689D01*
X2629944Y-15502689D02*
X2620420Y-15464594D01*
X2620420Y-15464594D02*
X2620420Y-15416975D01*
X2620420Y-15416975D02*
X2629944Y-15378880D01*
X2629944Y-15378880D02*
X2639467Y-15359832D01*
X2639467Y-15359832D02*
X2648991Y-15350309D01*
X2648991Y-15350309D02*
X2668039Y-15340785D01*
X2820420Y-15540785D02*
X2820420Y-15407451D01*
X2820420Y-15426499D02*
X2829943Y-15416975D01*
X2829943Y-15416975D02*
X2848991Y-15407451D01*
X2848991Y-15407451D02*
X2877563Y-15407451D01*
X2877563Y-15407451D02*
X2896610Y-15416975D01*
X2896610Y-15416975D02*
X2906134Y-15436023D01*
X2906134Y-15436023D02*
X2906134Y-15540785D01*
X2906134Y-15436023D02*
X2915658Y-15416975D01*
X2915658Y-15416975D02*
X2934705Y-15407451D01*
X2934705Y-15407451D02*
X2963277Y-15407451D01*
X2963277Y-15407451D02*
X2982324Y-15416975D01*
X2982324Y-15416975D02*
X2991848Y-15436023D01*
X2991848Y-15436023D02*
X2991848Y-15540785D01*
X3087086Y-15540785D02*
X3087086Y-15407451D01*
X3087086Y-15426499D02*
X3096610Y-15416975D01*
X3096610Y-15416975D02*
X3115658Y-15407451D01*
X3115658Y-15407451D02*
X3144229Y-15407451D01*
X3144229Y-15407451D02*
X3163277Y-15416975D01*
X3163277Y-15416975D02*
X3172801Y-15436023D01*
X3172801Y-15436023D02*
X3172801Y-15540785D01*
X3172801Y-15436023D02*
X3182324Y-15416975D01*
X3182324Y-15416975D02*
X3201372Y-15407451D01*
X3201372Y-15407451D02*
X3229943Y-15407451D01*
X3229943Y-15407451D02*
X3248991Y-15416975D01*
X3248991Y-15416975D02*
X3258515Y-15436023D01*
X3258515Y-15436023D02*
X3258515Y-15540785D01*
X3648991Y-15331261D02*
X3477563Y-15588404D01*
X3906134Y-15340785D02*
X3925182Y-15340785D01*
X3925182Y-15340785D02*
X3944229Y-15350309D01*
X3944229Y-15350309D02*
X3953753Y-15359832D01*
X3953753Y-15359832D02*
X3963277Y-15378880D01*
X3963277Y-15378880D02*
X3972801Y-15416975D01*
X3972801Y-15416975D02*
X3972801Y-15464594D01*
X3972801Y-15464594D02*
X3963277Y-15502689D01*
X3963277Y-15502689D02*
X3953753Y-15521737D01*
X3953753Y-15521737D02*
X3944229Y-15531261D01*
X3944229Y-15531261D02*
X3925182Y-15540785D01*
X3925182Y-15540785D02*
X3906134Y-15540785D01*
X3906134Y-15540785D02*
X3887086Y-15531261D01*
X3887086Y-15531261D02*
X3877563Y-15521737D01*
X3877563Y-15521737D02*
X3868039Y-15502689D01*
X3868039Y-15502689D02*
X3858515Y-15464594D01*
X3858515Y-15464594D02*
X3858515Y-15416975D01*
X3858515Y-15416975D02*
X3868039Y-15378880D01*
X3868039Y-15378880D02*
X3877563Y-15359832D01*
X3877563Y-15359832D02*
X3887086Y-15350309D01*
X3887086Y-15350309D02*
X3906134Y-15340785D01*
X4058515Y-15521737D02*
X4068039Y-15531261D01*
X4068039Y-15531261D02*
X4058515Y-15540785D01*
X4058515Y-15540785D02*
X4048991Y-15531261D01*
X4048991Y-15531261D02*
X4058515Y-15521737D01*
X4058515Y-15521737D02*
X4058515Y-15540785D01*
X4258515Y-15540785D02*
X4144229Y-15540785D01*
X4201372Y-15540785D02*
X4201372Y-15340785D01*
X4201372Y-15340785D02*
X4182325Y-15369356D01*
X4182325Y-15369356D02*
X4163277Y-15388404D01*
X4163277Y-15388404D02*
X4144229Y-15397928D01*
X4439468Y-15340785D02*
X4344229Y-15340785D01*
X4344229Y-15340785D02*
X4334706Y-15436023D01*
X4334706Y-15436023D02*
X4344229Y-15426499D01*
X4344229Y-15426499D02*
X4363277Y-15416975D01*
X4363277Y-15416975D02*
X4410896Y-15416975D01*
X4410896Y-15416975D02*
X4429944Y-15426499D01*
X4429944Y-15426499D02*
X4439468Y-15436023D01*
X4439468Y-15436023D02*
X4448991Y-15455070D01*
X4448991Y-15455070D02*
X4448991Y-15502689D01*
X4448991Y-15502689D02*
X4439468Y-15521737D01*
X4439468Y-15521737D02*
X4429944Y-15531261D01*
X4429944Y-15531261D02*
X4410896Y-15540785D01*
X4410896Y-15540785D02*
X4363277Y-15540785D01*
X4363277Y-15540785D02*
X4344229Y-15531261D01*
X4344229Y-15531261D02*
X4334706Y-15521737D01*
X4515658Y-15340785D02*
X4648991Y-15340785D01*
X4648991Y-15340785D02*
X4563277Y-15540785D01*
X4820420Y-15340785D02*
X4725182Y-15340785D01*
X4725182Y-15340785D02*
X4715658Y-15436023D01*
X4715658Y-15436023D02*
X4725182Y-15426499D01*
X4725182Y-15426499D02*
X4744229Y-15416975D01*
X4744229Y-15416975D02*
X4791849Y-15416975D01*
X4791849Y-15416975D02*
X4810896Y-15426499D01*
X4810896Y-15426499D02*
X4820420Y-15436023D01*
X4820420Y-15436023D02*
X4829944Y-15455070D01*
X4829944Y-15455070D02*
X4829944Y-15502689D01*
X4829944Y-15502689D02*
X4820420Y-15521737D01*
X4820420Y-15521737D02*
X4810896Y-15531261D01*
X4810896Y-15531261D02*
X4791849Y-15540785D01*
X4791849Y-15540785D02*
X4744229Y-15540785D01*
X4744229Y-15540785D02*
X4725182Y-15531261D01*
X4725182Y-15531261D02*
X4715658Y-15521737D01*
X4906134Y-15340785D02*
X4906134Y-15378880D01*
X4982325Y-15340785D02*
X4982325Y-15378880D01*
X5277563Y-15616975D02*
X5268039Y-15607451D01*
X5268039Y-15607451D02*
X5248991Y-15578880D01*
X5248991Y-15578880D02*
X5239468Y-15559832D01*
X5239468Y-15559832D02*
X5229944Y-15531261D01*
X5229944Y-15531261D02*
X5220420Y-15483642D01*
X5220420Y-15483642D02*
X5220420Y-15445547D01*
X5220420Y-15445547D02*
X5229944Y-15397928D01*
X5229944Y-15397928D02*
X5239468Y-15369356D01*
X5239468Y-15369356D02*
X5248991Y-15350309D01*
X5248991Y-15350309D02*
X5268039Y-15321737D01*
X5268039Y-15321737D02*
X5277563Y-15312213D01*
X5334706Y-15340785D02*
X5458515Y-15340785D01*
X5458515Y-15340785D02*
X5391849Y-15416975D01*
X5391849Y-15416975D02*
X5420420Y-15416975D01*
X5420420Y-15416975D02*
X5439468Y-15426499D01*
X5439468Y-15426499D02*
X5448991Y-15436023D01*
X5448991Y-15436023D02*
X5458515Y-15455070D01*
X5458515Y-15455070D02*
X5458515Y-15502689D01*
X5458515Y-15502689D02*
X5448991Y-15521737D01*
X5448991Y-15521737D02*
X5439468Y-15531261D01*
X5439468Y-15531261D02*
X5420420Y-15540785D01*
X5420420Y-15540785D02*
X5363277Y-15540785D01*
X5363277Y-15540785D02*
X5344230Y-15531261D01*
X5344230Y-15531261D02*
X5334706Y-15521737D01*
X5525182Y-15340785D02*
X5648991Y-15340785D01*
X5648991Y-15340785D02*
X5582325Y-15416975D01*
X5582325Y-15416975D02*
X5610896Y-15416975D01*
X5610896Y-15416975D02*
X5629944Y-15426499D01*
X5629944Y-15426499D02*
X5639468Y-15436023D01*
X5639468Y-15436023D02*
X5648991Y-15455070D01*
X5648991Y-15455070D02*
X5648991Y-15502689D01*
X5648991Y-15502689D02*
X5639468Y-15521737D01*
X5639468Y-15521737D02*
X5629944Y-15531261D01*
X5629944Y-15531261D02*
X5610896Y-15540785D01*
X5610896Y-15540785D02*
X5553753Y-15540785D01*
X5553753Y-15540785D02*
X5534706Y-15531261D01*
X5534706Y-15531261D02*
X5525182Y-15521737D01*
X5887087Y-15540785D02*
X5887087Y-15340785D01*
X5972801Y-15540785D02*
X5972801Y-15436023D01*
X5972801Y-15436023D02*
X5963277Y-15416975D01*
X5963277Y-15416975D02*
X5944230Y-15407451D01*
X5944230Y-15407451D02*
X5915658Y-15407451D01*
X5915658Y-15407451D02*
X5896610Y-15416975D01*
X5896610Y-15416975D02*
X5887087Y-15426499D01*
X6096610Y-15540785D02*
X6077563Y-15531261D01*
X6077563Y-15531261D02*
X6068039Y-15521737D01*
X6068039Y-15521737D02*
X6058515Y-15502689D01*
X6058515Y-15502689D02*
X6058515Y-15445547D01*
X6058515Y-15445547D02*
X6068039Y-15426499D01*
X6068039Y-15426499D02*
X6077563Y-15416975D01*
X6077563Y-15416975D02*
X6096610Y-15407451D01*
X6096610Y-15407451D02*
X6125182Y-15407451D01*
X6125182Y-15407451D02*
X6144230Y-15416975D01*
X6144230Y-15416975D02*
X6153753Y-15426499D01*
X6153753Y-15426499D02*
X6163277Y-15445547D01*
X6163277Y-15445547D02*
X6163277Y-15502689D01*
X6163277Y-15502689D02*
X6153753Y-15521737D01*
X6153753Y-15521737D02*
X6144230Y-15531261D01*
X6144230Y-15531261D02*
X6125182Y-15540785D01*
X6125182Y-15540785D02*
X6096610Y-15540785D01*
X6277563Y-15540785D02*
X6258515Y-15531261D01*
X6258515Y-15531261D02*
X6248991Y-15512213D01*
X6248991Y-15512213D02*
X6248991Y-15340785D01*
X6429944Y-15531261D02*
X6410896Y-15540785D01*
X6410896Y-15540785D02*
X6372801Y-15540785D01*
X6372801Y-15540785D02*
X6353753Y-15531261D01*
X6353753Y-15531261D02*
X6344230Y-15512213D01*
X6344230Y-15512213D02*
X6344230Y-15436023D01*
X6344230Y-15436023D02*
X6353753Y-15416975D01*
X6353753Y-15416975D02*
X6372801Y-15407451D01*
X6372801Y-15407451D02*
X6410896Y-15407451D01*
X6410896Y-15407451D02*
X6429944Y-15416975D01*
X6429944Y-15416975D02*
X6439468Y-15436023D01*
X6439468Y-15436023D02*
X6439468Y-15455070D01*
X6439468Y-15455070D02*
X6344230Y-15474118D01*
X6515658Y-15531261D02*
X6534706Y-15540785D01*
X6534706Y-15540785D02*
X6572801Y-15540785D01*
X6572801Y-15540785D02*
X6591849Y-15531261D01*
X6591849Y-15531261D02*
X6601372Y-15512213D01*
X6601372Y-15512213D02*
X6601372Y-15502689D01*
X6601372Y-15502689D02*
X6591849Y-15483642D01*
X6591849Y-15483642D02*
X6572801Y-15474118D01*
X6572801Y-15474118D02*
X6544230Y-15474118D01*
X6544230Y-15474118D02*
X6525182Y-15464594D01*
X6525182Y-15464594D02*
X6515658Y-15445547D01*
X6515658Y-15445547D02*
X6515658Y-15436023D01*
X6515658Y-15436023D02*
X6525182Y-15416975D01*
X6525182Y-15416975D02*
X6544230Y-15407451D01*
X6544230Y-15407451D02*
X6572801Y-15407451D01*
X6572801Y-15407451D02*
X6591849Y-15416975D01*
X6668039Y-15616975D02*
X6677563Y-15607451D01*
X6677563Y-15607451D02*
X6696611Y-15578880D01*
X6696611Y-15578880D02*
X6706134Y-15559832D01*
X6706134Y-15559832D02*
X6715658Y-15531261D01*
X6715658Y-15531261D02*
X6725182Y-15483642D01*
X6725182Y-15483642D02*
X6725182Y-15445547D01*
X6725182Y-15445547D02*
X6715658Y-15397928D01*
X6715658Y-15397928D02*
X6706134Y-15369356D01*
X6706134Y-15369356D02*
X6696611Y-15350309D01*
X6696611Y-15350309D02*
X6677563Y-15321737D01*
X6677563Y-15321737D02*
X6668039Y-15312213D01*
X7029944Y-15616975D02*
X7020420Y-15607451D01*
X7020420Y-15607451D02*
X7001372Y-15578880D01*
X7001372Y-15578880D02*
X6991849Y-15559832D01*
X6991849Y-15559832D02*
X6982325Y-15531261D01*
X6982325Y-15531261D02*
X6972801Y-15483642D01*
X6972801Y-15483642D02*
X6972801Y-15445547D01*
X6972801Y-15445547D02*
X6982325Y-15397928D01*
X6982325Y-15397928D02*
X6991849Y-15369356D01*
X6991849Y-15369356D02*
X7001372Y-15350309D01*
X7001372Y-15350309D02*
X7020420Y-15321737D01*
X7020420Y-15321737D02*
X7029944Y-15312213D01*
X7106134Y-15407451D02*
X7106134Y-15540785D01*
X7106134Y-15426499D02*
X7115658Y-15416975D01*
X7115658Y-15416975D02*
X7134706Y-15407451D01*
X7134706Y-15407451D02*
X7163277Y-15407451D01*
X7163277Y-15407451D02*
X7182325Y-15416975D01*
X7182325Y-15416975D02*
X7191849Y-15436023D01*
X7191849Y-15436023D02*
X7191849Y-15540785D01*
X7315658Y-15540785D02*
X7296611Y-15531261D01*
X7296611Y-15531261D02*
X7287087Y-15521737D01*
X7287087Y-15521737D02*
X7277563Y-15502689D01*
X7277563Y-15502689D02*
X7277563Y-15445547D01*
X7277563Y-15445547D02*
X7287087Y-15426499D01*
X7287087Y-15426499D02*
X7296611Y-15416975D01*
X7296611Y-15416975D02*
X7315658Y-15407451D01*
X7315658Y-15407451D02*
X7344230Y-15407451D01*
X7344230Y-15407451D02*
X7363277Y-15416975D01*
X7363277Y-15416975D02*
X7372801Y-15426499D01*
X7372801Y-15426499D02*
X7382325Y-15445547D01*
X7382325Y-15445547D02*
X7382325Y-15502689D01*
X7382325Y-15502689D02*
X7372801Y-15521737D01*
X7372801Y-15521737D02*
X7363277Y-15531261D01*
X7363277Y-15531261D02*
X7344230Y-15540785D01*
X7344230Y-15540785D02*
X7315658Y-15540785D01*
X7439468Y-15407451D02*
X7515658Y-15407451D01*
X7468039Y-15340785D02*
X7468039Y-15512213D01*
X7468039Y-15512213D02*
X7477563Y-15531261D01*
X7477563Y-15531261D02*
X7496611Y-15540785D01*
X7496611Y-15540785D02*
X7515658Y-15540785D01*
X7734706Y-15407451D02*
X7734706Y-15607451D01*
X7734706Y-15416975D02*
X7753753Y-15407451D01*
X7753753Y-15407451D02*
X7791849Y-15407451D01*
X7791849Y-15407451D02*
X7810896Y-15416975D01*
X7810896Y-15416975D02*
X7820420Y-15426499D01*
X7820420Y-15426499D02*
X7829944Y-15445547D01*
X7829944Y-15445547D02*
X7829944Y-15502689D01*
X7829944Y-15502689D02*
X7820420Y-15521737D01*
X7820420Y-15521737D02*
X7810896Y-15531261D01*
X7810896Y-15531261D02*
X7791849Y-15540785D01*
X7791849Y-15540785D02*
X7753753Y-15540785D01*
X7753753Y-15540785D02*
X7734706Y-15531261D01*
X7944230Y-15540785D02*
X7925182Y-15531261D01*
X7925182Y-15531261D02*
X7915658Y-15512213D01*
X7915658Y-15512213D02*
X7915658Y-15340785D01*
X8106134Y-15540785D02*
X8106134Y-15436023D01*
X8106134Y-15436023D02*
X8096611Y-15416975D01*
X8096611Y-15416975D02*
X8077563Y-15407451D01*
X8077563Y-15407451D02*
X8039468Y-15407451D01*
X8039468Y-15407451D02*
X8020420Y-15416975D01*
X8106134Y-15531261D02*
X8087087Y-15540785D01*
X8087087Y-15540785D02*
X8039468Y-15540785D01*
X8039468Y-15540785D02*
X8020420Y-15531261D01*
X8020420Y-15531261D02*
X8010896Y-15512213D01*
X8010896Y-15512213D02*
X8010896Y-15493166D01*
X8010896Y-15493166D02*
X8020420Y-15474118D01*
X8020420Y-15474118D02*
X8039468Y-15464594D01*
X8039468Y-15464594D02*
X8087087Y-15464594D01*
X8087087Y-15464594D02*
X8106134Y-15455070D01*
X8172801Y-15407451D02*
X8248992Y-15407451D01*
X8201373Y-15340785D02*
X8201373Y-15512213D01*
X8201373Y-15512213D02*
X8210896Y-15531261D01*
X8210896Y-15531261D02*
X8229944Y-15540785D01*
X8229944Y-15540785D02*
X8248992Y-15540785D01*
X8391849Y-15531261D02*
X8372801Y-15540785D01*
X8372801Y-15540785D02*
X8334706Y-15540785D01*
X8334706Y-15540785D02*
X8315658Y-15531261D01*
X8315658Y-15531261D02*
X8306134Y-15512213D01*
X8306134Y-15512213D02*
X8306134Y-15436023D01*
X8306134Y-15436023D02*
X8315658Y-15416975D01*
X8315658Y-15416975D02*
X8334706Y-15407451D01*
X8334706Y-15407451D02*
X8372801Y-15407451D01*
X8372801Y-15407451D02*
X8391849Y-15416975D01*
X8391849Y-15416975D02*
X8401373Y-15436023D01*
X8401373Y-15436023D02*
X8401373Y-15455070D01*
X8401373Y-15455070D02*
X8306134Y-15474118D01*
X8572801Y-15540785D02*
X8572801Y-15340785D01*
X8572801Y-15531261D02*
X8553754Y-15540785D01*
X8553754Y-15540785D02*
X8515658Y-15540785D01*
X8515658Y-15540785D02*
X8496611Y-15531261D01*
X8496611Y-15531261D02*
X8487087Y-15521737D01*
X8487087Y-15521737D02*
X8477563Y-15502689D01*
X8477563Y-15502689D02*
X8477563Y-15445547D01*
X8477563Y-15445547D02*
X8487087Y-15426499D01*
X8487087Y-15426499D02*
X8496611Y-15416975D01*
X8496611Y-15416975D02*
X8515658Y-15407451D01*
X8515658Y-15407451D02*
X8553754Y-15407451D01*
X8553754Y-15407451D02*
X8572801Y-15416975D01*
X8648992Y-15616975D02*
X8658516Y-15607451D01*
X8658516Y-15607451D02*
X8677563Y-15578880D01*
X8677563Y-15578880D02*
X8687087Y-15559832D01*
X8687087Y-15559832D02*
X8696611Y-15531261D01*
X8696611Y-15531261D02*
X8706135Y-15483642D01*
X8706135Y-15483642D02*
X8706135Y-15445547D01*
X8706135Y-15445547D02*
X8696611Y-15397928D01*
X8696611Y-15397928D02*
X8687087Y-15369356D01*
X8687087Y-15369356D02*
X8677563Y-15350309D01*
X8677563Y-15350309D02*
X8658516Y-15321737D01*
X8658516Y-15321737D02*
X8648992Y-15312213D01*
M02*
