M48
; DRILL file KiCad 10.0.5 date 2026-09-23T16:28:01
; FORMAT={-:-/ absolute / metric / decimal}
; #@! TF.CreationDate,2026-09-23T16:28:01+09:00
; #@! TF.GenerationSoftware,Kicad,Pcbnew,10.0.5
; #@! TF.FileFunction,NonPlated,1,2,NPTH
FMAT,2
METRIC
; #@! TA.AperFunction,NonPlated,NPTH,ComponentDrill
T1C0.850
; #@! TA.AperFunction,NonPlated,NPTH,ComponentDrill
T2C1.800
; #@! TA.AperFunction,NonPlated,NPTH,ComponentDrill
T3C2.000
; #@! TA.AperFunction,NonPlated,NPTH,ComponentDrill
T4C2.200
; #@! TA.AperFunction,NonPlated,NPTH,ComponentDrill
T5C3.000
; #@! TA.AperFunction,NonPlated,NPTH,ComponentDrill
T6C3.050
; #@! TA.AperFunction,NonPlated,NPTH,ComponentDrill
T7C4.000
%
G90
G05
T1
X157.0Y-28.987
X157.0Y-31.987
T2
X138.452Y-108.919
X141.082Y-99.105
T3
X25.876Y-33.337
X25.876Y-52.387
X25.876Y-71.438
X28.258Y-14.287
X35.401Y-90.487
X36.036Y-33.337
X36.036Y-52.387
X36.036Y-71.438
X38.417Y-14.287
X45.561Y-90.487
X47.307Y-13.335
X47.307Y-32.385
X47.307Y-51.435
X47.307Y-70.485
X57.467Y-13.335
X57.467Y-32.385
X57.467Y-51.435
X57.467Y-70.485
X66.358Y-11.43
X66.358Y-30.48
X66.358Y-49.53
X66.358Y-68.58
X66.358Y-89.535
X76.517Y-11.43
X76.517Y-30.48
X76.517Y-49.53
X76.517Y-68.58
X76.517Y-89.535
X85.407Y-9.525
X85.407Y-28.575
X85.407Y-47.625
X85.407Y-66.675
X92.551Y-87.63
X95.567Y-9.525
X95.567Y-28.575
X95.567Y-47.625
X95.567Y-66.675
X102.711Y-87.63
X104.457Y-11.43
X104.457Y-30.48
X104.457Y-49.53
X104.457Y-68.58
X114.617Y-11.43
X114.617Y-30.48
X114.617Y-49.53
X114.617Y-68.58
X119.435Y-106.289
X122.065Y-96.475
X123.507Y-13.335
X123.507Y-32.385
X123.507Y-51.435
X123.507Y-70.485
X133.667Y-13.335
X133.667Y-32.385
X133.667Y-51.435
X133.667Y-70.485
X142.558Y-47.625
X142.558Y-66.675
X152.718Y-47.625
X152.718Y-66.675
T4
X21.15Y-38.608
X82.65Y-96.007
X148.25Y-26.307
T5
X27.146Y-30.797
X27.146Y-49.847
X27.146Y-68.897
X29.527Y-11.747
X33.496Y-28.258
X33.496Y-47.307
X33.496Y-66.358
X35.877Y-9.207
X36.671Y-87.947
X43.021Y-85.407
X48.578Y-10.795
X48.578Y-29.845
X48.578Y-48.895
X48.578Y-67.945
X54.927Y-8.255
X54.927Y-27.305
X54.927Y-46.355
X54.927Y-65.405
X67.627Y-8.89
X67.627Y-27.94
X67.627Y-46.99
X67.627Y-66.04
X67.627Y-86.995
X73.977Y-6.35
X73.977Y-25.4
X73.977Y-44.45
X73.977Y-63.5
X73.977Y-84.455
X86.677Y-6.985
X86.677Y-26.035
X86.677Y-45.085
X86.677Y-64.135
X93.027Y-4.445
X93.027Y-23.495
X93.027Y-42.545
X93.027Y-61.595
X93.821Y-85.09
X100.171Y-82.55
X105.727Y-8.89
X105.727Y-27.94
X105.727Y-46.99
X105.727Y-66.04
X112.078Y-6.35
X112.078Y-25.4
X112.078Y-44.45
X112.078Y-63.5
X116.5Y-97.614
X117.31Y-104.405
X124.777Y-10.795
X124.777Y-29.845
X124.777Y-48.895
X124.777Y-67.945
X131.127Y-8.255
X131.127Y-27.305
X131.127Y-46.355
X131.127Y-65.405
X135.518Y-100.244
X136.328Y-107.035
X136.677Y-115.543
X142.857Y-92.481
X143.827Y-45.085
X143.827Y-64.135
X150.177Y-42.545
X150.177Y-61.595
T6
X129.926Y-113.695
X136.086Y-90.706
T7
X30.956Y-33.337
X30.956Y-52.387
X30.956Y-71.438
X33.337Y-14.287
X40.481Y-90.487
X52.387Y-13.335
X52.387Y-32.385
X52.387Y-51.435
X52.387Y-70.485
X71.438Y-11.43
X71.438Y-30.48
X71.438Y-49.53
X71.438Y-68.58
X71.438Y-89.535
X90.487Y-9.525
X90.487Y-28.575
X90.487Y-47.625
X90.487Y-66.675
X97.631Y-87.63
X109.537Y-11.43
X109.537Y-30.48
X109.537Y-49.53
X109.537Y-68.58
X120.75Y-101.382
X128.588Y-13.335
X128.588Y-32.385
X128.588Y-51.435
X128.588Y-70.485
X139.767Y-104.012
X144.646Y-117.639
X147.637Y-47.625
X147.637Y-66.675
X150.806Y-94.65
M30
