M48
; DRILL file KiCad 10.0.5 date 2026-09-23T16:28:01
; FORMAT={-:-/ absolute / metric / decimal}
; #@! TF.CreationDate,2026-09-23T16:28:01+09:00
; #@! TF.GenerationSoftware,Kicad,Pcbnew,10.0.5
; #@! TF.FileFunction,Plated,1,2,PTH
FMAT,2
METRIC
; #@! TA.AperFunction,Plated,PTH,ViaDrill
T1C0.300
; #@! TA.AperFunction,Plated,PTH,ComponentDrill
T2C0.450
; #@! TA.AperFunction,Plated,PTH,ComponentDrill
T3C0.600
; #@! TA.AperFunction,Plated,PTH,ComponentDrill
T4C0.750
%
G90
G05
T1
X24.783Y-23.46
X24.857Y-55.063
X25.582Y-75.938
X25.875Y-58.068
X26.022Y-19.595
X26.493Y-43.232
X28.075Y-60.745
X28.356Y-36.525
X28.356Y-44.009
X30.737Y-22.819
X32.402Y-93.136
X34.579Y-40.36
X35.493Y-54.601
X35.493Y-60.393
X35.563Y-78.204
X35.934Y-35.906
X37.726Y-21.179
X37.881Y-98.697
X39.343Y-51.83
X40.603Y-24.236
X40.75Y-17.421
X40.789Y-18.669
X41.0Y-51.83
X41.576Y-78.8
X42.485Y-59.483
X43.081Y-98.04
X45.387Y-16.216
X45.387Y-25.366
X45.887Y-35.906
X45.887Y-54.601
X47.067Y-75.8
X47.298Y-36.885
X47.892Y-73.688
X49.787Y-39.738
X49.787Y-58.944
X49.787Y-79.742
X49.796Y-21.305
X50.433Y-44.009
X52.0Y-92.248
X54.987Y-35.986
X55.39Y-60.393
X56.601Y-60.265
X56.924Y-54.601
X56.924Y-78.836
X57.13Y-19.287
X57.283Y-37.887
X57.318Y-61.15
X58.087Y-49.548
X60.5Y-59.546
X60.902Y-41.319
X60.93Y-50.953
X62.285Y-15.316
X62.86Y-15.891
X63.433Y-35.986
X63.837Y-44.6
X63.996Y-17.486
X64.037Y-34.5
X64.037Y-38.0
X64.115Y-77.003
X64.438Y-43.232
X64.438Y-63.182
X64.938Y-14.094
X65.237Y-51.7
X65.237Y-52.9
X65.688Y-18.446
X66.901Y-98.04
X68.837Y-19.896
X68.837Y-39.225
X68.837Y-61.752
X68.837Y-76.697
X74.037Y-13.126
X74.037Y-76.09
X75.974Y-57.911
X75.974Y-92.642
X77.135Y-15.816
X77.138Y-27.355
X77.187Y-33.138
X78.933Y-77.325
X79.0Y-37.197
X79.5Y-18.083
X80.413Y-29.647
X80.837Y-61.9
X81.037Y-57.6
X82.5Y-90.417
X83.225Y-70.412
X83.354Y-49.833
X83.438Y-64.1
X83.487Y-37.586
X83.487Y-47.022
X84.101Y-13.126
X84.949Y-71.624
X85.698Y-15.816
X86.746Y-70.102
X87.888Y-35.477
X87.888Y-51.204
X87.888Y-57.102
X87.888Y-69.981
X87.888Y-74.492
X88.093Y-17.371
X88.093Y-22.401
X90.631Y-82.373
X91.678Y-36.825
X92.687Y-93.193
X93.087Y-12.697
X93.087Y-55.133
X93.087Y-74.331
X93.983Y-67.983
X95.191Y-52.785
X97.476Y-16.752
X98.5Y-37.818
X98.5Y-52.951
X98.629Y-55.199
X98.784Y-25.38
X99.0Y-18.083
X100.231Y-96.102
X100.75Y-31.971
X101.994Y-90.417
X102.258Y-72.3
X102.259Y-16.636
X102.538Y-10.834
X102.556Y-56.686
X102.942Y-18.365
X104.173Y-73.08
X105.001Y-38.608
X105.001Y-78.836
X105.194Y-71.783
X105.703Y-34.044
X106.938Y-19.659
X106.938Y-59.533
X112.138Y-59.733
X113.581Y-100.663
X114.074Y-20.3
X114.074Y-39.225
X114.074Y-76.697
X114.074Y-71.163
X114.891Y-52.394
X114.966Y-18.796
X114.993Y-35.94
X114.998Y-93.998
X115.595Y-100.663
X116.0Y-41.608
X117.5Y-76.329
X117.874Y-72.371
X118.377Y-85.882
X118.608Y-12.002
X118.945Y-47.715
X121.294Y-71.163
X121.588Y-23.253
X121.623Y-58.49
X122.087Y-16.528
X122.087Y-35.94
X122.982Y-77.954
X123.414Y-107.8
X123.436Y-37.785
X125.536Y-107.667
X125.988Y-20.699
X125.988Y-39.993
X125.988Y-60.492
X128.223Y-93.763
X128.517Y-98.718
X129.179Y-23.041
X130.313Y-35.121
X130.985Y-39.737
X131.188Y-16.528
X131.188Y-21.305
X131.188Y-79.742
X133.124Y-59.493
X133.33Y-56.028
X134.955Y-77.931
X135.535Y-72.209
X135.568Y-61.286
X135.908Y-78.914
X135.921Y-103.996
X136.111Y-72.784
X136.869Y-45.1
X137.0Y-77.931
X138.624Y-55.558
X138.862Y-6.527
X139.702Y-75.809
X139.875Y-70.767
X140.7Y-38.9
X141.5Y-32.1
X141.602Y-73.788
X142.057Y-57.371
X142.351Y-109.882
X144.0Y-39.5
X144.375Y-25.237
X144.422Y-17.648
X144.75Y-36.433
X145.02Y-110.492
X145.066Y-18.067
X145.335Y-100.467
X145.621Y-34.995
X145.71Y-15.496
X146.0Y-27.8
X146.0Y-29.401
X146.6Y-24.8
X146.6Y-31.8
X146.982Y-29.725
X147.1Y-31.3
X147.774Y-31.781
X147.997Y-35.185
X148.599Y-36.433
X148.6Y-56.77
X148.975Y-75.099
X149.3Y-32.3
X150.4Y-31.2
X150.912Y-70.767
X151.0Y-32.4
X151.1Y-31.0
X151.987Y-30.551
X152.5Y-22.2
X152.6Y-31.2
X155.598Y-14.989
X155.6Y-24.0
X155.654Y-29.019
T2
X139.957Y-10.338
T3
X147.343Y-5.575
X147.619Y-17.125
X149.619Y-17.125
X149.882Y-5.575
T4
X139.5Y-30.3
X141.5Y-30.3
M30
