G04 #@! TF.GenerationSoftware,KiCad,Pcbnew,10.0.5*
G04 #@! TF.CreationDate,2026-09-23T16:28:01+09:00*
G04 #@! TF.ProjectId,keyboard,6b657962-6f61-4726-942e-6b696361645f,rev?*
G04 #@! TF.SameCoordinates,Original*
G04 #@! TF.FileFunction,Copper,L2,Bot*
G04 #@! TF.FilePolarity,Positive*
%FSLAX46Y46*%
G04 Gerber Fmt 4.6, Leading zero omitted, Abs format (unit mm)*
G04 Created by KiCad (PCBNEW 10.0.5) date 2026-09-23 16:28:01*
%MOMM*%
%LPD*%
G01*
G04 APERTURE LIST*
G04 Aperture macros list*
%AMRoundRect*
0 Rectangle with rounded corners*
0 $1 Rounding radius*
0 $2 $3 $4 $5 $6 $7 $8 $9 X,Y pos of 4 corners*
0 Add a 4 corners polygon primitive as box body*
4,1,4,$2,$3,$4,$5,$6,$7,$8,$9,$2,$3,0*
0 Add four circle primitives for the rounded corners*
1,1,$1+$1,$2,$3*
1,1,$1+$1,$4,$5*
1,1,$1+$1,$6,$7*
1,1,$1+$1,$8,$9*
0 Add four rect primitives between the rounded corners*
20,1,$1+$1,$2,$3,$4,$5,0*
20,1,$1+$1,$4,$5,$6,$7,0*
20,1,$1+$1,$6,$7,$8,$9,0*
20,1,$1+$1,$8,$9,$2,$3,0*%
%AMRotRect*
0 Rectangle, with rotation*
0 The origin of the aperture is its center*
0 $1 length*
0 $2 width*
0 $3 Rotation angle, in degrees counterclockwise*
0 Add horizontal line*
21,1,$1,$2,0,0,$3*%
G04 Aperture macros list end*
G04 #@! TA.AperFunction,SMDPad,CuDef*
%ADD10R,3.300000X3.000000*%
G04 #@! TD*
G04 #@! TA.AperFunction,ComponentPad*
%ADD11O,1.800000X1.200000*%
G04 #@! TD*
G04 #@! TA.AperFunction,ComponentPad*
%ADD12O,1.900000X1.900000*%
G04 #@! TD*
G04 #@! TA.AperFunction,ComponentPad*
%ADD13O,1.200000X2.500000*%
G04 #@! TD*
G04 #@! TA.AperFunction,SMDPad,CuDef*
%ADD14RotRect,3.300000X3.000000X255.000000*%
G04 #@! TD*
G04 #@! TA.AperFunction,SMDPad,CuDef*
%ADD15R,1.200000X0.900000*%
G04 #@! TD*
G04 #@! TA.AperFunction,SMDPad,CuDef*
%ADD16RoundRect,0.180000X0.270000X0.270000X-0.270000X0.270000X-0.270000X-0.270000X0.270000X-0.270000X0*%
G04 #@! TD*
G04 #@! TA.AperFunction,SMDPad,CuDef*
%ADD17R,2.200000X0.820000*%
G04 #@! TD*
G04 #@! TA.AperFunction,SMDPad,CuDef*
%ADD18RoundRect,0.180000X0.270000X-0.270000X0.270000X0.270000X-0.270000X0.270000X-0.270000X-0.270000X0*%
G04 #@! TD*
G04 #@! TA.AperFunction,ComponentPad*
%ADD19RoundRect,0.250000X0.350000X0.625000X-0.350000X0.625000X-0.350000X-0.625000X0.350000X-0.625000X0*%
G04 #@! TD*
G04 #@! TA.AperFunction,ComponentPad*
%ADD20O,1.200000X1.750000*%
G04 #@! TD*
G04 #@! TA.AperFunction,SMDPad,CuDef*
%ADD21RoundRect,0.087500X0.250000X0.087500X-0.250000X0.087500X-0.250000X-0.087500X0.250000X-0.087500X0*%
G04 #@! TD*
G04 #@! TA.AperFunction,SMDPad,CuDef*
%ADD22RoundRect,0.180000X0.330681X0.190919X-0.190919X0.330681X-0.330681X-0.190919X0.190919X-0.330681X0*%
G04 #@! TD*
G04 #@! TA.AperFunction,SMDPad,CuDef*
%ADD23RoundRect,0.150000X0.512500X0.150000X-0.512500X0.150000X-0.512500X-0.150000X0.512500X-0.150000X0*%
G04 #@! TD*
G04 #@! TA.AperFunction,SMDPad,CuDef*
%ADD24RoundRect,0.230000X0.670000X-0.345000X0.670000X0.345000X-0.670000X0.345000X-0.670000X-0.345000X0*%
G04 #@! TD*
G04 #@! TA.AperFunction,SMDPad,CuDef*
%ADD25RotRect,2.200000X0.820000X255.000000*%
G04 #@! TD*
G04 #@! TA.AperFunction,SMDPad,CuDef*
%ADD26RotRect,0.900000X1.200000X165.000000*%
G04 #@! TD*
G04 #@! TA.AperFunction,SMDPad,CuDef*
%ADD27RotRect,0.900000X1.200000X345.000000*%
G04 #@! TD*
G04 #@! TA.AperFunction,ViaPad*
%ADD28C,0.650000*%
G04 #@! TD*
G04 #@! TA.AperFunction,ViaPad*
%ADD29C,0.500000*%
G04 #@! TD*
G04 #@! TA.AperFunction,Conductor*
%ADD30C,0.250000*%
G04 #@! TD*
G04 #@! TA.AperFunction,Conductor*
%ADD31C,0.200000*%
G04 #@! TD*
G04 APERTURE END LIST*
D10*
G04 #@! TO.P,SW41,1*
G04 #@! TO.N,/COL0*
X140187500Y-64095000D03*
G04 #@! TO.P,SW41,2*
G04 #@! TO.N,/matrix/SW41_A*
X153787500Y-61555000D03*
G04 #@! TD*
D11*
G04 #@! TO.P,U1,17*
G04 #@! TO.N,/RGB_EN_LEFT*
X139957500Y-10337500D03*
D12*
G04 #@! TO.P,U1,26*
G04 #@! TO.N,unconnected-(U1-RESET-Pad26)*
X147342500Y-5575000D03*
G04 #@! TO.P,U1,27*
G04 #@! TO.N,/GND_LEFT*
X149882500Y-5575000D03*
D13*
G04 #@! TO.P,U1,28*
G04 #@! TO.N,/VBAT_LEFT*
X147618512Y-17125323D03*
G04 #@! TO.P,U1,29*
G04 #@! TO.N,/GND_LEFT*
X149618512Y-17125323D03*
G04 #@! TD*
D10*
G04 #@! TO.P,SW4,1*
G04 #@! TO.N,/COL2*
X102087500Y-8850000D03*
G04 #@! TO.P,SW4,2*
G04 #@! TO.N,/matrix/SW4_A*
X115687500Y-6310000D03*
G04 #@! TD*
G04 #@! TO.P,SW26,1*
G04 #@! TO.N,/COL1*
X140187500Y-45045000D03*
G04 #@! TO.P,SW26,2*
G04 #@! TO.N,/matrix/SW26_A*
X153787500Y-42505000D03*
G04 #@! TD*
G04 #@! TO.P,SW55,1*
G04 #@! TO.N,/COL0*
X33031300Y-87907500D03*
G04 #@! TO.P,SW55,2*
G04 #@! TO.N,/matrix/SW55_A*
X46631300Y-85367500D03*
G04 #@! TD*
G04 #@! TO.P,SW37,1*
G04 #@! TO.N,/COL2*
X23506300Y-49807500D03*
G04 #@! TO.P,SW37,2*
G04 #@! TO.N,/matrix/SW37_A*
X37106300Y-47267500D03*
G04 #@! TD*
G04 #@! TO.P,SW1,1*
G04 #@! TO.N,/COL0*
X83037500Y-6945000D03*
G04 #@! TO.P,SW1,2*
G04 #@! TO.N,/matrix/SW1_A*
X96637500Y-4405000D03*
G04 #@! TD*
G04 #@! TO.P,SW33,1*
G04 #@! TO.N,/COL0*
X44937500Y-48855000D03*
G04 #@! TO.P,SW33,2*
G04 #@! TO.N,/matrix/SW33_A*
X58537500Y-46315000D03*
G04 #@! TD*
G04 #@! TO.P,SW23,1*
G04 #@! TO.N,/COL3*
X23506300Y-30757500D03*
G04 #@! TO.P,SW23,2*
G04 #@! TO.N,/matrix/SW23_A*
X37106300Y-28217500D03*
G04 #@! TD*
G04 #@! TO.P,SW15,1*
G04 #@! TO.N,/COL3*
X63987500Y-27900000D03*
G04 #@! TO.P,SW15,2*
G04 #@! TO.N,/matrix/SW15_A*
X77587500Y-25360000D03*
G04 #@! TD*
G04 #@! TO.P,SW53,1*
G04 #@! TO.N,/COL2*
X90181300Y-85050000D03*
G04 #@! TO.P,SW53,2*
G04 #@! TO.N,/matrix/SW53_A*
X103781300Y-82510000D03*
G04 #@! TD*
G04 #@! TO.P,SW16,1*
G04 #@! TO.N,/COL0*
X102087500Y-27900000D03*
G04 #@! TO.P,SW16,2*
G04 #@! TO.N,/matrix/SW16_A*
X115687500Y-25360000D03*
G04 #@! TD*
G04 #@! TO.P,SW54,1*
G04 #@! TO.N,/COL3*
X63987500Y-86955000D03*
G04 #@! TO.P,SW54,2*
G04 #@! TO.N,/matrix/SW54_A*
X77587500Y-84415000D03*
G04 #@! TD*
G04 #@! TO.P,SW3,1*
G04 #@! TO.N,/COL1*
X63987500Y-8850000D03*
G04 #@! TO.P,SW3,2*
G04 #@! TO.N,/matrix/SW3_A*
X77587500Y-6310000D03*
G04 #@! TD*
G04 #@! TO.P,SW40,1*
G04 #@! TO.N,/COL3*
X83037500Y-64095000D03*
G04 #@! TO.P,SW40,2*
G04 #@! TO.N,/matrix/SW40_A*
X96637500Y-61555000D03*
G04 #@! TD*
G04 #@! TO.P,SW44,1*
G04 #@! TO.N,/COL2*
X102087500Y-66000000D03*
G04 #@! TO.P,SW44,2*
G04 #@! TO.N,/matrix/SW44_A*
X115687500Y-63460000D03*
G04 #@! TD*
D14*
G04 #@! TO.P,SW58,1*
G04 #@! TO.N,/COL1*
X116329609Y-107910295D03*
G04 #@! TO.P,SW58,2*
G04 #@! TO.N,/matrix/SW58_A*
X117396097Y-94116302D03*
G04 #@! TD*
D10*
G04 #@! TO.P,SW34,1*
G04 #@! TO.N,/COL1*
X121137500Y-48855000D03*
G04 #@! TO.P,SW34,2*
G04 #@! TO.N,/matrix/SW34_A*
X134737500Y-46315000D03*
G04 #@! TD*
G04 #@! TO.P,SW20,1*
G04 #@! TO.N,/COL2*
X121137500Y-29805000D03*
G04 #@! TO.P,SW20,2*
G04 #@! TO.N,/matrix/SW20_A*
X134737500Y-27265000D03*
G04 #@! TD*
G04 #@! TO.P,SW29,1*
G04 #@! TO.N,/COL2*
X63987500Y-46950000D03*
G04 #@! TO.P,SW29,2*
G04 #@! TO.N,/matrix/SW29_A*
X77587500Y-44410000D03*
G04 #@! TD*
G04 #@! TO.P,SW19,1*
G04 #@! TO.N,/COL1*
X44937500Y-29805000D03*
G04 #@! TO.P,SW19,2*
G04 #@! TO.N,/matrix/SW19_A*
X58537500Y-27265000D03*
G04 #@! TD*
D14*
G04 #@! TO.P,SW59,1*
G04 #@! TO.N,/COL2*
X135398387Y-110502751D03*
G04 #@! TO.P,SW59,2*
G04 #@! TO.N,/matrix/SW59_A*
X136438993Y-96805352D03*
G04 #@! TD*
D10*
G04 #@! TO.P,SW43,1*
G04 #@! TO.N,/COL1*
X63987500Y-66000000D03*
G04 #@! TO.P,SW43,2*
G04 #@! TO.N,/matrix/SW43_A*
X77587500Y-63460000D03*
G04 #@! TD*
G04 #@! TO.P,SW51,1*
G04 #@! TO.N,/COL1*
X23506300Y-68857500D03*
G04 #@! TO.P,SW51,2*
G04 #@! TO.N,/matrix/SW51_A*
X37106300Y-66317500D03*
G04 #@! TD*
G04 #@! TO.P,SW7,1*
G04 #@! TO.N,/COL3*
X44937500Y-10755000D03*
G04 #@! TO.P,SW7,2*
G04 #@! TO.N,/matrix/SW7_A*
X58537500Y-8215000D03*
G04 #@! TD*
G04 #@! TO.P,SW11,1*
G04 #@! TO.N,/COL1*
X25887500Y-11707500D03*
G04 #@! TO.P,SW11,2*
G04 #@! TO.N,/matrix/SW11_A*
X39487500Y-9167500D03*
G04 #@! TD*
G04 #@! TO.P,SW13,1*
G04 #@! TO.N,/COL2*
X83037500Y-25995000D03*
G04 #@! TO.P,SW13,2*
G04 #@! TO.N,/matrix/SW13_A*
X96637500Y-23455000D03*
G04 #@! TD*
G04 #@! TO.P,SW48,1*
G04 #@! TO.N,/COL0*
X121137500Y-67905000D03*
G04 #@! TO.P,SW48,2*
G04 #@! TO.N,/matrix/SW48_A*
X134737500Y-65365000D03*
G04 #@! TD*
G04 #@! TO.P,SW47,1*
G04 #@! TO.N,/COL3*
X44937500Y-67905000D03*
G04 #@! TO.P,SW47,2*
G04 #@! TO.N,/matrix/SW47_A*
X58537500Y-65365000D03*
G04 #@! TD*
G04 #@! TO.P,SW25,1*
G04 #@! TO.N,/COL0*
X83037500Y-45045000D03*
G04 #@! TO.P,SW25,2*
G04 #@! TO.N,/matrix/SW25_A*
X96637500Y-42505000D03*
G04 #@! TD*
G04 #@! TO.P,SW8,1*
G04 #@! TO.N,/COL0*
X121137500Y-10755000D03*
G04 #@! TO.P,SW8,2*
G04 #@! TO.N,/matrix/SW8_A*
X134737500Y-8215000D03*
G04 #@! TD*
G04 #@! TO.P,SW30,1*
G04 #@! TO.N,/COL3*
X102087500Y-46950000D03*
G04 #@! TO.P,SW30,2*
G04 #@! TO.N,/matrix/SW30_A*
X115687500Y-44410000D03*
G04 #@! TD*
D15*
G04 #@! TO.P,D1,1*
G04 #@! TO.N,/ROW0*
X99000000Y-15000000D03*
G04 #@! TO.P,D1,2*
G04 #@! TO.N,/matrix/SW1_A*
X99000000Y-11700000D03*
G04 #@! TD*
D16*
G04 #@! TO.P,R_RGB_EN_PD1,1*
G04 #@! TO.N,/RGB_EN_LEFT*
X148750000Y-39500000D03*
G04 #@! TO.P,R_RGB_EN_PD1,2*
G04 #@! TO.N,/GND_LEFT*
X147250000Y-39500000D03*
G04 #@! TD*
D15*
G04 #@! TO.P,D40,1*
G04 #@! TO.N,/ROW4*
X98000000Y-72000000D03*
G04 #@! TO.P,D40,2*
G04 #@! TO.N,/matrix/SW40_A*
X98000000Y-68700000D03*
G04 #@! TD*
D17*
G04 #@! TO.P,LED34,1*
G04 #@! TO.N,/RGB_5V_LEFT*
X125427500Y-55935000D03*
G04 #@! TO.P,LED34,2*
G04 #@! TO.N,/GND_LEFT*
X131747500Y-55935000D03*
G04 #@! TO.P,LED34,3*
G04 #@! TO.N,/rgb/RGB_LED_left_16*
X131747500Y-57435000D03*
G04 #@! TO.P,LED34,4*
G04 #@! TO.N,/rgb/RGB_LED_left_17*
X125427500Y-57435000D03*
G04 #@! TD*
G04 #@! TO.P,LED30,1*
G04 #@! TO.N,/RGB_5V_LEFT*
X106377500Y-54030000D03*
G04 #@! TO.P,LED30,2*
G04 #@! TO.N,/GND_LEFT*
X112697500Y-54030000D03*
G04 #@! TO.P,LED30,3*
G04 #@! TO.N,/rgb/RGB_LED_left_14*
X112697500Y-55530000D03*
G04 #@! TO.P,LED30,4*
G04 #@! TO.N,/rgb/RGB_LED_left_15*
X106377500Y-55530000D03*
G04 #@! TD*
D18*
G04 #@! TO.P,C_RGB4,1*
G04 #@! TO.N,/RGB_5V_LEFT*
X103037500Y-17430000D03*
G04 #@! TO.P,C_RGB4,2*
G04 #@! TO.N,/GND_LEFT*
X103037500Y-15930000D03*
G04 #@! TD*
G04 #@! TO.P,C_RGB16,1*
G04 #@! TO.N,/RGB_5V_LEFT*
X103037500Y-36480000D03*
G04 #@! TO.P,C_RGB16,2*
G04 #@! TO.N,/GND_LEFT*
X103037500Y-34980000D03*
G04 #@! TD*
G04 #@! TO.P,C_RGB37,1*
G04 #@! TO.N,/RGB_5V_LEFT*
X24456300Y-58387500D03*
G04 #@! TO.P,C_RGB37,2*
G04 #@! TO.N,/GND_LEFT*
X24456300Y-56887500D03*
G04 #@! TD*
D17*
G04 #@! TO.P,LED33,1*
G04 #@! TO.N,/RGB_5V_LEFT*
X49227500Y-55935000D03*
G04 #@! TO.P,LED33,2*
G04 #@! TO.N,/GND_LEFT*
X55547500Y-55935000D03*
G04 #@! TO.P,LED33,3*
G04 #@! TO.N,/rgb/RGB_LED_left_15*
X55547500Y-57435000D03*
G04 #@! TO.P,LED33,4*
G04 #@! TO.N,/rgb/RGB_LED_left_16*
X49227500Y-57435000D03*
G04 #@! TD*
D18*
G04 #@! TO.P,C_RGB1,1*
G04 #@! TO.N,/RGB_5V_LEFT*
X83987500Y-15525000D03*
G04 #@! TO.P,C_RGB1,2*
G04 #@! TO.N,/GND_LEFT*
X83987500Y-14025000D03*
G04 #@! TD*
D17*
G04 #@! TO.P,LED48,1*
G04 #@! TO.N,/RGB_5V_LEFT*
X125427500Y-74985000D03*
G04 #@! TO.P,LED48,2*
G04 #@! TO.N,/GND_LEFT*
X131747500Y-74985000D03*
G04 #@! TO.P,LED48,3*
G04 #@! TO.N,/rgb/RGB_LED_left_23*
X131747500Y-76485000D03*
G04 #@! TO.P,LED48,4*
G04 #@! TO.N,/rgb/RGB_LED_left_24*
X125427500Y-76485000D03*
G04 #@! TD*
D18*
G04 #@! TO.P,C_RGB44,1*
G04 #@! TO.N,/RGB_5V_LEFT*
X103037500Y-74580000D03*
G04 #@! TO.P,C_RGB44,2*
G04 #@! TO.N,/GND_LEFT*
X103037500Y-73080000D03*
G04 #@! TD*
G04 #@! TO.P,C_RGB_OUT1_1,1*
G04 #@! TO.N,/RGB_5V_LEFT*
X150000000Y-34750000D03*
G04 #@! TO.P,C_RGB_OUT1_1,2*
G04 #@! TO.N,/GND_LEFT*
X150000000Y-33250000D03*
G04 #@! TD*
G04 #@! TO.P,C_RGB_OUT2_1,1*
G04 #@! TO.N,/RGB_5V_LEFT*
X153000000Y-34750000D03*
G04 #@! TO.P,C_RGB_OUT2_1,2*
G04 #@! TO.N,/GND_LEFT*
X153000000Y-33250000D03*
G04 #@! TD*
D17*
G04 #@! TO.P,LED29,1*
G04 #@! TO.N,/RGB_5V_LEFT*
X68277500Y-54030000D03*
G04 #@! TO.P,LED29,2*
G04 #@! TO.N,/GND_LEFT*
X74597500Y-54030000D03*
G04 #@! TO.P,LED29,3*
G04 #@! TO.N,/rgb/RGB_LED_left_13*
X74597500Y-55530000D03*
G04 #@! TO.P,LED29,4*
G04 #@! TO.N,/rgb/RGB_LED_left_14*
X68277500Y-55530000D03*
G04 #@! TD*
G04 #@! TO.P,LED11,1*
G04 #@! TO.N,/RGB_5V_LEFT*
X30177500Y-18787500D03*
G04 #@! TO.P,LED11,2*
G04 #@! TO.N,/GND_LEFT*
X36497500Y-18787500D03*
G04 #@! TO.P,LED11,3*
G04 #@! TO.N,/rgb/RGB_LED_left_4*
X36497500Y-20287500D03*
G04 #@! TO.P,LED11,4*
G04 #@! TO.N,/rgb/RGB_LED_left_5*
X30177500Y-20287500D03*
G04 #@! TD*
D18*
G04 #@! TO.P,C_RGB20,1*
G04 #@! TO.N,/RGB_5V_LEFT*
X122087500Y-38385000D03*
G04 #@! TO.P,C_RGB20,2*
G04 #@! TO.N,/GND_LEFT*
X122087500Y-36885000D03*
G04 #@! TD*
D17*
G04 #@! TO.P,LED8,1*
G04 #@! TO.N,/RGB_5V_LEFT*
X125427500Y-17835000D03*
G04 #@! TO.P,LED8,2*
G04 #@! TO.N,/GND_LEFT*
X131747500Y-17835000D03*
G04 #@! TO.P,LED8,3*
G04 #@! TO.N,/rgb/RGB_LED_left_3*
X131747500Y-19335000D03*
G04 #@! TO.P,LED8,4*
G04 #@! TO.N,/rgb/RGB_LED_left_4*
X125427500Y-19335000D03*
G04 #@! TD*
D19*
G04 #@! TO.P,J1,1*
G04 #@! TO.N,/power/BAT_RAW_LEFT*
X141500000Y-30300000D03*
D20*
G04 #@! TO.P,J1,2*
G04 #@! TO.N,/GND_LEFT*
X139500000Y-30300000D03*
G04 #@! TD*
D18*
G04 #@! TO.P,C_RGB29,1*
G04 #@! TO.N,/RGB_5V_LEFT*
X64937500Y-55530000D03*
G04 #@! TO.P,C_RGB29,2*
G04 #@! TO.N,/GND_LEFT*
X64937500Y-54030000D03*
G04 #@! TD*
D17*
G04 #@! TO.P,LED26,1*
G04 #@! TO.N,/RGB_5V_LEFT*
X142840000Y-52750000D03*
G04 #@! TO.P,LED26,2*
G04 #@! TO.N,/GND_LEFT*
X149160000Y-52750000D03*
G04 #@! TO.P,LED26,3*
G04 #@! TO.N,/rgb/RGB_LED_left_12*
X149160000Y-54250000D03*
G04 #@! TO.P,LED26,4*
G04 #@! TO.N,/rgb/RGB_LED_left_13*
X142840000Y-54250000D03*
G04 #@! TD*
D15*
G04 #@! TO.P,D20,1*
G04 #@! TO.N,/ROW2*
X137000000Y-41150000D03*
G04 #@! TO.P,D20,2*
G04 #@! TO.N,/matrix/SW20_A*
X137000000Y-37850000D03*
G04 #@! TD*
G04 #@! TO.P,D25,1*
G04 #@! TO.N,/ROW3*
X98500000Y-52000000D03*
G04 #@! TO.P,D25,2*
G04 #@! TO.N,/matrix/SW25_A*
X98500000Y-48700000D03*
G04 #@! TD*
D16*
G04 #@! TO.P,L_RGB1,1*
G04 #@! TO.N,/VBAT_LEFT*
X147750000Y-30600000D03*
G04 #@! TO.P,L_RGB1,2*
G04 #@! TO.N,/power/RGB_SW_LEFT*
X146250000Y-30600000D03*
G04 #@! TD*
D15*
G04 #@! TO.P,D44,1*
G04 #@! TO.N,/ROW5*
X117500000Y-73500000D03*
G04 #@! TO.P,D44,2*
G04 #@! TO.N,/matrix/SW44_A*
X117500000Y-70200000D03*
G04 #@! TD*
D17*
G04 #@! TO.P,LED41,1*
G04 #@! TO.N,/RGB_5V_LEFT*
X143215000Y-72250000D03*
G04 #@! TO.P,LED41,2*
G04 #@! TO.N,/GND_LEFT*
X149535000Y-72250000D03*
G04 #@! TO.P,LED41,3*
G04 #@! TO.N,/rgb/RGB_LED_left_19*
X149535000Y-73750000D03*
G04 #@! TO.P,LED41,4*
G04 #@! TO.N,/rgb/RGB_LED_left_20*
X143215000Y-73750000D03*
G04 #@! TD*
D15*
G04 #@! TO.P,D48,1*
G04 #@! TO.N,/ROW6*
X137000000Y-79000000D03*
G04 #@! TO.P,D48,2*
G04 #@! TO.N,/matrix/SW48_A*
X137000000Y-75700000D03*
G04 #@! TD*
D17*
G04 #@! TO.P,LED37,1*
G04 #@! TO.N,/RGB_5V_LEFT*
X27796300Y-56887500D03*
G04 #@! TO.P,LED37,2*
G04 #@! TO.N,/GND_LEFT*
X34116300Y-56887500D03*
G04 #@! TO.P,LED37,3*
G04 #@! TO.N,/rgb/RGB_LED_left_17*
X34116300Y-58387500D03*
G04 #@! TO.P,LED37,4*
G04 #@! TO.N,/rgb/RGB_LED_left_18*
X27796300Y-58387500D03*
G04 #@! TD*
D21*
G04 #@! TO.P,U_RGB1,1*
G04 #@! TO.N,/power/RGB_FB_LEFT*
X147712500Y-33500000D03*
G04 #@! TO.P,U_RGB1,2*
G04 #@! TO.N,/RGB_EN_LEFT*
X147712500Y-34000000D03*
G04 #@! TO.P,U_RGB1,3*
G04 #@! TO.N,/VBAT_LEFT*
X147712500Y-34500000D03*
G04 #@! TO.P,U_RGB1,4*
G04 #@! TO.N,/GND_LEFT*
X146287500Y-34500000D03*
G04 #@! TO.P,U_RGB1,5*
G04 #@! TO.N,/power/RGB_SW_LEFT*
X146287500Y-34000000D03*
G04 #@! TO.P,U_RGB1,6*
G04 #@! TO.N,/RGB_5V_LEFT*
X146287500Y-33500000D03*
G04 #@! TD*
D18*
G04 #@! TO.P,C_RGB_IN1,1*
G04 #@! TO.N,/VBAT_LEFT*
X144000000Y-39550000D03*
G04 #@! TO.P,C_RGB_IN1,2*
G04 #@! TO.N,/GND_LEFT*
X144000000Y-38050000D03*
G04 #@! TD*
G04 #@! TO.P,C_RGB53,1*
G04 #@! TO.N,/RGB_5V_LEFT*
X91131300Y-93630000D03*
G04 #@! TO.P,C_RGB53,2*
G04 #@! TO.N,/GND_LEFT*
X91131300Y-92130000D03*
G04 #@! TD*
D22*
G04 #@! TO.P,C_RGB59,1*
G04 #@! TO.N,/RGB_5V_LEFT*
X143880344Y-111843714D03*
G04 #@! TO.P,C_RGB59,2*
G04 #@! TO.N,/GND_LEFT*
X142431456Y-111455486D03*
G04 #@! TD*
D17*
G04 #@! TO.P,LED13,1*
G04 #@! TO.N,/RGB_5V_LEFT*
X87327500Y-33075000D03*
G04 #@! TO.P,LED13,2*
G04 #@! TO.N,/GND_LEFT*
X93647500Y-33075000D03*
G04 #@! TO.P,LED13,3*
G04 #@! TO.N,/rgb/RGB_LED_left_5*
X93647500Y-34575000D03*
G04 #@! TO.P,LED13,4*
G04 #@! TO.N,/rgb/RGB_LED_left_6*
X87327500Y-34575000D03*
G04 #@! TD*
G04 #@! TO.P,LED51,1*
G04 #@! TO.N,/RGB_5V_LEFT*
X27796300Y-75937500D03*
G04 #@! TO.P,LED51,2*
G04 #@! TO.N,/GND_LEFT*
X34116300Y-75937500D03*
G04 #@! TO.P,LED51,3*
G04 #@! TO.N,/rgb/RGB_LED_left_24*
X34116300Y-77437500D03*
G04 #@! TO.P,LED51,4*
G04 #@! TO.N,/rgb/RGB_LED_left_25*
X27796300Y-77437500D03*
G04 #@! TD*
D15*
G04 #@! TO.P,D41,1*
G04 #@! TO.N,/ROW5*
X155500000Y-75150000D03*
G04 #@! TO.P,D41,2*
G04 #@! TO.N,/matrix/SW41_A*
X155500000Y-71850000D03*
G04 #@! TD*
D18*
G04 #@! TO.P,C_RGB41,1*
G04 #@! TO.N,/RGB_5V_LEFT*
X139875000Y-73750000D03*
G04 #@! TO.P,C_RGB41,2*
G04 #@! TO.N,/GND_LEFT*
X139875000Y-72250000D03*
G04 #@! TD*
G04 #@! TO.P,C_RGB43,1*
G04 #@! TO.N,/RGB_5V_LEFT*
X64937500Y-74580000D03*
G04 #@! TO.P,C_RGB43,2*
G04 #@! TO.N,/GND_LEFT*
X64937500Y-73080000D03*
G04 #@! TD*
D17*
G04 #@! TO.P,LED4,1*
G04 #@! TO.N,/RGB_5V_LEFT*
X106377500Y-15930000D03*
G04 #@! TO.P,LED4,2*
G04 #@! TO.N,/GND_LEFT*
X112697500Y-15930000D03*
G04 #@! TO.P,LED4,3*
G04 #@! TO.N,/rgb/RGB_LED_left_1*
X112697500Y-17430000D03*
G04 #@! TO.P,LED4,4*
G04 #@! TO.N,/rgb/RGB_LED_left_2*
X106377500Y-17430000D03*
G04 #@! TD*
D18*
G04 #@! TO.P,C_RGB7,1*
G04 #@! TO.N,/RGB_5V_LEFT*
X45887500Y-19335000D03*
G04 #@! TO.P,C_RGB7,2*
G04 #@! TO.N,/GND_LEFT*
X45887500Y-17835000D03*
G04 #@! TD*
G04 #@! TO.P,C_RGB3,1*
G04 #@! TO.N,/RGB_5V_LEFT*
X64937500Y-17430000D03*
G04 #@! TO.P,C_RGB3,2*
G04 #@! TO.N,/GND_LEFT*
X64937500Y-15930000D03*
G04 #@! TD*
D16*
G04 #@! TO.P,R_RGB_FB_TOP1,1*
G04 #@! TO.N,/RGB_5V_LEFT*
X150750000Y-37300000D03*
G04 #@! TO.P,R_RGB_FB_TOP1,2*
G04 #@! TO.N,/power/RGB_FB_LEFT*
X149250000Y-37300000D03*
G04 #@! TD*
D17*
G04 #@! TO.P,LED23,1*
G04 #@! TO.N,/RGB_5V_LEFT*
X27796300Y-37837500D03*
G04 #@! TO.P,LED23,2*
G04 #@! TO.N,/GND_LEFT*
X34116300Y-37837500D03*
G04 #@! TO.P,LED23,3*
G04 #@! TO.N,/rgb/RGB_LED_left_10*
X34116300Y-39337500D03*
G04 #@! TO.P,LED23,4*
G04 #@! TO.N,/rgb/RGB_LED_left_11*
X27796300Y-39337500D03*
G04 #@! TD*
D18*
G04 #@! TO.P,C_RGB48,1*
G04 #@! TO.N,/RGB_5V_LEFT*
X122087500Y-76485000D03*
G04 #@! TO.P,C_RGB48,2*
G04 #@! TO.N,/GND_LEFT*
X122087500Y-74985000D03*
G04 #@! TD*
D17*
G04 #@! TO.P,LED16,1*
G04 #@! TO.N,/RGB_5V_LEFT*
X106377500Y-34980000D03*
G04 #@! TO.P,LED16,2*
G04 #@! TO.N,/GND_LEFT*
X112697500Y-34980000D03*
G04 #@! TO.P,LED16,3*
G04 #@! TO.N,/rgb/RGB_LED_left_7*
X112697500Y-36480000D03*
G04 #@! TO.P,LED16,4*
G04 #@! TO.N,/rgb/RGB_LED_left_8*
X106377500Y-36480000D03*
G04 #@! TD*
D18*
G04 #@! TO.P,C_RGB13,1*
G04 #@! TO.N,/RGB_5V_LEFT*
X83987500Y-34575000D03*
G04 #@! TO.P,C_RGB13,2*
G04 #@! TO.N,/GND_LEFT*
X83987500Y-33075000D03*
G04 #@! TD*
G04 #@! TO.P,C_RGB47,1*
G04 #@! TO.N,/RGB_5V_LEFT*
X45887500Y-76485000D03*
G04 #@! TO.P,C_RGB47,2*
G04 #@! TO.N,/GND_LEFT*
X45887500Y-74985000D03*
G04 #@! TD*
G04 #@! TO.P,C_RGB40,1*
G04 #@! TO.N,/RGB_5V_LEFT*
X83987500Y-72675000D03*
G04 #@! TO.P,C_RGB40,2*
G04 #@! TO.N,/GND_LEFT*
X83987500Y-71175000D03*
G04 #@! TD*
D15*
G04 #@! TO.P,D47,1*
G04 #@! TO.N,/ROW5*
X60000000Y-75500000D03*
G04 #@! TO.P,D47,2*
G04 #@! TO.N,/matrix/SW47_A*
X60000000Y-72200000D03*
G04 #@! TD*
D23*
G04 #@! TO.P,U_LS1,1*
G04 #@! TO.N,/GND_LEFT*
X146137500Y-22050000D03*
G04 #@! TO.P,U_LS1,2*
G04 #@! TO.N,/RGB_DATA_LEFT*
X146137500Y-23000000D03*
G04 #@! TO.P,U_LS1,3*
G04 #@! TO.N,/GND_LEFT*
X146137500Y-23950000D03*
G04 #@! TO.P,U_LS1,4*
G04 #@! TO.N,/power/RGB_SHIFTED_LEFT*
X143862500Y-23950000D03*
G04 #@! TO.P,U_LS1,5*
G04 #@! TO.N,/RGB_5V_LEFT*
X143862500Y-22050000D03*
G04 #@! TD*
D17*
G04 #@! TO.P,LED40,1*
G04 #@! TO.N,/RGB_5V_LEFT*
X87327500Y-71175000D03*
G04 #@! TO.P,LED40,2*
G04 #@! TO.N,/GND_LEFT*
X93647500Y-71175000D03*
G04 #@! TO.P,LED40,3*
G04 #@! TO.N,/rgb/RGB_LED_left_18*
X93647500Y-72675000D03*
G04 #@! TO.P,LED40,4*
G04 #@! TO.N,/rgb/RGB_LED_left_19*
X87327500Y-72675000D03*
G04 #@! TD*
D15*
G04 #@! TO.P,D8,1*
G04 #@! TO.N,/ROW1*
X137000000Y-22000000D03*
G04 #@! TO.P,D8,2*
G04 #@! TO.N,/matrix/SW8_A*
X137000000Y-18700000D03*
G04 #@! TD*
D18*
G04 #@! TO.P,C_RGB26,1*
G04 #@! TO.N,/RGB_5V_LEFT*
X139500000Y-54250000D03*
G04 #@! TO.P,C_RGB26,2*
G04 #@! TO.N,/GND_LEFT*
X139500000Y-52750000D03*
G04 #@! TD*
G04 #@! TO.P,R_RGB_DATA1,1*
G04 #@! TO.N,/power/RGB_SHIFTED_LEFT*
X141800000Y-23750000D03*
G04 #@! TO.P,R_RGB_DATA1,2*
G04 #@! TO.N,/RGB_DATA_SHIFTED_LEFT*
X141800000Y-22250000D03*
G04 #@! TD*
D15*
G04 #@! TO.P,D11,1*
G04 #@! TO.N,/ROW1*
X39500000Y-24000000D03*
G04 #@! TO.P,D11,2*
G04 #@! TO.N,/matrix/SW11_A*
X39500000Y-20700000D03*
G04 #@! TD*
G04 #@! TO.P,D26,1*
G04 #@! TO.N,/ROW3*
X155500000Y-56150000D03*
G04 #@! TO.P,D26,2*
G04 #@! TO.N,/matrix/SW26_A*
X155500000Y-52850000D03*
G04 #@! TD*
G04 #@! TO.P,D15,1*
G04 #@! TO.N,/ROW1*
X79000000Y-35500000D03*
G04 #@! TO.P,D15,2*
G04 #@! TO.N,/matrix/SW15_A*
X79000000Y-32200000D03*
G04 #@! TD*
D18*
G04 #@! TO.P,C_RGB23,1*
G04 #@! TO.N,/RGB_5V_LEFT*
X24456300Y-39337500D03*
G04 #@! TO.P,C_RGB23,2*
G04 #@! TO.N,/GND_LEFT*
X24456300Y-37837500D03*
G04 #@! TD*
G04 #@! TO.P,C_RGB55,1*
G04 #@! TO.N,/RGB_5V_LEFT*
X33981300Y-96487500D03*
G04 #@! TO.P,C_RGB55,2*
G04 #@! TO.N,/GND_LEFT*
X33981300Y-94987500D03*
G04 #@! TD*
G04 #@! TO.P,C_RGB19,1*
G04 #@! TO.N,/RGB_5V_LEFT*
X45887500Y-38385000D03*
G04 #@! TO.P,C_RGB19,2*
G04 #@! TO.N,/GND_LEFT*
X45887500Y-36885000D03*
G04 #@! TD*
D17*
G04 #@! TO.P,LED43,1*
G04 #@! TO.N,/RGB_5V_LEFT*
X68277500Y-73080000D03*
G04 #@! TO.P,LED43,2*
G04 #@! TO.N,/GND_LEFT*
X74597500Y-73080000D03*
G04 #@! TO.P,LED43,3*
G04 #@! TO.N,/rgb/RGB_LED_left_20*
X74597500Y-74580000D03*
G04 #@! TO.P,LED43,4*
G04 #@! TO.N,/rgb/RGB_LED_left_21*
X68277500Y-74580000D03*
G04 #@! TD*
D15*
G04 #@! TO.P,D29,1*
G04 #@! TO.N,/ROW3*
X79500000Y-53500000D03*
G04 #@! TO.P,D29,2*
G04 #@! TO.N,/matrix/SW29_A*
X79500000Y-50200000D03*
G04 #@! TD*
D18*
G04 #@! TO.P,C_RGB30,1*
G04 #@! TO.N,/RGB_5V_LEFT*
X103037500Y-55530000D03*
G04 #@! TO.P,C_RGB30,2*
G04 #@! TO.N,/GND_LEFT*
X103037500Y-54030000D03*
G04 #@! TD*
D17*
G04 #@! TO.P,LED19,1*
G04 #@! TO.N,/RGB_5V_LEFT*
X49227500Y-36885000D03*
G04 #@! TO.P,LED19,2*
G04 #@! TO.N,/GND_LEFT*
X55547500Y-36885000D03*
G04 #@! TO.P,LED19,3*
G04 #@! TO.N,/rgb/RGB_LED_left_8*
X55547500Y-38385000D03*
G04 #@! TO.P,LED19,4*
G04 #@! TO.N,/rgb/RGB_LED_left_9*
X49227500Y-38385000D03*
G04 #@! TD*
D24*
G04 #@! TO.P,C_RGB_BULK1,1*
G04 #@! TO.N,/RGB_5V_LEFT*
X156000000Y-37975000D03*
G04 #@! TO.P,C_RGB_BULK1,2*
G04 #@! TO.N,/GND_LEFT*
X156000000Y-35025000D03*
G04 #@! TD*
D15*
G04 #@! TO.P,D53,1*
G04 #@! TO.N,/ROW6*
X106500000Y-95650000D03*
G04 #@! TO.P,D53,2*
G04 #@! TO.N,/matrix/SW53_A*
X106500000Y-92350000D03*
G04 #@! TD*
D25*
G04 #@! TO.P,LED59,1*
G04 #@! TO.N,/RGB_5V_LEFT*
X143295887Y-108229311D03*
G04 #@! TO.P,LED59,2*
G04 #@! TO.N,/GND_LEFT*
X144931624Y-102124661D03*
G04 #@! TO.P,LED59,3*
G04 #@! TO.N,/rgb/RGB_LED_left_29*
X146380513Y-102512889D03*
G04 #@! TO.P,LED59,4*
G04 #@! TO.N,unconnected-(LED59-DOUT-Pad4)*
X144744776Y-108617539D03*
G04 #@! TD*
D18*
G04 #@! TO.P,C_RGB11,1*
G04 #@! TO.N,/RGB_5V_LEFT*
X26837500Y-20287500D03*
G04 #@! TO.P,C_RGB11,2*
G04 #@! TO.N,/GND_LEFT*
X26837500Y-18787500D03*
G04 #@! TD*
D17*
G04 #@! TO.P,LED53,1*
G04 #@! TO.N,/RGB_5V_LEFT*
X94471300Y-92130000D03*
G04 #@! TO.P,LED53,2*
G04 #@! TO.N,/GND_LEFT*
X100791300Y-92130000D03*
G04 #@! TO.P,LED53,3*
G04 #@! TO.N,/rgb/RGB_LED_left_25*
X100791300Y-93630000D03*
G04 #@! TO.P,LED53,4*
G04 #@! TO.N,/rgb/RGB_LED_left_26*
X94471300Y-93630000D03*
G04 #@! TD*
D15*
G04 #@! TO.P,D55,1*
G04 #@! TO.N,/ROW7*
X52000000Y-93500000D03*
G04 #@! TO.P,D55,2*
G04 #@! TO.N,/matrix/SW55_A*
X52000000Y-90200000D03*
G04 #@! TD*
G04 #@! TO.P,D23,1*
G04 #@! TO.N,/ROW2*
X40500000Y-41500000D03*
G04 #@! TO.P,D23,2*
G04 #@! TO.N,/matrix/SW23_A*
X40500000Y-38200000D03*
G04 #@! TD*
G04 #@! TO.P,D33,1*
G04 #@! TO.N,/ROW4*
X60500000Y-56085000D03*
G04 #@! TO.P,D33,2*
G04 #@! TO.N,/matrix/SW33_A*
X60500000Y-52785000D03*
G04 #@! TD*
G04 #@! TO.P,D4,1*
G04 #@! TO.N,/ROW0*
X118000000Y-21650000D03*
G04 #@! TO.P,D4,2*
G04 #@! TO.N,/matrix/SW4_A*
X118000000Y-18350000D03*
G04 #@! TD*
G04 #@! TO.P,D19,1*
G04 #@! TO.N,/ROW2*
X61037500Y-40000000D03*
G04 #@! TO.P,D19,2*
G04 #@! TO.N,/matrix/SW19_A*
X61037500Y-36700000D03*
G04 #@! TD*
D18*
G04 #@! TO.P,C_RGB15,1*
G04 #@! TO.N,/RGB_5V_LEFT*
X64937500Y-36480000D03*
G04 #@! TO.P,C_RGB15,2*
G04 #@! TO.N,/GND_LEFT*
X64937500Y-34980000D03*
G04 #@! TD*
D15*
G04 #@! TO.P,D43,1*
G04 #@! TO.N,/ROW5*
X79000000Y-74500000D03*
G04 #@! TO.P,D43,2*
G04 #@! TO.N,/matrix/SW43_A*
X79000000Y-71200000D03*
G04 #@! TD*
D17*
G04 #@! TO.P,LED3,1*
G04 #@! TO.N,/RGB_5V_LEFT*
X68277500Y-15930000D03*
G04 #@! TO.P,LED3,2*
G04 #@! TO.N,/GND_LEFT*
X74597500Y-15930000D03*
G04 #@! TO.P,LED3,3*
G04 #@! TO.N,/rgb/RGB_LED_left_0*
X74597500Y-17430000D03*
G04 #@! TO.P,LED3,4*
G04 #@! TO.N,/rgb/RGB_LED_left_1*
X68277500Y-17430000D03*
G04 #@! TD*
D15*
G04 #@! TO.P,D51,1*
G04 #@! TO.N,/ROW6*
X40000000Y-78150000D03*
G04 #@! TO.P,D51,2*
G04 #@! TO.N,/matrix/SW51_A*
X40000000Y-74850000D03*
G04 #@! TD*
G04 #@! TO.P,D30,1*
G04 #@! TO.N,/ROW3*
X117500000Y-55000000D03*
G04 #@! TO.P,D30,2*
G04 #@! TO.N,/matrix/SW30_A*
X117500000Y-51700000D03*
G04 #@! TD*
G04 #@! TO.P,D7,1*
G04 #@! TO.N,/ROW0*
X61000000Y-20000000D03*
G04 #@! TO.P,D7,2*
G04 #@! TO.N,/matrix/SW7_A*
X61000000Y-16700000D03*
G04 #@! TD*
G04 #@! TO.P,D34,1*
G04 #@! TO.N,/ROW4*
X137000000Y-60000000D03*
G04 #@! TO.P,D34,2*
G04 #@! TO.N,/matrix/SW34_A*
X137000000Y-56700000D03*
G04 #@! TD*
D22*
G04 #@! TO.P,C_RGB58,1*
G04 #@! TO.N,/RGB_5V_LEFT*
X124863144Y-109213314D03*
G04 #@! TO.P,C_RGB58,2*
G04 #@! TO.N,/GND_LEFT*
X123414256Y-108825086D03*
G04 #@! TD*
D17*
G04 #@! TO.P,LED20,1*
G04 #@! TO.N,/RGB_5V_LEFT*
X125427500Y-36885000D03*
G04 #@! TO.P,LED20,2*
G04 #@! TO.N,/GND_LEFT*
X131747500Y-36885000D03*
G04 #@! TO.P,LED20,3*
G04 #@! TO.N,/rgb/RGB_LED_left_9*
X131747500Y-38385000D03*
G04 #@! TO.P,LED20,4*
G04 #@! TO.N,/rgb/RGB_LED_left_10*
X125427500Y-38385000D03*
G04 #@! TD*
G04 #@! TO.P,LED44,1*
G04 #@! TO.N,/RGB_5V_LEFT*
X106377500Y-73080000D03*
G04 #@! TO.P,LED44,2*
G04 #@! TO.N,/GND_LEFT*
X112697500Y-73080000D03*
G04 #@! TO.P,LED44,3*
G04 #@! TO.N,/rgb/RGB_LED_left_21*
X112697500Y-74580000D03*
G04 #@! TO.P,LED44,4*
G04 #@! TO.N,/rgb/RGB_LED_left_22*
X106377500Y-74580000D03*
G04 #@! TD*
D25*
G04 #@! TO.P,LED58,1*
G04 #@! TO.N,/RGB_5V_LEFT*
X124278687Y-105598911D03*
G04 #@! TO.P,LED58,2*
G04 #@! TO.N,/GND_LEFT*
X125914424Y-99494261D03*
G04 #@! TO.P,LED58,3*
G04 #@! TO.N,/rgb/RGB_LED_left_28*
X127363313Y-99882489D03*
G04 #@! TO.P,LED58,4*
G04 #@! TO.N,/rgb/RGB_LED_left_29*
X125727576Y-105987139D03*
G04 #@! TD*
D15*
G04 #@! TO.P,D54,1*
G04 #@! TO.N,/ROW6*
X82500000Y-91650000D03*
G04 #@! TO.P,D54,2*
G04 #@! TO.N,/matrix/SW54_A*
X82500000Y-88350000D03*
G04 #@! TD*
D18*
G04 #@! TO.P,C_RGB33,1*
G04 #@! TO.N,/RGB_5V_LEFT*
X45887500Y-57435000D03*
G04 #@! TO.P,C_RGB33,2*
G04 #@! TO.N,/GND_LEFT*
X45887500Y-55935000D03*
G04 #@! TD*
D26*
G04 #@! TO.P,D58,1*
G04 #@! TO.N,/ROW7*
X128499978Y-92499950D03*
G04 #@! TO.P,D58,2*
G04 #@! TO.N,/matrix/SW58_A*
X125312422Y-91645850D03*
G04 #@! TD*
D17*
G04 #@! TO.P,LED47,1*
G04 #@! TO.N,/RGB_5V_LEFT*
X49227500Y-74985000D03*
G04 #@! TO.P,LED47,2*
G04 #@! TO.N,/GND_LEFT*
X55547500Y-74985000D03*
G04 #@! TO.P,LED47,3*
G04 #@! TO.N,/rgb/RGB_LED_left_22*
X55547500Y-76485000D03*
G04 #@! TO.P,LED47,4*
G04 #@! TO.N,/rgb/RGB_LED_left_23*
X49227500Y-76485000D03*
G04 #@! TD*
D18*
G04 #@! TO.P,C_RGB25,1*
G04 #@! TO.N,/RGB_5V_LEFT*
X83987500Y-53625000D03*
G04 #@! TO.P,C_RGB25,2*
G04 #@! TO.N,/GND_LEFT*
X83987500Y-52125000D03*
G04 #@! TD*
D15*
G04 #@! TO.P,D37,1*
G04 #@! TO.N,/ROW4*
X41000000Y-59500000D03*
G04 #@! TO.P,D37,2*
G04 #@! TO.N,/matrix/SW37_A*
X41000000Y-56200000D03*
G04 #@! TD*
D17*
G04 #@! TO.P,LED1,1*
G04 #@! TO.N,/RGB_5V_LEFT*
X87327500Y-14025000D03*
G04 #@! TO.P,LED1,2*
G04 #@! TO.N,/GND_LEFT*
X93647500Y-14025000D03*
G04 #@! TO.P,LED1,3*
G04 #@! TO.N,/RGB_DATA_SHIFTED_LEFT*
X93647500Y-15525000D03*
G04 #@! TO.P,LED1,4*
G04 #@! TO.N,/rgb/RGB_LED_left_0*
X87327500Y-15525000D03*
G04 #@! TD*
G04 #@! TO.P,LED54,1*
G04 #@! TO.N,/RGB_5V_LEFT*
X68277500Y-94035000D03*
G04 #@! TO.P,LED54,2*
G04 #@! TO.N,/GND_LEFT*
X74597500Y-94035000D03*
G04 #@! TO.P,LED54,3*
G04 #@! TO.N,/rgb/RGB_LED_left_26*
X74597500Y-95535000D03*
G04 #@! TO.P,LED54,4*
G04 #@! TO.N,/rgb/RGB_LED_left_27*
X68277500Y-95535000D03*
G04 #@! TD*
D15*
G04 #@! TO.P,D16,1*
G04 #@! TO.N,/ROW2*
X116000000Y-40500000D03*
G04 #@! TO.P,D16,2*
G04 #@! TO.N,/matrix/SW16_A*
X116000000Y-37200000D03*
G04 #@! TD*
D17*
G04 #@! TO.P,LED15,1*
G04 #@! TO.N,/RGB_5V_LEFT*
X68277500Y-34980000D03*
G04 #@! TO.P,LED15,2*
G04 #@! TO.N,/GND_LEFT*
X74597500Y-34980000D03*
G04 #@! TO.P,LED15,3*
G04 #@! TO.N,/rgb/RGB_LED_left_6*
X74597500Y-36480000D03*
G04 #@! TO.P,LED15,4*
G04 #@! TO.N,/rgb/RGB_LED_left_7*
X68277500Y-36480000D03*
G04 #@! TD*
G04 #@! TO.P,LED55,1*
G04 #@! TO.N,/RGB_5V_LEFT*
X37321300Y-94987500D03*
G04 #@! TO.P,LED55,2*
G04 #@! TO.N,/GND_LEFT*
X43641300Y-94987500D03*
G04 #@! TO.P,LED55,3*
G04 #@! TO.N,/rgb/RGB_LED_left_27*
X43641300Y-96487500D03*
G04 #@! TO.P,LED55,4*
G04 #@! TO.N,/rgb/RGB_LED_left_28*
X37321300Y-96487500D03*
G04 #@! TD*
D27*
G04 #@! TO.P,D59,1*
G04 #@! TO.N,/ROW7*
X137000022Y-82999950D03*
G04 #@! TO.P,D59,2*
G04 #@! TO.N,/matrix/SW59_A*
X140187578Y-83854050D03*
G04 #@! TD*
D17*
G04 #@! TO.P,LED25,1*
G04 #@! TO.N,/RGB_5V_LEFT*
X87327500Y-52125000D03*
G04 #@! TO.P,LED25,2*
G04 #@! TO.N,/GND_LEFT*
X93647500Y-52125000D03*
G04 #@! TO.P,LED25,3*
G04 #@! TO.N,/rgb/RGB_LED_left_11*
X93647500Y-53625000D03*
G04 #@! TO.P,LED25,4*
G04 #@! TO.N,/rgb/RGB_LED_left_12*
X87327500Y-53625000D03*
G04 #@! TD*
D15*
G04 #@! TO.P,D3,1*
G04 #@! TO.N,/ROW0*
X79500000Y-16000000D03*
G04 #@! TO.P,D3,2*
G04 #@! TO.N,/matrix/SW3_A*
X79500000Y-12700000D03*
G04 #@! TD*
G04 #@! TO.P,D13,1*
G04 #@! TO.N,/ROW1*
X98500000Y-33500000D03*
G04 #@! TO.P,D13,2*
G04 #@! TO.N,/matrix/SW13_A*
X98500000Y-30200000D03*
G04 #@! TD*
D16*
G04 #@! TO.P,R_RGB_FB_BOT1,1*
G04 #@! TO.N,/power/RGB_FB_LEFT*
X147750000Y-37300000D03*
G04 #@! TO.P,R_RGB_FB_BOT1,2*
G04 #@! TO.N,/GND_LEFT*
X146250000Y-37300000D03*
G04 #@! TD*
D18*
G04 #@! TO.P,C_RGB54,1*
G04 #@! TO.N,/RGB_5V_LEFT*
X64937500Y-95535000D03*
G04 #@! TO.P,C_RGB54,2*
G04 #@! TO.N,/GND_LEFT*
X64937500Y-94035000D03*
G04 #@! TD*
G04 #@! TO.P,C_RGB51,1*
G04 #@! TO.N,/RGB_5V_LEFT*
X24456300Y-77437500D03*
G04 #@! TO.P,C_RGB51,2*
G04 #@! TO.N,/GND_LEFT*
X24456300Y-75937500D03*
G04 #@! TD*
G04 #@! TO.P,C_LS1,1*
G04 #@! TO.N,/RGB_5V_LEFT*
X148500000Y-23750000D03*
G04 #@! TO.P,C_LS1,2*
G04 #@! TO.N,/GND_LEFT*
X148500000Y-22250000D03*
G04 #@! TD*
G04 #@! TO.P,C_RGB34,1*
G04 #@! TO.N,/RGB_5V_LEFT*
X122087500Y-57435000D03*
G04 #@! TO.P,C_RGB34,2*
G04 #@! TO.N,/GND_LEFT*
X122087500Y-55935000D03*
G04 #@! TD*
D17*
G04 #@! TO.P,LED7,1*
G04 #@! TO.N,/RGB_5V_LEFT*
X49227500Y-17835000D03*
G04 #@! TO.P,LED7,2*
G04 #@! TO.N,/GND_LEFT*
X55547500Y-17835000D03*
G04 #@! TO.P,LED7,3*
G04 #@! TO.N,/rgb/RGB_LED_left_2*
X55547500Y-19335000D03*
G04 #@! TO.P,LED7,4*
G04 #@! TO.N,/rgb/RGB_LED_left_3*
X49227500Y-19335000D03*
G04 #@! TD*
D18*
G04 #@! TO.P,C_RGB8,1*
G04 #@! TO.N,/RGB_5V_LEFT*
X122087500Y-19335000D03*
G04 #@! TO.P,C_RGB8,2*
G04 #@! TO.N,/GND_LEFT*
X122087500Y-17835000D03*
G04 #@! TD*
D28*
G04 #@! TO.N,/COL0*
X83487500Y-47022400D03*
X121623000Y-58489800D03*
X100750000Y-31971500D03*
X83487500Y-37586400D03*
X50432600Y-44009200D03*
X118608000Y-12002500D03*
X102942000Y-18365300D03*
G04 #@! TO.N,/ROW0*
X79500000Y-18083200D03*
X99000000Y-18083200D03*
X63996400Y-17486500D03*
G04 #@! TO.N,/ROW1*
X138862000Y-6527500D03*
X40602700Y-24235900D03*
X79000000Y-37197200D03*
X98500000Y-37818300D03*
G04 #@! TO.N,/ROW2*
X116000000Y-41607900D03*
X60902100Y-41319100D03*
G04 #@! TO.N,/ROW3*
X98500000Y-52950800D03*
X136869000Y-45100000D03*
X114891000Y-52394400D03*
G04 #@! TO.N,/ROW4*
X93983500Y-67983400D03*
X135568000Y-61285800D03*
X42485400Y-59483000D03*
X60500000Y-59545900D03*
G04 #@! TO.N,/ROW5*
X117500000Y-76329100D03*
X139702000Y-75808900D03*
X144422000Y-17647900D03*
X78932700Y-77325300D03*
G04 #@! TO.N,/ROW6*
X41576200Y-78799900D03*
X101994000Y-90417500D03*
X82500000Y-90417500D03*
X135908000Y-78914300D03*
G04 #@! TO.N,/ROW7*
X128223000Y-93762500D03*
X52000000Y-92247900D03*
D29*
G04 #@! TO.N,/COL1*
X151000000Y-32400000D03*
D28*
X45387500Y-25365600D03*
X155598000Y-14989200D03*
X25875100Y-58067900D03*
D29*
X149300000Y-32299999D03*
D28*
X118945000Y-47715100D03*
X64437500Y-63182400D03*
D29*
X155600000Y-24000000D03*
D28*
X115595000Y-100663000D03*
D29*
X140700000Y-38900000D03*
D28*
X113581000Y-100663000D03*
X26022100Y-19594500D03*
D29*
X146000000Y-27800000D03*
X146600000Y-24800000D03*
D28*
G04 #@! TO.N,/COL2*
X102556000Y-56686100D03*
X117874000Y-72370800D03*
X64437500Y-43232400D03*
X118377000Y-85882100D03*
X105194000Y-71783300D03*
X26493400Y-43232400D03*
X88093200Y-22401500D03*
X121588000Y-23253300D03*
X88093200Y-17370900D03*
X90631300Y-82373500D03*
X102538000Y-10833800D03*
X114998000Y-93998500D03*
X135921000Y-103996000D03*
G04 #@! TO.N,/GND_LEFT*
X56924200Y-54600700D03*
X142351200Y-109882200D03*
X138624300Y-55557600D03*
D29*
X152500000Y-22200000D03*
D28*
X83224700Y-70412200D03*
X150911700Y-70767300D03*
X64937500Y-14093800D03*
X114993400Y-35940400D03*
X121294200Y-71162600D03*
X145335500Y-100467100D03*
X123414300Y-107799900D03*
X45887500Y-35905600D03*
X35493000Y-54600700D03*
X54987500Y-35986300D03*
X45887500Y-54600700D03*
X63432700Y-35986300D03*
X102257600Y-72300100D03*
X114966200Y-18795900D03*
X130313100Y-35121400D03*
X35934400Y-35905600D03*
X95191200Y-52785500D03*
X97475900Y-16751500D03*
D29*
X84101000Y-13125700D03*
D28*
X139875000Y-70767300D03*
X131187500Y-16528500D03*
D29*
X150400000Y-31200000D03*
D28*
X93087500Y-12697400D03*
X122087500Y-35940400D03*
X133330400Y-56027700D03*
X74037500Y-13125700D03*
X102258900Y-16635700D03*
X98628800Y-55198700D03*
X114074200Y-71162600D03*
X24857100Y-55063300D03*
X122087500Y-16528500D03*
X86745600Y-70102500D03*
D29*
G04 #@! TO.N,/COL3*
X83437500Y-64100000D03*
X80837500Y-61900000D03*
X63837500Y-44600000D03*
D28*
X65687500Y-18445800D03*
X24782700Y-23460400D03*
X45387500Y-16215600D03*
X47891500Y-73688300D03*
D29*
X64037500Y-34500000D03*
X65237500Y-51700000D03*
X64037500Y-38000000D03*
D28*
X64115500Y-77003000D03*
D29*
X65237500Y-52900000D03*
D28*
X84948800Y-71623600D03*
D29*
X81037500Y-57600000D03*
G04 #@! TO.N,/RGB_DATA_LEFT*
X145065600Y-18067000D03*
D28*
G04 #@! TO.N,/RGB_EN_LEFT*
X148599100Y-36433500D03*
D29*
X144750000Y-36433500D03*
D28*
X145710400Y-15496100D03*
D29*
G04 #@! TO.N,/VBAT_LEFT*
X147100000Y-31300000D03*
D28*
X147997400Y-35185300D03*
D29*
X151100000Y-31000000D03*
X146600000Y-31800000D03*
X144000000Y-39500000D03*
D28*
X151987400Y-30550800D03*
G04 #@! TO.N,/matrix/SW37_A*
X41000000Y-51830100D03*
X39342900Y-51830100D03*
G04 #@! TO.N,/matrix/SW33_A*
X60930000Y-50953200D03*
X58087500Y-49547700D03*
G04 #@! TO.N,/matrix/SW15_A*
X77137500Y-27355100D03*
X80413000Y-29647100D03*
D29*
G04 #@! TO.N,/power/BAT_RAW_LEFT*
X141500000Y-32100000D03*
X155653600Y-29019400D03*
X152600000Y-31200000D03*
D28*
G04 #@! TO.N,/matrix/SW7_A*
X62859900Y-15890700D03*
X62284800Y-15315600D03*
G04 #@! TO.N,/matrix/SW11_A*
X40750200Y-17421200D03*
X40789500Y-18669300D03*
G04 #@! TO.N,/matrix/SW48_A*
X136111000Y-72784400D03*
X137000000Y-77931200D03*
X134955000Y-77931200D03*
X135535000Y-72208900D03*
G04 #@! TO.N,/RGB_5V_LEFT*
X104173500Y-73080000D03*
X144375200Y-25237200D03*
X83354100Y-49833100D03*
X146982000Y-29725300D03*
X87887500Y-51203900D03*
X123436200Y-37784700D03*
X147773900Y-31781200D03*
X105703100Y-34043600D03*
X47298500Y-36885000D03*
X47067300Y-75799800D03*
X87887500Y-69981200D03*
X25581700Y-75937500D03*
X28356300Y-36525100D03*
G04 #@! TO.N,/rgb/RGB_LED_left_16*
X49787500Y-58944200D03*
X133124000Y-59493200D03*
G04 #@! TO.N,/rgb/RGB_LED_left_17*
X56601200Y-60265200D03*
X55389600Y-60392600D03*
X35493000Y-60392600D03*
X125988000Y-60492300D03*
G04 #@! TO.N,/rgb/RGB_LED_left_14*
X68837500Y-61751900D03*
X112138000Y-59732900D03*
G04 #@! TO.N,/rgb/RGB_LED_left_15*
X106938000Y-59532900D03*
X57318200Y-61150200D03*
G04 #@! TO.N,/rgb/RGB_LED_left_23*
X49787500Y-79742000D03*
X131188000Y-79742000D03*
G04 #@! TO.N,/rgb/RGB_LED_left_24*
X122982000Y-77953600D03*
X35563500Y-78204100D03*
G04 #@! TO.N,/rgb/RGB_LED_left_13*
X142057000Y-57371400D03*
X75974200Y-57911100D03*
G04 #@! TO.N,/rgb/RGB_LED_left_4*
X37726100Y-21179500D03*
X125988000Y-20698800D03*
G04 #@! TO.N,/rgb/RGB_LED_left_5*
X91678000Y-36824600D03*
X30737500Y-22819500D03*
G04 #@! TO.N,/rgb/RGB_LED_left_3*
X131188000Y-21304600D03*
X49796300Y-21304600D03*
G04 #@! TO.N,/rgb/RGB_LED_left_12*
X87887500Y-57102400D03*
X148600000Y-56769700D03*
G04 #@! TO.N,/power/RGB_SW_LEFT*
X146000000Y-29401300D03*
X145621200Y-34995200D03*
G04 #@! TO.N,/rgb/RGB_LED_left_19*
X87887500Y-74491800D03*
X148975000Y-75098600D03*
G04 #@! TO.N,/rgb/RGB_LED_left_20*
X141602000Y-73787800D03*
X74037500Y-76089800D03*
G04 #@! TO.N,/rgb/RGB_LED_left_18*
X28075100Y-60745400D03*
X93087500Y-74331200D03*
G04 #@! TO.N,/rgb/RGB_LED_left_6*
X77186800Y-33137600D03*
X87887500Y-35476700D03*
G04 #@! TO.N,/rgb/RGB_LED_left_25*
X32401900Y-93136400D03*
X100231000Y-96102000D03*
G04 #@! TO.N,/rgb/RGB_LED_left_1*
X114074000Y-20299700D03*
X68837500Y-19895900D03*
G04 #@! TO.N,/rgb/RGB_LED_left_2*
X106938000Y-19659400D03*
X57130300Y-19286700D03*
G04 #@! TO.N,/rgb/RGB_LED_left_10*
X34578900Y-40360100D03*
X125988000Y-39992600D03*
G04 #@! TO.N,/rgb/RGB_LED_left_11*
X28356300Y-44009100D03*
X93087500Y-55133300D03*
G04 #@! TO.N,/rgb/RGB_LED_left_7*
X68837500Y-39225000D03*
X114074000Y-39225000D03*
G04 #@! TO.N,/rgb/RGB_LED_left_8*
X57282600Y-37887100D03*
X105001000Y-38608300D03*
G04 #@! TO.N,/RGB_DATA_SHIFTED_LEFT*
X98783600Y-25379500D03*
X129178700Y-23041000D03*
G04 #@! TO.N,/rgb/RGB_LED_left_21*
X114074000Y-76697100D03*
X68837500Y-76697100D03*
G04 #@! TO.N,/rgb/RGB_LED_left_9*
X130985000Y-39736900D03*
X49787500Y-39738500D03*
G04 #@! TO.N,/rgb/RGB_LED_left_29*
X125536000Y-107667000D03*
X145020000Y-110492000D03*
G04 #@! TO.N,/rgb/RGB_LED_left_26*
X92687400Y-93192600D03*
X75974200Y-92641600D03*
G04 #@! TO.N,/rgb/RGB_LED_left_0*
X85698500Y-15815700D03*
X77134800Y-15815700D03*
G04 #@! TO.N,/rgb/RGB_LED_left_22*
X56924200Y-78835800D03*
X105001000Y-78835800D03*
G04 #@! TO.N,/rgb/RGB_LED_left_28*
X128517000Y-98718500D03*
X37881300Y-98696800D03*
G04 #@! TO.N,/rgb/RGB_LED_left_27*
X66900800Y-98039600D03*
X43081300Y-98039600D03*
G04 #@! TD*
G04 #@! TO.N,/COL0*
D30*
X123162000Y-66330000D02*
X123162000Y-63234400D01*
X44686300Y-51332900D02*
X44686300Y-58133300D01*
X100750000Y-31464600D02*
X100750000Y-31971500D01*
X119236000Y-6316600D02*
X115165000Y-2246000D01*
X121588000Y-67905000D02*
X123162000Y-66330000D01*
X119236000Y-11065000D02*
X119236000Y-10755000D01*
D31*
X121588000Y-10755000D02*
X119236000Y-10755000D01*
D30*
X121587500Y-67905000D02*
X121588000Y-67905000D01*
X123162000Y-60029500D02*
X121623000Y-58489800D01*
X83487500Y-45045000D02*
X83487500Y-37586400D01*
D31*
X119236000Y-11065000D02*
X119236000Y-11375000D01*
D30*
X83487500Y-45045000D02*
X83487500Y-47022400D01*
X102538000Y-27900000D02*
X102538000Y-18769700D01*
X42188200Y-60631400D02*
X42188200Y-79200600D01*
X115165000Y-2246000D02*
X88186500Y-2246000D01*
X102537500Y-27900000D02*
X102538000Y-27900000D01*
X137400000Y-63234400D02*
X138261000Y-64095000D01*
X45387500Y-50631700D02*
X44686300Y-51332900D01*
X44686300Y-58133300D02*
X42188200Y-60631400D01*
X102538000Y-18769700D02*
X102942000Y-18365300D01*
D31*
X119236000Y-11375000D02*
X118608000Y-12002500D01*
D30*
X123162000Y-63234400D02*
X123162000Y-60029500D01*
X45387500Y-48855000D02*
X50233300Y-44009200D01*
X45387500Y-48855000D02*
X45387500Y-50631700D01*
X140638000Y-64095000D02*
X138261000Y-64095000D01*
X123162000Y-63234400D02*
X137400000Y-63234400D01*
X102538000Y-29676700D02*
X100750000Y-31464600D01*
X119236000Y-10755000D02*
X119236000Y-6316600D01*
X42188200Y-79200600D02*
X33481300Y-87907500D01*
X102538000Y-27900000D02*
X102538000Y-29676700D01*
X50233300Y-44009200D02*
X50432600Y-44009200D01*
X88186500Y-2246000D02*
X83487500Y-6945000D01*
G04 #@! TO.N,/matrix/SW41_A*
X153338000Y-61555000D02*
X153338000Y-63331700D01*
X153337500Y-61555000D02*
X153338000Y-61555000D01*
X155500000Y-65494200D02*
X155500000Y-71850000D01*
X153338000Y-63331700D02*
X155500000Y-65494200D01*
G04 #@! TO.N,/ROW0*
X61876700Y-20000000D02*
X61876700Y-19606200D01*
X115419000Y-18342500D02*
X115419000Y-16698200D01*
X112901000Y-14179800D02*
X99855400Y-14179800D01*
X79500000Y-16000000D02*
X79500000Y-18083200D01*
X99000000Y-15726700D02*
X99000000Y-18083200D01*
X115419000Y-16698200D02*
X112901000Y-14179800D01*
X99855400Y-14179800D02*
X99000000Y-15035200D01*
X118000000Y-21650000D02*
X118000000Y-20923300D01*
X99000000Y-15000000D02*
X99000000Y-15035200D01*
X118000000Y-20923300D02*
X115419000Y-18342500D01*
X99000000Y-15035200D02*
X99000000Y-15726700D01*
X61000000Y-20000000D02*
X61876700Y-20000000D01*
X61876700Y-19606200D02*
X63996400Y-17486500D01*
G04 #@! TO.N,/ROW1*
X138862000Y-19411000D02*
X138862000Y-19411100D01*
D31*
X138600000Y-9500000D02*
X138862000Y-9300000D01*
D30*
X40376700Y-24009900D02*
X40376700Y-24000000D01*
X137000000Y-22000000D02*
X137000000Y-21273300D01*
D31*
X138862000Y-9300000D02*
X138862000Y-6527000D01*
D30*
X39500000Y-24000000D02*
X40376700Y-24000000D01*
X40602700Y-24235900D02*
X40376700Y-24009900D01*
X137000000Y-21273300D02*
X138862000Y-19411100D01*
X98500000Y-33500000D02*
X98500000Y-34226700D01*
D31*
X138862000Y-19411000D02*
X138862000Y-11300000D01*
X138600000Y-11100000D02*
X138600000Y-9500000D01*
X138862000Y-11300000D02*
X138600000Y-11100000D01*
D30*
X98500000Y-34226700D02*
X98500000Y-37818300D01*
X79000000Y-35500000D02*
X79000000Y-37197200D01*
G04 #@! TO.N,/ROW2*
X61037500Y-40000000D02*
X61037500Y-40726700D01*
X117527000Y-41150000D02*
X137000000Y-41150000D01*
X40500000Y-41500000D02*
X40500000Y-40773300D01*
X43476600Y-40862100D02*
X60902100Y-40862100D01*
X116000000Y-40500000D02*
X116000000Y-41226700D01*
X116000000Y-41226700D02*
X116000000Y-41607900D01*
X40500000Y-40773300D02*
X43387800Y-40773300D01*
X43387800Y-40773300D02*
X43476600Y-40862100D01*
X116877000Y-40500000D02*
X117527000Y-41150000D01*
X60902100Y-40862100D02*
X60902100Y-41319100D01*
X60902100Y-40862100D02*
X61037500Y-40726700D01*
X116000000Y-40500000D02*
X116877000Y-40500000D01*
G04 #@! TO.N,/ROW3*
D31*
X79500000Y-52798300D02*
X81870200Y-50428100D01*
D30*
X98500000Y-52000000D02*
X98500000Y-51273300D01*
X117500000Y-55000000D02*
X117500000Y-54273300D01*
X98500000Y-51273300D02*
X96456800Y-51273300D01*
X98500000Y-52000000D02*
X98500000Y-52950800D01*
X117500000Y-54273300D02*
X116770000Y-54273300D01*
X155500000Y-56150000D02*
X155500000Y-55423300D01*
X141893000Y-50291600D02*
X136869000Y-45267600D01*
X155500000Y-55423300D02*
X150368000Y-50291600D01*
X150368000Y-50291600D02*
X141893000Y-50291600D01*
X96456800Y-51273300D02*
X95611600Y-50428100D01*
D31*
X79500000Y-53500000D02*
X79500000Y-52798300D01*
X81870200Y-50428100D02*
X95611600Y-50428100D01*
D30*
X136869000Y-45267600D02*
X136869000Y-45100000D01*
X116770000Y-54273300D02*
X114891000Y-52394400D01*
G04 #@! TO.N,/ROW4*
X41775700Y-58773300D02*
X42485400Y-59483000D01*
X41000000Y-59500000D02*
X41000000Y-58773300D01*
X97273300Y-71273300D02*
X94981700Y-68981700D01*
D31*
X94981700Y-68981700D02*
X93983500Y-67983400D01*
D30*
X136284000Y-59273300D02*
X135568000Y-59989100D01*
X41000000Y-58773300D02*
X41775700Y-58773300D01*
X137000000Y-59273300D02*
X136284000Y-59273300D01*
X137000000Y-60000000D02*
X137000000Y-59273300D01*
X98000000Y-72000000D02*
X98000000Y-71273300D01*
X98000000Y-71273300D02*
X97273300Y-71273300D01*
X135568000Y-59989100D02*
X135568000Y-61285800D01*
X60500000Y-56085000D02*
X60500000Y-59545900D01*
G04 #@! TO.N,/ROW5*
X78932700Y-77320000D02*
X78932700Y-77325300D01*
X158086000Y-16602300D02*
X155841000Y-14358000D01*
X79000000Y-74500000D02*
X79000000Y-74863300D01*
X154443000Y-76934000D02*
X155500000Y-75876700D01*
X117500000Y-73500000D02*
X117500000Y-76329100D01*
X155500000Y-74423300D02*
X158086000Y-71837700D01*
X78932700Y-74930600D02*
X78932700Y-77320000D01*
X155500000Y-75150000D02*
X155500000Y-75876700D01*
X155841000Y-14358000D02*
X147712000Y-14358000D01*
X147712000Y-14358000D02*
X144422000Y-17647900D01*
X158086000Y-71837700D02*
X158086000Y-16602300D01*
X155500000Y-75150000D02*
X155500000Y-74423300D01*
X140828000Y-76934000D02*
X154443000Y-76934000D01*
X60000000Y-75500000D02*
X65505500Y-75500000D01*
X65505500Y-75500000D02*
X67325500Y-77320000D01*
X79000000Y-74863300D02*
X78932700Y-74930600D01*
X139702000Y-75808900D02*
X140828000Y-76934000D01*
X67325500Y-77320000D02*
X78932700Y-77320000D01*
G04 #@! TO.N,/ROW6*
X82500000Y-90923300D02*
X82500000Y-90417500D01*
X137000000Y-79000000D02*
X136123000Y-79000000D01*
X40926300Y-78150000D02*
X41576200Y-78799900D01*
X136123000Y-79000000D02*
X136038000Y-78914300D01*
X40000000Y-78150000D02*
X40926300Y-78150000D01*
X106500000Y-94923300D02*
X101994000Y-90417500D01*
X136038000Y-78914300D02*
X135908000Y-78914300D01*
X82500000Y-91650000D02*
X82500000Y-90923300D01*
X106500000Y-95650000D02*
X106500000Y-94923300D01*
G04 #@! TO.N,/ROW7*
X128500000Y-92500000D02*
X128777000Y-91464900D01*
X52000000Y-93500000D02*
X52000000Y-92773300D01*
X128500000Y-92500000D02*
X128223000Y-93535000D01*
X129293000Y-91464900D02*
X128777000Y-91464900D01*
X128223000Y-93535000D02*
X128223000Y-93762500D01*
X136723000Y-84035000D02*
X129293000Y-91464900D01*
X52000000Y-92773300D02*
X52000000Y-92247900D01*
X137000000Y-82999900D02*
X136723000Y-84035000D01*
G04 #@! TO.N,/COL1*
X74684700Y-69078300D02*
X78690800Y-73084400D01*
X114729000Y-105758000D02*
X116446000Y-107476000D01*
X140638000Y-44192800D02*
X140638000Y-38951400D01*
X45387500Y-29805000D02*
X45387500Y-28028300D01*
X113581000Y-88717100D02*
X113581000Y-100663000D01*
X64437500Y-64223300D02*
X64437500Y-63857900D01*
X26337500Y-11707500D02*
X31957200Y-6087800D01*
X25875100Y-66938700D02*
X25875100Y-58067900D01*
X146000000Y-25400000D02*
X146600000Y-24800000D01*
X119211000Y-47980500D02*
X119211000Y-48855000D01*
X63452000Y-6087800D02*
X64437500Y-7073300D01*
X150900000Y-32299999D02*
X149300000Y-32299999D01*
X146000000Y-27800000D02*
X146000000Y-25400000D01*
X26022100Y-13799600D02*
X26022100Y-19594500D01*
X151000000Y-32400000D02*
X150900000Y-32299999D01*
X45387500Y-28028300D02*
X45387500Y-25365600D01*
X26337500Y-11707500D02*
X26337500Y-13484200D01*
X64437500Y-63857900D02*
X70530900Y-63857900D01*
X126250000Y-44192800D02*
X121588000Y-48855000D01*
X115595000Y-101219000D02*
X114729000Y-102085000D01*
X114729000Y-102085000D02*
X114729000Y-105758000D01*
X74684700Y-68011700D02*
X74684700Y-69078300D01*
X90453900Y-80368300D02*
X105232000Y-80368300D01*
X64437500Y-63857900D02*
X64437500Y-63182400D01*
X105232000Y-80368300D02*
X113581000Y-88717100D01*
X140637500Y-45045000D02*
X140638000Y-45045000D01*
X140638000Y-44192800D02*
X126250000Y-44192800D01*
X115595000Y-100663000D02*
X115595000Y-101219000D01*
X70530900Y-63857900D02*
X74684700Y-68011700D01*
X31957200Y-6087800D02*
X63452000Y-6087800D01*
X83170000Y-73084400D02*
X90453900Y-80368300D01*
X64437500Y-8850000D02*
X64437500Y-7073300D01*
X121588000Y-48855000D02*
X119211000Y-48855000D01*
X140638000Y-45045000D02*
X140638000Y-44192800D01*
X23956300Y-68857500D02*
X25875100Y-66938700D01*
X118945000Y-47715100D02*
X119211000Y-47980500D01*
X78690800Y-73084400D02*
X83170000Y-73084400D01*
X121587500Y-48855000D02*
X121588000Y-48855000D01*
X155598000Y-23990400D02*
X155598000Y-14989200D01*
X64437500Y-66000000D02*
X64437500Y-64223300D01*
X26337500Y-13484200D02*
X26022100Y-13799600D01*
X140600000Y-39000000D02*
X140700000Y-38900000D01*
G04 #@! TO.N,/COL2*
D31*
X81121300Y-24670600D02*
X81121300Y-24342800D01*
D30*
X77971800Y-35072200D02*
X72752200Y-40291800D01*
X102537500Y-8850000D02*
X102538000Y-8850000D01*
X102538000Y-66000000D02*
X102538000Y-64223300D01*
X23956300Y-45769500D02*
X26493400Y-43232400D01*
X83487500Y-25995000D02*
X83487500Y-27771700D01*
X102537500Y-66000000D02*
X102538000Y-66000000D01*
D31*
X81437500Y-24986800D02*
X81121300Y-24670600D01*
D30*
X117874000Y-72370800D02*
X118377000Y-72874000D01*
X102538000Y-69126700D02*
X105194000Y-71783300D01*
X114998000Y-89260900D02*
X118377000Y-85882100D01*
X72752200Y-40291800D02*
X69319000Y-40291800D01*
X83487500Y-27771700D02*
X81437500Y-27771700D01*
X64437500Y-46950000D02*
X64437500Y-45173300D01*
X118377000Y-72874000D02*
X118377000Y-85882100D01*
X79811300Y-29397900D02*
X79811300Y-29893300D01*
X114998000Y-93998500D02*
X114998000Y-89260900D01*
X90631300Y-85050000D02*
X90631300Y-82373500D01*
X81437500Y-27771700D02*
X79811300Y-29397900D01*
X64437500Y-45173300D02*
X64437500Y-43232400D01*
X23956300Y-49807500D02*
X23956300Y-45769500D01*
X134135000Y-105782000D02*
X135921000Y-103996000D01*
X102556000Y-56686100D02*
X102556000Y-64204900D01*
X134135000Y-108627000D02*
X134135000Y-105782000D01*
X69319000Y-40291800D02*
X64437500Y-45173300D01*
X121588000Y-29805000D02*
X121588000Y-23253300D01*
X88093200Y-17370900D02*
X88093200Y-22401500D01*
X135528000Y-110020000D02*
X134135000Y-108627000D01*
X102538000Y-10626700D02*
X102538000Y-10833800D01*
X121587500Y-29805000D02*
X121588000Y-29805000D01*
X79811300Y-29893300D02*
X77971800Y-31732800D01*
X102538000Y-66000000D02*
X102538000Y-69126700D01*
D31*
X81437500Y-27771700D02*
X81437500Y-24986800D01*
D30*
X102556000Y-64204900D02*
X102538000Y-64223300D01*
D31*
X81121300Y-24342800D02*
X88093200Y-17370900D01*
D30*
X77971800Y-31732800D02*
X77971800Y-35072200D01*
X102538000Y-8850000D02*
X102538000Y-10626700D01*
G04 #@! TO.N,/GND_LEFT*
X24857100Y-55063300D02*
X24456300Y-55464100D01*
X149780800Y-52750000D02*
X150505400Y-52750000D01*
X125769500Y-100035200D02*
X126318400Y-97986600D01*
X146287500Y-37189600D02*
X146287500Y-37262500D01*
X33556300Y-74697200D02*
X33556300Y-75937500D01*
X150760000Y-53004600D02*
X150505400Y-52750000D01*
X156000000Y-35025000D02*
X156000000Y-33025000D01*
X35937500Y-17980000D02*
X34977100Y-17019600D01*
X150911700Y-72250000D02*
X150911700Y-70767300D01*
X146287500Y-37262500D02*
X146250000Y-37300000D01*
X135237700Y-78556200D02*
X136117500Y-77676400D01*
X34977100Y-17019600D02*
X26837500Y-17019600D01*
X73458800Y-71757200D02*
X66260300Y-71757200D01*
X99797500Y-54030000D02*
X98628800Y-55198700D01*
X145335500Y-100617000D02*
X145335500Y-100467100D01*
X143250000Y-37300000D02*
X141513000Y-37300000D01*
X131187500Y-55935000D02*
X133124200Y-55935000D01*
X45657600Y-18064900D02*
X42512800Y-18064900D01*
X31104600Y-90718700D02*
X31104600Y-83894300D01*
X42512800Y-18064900D02*
X35937500Y-18064900D01*
X152500000Y-21600000D02*
X152500000Y-22200000D01*
X113334200Y-34980000D02*
X111745600Y-33391400D01*
X73479500Y-92705300D02*
X66267200Y-92705300D01*
X87029800Y-81077800D02*
X79718700Y-73766700D01*
X66260300Y-71757200D02*
X64937500Y-73080000D01*
X150500000Y-24250000D02*
X150500000Y-26000000D01*
X147287500Y-39462500D02*
X144787500Y-40562500D01*
X123276600Y-100389100D02*
X125679100Y-97986600D01*
X46574200Y-74298300D02*
X45887500Y-74985000D01*
X74037500Y-34072100D02*
X74037500Y-34980000D01*
X125679100Y-97986600D02*
X126318300Y-97986600D01*
X98731700Y-72726700D02*
X97285400Y-72726700D01*
X133216900Y-56027700D02*
X133124200Y-55935000D01*
X81390000Y-91981300D02*
X81785400Y-92376700D01*
X54987500Y-74241200D02*
X54377900Y-73631600D01*
X80633400Y-36429100D02*
X83987500Y-33075000D01*
X64937500Y-15930000D02*
X64142900Y-15930000D01*
X84101000Y-13911500D02*
X83987500Y-14025000D01*
X100231300Y-91358300D02*
X100231300Y-92130000D01*
X148442600Y-51411800D02*
X140838200Y-51411800D01*
X143250000Y-34000000D02*
X144000000Y-33250000D01*
X63931200Y-35986300D02*
X63432700Y-35986300D01*
X35493000Y-56887500D02*
X36094700Y-57489200D01*
X35493000Y-37837500D02*
X35934400Y-37837500D01*
X48744000Y-74298300D02*
X46574200Y-74298300D01*
X24456300Y-55464100D02*
X24456300Y-56887500D01*
X148500000Y-22250000D02*
X150500000Y-24250000D01*
X122087500Y-17835000D02*
X122087500Y-16528500D01*
X133124200Y-74985000D02*
X133324400Y-75185200D01*
X93087500Y-71175000D02*
X93087500Y-70399400D01*
X64937500Y-15930000D02*
X64937500Y-14093800D01*
X150600000Y-31500000D02*
X156000000Y-33000000D01*
X98918300Y-72300100D02*
X102257600Y-72300100D01*
X85351400Y-31711100D02*
X83987500Y-33075000D01*
X35934400Y-40560900D02*
X39952800Y-44579300D01*
X102331800Y-16635700D02*
X103037500Y-15930000D01*
X123414300Y-107799900D02*
X123276600Y-107662200D01*
X31104600Y-83894300D02*
X36172500Y-78826400D01*
X80270800Y-67458300D02*
X80270800Y-54243000D01*
X62262500Y-71397700D02*
X62011900Y-71147100D01*
X78596900Y-52878500D02*
X80633400Y-50842000D01*
X143250000Y-37300000D02*
X143250000Y-35838700D01*
X78596900Y-54030000D02*
X75974200Y-54030000D01*
X133324400Y-78556200D02*
X135237700Y-78556200D01*
X80633400Y-50842000D02*
X80633400Y-36429100D01*
X36094700Y-60678200D02*
X31456500Y-65316400D01*
X123414300Y-107799900D02*
X123414300Y-108825100D01*
X150760000Y-58010000D02*
X150760000Y-53004600D01*
X113334200Y-34980000D02*
X114074200Y-34980000D01*
X112137500Y-73080000D02*
X114074200Y-73080000D01*
X102257600Y-72300100D02*
X103037500Y-73080000D01*
X144000000Y-33250000D02*
X144000000Y-26463400D01*
X95024200Y-14025000D02*
X95024200Y-14299800D01*
X92490900Y-31711100D02*
X85351400Y-31711100D01*
X84101000Y-13125700D02*
X84101000Y-13911500D01*
X147774100Y-22628100D02*
X147277600Y-23124600D01*
X123452000Y-73620500D02*
X121294200Y-71462700D01*
X145387500Y-35962500D02*
X146287500Y-37262500D01*
X140236300Y-38576700D02*
X135500700Y-38576700D01*
X114966200Y-20319300D02*
X112270000Y-23015500D01*
X115088700Y-54030000D02*
X116993700Y-55935000D01*
X116993700Y-55935000D02*
X122087500Y-55935000D01*
X147774100Y-22250000D02*
X146337500Y-22250000D01*
X39952800Y-44579300D02*
X39952800Y-52112800D01*
X95733700Y-71175000D02*
X93087500Y-71175000D01*
X149618500Y-17125300D02*
X149618500Y-18652000D01*
X74037500Y-93263300D02*
X75319500Y-91981300D01*
X36172500Y-78826400D02*
X36172500Y-76617000D01*
X146337500Y-23750000D02*
X146137500Y-23950000D01*
X92032800Y-69344700D02*
X87503400Y-69344700D01*
X45887500Y-35905600D02*
X45887500Y-36885000D01*
X74037500Y-54030000D02*
X74037500Y-53103500D01*
X156000000Y-33025000D02*
X153225000Y-33025000D01*
X144000000Y-26463400D02*
X146137500Y-24325900D01*
X95191200Y-52785500D02*
X94992900Y-52587200D01*
X45887500Y-55935000D02*
X45887500Y-54600700D01*
X78596900Y-54136600D02*
X78596900Y-54030000D01*
X54987500Y-17835000D02*
X54987500Y-17012200D01*
X148500000Y-22250000D02*
X147774100Y-22250000D01*
X104626100Y-33391400D02*
X103037500Y-34980000D01*
X74037500Y-73080000D02*
X74037500Y-72335900D01*
X131187500Y-74985000D02*
X133124200Y-74985000D01*
X138908800Y-72250000D02*
X139875000Y-72250000D01*
X66244400Y-33673100D02*
X73638500Y-33673100D01*
X144887500Y-35662500D02*
X145387500Y-35962500D01*
X25762200Y-74631600D02*
X33490700Y-74631600D01*
X62011900Y-71147100D02*
X62011900Y-54600700D01*
X33490700Y-70267800D02*
X33490700Y-74631600D01*
X144187500Y-35962500D02*
X144687500Y-35662500D01*
X54987500Y-35986300D02*
X54987500Y-36885000D01*
X99673300Y-90800300D02*
X100231300Y-91358300D01*
X83224700Y-70412200D02*
X80270800Y-67458300D01*
X98628800Y-55198700D02*
X98918300Y-55488200D01*
X81785400Y-92376700D02*
X86783100Y-92376700D01*
X131187500Y-74217400D02*
X131187500Y-74985000D01*
X35392200Y-56887500D02*
X35491500Y-56887500D01*
X59480400Y-74179800D02*
X62262500Y-71397700D01*
X142351200Y-111375200D02*
X142351200Y-109882200D01*
X45887500Y-17835000D02*
X45657600Y-18064900D01*
X140838200Y-51411800D02*
X139500000Y-52750000D01*
X83224700Y-70412200D02*
X83987500Y-71175000D01*
X112137500Y-15930000D02*
X114074200Y-15930000D01*
X26429600Y-35864200D02*
X24456300Y-37837500D01*
X95024200Y-14299800D02*
X97475900Y-16751500D01*
X97285400Y-72726700D02*
X95733700Y-71175000D01*
X64937500Y-34980000D02*
X63931200Y-35986300D01*
X147177100Y-23750000D02*
X146337500Y-23750000D01*
X93087500Y-14025000D02*
X95024200Y-14025000D01*
X114966200Y-16822000D02*
X114966200Y-18795900D01*
X126318300Y-97986600D02*
X126318300Y-85562300D01*
X112137500Y-53285800D02*
X112137500Y-54030000D01*
X74037500Y-73080000D02*
X75974200Y-73080000D01*
X126318300Y-97986600D02*
X126318400Y-97986600D01*
X87029800Y-92130000D02*
X91131300Y-92130000D01*
X34524700Y-37837500D02*
X32551400Y-35864200D01*
X98918300Y-72300100D02*
X98918300Y-72540100D01*
X149618500Y-15598600D02*
X147240000Y-15520000D01*
X139875000Y-72250000D02*
X139875000Y-70767300D01*
X139500000Y-52750000D02*
X138624300Y-53625700D01*
X143250000Y-35838700D02*
X144936600Y-35838700D01*
X33556300Y-75937500D02*
X35493000Y-75937500D01*
X74037500Y-15930000D02*
X74037500Y-13125700D01*
X64937500Y-54030000D02*
X64366800Y-54600700D01*
X138624300Y-53625700D02*
X138624300Y-55557600D01*
X123452000Y-73620500D02*
X130590600Y-73620500D01*
X91131300Y-92130000D02*
X92461000Y-90800300D01*
X147774100Y-22250000D02*
X147774100Y-22628100D01*
X79718700Y-73766700D02*
X76660900Y-73766700D01*
X131187500Y-36885000D02*
X131187500Y-35995800D01*
X152523300Y-21556800D02*
X149618500Y-18652000D01*
X37464900Y-54600700D02*
X35493000Y-54600700D01*
X93087500Y-33075000D02*
X93087500Y-32307700D01*
X150400000Y-31200000D02*
X150600000Y-31500000D01*
X148102100Y-62849000D02*
X148102100Y-60667900D01*
X126318300Y-85562300D02*
X133324400Y-78556200D01*
X111622500Y-14604900D02*
X112137500Y-15119900D01*
X62011900Y-54600700D02*
X56924200Y-54600700D01*
X114074200Y-34980000D02*
X114074200Y-35021200D01*
X114966200Y-18795900D02*
X114966200Y-20319300D01*
X146337500Y-22250000D02*
X146137500Y-22050000D01*
X142431500Y-111455500D02*
X142351200Y-111375200D01*
X43081300Y-94166900D02*
X43081300Y-94987500D01*
X42512800Y-18064900D02*
X42512800Y-32530900D01*
X114074200Y-15930000D02*
X114966200Y-16822000D01*
X114074200Y-35021200D02*
X114993400Y-35940400D01*
X34060600Y-93674700D02*
X42589100Y-93674700D01*
X56924200Y-55935000D02*
X56924200Y-54600700D01*
X93087500Y-70399400D02*
X92032800Y-69344700D01*
X35493000Y-56887500D02*
X35493000Y-54600700D01*
X149500000Y-29000000D02*
X150500000Y-26000000D01*
X110037700Y-26345900D02*
X112124100Y-28432300D01*
X74037500Y-54030000D02*
X75974200Y-54030000D01*
X144936600Y-35838700D02*
X146287500Y-37189600D01*
X93087500Y-14025000D02*
X93087500Y-12697400D01*
X147177100Y-23750000D02*
X147177100Y-23225100D01*
X87503400Y-69344700D02*
X86745600Y-70102500D01*
X64142900Y-15930000D02*
X61748100Y-18324800D01*
X133330400Y-56027700D02*
X133216900Y-56027700D01*
X26837500Y-17019600D02*
X26837500Y-18787500D01*
X56924200Y-74985000D02*
X57729400Y-74179800D01*
X54377900Y-73631600D02*
X49410700Y-73631600D01*
X35934400Y-37837500D02*
X35934400Y-40560900D01*
X66267200Y-92705300D02*
X64937500Y-94035000D01*
X131187500Y-17835000D02*
X131187500Y-16528500D01*
X111558800Y-52707100D02*
X112137500Y-53285800D01*
X74037500Y-72335900D02*
X73458800Y-71757200D01*
X131187500Y-35995800D02*
X130313100Y-35121400D01*
X148102100Y-60667900D02*
X150760000Y-58010000D01*
X61748100Y-18324800D02*
X56300100Y-18324800D01*
X42589100Y-93674700D02*
X43081300Y-94166900D01*
X147240000Y-15520000D02*
X146137500Y-16730600D01*
X133324400Y-75185200D02*
X133324400Y-78556200D01*
X111577000Y-23015500D02*
X110037700Y-24554800D01*
X150911700Y-70767300D02*
X150911700Y-65658600D01*
X98918300Y-72540100D02*
X98731700Y-72726700D01*
X56300100Y-18324800D02*
X54987500Y-17012200D01*
X34524700Y-37837500D02*
X35493000Y-37837500D01*
X54987500Y-55935000D02*
X56924200Y-55935000D01*
X31456500Y-65316400D02*
X31456500Y-68233600D01*
X112137500Y-34980000D02*
X113334200Y-34980000D01*
X143250000Y-37300000D02*
X144050000Y-38099999D01*
X73661500Y-52727500D02*
X66240000Y-52727500D01*
X153000000Y-33250000D02*
X150000000Y-33250000D01*
X74037500Y-94035000D02*
X74037500Y-93263300D01*
X33490700Y-74631600D02*
X33556300Y-74697200D01*
X112270000Y-23015500D02*
X111577000Y-23015500D01*
X148975000Y-72250000D02*
X150911700Y-72250000D01*
X133809000Y-36885000D02*
X131187500Y-36885000D01*
X121294200Y-71462700D02*
X121294200Y-71162600D01*
X92461000Y-90800300D02*
X99673300Y-90800300D01*
X64937500Y-34980000D02*
X66244400Y-33673100D01*
X64366800Y-54600700D02*
X62011900Y-54600700D01*
X112124100Y-28432300D02*
X112124100Y-33012900D01*
X114074200Y-71162600D02*
X114074200Y-73080000D01*
X143250000Y-35838700D02*
X143250000Y-34000000D01*
X32551400Y-35864200D02*
X26429600Y-35864200D01*
X36172500Y-76617000D02*
X35493000Y-75937500D01*
X103037500Y-15930000D02*
X104362600Y-14604900D01*
X111745600Y-33391400D02*
X104626100Y-33391400D01*
X142987499Y-38662500D02*
X144187500Y-35962500D01*
X112124100Y-33012900D02*
X111745600Y-33391400D01*
X112137500Y-15119900D02*
X112137500Y-15930000D01*
X35937500Y-18064900D02*
X35937500Y-17980000D01*
X74037500Y-53103500D02*
X73661500Y-52727500D01*
X135500700Y-38576700D02*
X133809000Y-36885000D01*
X35934400Y-35905600D02*
X35934400Y-37837500D01*
X76660900Y-73766700D02*
X75974200Y-73080000D01*
X98918300Y-55488200D02*
X98918300Y-72300100D01*
X149780800Y-52750000D02*
X148442600Y-51411800D01*
X141513000Y-37300000D02*
X140236300Y-38576700D01*
X93087500Y-52125000D02*
X94992900Y-52125000D01*
X94992900Y-52587200D02*
X94992900Y-52125000D01*
X35937500Y-18787500D02*
X35937500Y-18064900D01*
X34060600Y-93946100D02*
X34060600Y-93674700D01*
X33981300Y-94987500D02*
X33981300Y-94025400D01*
X146287500Y-34500000D02*
X146287500Y-37262500D01*
X73638500Y-33673100D02*
X74037500Y-34072100D01*
X47416100Y-16306400D02*
X54281700Y-16306400D01*
X33556300Y-37837500D02*
X34524700Y-37837500D01*
X54987500Y-74985000D02*
X54987500Y-74241200D01*
X122087500Y-74985000D02*
X123452000Y-73620500D01*
X75319500Y-91981300D02*
X81390000Y-91981300D01*
X102258900Y-16635700D02*
X102331800Y-16635700D01*
X136117500Y-75041300D02*
X138908800Y-72250000D01*
X112137500Y-54030000D02*
X115088700Y-54030000D01*
X39952800Y-52112800D02*
X37464900Y-54600700D01*
X86783100Y-92376700D02*
X87029800Y-92130000D01*
X78703300Y-54243000D02*
X78596900Y-54136600D01*
X142987499Y-40462500D02*
X142987499Y-38662500D01*
X150911700Y-65658600D02*
X148102100Y-62849000D01*
X147177100Y-23225100D02*
X147277600Y-23124600D01*
X42512800Y-32530900D02*
X45887500Y-35905600D01*
X54987500Y-74985000D02*
X56924200Y-74985000D01*
X146137500Y-24325900D02*
X146137500Y-23950000D01*
X63255200Y-71397700D02*
X64937500Y-73080000D01*
X81869500Y-54243000D02*
X80270800Y-54243000D01*
X146137500Y-16730600D02*
X146137500Y-22050000D01*
X49410700Y-73631600D02*
X48744000Y-74298300D01*
X74037500Y-93263300D02*
X73479500Y-92705300D01*
X136117500Y-77676400D02*
X136117500Y-75041300D01*
X144687500Y-35662500D02*
X144887500Y-35662500D01*
X143087500Y-40562500D02*
X142987499Y-40462500D01*
X103037500Y-54030000D02*
X104360400Y-52707100D01*
X153225000Y-33025000D02*
X153000000Y-33250000D01*
X104360400Y-52707100D02*
X111558800Y-52707100D01*
X149618500Y-17125300D02*
X149618500Y-15598600D01*
X66240000Y-52727500D02*
X64937500Y-54030000D01*
X24456300Y-75937500D02*
X25762200Y-74631600D01*
X122087500Y-36885000D02*
X122087500Y-35940400D01*
X45887500Y-17835000D02*
X47416100Y-16306400D01*
X143300000Y-35800000D02*
X139500000Y-30300000D01*
X78596900Y-54030000D02*
X78596900Y-52878500D01*
X148600000Y-52750000D02*
X149780800Y-52750000D01*
X35491500Y-56887500D02*
X35493000Y-56887500D01*
X57729400Y-74179800D02*
X59480400Y-74179800D01*
X34060600Y-93674700D02*
X31104600Y-90718700D01*
X144787500Y-40562500D02*
X143087500Y-40562500D01*
X33981300Y-94025400D02*
X34060600Y-93946100D01*
X62262500Y-71397700D02*
X63255200Y-71397700D01*
X87029800Y-92130000D02*
X87029800Y-81077800D01*
X145335600Y-100617000D02*
X145335500Y-100617000D01*
X103037500Y-54030000D02*
X99797500Y-54030000D01*
X104362600Y-14604900D02*
X111622500Y-14604900D01*
X54281700Y-16306400D02*
X54987500Y-17012200D01*
X83987500Y-52125000D02*
X81869500Y-54243000D01*
X80270800Y-54243000D02*
X78703300Y-54243000D01*
X31456500Y-68233600D02*
X33490700Y-70267800D01*
X33556300Y-56887500D02*
X35392200Y-56887500D01*
X93087500Y-32307700D02*
X92490900Y-31711100D01*
X36094700Y-57489200D02*
X36094700Y-60678200D01*
X144786700Y-102665600D02*
X145335600Y-100617000D01*
X110037700Y-24554800D02*
X110037700Y-26345900D01*
X130590600Y-73620500D02*
X131187500Y-74217400D01*
X123276600Y-107662200D02*
X123276600Y-100389100D01*
G04 #@! TO.N,/COL3*
D31*
X64437500Y-27900000D02*
X64037500Y-34500000D01*
D30*
X83487500Y-64095000D02*
X83487500Y-69488100D01*
X65687500Y-18445800D02*
X65687500Y-24873300D01*
X23956300Y-24286800D02*
X24782700Y-23460400D01*
D31*
X65237500Y-51700000D02*
X65237500Y-52900000D01*
X81037500Y-57600000D02*
X80837500Y-61900000D01*
D30*
X84948800Y-70949400D02*
X84948800Y-71623600D01*
X45387500Y-67905000D02*
X45387500Y-71184300D01*
D31*
X63637500Y-43300000D02*
X63837500Y-44600000D01*
D30*
X45387500Y-10755000D02*
X45387500Y-16215600D01*
D31*
X64037500Y-38000000D02*
X63637500Y-43300000D01*
D30*
X90526200Y-57056300D02*
X95878300Y-57056300D01*
X83487500Y-64095000D02*
X90526200Y-57056300D01*
X102538000Y-50397100D02*
X102538000Y-46950000D01*
X45387500Y-71184300D02*
X47891500Y-73688300D01*
X64437500Y-86955000D02*
X64437500Y-77325000D01*
X64437500Y-77325000D02*
X64115500Y-77003000D01*
X102537500Y-46950000D02*
X102538000Y-46950000D01*
X23956300Y-30757500D02*
X23956300Y-24286800D01*
X65687500Y-24873300D02*
X64437500Y-26123300D01*
X95878300Y-57056300D02*
X102538000Y-50397100D01*
X64437500Y-27900000D02*
X64437500Y-26123300D01*
X83487500Y-69488100D02*
X84948800Y-70949400D01*
G04 #@! TO.N,/RGB_DATA_LEFT*
X146137500Y-23000000D02*
X145771200Y-23000000D01*
X145065600Y-22294400D02*
X145065600Y-18067000D01*
X145771200Y-23000000D02*
X145065600Y-22294400D01*
G04 #@! TO.N,/RGB_EN_LEFT*
X139957500Y-10337500D02*
X141134200Y-10337500D01*
X148750000Y-39533500D02*
X148150000Y-38533500D01*
X145250000Y-38133500D02*
X144750000Y-36433500D01*
X148111000Y-34000000D02*
X148599100Y-34488100D01*
X148150000Y-38533500D02*
X145350000Y-38233500D01*
X145710400Y-14913700D02*
X145710400Y-15496100D01*
X145350000Y-38233500D02*
X145250000Y-38133500D01*
X147712500Y-34000000D02*
X148111000Y-34000000D01*
X141134200Y-10337500D02*
X145710400Y-14913700D01*
X144750000Y-37300000D02*
X144750000Y-36433500D01*
X148599100Y-34488100D02*
X148599100Y-36433500D01*
G04 #@! TO.N,/VBAT_LEFT*
X151300000Y-30600000D02*
X151400000Y-30700000D01*
X151300000Y-27700000D02*
X151300000Y-30600000D01*
X144000000Y-34600000D02*
X145500000Y-32800000D01*
X147300000Y-31100000D02*
X147700000Y-31000000D01*
X152000000Y-23000000D02*
X151300000Y-27700000D01*
X147618500Y-18652000D02*
X151987400Y-23020900D01*
X145500000Y-32800000D02*
X146600000Y-31800000D01*
X147100000Y-31300000D02*
X147300000Y-31100000D01*
X151800000Y-30700000D02*
X152000000Y-30600000D01*
X148000000Y-30600000D02*
X151938200Y-30600000D01*
X144000000Y-34600000D02*
X144000000Y-34750000D01*
X150500000Y-30400000D02*
X151000000Y-30700000D01*
X147997400Y-34784900D02*
X147997400Y-35185300D01*
X147618500Y-17125300D02*
X147618500Y-18652000D01*
X147700000Y-31000000D02*
X150500000Y-30400000D01*
X151938200Y-30600000D02*
X151987400Y-30550800D01*
X148000000Y-30600000D02*
X144000000Y-34600000D01*
X151400000Y-30700000D02*
X151800000Y-30700000D01*
X147712500Y-34500000D02*
X147997400Y-34784900D01*
X151000000Y-30700000D02*
X151100000Y-31000000D01*
G04 #@! TO.N,/matrix/SW4_A*
X118000000Y-10849200D02*
X115238000Y-8086700D01*
X115238000Y-6310000D02*
X115238000Y-8086700D01*
X118000000Y-18350000D02*
X118000000Y-10849200D01*
X115237500Y-6310000D02*
X115238000Y-6310000D01*
G04 #@! TO.N,/matrix/SW26_A*
X155500000Y-52850000D02*
X155500000Y-46444200D01*
X153338000Y-42505000D02*
X153338000Y-44281700D01*
X153337500Y-42505000D02*
X153338000Y-42505000D01*
X155500000Y-46444200D02*
X153338000Y-44281700D01*
G04 #@! TO.N,/matrix/SW55_A*
X52000000Y-89473300D02*
X48510400Y-89473300D01*
X52000000Y-90200000D02*
X52000000Y-89473300D01*
X46181300Y-85367500D02*
X46181300Y-87144200D01*
X48510400Y-89473300D02*
X46181300Y-87144200D01*
G04 #@! TO.N,/matrix/SW37_A*
X36656300Y-47267500D02*
X36656300Y-49143500D01*
X41000000Y-56200000D02*
X41000000Y-51830100D01*
X36656300Y-49143500D02*
X39342900Y-51830100D01*
G04 #@! TO.N,/matrix/SW1_A*
X99000000Y-8994200D02*
X96187500Y-6181700D01*
X96187500Y-4405000D02*
X96187500Y-6181700D01*
X99000000Y-11700000D02*
X99000000Y-8994200D01*
G04 #@! TO.N,/matrix/SW33_A*
X60930000Y-51628300D02*
X60930000Y-50953200D01*
X60500000Y-52785000D02*
X60500000Y-52058300D01*
X58087500Y-46315000D02*
X58087500Y-49547700D01*
X60500000Y-52058300D02*
X60930000Y-51628300D01*
G04 #@! TO.N,/matrix/SW23_A*
X40500000Y-38200000D02*
X40500000Y-33837900D01*
X40500000Y-33837900D02*
X36656300Y-29994200D01*
X36656300Y-28217500D02*
X36656300Y-29994200D01*
G04 #@! TO.N,/matrix/SW15_A*
X79000000Y-31473300D02*
X80413000Y-30060300D01*
X79000000Y-32200000D02*
X79000000Y-31473300D01*
X80413000Y-30060300D02*
X80413000Y-29647100D01*
X77137500Y-25360000D02*
X77137500Y-27355100D01*
G04 #@! TO.N,/matrix/SW53_A*
X106500000Y-92350000D02*
X105094000Y-92350000D01*
X101061000Y-88317100D02*
X101061000Y-84780500D01*
X101061000Y-84780500D02*
X103331000Y-82510000D01*
X105094000Y-92350000D02*
X101061000Y-88317100D01*
G04 #@! TO.N,/matrix/SW16_A*
X112967000Y-32781400D02*
X112967000Y-27630500D01*
X116000000Y-35814400D02*
X112967000Y-32781400D01*
X112967000Y-27630500D02*
X115238000Y-25360000D01*
X116000000Y-37200000D02*
X116000000Y-35814400D01*
G04 #@! TO.N,/matrix/SW54_A*
X82500000Y-88350000D02*
X82500000Y-87623300D01*
X82500000Y-87623300D02*
X78569100Y-87623300D01*
X78569100Y-87623300D02*
X77137500Y-86191700D01*
X77137500Y-84415000D02*
X77137500Y-86191700D01*
G04 #@! TO.N,/matrix/SW3_A*
X77137500Y-6310000D02*
X77137500Y-8086700D01*
X79500000Y-12700000D02*
X79500000Y-10449200D01*
X79500000Y-10449200D02*
X77137500Y-8086700D01*
G04 #@! TO.N,/power/BAT_RAW_LEFT*
X154000000Y-26000000D02*
X155653600Y-27653600D01*
X155653600Y-27653600D02*
X155653600Y-29019400D01*
X141500000Y-30300000D02*
X141500000Y-32100000D01*
X152800000Y-30900000D02*
X153000000Y-29000000D01*
X152600000Y-31200000D02*
X152800000Y-30900000D01*
X153000000Y-29000000D02*
X154000000Y-26000000D01*
G04 #@! TO.N,/matrix/SW40_A*
X98000000Y-65144200D02*
X96187500Y-63331700D01*
X96187500Y-61555000D02*
X96187500Y-63331700D01*
X98000000Y-68700000D02*
X98000000Y-65144200D01*
G04 #@! TO.N,/matrix/SW44_A*
X115237500Y-63460000D02*
X115237500Y-65236700D01*
X117500000Y-70200000D02*
X117500000Y-67499200D01*
X115237500Y-65236700D02*
X115238000Y-65236700D01*
X117500000Y-67499200D02*
X115238000Y-65236700D01*
X115238000Y-63460000D02*
X115238000Y-65236700D01*
G04 #@! TO.N,/matrix/SW58_A*
X120035000Y-91795300D02*
X118018000Y-91795300D01*
X117279600Y-94551000D02*
X117280000Y-94551000D01*
X125312000Y-91645800D02*
X124384000Y-91396900D01*
X125312400Y-91645800D02*
X125312000Y-91645800D01*
X124384000Y-91397000D02*
X124135000Y-91645800D01*
X124384000Y-91396900D02*
X124384000Y-91397000D01*
X120185000Y-91645800D02*
X120035000Y-91795300D01*
X124135000Y-91645800D02*
X120185000Y-91645800D01*
X117280000Y-94551000D02*
X118018000Y-91795300D01*
G04 #@! TO.N,/matrix/SW34_A*
X134287500Y-48091700D02*
X134312500Y-48091700D01*
D31*
X137000000Y-56700000D02*
X137000000Y-50779200D01*
X134288000Y-46315000D02*
X134288000Y-48066700D01*
D30*
X134287500Y-46315000D02*
X134287500Y-48091700D01*
X134312500Y-48091700D02*
X137000000Y-50779200D01*
D31*
X137000000Y-50779200D02*
X134288000Y-48066700D01*
G04 #@! TO.N,/matrix/SW20_A*
D30*
X134288000Y-28875300D02*
X137000000Y-31587800D01*
X134287500Y-27265000D02*
X134288000Y-27265000D01*
X134288000Y-27265000D02*
X134288000Y-28875300D01*
X137000000Y-31587800D02*
X137000000Y-37850000D01*
G04 #@! TO.N,/matrix/SW29_A*
X79500000Y-50200000D02*
X79500000Y-48549200D01*
X79500000Y-48549200D02*
X77137500Y-46186700D01*
X77137500Y-44410000D02*
X77137500Y-46186700D01*
G04 #@! TO.N,/matrix/SW19_A*
X58087500Y-29041700D02*
X61037500Y-31991700D01*
X58087500Y-27265000D02*
X58087500Y-29041700D01*
X61037500Y-31991700D02*
X61037500Y-36700000D01*
G04 #@! TO.N,/matrix/SW59_A*
X139909000Y-89103300D02*
X139909000Y-91632000D01*
X139910000Y-84889100D02*
X139910000Y-89101800D01*
X136309600Y-97288300D02*
X136310000Y-97288300D01*
X139817000Y-91726200D02*
X139325000Y-92218000D01*
X140188000Y-83854100D02*
X139910000Y-84889100D01*
X139817000Y-91724000D02*
X139817000Y-91726200D01*
X139325000Y-92220200D02*
X137061000Y-94484300D01*
X136310000Y-97288300D02*
X137061000Y-94484300D01*
X139910000Y-89101800D02*
X139909000Y-89103300D01*
X139325000Y-92218000D02*
X139325000Y-92220200D01*
X139909000Y-91632000D02*
X139817000Y-91724000D01*
G04 #@! TO.N,/matrix/SW43_A*
X79000000Y-67099200D02*
X77137500Y-65236700D01*
X77137500Y-63460000D02*
X77137500Y-65236700D01*
X79000000Y-71200000D02*
X79000000Y-67099200D01*
G04 #@! TO.N,/matrix/SW51_A*
X40000000Y-71437900D02*
X36656300Y-68094200D01*
X36656300Y-66317500D02*
X36656300Y-68094200D01*
X40000000Y-74850000D02*
X40000000Y-71437900D01*
G04 #@! TO.N,/matrix/SW7_A*
X62859900Y-15890700D02*
X62050600Y-16700000D01*
X58087500Y-8215000D02*
X58087500Y-11118300D01*
X58087500Y-11118300D02*
X62284800Y-15315600D01*
X62050600Y-16700000D02*
X61000000Y-16700000D01*
G04 #@! TO.N,/matrix/SW11_A*
X40750200Y-12656900D02*
X40750200Y-17421200D01*
X39500000Y-20700000D02*
X39500000Y-19973300D01*
X39037500Y-9167500D02*
X39037500Y-10944200D01*
X39500000Y-19973300D02*
X40789500Y-18683800D01*
X40789500Y-18683800D02*
X40789500Y-18669300D01*
X39037500Y-10944200D02*
X40750200Y-12656900D01*
G04 #@! TO.N,/matrix/SW13_A*
X98500000Y-30200000D02*
X98500000Y-27544200D01*
X98500000Y-27544200D02*
X96187500Y-25231700D01*
X96187500Y-23455000D02*
X96187500Y-25231700D01*
G04 #@! TO.N,/matrix/SW48_A*
X136111000Y-72784400D02*
X134955000Y-73940300D01*
X134288000Y-65365000D02*
X134288000Y-67141700D01*
X134955000Y-73940300D02*
X134955000Y-77931200D01*
X134288000Y-67141700D02*
X135535000Y-68389500D01*
X134287500Y-65365000D02*
X134288000Y-65365000D01*
X135535000Y-68389500D02*
X135535000Y-72208900D01*
X137000000Y-75700000D02*
X137000000Y-77931200D01*
G04 #@! TO.N,/matrix/SW47_A*
X60000000Y-72200000D02*
X60000000Y-69054200D01*
X60000000Y-69054200D02*
X58087500Y-67141700D01*
X58087500Y-65365000D02*
X58087500Y-67141700D01*
G04 #@! TO.N,/matrix/SW25_A*
X98500000Y-46594200D02*
X96187500Y-44281700D01*
X96187500Y-42505000D02*
X96187500Y-44281700D01*
X98500000Y-48700000D02*
X98500000Y-46594200D01*
G04 #@! TO.N,/matrix/SW8_A*
X134288000Y-8215000D02*
X134288000Y-9991700D01*
X134287500Y-8215000D02*
X134288000Y-8215000D01*
X137000000Y-12704200D02*
X137000000Y-18700000D01*
X134288000Y-9991700D02*
X137000000Y-12704200D01*
G04 #@! TO.N,/matrix/SW30_A*
X117500000Y-51700000D02*
X117500000Y-48449200D01*
X115237500Y-44410000D02*
X115238000Y-44410000D01*
X117500000Y-48449200D02*
X115238000Y-46186700D01*
X115238000Y-44410000D02*
X115238000Y-46186700D01*
G04 #@! TO.N,/RGB_5V_LEFT*
X58174000Y-35321200D02*
X50584100Y-35321200D01*
X43010800Y-73608300D02*
X43010800Y-66247900D01*
X64764300Y-36653200D02*
X64937500Y-36480000D01*
X47067300Y-36885000D02*
X47067300Y-37699800D01*
X21518900Y-36400100D02*
X24456300Y-39337500D01*
X65077500Y-55530000D02*
X65762700Y-54844800D01*
X122087500Y-19335000D02*
X122128200Y-19335000D01*
X87887500Y-33075000D02*
X85982100Y-33075000D01*
X83987500Y-72675000D02*
X84863800Y-72675000D01*
X122128200Y-19335000D02*
X122813400Y-18649800D01*
X21579600Y-42214200D02*
X21579600Y-55510800D01*
X143880300Y-110201100D02*
X143880300Y-111843700D01*
X103763400Y-54844800D02*
X104217300Y-54844800D01*
X119181500Y-22241000D02*
X119181500Y-35573300D01*
X28356300Y-37837500D02*
X28356300Y-36525100D01*
X143775000Y-72250000D02*
X141869600Y-72250000D01*
X143216400Y-109537200D02*
X143880300Y-110201100D01*
X124229700Y-36885000D02*
X124051600Y-36885000D01*
X26878200Y-20287500D02*
X27563400Y-19602300D01*
X68837500Y-34980000D02*
X66932100Y-34980000D01*
X122813400Y-37699800D02*
X123267300Y-37699800D01*
X87887500Y-71175000D02*
X85982100Y-71175000D01*
X117986300Y-43111400D02*
X117154800Y-42279900D01*
X66117300Y-16744800D02*
X66932100Y-15930000D01*
X68837500Y-94035000D02*
X66932100Y-94035000D01*
X103931400Y-73894800D02*
X104173500Y-73894800D01*
X147773900Y-32993600D02*
X147001800Y-32993600D01*
X99404700Y-36480000D02*
X99404700Y-18690900D01*
X25182200Y-76752300D02*
X25581700Y-76752300D01*
X122813400Y-75799800D02*
X123267300Y-75799800D01*
X28356300Y-37837500D02*
X26450900Y-37837500D01*
X110001300Y-60353200D02*
X119193900Y-60353200D01*
X85549000Y-71989800D02*
X85982100Y-71556700D01*
X144836900Y-24775500D02*
X144375200Y-25237200D01*
X65663400Y-94849800D02*
X66117300Y-94849800D01*
X110397600Y-71316400D02*
X107871300Y-71316400D01*
X45928200Y-19335000D02*
X46613400Y-18649800D01*
X122128200Y-57435000D02*
X122813400Y-56749800D01*
X122870100Y-54796500D02*
X117986300Y-49912700D01*
X112098900Y-69615100D02*
X110397600Y-71316400D01*
X45887500Y-63371200D02*
X45887500Y-57435000D01*
X122087500Y-57435000D02*
X121806400Y-57435000D01*
X64937500Y-95535000D02*
X65622700Y-94849800D01*
X153000000Y-34750000D02*
X152250000Y-35500000D01*
X119412500Y-35710000D02*
X122087500Y-38385000D01*
X121806400Y-57435000D02*
X119193900Y-60047500D01*
X47067300Y-35518000D02*
X42956500Y-31407200D01*
X64937500Y-23408700D02*
X62043000Y-26303200D01*
X117154800Y-42279900D02*
X115781300Y-42279900D01*
X139500000Y-54250000D02*
X139500000Y-55714800D01*
X146352500Y-33435000D02*
X146287500Y-33500000D01*
X138519800Y-112777200D02*
X142292300Y-109004700D01*
X133618600Y-112777200D02*
X138519800Y-112777200D01*
X122870100Y-55935000D02*
X122870100Y-54796500D01*
X85167300Y-33889800D02*
X85982100Y-33075000D01*
X66117300Y-54844800D02*
X66932100Y-54030000D01*
X66660400Y-98673700D02*
X64937500Y-96950800D01*
X122813400Y-56749800D02*
X122870100Y-56749800D01*
X84028200Y-34575000D02*
X84713400Y-33889800D01*
X103722700Y-73894800D02*
X103931400Y-73894800D01*
X61834700Y-37426700D02*
X60279500Y-37426700D01*
X138223100Y-91548000D02*
X130856800Y-98914300D01*
X64936000Y-74581500D02*
X64937500Y-74580000D01*
X84713400Y-52939800D02*
X85167300Y-52939800D01*
X122087500Y-57435000D02*
X122128200Y-57435000D01*
X45887500Y-76485000D02*
X45943700Y-76485000D01*
X126354400Y-54615400D02*
X125034800Y-55935000D01*
X54150400Y-84972700D02*
X47067300Y-77889600D01*
X124863000Y-109213000D02*
X124424000Y-105058000D01*
X46613400Y-18649800D02*
X47067300Y-18649800D01*
X47067300Y-36885000D02*
X47298500Y-36885000D01*
X129335900Y-25237200D02*
X144375200Y-25237200D01*
X46613400Y-56749800D02*
X47067300Y-56749800D01*
X150000000Y-34750000D02*
X150750000Y-35500000D01*
X64937500Y-55530000D02*
X65077500Y-55530000D01*
X100665600Y-17430000D02*
X103037500Y-17430000D01*
X141054800Y-73064800D02*
X141869600Y-72250000D01*
X99404700Y-18690900D02*
X100665600Y-17430000D01*
X85167300Y-34343700D02*
X89270600Y-38447000D01*
X66117300Y-54844800D02*
X66117300Y-59890700D01*
X135667700Y-57426700D02*
X132856400Y-54615400D01*
X24456300Y-39337500D02*
X24497000Y-39337500D01*
X119181500Y-35573300D02*
X119318200Y-35710000D01*
X122087500Y-19335000D02*
X119181500Y-22241000D01*
X119318200Y-35710000D02*
X119412500Y-35710000D01*
X84028200Y-15525000D02*
X84713400Y-14839800D01*
X110001300Y-60353200D02*
X110001300Y-65339700D01*
X106937500Y-15930000D02*
X105032100Y-15930000D01*
X125987500Y-36885000D02*
X124229700Y-36885000D01*
X50584100Y-35321200D02*
X49787500Y-36117800D01*
X140225900Y-53564800D02*
X140679800Y-53564800D01*
X24497000Y-87003200D02*
X24497000Y-77437500D01*
X103078200Y-55530000D02*
X103763400Y-54844800D01*
X146623300Y-25626700D02*
X146623300Y-29366600D01*
X66117300Y-59890700D02*
X69213800Y-62987200D01*
X84028200Y-53625000D02*
X84713400Y-52939800D01*
X45887500Y-57435000D02*
X45928200Y-57435000D01*
X66117300Y-18024500D02*
X68182900Y-20090100D01*
X86706800Y-14025000D02*
X88656400Y-12075400D01*
X47298500Y-36885000D02*
X47882100Y-36885000D01*
X130856800Y-98914300D02*
X130856800Y-110015400D01*
X68182900Y-20090100D02*
X68182900Y-20229200D01*
X103777200Y-16669700D02*
X103777200Y-16744800D01*
X147001800Y-32993600D02*
X146635600Y-33359800D01*
X104173500Y-73080000D02*
X105032100Y-73080000D01*
X103763400Y-16744800D02*
X103722700Y-16744800D01*
X104173500Y-73080000D02*
X104173500Y-73894800D01*
X70413300Y-62987200D02*
X73473800Y-66047700D01*
X21579600Y-55510800D02*
X24456300Y-58387500D01*
X87887500Y-52125000D02*
X85982100Y-52125000D01*
X137788100Y-57426700D02*
X135667700Y-57426700D01*
X119193900Y-73591400D02*
X122087500Y-76485000D01*
X47067300Y-56749800D02*
X47882100Y-55935000D01*
X138223100Y-75401900D02*
X138223100Y-91548000D01*
X93672200Y-12075400D02*
X98130000Y-16533200D01*
X139500000Y-55714800D02*
X147405400Y-63620200D01*
X26837500Y-20287500D02*
X26878200Y-20287500D01*
X37881300Y-94987500D02*
X35975900Y-94987500D01*
X150750000Y-35500000D02*
X150750000Y-37300000D01*
X142358300Y-109004700D02*
X142890800Y-109537200D01*
X54375200Y-84972700D02*
X64937500Y-95535000D01*
X143862500Y-22050000D02*
X144836900Y-23024400D01*
X139500000Y-55714800D02*
X137788100Y-57426700D01*
X98130000Y-16533200D02*
X98130000Y-18134300D01*
X27563400Y-19602300D02*
X28017300Y-19602300D01*
X24497000Y-39337500D02*
X25182200Y-38652300D01*
X49787500Y-36885000D02*
X47882100Y-36885000D01*
X87887500Y-71175000D02*
X87887500Y-69981200D01*
X123267300Y-18649800D02*
X124082100Y-17835000D01*
X125665200Y-110015400D02*
X124863100Y-109213300D01*
X140600900Y-73064800D02*
X141054800Y-73064800D01*
X87887500Y-14025000D02*
X86706800Y-14025000D01*
X98790100Y-38447000D02*
X99404700Y-37832400D01*
X106937500Y-54030000D02*
X105032100Y-54030000D01*
X122087500Y-76485000D02*
X122772700Y-75799800D01*
X106937500Y-72250200D02*
X106937500Y-73080000D01*
X84713400Y-14839800D02*
X85167300Y-14839800D01*
X150194400Y-65653800D02*
X150194400Y-67735500D01*
X150000000Y-34750000D02*
X148243600Y-32993600D01*
X46613400Y-37699800D02*
X47067300Y-37699800D01*
X46628900Y-75799800D02*
X47067300Y-75799800D01*
X35161100Y-94987500D02*
X35161100Y-95802300D01*
X98130000Y-18134300D02*
X98686600Y-18690900D01*
X89270600Y-38447000D02*
X98790100Y-38447000D01*
X156000000Y-37975000D02*
X156000000Y-35975000D01*
X123267300Y-18649800D02*
X123267300Y-19168600D01*
X59005700Y-80342200D02*
X59005700Y-75001600D01*
X140185200Y-53564800D02*
X140225900Y-53564800D01*
X112098900Y-67437300D02*
X112098900Y-69615100D01*
X84863800Y-72675000D02*
X85549000Y-71989800D01*
X130856800Y-110015400D02*
X133618600Y-112777200D01*
X85982100Y-71556700D02*
X85982100Y-71175000D01*
X154225000Y-35975000D02*
X153000000Y-34750000D01*
X142890800Y-109537200D02*
X143216400Y-109537200D01*
X85167300Y-33889800D02*
X85167300Y-34343700D01*
X25182200Y-38652300D02*
X25636100Y-38652300D01*
X144836900Y-23024400D02*
X144836900Y-24775500D01*
X45887500Y-19335000D02*
X45928200Y-19335000D01*
X30737500Y-18787500D02*
X28832100Y-18787500D01*
X106937500Y-73080000D02*
X105032100Y-73080000D01*
X65663400Y-35794800D02*
X66117300Y-35794800D01*
X54375200Y-84972700D02*
X54150400Y-84972700D01*
X68837500Y-73080000D02*
X66932100Y-73080000D01*
X123309300Y-37657800D02*
X123309300Y-37627300D01*
X115781300Y-42279900D02*
X115072900Y-41571500D01*
X130856800Y-110015400D02*
X125665200Y-110015400D01*
X122087500Y-38385000D02*
X122128200Y-38385000D01*
X84713400Y-33889800D02*
X85167300Y-33889800D01*
X105703100Y-34980000D02*
X105032100Y-34980000D01*
X125987500Y-74985000D02*
X124082100Y-74985000D01*
X106937500Y-34980000D02*
X105703100Y-34980000D01*
X59005700Y-75001600D02*
X59425800Y-74581500D01*
X47067300Y-36885000D02*
X47067300Y-35518000D01*
X25636100Y-38652300D02*
X26450900Y-37837500D01*
X81110800Y-47589800D02*
X83354100Y-49833100D01*
X62921100Y-36340300D02*
X61834700Y-37426700D01*
X59425800Y-74581500D02*
X64936000Y-74581500D01*
X34022000Y-96487500D02*
X34707200Y-95802300D01*
X45928200Y-57435000D02*
X46613400Y-56749800D01*
X140679800Y-53564800D02*
X141494600Y-52750000D01*
X144613300Y-70573300D02*
X143775000Y-71411600D01*
X60279500Y-37426700D02*
X58174000Y-35321200D01*
X146635600Y-33359800D02*
X146560400Y-33435000D01*
X43010800Y-66247900D02*
X45887500Y-63371200D01*
X62921100Y-36340300D02*
X63233900Y-36653200D01*
X143775000Y-71411600D02*
X143775000Y-72250000D01*
X103722700Y-16744800D02*
X103037500Y-17430000D01*
X66117300Y-35794800D02*
X66932100Y-34980000D01*
X33981300Y-96487500D02*
X34022000Y-96487500D01*
X103777200Y-16669700D02*
X104292400Y-16669700D01*
X62043000Y-26303200D02*
X62043000Y-35462300D01*
X123309300Y-37657800D02*
X123436200Y-37784700D01*
X150194400Y-67735500D02*
X147356600Y-70573300D01*
X45928200Y-38385000D02*
X46613400Y-37699800D01*
X78123300Y-71802300D02*
X78996000Y-72675000D01*
X25956300Y-56887500D02*
X28356300Y-56887500D01*
X142292300Y-109004700D02*
X142358300Y-109004700D01*
X85167300Y-52939800D02*
X85982100Y-52125000D01*
X156000000Y-35975000D02*
X154225000Y-35975000D01*
X42956500Y-31407200D02*
X42956500Y-22266000D01*
X125034800Y-55935000D02*
X124082100Y-55935000D01*
X92631300Y-92130000D02*
X95031300Y-92130000D01*
X104217300Y-54844800D02*
X105032100Y-54030000D01*
X25581700Y-75937500D02*
X25581700Y-76752300D01*
X106848400Y-60353200D02*
X110001300Y-60353200D01*
X139875000Y-73750000D02*
X140560200Y-73064800D01*
X62043000Y-35462300D02*
X62921100Y-36340300D01*
X68837500Y-15930000D02*
X66932100Y-15930000D01*
X64978200Y-36480000D02*
X65663400Y-35794800D01*
X115072900Y-41571500D02*
X115072900Y-39955300D01*
X104217300Y-54844800D02*
X104217300Y-57722100D01*
X28017300Y-19602300D02*
X28832100Y-18787500D01*
X147405400Y-63620200D02*
X148160800Y-63620200D01*
X64937500Y-96950800D02*
X64937500Y-95535000D01*
X117986300Y-49912700D02*
X117986300Y-43111400D01*
X125987500Y-17835000D02*
X124082100Y-17835000D01*
X65762700Y-54844800D02*
X66117300Y-54844800D01*
X115072900Y-39955300D02*
X119318200Y-35710000D01*
X140560200Y-73064800D02*
X140600900Y-73064800D01*
X49787500Y-36117800D02*
X49787500Y-36885000D01*
X24456300Y-58387500D02*
X25956300Y-56887500D01*
X83987500Y-53625000D02*
X84028200Y-53625000D01*
X24456300Y-77437500D02*
X21513200Y-74494400D01*
X78983800Y-20528700D02*
X83987500Y-15525000D01*
X68182900Y-20229200D02*
X68482400Y-20528700D01*
X125987500Y-55935000D02*
X125034800Y-55935000D01*
X123267300Y-37699800D02*
X123309300Y-37657800D01*
X76199400Y-66047700D02*
X78123300Y-67971600D01*
X47067300Y-18649800D02*
X47882100Y-17835000D01*
X42956500Y-22266000D02*
X45887500Y-19335000D01*
X83987500Y-34575000D02*
X81110800Y-37451700D01*
X21513200Y-61330600D02*
X24456300Y-58387500D01*
X148243600Y-32993600D02*
X147773900Y-32993600D01*
X103763400Y-35794800D02*
X104217300Y-35794800D01*
X64937500Y-36480000D02*
X64978200Y-36480000D01*
X88656400Y-12075400D02*
X93672200Y-12075400D01*
X86706800Y-14025000D02*
X85982100Y-14025000D01*
X99404700Y-37832400D02*
X99404700Y-36480000D01*
X104217300Y-57722100D02*
X106848400Y-60353200D01*
X35161100Y-94987500D02*
X35975900Y-94987500D01*
X54375200Y-84972700D02*
X59005700Y-80342200D01*
X21518900Y-25606100D02*
X21518900Y-36400100D01*
X147773900Y-32993600D02*
X147773900Y-31781200D01*
X104292400Y-16669700D02*
X105032100Y-15930000D01*
X49787500Y-17835000D02*
X47882100Y-17835000D01*
X152250000Y-35500000D02*
X150750000Y-35500000D01*
X139500000Y-54250000D02*
X140185200Y-53564800D01*
X33981300Y-96487500D02*
X24497000Y-87003200D01*
X66117300Y-94849800D02*
X66932100Y-94035000D01*
X64937500Y-17430000D02*
X64978200Y-17430000D01*
X45887500Y-38385000D02*
X45928200Y-38385000D01*
X83987500Y-15525000D02*
X84028200Y-15525000D01*
X104217300Y-35794800D02*
X105032100Y-34980000D01*
X68482400Y-20528700D02*
X78983800Y-20528700D01*
X146560400Y-33435000D02*
X146352500Y-33435000D01*
X124051600Y-36885000D02*
X123309300Y-37627300D01*
X105703100Y-34043600D02*
X105703100Y-34980000D01*
X66117300Y-16744800D02*
X66117300Y-18024500D01*
X24456300Y-39337500D02*
X21579600Y-42214200D01*
X73473800Y-66047700D02*
X76199400Y-66047700D01*
X81110800Y-37451700D02*
X81110800Y-47589800D01*
X68837500Y-54030000D02*
X66932100Y-54030000D01*
X69213800Y-62987200D02*
X70413300Y-62987200D01*
X28356300Y-75937500D02*
X26450900Y-75937500D01*
X78123300Y-67971600D02*
X78123300Y-71802300D01*
X86087600Y-98673700D02*
X66660400Y-98673700D01*
X132856400Y-54615400D02*
X126354400Y-54615400D01*
X91131300Y-93630000D02*
X86087600Y-98673700D01*
X49787500Y-74985000D02*
X47882100Y-74985000D01*
X21513200Y-74494400D02*
X21513200Y-61330600D01*
X148500000Y-23750000D02*
X146623300Y-25626700D01*
X99404700Y-36480000D02*
X103037500Y-36480000D01*
X103722700Y-35794800D02*
X103037500Y-36480000D01*
X63233900Y-36653200D02*
X64764300Y-36653200D01*
X25581700Y-75937500D02*
X26450900Y-75937500D01*
X148160800Y-63620200D02*
X150194400Y-65653800D01*
X98686600Y-18690900D02*
X99404700Y-18690900D01*
X122128200Y-38385000D02*
X122813400Y-37699800D01*
X147356600Y-70573300D02*
X144613300Y-70573300D01*
X85167300Y-14839800D02*
X85982100Y-14025000D01*
X122870100Y-56749800D02*
X122870100Y-55935000D01*
X122870100Y-55935000D02*
X124082100Y-55935000D01*
X24456300Y-77437500D02*
X24497000Y-77437500D01*
X47067300Y-77889600D02*
X47067300Y-75799800D01*
X65663400Y-73894800D02*
X66117300Y-73894800D01*
X64978200Y-17430000D02*
X65663400Y-16744800D01*
X103037500Y-74580000D02*
X103722700Y-73894800D01*
X119193900Y-60047500D02*
X119193900Y-60353200D01*
X103037500Y-55530000D02*
X103078200Y-55530000D01*
X139875000Y-73750000D02*
X138223100Y-75401900D01*
X87887500Y-52125000D02*
X87887500Y-51203900D01*
X107871300Y-71316400D02*
X106937500Y-72250200D01*
X123267300Y-19168600D02*
X129335900Y-25237200D01*
X45943700Y-76485000D02*
X46628900Y-75799800D01*
X119193900Y-60353200D02*
X119193900Y-73591400D01*
X47067300Y-75799800D02*
X47882100Y-74985000D01*
X26837500Y-20287500D02*
X21518900Y-25606100D01*
X78996000Y-72675000D02*
X83987500Y-72675000D01*
X103763400Y-16744800D02*
X103777200Y-16744800D01*
X123267300Y-75799800D02*
X124082100Y-74985000D01*
X65622700Y-94849800D02*
X65663400Y-94849800D01*
X65663400Y-73894800D02*
X64978200Y-74580000D01*
X34707200Y-95802300D02*
X35161100Y-95802300D01*
X91131300Y-93630000D02*
X92631300Y-92130000D01*
X143400000Y-52750000D02*
X141494600Y-52750000D01*
X65663400Y-16744800D02*
X66117300Y-16744800D01*
X83987500Y-34575000D02*
X84028200Y-34575000D01*
X146623300Y-29366600D02*
X146982000Y-29725300D01*
X24497000Y-77437500D02*
X25182200Y-76752300D01*
X49787500Y-55935000D02*
X47882100Y-55935000D01*
X110001300Y-65339700D02*
X112098900Y-67437300D01*
X66117300Y-73894800D02*
X66932100Y-73080000D01*
X103763400Y-35794800D02*
X103722700Y-35794800D01*
X45887500Y-76485000D02*
X43010800Y-73608300D01*
X122813400Y-18649800D02*
X123267300Y-18649800D01*
X64978200Y-74580000D02*
X64937500Y-74580000D01*
X64937500Y-17430000D02*
X64937500Y-23408700D01*
X122772700Y-75799800D02*
X122813400Y-75799800D01*
G04 #@! TO.N,/rgb/RGB_LED_left_16*
X49787500Y-57435000D02*
X49787500Y-58944200D01*
X131188000Y-57435000D02*
X131187500Y-57435000D01*
X131188000Y-57435000D02*
X133124000Y-57435000D01*
X133124000Y-57435000D02*
X133124000Y-59493200D01*
G04 #@! TO.N,/rgb/RGB_LED_left_17*
X35493000Y-58387500D02*
X35493000Y-60392600D01*
X33556300Y-58387500D02*
X35493000Y-58387500D01*
X125987500Y-57435000D02*
X125988000Y-57435000D01*
X56601200Y-60265200D02*
X55517000Y-60265200D01*
X55517000Y-60265200D02*
X55389600Y-60392600D01*
X125988000Y-57435000D02*
X125988000Y-60492300D01*
G04 #@! TO.N,/rgb/RGB_LED_left_14*
X112137500Y-55530000D02*
X112138000Y-55530000D01*
X112138000Y-55530000D02*
X112138000Y-59732900D01*
X68837500Y-55530000D02*
X68837500Y-61751900D01*
G04 #@! TO.N,/rgb/RGB_LED_left_15*
X106938000Y-55530000D02*
X106938000Y-59532900D01*
X57318200Y-57829000D02*
X57318200Y-61150200D01*
X106937500Y-55530000D02*
X106938000Y-55530000D01*
X54987500Y-57435000D02*
X56924200Y-57435000D01*
X56924200Y-57435000D02*
X57318200Y-57829000D01*
G04 #@! TO.N,/rgb/RGB_LED_left_23*
X49787500Y-76485000D02*
X49787500Y-79742000D01*
X131187500Y-76485000D02*
X131188000Y-76485000D01*
X131188000Y-76485000D02*
X131188000Y-79742000D01*
G04 #@! TO.N,/rgb/RGB_LED_left_24*
X35493000Y-77437500D02*
X35493000Y-78133600D01*
X125988000Y-76485000D02*
X124051000Y-76485000D01*
X35493000Y-78133600D02*
X35563500Y-78204100D01*
X33556300Y-77437500D02*
X35493000Y-77437500D01*
X122982000Y-77554200D02*
X122982000Y-77953600D01*
X124051000Y-76485000D02*
X122982000Y-77554200D01*
G04 #@! TO.N,/rgb/RGB_LED_left_13*
X141463000Y-54788200D02*
X141463000Y-54250000D01*
X142057000Y-55382200D02*
X141463000Y-54788200D01*
X143400000Y-54250000D02*
X141463000Y-54250000D01*
X74037500Y-55530000D02*
X75974200Y-55530000D01*
X142057000Y-57371400D02*
X142057000Y-55382200D01*
X75974200Y-55530000D02*
X75974200Y-57911100D01*
G04 #@! TO.N,/rgb/RGB_LED_left_4*
X37874200Y-20287500D02*
X37874200Y-21031400D01*
X125988000Y-19335000D02*
X125988000Y-20698800D01*
X35937500Y-20287500D02*
X37874200Y-20287500D01*
X125987500Y-19335000D02*
X125988000Y-19335000D01*
X37874200Y-21031400D02*
X37726100Y-21179500D01*
G04 #@! TO.N,/rgb/RGB_LED_left_5*
X93087500Y-35415100D02*
X93087500Y-34575000D01*
X91678000Y-36824600D02*
X93087500Y-35415100D01*
X30737500Y-20287500D02*
X30737500Y-22819500D01*
G04 #@! TO.N,/rgb/RGB_LED_left_3*
X131187500Y-19335000D02*
X131188000Y-19335000D01*
X131188000Y-19335000D02*
X131188000Y-21304600D01*
X49787500Y-19335000D02*
X49787500Y-21295800D01*
X49787500Y-21295800D02*
X49796300Y-21304600D01*
G04 #@! TO.N,/rgb/RGB_LED_left_12*
X87887500Y-53625000D02*
X87887500Y-57102400D01*
X148600000Y-54250000D02*
X148600000Y-56769700D01*
G04 #@! TO.N,/power/RGB_SW_LEFT*
X146238000Y-34049500D02*
X146287500Y-34000000D01*
X145621200Y-34254900D02*
X145826600Y-34049500D01*
X145621200Y-34995200D02*
X145621200Y-34254900D01*
X145826600Y-34049500D02*
X146238000Y-34049500D01*
X146000000Y-29401300D02*
X146000000Y-30600000D01*
G04 #@! TO.N,/rgb/RGB_LED_left_19*
X148975000Y-73750000D02*
X148975000Y-75098600D01*
X87887500Y-72675000D02*
X87887500Y-74491800D01*
G04 #@! TO.N,/rgb/RGB_LED_left_20*
X141640000Y-73750000D02*
X141602000Y-73787800D01*
X143775000Y-73750000D02*
X141640000Y-73750000D01*
X74037500Y-74580000D02*
X74037500Y-76089800D01*
G04 #@! TO.N,/rgb/RGB_LED_left_18*
X28356300Y-58387500D02*
X28075100Y-58668700D01*
X93087500Y-72675000D02*
X93087500Y-74331200D01*
X28075100Y-58668700D02*
X28075100Y-60745400D01*
G04 #@! TO.N,/power/RGB_FB_LEFT*
X146994400Y-33831500D02*
X146994400Y-34008100D01*
X147325900Y-33500000D02*
X146994400Y-33831500D01*
X147035800Y-36585800D02*
X147750000Y-37300000D01*
X147035800Y-34049500D02*
X147035800Y-34249500D01*
X147035800Y-34249500D02*
X147035800Y-36585800D01*
X146994400Y-34008100D02*
X147035800Y-34049500D01*
X147712500Y-33500000D02*
X147325900Y-33500000D01*
X147750000Y-37300000D02*
X149250000Y-37300000D01*
G04 #@! TO.N,/rgb/RGB_LED_left_6*
X75974200Y-36480000D02*
X75974200Y-34350200D01*
X75974200Y-34350200D02*
X77186800Y-33137600D01*
X87887500Y-34575000D02*
X87887500Y-35476700D01*
X74037500Y-36480000D02*
X75974200Y-36480000D01*
G04 #@! TO.N,/rgb/RGB_LED_left_25*
X28356300Y-77437500D02*
X28356300Y-89090800D01*
X100231300Y-93630000D02*
X100231000Y-93630000D01*
X100231000Y-93630000D02*
X100231000Y-96102000D01*
X28356300Y-89090800D02*
X32401900Y-93136400D01*
G04 #@! TO.N,/rgb/RGB_LED_left_1*
X112138000Y-17430000D02*
X114074000Y-17430000D01*
X68837500Y-17430000D02*
X68837500Y-19895900D01*
X112138000Y-17430000D02*
X112137500Y-17430000D01*
X114074000Y-17430000D02*
X114074000Y-20299700D01*
G04 #@! TO.N,/rgb/RGB_LED_left_2*
X54987500Y-19335000D02*
X57082000Y-19335000D01*
X57082000Y-19335000D02*
X57130300Y-19286700D01*
X106937500Y-17430000D02*
X106938000Y-17430000D01*
X106938000Y-17430000D02*
X106938000Y-19659400D01*
G04 #@! TO.N,/rgb/RGB_LED_left_10*
X35493000Y-39938400D02*
X35071400Y-40360000D01*
X125988000Y-38385000D02*
X125988000Y-39992600D01*
X34578900Y-40360000D02*
X34578900Y-40360100D01*
X35071400Y-40360000D02*
X34578900Y-40360000D01*
X35493000Y-39337500D02*
X35493000Y-39938400D01*
X125987500Y-38385000D02*
X125988000Y-38385000D01*
X33556300Y-39337500D02*
X35493000Y-39337500D01*
G04 #@! TO.N,/rgb/RGB_LED_left_11*
X28356300Y-39337500D02*
X28356300Y-44009100D01*
X93087500Y-53625000D02*
X93087500Y-55133300D01*
G04 #@! TO.N,/rgb/RGB_LED_left_7*
X112138000Y-36480000D02*
X112137500Y-36480000D01*
X114074000Y-36480000D02*
X114074000Y-39225000D01*
X112138000Y-36480000D02*
X114074000Y-36480000D01*
X68837500Y-36480000D02*
X68837500Y-39225000D01*
G04 #@! TO.N,/rgb/RGB_LED_left_8*
X54987500Y-38385000D02*
X56924200Y-38385000D01*
X105001000Y-36480000D02*
X105001000Y-38608300D01*
X56924200Y-38385000D02*
X56924200Y-38245500D01*
X56924200Y-38245500D02*
X57282600Y-37887100D01*
X106938000Y-36480000D02*
X105001000Y-36480000D01*
G04 #@! TO.N,/power/RGB_SHIFTED_LEFT*
X141800000Y-23750000D02*
X142000000Y-23950000D01*
X142000000Y-23950000D02*
X143862500Y-23950000D01*
G04 #@! TO.N,/RGB_DATA_SHIFTED_LEFT*
X95228500Y-18419100D02*
X98783600Y-21974200D01*
X129178700Y-23040900D02*
X129178700Y-23041000D01*
X93087500Y-15525000D02*
X95024200Y-15525000D01*
X98783600Y-21974200D02*
X98783600Y-25379500D01*
X141009100Y-23040900D02*
X129178700Y-23040900D01*
X95024200Y-15525000D02*
X95228500Y-15729300D01*
X141800000Y-22250000D02*
X141009100Y-23040900D01*
X95228500Y-15729300D02*
X95228500Y-18419100D01*
G04 #@! TO.N,/rgb/RGB_LED_left_21*
X112138000Y-74580000D02*
X114074000Y-74580000D01*
X68837500Y-74580000D02*
X68837500Y-76697100D01*
X112138000Y-74580000D02*
X112137500Y-74580000D01*
X114074000Y-74580000D02*
X114074000Y-76697100D01*
G04 #@! TO.N,/rgb/RGB_LED_left_9*
X131187500Y-38385000D02*
X131188000Y-38385000D01*
X49787500Y-38385000D02*
X49787500Y-39738500D01*
X131188000Y-38385000D02*
X131188000Y-39534100D01*
X131188000Y-39534100D02*
X130985000Y-39736900D01*
G04 #@! TO.N,/rgb/RGB_LED_left_29*
X147326000Y-103851000D02*
X147326000Y-108186000D01*
X147326000Y-108186000D02*
X145020000Y-110492000D01*
X146236000Y-103054000D02*
X146528000Y-103054000D01*
X125324000Y-107495000D02*
X125364000Y-107495000D01*
X125364000Y-107495000D02*
X125536000Y-107667000D01*
X125872000Y-105446000D02*
X125324000Y-107495000D01*
X146528000Y-103054000D02*
X147326000Y-103851000D01*
G04 #@! TO.N,/rgb/RGB_LED_left_26*
X93094600Y-93599800D02*
X92687400Y-93192600D01*
X95031300Y-93630000D02*
X93094600Y-93630000D01*
X74037500Y-95535000D02*
X75974200Y-95535000D01*
X75974200Y-95535000D02*
X75974200Y-92641600D01*
X93094600Y-93630000D02*
X93094600Y-93599800D01*
G04 #@! TO.N,/rgb/RGB_LED_left_0*
X74037500Y-17430000D02*
X75974200Y-17430000D01*
X85950800Y-15525000D02*
X85950800Y-15563400D01*
X85950800Y-15563400D02*
X85698500Y-15815700D01*
X87887500Y-15525000D02*
X85950800Y-15525000D01*
X75974200Y-16976300D02*
X77134800Y-15815700D01*
X75974200Y-17430000D02*
X75974200Y-16976300D01*
G04 #@! TO.N,/rgb/RGB_LED_left_22*
X105001000Y-74580000D02*
X105001000Y-78835800D01*
X54987500Y-76485000D02*
X56924200Y-76485000D01*
X106938000Y-74580000D02*
X105001000Y-74580000D01*
X56924200Y-76485000D02*
X56924200Y-78835800D01*
G04 #@! TO.N,/rgb/RGB_LED_left_28*
X127767000Y-98374900D02*
X128027000Y-98374900D01*
X127218000Y-100423000D02*
X127767000Y-98374900D01*
X128517000Y-98716900D02*
X128517000Y-98718500D01*
X128369000Y-98716900D02*
X128517000Y-98716900D01*
X37881300Y-96487500D02*
X37881300Y-98696800D01*
X128027000Y-98374900D02*
X128369000Y-98716900D01*
G04 #@! TO.N,/rgb/RGB_LED_left_27*
X68837500Y-95535000D02*
X66900800Y-95535000D01*
X66900800Y-95535000D02*
X66900800Y-98039600D01*
X43081300Y-96487500D02*
X43081300Y-98039600D01*
G04 #@! TD*
M02*
