G04 #@! TF.GenerationSoftware,KiCad,Pcbnew,10.0.5*
G04 #@! TF.CreationDate,2026-09-23T16:28:01+09:00*
G04 #@! TF.ProjectId,keyboard,6b657962-6f61-4726-942e-6b696361645f,rev?*
G04 #@! TF.SameCoordinates,Original*
G04 #@! TF.FileFunction,Soldermask,Top*
G04 #@! TF.FilePolarity,Negative*
%FSLAX46Y46*%
G04 Gerber Fmt 4.6, Leading zero omitted, Abs format (unit mm)*
G04 Created by KiCad (PCBNEW 10.0.5) date 2026-09-23 16:28:01*
%MOMM*%
%LPD*%
G01*
G04 APERTURE LIST*
G04 Aperture macros list*
%AMRoundRect*
0 Rectangle with rounded corners*
0 $1 Rounding radius*
0 $2 $3 $4 $5 $6 $7 $8 $9 X,Y pos of 4 corners*
0 Add a 4 corners polygon primitive as box body*
4,1,4,$2,$3,$4,$5,$6,$7,$8,$9,$2,$3,0*
0 Add four circle primitives for the rounded corners*
1,1,$1+$1,$2,$3*
1,1,$1+$1,$4,$5*
1,1,$1+$1,$6,$7*
1,1,$1+$1,$8,$9*
0 Add four rect primitives between the rounded corners*
20,1,$1+$1,$2,$3,$4,$5,0*
20,1,$1+$1,$4,$5,$6,$7,0*
20,1,$1+$1,$6,$7,$8,$9,0*
20,1,$1+$1,$8,$9,$2,$3,0*%
%AMFreePoly0*
4,1,15,-0.616000,0.142500,-0.283500,0.475000,0.521000,0.475000,0.557355,0.467769,0.588175,0.447175,0.608769,0.416355,0.616000,0.380000,0.616000,-0.380000,0.608769,-0.416355,0.588175,-0.447175,0.557355,-0.467769,0.521000,-0.475000,-0.283500,-0.475000,-0.616000,-0.142500,-0.616000,0.142500,-0.616000,0.142500,$1*%
G04 Aperture macros list end*
%ADD10C,2.000000*%
%ADD11C,3.000000*%
%ADD12C,4.000000*%
%ADD13RoundRect,0.095000X0.921000X0.380000X-0.921000X0.380000X-0.921000X-0.380000X0.921000X-0.380000X0*%
%ADD14RoundRect,0.095000X-0.921000X-0.380000X0.921000X-0.380000X0.921000X0.380000X-0.921000X0.380000X0*%
%ADD15FreePoly0,180.000000*%
%ADD16O,1.800000X1.200000*%
%ADD17FreePoly0,0.000000*%
%ADD18C,1.700000*%
%ADD19O,1.900000X1.900000*%
%ADD20O,1.200000X2.500000*%
%ADD21C,0.850000*%
%ADD22RoundRect,0.150000X0.500000X-0.150000X0.500000X0.150000X-0.500000X0.150000X-0.500000X-0.150000X0*%
%ADD23RoundRect,0.175000X0.175000X-0.350000X0.175000X0.350000X-0.175000X0.350000X-0.175000X-0.350000X0*%
%ADD24C,2.200000*%
%ADD25C,3.050000*%
%ADD26C,1.800000*%
%ADD27RoundRect,0.250000X0.350000X0.625000X-0.350000X0.625000X-0.350000X-0.625000X0.350000X-0.625000X0*%
%ADD28O,1.200000X1.750000*%
G04 APERTURE END LIST*
D10*
G04 #@! TO.C,SW41*
X142557500Y-66675000D03*
D11*
X143827500Y-64135000D03*
D12*
X147637500Y-66675000D03*
D11*
X150177500Y-61595000D03*
D10*
X152717500Y-66675000D03*
G04 #@! TD*
D13*
G04 #@! TO.C,U1*
X140357500Y-3987500D03*
X140357500Y-6527500D03*
X140357500Y-9067500D03*
X140357500Y-11607500D03*
X140357500Y-14147500D03*
X140357500Y-16687500D03*
X140357500Y-19227500D03*
D14*
X156867500Y-19227500D03*
X156867500Y-16687500D03*
X156867500Y-14147500D03*
X156867500Y-11607500D03*
X156867500Y-9067500D03*
X156867500Y-6527500D03*
X156867500Y-3987500D03*
D15*
X139957500Y-5257500D03*
X139957500Y-7797500D03*
D16*
X139957500Y-10337500D03*
D15*
X139957500Y-12877500D03*
X139957500Y-15417500D03*
X139957500Y-17957500D03*
D17*
X157267500Y-17957500D03*
X157267500Y-15417500D03*
X157267500Y-12877500D03*
D18*
X147342500Y-3035000D03*
X149882500Y-3035000D03*
D19*
X147342500Y-5575000D03*
X149882500Y-5575000D03*
D20*
X147618512Y-17125323D03*
X149618512Y-17125323D03*
G04 #@! TD*
D10*
G04 #@! TO.C,SW4*
X104457500Y-11430000D03*
D11*
X105727500Y-8890000D03*
D12*
X109537500Y-11430000D03*
D11*
X112077500Y-6350000D03*
D10*
X114617500Y-11430000D03*
G04 #@! TD*
G04 #@! TO.C,SW26*
X142557500Y-47625000D03*
D11*
X143827500Y-45085000D03*
D12*
X147637500Y-47625000D03*
D11*
X150177500Y-42545000D03*
D10*
X152717500Y-47625000D03*
G04 #@! TD*
G04 #@! TO.C,SW55*
X35401300Y-90487500D03*
D11*
X36671300Y-87947500D03*
D12*
X40481300Y-90487500D03*
D11*
X43021300Y-85407500D03*
D10*
X45561300Y-90487500D03*
G04 #@! TD*
G04 #@! TO.C,SW37*
X25876300Y-52387500D03*
D11*
X27146300Y-49847500D03*
D12*
X30956300Y-52387500D03*
D11*
X33496300Y-47307500D03*
D10*
X36036300Y-52387500D03*
G04 #@! TD*
G04 #@! TO.C,SW1*
X85407500Y-9525000D03*
D11*
X86677500Y-6985000D03*
D12*
X90487500Y-9525000D03*
D11*
X93027500Y-4445000D03*
D10*
X95567500Y-9525000D03*
G04 #@! TD*
G04 #@! TO.C,SW33*
X47307500Y-51435000D03*
D11*
X48577500Y-48895000D03*
D12*
X52387500Y-51435000D03*
D11*
X54927500Y-46355000D03*
D10*
X57467500Y-51435000D03*
G04 #@! TD*
G04 #@! TO.C,SW23*
X25876300Y-33337500D03*
D11*
X27146300Y-30797500D03*
D12*
X30956300Y-33337500D03*
D11*
X33496300Y-28257500D03*
D10*
X36036300Y-33337500D03*
G04 #@! TD*
G04 #@! TO.C,SW15*
X66357500Y-30480000D03*
D11*
X67627500Y-27940000D03*
D12*
X71437500Y-30480000D03*
D11*
X73977500Y-25400000D03*
D10*
X76517500Y-30480000D03*
G04 #@! TD*
G04 #@! TO.C,SW53*
X92551300Y-87630000D03*
D11*
X93821300Y-85090000D03*
D12*
X97631300Y-87630000D03*
D11*
X100171300Y-82550000D03*
D10*
X102711300Y-87630000D03*
G04 #@! TD*
G04 #@! TO.C,SW16*
X104457500Y-30480000D03*
D11*
X105727500Y-27940000D03*
D12*
X109537500Y-30480000D03*
D11*
X112077500Y-25400000D03*
D10*
X114617500Y-30480000D03*
G04 #@! TD*
G04 #@! TO.C,SW54*
X66357500Y-89535000D03*
D11*
X67627500Y-86995000D03*
D12*
X71437500Y-89535000D03*
D11*
X73977500Y-84455000D03*
D10*
X76517500Y-89535000D03*
G04 #@! TD*
D11*
G04 #@! TO.C,STAB1*
X136677300Y-115543500D03*
G04 #@! TD*
D10*
G04 #@! TO.C,SW3*
X66357500Y-11430000D03*
D11*
X67627500Y-8890000D03*
D12*
X71437500Y-11430000D03*
D11*
X73977500Y-6350000D03*
D10*
X76517500Y-11430000D03*
G04 #@! TD*
D21*
G04 #@! TO.C,SWP1*
X157000000Y-31987500D03*
X157000000Y-28987500D03*
D22*
X155050000Y-32737500D03*
X155050000Y-29737500D03*
X155050000Y-28237500D03*
D23*
X155900000Y-34162500D03*
X158100000Y-34162500D03*
X155900000Y-26812500D03*
X158100000Y-26812500D03*
G04 #@! TD*
D10*
G04 #@! TO.C,SW40*
X85407500Y-66675000D03*
D11*
X86677500Y-64135000D03*
D12*
X90487500Y-66675000D03*
D11*
X93027500Y-61595000D03*
D10*
X95567500Y-66675000D03*
G04 #@! TD*
G04 #@! TO.C,SW44*
X104457500Y-68580000D03*
D11*
X105727500Y-66040000D03*
D12*
X109537500Y-68580000D03*
D11*
X112077500Y-63500000D03*
D10*
X114617500Y-68580000D03*
G04 #@! TD*
G04 #@! TO.C,SW58*
X119435099Y-106288803D03*
D11*
X117310348Y-104404677D03*
D12*
X120749900Y-101381900D03*
D11*
X116500397Y-97613648D03*
D10*
X122064701Y-96474997D03*
G04 #@! TD*
D24*
G04 #@! TO.C,H1*
X21150000Y-38607500D03*
G04 #@! TD*
G04 #@! TO.C,H2*
X82650000Y-96007500D03*
G04 #@! TD*
G04 #@! TO.C,H3*
X148250000Y-26307500D03*
G04 #@! TD*
D10*
G04 #@! TO.C,SW34*
X123507500Y-51435000D03*
D11*
X124777500Y-48895000D03*
D12*
X128587500Y-51435000D03*
D11*
X131127500Y-46355000D03*
D10*
X133667500Y-51435000D03*
G04 #@! TD*
G04 #@! TO.C,SW20*
X123507500Y-32385000D03*
D11*
X124777500Y-29845000D03*
D12*
X128587500Y-32385000D03*
D11*
X131127500Y-27305000D03*
D10*
X133667500Y-32385000D03*
G04 #@! TD*
G04 #@! TO.C,SW29*
X66357500Y-49530000D03*
D11*
X67627500Y-46990000D03*
D12*
X71437500Y-49530000D03*
D11*
X73977500Y-44450000D03*
D10*
X76517500Y-49530000D03*
G04 #@! TD*
G04 #@! TO.C,SW19*
X47307500Y-32385000D03*
D11*
X48577500Y-29845000D03*
D12*
X52387500Y-32385000D03*
D11*
X54927500Y-27305000D03*
D10*
X57467500Y-32385000D03*
G04 #@! TD*
D11*
G04 #@! TO.C,STAB2*
X142856900Y-92481000D03*
G04 #@! TD*
D25*
G04 #@! TO.C,SW59*
X129925673Y-113695084D03*
D12*
X144646382Y-117639486D03*
D26*
X138452299Y-108919203D03*
D11*
X136327548Y-107035077D03*
D12*
X139767100Y-104012300D03*
D11*
X135517597Y-100244048D03*
D26*
X141081901Y-99105397D03*
D12*
X150806275Y-94650453D03*
D25*
X136085566Y-90706049D03*
G04 #@! TD*
D10*
G04 #@! TO.C,SW43*
X66357500Y-68580000D03*
D11*
X67627500Y-66040000D03*
D12*
X71437500Y-68580000D03*
D11*
X73977500Y-63500000D03*
D10*
X76517500Y-68580000D03*
G04 #@! TD*
G04 #@! TO.C,SW51*
X25876300Y-71437500D03*
D11*
X27146300Y-68897500D03*
D12*
X30956300Y-71437500D03*
D11*
X33496300Y-66357500D03*
D10*
X36036300Y-71437500D03*
G04 #@! TD*
G04 #@! TO.C,SW7*
X47307500Y-13335000D03*
D11*
X48577500Y-10795000D03*
D12*
X52387500Y-13335000D03*
D11*
X54927500Y-8255000D03*
D10*
X57467500Y-13335000D03*
G04 #@! TD*
G04 #@! TO.C,SW11*
X28257500Y-14287500D03*
D11*
X29527500Y-11747500D03*
D12*
X33337500Y-14287500D03*
D11*
X35877500Y-9207500D03*
D10*
X38417500Y-14287500D03*
G04 #@! TD*
G04 #@! TO.C,SW13*
X85407500Y-28575000D03*
D11*
X86677500Y-26035000D03*
D12*
X90487500Y-28575000D03*
D11*
X93027500Y-23495000D03*
D10*
X95567500Y-28575000D03*
G04 #@! TD*
G04 #@! TO.C,SW48*
X123507500Y-70485000D03*
D11*
X124777500Y-67945000D03*
D12*
X128587500Y-70485000D03*
D11*
X131127500Y-65405000D03*
D10*
X133667500Y-70485000D03*
G04 #@! TD*
G04 #@! TO.C,SW47*
X47307500Y-70485000D03*
D11*
X48577500Y-67945000D03*
D12*
X52387500Y-70485000D03*
D11*
X54927500Y-65405000D03*
D10*
X57467500Y-70485000D03*
G04 #@! TD*
G04 #@! TO.C,SW25*
X85407500Y-47625000D03*
D11*
X86677500Y-45085000D03*
D12*
X90487500Y-47625000D03*
D11*
X93027500Y-42545000D03*
D10*
X95567500Y-47625000D03*
G04 #@! TD*
G04 #@! TO.C,SW8*
X123507500Y-13335000D03*
D11*
X124777500Y-10795000D03*
D12*
X128587500Y-13335000D03*
D11*
X131127500Y-8255000D03*
D10*
X133667500Y-13335000D03*
G04 #@! TD*
G04 #@! TO.C,SW30*
X104457500Y-49530000D03*
D11*
X105727500Y-46990000D03*
D12*
X109537500Y-49530000D03*
D11*
X112077500Y-44450000D03*
D10*
X114617500Y-49530000D03*
G04 #@! TD*
D27*
G04 #@! TO.C,J1*
X141500000Y-30300000D03*
D28*
X139500000Y-30300000D03*
G04 #@! TD*
M02*
