0
SECTION
2
ENTITIES
0
POLYLINE
8
0
6
CONTINUOUS
66
1
70
1
0
VERTEX
8
0
10
34.7291772
20
-100.3006801
42
0.4142136
0
VERTEX
8
0
10
35.3415496
20
-99.9471267
0
VERTEX
8
0
10
38.7061972
20
-87.3900909
42
0.4142136
0
VERTEX
8
0
10
38.3526438
20
-86.7777185
0
VERTEX
8
0
10
25.795608
20
-83.4130709
42
0.4142136
0
VERTEX
8
0
10
25.1832356
20
-83.7666243
0
VERTEX
8
0
10
21.818588
20
-96.3236601
42
0.4142136
0
VERTEX
8
0
10
22.1721414
20
-96.9360325
0
SEQEND
0
POLYLINE
8
0
6
CONTINUOUS
66
1
70
1
0
VERTEX
8
0
10
53.746377
20
-102.9310721
42
0.4142136
0
VERTEX
8
0
10
54.3587494
20
-102.5775187
0
VERTEX
8
0
10
57.723397
20
-90.0204829
42
0.4142136
0
VERTEX
8
0
10
57.3698436
20
-89.4081105
0
VERTEX
8
0
10
44.8128078
20
-86.0434629
42
0.4142136
0
VERTEX
8
0
10
44.2004354
20
-86.3970163
0
VERTEX
8
0
10
40.8357878
20
-98.9540521
42
0.4142136
0
VERTEX
8
0
10
41.1893412
20
-99.5664245
0
SEQEND
0
POLYLINE
8
0
6
CONTINUOUS
66
1
70
1
0
VERTEX
8
0
10
-7
20
-6.5
42
0.4142136
0
VERTEX
8
0
10
-6.5
20
-7
0
VERTEX
8
0
10
6.5
20
-7
42
0.4142136
0
VERTEX
8
0
10
7
20
-6.5
0
VERTEX
8
0
10
7
20
6.5
42
0.4142136
0
VERTEX
8
0
10
6.5
20
7
0
VERTEX
8
0
10
-6.5
20
7
42
0.4142136
0
VERTEX
8
0
10
-7
20
6.5
0
SEQEND
0
POLYLINE
8
0
6
CONTINUOUS
66
1
70
1
0
VERTEX
8
0
10
-26.05
20
-8.405
42
0.4142136
0
VERTEX
8
0
10
-25.55
20
-8.905
0
VERTEX
8
0
10
-12.55
20
-8.905
42
0.4142136
0
VERTEX
8
0
10
-12.05
20
-8.405
0
VERTEX
8
0
10
-12.05
20
4.595
42
0.4142136
0
VERTEX
8
0
10
-12.55
20
5.095
0
VERTEX
8
0
10
-25.55
20
5.095
42
0.4142136
0
VERTEX
8
0
10
-26.05
20
4.595
0
SEQEND
0
POLYLINE
8
0
6
CONTINUOUS
66
1
70
1
0
VERTEX
8
0
10
12.05
20
-8.405
42
0.4142136
0
VERTEX
8
0
10
12.55
20
-8.905
0
VERTEX
8
0
10
25.55
20
-8.905
42
0.4142136
0
VERTEX
8
0
10
26.05
20
-8.405
0
VERTEX
8
0
10
26.05
20
4.595
42
0.4142136
0
VERTEX
8
0
10
25.55
20
5.095
0
VERTEX
8
0
10
12.55
20
5.095
42
0.4142136
0
VERTEX
8
0
10
12.05
20
4.595
0
SEQEND
0
POLYLINE
8
0
6
CONTINUOUS
66
1
70
1
0
VERTEX
8
0
10
-45.1
20
-10.31
42
0.4142136
0
VERTEX
8
0
10
-44.6
20
-10.81
0
VERTEX
8
0
10
-31.6
20
-10.81
42
0.4142136
0
VERTEX
8
0
10
-31.1
20
-10.31
0
VERTEX
8
0
10
-31.1
20
2.69
42
0.4142136
0
VERTEX
8
0
10
-31.6
20
3.19
0
VERTEX
8
0
10
-44.6
20
3.19
42
0.4142136
0
VERTEX
8
0
10
-45.1
20
2.69
0
SEQEND
0
POLYLINE
8
0
6
CONTINUOUS
66
1
70
1
0
VERTEX
8
0
10
31.1
20
-10.31
42
0.4142136
0
VERTEX
8
0
10
31.6
20
-10.81
0
VERTEX
8
0
10
44.6
20
-10.81
42
0.4142136
0
VERTEX
8
0
10
45.1
20
-10.31
0
VERTEX
8
0
10
45.1
20
2.69
42
0.4142136
0
VERTEX
8
0
10
44.6
20
3.19
0
VERTEX
8
0
10
31.6
20
3.19
42
0.4142136
0
VERTEX
8
0
10
31.1
20
2.69
0
SEQEND
0
POLYLINE
8
0
6
CONTINUOUS
66
1
70
1
0
VERTEX
8
0
10
-64.15
20
-11.2625
42
0.4142136
0
VERTEX
8
0
10
-63.65
20
-11.7625
0
VERTEX
8
0
10
-50.65
20
-11.7625
42
0.4142136
0
VERTEX
8
0
10
-50.15
20
-11.2625
0
VERTEX
8
0
10
-50.15
20
1.7375
42
0.4142136
0
VERTEX
8
0
10
-50.65
20
2.2375
0
VERTEX
8
0
10
-63.65
20
2.2375
42
0.4142136
0
VERTEX
8
0
10
-64.15
20
1.7375
0
SEQEND
0
POLYLINE
8
0
6
CONTINUOUS
66
1
70
1
0
VERTEX
8
0
10
-7
20
-25.55
42
0.4142136
0
VERTEX
8
0
10
-6.5
20
-26.05
0
VERTEX
8
0
10
6.5
20
-26.05
42
0.4142136
0
VERTEX
8
0
10
7
20
-25.55
0
VERTEX
8
0
10
7
20
-12.55
42
0.4142136
0
VERTEX
8
0
10
6.5
20
-12.05
0
VERTEX
8
0
10
-6.5
20
-12.05
42
0.4142136
0
VERTEX
8
0
10
-7
20
-12.55
0
SEQEND
0
POLYLINE
8
0
6
CONTINUOUS
66
1
70
1
0
VERTEX
8
0
10
-26.05
20
-27.455
42
0.4142136
0
VERTEX
8
0
10
-25.55
20
-27.955
0
VERTEX
8
0
10
-12.55
20
-27.955
42
0.4142136
0
VERTEX
8
0
10
-12.05
20
-27.455
0
VERTEX
8
0
10
-12.05
20
-14.455
42
0.4142136
0
VERTEX
8
0
10
-12.55
20
-13.955
0
VERTEX
8
0
10
-25.55
20
-13.955
42
0.4142136
0
VERTEX
8
0
10
-26.05
20
-14.455
0
SEQEND
0
POLYLINE
8
0
6
CONTINUOUS
66
1
70
1
0
VERTEX
8
0
10
12.05
20
-27.455
42
0.4142136
0
VERTEX
8
0
10
12.55
20
-27.955
0
VERTEX
8
0
10
25.55
20
-27.955
42
0.4142136
0
VERTEX
8
0
10
26.05
20
-27.455
0
VERTEX
8
0
10
26.05
20
-14.455
42
0.4142136
0
VERTEX
8
0
10
25.55
20
-13.955
0
VERTEX
8
0
10
12.55
20
-13.955
42
0.4142136
0
VERTEX
8
0
10
12.05
20
-14.455
0
SEQEND
0
POLYLINE
8
0
6
CONTINUOUS
66
1
70
1
0
VERTEX
8
0
10
-45.1
20
-29.36
42
0.4142136
0
VERTEX
8
0
10
-44.6
20
-29.86
0
VERTEX
8
0
10
-31.6
20
-29.86
42
0.4142136
0
VERTEX
8
0
10
-31.1
20
-29.36
0
VERTEX
8
0
10
-31.1
20
-16.36
42
0.4142136
0
VERTEX
8
0
10
-31.6
20
-15.86
0
VERTEX
8
0
10
-44.6
20
-15.86
42
0.4142136
0
VERTEX
8
0
10
-45.1
20
-16.36
0
SEQEND
0
POLYLINE
8
0
6
CONTINUOUS
66
1
70
1
0
VERTEX
8
0
10
31.1
20
-29.36
42
0.4142136
0
VERTEX
8
0
10
31.6
20
-29.86
0
VERTEX
8
0
10
44.6
20
-29.86
42
0.4142136
0
VERTEX
8
0
10
45.1
20
-29.36
0
VERTEX
8
0
10
45.1
20
-16.36
42
0.4142136
0
VERTEX
8
0
10
44.6
20
-15.86
0
VERTEX
8
0
10
31.6
20
-15.86
42
0.4142136
0
VERTEX
8
0
10
31.1
20
-16.36
0
SEQEND
0
POLYLINE
8
0
6
CONTINUOUS
66
1
70
1
0
VERTEX
8
0
10
-66.53125
20
-30.3125
42
0.4142136
0
VERTEX
8
0
10
-66.03125
20
-30.8125
0
VERTEX
8
0
10
-53.03125
20
-30.8125
42
0.4142136
0
VERTEX
8
0
10
-52.53125
20
-30.3125
0
VERTEX
8
0
10
-52.53125
20
-17.3125
42
0.4142136
0
VERTEX
8
0
10
-53.03125
20
-16.8125
0
VERTEX
8
0
10
-66.03125
20
-16.8125
42
0.4142136
0
VERTEX
8
0
10
-66.53125
20
-17.3125
0
SEQEND
0
POLYLINE
8
0
6
CONTINUOUS
66
1
70
1
0
VERTEX
8
0
10
-7
20
-44.6
42
0.4142136
0
VERTEX
8
0
10
-6.5
20
-45.1
0
VERTEX
8
0
10
6.5
20
-45.1
42
0.4142136
0
VERTEX
8
0
10
7
20
-44.6
0
VERTEX
8
0
10
7
20
-31.6
42
0.4142136
0
VERTEX
8
0
10
6.5
20
-31.1
0
VERTEX
8
0
10
-6.5
20
-31.1
42
0.4142136
0
VERTEX
8
0
10
-7
20
-31.6
0
SEQEND
0
POLYLINE
8
0
6
CONTINUOUS
66
1
70
1
0
VERTEX
8
0
10
50.15
20
-44.6
42
0.4142136
0
VERTEX
8
0
10
50.65
20
-45.1
0
VERTEX
8
0
10
63.65
20
-45.1
42
0.4142136
0
VERTEX
8
0
10
64.15
20
-44.6
0
VERTEX
8
0
10
64.15
20
-31.6
42
0.4142136
0
VERTEX
8
0
10
63.65
20
-31.1
0
VERTEX
8
0
10
50.65
20
-31.1
42
0.4142136
0
VERTEX
8
0
10
50.15
20
-31.6
0
SEQEND
0
POLYLINE
8
0
6
CONTINUOUS
66
1
70
1
0
VERTEX
8
0
10
-26.05
20
-46.505
42
0.4142136
0
VERTEX
8
0
10
-25.55
20
-47.005
0
VERTEX
8
0
10
-12.55
20
-47.005
42
0.4142136
0
VERTEX
8
0
10
-12.05
20
-46.505
0
VERTEX
8
0
10
-12.05
20
-33.505
42
0.4142136
0
VERTEX
8
0
10
-12.55
20
-33.005
0
VERTEX
8
0
10
-25.55
20
-33.005
42
0.4142136
0
VERTEX
8
0
10
-26.05
20
-33.505
0
SEQEND
0
POLYLINE
8
0
6
CONTINUOUS
66
1
70
1
0
VERTEX
8
0
10
12.05
20
-46.505
42
0.4142136
0
VERTEX
8
0
10
12.55
20
-47.005
0
VERTEX
8
0
10
25.55
20
-47.005
42
0.4142136
0
VERTEX
8
0
10
26.05
20
-46.505
0
VERTEX
8
0
10
26.05
20
-33.505
42
0.4142136
0
VERTEX
8
0
10
25.55
20
-33.005
0
VERTEX
8
0
10
12.55
20
-33.005
42
0.4142136
0
VERTEX
8
0
10
12.05
20
-33.505
0
SEQEND
0
POLYLINE
8
0
6
CONTINUOUS
66
1
70
1
0
VERTEX
8
0
10
-45.1
20
-48.41
42
0.4142136
0
VERTEX
8
0
10
-44.6
20
-48.91
0
VERTEX
8
0
10
-31.6
20
-48.91
42
0.4142136
0
VERTEX
8
0
10
-31.1
20
-48.41
0
VERTEX
8
0
10
-31.1
20
-35.41
42
0.4142136
0
VERTEX
8
0
10
-31.6
20
-34.91
0
VERTEX
8
0
10
-44.6
20
-34.91
42
0.4142136
0
VERTEX
8
0
10
-45.1
20
-35.41
0
SEQEND
0
POLYLINE
8
0
6
CONTINUOUS
66
1
70
1
0
VERTEX
8
0
10
31.1
20
-48.41
42
0.4142136
0
VERTEX
8
0
10
31.6
20
-48.91
0
VERTEX
8
0
10
44.6
20
-48.91
42
0.4142136
0
VERTEX
8
0
10
45.1
20
-48.41
0
VERTEX
8
0
10
45.1
20
-35.41
42
0.4142136
0
VERTEX
8
0
10
44.6
20
-34.91
0
VERTEX
8
0
10
31.6
20
-34.91
42
0.4142136
0
VERTEX
8
0
10
31.1
20
-35.41
0
SEQEND
0
POLYLINE
8
0
6
CONTINUOUS
66
1
70
1
0
VERTEX
8
0
10
-66.53125
20
-49.3625
42
0.4142136
0
VERTEX
8
0
10
-66.03125
20
-49.8625
0
VERTEX
8
0
10
-53.03125
20
-49.8625
42
0.4142136
0
VERTEX
8
0
10
-52.53125
20
-49.3625
0
VERTEX
8
0
10
-52.53125
20
-36.3625
42
0.4142136
0
VERTEX
8
0
10
-53.03125
20
-35.8625
0
VERTEX
8
0
10
-66.03125
20
-35.8625
42
0.4142136
0
VERTEX
8
0
10
-66.53125
20
-36.3625
0
SEQEND
0
POLYLINE
8
0
6
CONTINUOUS
66
1
70
1
0
VERTEX
8
0
10
-7
20
-63.65
42
0.4142136
0
VERTEX
8
0
10
-6.5
20
-64.15
0
VERTEX
8
0
10
6.5
20
-64.15
42
0.4142136
0
VERTEX
8
0
10
7
20
-63.65
0
VERTEX
8
0
10
7
20
-50.65
42
0.4142136
0
VERTEX
8
0
10
6.5
20
-50.15
0
VERTEX
8
0
10
-6.5
20
-50.15
42
0.4142136
0
VERTEX
8
0
10
-7
20
-50.65
0
SEQEND
0
POLYLINE
8
0
6
CONTINUOUS
66
1
70
1
0
VERTEX
8
0
10
50.15
20
-63.65
42
0.4142136
0
VERTEX
8
0
10
50.65
20
-64.15
0
VERTEX
8
0
10
63.65
20
-64.15
42
0.4142136
0
VERTEX
8
0
10
64.15
20
-63.65
0
VERTEX
8
0
10
64.15
20
-50.65
42
0.4142136
0
VERTEX
8
0
10
63.65
20
-50.15
0
VERTEX
8
0
10
50.65
20
-50.15
42
0.4142136
0
VERTEX
8
0
10
50.15
20
-50.65
0
SEQEND
0
POLYLINE
8
0
6
CONTINUOUS
66
1
70
1
0
VERTEX
8
0
10
-26.05
20
-65.555
42
0.4142136
0
VERTEX
8
0
10
-25.55
20
-66.055
0
VERTEX
8
0
10
-12.55
20
-66.055
42
0.4142136
0
VERTEX
8
0
10
-12.05
20
-65.555
0
VERTEX
8
0
10
-12.05
20
-52.555
42
0.4142136
0
VERTEX
8
0
10
-12.55
20
-52.055
0
VERTEX
8
0
10
-25.55
20
-52.055
42
0.4142136
0
VERTEX
8
0
10
-26.05
20
-52.555
0
SEQEND
0
POLYLINE
8
0
6
CONTINUOUS
66
1
70
1
0
VERTEX
8
0
10
12.05
20
-65.555
42
0.4142136
0
VERTEX
8
0
10
12.55
20
-66.055
0
VERTEX
8
0
10
25.55
20
-66.055
42
0.4142136
0
VERTEX
8
0
10
26.05
20
-65.555
0
VERTEX
8
0
10
26.05
20
-52.555
42
0.4142136
0
VERTEX
8
0
10
25.55
20
-52.055
0
VERTEX
8
0
10
12.55
20
-52.055
42
0.4142136
0
VERTEX
8
0
10
12.05
20
-52.555
0
SEQEND
0
POLYLINE
8
0
6
CONTINUOUS
66
1
70
1
0
VERTEX
8
0
10
-45.1
20
-67.46
42
0.4142136
0
VERTEX
8
0
10
-44.6
20
-67.96
0
VERTEX
8
0
10
-31.6
20
-67.96
42
0.4142136
0
VERTEX
8
0
10
-31.1
20
-67.46
0
VERTEX
8
0
10
-31.1
20
-54.46
42
0.4142136
0
VERTEX
8
0
10
-31.6
20
-53.96
0
VERTEX
8
0
10
-44.6
20
-53.96
42
0.4142136
0
VERTEX
8
0
10
-45.1
20
-54.46
0
SEQEND
0
POLYLINE
8
0
6
CONTINUOUS
66
1
70
1
0
VERTEX
8
0
10
31.1
20
-67.46
42
0.4142136
0
VERTEX
8
0
10
31.6
20
-67.96
0
VERTEX
8
0
10
44.6
20
-67.96
42
0.4142136
0
VERTEX
8
0
10
45.1
20
-67.46
0
VERTEX
8
0
10
45.1
20
-54.46
42
0.4142136
0
VERTEX
8
0
10
44.6
20
-53.96
0
VERTEX
8
0
10
31.6
20
-53.96
42
0.4142136
0
VERTEX
8
0
10
31.1
20
-54.46
0
SEQEND
0
POLYLINE
8
0
6
CONTINUOUS
66
1
70
1
0
VERTEX
8
0
10
-66.53125
20
-68.4125
42
0.4142136
0
VERTEX
8
0
10
-66.03125
20
-68.9125
0
VERTEX
8
0
10
-53.03125
20
-68.9125
42
0.4142136
0
VERTEX
8
0
10
-52.53125
20
-68.4125
0
VERTEX
8
0
10
-52.53125
20
-55.4125
42
0.4142136
0
VERTEX
8
0
10
-53.03125
20
-54.9125
0
VERTEX
8
0
10
-66.03125
20
-54.9125
42
0.4142136
0
VERTEX
8
0
10
-66.53125
20
-55.4125
0
SEQEND
0
POLYLINE
8
0
6
CONTINUOUS
66
1
70
1
0
VERTEX
8
0
10
0.14375
20
-84.605
42
0.4142136
0
VERTEX
8
0
10
0.64375
20
-85.105
0
VERTEX
8
0
10
13.64375
20
-85.105
42
0.4142136
0
VERTEX
8
0
10
14.14375
20
-84.605
0
VERTEX
8
0
10
14.14375
20
-71.605
42
0.4142136
0
VERTEX
8
0
10
13.64375
20
-71.105
0
VERTEX
8
0
10
0.64375
20
-71.105
42
0.4142136
0
VERTEX
8
0
10
0.14375
20
-71.605
0
SEQEND
0
POLYLINE
8
0
6
CONTINUOUS
66
1
70
1
0
VERTEX
8
0
10
-26.05
20
-86.51
42
0.4142136
0
VERTEX
8
0
10
-25.55
20
-87.01
0
VERTEX
8
0
10
-12.55
20
-87.01
42
0.4142136
0
VERTEX
8
0
10
-12.05
20
-86.51
0
VERTEX
8
0
10
-12.05
20
-73.51
42
0.4142136
0
VERTEX
8
0
10
-12.55
20
-73.01
0
VERTEX
8
0
10
-25.55
20
-73.01
42
0.4142136
0
VERTEX
8
0
10
-26.05
20
-73.51
0
SEQEND
0
POLYLINE
8
0
6
CONTINUOUS
66
1
70
1
0
VERTEX
8
0
10
-57.00625
20
-87.4625
42
0.4142136
0
VERTEX
8
0
10
-56.50625
20
-87.9625
0
VERTEX
8
0
10
-43.50625
20
-87.9625
42
0.4142136
0
VERTEX
8
0
10
-43.00625
20
-87.4625
0
VERTEX
8
0
10
-43.00625
20
-74.4625
42
0.4142136
0
VERTEX
8
0
10
-43.50625
20
-73.9625
0
VERTEX
8
0
10
-56.50625
20
-73.9625
42
0.4142136
0
VERTEX
8
0
10
-57.00625
20
-74.4625
0
SEQEND
0
POLYLINE
8
0
6
CONTINUOUS
66
1
70
1
0
VERTEX
8
0
10
53.4943135
20
-111.5991923
42
0.4142136
0
VERTEX
8
0
10
54.1066859
20
-111.2456389
0
VERTEX
8
0
10
55.6596002
20
-105.4500839
42
0.4142136
0
VERTEX
8
0
10
55.3060468
20
-104.8377115
0
VERTEX
8
0
10
41.7830852
20
-101.2142449
42
0.4142136
0
VERTEX
8
0
10
41.1707128
20
-101.5677983
0
VERTEX
8
0
10
39.6177986
20
-107.3633532
42
0.4142136
0
VERTEX
8
0
10
39.9713519
20
-107.9757257
0
SEQEND
0
POLYLINE
8
0
6
CONTINUOUS
66
1
70
1
0
VERTEX
8
0
10
59.673877
20
-88.5367472
42
0.4142136
0
VERTEX
8
0
10
60.2862495
20
-88.1831939
0
VERTEX
8
0
10
61.8391637
20
-82.3876389
42
0.4142136
0
VERTEX
8
0
10
61.4856103
20
-81.7752665
0
VERTEX
8
0
10
47.9626488
20
-78.1517999
42
0.4142136
0
VERTEX
8
0
10
47.3502763
20
-78.5053532
0
VERTEX
8
0
10
45.7973621
20
-84.3009082
42
0.4142136
0
VERTEX
8
0
10
46.1509155
20
-84.9132806
0
SEQEND
0
POLYLINE
8
OUTLINE
66
1
70
1
0
VERTEX
8
OUTLINE
10
-72.4375
20
-72.4375
30
0
0
VERTEX
8
OUTLINE
10
-67.675
20
-72.4375
30
0
0
VERTEX
8
OUTLINE
10
-67.675
20
-91.4875
30
0
0
VERTEX
8
OUTLINE
10
-32.3375
20
-91.4875
30
0
0
VERTEX
8
OUTLINE
10
-32.3375
20
-90.535
30
0
0
VERTEX
8
OUTLINE
10
-3.7625
20
-90.535
30
0
0
VERTEX
8
OUTLINE
10
-3.7625
20
-88.63
30
0
0
VERTEX
8
OUTLINE
10
20.05
20
-88.63
30
0
0
VERTEX
8
OUTLINE
10
20.05
20
-69.58
30
0
0
VERTEX
8
OUTLINE
10
27.575
20
-69.58
30
0
0
VERTEX
8
OUTLINE
10
27.575
20
-71.485
30
0
0
VERTEX
8
OUTLINE
10
44.54675
20
-71.485
30
0
0
VERTEX
8
OUTLINE
10
42.4536
20
-79.29672
30
0
0
VERTEX
8
OUTLINE
10
24.05272
20
-74.36622
30
0
0
VERTEX
8
OUTLINE
10
16.13933
20
-103.8994
30
0
0
VERTEX
8
OUTLINE
10
34.54021
20
-108.8299
30
0
0
VERTEX
8
OUTLINE
10
33.30759
20
-113.43012
30
0
0
VERTEX
8
OUTLINE
10
53.64033
20
-118.87826
30
0
0
VERTEX
8
OUTLINE
10
65.25159
20
-75.54442
30
0
0
VERTEX
8
OUTLINE
10
48.625
20
-71.08933
30
0
0
VERTEX
8
OUTLINE
10
48.625
20
-67.675
30
0
0
VERTEX
8
OUTLINE
10
67.675
20
-67.675
30
0
0
VERTEX
8
OUTLINE
10
67.675
20
-27.575
30
0
0
VERTEX
8
OUTLINE
10
48.625
20
-27.575
30
0
0
VERTEX
8
OUTLINE
10
48.625
20
6.715
30
0
0
VERTEX
8
OUTLINE
10
29.575
20
6.715
30
0
0
VERTEX
8
OUTLINE
10
29.575
20
8.62
30
0
0
VERTEX
8
OUTLINE
10
10.525
20
8.62
30
0
0
VERTEX
8
OUTLINE
10
10.525
20
10.525
30
0
0
VERTEX
8
OUTLINE
10
-10.525
20
10.525
30
0
0
VERTEX
8
OUTLINE
10
-10.525
20
8.62
30
0
0
VERTEX
8
OUTLINE
10
-29.575
20
8.62
30
0
0
VERTEX
8
OUTLINE
10
-29.575
20
6.715
30
0
0
VERTEX
8
OUTLINE
10
-48.625
20
6.715
30
0
0
VERTEX
8
OUTLINE
10
-48.625
20
5.7625
30
0
0
VERTEX
8
OUTLINE
10
-67.675
20
5.7625
30
0
0
VERTEX
8
OUTLINE
10
-67.675
20
-13.2875
30
0
0
VERTEX
8
OUTLINE
10
-72.4375
20
-13.2875
30
0
0
VERTEX
8
OUTLINE
10
-72.4375
20
-72.4375
30
0
0
VERTEX
8
OUTLINE
10
-72.4375
20
-72.4375
30
0
0
SEQEND
8
OUTLINE
0
ENDSEC
0
EOF
