ISO-10303-21;
HEADER;
FILE_DESCRIPTION(('FreeCAD Model'),'2;1');
FILE_NAME('Open CASCADE Shape Model','2026-09-24T18:24:28',('FreeCAD'),(
    'FreeCAD'),'Open CASCADE STEP processor 7.8','FreeCAD','Unknown');
FILE_SCHEMA(('AUTOMOTIVE_DESIGN { 1 0 10303 214 1 1 1 1 }'));
ENDSEC;
DATA;
#1 = APPLICATION_PROTOCOL_DEFINITION('international standard',
  'automotive_design',2000,#2);
#2 = APPLICATION_CONTEXT(
  'core data for automotive mechanical design processes');
#3 = SHAPE_DEFINITION_REPRESENTATION(#4,#10);
#4 = PRODUCT_DEFINITION_SHAPE('','',#5);
#5 = PRODUCT_DEFINITION('design','',#6,#9);
#6 = PRODUCT_DEFINITION_FORMATION('','',#7);
#7 = PRODUCT('Open CASCADE STEP translator 7.8 3',
  'Open CASCADE STEP translator 7.8 3','',(#8));
#8 = PRODUCT_CONTEXT('',#2,'mechanical');
#9 = PRODUCT_DEFINITION_CONTEXT('part definition',#2,'design');
#10 = ADVANCED_BREP_SHAPE_REPRESENTATION('',(#11,#15),#311);
#11 = AXIS2_PLACEMENT_3D('',#12,#13,#14);
#12 = CARTESIAN_POINT('',(0.,0.,0.));
#13 = DIRECTION('',(0.,0.,1.));
#14 = DIRECTION('',(1.,0.,-0.));
#15 = MANIFOLD_SOLID_BREP('',#16);
#16 = CLOSED_SHELL('',(#17,#78,#103,#128,#153,#178,#203,#241,#250,#259,
    #268,#293));
#17 = ADVANCED_FACE('',(#18,#29,#40,#51,#62),#73,.F.);
#18 = FACE_BOUND('',#19,.T.);
#19 = EDGE_LOOP('',(#20));
#20 = ORIENTED_EDGE('',*,*,#21,.F.);
#21 = EDGE_CURVE('',#22,#22,#24,.T.);
#22 = VERTEX_POINT('',#23);
#23 = CARTESIAN_POINT('',(272.8,-105.1157512978,16.850936765603));
#24 = CIRCLE('',#25,24.8);
#25 = AXIS2_PLACEMENT_3D('',#26,#27,#28);
#26 = CARTESIAN_POINT('',(248.,-105.1157512978,16.850936765603));
#27 = DIRECTION('',(0.,-6.975647374413E-02,0.99756405026));
#28 = DIRECTION('',(1.,0.,0.));
#29 = FACE_BOUND('',#30,.T.);
#30 = EDGE_LOOP('',(#31));
#31 = ORIENTED_EDGE('',*,*,#32,.T.);
#32 = EDGE_CURVE('',#33,#33,#35,.T.);
#33 = VERTEX_POINT('',#34);
#34 = CARTESIAN_POINT('',(269.39813601985,-115.640052028,16.115005967602
    ));
#35 = CIRCLE('',#36,3.125);
#36 = AXIS2_PLACEMENT_3D('',#37,#38,#39);
#37 = CARTESIAN_POINT('',(266.27313601985,-115.640052028,16.115005967602
    ));
#38 = DIRECTION('',(0.,-6.975647374413E-02,0.99756405026));
#39 = DIRECTION('',(1.,0.,0.));
#40 = FACE_BOUND('',#41,.T.);
#41 = EDGE_LOOP('',(#42));
#42 = ORIENTED_EDGE('',*,*,#43,.T.);
#43 = EDGE_CURVE('',#44,#44,#46,.T.);
#44 = VERTEX_POINT('',#45);
#45 = CARTESIAN_POINT('',(251.125,-126.1643527583,15.379075169602));
#46 = CIRCLE('',#47,3.125);
#47 = AXIS2_PLACEMENT_3D('',#48,#49,#50);
#48 = CARTESIAN_POINT('',(248.,-126.1643527583,15.379075169602));
#49 = DIRECTION('',(0.,-6.975647374413E-02,0.99756405026));
#50 = DIRECTION('',(1.,0.,0.));
#51 = FACE_BOUND('',#52,.T.);
#52 = EDGE_LOOP('',(#53));
#53 = ORIENTED_EDGE('',*,*,#54,.T.);
#54 = EDGE_CURVE('',#55,#55,#57,.T.);
#55 = VERTEX_POINT('',#56);
#56 = CARTESIAN_POINT('',(232.85186398014,-115.640052028,16.115005967602
    ));
#57 = CIRCLE('',#58,3.125);
#58 = AXIS2_PLACEMENT_3D('',#59,#60,#61);
#59 = CARTESIAN_POINT('',(229.72686398014,-115.640052028,16.115005967602
    ));
#60 = DIRECTION('',(0.,-6.975647374413E-02,0.99756405026));
#61 = DIRECTION('',(1.,0.,0.));
#62 = FACE_BOUND('',#63,.T.);
#63 = EDGE_LOOP('',(#64));
#64 = ORIENTED_EDGE('',*,*,#65,.T.);
#65 = EDGE_CURVE('',#66,#66,#68,.T.);
#66 = VERTEX_POINT('',#67);
#67 = CARTESIAN_POINT('',(265.4,-105.1157512978,16.850936765603));
#68 = CIRCLE('',#69,17.4);
#69 = AXIS2_PLACEMENT_3D('',#70,#71,#72);
#70 = CARTESIAN_POINT('',(248.,-105.1157512978,16.850936765603));
#71 = DIRECTION('',(0.,-6.975647374413E-02,0.99756405026));
#72 = DIRECTION('',(1.,0.,0.));
#73 = PLANE('',#74);
#74 = AXIS2_PLACEMENT_3D('',#75,#76,#77);
#75 = CARTESIAN_POINT('',(248.,-105.1157512978,16.850936765603));
#76 = DIRECTION('',(0.,-6.975647374413E-02,0.99756405026));
#77 = DIRECTION('',(1.,0.,0.));
#78 = ADVANCED_FACE('',(#79),#98,.T.);
#79 = FACE_BOUND('',#80,.T.);
#80 = EDGE_LOOP('',(#81,#82,#90,#97));
#81 = ORIENTED_EDGE('',*,*,#21,.T.);
#82 = ORIENTED_EDGE('',*,*,#83,.T.);
#83 = EDGE_CURVE('',#22,#84,#86,.T.);
#84 = VERTEX_POINT('',#85);
#85 = CARTESIAN_POINT('',(272.8,-105.1994590663,18.048013625914));
#86 = LINE('',#87,#88);
#87 = CARTESIAN_POINT('',(272.8,-105.1157512978,16.850936765603));
#88 = VECTOR('',#89,1.);
#89 = DIRECTION('',(0.,-6.975647374413E-02,0.99756405026));
#90 = ORIENTED_EDGE('',*,*,#91,.F.);
#91 = EDGE_CURVE('',#84,#84,#92,.T.);
#92 = CIRCLE('',#93,24.8);
#93 = AXIS2_PLACEMENT_3D('',#94,#95,#96);
#94 = CARTESIAN_POINT('',(248.,-105.1994590663,18.048013625914));
#95 = DIRECTION('',(0.,-6.975647374413E-02,0.99756405026));
#96 = DIRECTION('',(1.,0.,0.));
#97 = ORIENTED_EDGE('',*,*,#83,.F.);
#98 = CYLINDRICAL_SURFACE('',#99,24.8);
#99 = AXIS2_PLACEMENT_3D('',#100,#101,#102);
#100 = CARTESIAN_POINT('',(248.,-105.1157512978,16.850936765603));
#101 = DIRECTION('',(0.,-6.975647374413E-02,0.99756405026));
#102 = DIRECTION('',(1.,0.,0.));
#103 = ADVANCED_FACE('',(#104),#123,.F.);
#104 = FACE_BOUND('',#105,.F.);
#105 = EDGE_LOOP('',(#106,#114,#121,#122));
#106 = ORIENTED_EDGE('',*,*,#107,.T.);
#107 = EDGE_CURVE('',#33,#108,#110,.T.);
#108 = VERTEX_POINT('',#109);
#109 = CARTESIAN_POINT('',(269.39813601985,-115.8667605677,
    19.357089130946));
#110 = LINE('',#111,#112);
#111 = CARTESIAN_POINT('',(269.39813601985,-115.6330763807,
    16.015249562576));
#112 = VECTOR('',#113,1.);
#113 = DIRECTION('',(0.,-6.975647374413E-02,0.99756405026));
#114 = ORIENTED_EDGE('',*,*,#115,.F.);
#115 = EDGE_CURVE('',#108,#108,#116,.T.);
#116 = CIRCLE('',#117,3.125);
#117 = AXIS2_PLACEMENT_3D('',#118,#119,#120);
#118 = CARTESIAN_POINT('',(266.27313601985,-115.8667605677,
    19.357089130946));
#119 = DIRECTION('',(0.,-6.975647374413E-02,0.99756405026));
#120 = DIRECTION('',(1.,0.,0.));
#121 = ORIENTED_EDGE('',*,*,#107,.F.);
#122 = ORIENTED_EDGE('',*,*,#32,.T.);
#123 = CYLINDRICAL_SURFACE('',#124,3.125);
#124 = AXIS2_PLACEMENT_3D('',#125,#126,#127);
#125 = CARTESIAN_POINT('',(266.27313601985,-115.6330763807,
    16.015249562576));
#126 = DIRECTION('',(0.,-6.975647374413E-02,0.99756405026));
#127 = DIRECTION('',(1.,0.,0.));
#128 = ADVANCED_FACE('',(#129),#148,.F.);
#129 = FACE_BOUND('',#130,.F.);
#130 = EDGE_LOOP('',(#131,#139,#146,#147));
#131 = ORIENTED_EDGE('',*,*,#132,.T.);
#132 = EDGE_CURVE('',#44,#133,#135,.T.);
#133 = VERTEX_POINT('',#134);
#134 = CARTESIAN_POINT('',(251.125,-126.3910612979,18.621158332946));
#135 = LINE('',#136,#137);
#136 = CARTESIAN_POINT('',(251.125,-126.1573771109,15.279318764576));
#137 = VECTOR('',#138,1.);
#138 = DIRECTION('',(0.,-6.975647374413E-02,0.99756405026));
#139 = ORIENTED_EDGE('',*,*,#140,.F.);
#140 = EDGE_CURVE('',#133,#133,#141,.T.);
#141 = CIRCLE('',#142,3.125);
#142 = AXIS2_PLACEMENT_3D('',#143,#144,#145);
#143 = CARTESIAN_POINT('',(248.,-126.3910612979,18.621158332946));
#144 = DIRECTION('',(0.,-6.975647374413E-02,0.99756405026));
#145 = DIRECTION('',(1.,0.,0.));
#146 = ORIENTED_EDGE('',*,*,#132,.F.);
#147 = ORIENTED_EDGE('',*,*,#43,.T.);
#148 = CYLINDRICAL_SURFACE('',#149,3.125);
#149 = AXIS2_PLACEMENT_3D('',#150,#151,#152);
#150 = CARTESIAN_POINT('',(248.,-126.1573771109,15.279318764576));
#151 = DIRECTION('',(0.,-6.975647374413E-02,0.99756405026));
#152 = DIRECTION('',(1.,0.,0.));
#153 = ADVANCED_FACE('',(#154),#173,.F.);
#154 = FACE_BOUND('',#155,.F.);
#155 = EDGE_LOOP('',(#156,#164,#171,#172));
#156 = ORIENTED_EDGE('',*,*,#157,.T.);
#157 = EDGE_CURVE('',#55,#158,#160,.T.);
#158 = VERTEX_POINT('',#159);
#159 = CARTESIAN_POINT('',(232.85186398014,-115.8667605677,
    19.357089130946));
#160 = LINE('',#161,#162);
#161 = CARTESIAN_POINT('',(232.85186398014,-115.6330763807,
    16.015249562576));
#162 = VECTOR('',#163,1.);
#163 = DIRECTION('',(0.,-6.975647374413E-02,0.99756405026));
#164 = ORIENTED_EDGE('',*,*,#165,.F.);
#165 = EDGE_CURVE('',#158,#158,#166,.T.);
#166 = CIRCLE('',#167,3.125);
#167 = AXIS2_PLACEMENT_3D('',#168,#169,#170);
#168 = CARTESIAN_POINT('',(229.72686398014,-115.8667605677,
    19.357089130946));
#169 = DIRECTION('',(0.,-6.975647374413E-02,0.99756405026));
#170 = DIRECTION('',(1.,0.,0.));
#171 = ORIENTED_EDGE('',*,*,#157,.F.);
#172 = ORIENTED_EDGE('',*,*,#54,.T.);
#173 = CYLINDRICAL_SURFACE('',#174,3.125);
#174 = AXIS2_PLACEMENT_3D('',#175,#176,#177);
#175 = CARTESIAN_POINT('',(229.72686398014,-115.6330763807,
    16.015249562576));
#176 = DIRECTION('',(0.,-6.975647374413E-02,0.99756405026));
#177 = DIRECTION('',(1.,0.,0.));
#178 = ADVANCED_FACE('',(#179),#198,.F.);
#179 = FACE_BOUND('',#180,.T.);
#180 = EDGE_LOOP('',(#181,#190,#196,#197));
#181 = ORIENTED_EDGE('',*,*,#182,.T.);
#182 = EDGE_CURVE('',#183,#183,#185,.T.);
#183 = VERTEX_POINT('',#184);
#184 = CARTESIAN_POINT('',(265.4,-105.8795160511,27.77328160204));
#185 = CIRCLE('',#186,17.4);
#186 = AXIS2_PLACEMENT_3D('',#187,#188,#189);
#187 = CARTESIAN_POINT('',(248.,-105.8795160511,27.77328160204));
#188 = DIRECTION('',(0.,-6.975647374413E-02,0.99756405026));
#189 = DIRECTION('',(1.,0.,0.));
#190 = ORIENTED_EDGE('',*,*,#191,.T.);
#191 = EDGE_CURVE('',#183,#66,#192,.T.);
#192 = LINE('',#193,#194);
#193 = CARTESIAN_POINT('',(265.4,-105.8795160511,27.77328160204));
#194 = VECTOR('',#195,1.);
#195 = DIRECTION('',(0.,6.975647374413E-02,-0.99756405026));
#196 = ORIENTED_EDGE('',*,*,#65,.F.);
#197 = ORIENTED_EDGE('',*,*,#191,.F.);
#198 = CYLINDRICAL_SURFACE('',#199,17.4);
#199 = AXIS2_PLACEMENT_3D('',#200,#201,#202);
#200 = CARTESIAN_POINT('',(248.,-105.8795160511,27.77328160204));
#201 = DIRECTION('',(-0.,6.975647374413E-02,-0.99756405026));
#202 = DIRECTION('',(1.,0.,0.));
#203 = ADVANCED_FACE('',(#204),#228,.T.);
#204 = FACE_BOUND('',#205,.T.);
#205 = EDGE_LOOP('',(#206,#207,#220,#227));
#206 = ORIENTED_EDGE('',*,*,#91,.T.);
#207 = ORIENTED_EDGE('',*,*,#208,.T.);
#208 = EDGE_CURVE('',#84,#209,#211,.T.);
#209 = VERTEX_POINT('',#210);
#210 = CARTESIAN_POINT('',(265.25,-106.1027367671,30.965486562872));
#211 = B_SPLINE_CURVE_WITH_KNOTS('',3,(#212,#213,#214,#215,#216,#217,
    #218,#219),.UNSPECIFIED.,.F.,.F.,(4,1,1,1,1,4),(0.,4.148508962341,
    7.948299902948,11.389230009765,14.122817396332,16.273398713093),
  .UNSPECIFIED.);
#212 = CARTESIAN_POINT('',(272.8,-105.1994590663,18.048013625914));
#213 = CARTESIAN_POINT('',(272.8,-105.3071489717,19.588051022184));
#214 = CARTESIAN_POINT('',(272.85539931426,-105.4775282644,
    22.024588424887));
#215 = CARTESIAN_POINT('',(271.57860042872,-105.7401011054,
    25.779554991512));
#216 = CARTESIAN_POINT('',(269.76829310231,-105.9281799996,
    28.469208487055));
#217 = CARTESIAN_POINT('',(267.21573010064,-106.0582579888,
    30.329410398356));
#218 = CARTESIAN_POINT('',(266.55787207439,-106.1027367671,
    30.965486562872));
#219 = CARTESIAN_POINT('',(265.25,-106.1027367671,30.965486562872));
#220 = ORIENTED_EDGE('',*,*,#221,.F.);
#221 = EDGE_CURVE('',#209,#209,#222,.T.);
#222 = CIRCLE('',#223,17.25);
#223 = AXIS2_PLACEMENT_3D('',#224,#225,#226);
#224 = CARTESIAN_POINT('',(248.,-106.1027367671,30.965486562872));
#225 = DIRECTION('',(0.,-6.975647374413E-02,0.99756405026));
#226 = DIRECTION('',(1.,0.,0.));
#227 = ORIENTED_EDGE('',*,*,#208,.F.);
#228 = SURFACE_OF_REVOLUTION('',#229,#238);
#229 = B_SPLINE_CURVE_WITH_KNOTS('',3,(#230,#231,#232,#233,#234,#235,
    #236,#237),.UNSPECIFIED.,.F.,.F.,(4,1,1,1,1,4),(0.,4.148508962341,
    7.948299902948,11.389230009765,14.122817396332,16.273398713093),
  .UNSPECIFIED.);
#230 = CARTESIAN_POINT('',(272.8,-105.1994590663,18.048013625914));
#231 = CARTESIAN_POINT('',(272.8,-105.3071489717,19.588051022184));
#232 = CARTESIAN_POINT('',(272.85539931426,-105.4775282644,
    22.024588424887));
#233 = CARTESIAN_POINT('',(271.57860042872,-105.7401011054,
    25.779554991512));
#234 = CARTESIAN_POINT('',(269.76829310231,-105.9281799996,
    28.469208487055));
#235 = CARTESIAN_POINT('',(267.21573010064,-106.0582579888,
    30.329410398356));
#236 = CARTESIAN_POINT('',(266.55787207439,-106.1027367671,
    30.965486562872));
#237 = CARTESIAN_POINT('',(265.25,-106.1027367671,30.965486562872));
#238 = AXIS1_PLACEMENT('',#239,#240);
#239 = CARTESIAN_POINT('',(248.,-104.6065290395,9.568719198706));
#240 = DIRECTION('',(0.,-6.975647374413E-02,0.99756405026));
#241 = ADVANCED_FACE('',(#242),#245,.F.);
#242 = FACE_BOUND('',#243,.F.);
#243 = EDGE_LOOP('',(#244));
#244 = ORIENTED_EDGE('',*,*,#115,.T.);
#245 = PLANE('',#246);
#246 = AXIS2_PLACEMENT_3D('',#247,#248,#249);
#247 = CARTESIAN_POINT('',(266.27313601985,-115.8667605677,
    19.357089130946));
#248 = DIRECTION('',(0.,-6.975647374413E-02,0.99756405026));
#249 = DIRECTION('',(1.,0.,0.));
#250 = ADVANCED_FACE('',(#251),#254,.F.);
#251 = FACE_BOUND('',#252,.F.);
#252 = EDGE_LOOP('',(#253));
#253 = ORIENTED_EDGE('',*,*,#140,.T.);
#254 = PLANE('',#255);
#255 = AXIS2_PLACEMENT_3D('',#256,#257,#258);
#256 = CARTESIAN_POINT('',(248.,-126.3910612979,18.621158332946));
#257 = DIRECTION('',(0.,-6.975647374413E-02,0.99756405026));
#258 = DIRECTION('',(1.,0.,0.));
#259 = ADVANCED_FACE('',(#260),#263,.F.);
#260 = FACE_BOUND('',#261,.F.);
#261 = EDGE_LOOP('',(#262));
#262 = ORIENTED_EDGE('',*,*,#165,.T.);
#263 = PLANE('',#264);
#264 = AXIS2_PLACEMENT_3D('',#265,#266,#267);
#265 = CARTESIAN_POINT('',(229.72686398014,-115.8667605677,
    19.357089130946));
#266 = DIRECTION('',(0.,-6.975647374413E-02,0.99756405026));
#267 = DIRECTION('',(1.,0.,0.));
#268 = ADVANCED_FACE('',(#269),#288,.F.);
#269 = FACE_BOUND('',#270,.T.);
#270 = EDGE_LOOP('',(#271,#280,#286,#287));
#271 = ORIENTED_EDGE('',*,*,#272,.T.);
#272 = EDGE_CURVE('',#273,#273,#275,.T.);
#273 = VERTEX_POINT('',#274);
#274 = CARTESIAN_POINT('',(264.75,-106.0678585303,30.466704537742));
#275 = CIRCLE('',#276,16.75);
#276 = AXIS2_PLACEMENT_3D('',#277,#278,#279);
#277 = CARTESIAN_POINT('',(248.,-106.0678585303,30.466704537742));
#278 = DIRECTION('',(0.,-6.975647374413E-02,0.99756405026));
#279 = DIRECTION('',(1.,0.,0.));
#280 = ORIENTED_EDGE('',*,*,#281,.T.);
#281 = EDGE_CURVE('',#273,#183,#282,.T.);
#282 = LINE('',#283,#284);
#283 = CARTESIAN_POINT('',(264.75,-106.0678585303,30.466704537742));
#284 = VECTOR('',#285,1.);
#285 = DIRECTION('',(0.234053838575,6.781889261881E-02,-0.969855349241)
  );
#286 = ORIENTED_EDGE('',*,*,#182,.F.);
#287 = ORIENTED_EDGE('',*,*,#281,.F.);
#288 = CONICAL_SURFACE('',#289,16.75,0.236245260718);
#289 = AXIS2_PLACEMENT_3D('',#290,#291,#292);
#290 = CARTESIAN_POINT('',(248.,-106.0678585303,30.466704537742));
#291 = DIRECTION('',(-0.,6.975647374413E-02,-0.99756405026));
#292 = DIRECTION('',(1.,0.,0.));
#293 = ADVANCED_FACE('',(#294),#306,.T.);
#294 = FACE_BOUND('',#295,.T.);
#295 = EDGE_LOOP('',(#296,#297,#304,#305));
#296 = ORIENTED_EDGE('',*,*,#221,.T.);
#297 = ORIENTED_EDGE('',*,*,#298,.T.);
#298 = EDGE_CURVE('',#209,#273,#299,.T.);
#299 = CIRCLE('',#300,0.5);
#300 = AXIS2_PLACEMENT_3D('',#301,#302,#303);
#301 = CARTESIAN_POINT('',(265.25,-106.0678585303,30.466704537742));
#302 = DIRECTION('',(3.806673866684E-32,-0.99756405026,
    -6.975647374413E-02));
#303 = DIRECTION('',(1.42108547152E-14,-6.975647374413E-02,0.99756405026
    ));
#304 = ORIENTED_EDGE('',*,*,#272,.F.);
#305 = ORIENTED_EDGE('',*,*,#298,.F.);
#306 = TOROIDAL_SURFACE('',#307,17.25,0.5);
#307 = AXIS2_PLACEMENT_3D('',#308,#309,#310);
#308 = CARTESIAN_POINT('',(248.,-106.0678585303,30.466704537742));
#309 = DIRECTION('',(0.,-6.975647374413E-02,0.99756405026));
#310 = DIRECTION('',(1.,0.,0.));
#311 = ( GEOMETRIC_REPRESENTATION_CONTEXT(3) 
GLOBAL_UNCERTAINTY_ASSIGNED_CONTEXT((#315)) GLOBAL_UNIT_ASSIGNED_CONTEXT
((#312,#313,#314)) REPRESENTATION_CONTEXT('Context #1',
  '3D Context with UNIT and UNCERTAINTY') );
#312 = ( LENGTH_UNIT() NAMED_UNIT(*) SI_UNIT(.MILLI.,.METRE.) );
#313 = ( NAMED_UNIT(*) PLANE_ANGLE_UNIT() SI_UNIT($,.RADIAN.) );
#314 = ( NAMED_UNIT(*) SI_UNIT($,.STERADIAN.) SOLID_ANGLE_UNIT() );
#315 = UNCERTAINTY_MEASURE_WITH_UNIT(LENGTH_MEASURE(1.E-07),#312,
  'distance_accuracy_value','confusion accuracy');
#316 = PRODUCT_RELATED_PRODUCT_CATEGORY('part',$,(#7));
ENDSEC;
END-ISO-10303-21;
