%TF.GenerationSoftware,KiCad,Pcbnew,10.0.5*%
%TF.CreationDate,2026-09-22T23:22:18+09:00*%
%TF.ProjectId,keyboard,6b657962-6f61-4726-942e-6b696361645f,rev?*%
%TF.SameCoordinates,Original*%
%TF.FileFunction,Paste,Top*%
%TF.FilePolarity,Positive*%
%FSLAX46Y46*%
G04 Gerber Fmt 4.6, Leading zero omitted, Abs format (unit mm)*
G04 Created by KiCad (PCBNEW 10.0.5) date 2026-09-22 23:22:18*
%MOMM*%
%LPD*%
G01*
G04 APERTURE LIST*
G04 Aperture macros list*
%AMRoundRect*
0 Rectangle with rounded corners*
0 $1 Rounding radius*
0 $2 $3 $4 $5 $6 $7 $8 $9 X,Y pos of 4 corners*
0 Add a 4 corners polygon primitive as box body*
4,1,4,$2,$3,$4,$5,$6,$7,$8,$9,$2,$3,0*
0 Add four circle primitives for the rounded corners*
1,1,$1+$1,$2,$3*
1,1,$1+$1,$4,$5*
1,1,$1+$1,$6,$7*
1,1,$1+$1,$8,$9*
0 Add four rect primitives between the rounded corners*
20,1,$1+$1,$2,$3,$4,$5,0*
20,1,$1+$1,$4,$5,$6,$7,0*
20,1,$1+$1,$6,$7,$8,$9,0*
20,1,$1+$1,$8,$9,$2,$3,0*%
%AMFreePoly0*
4,1,15,-0.616000,0.142500,-0.283500,0.475000,0.521000,0.475000,0.557355,0.467769,0.588175,0.447175,0.608769,0.416355,0.616000,0.380000,0.616000,-0.380000,0.608769,-0.416355,0.588175,-0.447175,0.557355,-0.467769,0.521000,-0.475000,-0.283500,-0.475000,-0.616000,-0.142500,-0.616000,0.142500,-0.616000,0.142500,$1*%
G04 Aperture macros list end*
%ADD10RoundRect,0.150000X-0.500000X0.150000X-0.500000X-0.150000X0.500000X-0.150000X0.500000X0.150000X0*%
%ADD11RoundRect,0.175000X-0.175000X0.350000X-0.175000X-0.350000X0.175000X-0.350000X0.175000X0.350000X0*%
%ADD12RoundRect,0.240000X-0.360000X-0.460000X0.360000X-0.460000X0.360000X0.460000X-0.360000X0.460000X0*%
%ADD13RoundRect,0.180000X0.270000X-0.270000X0.270000X0.270000X-0.270000X0.270000X-0.270000X-0.270000X0*%
%ADD14RoundRect,0.180000X-0.270000X-0.270000X0.270000X-0.270000X0.270000X0.270000X-0.270000X0.270000X0*%
%ADD15RoundRect,0.150000X-0.512500X-0.150000X0.512500X-0.150000X0.512500X0.150000X-0.512500X0.150000X0*%
%ADD16RoundRect,0.087500X-0.250000X-0.087500X0.250000X-0.087500X0.250000X0.087500X-0.250000X0.087500X0*%
%ADD17RoundRect,0.095000X0.921000X0.380000X-0.921000X0.380000X-0.921000X-0.380000X0.921000X-0.380000X0*%
%ADD18RoundRect,0.095000X-0.921000X-0.380000X0.921000X-0.380000X0.921000X0.380000X-0.921000X0.380000X0*%
%ADD19FreePoly0,180.000000*%
%ADD20FreePoly0,0.000000*%
%ADD21C,1.700000*%
%ADD22RoundRect,0.110000X-0.440000X1.140000X-0.440000X-1.140000X0.440000X-1.140000X0.440000X1.140000X0*%
G04 APERTURE END LIST*
D10*
%TO.C,SWP2*%
X174950000Y-28250000D03*
X174950000Y-31250000D03*
X174950000Y-32750000D03*
D11*
X174100000Y-26825000D03*
X171900000Y-26825000D03*
X174100000Y-34175000D03*
X171900000Y-34175000D03*
%TD*%
D12*
%TO.C,L_RGB2*%
X185500000Y-33300000D03*
X187500000Y-33300000D03*
%TD*%
D13*
%TO.C,C_RGB_OUT1_2*%
X179650000Y-37750000D03*
X179650000Y-36250000D03*
%TD*%
%TO.C,C_RGB_OUT2_2*%
X177150000Y-37750000D03*
X177150000Y-36250000D03*
%TD*%
D14*
%TO.C,R_RGB_DATA2*%
X190750000Y-25000000D03*
X192250000Y-25000000D03*
%TD*%
%TO.C,C_LS2*%
X186750000Y-23000000D03*
X188250000Y-23000000D03*
%TD*%
%TO.C,R_RGB_FB_TOP2*%
X181400000Y-40000000D03*
X182900000Y-40000000D03*
%TD*%
D15*
%TO.C,U_LS2*%
X186362500Y-25050000D03*
X186362500Y-26000000D03*
X186362500Y-26950000D03*
X188637500Y-26950000D03*
X188637500Y-25050000D03*
%TD*%
D14*
%TO.C,R_RGB_FB_BOT2*%
X184700000Y-40000000D03*
X186200000Y-40000000D03*
%TD*%
%TO.C,R_RGB_EN_PD2*%
X188100000Y-40000000D03*
X189600000Y-40000000D03*
%TD*%
D13*
%TO.C,C_RGB_BULK2*%
X174850000Y-37750000D03*
X174850000Y-36250000D03*
%TD*%
D16*
%TO.C,U_RGB2*%
X185787500Y-36000000D03*
X185787500Y-36500000D03*
X185787500Y-37000000D03*
X187212500Y-37000000D03*
X187212500Y-36500000D03*
X187212500Y-36000000D03*
%TD*%
D17*
%TO.C,U2*%
X171790000Y-3987500D03*
X171790000Y-6527500D03*
X171790000Y-9067500D03*
X171790000Y-11607500D03*
X171790000Y-14147500D03*
X171790000Y-16687500D03*
X171790000Y-19227500D03*
D18*
X188300000Y-19227500D03*
X188300000Y-16687500D03*
X188300000Y-14147500D03*
X188300000Y-11607500D03*
X188300000Y-9067500D03*
X188300000Y-6527500D03*
X188300000Y-3987500D03*
D19*
X171390000Y-5257500D03*
X171390000Y-7797500D03*
X171390000Y-10337500D03*
X171390000Y-12877500D03*
X171390000Y-15417500D03*
X171390000Y-17957500D03*
D20*
X188700000Y-17957500D03*
X188700000Y-15417500D03*
X188700000Y-12877500D03*
D21*
X178775000Y-3035000D03*
X181315000Y-3035000D03*
X178775000Y-5575000D03*
X181315000Y-5575000D03*
D22*
X179051012Y-17125323D03*
X181051012Y-17125323D03*
%TD*%
D13*
%TO.C,C_RGB_IN2*%
X189500000Y-37250000D03*
X189500000Y-35750000D03*
%TD*%
M02*
