%TF.GenerationSoftware,KiCad,Pcbnew,10.0.5*%
%TF.CreationDate,2026-09-22T23:22:18+09:00*%
%TF.ProjectId,keyboard,6b657962-6f61-4726-942e-6b696361645f,rev?*%
%TF.SameCoordinates,Original*%
%TF.FileFunction,Legend,Bot*%
%TF.FilePolarity,Positive*%
%FSLAX46Y46*%
G04 Gerber Fmt 4.6, Leading zero omitted, Abs format (unit mm)*
G04 Created by KiCad (PCBNEW 10.0.5) date 2026-09-22 23:22:18*
%MOMM*%
%LPD*%
G01*
G04 APERTURE LIST*
%ADD10C,0.150000*%
%ADD11C,0.125000*%
%ADD12C,0.120000*%
%ADD13C,0.200000*%
G04 APERTURE END LIST*
D10*
X278034523Y-23272200D02*
X277891666Y-23319819D01*
X277891666Y-23319819D02*
X277653571Y-23319819D01*
X277653571Y-23319819D02*
X277558333Y-23272200D01*
X277558333Y-23272200D02*
X277510714Y-23224580D01*
X277510714Y-23224580D02*
X277463095Y-23129342D01*
X277463095Y-23129342D02*
X277463095Y-23034104D01*
X277463095Y-23034104D02*
X277510714Y-22938866D01*
X277510714Y-22938866D02*
X277558333Y-22891247D01*
X277558333Y-22891247D02*
X277653571Y-22843628D01*
X277653571Y-22843628D02*
X277844047Y-22796009D01*
X277844047Y-22796009D02*
X277939285Y-22748390D01*
X277939285Y-22748390D02*
X277986904Y-22700771D01*
X277986904Y-22700771D02*
X278034523Y-22605533D01*
X278034523Y-22605533D02*
X278034523Y-22510295D01*
X278034523Y-22510295D02*
X277986904Y-22415057D01*
X277986904Y-22415057D02*
X277939285Y-22367438D01*
X277939285Y-22367438D02*
X277844047Y-22319819D01*
X277844047Y-22319819D02*
X277605952Y-22319819D01*
X277605952Y-22319819D02*
X277463095Y-22367438D01*
X277129761Y-22319819D02*
X276891666Y-23319819D01*
X276891666Y-23319819D02*
X276701190Y-22605533D01*
X276701190Y-22605533D02*
X276510714Y-23319819D01*
X276510714Y-23319819D02*
X276272619Y-22319819D01*
X275939285Y-22415057D02*
X275891666Y-22367438D01*
X275891666Y-22367438D02*
X275796428Y-22319819D01*
X275796428Y-22319819D02*
X275558333Y-22319819D01*
X275558333Y-22319819D02*
X275463095Y-22367438D01*
X275463095Y-22367438D02*
X275415476Y-22415057D01*
X275415476Y-22415057D02*
X275367857Y-22510295D01*
X275367857Y-22510295D02*
X275367857Y-22605533D01*
X275367857Y-22605533D02*
X275415476Y-22748390D01*
X275415476Y-22748390D02*
X275986904Y-23319819D01*
X275986904Y-23319819D02*
X275367857Y-23319819D01*
X274986904Y-22415057D02*
X274939285Y-22367438D01*
X274939285Y-22367438D02*
X274844047Y-22319819D01*
X274844047Y-22319819D02*
X274605952Y-22319819D01*
X274605952Y-22319819D02*
X274510714Y-22367438D01*
X274510714Y-22367438D02*
X274463095Y-22415057D01*
X274463095Y-22415057D02*
X274415476Y-22510295D01*
X274415476Y-22510295D02*
X274415476Y-22605533D01*
X274415476Y-22605533D02*
X274463095Y-22748390D01*
X274463095Y-22748390D02*
X275034523Y-23319819D01*
X275034523Y-23319819D02*
X274415476Y-23319819D01*
X220408332Y-2317200D02*
X220265475Y-2364819D01*
X220265475Y-2364819D02*
X220027380Y-2364819D01*
X220027380Y-2364819D02*
X219932142Y-2317200D01*
X219932142Y-2317200D02*
X219884523Y-2269580D01*
X219884523Y-2269580D02*
X219836904Y-2174342D01*
X219836904Y-2174342D02*
X219836904Y-2079104D01*
X219836904Y-2079104D02*
X219884523Y-1983866D01*
X219884523Y-1983866D02*
X219932142Y-1936247D01*
X219932142Y-1936247D02*
X220027380Y-1888628D01*
X220027380Y-1888628D02*
X220217856Y-1841009D01*
X220217856Y-1841009D02*
X220313094Y-1793390D01*
X220313094Y-1793390D02*
X220360713Y-1745771D01*
X220360713Y-1745771D02*
X220408332Y-1650533D01*
X220408332Y-1650533D02*
X220408332Y-1555295D01*
X220408332Y-1555295D02*
X220360713Y-1460057D01*
X220360713Y-1460057D02*
X220313094Y-1412438D01*
X220313094Y-1412438D02*
X220217856Y-1364819D01*
X220217856Y-1364819D02*
X219979761Y-1364819D01*
X219979761Y-1364819D02*
X219836904Y-1412438D01*
X219503570Y-1364819D02*
X219265475Y-2364819D01*
X219265475Y-2364819D02*
X219074999Y-1650533D01*
X219074999Y-1650533D02*
X218884523Y-2364819D01*
X218884523Y-2364819D02*
X218646428Y-1364819D01*
X217789285Y-1364819D02*
X218265475Y-1364819D01*
X218265475Y-1364819D02*
X218313094Y-1841009D01*
X218313094Y-1841009D02*
X218265475Y-1793390D01*
X218265475Y-1793390D02*
X218170237Y-1745771D01*
X218170237Y-1745771D02*
X217932142Y-1745771D01*
X217932142Y-1745771D02*
X217836904Y-1793390D01*
X217836904Y-1793390D02*
X217789285Y-1841009D01*
X217789285Y-1841009D02*
X217741666Y-1936247D01*
X217741666Y-1936247D02*
X217741666Y-2174342D01*
X217741666Y-2174342D02*
X217789285Y-2269580D01*
X217789285Y-2269580D02*
X217836904Y-2317200D01*
X217836904Y-2317200D02*
X217932142Y-2364819D01*
X217932142Y-2364819D02*
X218170237Y-2364819D01*
X218170237Y-2364819D02*
X218265475Y-2317200D01*
X218265475Y-2317200D02*
X218313094Y-2269580D01*
X299465823Y-43274700D02*
X299322966Y-43322319D01*
X299322966Y-43322319D02*
X299084871Y-43322319D01*
X299084871Y-43322319D02*
X298989633Y-43274700D01*
X298989633Y-43274700D02*
X298942014Y-43227080D01*
X298942014Y-43227080D02*
X298894395Y-43131842D01*
X298894395Y-43131842D02*
X298894395Y-43036604D01*
X298894395Y-43036604D02*
X298942014Y-42941366D01*
X298942014Y-42941366D02*
X298989633Y-42893747D01*
X298989633Y-42893747D02*
X299084871Y-42846128D01*
X299084871Y-42846128D02*
X299275347Y-42798509D01*
X299275347Y-42798509D02*
X299370585Y-42750890D01*
X299370585Y-42750890D02*
X299418204Y-42703271D01*
X299418204Y-42703271D02*
X299465823Y-42608033D01*
X299465823Y-42608033D02*
X299465823Y-42512795D01*
X299465823Y-42512795D02*
X299418204Y-42417557D01*
X299418204Y-42417557D02*
X299370585Y-42369938D01*
X299370585Y-42369938D02*
X299275347Y-42322319D01*
X299275347Y-42322319D02*
X299037252Y-42322319D01*
X299037252Y-42322319D02*
X298894395Y-42369938D01*
X298561061Y-42322319D02*
X298322966Y-43322319D01*
X298322966Y-43322319D02*
X298132490Y-42608033D01*
X298132490Y-42608033D02*
X297942014Y-43322319D01*
X297942014Y-43322319D02*
X297703919Y-42322319D01*
X297418204Y-42322319D02*
X296799157Y-42322319D01*
X296799157Y-42322319D02*
X297132490Y-42703271D01*
X297132490Y-42703271D02*
X296989633Y-42703271D01*
X296989633Y-42703271D02*
X296894395Y-42750890D01*
X296894395Y-42750890D02*
X296846776Y-42798509D01*
X296846776Y-42798509D02*
X296799157Y-42893747D01*
X296799157Y-42893747D02*
X296799157Y-43131842D01*
X296799157Y-43131842D02*
X296846776Y-43227080D01*
X296846776Y-43227080D02*
X296894395Y-43274700D01*
X296894395Y-43274700D02*
X296989633Y-43322319D01*
X296989633Y-43322319D02*
X297275347Y-43322319D01*
X297275347Y-43322319D02*
X297370585Y-43274700D01*
X297370585Y-43274700D02*
X297418204Y-43227080D01*
X296227728Y-42750890D02*
X296322966Y-42703271D01*
X296322966Y-42703271D02*
X296370585Y-42655652D01*
X296370585Y-42655652D02*
X296418204Y-42560414D01*
X296418204Y-42560414D02*
X296418204Y-42512795D01*
X296418204Y-42512795D02*
X296370585Y-42417557D01*
X296370585Y-42417557D02*
X296322966Y-42369938D01*
X296322966Y-42369938D02*
X296227728Y-42322319D01*
X296227728Y-42322319D02*
X296037252Y-42322319D01*
X296037252Y-42322319D02*
X295942014Y-42369938D01*
X295942014Y-42369938D02*
X295894395Y-42417557D01*
X295894395Y-42417557D02*
X295846776Y-42512795D01*
X295846776Y-42512795D02*
X295846776Y-42560414D01*
X295846776Y-42560414D02*
X295894395Y-42655652D01*
X295894395Y-42655652D02*
X295942014Y-42703271D01*
X295942014Y-42703271D02*
X296037252Y-42750890D01*
X296037252Y-42750890D02*
X296227728Y-42750890D01*
X296227728Y-42750890D02*
X296322966Y-42798509D01*
X296322966Y-42798509D02*
X296370585Y-42846128D01*
X296370585Y-42846128D02*
X296418204Y-42941366D01*
X296418204Y-42941366D02*
X296418204Y-43131842D01*
X296418204Y-43131842D02*
X296370585Y-43227080D01*
X296370585Y-43227080D02*
X296322966Y-43274700D01*
X296322966Y-43274700D02*
X296227728Y-43322319D01*
X296227728Y-43322319D02*
X296037252Y-43322319D01*
X296037252Y-43322319D02*
X295942014Y-43274700D01*
X295942014Y-43274700D02*
X295894395Y-43227080D01*
X295894395Y-43227080D02*
X295846776Y-43131842D01*
X295846776Y-43131842D02*
X295846776Y-42941366D01*
X295846776Y-42941366D02*
X295894395Y-42846128D01*
X295894395Y-42846128D02*
X295942014Y-42798509D01*
X295942014Y-42798509D02*
X296037252Y-42750890D01*
X258984523Y-40417200D02*
X258841666Y-40464819D01*
X258841666Y-40464819D02*
X258603571Y-40464819D01*
X258603571Y-40464819D02*
X258508333Y-40417200D01*
X258508333Y-40417200D02*
X258460714Y-40369580D01*
X258460714Y-40369580D02*
X258413095Y-40274342D01*
X258413095Y-40274342D02*
X258413095Y-40179104D01*
X258413095Y-40179104D02*
X258460714Y-40083866D01*
X258460714Y-40083866D02*
X258508333Y-40036247D01*
X258508333Y-40036247D02*
X258603571Y-39988628D01*
X258603571Y-39988628D02*
X258794047Y-39941009D01*
X258794047Y-39941009D02*
X258889285Y-39893390D01*
X258889285Y-39893390D02*
X258936904Y-39845771D01*
X258936904Y-39845771D02*
X258984523Y-39750533D01*
X258984523Y-39750533D02*
X258984523Y-39655295D01*
X258984523Y-39655295D02*
X258936904Y-39560057D01*
X258936904Y-39560057D02*
X258889285Y-39512438D01*
X258889285Y-39512438D02*
X258794047Y-39464819D01*
X258794047Y-39464819D02*
X258555952Y-39464819D01*
X258555952Y-39464819D02*
X258413095Y-39512438D01*
X258079761Y-39464819D02*
X257841666Y-40464819D01*
X257841666Y-40464819D02*
X257651190Y-39750533D01*
X257651190Y-39750533D02*
X257460714Y-40464819D01*
X257460714Y-40464819D02*
X257222619Y-39464819D01*
X256936904Y-39464819D02*
X256317857Y-39464819D01*
X256317857Y-39464819D02*
X256651190Y-39845771D01*
X256651190Y-39845771D02*
X256508333Y-39845771D01*
X256508333Y-39845771D02*
X256413095Y-39893390D01*
X256413095Y-39893390D02*
X256365476Y-39941009D01*
X256365476Y-39941009D02*
X256317857Y-40036247D01*
X256317857Y-40036247D02*
X256317857Y-40274342D01*
X256317857Y-40274342D02*
X256365476Y-40369580D01*
X256365476Y-40369580D02*
X256413095Y-40417200D01*
X256413095Y-40417200D02*
X256508333Y-40464819D01*
X256508333Y-40464819D02*
X256794047Y-40464819D01*
X256794047Y-40464819D02*
X256889285Y-40417200D01*
X256889285Y-40417200D02*
X256936904Y-40369580D01*
X255936904Y-39560057D02*
X255889285Y-39512438D01*
X255889285Y-39512438D02*
X255794047Y-39464819D01*
X255794047Y-39464819D02*
X255555952Y-39464819D01*
X255555952Y-39464819D02*
X255460714Y-39512438D01*
X255460714Y-39512438D02*
X255413095Y-39560057D01*
X255413095Y-39560057D02*
X255365476Y-39655295D01*
X255365476Y-39655295D02*
X255365476Y-39750533D01*
X255365476Y-39750533D02*
X255413095Y-39893390D01*
X255413095Y-39893390D02*
X255984523Y-40464819D01*
X255984523Y-40464819D02*
X255365476Y-40464819D01*
X239458332Y-412200D02*
X239315475Y-459819D01*
X239315475Y-459819D02*
X239077380Y-459819D01*
X239077380Y-459819D02*
X238982142Y-412200D01*
X238982142Y-412200D02*
X238934523Y-364580D01*
X238934523Y-364580D02*
X238886904Y-269342D01*
X238886904Y-269342D02*
X238886904Y-174104D01*
X238886904Y-174104D02*
X238934523Y-78866D01*
X238934523Y-78866D02*
X238982142Y-31247D01*
X238982142Y-31247D02*
X239077380Y16371D01*
X239077380Y16371D02*
X239267856Y63990D01*
X239267856Y63990D02*
X239363094Y111609D01*
X239363094Y111609D02*
X239410713Y159228D01*
X239410713Y159228D02*
X239458332Y254466D01*
X239458332Y254466D02*
X239458332Y349704D01*
X239458332Y349704D02*
X239410713Y444942D01*
X239410713Y444942D02*
X239363094Y492561D01*
X239363094Y492561D02*
X239267856Y540180D01*
X239267856Y540180D02*
X239029761Y540180D01*
X239029761Y540180D02*
X238886904Y492561D01*
X238553570Y540180D02*
X238315475Y-459819D01*
X238315475Y-459819D02*
X238124999Y254466D01*
X238124999Y254466D02*
X237934523Y-459819D01*
X237934523Y-459819D02*
X237696428Y540180D01*
X237363094Y444942D02*
X237315475Y492561D01*
X237315475Y492561D02*
X237220237Y540180D01*
X237220237Y540180D02*
X236982142Y540180D01*
X236982142Y540180D02*
X236886904Y492561D01*
X236886904Y492561D02*
X236839285Y444942D01*
X236839285Y444942D02*
X236791666Y349704D01*
X236791666Y349704D02*
X236791666Y254466D01*
X236791666Y254466D02*
X236839285Y111609D01*
X236839285Y111609D02*
X237410713Y-459819D01*
X237410713Y-459819D02*
X236791666Y-459819D01*
X220884523Y-59467200D02*
X220741666Y-59514819D01*
X220741666Y-59514819D02*
X220503571Y-59514819D01*
X220503571Y-59514819D02*
X220408333Y-59467200D01*
X220408333Y-59467200D02*
X220360714Y-59419580D01*
X220360714Y-59419580D02*
X220313095Y-59324342D01*
X220313095Y-59324342D02*
X220313095Y-59229104D01*
X220313095Y-59229104D02*
X220360714Y-59133866D01*
X220360714Y-59133866D02*
X220408333Y-59086247D01*
X220408333Y-59086247D02*
X220503571Y-59038628D01*
X220503571Y-59038628D02*
X220694047Y-58991009D01*
X220694047Y-58991009D02*
X220789285Y-58943390D01*
X220789285Y-58943390D02*
X220836904Y-58895771D01*
X220836904Y-58895771D02*
X220884523Y-58800533D01*
X220884523Y-58800533D02*
X220884523Y-58705295D01*
X220884523Y-58705295D02*
X220836904Y-58610057D01*
X220836904Y-58610057D02*
X220789285Y-58562438D01*
X220789285Y-58562438D02*
X220694047Y-58514819D01*
X220694047Y-58514819D02*
X220455952Y-58514819D01*
X220455952Y-58514819D02*
X220313095Y-58562438D01*
X219979761Y-58514819D02*
X219741666Y-59514819D01*
X219741666Y-59514819D02*
X219551190Y-58800533D01*
X219551190Y-58800533D02*
X219360714Y-59514819D01*
X219360714Y-59514819D02*
X219122619Y-58514819D01*
X218313095Y-58848152D02*
X218313095Y-59514819D01*
X218551190Y-58467200D02*
X218789285Y-59181485D01*
X218789285Y-59181485D02*
X218170238Y-59181485D01*
X217313095Y-58514819D02*
X217789285Y-58514819D01*
X217789285Y-58514819D02*
X217836904Y-58991009D01*
X217836904Y-58991009D02*
X217789285Y-58943390D01*
X217789285Y-58943390D02*
X217694047Y-58895771D01*
X217694047Y-58895771D02*
X217455952Y-58895771D01*
X217455952Y-58895771D02*
X217360714Y-58943390D01*
X217360714Y-58943390D02*
X217313095Y-58991009D01*
X217313095Y-58991009D02*
X217265476Y-59086247D01*
X217265476Y-59086247D02*
X217265476Y-59324342D01*
X217265476Y-59324342D02*
X217313095Y-59419580D01*
X217313095Y-59419580D02*
X217360714Y-59467200D01*
X217360714Y-59467200D02*
X217455952Y-59514819D01*
X217455952Y-59514819D02*
X217694047Y-59514819D01*
X217694047Y-59514819D02*
X217789285Y-59467200D01*
X217789285Y-59467200D02*
X217836904Y-59419580D01*
X220884523Y-21367200D02*
X220741666Y-21414819D01*
X220741666Y-21414819D02*
X220503571Y-21414819D01*
X220503571Y-21414819D02*
X220408333Y-21367200D01*
X220408333Y-21367200D02*
X220360714Y-21319580D01*
X220360714Y-21319580D02*
X220313095Y-21224342D01*
X220313095Y-21224342D02*
X220313095Y-21129104D01*
X220313095Y-21129104D02*
X220360714Y-21033866D01*
X220360714Y-21033866D02*
X220408333Y-20986247D01*
X220408333Y-20986247D02*
X220503571Y-20938628D01*
X220503571Y-20938628D02*
X220694047Y-20891009D01*
X220694047Y-20891009D02*
X220789285Y-20843390D01*
X220789285Y-20843390D02*
X220836904Y-20795771D01*
X220836904Y-20795771D02*
X220884523Y-20700533D01*
X220884523Y-20700533D02*
X220884523Y-20605295D01*
X220884523Y-20605295D02*
X220836904Y-20510057D01*
X220836904Y-20510057D02*
X220789285Y-20462438D01*
X220789285Y-20462438D02*
X220694047Y-20414819D01*
X220694047Y-20414819D02*
X220455952Y-20414819D01*
X220455952Y-20414819D02*
X220313095Y-20462438D01*
X219979761Y-20414819D02*
X219741666Y-21414819D01*
X219741666Y-21414819D02*
X219551190Y-20700533D01*
X219551190Y-20700533D02*
X219360714Y-21414819D01*
X219360714Y-21414819D02*
X219122619Y-20414819D01*
X218217857Y-21414819D02*
X218789285Y-21414819D01*
X218503571Y-21414819D02*
X218503571Y-20414819D01*
X218503571Y-20414819D02*
X218598809Y-20557676D01*
X218598809Y-20557676D02*
X218694047Y-20652914D01*
X218694047Y-20652914D02*
X218789285Y-20700533D01*
X217884523Y-20414819D02*
X217217857Y-20414819D01*
X217217857Y-20414819D02*
X217646428Y-21414819D01*
X239934523Y-19462200D02*
X239791666Y-19509819D01*
X239791666Y-19509819D02*
X239553571Y-19509819D01*
X239553571Y-19509819D02*
X239458333Y-19462200D01*
X239458333Y-19462200D02*
X239410714Y-19414580D01*
X239410714Y-19414580D02*
X239363095Y-19319342D01*
X239363095Y-19319342D02*
X239363095Y-19224104D01*
X239363095Y-19224104D02*
X239410714Y-19128866D01*
X239410714Y-19128866D02*
X239458333Y-19081247D01*
X239458333Y-19081247D02*
X239553571Y-19033628D01*
X239553571Y-19033628D02*
X239744047Y-18986009D01*
X239744047Y-18986009D02*
X239839285Y-18938390D01*
X239839285Y-18938390D02*
X239886904Y-18890771D01*
X239886904Y-18890771D02*
X239934523Y-18795533D01*
X239934523Y-18795533D02*
X239934523Y-18700295D01*
X239934523Y-18700295D02*
X239886904Y-18605057D01*
X239886904Y-18605057D02*
X239839285Y-18557438D01*
X239839285Y-18557438D02*
X239744047Y-18509819D01*
X239744047Y-18509819D02*
X239505952Y-18509819D01*
X239505952Y-18509819D02*
X239363095Y-18557438D01*
X239029761Y-18509819D02*
X238791666Y-19509819D01*
X238791666Y-19509819D02*
X238601190Y-18795533D01*
X238601190Y-18795533D02*
X238410714Y-19509819D01*
X238410714Y-19509819D02*
X238172619Y-18509819D01*
X237267857Y-19509819D02*
X237839285Y-19509819D01*
X237553571Y-19509819D02*
X237553571Y-18509819D01*
X237553571Y-18509819D02*
X237648809Y-18652676D01*
X237648809Y-18652676D02*
X237744047Y-18747914D01*
X237744047Y-18747914D02*
X237839285Y-18795533D01*
X236410714Y-18843152D02*
X236410714Y-19509819D01*
X236648809Y-18462200D02*
X236886904Y-19176485D01*
X236886904Y-19176485D02*
X236267857Y-19176485D01*
X258984523Y-59467200D02*
X258841666Y-59514819D01*
X258841666Y-59514819D02*
X258603571Y-59514819D01*
X258603571Y-59514819D02*
X258508333Y-59467200D01*
X258508333Y-59467200D02*
X258460714Y-59419580D01*
X258460714Y-59419580D02*
X258413095Y-59324342D01*
X258413095Y-59324342D02*
X258413095Y-59229104D01*
X258413095Y-59229104D02*
X258460714Y-59133866D01*
X258460714Y-59133866D02*
X258508333Y-59086247D01*
X258508333Y-59086247D02*
X258603571Y-59038628D01*
X258603571Y-59038628D02*
X258794047Y-58991009D01*
X258794047Y-58991009D02*
X258889285Y-58943390D01*
X258889285Y-58943390D02*
X258936904Y-58895771D01*
X258936904Y-58895771D02*
X258984523Y-58800533D01*
X258984523Y-58800533D02*
X258984523Y-58705295D01*
X258984523Y-58705295D02*
X258936904Y-58610057D01*
X258936904Y-58610057D02*
X258889285Y-58562438D01*
X258889285Y-58562438D02*
X258794047Y-58514819D01*
X258794047Y-58514819D02*
X258555952Y-58514819D01*
X258555952Y-58514819D02*
X258413095Y-58562438D01*
X258079761Y-58514819D02*
X257841666Y-59514819D01*
X257841666Y-59514819D02*
X257651190Y-58800533D01*
X257651190Y-58800533D02*
X257460714Y-59514819D01*
X257460714Y-59514819D02*
X257222619Y-58514819D01*
X256413095Y-58848152D02*
X256413095Y-59514819D01*
X256651190Y-58467200D02*
X256889285Y-59181485D01*
X256889285Y-59181485D02*
X256270238Y-59181485D01*
X255460714Y-58514819D02*
X255651190Y-58514819D01*
X255651190Y-58514819D02*
X255746428Y-58562438D01*
X255746428Y-58562438D02*
X255794047Y-58610057D01*
X255794047Y-58610057D02*
X255889285Y-58752914D01*
X255889285Y-58752914D02*
X255936904Y-58943390D01*
X255936904Y-58943390D02*
X255936904Y-59324342D01*
X255936904Y-59324342D02*
X255889285Y-59419580D01*
X255889285Y-59419580D02*
X255841666Y-59467200D01*
X255841666Y-59467200D02*
X255746428Y-59514819D01*
X255746428Y-59514819D02*
X255555952Y-59514819D01*
X255555952Y-59514819D02*
X255460714Y-59467200D01*
X255460714Y-59467200D02*
X255413095Y-59419580D01*
X255413095Y-59419580D02*
X255365476Y-59324342D01*
X255365476Y-59324342D02*
X255365476Y-59086247D01*
X255365476Y-59086247D02*
X255413095Y-58991009D01*
X255413095Y-58991009D02*
X255460714Y-58943390D01*
X255460714Y-58943390D02*
X255555952Y-58895771D01*
X255555952Y-58895771D02*
X255746428Y-58895771D01*
X255746428Y-58895771D02*
X255841666Y-58943390D01*
X255841666Y-58943390D02*
X255889285Y-58991009D01*
X255889285Y-58991009D02*
X255936904Y-59086247D01*
X258984523Y-21367200D02*
X258841666Y-21414819D01*
X258841666Y-21414819D02*
X258603571Y-21414819D01*
X258603571Y-21414819D02*
X258508333Y-21367200D01*
X258508333Y-21367200D02*
X258460714Y-21319580D01*
X258460714Y-21319580D02*
X258413095Y-21224342D01*
X258413095Y-21224342D02*
X258413095Y-21129104D01*
X258413095Y-21129104D02*
X258460714Y-21033866D01*
X258460714Y-21033866D02*
X258508333Y-20986247D01*
X258508333Y-20986247D02*
X258603571Y-20938628D01*
X258603571Y-20938628D02*
X258794047Y-20891009D01*
X258794047Y-20891009D02*
X258889285Y-20843390D01*
X258889285Y-20843390D02*
X258936904Y-20795771D01*
X258936904Y-20795771D02*
X258984523Y-20700533D01*
X258984523Y-20700533D02*
X258984523Y-20605295D01*
X258984523Y-20605295D02*
X258936904Y-20510057D01*
X258936904Y-20510057D02*
X258889285Y-20462438D01*
X258889285Y-20462438D02*
X258794047Y-20414819D01*
X258794047Y-20414819D02*
X258555952Y-20414819D01*
X258555952Y-20414819D02*
X258413095Y-20462438D01*
X258079761Y-20414819D02*
X257841666Y-21414819D01*
X257841666Y-21414819D02*
X257651190Y-20700533D01*
X257651190Y-20700533D02*
X257460714Y-21414819D01*
X257460714Y-21414819D02*
X257222619Y-20414819D01*
X256317857Y-21414819D02*
X256889285Y-21414819D01*
X256603571Y-21414819D02*
X256603571Y-20414819D01*
X256603571Y-20414819D02*
X256698809Y-20557676D01*
X256698809Y-20557676D02*
X256794047Y-20652914D01*
X256794047Y-20652914D02*
X256889285Y-20700533D01*
X255746428Y-20843390D02*
X255841666Y-20795771D01*
X255841666Y-20795771D02*
X255889285Y-20748152D01*
X255889285Y-20748152D02*
X255936904Y-20652914D01*
X255936904Y-20652914D02*
X255936904Y-20605295D01*
X255936904Y-20605295D02*
X255889285Y-20510057D01*
X255889285Y-20510057D02*
X255841666Y-20462438D01*
X255841666Y-20462438D02*
X255746428Y-20414819D01*
X255746428Y-20414819D02*
X255555952Y-20414819D01*
X255555952Y-20414819D02*
X255460714Y-20462438D01*
X255460714Y-20462438D02*
X255413095Y-20510057D01*
X255413095Y-20510057D02*
X255365476Y-20605295D01*
X255365476Y-20605295D02*
X255365476Y-20652914D01*
X255365476Y-20652914D02*
X255413095Y-20748152D01*
X255413095Y-20748152D02*
X255460714Y-20795771D01*
X255460714Y-20795771D02*
X255555952Y-20843390D01*
X255555952Y-20843390D02*
X255746428Y-20843390D01*
X255746428Y-20843390D02*
X255841666Y-20891009D01*
X255841666Y-20891009D02*
X255889285Y-20938628D01*
X255889285Y-20938628D02*
X255936904Y-21033866D01*
X255936904Y-21033866D02*
X255936904Y-21224342D01*
X255936904Y-21224342D02*
X255889285Y-21319580D01*
X255889285Y-21319580D02*
X255841666Y-21367200D01*
X255841666Y-21367200D02*
X255746428Y-21414819D01*
X255746428Y-21414819D02*
X255555952Y-21414819D01*
X255555952Y-21414819D02*
X255460714Y-21367200D01*
X255460714Y-21367200D02*
X255413095Y-21319580D01*
X255413095Y-21319580D02*
X255365476Y-21224342D01*
X255365476Y-21224342D02*
X255365476Y-21033866D01*
X255365476Y-21033866D02*
X255413095Y-20938628D01*
X255413095Y-20938628D02*
X255460714Y-20891009D01*
X255460714Y-20891009D02*
X255555952Y-20843390D01*
X201834523Y-61372200D02*
X201691666Y-61419819D01*
X201691666Y-61419819D02*
X201453571Y-61419819D01*
X201453571Y-61419819D02*
X201358333Y-61372200D01*
X201358333Y-61372200D02*
X201310714Y-61324580D01*
X201310714Y-61324580D02*
X201263095Y-61229342D01*
X201263095Y-61229342D02*
X201263095Y-61134104D01*
X201263095Y-61134104D02*
X201310714Y-61038866D01*
X201310714Y-61038866D02*
X201358333Y-60991247D01*
X201358333Y-60991247D02*
X201453571Y-60943628D01*
X201453571Y-60943628D02*
X201644047Y-60896009D01*
X201644047Y-60896009D02*
X201739285Y-60848390D01*
X201739285Y-60848390D02*
X201786904Y-60800771D01*
X201786904Y-60800771D02*
X201834523Y-60705533D01*
X201834523Y-60705533D02*
X201834523Y-60610295D01*
X201834523Y-60610295D02*
X201786904Y-60515057D01*
X201786904Y-60515057D02*
X201739285Y-60467438D01*
X201739285Y-60467438D02*
X201644047Y-60419819D01*
X201644047Y-60419819D02*
X201405952Y-60419819D01*
X201405952Y-60419819D02*
X201263095Y-60467438D01*
X200929761Y-60419819D02*
X200691666Y-61419819D01*
X200691666Y-61419819D02*
X200501190Y-60705533D01*
X200501190Y-60705533D02*
X200310714Y-61419819D01*
X200310714Y-61419819D02*
X200072619Y-60419819D01*
X199263095Y-60753152D02*
X199263095Y-61419819D01*
X199501190Y-60372200D02*
X199739285Y-61086485D01*
X199739285Y-61086485D02*
X199120238Y-61086485D01*
X198691666Y-61419819D02*
X198501190Y-61419819D01*
X198501190Y-61419819D02*
X198405952Y-61372200D01*
X198405952Y-61372200D02*
X198358333Y-61324580D01*
X198358333Y-61324580D02*
X198263095Y-61181723D01*
X198263095Y-61181723D02*
X198215476Y-60991247D01*
X198215476Y-60991247D02*
X198215476Y-60610295D01*
X198215476Y-60610295D02*
X198263095Y-60515057D01*
X198263095Y-60515057D02*
X198310714Y-60467438D01*
X198310714Y-60467438D02*
X198405952Y-60419819D01*
X198405952Y-60419819D02*
X198596428Y-60419819D01*
X198596428Y-60419819D02*
X198691666Y-60467438D01*
X198691666Y-60467438D02*
X198739285Y-60515057D01*
X198739285Y-60515057D02*
X198786904Y-60610295D01*
X198786904Y-60610295D02*
X198786904Y-60848390D01*
X198786904Y-60848390D02*
X198739285Y-60943628D01*
X198739285Y-60943628D02*
X198691666Y-60991247D01*
X198691666Y-60991247D02*
X198596428Y-61038866D01*
X198596428Y-61038866D02*
X198405952Y-61038866D01*
X198405952Y-61038866D02*
X198310714Y-60991247D01*
X198310714Y-60991247D02*
X198263095Y-60943628D01*
X198263095Y-60943628D02*
X198215476Y-60848390D01*
X278034523Y-4222200D02*
X277891666Y-4269819D01*
X277891666Y-4269819D02*
X277653571Y-4269819D01*
X277653571Y-4269819D02*
X277558333Y-4222200D01*
X277558333Y-4222200D02*
X277510714Y-4174580D01*
X277510714Y-4174580D02*
X277463095Y-4079342D01*
X277463095Y-4079342D02*
X277463095Y-3984104D01*
X277463095Y-3984104D02*
X277510714Y-3888866D01*
X277510714Y-3888866D02*
X277558333Y-3841247D01*
X277558333Y-3841247D02*
X277653571Y-3793628D01*
X277653571Y-3793628D02*
X277844047Y-3746009D01*
X277844047Y-3746009D02*
X277939285Y-3698390D01*
X277939285Y-3698390D02*
X277986904Y-3650771D01*
X277986904Y-3650771D02*
X278034523Y-3555533D01*
X278034523Y-3555533D02*
X278034523Y-3460295D01*
X278034523Y-3460295D02*
X277986904Y-3365057D01*
X277986904Y-3365057D02*
X277939285Y-3317438D01*
X277939285Y-3317438D02*
X277844047Y-3269819D01*
X277844047Y-3269819D02*
X277605952Y-3269819D01*
X277605952Y-3269819D02*
X277463095Y-3317438D01*
X277129761Y-3269819D02*
X276891666Y-4269819D01*
X276891666Y-4269819D02*
X276701190Y-3555533D01*
X276701190Y-3555533D02*
X276510714Y-4269819D01*
X276510714Y-4269819D02*
X276272619Y-3269819D01*
X275367857Y-4269819D02*
X275939285Y-4269819D01*
X275653571Y-4269819D02*
X275653571Y-3269819D01*
X275653571Y-3269819D02*
X275748809Y-3412676D01*
X275748809Y-3412676D02*
X275844047Y-3507914D01*
X275844047Y-3507914D02*
X275939285Y-3555533D01*
X274748809Y-3269819D02*
X274653571Y-3269819D01*
X274653571Y-3269819D02*
X274558333Y-3317438D01*
X274558333Y-3317438D02*
X274510714Y-3365057D01*
X274510714Y-3365057D02*
X274463095Y-3460295D01*
X274463095Y-3460295D02*
X274415476Y-3650771D01*
X274415476Y-3650771D02*
X274415476Y-3888866D01*
X274415476Y-3888866D02*
X274463095Y-4079342D01*
X274463095Y-4079342D02*
X274510714Y-4174580D01*
X274510714Y-4174580D02*
X274558333Y-4222200D01*
X274558333Y-4222200D02*
X274653571Y-4269819D01*
X274653571Y-4269819D02*
X274748809Y-4269819D01*
X274748809Y-4269819D02*
X274844047Y-4222200D01*
X274844047Y-4222200D02*
X274891666Y-4174580D01*
X274891666Y-4174580D02*
X274939285Y-4079342D01*
X274939285Y-4079342D02*
X274986904Y-3888866D01*
X274986904Y-3888866D02*
X274986904Y-3650771D01*
X274986904Y-3650771D02*
X274939285Y-3460295D01*
X274939285Y-3460295D02*
X274891666Y-3365057D01*
X274891666Y-3365057D02*
X274844047Y-3317438D01*
X274844047Y-3317438D02*
X274748809Y-3269819D01*
X297084523Y-5174700D02*
X296941666Y-5222319D01*
X296941666Y-5222319D02*
X296703571Y-5222319D01*
X296703571Y-5222319D02*
X296608333Y-5174700D01*
X296608333Y-5174700D02*
X296560714Y-5127080D01*
X296560714Y-5127080D02*
X296513095Y-5031842D01*
X296513095Y-5031842D02*
X296513095Y-4936604D01*
X296513095Y-4936604D02*
X296560714Y-4841366D01*
X296560714Y-4841366D02*
X296608333Y-4793747D01*
X296608333Y-4793747D02*
X296703571Y-4746128D01*
X296703571Y-4746128D02*
X296894047Y-4698509D01*
X296894047Y-4698509D02*
X296989285Y-4650890D01*
X296989285Y-4650890D02*
X297036904Y-4603271D01*
X297036904Y-4603271D02*
X297084523Y-4508033D01*
X297084523Y-4508033D02*
X297084523Y-4412795D01*
X297084523Y-4412795D02*
X297036904Y-4317557D01*
X297036904Y-4317557D02*
X296989285Y-4269938D01*
X296989285Y-4269938D02*
X296894047Y-4222319D01*
X296894047Y-4222319D02*
X296655952Y-4222319D01*
X296655952Y-4222319D02*
X296513095Y-4269938D01*
X296179761Y-4222319D02*
X295941666Y-5222319D01*
X295941666Y-5222319D02*
X295751190Y-4508033D01*
X295751190Y-4508033D02*
X295560714Y-5222319D01*
X295560714Y-5222319D02*
X295322619Y-4222319D01*
X294417857Y-5222319D02*
X294989285Y-5222319D01*
X294703571Y-5222319D02*
X294703571Y-4222319D01*
X294703571Y-4222319D02*
X294798809Y-4365176D01*
X294798809Y-4365176D02*
X294894047Y-4460414D01*
X294894047Y-4460414D02*
X294989285Y-4508033D01*
X294036904Y-4317557D02*
X293989285Y-4269938D01*
X293989285Y-4269938D02*
X293894047Y-4222319D01*
X293894047Y-4222319D02*
X293655952Y-4222319D01*
X293655952Y-4222319D02*
X293560714Y-4269938D01*
X293560714Y-4269938D02*
X293513095Y-4317557D01*
X293513095Y-4317557D02*
X293465476Y-4412795D01*
X293465476Y-4412795D02*
X293465476Y-4508033D01*
X293465476Y-4508033D02*
X293513095Y-4650890D01*
X293513095Y-4650890D02*
X294084523Y-5222319D01*
X294084523Y-5222319D02*
X293465476Y-5222319D01*
X239934523Y-57562200D02*
X239791666Y-57609819D01*
X239791666Y-57609819D02*
X239553571Y-57609819D01*
X239553571Y-57609819D02*
X239458333Y-57562200D01*
X239458333Y-57562200D02*
X239410714Y-57514580D01*
X239410714Y-57514580D02*
X239363095Y-57419342D01*
X239363095Y-57419342D02*
X239363095Y-57324104D01*
X239363095Y-57324104D02*
X239410714Y-57228866D01*
X239410714Y-57228866D02*
X239458333Y-57181247D01*
X239458333Y-57181247D02*
X239553571Y-57133628D01*
X239553571Y-57133628D02*
X239744047Y-57086009D01*
X239744047Y-57086009D02*
X239839285Y-57038390D01*
X239839285Y-57038390D02*
X239886904Y-56990771D01*
X239886904Y-56990771D02*
X239934523Y-56895533D01*
X239934523Y-56895533D02*
X239934523Y-56800295D01*
X239934523Y-56800295D02*
X239886904Y-56705057D01*
X239886904Y-56705057D02*
X239839285Y-56657438D01*
X239839285Y-56657438D02*
X239744047Y-56609819D01*
X239744047Y-56609819D02*
X239505952Y-56609819D01*
X239505952Y-56609819D02*
X239363095Y-56657438D01*
X239029761Y-56609819D02*
X238791666Y-57609819D01*
X238791666Y-57609819D02*
X238601190Y-56895533D01*
X238601190Y-56895533D02*
X238410714Y-57609819D01*
X238410714Y-57609819D02*
X238172619Y-56609819D01*
X237363095Y-56943152D02*
X237363095Y-57609819D01*
X237601190Y-56562200D02*
X237839285Y-57276485D01*
X237839285Y-57276485D02*
X237220238Y-57276485D01*
X236886904Y-56705057D02*
X236839285Y-56657438D01*
X236839285Y-56657438D02*
X236744047Y-56609819D01*
X236744047Y-56609819D02*
X236505952Y-56609819D01*
X236505952Y-56609819D02*
X236410714Y-56657438D01*
X236410714Y-56657438D02*
X236363095Y-56705057D01*
X236363095Y-56705057D02*
X236315476Y-56800295D01*
X236315476Y-56800295D02*
X236315476Y-56895533D01*
X236315476Y-56895533D02*
X236363095Y-57038390D01*
X236363095Y-57038390D02*
X236934523Y-57609819D01*
X236934523Y-57609819D02*
X236315476Y-57609819D01*
X278034523Y-42322200D02*
X277891666Y-42369819D01*
X277891666Y-42369819D02*
X277653571Y-42369819D01*
X277653571Y-42369819D02*
X277558333Y-42322200D01*
X277558333Y-42322200D02*
X277510714Y-42274580D01*
X277510714Y-42274580D02*
X277463095Y-42179342D01*
X277463095Y-42179342D02*
X277463095Y-42084104D01*
X277463095Y-42084104D02*
X277510714Y-41988866D01*
X277510714Y-41988866D02*
X277558333Y-41941247D01*
X277558333Y-41941247D02*
X277653571Y-41893628D01*
X277653571Y-41893628D02*
X277844047Y-41846009D01*
X277844047Y-41846009D02*
X277939285Y-41798390D01*
X277939285Y-41798390D02*
X277986904Y-41750771D01*
X277986904Y-41750771D02*
X278034523Y-41655533D01*
X278034523Y-41655533D02*
X278034523Y-41560295D01*
X278034523Y-41560295D02*
X277986904Y-41465057D01*
X277986904Y-41465057D02*
X277939285Y-41417438D01*
X277939285Y-41417438D02*
X277844047Y-41369819D01*
X277844047Y-41369819D02*
X277605952Y-41369819D01*
X277605952Y-41369819D02*
X277463095Y-41417438D01*
X277129761Y-41369819D02*
X276891666Y-42369819D01*
X276891666Y-42369819D02*
X276701190Y-41655533D01*
X276701190Y-41655533D02*
X276510714Y-42369819D01*
X276510714Y-42369819D02*
X276272619Y-41369819D01*
X275986904Y-41369819D02*
X275367857Y-41369819D01*
X275367857Y-41369819D02*
X275701190Y-41750771D01*
X275701190Y-41750771D02*
X275558333Y-41750771D01*
X275558333Y-41750771D02*
X275463095Y-41798390D01*
X275463095Y-41798390D02*
X275415476Y-41846009D01*
X275415476Y-41846009D02*
X275367857Y-41941247D01*
X275367857Y-41941247D02*
X275367857Y-42179342D01*
X275367857Y-42179342D02*
X275415476Y-42274580D01*
X275415476Y-42274580D02*
X275463095Y-42322200D01*
X275463095Y-42322200D02*
X275558333Y-42369819D01*
X275558333Y-42369819D02*
X275844047Y-42369819D01*
X275844047Y-42369819D02*
X275939285Y-42322200D01*
X275939285Y-42322200D02*
X275986904Y-42274580D01*
X274510714Y-41369819D02*
X274701190Y-41369819D01*
X274701190Y-41369819D02*
X274796428Y-41417438D01*
X274796428Y-41417438D02*
X274844047Y-41465057D01*
X274844047Y-41465057D02*
X274939285Y-41607914D01*
X274939285Y-41607914D02*
X274986904Y-41798390D01*
X274986904Y-41798390D02*
X274986904Y-42179342D01*
X274986904Y-42179342D02*
X274939285Y-42274580D01*
X274939285Y-42274580D02*
X274891666Y-42322200D01*
X274891666Y-42322200D02*
X274796428Y-42369819D01*
X274796428Y-42369819D02*
X274605952Y-42369819D01*
X274605952Y-42369819D02*
X274510714Y-42322200D01*
X274510714Y-42322200D02*
X274463095Y-42274580D01*
X274463095Y-42274580D02*
X274415476Y-42179342D01*
X274415476Y-42179342D02*
X274415476Y-41941247D01*
X274415476Y-41941247D02*
X274463095Y-41846009D01*
X274463095Y-41846009D02*
X274510714Y-41798390D01*
X274510714Y-41798390D02*
X274605952Y-41750771D01*
X274605952Y-41750771D02*
X274796428Y-41750771D01*
X274796428Y-41750771D02*
X274891666Y-41798390D01*
X274891666Y-41798390D02*
X274939285Y-41846009D01*
X274939285Y-41846009D02*
X274986904Y-41941247D01*
X299465823Y-62324700D02*
X299322966Y-62372319D01*
X299322966Y-62372319D02*
X299084871Y-62372319D01*
X299084871Y-62372319D02*
X298989633Y-62324700D01*
X298989633Y-62324700D02*
X298942014Y-62277080D01*
X298942014Y-62277080D02*
X298894395Y-62181842D01*
X298894395Y-62181842D02*
X298894395Y-62086604D01*
X298894395Y-62086604D02*
X298942014Y-61991366D01*
X298942014Y-61991366D02*
X298989633Y-61943747D01*
X298989633Y-61943747D02*
X299084871Y-61896128D01*
X299084871Y-61896128D02*
X299275347Y-61848509D01*
X299275347Y-61848509D02*
X299370585Y-61800890D01*
X299370585Y-61800890D02*
X299418204Y-61753271D01*
X299418204Y-61753271D02*
X299465823Y-61658033D01*
X299465823Y-61658033D02*
X299465823Y-61562795D01*
X299465823Y-61562795D02*
X299418204Y-61467557D01*
X299418204Y-61467557D02*
X299370585Y-61419938D01*
X299370585Y-61419938D02*
X299275347Y-61372319D01*
X299275347Y-61372319D02*
X299037252Y-61372319D01*
X299037252Y-61372319D02*
X298894395Y-61419938D01*
X298561061Y-61372319D02*
X298322966Y-62372319D01*
X298322966Y-62372319D02*
X298132490Y-61658033D01*
X298132490Y-61658033D02*
X297942014Y-62372319D01*
X297942014Y-62372319D02*
X297703919Y-61372319D01*
X296846776Y-61372319D02*
X297322966Y-61372319D01*
X297322966Y-61372319D02*
X297370585Y-61848509D01*
X297370585Y-61848509D02*
X297322966Y-61800890D01*
X297322966Y-61800890D02*
X297227728Y-61753271D01*
X297227728Y-61753271D02*
X296989633Y-61753271D01*
X296989633Y-61753271D02*
X296894395Y-61800890D01*
X296894395Y-61800890D02*
X296846776Y-61848509D01*
X296846776Y-61848509D02*
X296799157Y-61943747D01*
X296799157Y-61943747D02*
X296799157Y-62181842D01*
X296799157Y-62181842D02*
X296846776Y-62277080D01*
X296846776Y-62277080D02*
X296894395Y-62324700D01*
X296894395Y-62324700D02*
X296989633Y-62372319D01*
X296989633Y-62372319D02*
X297227728Y-62372319D01*
X297227728Y-62372319D02*
X297322966Y-62324700D01*
X297322966Y-62324700D02*
X297370585Y-62277080D01*
X296418204Y-61467557D02*
X296370585Y-61419938D01*
X296370585Y-61419938D02*
X296275347Y-61372319D01*
X296275347Y-61372319D02*
X296037252Y-61372319D01*
X296037252Y-61372319D02*
X295942014Y-61419938D01*
X295942014Y-61419938D02*
X295894395Y-61467557D01*
X295894395Y-61467557D02*
X295846776Y-61562795D01*
X295846776Y-61562795D02*
X295846776Y-61658033D01*
X295846776Y-61658033D02*
X295894395Y-61800890D01*
X295894395Y-61800890D02*
X296465823Y-62372319D01*
X296465823Y-62372319D02*
X295846776Y-62372319D01*
X182784523Y-38512200D02*
X182641666Y-38559819D01*
X182641666Y-38559819D02*
X182403571Y-38559819D01*
X182403571Y-38559819D02*
X182308333Y-38512200D01*
X182308333Y-38512200D02*
X182260714Y-38464580D01*
X182260714Y-38464580D02*
X182213095Y-38369342D01*
X182213095Y-38369342D02*
X182213095Y-38274104D01*
X182213095Y-38274104D02*
X182260714Y-38178866D01*
X182260714Y-38178866D02*
X182308333Y-38131247D01*
X182308333Y-38131247D02*
X182403571Y-38083628D01*
X182403571Y-38083628D02*
X182594047Y-38036009D01*
X182594047Y-38036009D02*
X182689285Y-37988390D01*
X182689285Y-37988390D02*
X182736904Y-37940771D01*
X182736904Y-37940771D02*
X182784523Y-37845533D01*
X182784523Y-37845533D02*
X182784523Y-37750295D01*
X182784523Y-37750295D02*
X182736904Y-37655057D01*
X182736904Y-37655057D02*
X182689285Y-37607438D01*
X182689285Y-37607438D02*
X182594047Y-37559819D01*
X182594047Y-37559819D02*
X182355952Y-37559819D01*
X182355952Y-37559819D02*
X182213095Y-37607438D01*
X181879761Y-37559819D02*
X181641666Y-38559819D01*
X181641666Y-38559819D02*
X181451190Y-37845533D01*
X181451190Y-37845533D02*
X181260714Y-38559819D01*
X181260714Y-38559819D02*
X181022619Y-37559819D01*
X180689285Y-37655057D02*
X180641666Y-37607438D01*
X180641666Y-37607438D02*
X180546428Y-37559819D01*
X180546428Y-37559819D02*
X180308333Y-37559819D01*
X180308333Y-37559819D02*
X180213095Y-37607438D01*
X180213095Y-37607438D02*
X180165476Y-37655057D01*
X180165476Y-37655057D02*
X180117857Y-37750295D01*
X180117857Y-37750295D02*
X180117857Y-37845533D01*
X180117857Y-37845533D02*
X180165476Y-37988390D01*
X180165476Y-37988390D02*
X180736904Y-38559819D01*
X180736904Y-38559819D02*
X180117857Y-38559819D01*
X179784523Y-37559819D02*
X179117857Y-37559819D01*
X179117857Y-37559819D02*
X179546428Y-38559819D01*
X258508332Y-2317200D02*
X258365475Y-2364819D01*
X258365475Y-2364819D02*
X258127380Y-2364819D01*
X258127380Y-2364819D02*
X258032142Y-2317200D01*
X258032142Y-2317200D02*
X257984523Y-2269580D01*
X257984523Y-2269580D02*
X257936904Y-2174342D01*
X257936904Y-2174342D02*
X257936904Y-2079104D01*
X257936904Y-2079104D02*
X257984523Y-1983866D01*
X257984523Y-1983866D02*
X258032142Y-1936247D01*
X258032142Y-1936247D02*
X258127380Y-1888628D01*
X258127380Y-1888628D02*
X258317856Y-1841009D01*
X258317856Y-1841009D02*
X258413094Y-1793390D01*
X258413094Y-1793390D02*
X258460713Y-1745771D01*
X258460713Y-1745771D02*
X258508332Y-1650533D01*
X258508332Y-1650533D02*
X258508332Y-1555295D01*
X258508332Y-1555295D02*
X258460713Y-1460057D01*
X258460713Y-1460057D02*
X258413094Y-1412438D01*
X258413094Y-1412438D02*
X258317856Y-1364819D01*
X258317856Y-1364819D02*
X258079761Y-1364819D01*
X258079761Y-1364819D02*
X257936904Y-1412438D01*
X257603570Y-1364819D02*
X257365475Y-2364819D01*
X257365475Y-2364819D02*
X257174999Y-1650533D01*
X257174999Y-1650533D02*
X256984523Y-2364819D01*
X256984523Y-2364819D02*
X256746428Y-1364819D01*
X255936904Y-1364819D02*
X256127380Y-1364819D01*
X256127380Y-1364819D02*
X256222618Y-1412438D01*
X256222618Y-1412438D02*
X256270237Y-1460057D01*
X256270237Y-1460057D02*
X256365475Y-1602914D01*
X256365475Y-1602914D02*
X256413094Y-1793390D01*
X256413094Y-1793390D02*
X256413094Y-2174342D01*
X256413094Y-2174342D02*
X256365475Y-2269580D01*
X256365475Y-2269580D02*
X256317856Y-2317200D01*
X256317856Y-2317200D02*
X256222618Y-2364819D01*
X256222618Y-2364819D02*
X256032142Y-2364819D01*
X256032142Y-2364819D02*
X255936904Y-2317200D01*
X255936904Y-2317200D02*
X255889285Y-2269580D01*
X255889285Y-2269580D02*
X255841666Y-2174342D01*
X255841666Y-2174342D02*
X255841666Y-1936247D01*
X255841666Y-1936247D02*
X255889285Y-1841009D01*
X255889285Y-1841009D02*
X255936904Y-1793390D01*
X255936904Y-1793390D02*
X256032142Y-1745771D01*
X256032142Y-1745771D02*
X256222618Y-1745771D01*
X256222618Y-1745771D02*
X256317856Y-1793390D01*
X256317856Y-1793390D02*
X256365475Y-1841009D01*
X256365475Y-1841009D02*
X256413094Y-1936247D01*
X220884523Y-40417200D02*
X220741666Y-40464819D01*
X220741666Y-40464819D02*
X220503571Y-40464819D01*
X220503571Y-40464819D02*
X220408333Y-40417200D01*
X220408333Y-40417200D02*
X220360714Y-40369580D01*
X220360714Y-40369580D02*
X220313095Y-40274342D01*
X220313095Y-40274342D02*
X220313095Y-40179104D01*
X220313095Y-40179104D02*
X220360714Y-40083866D01*
X220360714Y-40083866D02*
X220408333Y-40036247D01*
X220408333Y-40036247D02*
X220503571Y-39988628D01*
X220503571Y-39988628D02*
X220694047Y-39941009D01*
X220694047Y-39941009D02*
X220789285Y-39893390D01*
X220789285Y-39893390D02*
X220836904Y-39845771D01*
X220836904Y-39845771D02*
X220884523Y-39750533D01*
X220884523Y-39750533D02*
X220884523Y-39655295D01*
X220884523Y-39655295D02*
X220836904Y-39560057D01*
X220836904Y-39560057D02*
X220789285Y-39512438D01*
X220789285Y-39512438D02*
X220694047Y-39464819D01*
X220694047Y-39464819D02*
X220455952Y-39464819D01*
X220455952Y-39464819D02*
X220313095Y-39512438D01*
X219979761Y-39464819D02*
X219741666Y-40464819D01*
X219741666Y-40464819D02*
X219551190Y-39750533D01*
X219551190Y-39750533D02*
X219360714Y-40464819D01*
X219360714Y-40464819D02*
X219122619Y-39464819D01*
X218836904Y-39464819D02*
X218217857Y-39464819D01*
X218217857Y-39464819D02*
X218551190Y-39845771D01*
X218551190Y-39845771D02*
X218408333Y-39845771D01*
X218408333Y-39845771D02*
X218313095Y-39893390D01*
X218313095Y-39893390D02*
X218265476Y-39941009D01*
X218265476Y-39941009D02*
X218217857Y-40036247D01*
X218217857Y-40036247D02*
X218217857Y-40274342D01*
X218217857Y-40274342D02*
X218265476Y-40369580D01*
X218265476Y-40369580D02*
X218313095Y-40417200D01*
X218313095Y-40417200D02*
X218408333Y-40464819D01*
X218408333Y-40464819D02*
X218694047Y-40464819D01*
X218694047Y-40464819D02*
X218789285Y-40417200D01*
X218789285Y-40417200D02*
X218836904Y-40369580D01*
X217265476Y-40464819D02*
X217836904Y-40464819D01*
X217551190Y-40464819D02*
X217551190Y-39464819D01*
X217551190Y-39464819D02*
X217646428Y-39607676D01*
X217646428Y-39607676D02*
X217741666Y-39702914D01*
X217741666Y-39702914D02*
X217836904Y-39750533D01*
X201834523Y-42322200D02*
X201691666Y-42369819D01*
X201691666Y-42369819D02*
X201453571Y-42369819D01*
X201453571Y-42369819D02*
X201358333Y-42322200D01*
X201358333Y-42322200D02*
X201310714Y-42274580D01*
X201310714Y-42274580D02*
X201263095Y-42179342D01*
X201263095Y-42179342D02*
X201263095Y-42084104D01*
X201263095Y-42084104D02*
X201310714Y-41988866D01*
X201310714Y-41988866D02*
X201358333Y-41941247D01*
X201358333Y-41941247D02*
X201453571Y-41893628D01*
X201453571Y-41893628D02*
X201644047Y-41846009D01*
X201644047Y-41846009D02*
X201739285Y-41798390D01*
X201739285Y-41798390D02*
X201786904Y-41750771D01*
X201786904Y-41750771D02*
X201834523Y-41655533D01*
X201834523Y-41655533D02*
X201834523Y-41560295D01*
X201834523Y-41560295D02*
X201786904Y-41465057D01*
X201786904Y-41465057D02*
X201739285Y-41417438D01*
X201739285Y-41417438D02*
X201644047Y-41369819D01*
X201644047Y-41369819D02*
X201405952Y-41369819D01*
X201405952Y-41369819D02*
X201263095Y-41417438D01*
X200929761Y-41369819D02*
X200691666Y-42369819D01*
X200691666Y-42369819D02*
X200501190Y-41655533D01*
X200501190Y-41655533D02*
X200310714Y-42369819D01*
X200310714Y-42369819D02*
X200072619Y-41369819D01*
X199786904Y-41369819D02*
X199167857Y-41369819D01*
X199167857Y-41369819D02*
X199501190Y-41750771D01*
X199501190Y-41750771D02*
X199358333Y-41750771D01*
X199358333Y-41750771D02*
X199263095Y-41798390D01*
X199263095Y-41798390D02*
X199215476Y-41846009D01*
X199215476Y-41846009D02*
X199167857Y-41941247D01*
X199167857Y-41941247D02*
X199167857Y-42179342D01*
X199167857Y-42179342D02*
X199215476Y-42274580D01*
X199215476Y-42274580D02*
X199263095Y-42322200D01*
X199263095Y-42322200D02*
X199358333Y-42369819D01*
X199358333Y-42369819D02*
X199644047Y-42369819D01*
X199644047Y-42369819D02*
X199739285Y-42322200D01*
X199739285Y-42322200D02*
X199786904Y-42274580D01*
X198263095Y-41369819D02*
X198739285Y-41369819D01*
X198739285Y-41369819D02*
X198786904Y-41846009D01*
X198786904Y-41846009D02*
X198739285Y-41798390D01*
X198739285Y-41798390D02*
X198644047Y-41750771D01*
X198644047Y-41750771D02*
X198405952Y-41750771D01*
X198405952Y-41750771D02*
X198310714Y-41798390D01*
X198310714Y-41798390D02*
X198263095Y-41846009D01*
X198263095Y-41846009D02*
X198215476Y-41941247D01*
X198215476Y-41941247D02*
X198215476Y-42179342D01*
X198215476Y-42179342D02*
X198263095Y-42274580D01*
X198263095Y-42274580D02*
X198310714Y-42322200D01*
X198310714Y-42322200D02*
X198405952Y-42369819D01*
X198405952Y-42369819D02*
X198644047Y-42369819D01*
X198644047Y-42369819D02*
X198739285Y-42322200D01*
X198739285Y-42322200D02*
X198786904Y-42274580D01*
X239934523Y-38512200D02*
X239791666Y-38559819D01*
X239791666Y-38559819D02*
X239553571Y-38559819D01*
X239553571Y-38559819D02*
X239458333Y-38512200D01*
X239458333Y-38512200D02*
X239410714Y-38464580D01*
X239410714Y-38464580D02*
X239363095Y-38369342D01*
X239363095Y-38369342D02*
X239363095Y-38274104D01*
X239363095Y-38274104D02*
X239410714Y-38178866D01*
X239410714Y-38178866D02*
X239458333Y-38131247D01*
X239458333Y-38131247D02*
X239553571Y-38083628D01*
X239553571Y-38083628D02*
X239744047Y-38036009D01*
X239744047Y-38036009D02*
X239839285Y-37988390D01*
X239839285Y-37988390D02*
X239886904Y-37940771D01*
X239886904Y-37940771D02*
X239934523Y-37845533D01*
X239934523Y-37845533D02*
X239934523Y-37750295D01*
X239934523Y-37750295D02*
X239886904Y-37655057D01*
X239886904Y-37655057D02*
X239839285Y-37607438D01*
X239839285Y-37607438D02*
X239744047Y-37559819D01*
X239744047Y-37559819D02*
X239505952Y-37559819D01*
X239505952Y-37559819D02*
X239363095Y-37607438D01*
X239029761Y-37559819D02*
X238791666Y-38559819D01*
X238791666Y-38559819D02*
X238601190Y-37845533D01*
X238601190Y-37845533D02*
X238410714Y-38559819D01*
X238410714Y-38559819D02*
X238172619Y-37559819D01*
X237839285Y-37655057D02*
X237791666Y-37607438D01*
X237791666Y-37607438D02*
X237696428Y-37559819D01*
X237696428Y-37559819D02*
X237458333Y-37559819D01*
X237458333Y-37559819D02*
X237363095Y-37607438D01*
X237363095Y-37607438D02*
X237315476Y-37655057D01*
X237315476Y-37655057D02*
X237267857Y-37750295D01*
X237267857Y-37750295D02*
X237267857Y-37845533D01*
X237267857Y-37845533D02*
X237315476Y-37988390D01*
X237315476Y-37988390D02*
X237886904Y-38559819D01*
X237886904Y-38559819D02*
X237267857Y-38559819D01*
X236696428Y-37988390D02*
X236791666Y-37940771D01*
X236791666Y-37940771D02*
X236839285Y-37893152D01*
X236839285Y-37893152D02*
X236886904Y-37797914D01*
X236886904Y-37797914D02*
X236886904Y-37750295D01*
X236886904Y-37750295D02*
X236839285Y-37655057D01*
X236839285Y-37655057D02*
X236791666Y-37607438D01*
X236791666Y-37607438D02*
X236696428Y-37559819D01*
X236696428Y-37559819D02*
X236505952Y-37559819D01*
X236505952Y-37559819D02*
X236410714Y-37607438D01*
X236410714Y-37607438D02*
X236363095Y-37655057D01*
X236363095Y-37655057D02*
X236315476Y-37750295D01*
X236315476Y-37750295D02*
X236315476Y-37797914D01*
X236315476Y-37797914D02*
X236363095Y-37893152D01*
X236363095Y-37893152D02*
X236410714Y-37940771D01*
X236410714Y-37940771D02*
X236505952Y-37988390D01*
X236505952Y-37988390D02*
X236696428Y-37988390D01*
X236696428Y-37988390D02*
X236791666Y-38036009D01*
X236791666Y-38036009D02*
X236839285Y-38083628D01*
X236839285Y-38083628D02*
X236886904Y-38178866D01*
X236886904Y-38178866D02*
X236886904Y-38369342D01*
X236886904Y-38369342D02*
X236839285Y-38464580D01*
X236839285Y-38464580D02*
X236791666Y-38512200D01*
X236791666Y-38512200D02*
X236696428Y-38559819D01*
X236696428Y-38559819D02*
X236505952Y-38559819D01*
X236505952Y-38559819D02*
X236410714Y-38512200D01*
X236410714Y-38512200D02*
X236363095Y-38464580D01*
X236363095Y-38464580D02*
X236315476Y-38369342D01*
X236315476Y-38369342D02*
X236315476Y-38178866D01*
X236315476Y-38178866D02*
X236363095Y-38083628D01*
X236363095Y-38083628D02*
X236410714Y-38036009D01*
X236410714Y-38036009D02*
X236505952Y-37988390D01*
X201358332Y-4222200D02*
X201215475Y-4269819D01*
X201215475Y-4269819D02*
X200977380Y-4269819D01*
X200977380Y-4269819D02*
X200882142Y-4222200D01*
X200882142Y-4222200D02*
X200834523Y-4174580D01*
X200834523Y-4174580D02*
X200786904Y-4079342D01*
X200786904Y-4079342D02*
X200786904Y-3984104D01*
X200786904Y-3984104D02*
X200834523Y-3888866D01*
X200834523Y-3888866D02*
X200882142Y-3841247D01*
X200882142Y-3841247D02*
X200977380Y-3793628D01*
X200977380Y-3793628D02*
X201167856Y-3746009D01*
X201167856Y-3746009D02*
X201263094Y-3698390D01*
X201263094Y-3698390D02*
X201310713Y-3650771D01*
X201310713Y-3650771D02*
X201358332Y-3555533D01*
X201358332Y-3555533D02*
X201358332Y-3460295D01*
X201358332Y-3460295D02*
X201310713Y-3365057D01*
X201310713Y-3365057D02*
X201263094Y-3317438D01*
X201263094Y-3317438D02*
X201167856Y-3269819D01*
X201167856Y-3269819D02*
X200929761Y-3269819D01*
X200929761Y-3269819D02*
X200786904Y-3317438D01*
X200453570Y-3269819D02*
X200215475Y-4269819D01*
X200215475Y-4269819D02*
X200024999Y-3555533D01*
X200024999Y-3555533D02*
X199834523Y-4269819D01*
X199834523Y-4269819D02*
X199596428Y-3269819D01*
X199167856Y-4269819D02*
X198977380Y-4269819D01*
X198977380Y-4269819D02*
X198882142Y-4222200D01*
X198882142Y-4222200D02*
X198834523Y-4174580D01*
X198834523Y-4174580D02*
X198739285Y-4031723D01*
X198739285Y-4031723D02*
X198691666Y-3841247D01*
X198691666Y-3841247D02*
X198691666Y-3460295D01*
X198691666Y-3460295D02*
X198739285Y-3365057D01*
X198739285Y-3365057D02*
X198786904Y-3317438D01*
X198786904Y-3317438D02*
X198882142Y-3269819D01*
X198882142Y-3269819D02*
X199072618Y-3269819D01*
X199072618Y-3269819D02*
X199167856Y-3317438D01*
X199167856Y-3317438D02*
X199215475Y-3365057D01*
X199215475Y-3365057D02*
X199263094Y-3460295D01*
X199263094Y-3460295D02*
X199263094Y-3698390D01*
X199263094Y-3698390D02*
X199215475Y-3793628D01*
X199215475Y-3793628D02*
X199167856Y-3841247D01*
X199167856Y-3841247D02*
X199072618Y-3888866D01*
X199072618Y-3888866D02*
X198882142Y-3888866D01*
X198882142Y-3888866D02*
X198786904Y-3841247D01*
X198786904Y-3841247D02*
X198739285Y-3793628D01*
X198739285Y-3793628D02*
X198691666Y-3698390D01*
X299465823Y-24224700D02*
X299322966Y-24272319D01*
X299322966Y-24272319D02*
X299084871Y-24272319D01*
X299084871Y-24272319D02*
X298989633Y-24224700D01*
X298989633Y-24224700D02*
X298942014Y-24177080D01*
X298942014Y-24177080D02*
X298894395Y-24081842D01*
X298894395Y-24081842D02*
X298894395Y-23986604D01*
X298894395Y-23986604D02*
X298942014Y-23891366D01*
X298942014Y-23891366D02*
X298989633Y-23843747D01*
X298989633Y-23843747D02*
X299084871Y-23796128D01*
X299084871Y-23796128D02*
X299275347Y-23748509D01*
X299275347Y-23748509D02*
X299370585Y-23700890D01*
X299370585Y-23700890D02*
X299418204Y-23653271D01*
X299418204Y-23653271D02*
X299465823Y-23558033D01*
X299465823Y-23558033D02*
X299465823Y-23462795D01*
X299465823Y-23462795D02*
X299418204Y-23367557D01*
X299418204Y-23367557D02*
X299370585Y-23319938D01*
X299370585Y-23319938D02*
X299275347Y-23272319D01*
X299275347Y-23272319D02*
X299037252Y-23272319D01*
X299037252Y-23272319D02*
X298894395Y-23319938D01*
X298561061Y-23272319D02*
X298322966Y-24272319D01*
X298322966Y-24272319D02*
X298132490Y-23558033D01*
X298132490Y-23558033D02*
X297942014Y-24272319D01*
X297942014Y-24272319D02*
X297703919Y-23272319D01*
X297370585Y-23367557D02*
X297322966Y-23319938D01*
X297322966Y-23319938D02*
X297227728Y-23272319D01*
X297227728Y-23272319D02*
X296989633Y-23272319D01*
X296989633Y-23272319D02*
X296894395Y-23319938D01*
X296894395Y-23319938D02*
X296846776Y-23367557D01*
X296846776Y-23367557D02*
X296799157Y-23462795D01*
X296799157Y-23462795D02*
X296799157Y-23558033D01*
X296799157Y-23558033D02*
X296846776Y-23700890D01*
X296846776Y-23700890D02*
X297418204Y-24272319D01*
X297418204Y-24272319D02*
X296799157Y-24272319D01*
X295942014Y-23605652D02*
X295942014Y-24272319D01*
X296180109Y-23224700D02*
X296418204Y-23938985D01*
X296418204Y-23938985D02*
X295799157Y-23938985D01*
X201834523Y-23272200D02*
X201691666Y-23319819D01*
X201691666Y-23319819D02*
X201453571Y-23319819D01*
X201453571Y-23319819D02*
X201358333Y-23272200D01*
X201358333Y-23272200D02*
X201310714Y-23224580D01*
X201310714Y-23224580D02*
X201263095Y-23129342D01*
X201263095Y-23129342D02*
X201263095Y-23034104D01*
X201263095Y-23034104D02*
X201310714Y-22938866D01*
X201310714Y-22938866D02*
X201358333Y-22891247D01*
X201358333Y-22891247D02*
X201453571Y-22843628D01*
X201453571Y-22843628D02*
X201644047Y-22796009D01*
X201644047Y-22796009D02*
X201739285Y-22748390D01*
X201739285Y-22748390D02*
X201786904Y-22700771D01*
X201786904Y-22700771D02*
X201834523Y-22605533D01*
X201834523Y-22605533D02*
X201834523Y-22510295D01*
X201834523Y-22510295D02*
X201786904Y-22415057D01*
X201786904Y-22415057D02*
X201739285Y-22367438D01*
X201739285Y-22367438D02*
X201644047Y-22319819D01*
X201644047Y-22319819D02*
X201405952Y-22319819D01*
X201405952Y-22319819D02*
X201263095Y-22367438D01*
X200929761Y-22319819D02*
X200691666Y-23319819D01*
X200691666Y-23319819D02*
X200501190Y-22605533D01*
X200501190Y-22605533D02*
X200310714Y-23319819D01*
X200310714Y-23319819D02*
X200072619Y-22319819D01*
X199739285Y-22415057D02*
X199691666Y-22367438D01*
X199691666Y-22367438D02*
X199596428Y-22319819D01*
X199596428Y-22319819D02*
X199358333Y-22319819D01*
X199358333Y-22319819D02*
X199263095Y-22367438D01*
X199263095Y-22367438D02*
X199215476Y-22415057D01*
X199215476Y-22415057D02*
X199167857Y-22510295D01*
X199167857Y-22510295D02*
X199167857Y-22605533D01*
X199167857Y-22605533D02*
X199215476Y-22748390D01*
X199215476Y-22748390D02*
X199786904Y-23319819D01*
X199786904Y-23319819D02*
X199167857Y-23319819D01*
X198215476Y-23319819D02*
X198786904Y-23319819D01*
X198501190Y-23319819D02*
X198501190Y-22319819D01*
X198501190Y-22319819D02*
X198596428Y-22462676D01*
X198596428Y-22462676D02*
X198691666Y-22557914D01*
X198691666Y-22557914D02*
X198786904Y-22605533D01*
X278034523Y-61372200D02*
X277891666Y-61419819D01*
X277891666Y-61419819D02*
X277653571Y-61419819D01*
X277653571Y-61419819D02*
X277558333Y-61372200D01*
X277558333Y-61372200D02*
X277510714Y-61324580D01*
X277510714Y-61324580D02*
X277463095Y-61229342D01*
X277463095Y-61229342D02*
X277463095Y-61134104D01*
X277463095Y-61134104D02*
X277510714Y-61038866D01*
X277510714Y-61038866D02*
X277558333Y-60991247D01*
X277558333Y-60991247D02*
X277653571Y-60943628D01*
X277653571Y-60943628D02*
X277844047Y-60896009D01*
X277844047Y-60896009D02*
X277939285Y-60848390D01*
X277939285Y-60848390D02*
X277986904Y-60800771D01*
X277986904Y-60800771D02*
X278034523Y-60705533D01*
X278034523Y-60705533D02*
X278034523Y-60610295D01*
X278034523Y-60610295D02*
X277986904Y-60515057D01*
X277986904Y-60515057D02*
X277939285Y-60467438D01*
X277939285Y-60467438D02*
X277844047Y-60419819D01*
X277844047Y-60419819D02*
X277605952Y-60419819D01*
X277605952Y-60419819D02*
X277463095Y-60467438D01*
X277129761Y-60419819D02*
X276891666Y-61419819D01*
X276891666Y-61419819D02*
X276701190Y-60705533D01*
X276701190Y-60705533D02*
X276510714Y-61419819D01*
X276510714Y-61419819D02*
X276272619Y-60419819D01*
X275415476Y-60419819D02*
X275891666Y-60419819D01*
X275891666Y-60419819D02*
X275939285Y-60896009D01*
X275939285Y-60896009D02*
X275891666Y-60848390D01*
X275891666Y-60848390D02*
X275796428Y-60800771D01*
X275796428Y-60800771D02*
X275558333Y-60800771D01*
X275558333Y-60800771D02*
X275463095Y-60848390D01*
X275463095Y-60848390D02*
X275415476Y-60896009D01*
X275415476Y-60896009D02*
X275367857Y-60991247D01*
X275367857Y-60991247D02*
X275367857Y-61229342D01*
X275367857Y-61229342D02*
X275415476Y-61324580D01*
X275415476Y-61324580D02*
X275463095Y-61372200D01*
X275463095Y-61372200D02*
X275558333Y-61419819D01*
X275558333Y-61419819D02*
X275796428Y-61419819D01*
X275796428Y-61419819D02*
X275891666Y-61372200D01*
X275891666Y-61372200D02*
X275939285Y-61324580D01*
X274748809Y-60419819D02*
X274653571Y-60419819D01*
X274653571Y-60419819D02*
X274558333Y-60467438D01*
X274558333Y-60467438D02*
X274510714Y-60515057D01*
X274510714Y-60515057D02*
X274463095Y-60610295D01*
X274463095Y-60610295D02*
X274415476Y-60800771D01*
X274415476Y-60800771D02*
X274415476Y-61038866D01*
X274415476Y-61038866D02*
X274463095Y-61229342D01*
X274463095Y-61229342D02*
X274510714Y-61324580D01*
X274510714Y-61324580D02*
X274558333Y-61372200D01*
X274558333Y-61372200D02*
X274653571Y-61419819D01*
X274653571Y-61419819D02*
X274748809Y-61419819D01*
X274748809Y-61419819D02*
X274844047Y-61372200D01*
X274844047Y-61372200D02*
X274891666Y-61324580D01*
X274891666Y-61324580D02*
X274939285Y-61229342D01*
X274939285Y-61229342D02*
X274986904Y-61038866D01*
X274986904Y-61038866D02*
X274986904Y-60800771D01*
X274986904Y-60800771D02*
X274939285Y-60610295D01*
X274939285Y-60610295D02*
X274891666Y-60515057D01*
X274891666Y-60515057D02*
X274844047Y-60467438D01*
X274844047Y-60467438D02*
X274748809Y-60419819D01*
X226813094Y-12584819D02*
X226813094Y-11584819D01*
X226813094Y-11584819D02*
X226574999Y-11584819D01*
X226574999Y-11584819D02*
X226432142Y-11632438D01*
X226432142Y-11632438D02*
X226336904Y-11727676D01*
X226336904Y-11727676D02*
X226289285Y-11822914D01*
X226289285Y-11822914D02*
X226241666Y-12013390D01*
X226241666Y-12013390D02*
X226241666Y-12156247D01*
X226241666Y-12156247D02*
X226289285Y-12346723D01*
X226289285Y-12346723D02*
X226336904Y-12441961D01*
X226336904Y-12441961D02*
X226432142Y-12537200D01*
X226432142Y-12537200D02*
X226574999Y-12584819D01*
X226574999Y-12584819D02*
X226813094Y-12584819D01*
X225336904Y-11584819D02*
X225813094Y-11584819D01*
X225813094Y-11584819D02*
X225860713Y-12061009D01*
X225860713Y-12061009D02*
X225813094Y-12013390D01*
X225813094Y-12013390D02*
X225717856Y-11965771D01*
X225717856Y-11965771D02*
X225479761Y-11965771D01*
X225479761Y-11965771D02*
X225384523Y-12013390D01*
X225384523Y-12013390D02*
X225336904Y-12061009D01*
X225336904Y-12061009D02*
X225289285Y-12156247D01*
X225289285Y-12156247D02*
X225289285Y-12394342D01*
X225289285Y-12394342D02*
X225336904Y-12489580D01*
X225336904Y-12489580D02*
X225384523Y-12537200D01*
X225384523Y-12537200D02*
X225479761Y-12584819D01*
X225479761Y-12584819D02*
X225717856Y-12584819D01*
X225717856Y-12584819D02*
X225813094Y-12537200D01*
X225813094Y-12537200D02*
X225860713Y-12489580D01*
X245863094Y-10679819D02*
X245863094Y-9679819D01*
X245863094Y-9679819D02*
X245624999Y-9679819D01*
X245624999Y-9679819D02*
X245482142Y-9727438D01*
X245482142Y-9727438D02*
X245386904Y-9822676D01*
X245386904Y-9822676D02*
X245339285Y-9917914D01*
X245339285Y-9917914D02*
X245291666Y-10108390D01*
X245291666Y-10108390D02*
X245291666Y-10251247D01*
X245291666Y-10251247D02*
X245339285Y-10441723D01*
X245339285Y-10441723D02*
X245386904Y-10536961D01*
X245386904Y-10536961D02*
X245482142Y-10632200D01*
X245482142Y-10632200D02*
X245624999Y-10679819D01*
X245624999Y-10679819D02*
X245863094Y-10679819D01*
X244910713Y-9775057D02*
X244863094Y-9727438D01*
X244863094Y-9727438D02*
X244767856Y-9679819D01*
X244767856Y-9679819D02*
X244529761Y-9679819D01*
X244529761Y-9679819D02*
X244434523Y-9727438D01*
X244434523Y-9727438D02*
X244386904Y-9775057D01*
X244386904Y-9775057D02*
X244339285Y-9870295D01*
X244339285Y-9870295D02*
X244339285Y-9965533D01*
X244339285Y-9965533D02*
X244386904Y-10108390D01*
X244386904Y-10108390D02*
X244958332Y-10679819D01*
X244958332Y-10679819D02*
X244339285Y-10679819D01*
X264913094Y-12584819D02*
X264913094Y-11584819D01*
X264913094Y-11584819D02*
X264674999Y-11584819D01*
X264674999Y-11584819D02*
X264532142Y-11632438D01*
X264532142Y-11632438D02*
X264436904Y-11727676D01*
X264436904Y-11727676D02*
X264389285Y-11822914D01*
X264389285Y-11822914D02*
X264341666Y-12013390D01*
X264341666Y-12013390D02*
X264341666Y-12156247D01*
X264341666Y-12156247D02*
X264389285Y-12346723D01*
X264389285Y-12346723D02*
X264436904Y-12441961D01*
X264436904Y-12441961D02*
X264532142Y-12537200D01*
X264532142Y-12537200D02*
X264674999Y-12584819D01*
X264674999Y-12584819D02*
X264913094Y-12584819D01*
X263484523Y-11584819D02*
X263674999Y-11584819D01*
X263674999Y-11584819D02*
X263770237Y-11632438D01*
X263770237Y-11632438D02*
X263817856Y-11680057D01*
X263817856Y-11680057D02*
X263913094Y-11822914D01*
X263913094Y-11822914D02*
X263960713Y-12013390D01*
X263960713Y-12013390D02*
X263960713Y-12394342D01*
X263960713Y-12394342D02*
X263913094Y-12489580D01*
X263913094Y-12489580D02*
X263865475Y-12537200D01*
X263865475Y-12537200D02*
X263770237Y-12584819D01*
X263770237Y-12584819D02*
X263579761Y-12584819D01*
X263579761Y-12584819D02*
X263484523Y-12537200D01*
X263484523Y-12537200D02*
X263436904Y-12489580D01*
X263436904Y-12489580D02*
X263389285Y-12394342D01*
X263389285Y-12394342D02*
X263389285Y-12156247D01*
X263389285Y-12156247D02*
X263436904Y-12061009D01*
X263436904Y-12061009D02*
X263484523Y-12013390D01*
X263484523Y-12013390D02*
X263579761Y-11965771D01*
X263579761Y-11965771D02*
X263770237Y-11965771D01*
X263770237Y-11965771D02*
X263865475Y-12013390D01*
X263865475Y-12013390D02*
X263913094Y-12061009D01*
X263913094Y-12061009D02*
X263960713Y-12156247D01*
X207763094Y-14489819D02*
X207763094Y-13489819D01*
X207763094Y-13489819D02*
X207524999Y-13489819D01*
X207524999Y-13489819D02*
X207382142Y-13537438D01*
X207382142Y-13537438D02*
X207286904Y-13632676D01*
X207286904Y-13632676D02*
X207239285Y-13727914D01*
X207239285Y-13727914D02*
X207191666Y-13918390D01*
X207191666Y-13918390D02*
X207191666Y-14061247D01*
X207191666Y-14061247D02*
X207239285Y-14251723D01*
X207239285Y-14251723D02*
X207286904Y-14346961D01*
X207286904Y-14346961D02*
X207382142Y-14442200D01*
X207382142Y-14442200D02*
X207524999Y-14489819D01*
X207524999Y-14489819D02*
X207763094Y-14489819D01*
X206715475Y-14489819D02*
X206524999Y-14489819D01*
X206524999Y-14489819D02*
X206429761Y-14442200D01*
X206429761Y-14442200D02*
X206382142Y-14394580D01*
X206382142Y-14394580D02*
X206286904Y-14251723D01*
X206286904Y-14251723D02*
X206239285Y-14061247D01*
X206239285Y-14061247D02*
X206239285Y-13680295D01*
X206239285Y-13680295D02*
X206286904Y-13585057D01*
X206286904Y-13585057D02*
X206334523Y-13537438D01*
X206334523Y-13537438D02*
X206429761Y-13489819D01*
X206429761Y-13489819D02*
X206620237Y-13489819D01*
X206620237Y-13489819D02*
X206715475Y-13537438D01*
X206715475Y-13537438D02*
X206763094Y-13585057D01*
X206763094Y-13585057D02*
X206810713Y-13680295D01*
X206810713Y-13680295D02*
X206810713Y-13918390D01*
X206810713Y-13918390D02*
X206763094Y-14013628D01*
X206763094Y-14013628D02*
X206715475Y-14061247D01*
X206715475Y-14061247D02*
X206620237Y-14108866D01*
X206620237Y-14108866D02*
X206429761Y-14108866D01*
X206429761Y-14108866D02*
X206334523Y-14061247D01*
X206334523Y-14061247D02*
X206286904Y-14013628D01*
X206286904Y-14013628D02*
X206239285Y-13918390D01*
D11*
X222058333Y-82838619D02*
X222058333Y-83552904D01*
X222058333Y-83552904D02*
X222105952Y-83695761D01*
X222105952Y-83695761D02*
X222201190Y-83791000D01*
X222201190Y-83791000D02*
X222344047Y-83838619D01*
X222344047Y-83838619D02*
X222439285Y-83838619D01*
X221677380Y-82838619D02*
X221058333Y-82838619D01*
X221058333Y-82838619D02*
X221391666Y-83219571D01*
X221391666Y-83219571D02*
X221248809Y-83219571D01*
X221248809Y-83219571D02*
X221153571Y-83267190D01*
X221153571Y-83267190D02*
X221105952Y-83314809D01*
X221105952Y-83314809D02*
X221058333Y-83410047D01*
X221058333Y-83410047D02*
X221058333Y-83648142D01*
X221058333Y-83648142D02*
X221105952Y-83743380D01*
X221105952Y-83743380D02*
X221153571Y-83791000D01*
X221153571Y-83791000D02*
X221248809Y-83838619D01*
X221248809Y-83838619D02*
X221534523Y-83838619D01*
X221534523Y-83838619D02*
X221629761Y-83791000D01*
X221629761Y-83791000D02*
X221677380Y-83743380D01*
D10*
X182133333Y-23179819D02*
X182133333Y-23894104D01*
X182133333Y-23894104D02*
X182180952Y-24036961D01*
X182180952Y-24036961D02*
X182276190Y-24132200D01*
X182276190Y-24132200D02*
X182419047Y-24179819D01*
X182419047Y-24179819D02*
X182514285Y-24179819D01*
X181704761Y-23275057D02*
X181657142Y-23227438D01*
X181657142Y-23227438D02*
X181561904Y-23179819D01*
X181561904Y-23179819D02*
X181323809Y-23179819D01*
X181323809Y-23179819D02*
X181228571Y-23227438D01*
X181228571Y-23227438D02*
X181180952Y-23275057D01*
X181180952Y-23275057D02*
X181133333Y-23370295D01*
X181133333Y-23370295D02*
X181133333Y-23465533D01*
X181133333Y-23465533D02*
X181180952Y-23608390D01*
X181180952Y-23608390D02*
X181752380Y-24179819D01*
X181752380Y-24179819D02*
X181133333Y-24179819D01*
%TO.C,D17*%
D12*
X228325000Y-32480000D02*
X224425000Y-32480000D01*
%TO.C,LED18*%
D13*
X264375000Y-34230000D02*
X261375000Y-34230000D01*
%TO.C,D57*%
D12*
X191097269Y-113682814D02*
X190087874Y-109915703D01*
%TO.C,LED50*%
D13*
X283425000Y-74235000D02*
X280425000Y-74235000D01*
%TO.C,LED24*%
X304856300Y-37087500D02*
X301856300Y-37087500D01*
%TO.C,LED5*%
X226275000Y-15180000D02*
X223275000Y-15180000D01*
%TO.C,D22*%
D12*
X285475000Y-34385000D02*
X281575000Y-34385000D01*
%TO.C,D5*%
X228325000Y-13430000D02*
X224425000Y-13430000D01*
%TO.C,LED42*%
D13*
X245325000Y-70425000D02*
X242325000Y-70425000D01*
%TO.C,D49*%
D12*
X209275000Y-72485000D02*
X205375000Y-72485000D01*
%TO.C,D50*%
X285475000Y-72485000D02*
X281575000Y-72485000D01*
%TO.C,D12*%
X304525000Y-16287500D02*
X300625000Y-16287500D01*
%TO.C,D32*%
X266425000Y-51530000D02*
X262525000Y-51530000D01*
%TO.C,LED57*%
D13*
X188876286Y-112155537D02*
X188099829Y-109257760D01*
%TO.C,D46*%
D12*
X266425000Y-70580000D02*
X262525000Y-70580000D01*
%TO.C,LED38*%
D13*
X304856300Y-56137500D02*
X301856300Y-56137500D01*
%TO.C,LED28*%
X245325000Y-51375000D02*
X242325000Y-51375000D01*
%TO.C,LED14*%
X245325000Y-32325000D02*
X242325000Y-32325000D01*
%TO.C,LED2*%
X245325000Y-13275000D02*
X242325000Y-13275000D01*
%TO.C,D27*%
D12*
X190225000Y-49625000D02*
X186325000Y-49625000D01*
%TO.C,LED39*%
D13*
X188175000Y-69472500D02*
X185175000Y-69472500D01*
%TO.C,LED45*%
X226275000Y-72330000D02*
X223275000Y-72330000D01*
%TO.C,D36*%
D12*
X285475000Y-53435000D02*
X281575000Y-53435000D01*
%TO.C,D10*%
X285475000Y-15335000D02*
X281575000Y-15335000D01*
%TO.C,LED6*%
D13*
X264375000Y-15180000D02*
X261375000Y-15180000D01*
%TO.C,D2*%
D12*
X247375000Y-11525000D02*
X243475000Y-11525000D01*
%TO.C,D28*%
X247375000Y-49625000D02*
X243475000Y-49625000D01*
%TO.C,D56*%
X210114469Y-111052414D02*
X209105074Y-107285303D01*
%TO.C,LED32*%
D13*
X264375000Y-53280000D02*
X261375000Y-53280000D01*
%TO.C,LED56*%
X207893486Y-109525137D02*
X207117029Y-106627360D01*
%TO.C,LED35*%
X207225000Y-55185000D02*
X204225000Y-55185000D01*
%TO.C,LED31*%
X226275000Y-53280000D02*
X223275000Y-53280000D01*
%TO.C,LED21*%
X207225000Y-36135000D02*
X204225000Y-36135000D01*
%TO.C,LED12*%
X302475000Y-18037500D02*
X299475000Y-18037500D01*
%TO.C,LED49*%
X207225000Y-74235000D02*
X204225000Y-74235000D01*
%TO.C,D52*%
D12*
X306906300Y-73437500D02*
X303006300Y-73437500D01*
%TO.C,D6*%
X266425000Y-13430000D02*
X262525000Y-13430000D01*
%TO.C,D18*%
X266425000Y-32480000D02*
X262525000Y-32480000D01*
%TO.C,D21*%
X209275000Y-34385000D02*
X205375000Y-34385000D01*
%TO.C,D45*%
X228325000Y-70580000D02*
X224425000Y-70580000D01*
%TO.C,D9*%
X209275000Y-15335000D02*
X205375000Y-15335000D01*
%TO.C,LED36*%
D13*
X283425000Y-55185000D02*
X280425000Y-55185000D01*
%TO.C,LED10*%
X283425000Y-17085000D02*
X280425000Y-17085000D01*
%TO.C,LED27*%
X188175000Y-51375000D02*
X185175000Y-51375000D01*
%TO.C,LED52*%
X304856300Y-75187500D02*
X301856300Y-75187500D01*
%TO.C,LED17*%
X226275000Y-34230000D02*
X223275000Y-34230000D01*
%TO.C,D42*%
D12*
X247375000Y-68675000D02*
X243475000Y-68675000D01*
%TO.C,LED22*%
D13*
X283425000Y-36135000D02*
X280425000Y-36135000D01*
%TO.C,D38*%
D12*
X306906300Y-54387500D02*
X303006300Y-54387500D01*
%TO.C,D35*%
X209275000Y-53435000D02*
X205375000Y-53435000D01*
%TO.C,D31*%
X228325000Y-51530000D02*
X224425000Y-51530000D01*
%TO.C,J3*%
X217805000Y-84782500D02*
X223105000Y-84782500D01*
X223105000Y-95162500D01*
X217805000Y-95162500D01*
X217805000Y-84782500D01*
%TO.C,LED46*%
D13*
X264375000Y-72330000D02*
X261375000Y-72330000D01*
%TO.C,D14*%
D12*
X247375000Y-30575000D02*
X243475000Y-30575000D01*
%TO.C,J2*%
X177740000Y-25040000D02*
X178660000Y-25040000D01*
X177740000Y-26640000D02*
X178660000Y-26640000D01*
X177740000Y-32860000D02*
X177740000Y-25040000D01*
X178660000Y-25040000D02*
X178660000Y-26640000D01*
X178660000Y-26640000D02*
X178940000Y-26640000D01*
X180300000Y-28500000D02*
X180300000Y-32860000D01*
X181300000Y-28500000D02*
X180300000Y-28500000D01*
X181300000Y-32860000D02*
X181300000Y-28500000D01*
X182100000Y-30600000D02*
X182100000Y-32860000D01*
X182600000Y-30600000D02*
X182600000Y-32860000D01*
X182660000Y-26640000D02*
X182660000Y-25425000D01*
X182660000Y-26640000D02*
X182940000Y-26640000D01*
X182940000Y-25040000D02*
X183860000Y-25040000D01*
X182940000Y-26640000D02*
X182940000Y-25040000D01*
X183860000Y-25040000D02*
X183860000Y-32860000D01*
X183860000Y-26640000D02*
X182940000Y-26640000D01*
X183860000Y-32860000D02*
X177740000Y-32860000D01*
X178500000Y-29000000D02*
X179500000Y-29000000D01*
X179500000Y-30600000D01*
X178500000Y-30600000D01*
X178500000Y-29000000D01*
X182100000Y-29000000D02*
X183100000Y-29000000D01*
X183100000Y-30600000D01*
X182100000Y-30600000D01*
X182100000Y-29000000D01*
%TO.C,D39*%
X190225000Y-67722500D02*
X186325000Y-67722500D01*
%TO.C,LED9*%
D13*
X207225000Y-17085000D02*
X204225000Y-17085000D01*
%TO.C,D24*%
D12*
X306906300Y-35337500D02*
X303006300Y-35337500D01*
%TD*%
M02*
