M48
; DRILL file KiCad 10.0.5 date 2026-09-22T23:22:28
; FORMAT={-:-/ absolute / metric / decimal}
; #@! TF.CreationDate,2026-09-22T23:22:28+09:00
; #@! TF.GenerationSoftware,Kicad,Pcbnew,10.0.5
; #@! TF.FileFunction,MixedPlating,1,2
FMAT,2
METRIC
; #@! TA.AperFunction,Plated,PTH,ViaDrill
T1C0.300
; #@! TA.AperFunction,Plated,PTH,ComponentDrill
T2C0.750
; #@! TA.AperFunction,Plated,PTH,ComponentDrill
T3C1.000
; #@! TA.AperFunction,NonPlated,NPTH,ComponentDrill
T4C0.850
; #@! TA.AperFunction,NonPlated,NPTH,ComponentDrill
T5C1.800
; #@! TA.AperFunction,NonPlated,NPTH,ComponentDrill
T6C2.000
; #@! TA.AperFunction,NonPlated,NPTH,ComponentDrill
T7C2.200
; #@! TA.AperFunction,NonPlated,NPTH,ComponentDrill
T8C3.000
; #@! TA.AperFunction,NonPlated,NPTH,ComponentDrill
T9C3.050
; #@! TA.AperFunction,NonPlated,NPTH,ComponentDrill
T10C4.000
%
G90
G05
T1
X170.497Y-20.067
X172.864Y-35.184
X173.244Y-4.684
X174.473Y-6.527
X174.473Y-35.195
X174.543Y-68.51
X175.075Y-18.737
X175.593Y-9.82
X175.879Y-75.587
X176.299Y-72.659
X176.433Y-22.325
X177.035Y-17.861
X177.795Y-33.3
X178.162Y-37.451
X179.8Y-6.529
X183.56Y-50.911
X184.058Y-108.294
X185.038Y-34.494
X185.528Y-67.794
X186.066Y-62.612
X186.538Y-53.419
X186.582Y-32.382
X187.23Y-37.794
X187.325Y-30.572
X187.726Y-72.594
X187.726Y-74.498
X187.769Y-63.499
X187.911Y-54.738
X188.058Y-38.679
X189.245Y-20.213
X189.799Y-12.877
X189.803Y-15.954
X189.881Y-27.537
X190.254Y-32.919
X190.352Y-73.638
X190.374Y-58.103
X190.414Y-9.754
X190.441Y-67.048
X190.965Y-43.3
X191.011Y-111.284
X191.016Y-26.307
X192.105Y-21.135
X192.552Y-74.814
X193.025Y-6.764
X193.025Y-8.607
X193.025Y-69.883
X193.728Y-26.782
X194.121Y-35.044
X194.964Y-25.0
X196.403Y-22.678
X197.057Y-81.15
X197.425Y-78.178
X197.865Y-80.832
X197.96Y-21.347
X201.212Y-107.525
X201.603Y-102.326
X201.643Y-41.809
X202.615Y-29.788
X202.625Y-78.915
X203.854Y-39.993
X204.529Y-41.237
X204.562Y-80.042
X205.129Y-19.938
X205.963Y-53.334
X206.014Y-40.44
X206.025Y-39.62
X206.28Y-98.777
X206.879Y-41.416
X207.017Y-62.415
X207.401Y-72.172
X207.722Y-111.224
X207.793Y-43.485
X208.675Y-15.242
X209.059Y-56.174
X209.059Y-57.692
X209.461Y-59.161
X209.526Y-58.359
X209.687Y-56.89
X210.396Y-59.629
X210.636Y-73.499
X210.647Y-56.174
X210.647Y-57.495
X210.951Y-71.438
X211.062Y-78.178
X211.857Y-78.915
X212.685Y-18.442
X213.425Y-75.247
X213.503Y-79.456
X213.544Y-56.289
X214.266Y-73.647
X214.691Y-42.293
X215.568Y-76.527
X216.131Y-71.137
X216.475Y-18.727
X216.475Y-39.019
X216.475Y-58.0
X216.475Y-76.947
X216.742Y-85.159
X218.669Y-5.699
X221.253Y-70.552
X223.612Y-37.549
X223.945Y-17.167
X224.356Y-56.612
X224.595Y-72.661
X226.872Y-8.696
X227.725Y-31.57
X227.725Y-74.379
X228.653Y-51.705
X229.104Y-69.502
X229.554Y-71.097
X231.125Y-36.261
X231.125Y-60.827
X231.507Y-16.565
X233.588Y-56.612
X235.525Y-17.167
X235.525Y-37.549
X240.037Y-68.839
X240.355Y-74.075
X240.725Y-20.722
X240.725Y-57.396
X243.06Y-34.331
X245.848Y-31.57
X246.078Y-37.368
X247.632Y-71.369
X248.047Y-68.839
X248.179Y-75.499
X248.676Y-12.45
X249.277Y-78.44
X249.837Y-69.502
X250.175Y-40.319
X251.624Y-17.566
X252.406Y-74.693
X254.575Y-19.939
X254.575Y-39.013
X254.575Y-58.604
X259.775Y-18.322
X259.775Y-38.404
X259.775Y-58.0
X259.775Y-76.935
X259.884Y-42.026
X261.803Y-40.107
X263.748Y-54.439
X263.974Y-53.107
X264.87Y-72.473
X265.267Y-46.57
X265.726Y-51.431
X266.158Y-53.623
X266.725Y-18.442
X267.277Y-17.219
X267.917Y-65.905
X273.625Y-20.742
X273.625Y-41.701
X273.625Y-58.951
X273.625Y-79.33
X278.825Y-21.347
X278.825Y-40.107
X278.825Y-59.254
X278.825Y-78.536
X286.161Y-36.356
X286.181Y-74.381
X287.956Y-16.395
X289.909Y-36.966
X290.656Y-53.749
X290.656Y-60.82
X292.623Y-77.934
X292.675Y-23.219
X293.12Y-42.528
X293.12Y-60.001
X297.875Y-22.327
X300.256Y-41.701
X300.256Y-59.825
X300.256Y-79.33
X300.338Y-61.426
X305.359Y-36.359
X305.367Y-74.464
T2
X179.8Y-26.5
X181.8Y-26.5
T3
X219.185Y-86.162
X219.185Y-88.703
X219.185Y-91.242
X219.185Y-93.782
X221.725Y-86.162
X221.725Y-88.703
X221.725Y-91.242
X221.725Y-93.782
T4
X173.0Y-29.0
X173.0Y-32.0
T5
X189.32Y-99.323
X191.95Y-109.137
X208.337Y-96.693
X210.967Y-106.507
T6
X175.895Y-47.625
X175.895Y-65.722
X186.055Y-47.625
X186.055Y-65.722
X194.945Y-13.335
X194.945Y-32.385
X194.945Y-51.435
X194.945Y-70.485
X205.105Y-13.335
X205.105Y-32.385
X205.105Y-51.435
X205.105Y-70.485
X213.995Y-11.43
X213.995Y-30.48
X213.995Y-49.53
X213.995Y-68.58
X224.155Y-11.43
X224.155Y-30.48
X224.155Y-49.53
X224.155Y-68.58
X233.045Y-9.525
X233.045Y-28.575
X233.045Y-47.625
X233.045Y-66.675
X243.205Y-9.525
X243.205Y-28.575
X243.205Y-47.625
X243.205Y-66.675
X252.095Y-11.43
X252.095Y-30.48
X252.095Y-49.53
X252.095Y-68.58
X262.255Y-11.43
X262.255Y-30.48
X262.255Y-49.53
X262.255Y-68.58
X271.145Y-13.335
X271.145Y-32.385
X271.145Y-51.435
X271.145Y-70.485
X281.305Y-13.335
X281.305Y-32.385
X281.305Y-51.435
X281.305Y-70.485
X290.195Y-14.287
X292.576Y-33.337
X292.576Y-52.387
X292.576Y-71.438
X300.355Y-14.287
X302.736Y-33.337
X302.736Y-52.387
X302.736Y-71.438
T7
X181.907Y-35.508
X231.107Y-72.407
X304.907Y-60.107
T8
X177.165Y-45.085
X177.165Y-63.182
X183.515Y-42.545
X183.515Y-60.642
X187.545Y-92.699
X192.102Y-99.893
X193.725Y-115.762
X196.199Y-105.369
X196.215Y-10.795
X196.215Y-29.845
X196.215Y-48.895
X196.215Y-67.945
X202.565Y-8.255
X202.565Y-27.305
X202.565Y-46.355
X202.565Y-65.405
X206.562Y-90.069
X211.12Y-97.262
X212.742Y-113.131
X215.217Y-102.739
X215.265Y-8.89
X215.265Y-27.94
X215.265Y-46.99
X215.265Y-66.04
X221.615Y-6.35
X221.615Y-25.4
X221.615Y-44.45
X221.615Y-63.5
X234.315Y-6.985
X234.315Y-26.035
X234.315Y-45.085
X234.315Y-64.135
X240.665Y-4.445
X240.665Y-23.495
X240.665Y-42.545
X240.665Y-61.595
X253.365Y-8.89
X253.365Y-27.94
X253.365Y-46.99
X253.365Y-66.04
X259.715Y-6.35
X259.715Y-25.4
X259.715Y-44.45
X259.715Y-63.5
X272.415Y-10.795
X272.415Y-29.845
X272.415Y-48.895
X272.415Y-67.945
X278.765Y-8.255
X278.765Y-27.305
X278.765Y-46.355
X278.765Y-65.405
X291.465Y-11.747
X293.846Y-30.797
X293.846Y-49.847
X293.846Y-68.897
X297.815Y-9.207
X300.196Y-28.258
X300.196Y-47.307
X300.196Y-66.358
T9
X194.317Y-90.924
X200.476Y-113.913
X213.334Y-88.294
X219.494Y-111.283
T10
X179.596Y-94.868
X180.975Y-47.625
X180.975Y-65.722
X185.756Y-117.857
X190.635Y-104.23
X198.613Y-92.238
X200.025Y-13.335
X200.025Y-32.385
X200.025Y-51.435
X200.025Y-70.485
X204.773Y-115.227
X209.652Y-101.6
X219.075Y-11.43
X219.075Y-30.48
X219.075Y-49.53
X219.075Y-68.58
X238.125Y-9.525
X238.125Y-28.575
X238.125Y-47.625
X238.125Y-66.675
X257.175Y-11.43
X257.175Y-30.48
X257.175Y-49.53
X257.175Y-68.58
X276.225Y-13.335
X276.225Y-32.385
X276.225Y-51.435
X276.225Y-70.485
X295.275Y-14.287
X297.656Y-33.337
X297.656Y-52.387
X297.656Y-71.438
M30
