%TF.GenerationSoftware,KiCad,Pcbnew,10.0.5*%
%TF.CreationDate,2026-09-22T23:22:18+09:00*%
%TF.ProjectId,keyboard,6b657962-6f61-4726-942e-6b696361645f,rev?*%
%TF.SameCoordinates,Original*%
%TF.FileFunction,Legend,Top*%
%TF.FilePolarity,Positive*%
%FSLAX46Y46*%
G04 Gerber Fmt 4.6, Leading zero omitted, Abs format (unit mm)*
G04 Created by KiCad (PCBNEW 10.0.5) date 2026-09-22 23:22:18*
%MOMM*%
%LPD*%
G01*
G04 APERTURE LIST*
%ADD10C,0.125000*%
%ADD11C,0.120000*%
%ADD12C,0.100000*%
%ADD13C,0.127000*%
%ADD14C,0.504000*%
G04 APERTURE END LIST*
D10*
X184452380Y-31256119D02*
X183976190Y-31256119D01*
X183976190Y-31256119D02*
X183976190Y-30256119D01*
X184547619Y-31351357D02*
X185309523Y-31351357D01*
X186119047Y-31256119D02*
X185785714Y-30779928D01*
X185547619Y-31256119D02*
X185547619Y-30256119D01*
X185547619Y-30256119D02*
X185928571Y-30256119D01*
X185928571Y-30256119D02*
X186023809Y-30303738D01*
X186023809Y-30303738D02*
X186071428Y-30351357D01*
X186071428Y-30351357D02*
X186119047Y-30446595D01*
X186119047Y-30446595D02*
X186119047Y-30589452D01*
X186119047Y-30589452D02*
X186071428Y-30684690D01*
X186071428Y-30684690D02*
X186023809Y-30732309D01*
X186023809Y-30732309D02*
X185928571Y-30779928D01*
X185928571Y-30779928D02*
X185547619Y-30779928D01*
X187071428Y-30303738D02*
X186976190Y-30256119D01*
X186976190Y-30256119D02*
X186833333Y-30256119D01*
X186833333Y-30256119D02*
X186690476Y-30303738D01*
X186690476Y-30303738D02*
X186595238Y-30398976D01*
X186595238Y-30398976D02*
X186547619Y-30494214D01*
X186547619Y-30494214D02*
X186500000Y-30684690D01*
X186500000Y-30684690D02*
X186500000Y-30827547D01*
X186500000Y-30827547D02*
X186547619Y-31018023D01*
X186547619Y-31018023D02*
X186595238Y-31113261D01*
X186595238Y-31113261D02*
X186690476Y-31208500D01*
X186690476Y-31208500D02*
X186833333Y-31256119D01*
X186833333Y-31256119D02*
X186928571Y-31256119D01*
X186928571Y-31256119D02*
X187071428Y-31208500D01*
X187071428Y-31208500D02*
X187119047Y-31160880D01*
X187119047Y-31160880D02*
X187119047Y-30827547D01*
X187119047Y-30827547D02*
X186928571Y-30827547D01*
X187880952Y-30732309D02*
X188023809Y-30779928D01*
X188023809Y-30779928D02*
X188071428Y-30827547D01*
X188071428Y-30827547D02*
X188119047Y-30922785D01*
X188119047Y-30922785D02*
X188119047Y-31065642D01*
X188119047Y-31065642D02*
X188071428Y-31160880D01*
X188071428Y-31160880D02*
X188023809Y-31208500D01*
X188023809Y-31208500D02*
X187928571Y-31256119D01*
X187928571Y-31256119D02*
X187547619Y-31256119D01*
X187547619Y-31256119D02*
X187547619Y-30256119D01*
X187547619Y-30256119D02*
X187880952Y-30256119D01*
X187880952Y-30256119D02*
X187976190Y-30303738D01*
X187976190Y-30303738D02*
X188023809Y-30351357D01*
X188023809Y-30351357D02*
X188071428Y-30446595D01*
X188071428Y-30446595D02*
X188071428Y-30541833D01*
X188071428Y-30541833D02*
X188023809Y-30637071D01*
X188023809Y-30637071D02*
X187976190Y-30684690D01*
X187976190Y-30684690D02*
X187880952Y-30732309D01*
X187880952Y-30732309D02*
X187547619Y-30732309D01*
X188500000Y-30351357D02*
X188547619Y-30303738D01*
X188547619Y-30303738D02*
X188642857Y-30256119D01*
X188642857Y-30256119D02*
X188880952Y-30256119D01*
X188880952Y-30256119D02*
X188976190Y-30303738D01*
X188976190Y-30303738D02*
X189023809Y-30351357D01*
X189023809Y-30351357D02*
X189071428Y-30446595D01*
X189071428Y-30446595D02*
X189071428Y-30541833D01*
X189071428Y-30541833D02*
X189023809Y-30684690D01*
X189023809Y-30684690D02*
X188452381Y-31256119D01*
X188452381Y-31256119D02*
X189071428Y-31256119D01*
%TO.C,SWP2*%
D11*
X173400000Y-27050000D02*
X172600000Y-27050000D01*
X174500000Y-28900000D02*
X174500000Y-30600000D01*
X174500000Y-31900000D02*
X174500000Y-32100000D01*
%TO.C,U_LS2*%
X186590000Y-24440000D02*
X188410000Y-24440000D01*
X186590000Y-24490000D02*
X186590000Y-24440000D01*
X188410000Y-24440000D02*
X188410000Y-24490000D01*
X188410000Y-25610000D02*
X188410000Y-26390000D01*
X188410000Y-27510000D02*
X188410000Y-27560000D01*
X186050000Y-24490000D02*
X185810000Y-24160000D01*
X186290000Y-24160000D01*
X186050000Y-24490000D01*
G36*
X186050000Y-24490000D02*
G01*
X185810000Y-24160000D01*
X186290000Y-24160000D01*
X186050000Y-24490000D01*
G37*
%TO.C,U2*%
D12*
X173060000Y-22021500D02*
X187030000Y-22021500D01*
D13*
X175550000Y-1066500D02*
X175553728Y-56228D01*
X176053728Y443500D02*
X184049000Y443500D01*
X184549000Y-56500D02*
X184549000Y-1066500D01*
D12*
X187030000Y-1066500D02*
X173060000Y-1066500D01*
D14*
X171197000Y-1482500D02*
G75*
G02*
X170693000Y-1482500I-252000J0D01*
G01*
X170693000Y-1482500D02*
G75*
G02*
X171197000Y-1482500I252000J0D01*
G01*
X172471000Y-2199500D02*
G75*
G02*
X171967000Y-2199500I-252000J0D01*
G01*
X171967000Y-2199500D02*
G75*
G02*
X172471000Y-2199500I252000J0D01*
G01*
%TD*%
M02*
