M48
; DRILL file KiCad 10.0.5 date 2026-09-23T16:28:02
; FORMAT={-:-/ absolute / metric / decimal}
; #@! TF.CreationDate,2026-09-23T16:28:02+09:00
; #@! TF.GenerationSoftware,Kicad,Pcbnew,10.0.5
; #@! TF.FileFunction,Plated,1,2,PTH
FMAT,2
METRIC
; #@! TA.AperFunction,Plated,PTH,ViaDrill
T1C0.300
; #@! TA.AperFunction,Plated,PTH,ComponentDrill
T2C0.450
; #@! TA.AperFunction,Plated,PTH,ComponentDrill
T3C0.600
; #@! TA.AperFunction,Plated,PTH,ComponentDrill
T4C0.750
; #@! TA.AperFunction,Plated,PTH,ComponentDrill
T5C1.000
%
G90
G05
T1
X170.497Y-20.067
X172.525Y-21.025
X173.244Y-4.684
X173.5Y-16.0
X173.917Y-36.583
X174.0Y-20.0
X174.482Y-9.067
X174.543Y-68.51
X175.1Y-30.1
X175.593Y-9.82
X175.6Y-33.9
X175.879Y-75.587
X176.0Y-15.0
X176.0Y-36.1
X176.299Y-72.659
X176.377Y-33.833
X176.433Y-22.325
X177.035Y-17.861
X177.5Y-25.7
X178.156Y-32.965
X179.0Y-31.97
X179.274Y-33.63
X179.382Y-35.238
X179.424Y-25.501
X179.474Y-36.33
X179.5Y-29.45
X180.3Y-33.85
X180.667Y-22.75
X182.131Y-32.081
X183.0Y-30.55
X183.161Y-22.75
X183.25Y-39.45
X183.345Y-29.788
X183.7Y-33.85
X183.914Y-23.599
X184.0Y-4.5
X184.0Y-13.5
X184.0Y-28.684
X184.058Y-108.294
X184.606Y-98.107
X184.95Y-17.55
X185.099Y-32.169
X185.126Y-28.913
X185.398Y-97.715
X185.528Y-67.794
X185.531Y-19.764
X185.65Y-38.6
X185.809Y-31.17
X186.066Y-62.612
X186.22Y-20.225
X186.45Y-36.6
X186.538Y-53.419
X186.65Y-34.7
X187.25Y-35.334
X187.45Y-32.4
X187.577Y-15.144
X187.726Y-72.594
X187.726Y-74.498
X187.769Y-63.499
X187.911Y-54.738
X188.0Y-28.307
X188.0Y-30.05
X188.038Y-106.02
X188.082Y-33.821
X188.75Y-23.902
X189.246Y-20.213
X189.729Y-39.962
X189.8Y-12.1
X189.803Y-12.877
X189.803Y-16.587
X190.352Y-73.638
X190.414Y-9.754
X190.441Y-67.048
X190.56Y-56.538
X190.965Y-43.3
X191.011Y-111.284
X191.016Y-26.307
X191.6Y-16.05
X192.105Y-21.135
X192.552Y-36.939
X192.552Y-74.814
X192.552Y-38.566
X193.025Y-6.764
X193.025Y-8.607
X193.025Y-69.883
X193.1Y-26.4
X193.728Y-26.782
X193.933Y-20.299
X194.121Y-35.044
X194.68Y-56.75
X195.554Y-16.669
X196.966Y-22.73
X197.0Y-34.45
X197.425Y-78.178
X197.866Y-80.832
X197.96Y-21.347
X201.212Y-107.525
X201.603Y-102.326
X201.643Y-41.809
X202.615Y-29.788
X202.625Y-16.638
X202.625Y-78.915
X203.623Y-95.043
X203.623Y-96.486
X203.854Y-39.993
X204.529Y-41.237
X205.129Y-19.938
X205.963Y-53.334
X206.014Y-40.44
X206.025Y-39.62
X206.28Y-98.777
X206.827Y-34.98
X206.879Y-41.416
X206.923Y-98.186
X207.017Y-62.415
X207.401Y-72.172
X207.722Y-111.224
X207.794Y-43.485
X208.675Y-15.242
X209.06Y-56.174
X209.06Y-57.692
X209.461Y-59.161
X209.526Y-58.359
X209.687Y-56.89
X210.396Y-59.629
X210.636Y-73.499
X210.648Y-56.174
X210.648Y-57.495
X210.951Y-71.438
X211.062Y-78.178
X211.631Y-34.98
X211.857Y-78.915
X212.216Y-62.912
X212.686Y-18.442
X213.161Y-95.043
X213.309Y-64.021
X213.309Y-70.821
X213.426Y-75.247
X213.503Y-79.456
X213.544Y-56.289
X214.266Y-73.647
X214.691Y-42.293
X215.568Y-76.527
X216.131Y-71.137
X216.475Y-18.727
X216.475Y-39.019
X216.475Y-58.0
X216.475Y-76.947
X216.992Y-62.912
X218.669Y-5.699
X221.253Y-70.552
X223.612Y-37.549
X223.835Y-35.235
X223.839Y-15.93
X223.945Y-17.167
X224.356Y-56.612
X224.595Y-72.661
X226.715Y-71.702
X226.872Y-8.696
X227.725Y-31.57
X227.725Y-74.379
X228.654Y-51.705
X229.104Y-69.502
X229.215Y-74.002
X229.554Y-71.097
X229.691Y-50.191
X230.625Y-32.172
X230.678Y-15.93
X231.125Y-36.261
X231.125Y-60.827
X231.225Y-30.972
X231.507Y-16.565
X233.588Y-56.612
X234.825Y-32.372
X235.525Y-17.167
X235.525Y-37.549
X237.2Y-23.75
X237.902Y-22.73
X240.355Y-74.075
X240.725Y-50.502
X240.725Y-57.396
X243.06Y-34.331
X245.848Y-31.57
X246.078Y-37.368
X247.632Y-71.369
X248.179Y-75.499
X248.676Y-12.45
X249.277Y-78.44
X249.837Y-69.502
X250.175Y-40.319
X250.675Y-32.637
X251.624Y-17.566
X252.406Y-74.693
X253.972Y-32.102
X254.575Y-19.939
X254.575Y-39.013
X254.575Y-58.604
X259.775Y-13.569
X259.775Y-18.322
X259.775Y-38.404
X259.775Y-58.0
X259.775Y-76.935
X259.884Y-42.026
X261.803Y-40.107
X262.262Y-55.469
X263.748Y-54.439
X263.974Y-53.107
X264.87Y-72.473
X265.267Y-46.57
X265.726Y-51.431
X266.158Y-53.623
X266.725Y-18.442
X267.277Y-17.219
X267.917Y-65.905
X268.793Y-55.935
X269.725Y-16.662
X269.725Y-73.056
X273.625Y-20.742
X273.625Y-41.701
X273.625Y-58.951
X273.625Y-79.33
X278.825Y-21.347
X278.825Y-34.949
X278.825Y-40.107
X278.825Y-59.254
X278.825Y-73.064
X278.825Y-78.536
X280.99Y-18.448
X280.99Y-56.548
X284.073Y-72.55
X286.161Y-36.356
X286.181Y-74.381
X287.956Y-16.395
X289.909Y-36.966
X290.217Y-56.548
X290.656Y-53.749
X290.656Y-60.82
X291.156Y-34.949
X291.156Y-73.064
X292.623Y-77.934
X292.675Y-23.219
X293.12Y-42.528
X293.12Y-60.001
X297.875Y-22.327
X300.256Y-41.701
X300.256Y-59.825
X300.256Y-79.33
X300.338Y-61.426
X305.359Y-36.359
X305.367Y-74.464
T2
X171.39Y-10.338
T3
X178.775Y-5.575
X179.051Y-17.125
X181.051Y-17.125
X181.315Y-5.575
T4
X178.0Y-35.5
X178.0Y-37.5
T5
X219.185Y-86.162
X219.185Y-88.703
X219.185Y-91.242
X219.185Y-93.782
X221.725Y-86.162
X221.725Y-88.703
X221.725Y-91.242
X221.725Y-93.782
M30
