G04 #@! TF.GenerationSoftware,KiCad,Pcbnew,10.0.5*
G04 #@! TF.CreationDate,2026-09-23T16:28:02+09:00*
G04 #@! TF.ProjectId,keyboard,6b657962-6f61-4726-942e-6b696361645f,rev?*
G04 #@! TF.SameCoordinates,Original*
G04 #@! TF.FileFunction,Profile,NP*
%FSLAX46Y46*%
G04 Gerber Fmt 4.6, Leading zero omitted, Abs format (unit mm)*
G04 Created by KiCad (PCBNEW 10.0.5) date 2026-09-23 16:28:02*
%MOMM*%
%LPD*%
G01*
G04 APERTURE LIST*
G04 #@! TA.AperFunction,Profile*
%ADD10C,0.050000*%
G04 #@! TD*
G04 #@! TA.AperFunction,Profile*
%ADD11C,0.120000*%
G04 #@! TD*
G04 APERTURE END LIST*
D10*
X169774000Y1392500D02*
X190316000Y1392500D01*
X169774000Y-23157500D02*
X169774000Y1392500D01*
X169825000Y-38505000D02*
X170450000Y-38505000D01*
X169825000Y-52125000D02*
X169825000Y-38505000D01*
X169825000Y-56602500D02*
X170450000Y-56602500D01*
X169825000Y-70222500D02*
X169825000Y-56602500D01*
X170450000Y-37112250D02*
X171095000Y-36175250D01*
X170450000Y-38505000D02*
X170450000Y-37112250D01*
X170450000Y-52125000D02*
X169825000Y-52125000D01*
X170450000Y-56602500D02*
X170450000Y-52125000D01*
X170450000Y-70222500D02*
X169825000Y-70222500D01*
X170450000Y-76247500D02*
X170450000Y-70222500D01*
X171095000Y-23157500D02*
X169774000Y-23157500D01*
X171095000Y-36175250D02*
X171095000Y-23157500D01*
X174084500Y-91686500D02*
X176224030Y-91113220D01*
X174663030Y-85287490D02*
X190626820Y-81010000D01*
X176224030Y-91113220D02*
X174663030Y-85287490D01*
X182573770Y-123368870D02*
X174084500Y-91686500D01*
X184713290Y-122795590D02*
X182573770Y-123368870D01*
X186274300Y-128621330D02*
X184713290Y-122795590D01*
X189500000Y-76247500D02*
X170450000Y-76247500D01*
X189500000Y-81010000D02*
X189500000Y-76247500D01*
X190316000Y1392500D02*
X190316000Y-2810000D01*
X190316000Y-2810000D02*
X207925000Y-2810000D01*
X190626820Y-81010000D02*
X189500000Y-81010000D01*
X204675180Y-123690830D02*
X186274300Y-128621330D01*
X207925000Y-2310000D02*
X208550000Y-2310000D01*
X207925000Y-2810000D02*
X207925000Y-2310000D01*
X208550000Y-905000D02*
X226975000Y-905000D01*
X208550000Y-2310000D02*
X208550000Y-905000D01*
X219609190Y-96162500D02*
X224546200Y-114587650D01*
X224063230Y-114717060D02*
X225007920Y-118242690D01*
X224105000Y-79000000D02*
X224105000Y-96162500D01*
X224105000Y-79000000D02*
X229600000Y-79000000D01*
X224105000Y-96162500D02*
X219609190Y-96162500D01*
X224546200Y-114587650D02*
X224063230Y-114717060D01*
X225007920Y-118242690D02*
X204675180Y-123690830D01*
X226975000Y-405000D02*
X227600000Y-405000D01*
X226975000Y-905000D02*
X226975000Y-405000D01*
X227600000Y1000000D02*
X248650000Y1000000D01*
X227600000Y-405000D02*
X227600000Y1000000D01*
X229600000Y-77200000D02*
X229600000Y-79000000D01*
X246650000Y-77200000D02*
X229600000Y-77200000D01*
X246650000Y-79105000D02*
X246650000Y-77200000D01*
X248650000Y1000000D02*
X248650000Y-905000D01*
X248650000Y-905000D02*
X267700000Y-905000D01*
X265700000Y-79105000D02*
X246650000Y-79105000D01*
X265700000Y-81010000D02*
X265700000Y-79105000D01*
X267700000Y-905000D02*
X267700000Y-2810000D01*
X267700000Y-2810000D02*
X286750000Y-2810000D01*
X284750000Y-81010000D02*
X265700000Y-81010000D01*
X284750000Y-81962500D02*
X284750000Y-81010000D01*
X286750000Y-2810000D02*
X286750000Y-3762500D01*
X286750000Y-3762500D02*
X305800000Y-3762500D01*
X305800000Y-3762500D02*
X305800000Y-22812500D01*
X305800000Y-22812500D02*
X310562500Y-22812500D01*
X310562500Y-22812500D02*
X310562500Y-81962500D01*
X310562500Y-81962500D02*
X284750000Y-81962500D01*
G04 #@! TO.C,LED18*
D11*
X255425000Y-34130000D02*
X255425000Y-37330000D01*
X255425000Y-37330000D02*
X258925000Y-37330000D01*
X258925000Y-34130000D02*
X255425000Y-34130000D01*
X258925000Y-37330000D02*
X258925000Y-34130000D01*
G04 #@! TO.C,LED50*
X274475000Y-74135000D02*
X274475000Y-77335000D01*
X274475000Y-77335000D02*
X277975000Y-77335000D01*
X277975000Y-74135000D02*
X274475000Y-74135000D01*
X277975000Y-77335000D02*
X277975000Y-74135000D01*
G04 #@! TO.C,LED24*
X295906300Y-36987500D02*
X295906300Y-40187500D01*
X295906300Y-40187500D02*
X299406300Y-40187500D01*
X299406300Y-36987500D02*
X295906300Y-36987500D01*
X299406300Y-40187500D02*
X299406300Y-36987500D01*
G04 #@! TO.C,LED5*
X217325000Y-15080000D02*
X217325000Y-18280000D01*
X217325000Y-18280000D02*
X220825000Y-18280000D01*
X220825000Y-15080000D02*
X217325000Y-15080000D01*
X220825000Y-18280000D02*
X220825000Y-15080000D01*
G04 #@! TO.C,LED42*
X236375000Y-70325000D02*
X236375000Y-73525000D01*
X236375000Y-73525000D02*
X239875000Y-73525000D01*
X239875000Y-70325000D02*
X236375000Y-70325000D01*
X239875000Y-73525000D02*
X239875000Y-70325000D01*
G04 #@! TO.C,LED57*
X183565485Y-104312840D02*
X184471352Y-107693581D01*
X184471352Y-107693581D02*
X187562315Y-106865360D01*
X186656448Y-103484619D02*
X183565485Y-104312840D01*
X187562315Y-106865360D02*
X186656448Y-103484619D01*
G04 #@! TO.C,LED38*
X295906300Y-56037500D02*
X295906300Y-59237500D01*
X295906300Y-59237500D02*
X299406300Y-59237500D01*
X299406300Y-56037500D02*
X295906300Y-56037500D01*
X299406300Y-59237500D02*
X299406300Y-56037500D01*
G04 #@! TO.C,LED28*
X236375000Y-51275000D02*
X236375000Y-54475000D01*
X236375000Y-54475000D02*
X239875000Y-54475000D01*
X239875000Y-51275000D02*
X236375000Y-51275000D01*
X239875000Y-54475000D02*
X239875000Y-51275000D01*
G04 #@! TO.C,LED14*
X236375000Y-32225000D02*
X236375000Y-35425000D01*
X236375000Y-35425000D02*
X239875000Y-35425000D01*
X239875000Y-32225000D02*
X236375000Y-32225000D01*
X239875000Y-35425000D02*
X239875000Y-32225000D01*
G04 #@! TO.C,LED2*
X236375000Y-13175000D02*
X236375000Y-16375000D01*
X236375000Y-16375000D02*
X239875000Y-16375000D01*
X239875000Y-13175000D02*
X236375000Y-13175000D01*
X239875000Y-16375000D02*
X239875000Y-13175000D01*
G04 #@! TO.C,LED39*
X179225000Y-69372500D02*
X179225000Y-72572500D01*
X179225000Y-72572500D02*
X182725000Y-72572500D01*
X182725000Y-69372500D02*
X179225000Y-69372500D01*
X182725000Y-72572500D02*
X182725000Y-69372500D01*
G04 #@! TO.C,LED45*
X217325000Y-72230000D02*
X217325000Y-75430000D01*
X217325000Y-75430000D02*
X220825000Y-75430000D01*
X220825000Y-72230000D02*
X217325000Y-72230000D01*
X220825000Y-75430000D02*
X220825000Y-72230000D01*
G04 #@! TO.C,LED6*
X255425000Y-15080000D02*
X255425000Y-18280000D01*
X255425000Y-18280000D02*
X258925000Y-18280000D01*
X258925000Y-15080000D02*
X255425000Y-15080000D01*
X258925000Y-18280000D02*
X258925000Y-15080000D01*
G04 #@! TO.C,LED32*
X255425000Y-53180000D02*
X255425000Y-56380000D01*
X255425000Y-56380000D02*
X258925000Y-56380000D01*
X258925000Y-53180000D02*
X255425000Y-53180000D01*
X258925000Y-56380000D02*
X258925000Y-53180000D01*
G04 #@! TO.C,LED56*
X202582685Y-101682440D02*
X203488552Y-105063181D01*
X203488552Y-105063181D02*
X206579515Y-104234960D01*
X205673648Y-100854219D02*
X202582685Y-101682440D01*
X206579515Y-104234960D02*
X205673648Y-100854219D01*
G04 #@! TO.C,LED35*
X198275000Y-55085000D02*
X198275000Y-58285000D01*
X198275000Y-58285000D02*
X201775000Y-58285000D01*
X201775000Y-55085000D02*
X198275000Y-55085000D01*
X201775000Y-58285000D02*
X201775000Y-55085000D01*
G04 #@! TO.C,LED31*
X217325000Y-53180000D02*
X217325000Y-56380000D01*
X217325000Y-56380000D02*
X220825000Y-56380000D01*
X220825000Y-53180000D02*
X217325000Y-53180000D01*
X220825000Y-56380000D02*
X220825000Y-53180000D01*
G04 #@! TO.C,LED21*
X198275000Y-36035000D02*
X198275000Y-39235000D01*
X198275000Y-39235000D02*
X201775000Y-39235000D01*
X201775000Y-36035000D02*
X198275000Y-36035000D01*
X201775000Y-39235000D02*
X201775000Y-36035000D01*
G04 #@! TO.C,LED12*
X293525000Y-17937500D02*
X293525000Y-21137500D01*
X293525000Y-21137500D02*
X297025000Y-21137500D01*
X297025000Y-17937500D02*
X293525000Y-17937500D01*
X297025000Y-21137500D02*
X297025000Y-17937500D01*
G04 #@! TO.C,LED49*
X198275000Y-74135000D02*
X198275000Y-77335000D01*
X198275000Y-77335000D02*
X201775000Y-77335000D01*
X201775000Y-74135000D02*
X198275000Y-74135000D01*
X201775000Y-77335000D02*
X201775000Y-74135000D01*
G04 #@! TO.C,LED36*
X274475000Y-55085000D02*
X274475000Y-58285000D01*
X274475000Y-58285000D02*
X277975000Y-58285000D01*
X277975000Y-55085000D02*
X274475000Y-55085000D01*
X277975000Y-58285000D02*
X277975000Y-55085000D01*
G04 #@! TO.C,LED10*
X274475000Y-16985000D02*
X274475000Y-20185000D01*
X274475000Y-20185000D02*
X277975000Y-20185000D01*
X277975000Y-16985000D02*
X274475000Y-16985000D01*
X277975000Y-20185000D02*
X277975000Y-16985000D01*
G04 #@! TO.C,LED27*
X179225000Y-51275000D02*
X179225000Y-54475000D01*
X179225000Y-54475000D02*
X182725000Y-54475000D01*
X182725000Y-51275000D02*
X179225000Y-51275000D01*
X182725000Y-54475000D02*
X182725000Y-51275000D01*
G04 #@! TO.C,LED52*
X295906300Y-75087500D02*
X295906300Y-78287500D01*
X295906300Y-78287500D02*
X299406300Y-78287500D01*
X299406300Y-75087500D02*
X295906300Y-75087500D01*
X299406300Y-78287500D02*
X299406300Y-75087500D01*
G04 #@! TO.C,LED17*
X217325000Y-34130000D02*
X217325000Y-37330000D01*
X217325000Y-37330000D02*
X220825000Y-37330000D01*
X220825000Y-34130000D02*
X217325000Y-34130000D01*
X220825000Y-37330000D02*
X220825000Y-34130000D01*
G04 #@! TO.C,LED22*
X274475000Y-36035000D02*
X274475000Y-39235000D01*
X274475000Y-39235000D02*
X277975000Y-39235000D01*
X277975000Y-36035000D02*
X274475000Y-36035000D01*
X277975000Y-39235000D02*
X277975000Y-36035000D01*
G04 #@! TO.C,LED46*
X255425000Y-72230000D02*
X255425000Y-75430000D01*
X255425000Y-75430000D02*
X258925000Y-75430000D01*
X258925000Y-72230000D02*
X255425000Y-72230000D01*
X258925000Y-75430000D02*
X258925000Y-72230000D01*
G04 #@! TO.C,LED9*
X198275000Y-16985000D02*
X198275000Y-20185000D01*
X198275000Y-20185000D02*
X201775000Y-20185000D01*
X201775000Y-16985000D02*
X198275000Y-16985000D01*
X201775000Y-20185000D02*
X201775000Y-16985000D01*
G04 #@! TD*
M02*
