%TF.GenerationSoftware,KiCad,Pcbnew,10.0.5*%
%TF.CreationDate,2026-09-23T16:28:02+09:00*%
%TF.ProjectId,keyboard,6b657962-6f61-4726-942e-6b696361645f,rev?*%
%TF.SameCoordinates,Original*%
%TF.FileFunction,Drillmap*%
%TF.FilePolarity,Positive*%
%FSLAX45Y45*%
G04 Gerber Fmt 4.5, Leading zero omitted, Abs format (unit mm)*
G04 Created by KiCad (PCBNEW 10.0.5) date 2026-09-23 16:28:02*
%MOMM*%
%LPD*%
G01*
G04 APERTURE LIST*
%ADD10C,0.050000*%
%ADD11C,0.120000*%
%ADD12C,0.200000*%
%ADD13C,0.100000*%
%ADD14C,0.180000*%
%ADD15C,0.220000*%
%ADD16C,0.300000*%
%ADD17C,0.305000*%
%ADD18C,0.400000*%
G04 APERTURE END LIST*
D10*
X16977400Y139250D02*
X19031600Y139250D01*
X16977400Y-2315750D02*
X16977400Y139250D01*
X16982500Y-3850500D02*
X17045000Y-3850500D01*
X16982500Y-5212500D02*
X16982500Y-3850500D01*
X16982500Y-5660250D02*
X17045000Y-5660250D01*
X16982500Y-7022250D02*
X16982500Y-5660250D01*
X17045000Y-3711225D02*
X17109500Y-3617525D01*
X17045000Y-3850500D02*
X17045000Y-3711225D01*
X17045000Y-5212500D02*
X16982500Y-5212500D01*
X17045000Y-5660250D02*
X17045000Y-5212500D01*
X17045000Y-7022250D02*
X16982500Y-7022250D01*
X17045000Y-7624750D02*
X17045000Y-7022250D01*
X17109500Y-2315750D02*
X16977400Y-2315750D01*
X17109500Y-3617525D02*
X17109500Y-2315750D01*
X17408450Y-9168650D02*
X17622403Y-9111322D01*
X17466303Y-8528749D02*
X19062682Y-8101000D01*
X17622403Y-9111322D02*
X17466303Y-8528749D01*
X18257377Y-12336887D02*
X17408450Y-9168650D01*
X18471329Y-12279559D02*
X18257377Y-12336887D01*
X18627430Y-12862133D02*
X18471329Y-12279559D01*
X18950000Y-7624750D02*
X17045000Y-7624750D01*
X18950000Y-8101000D02*
X18950000Y-7624750D01*
X19031600Y139250D02*
X19031600Y-281000D01*
X19031600Y-281000D02*
X20792500Y-281000D01*
X19062682Y-8101000D02*
X18950000Y-8101000D01*
X20467518Y-12369083D02*
X18627430Y-12862133D01*
X20792500Y-231000D02*
X20855000Y-231000D01*
X20792500Y-281000D02*
X20792500Y-231000D01*
X20855000Y-90500D02*
X22697500Y-90500D01*
X20855000Y-231000D02*
X20855000Y-90500D01*
X21960919Y-9616250D02*
X22454620Y-11458765D01*
X22406323Y-11471706D02*
X22500792Y-11824269D01*
X22410500Y-7900000D02*
X22410500Y-9616250D01*
X22410500Y-7900000D02*
X22960000Y-7900000D01*
X22410500Y-9616250D02*
X21960919Y-9616250D01*
X22454620Y-11458765D02*
X22406323Y-11471706D01*
X22500792Y-11824269D02*
X20467518Y-12369083D01*
X22697500Y-40500D02*
X22760000Y-40500D01*
X22697500Y-90500D02*
X22697500Y-40500D01*
X22760000Y100000D02*
X24865000Y100000D01*
X22760000Y-40500D02*
X22760000Y100000D01*
X22960000Y-7720000D02*
X22960000Y-7900000D01*
X24665000Y-7720000D02*
X22960000Y-7720000D01*
X24665000Y-7910500D02*
X24665000Y-7720000D01*
X24865000Y100000D02*
X24865000Y-90500D01*
X24865000Y-90500D02*
X26770000Y-90500D01*
X26570000Y-7910500D02*
X24665000Y-7910500D01*
X26570000Y-8101000D02*
X26570000Y-7910500D01*
X26770000Y-90500D02*
X26770000Y-281000D01*
X26770000Y-281000D02*
X28675000Y-281000D01*
X28475000Y-8101000D02*
X26570000Y-8101000D01*
X28475000Y-8196250D02*
X28475000Y-8101000D01*
X28675000Y-281000D02*
X28675000Y-376250D01*
X28675000Y-376250D02*
X30580000Y-376250D01*
X30580000Y-376250D02*
X30580000Y-2281250D01*
X30580000Y-2281250D02*
X31056250Y-2281250D01*
X31056250Y-2281250D02*
X31056250Y-8196250D01*
X31056250Y-8196250D02*
X28475000Y-8196250D01*
D11*
X25542500Y-3413000D02*
X25542500Y-3733000D01*
X25542500Y-3733000D02*
X25892500Y-3733000D01*
X25892500Y-3413000D02*
X25542500Y-3413000D01*
X25892500Y-3733000D02*
X25892500Y-3413000D01*
X27447500Y-7413500D02*
X27447500Y-7733500D01*
X27447500Y-7733500D02*
X27797500Y-7733500D01*
X27797500Y-7413500D02*
X27447500Y-7413500D01*
X27797500Y-7733500D02*
X27797500Y-7413500D01*
X29590630Y-3698750D02*
X29590630Y-4018750D01*
X29590630Y-4018750D02*
X29940630Y-4018750D01*
X29940630Y-3698750D02*
X29590630Y-3698750D01*
X29940630Y-4018750D02*
X29940630Y-3698750D01*
X21732500Y-1508000D02*
X21732500Y-1828000D01*
X21732500Y-1828000D02*
X22082500Y-1828000D01*
X22082500Y-1508000D02*
X21732500Y-1508000D01*
X22082500Y-1828000D02*
X22082500Y-1508000D01*
X23637500Y-7032500D02*
X23637500Y-7352500D01*
X23637500Y-7352500D02*
X23987500Y-7352500D01*
X23987500Y-7032500D02*
X23637500Y-7032500D01*
X23987500Y-7352500D02*
X23987500Y-7032500D01*
X18356549Y-10431284D02*
X18447135Y-10769358D01*
X18447135Y-10769358D02*
X18756232Y-10686536D01*
X18665645Y-10348462D02*
X18356549Y-10431284D01*
X18756232Y-10686536D02*
X18665645Y-10348462D01*
X29590630Y-5603750D02*
X29590630Y-5923750D01*
X29590630Y-5923750D02*
X29940630Y-5923750D01*
X29940630Y-5603750D02*
X29590630Y-5603750D01*
X29940630Y-5923750D02*
X29940630Y-5603750D01*
X23637500Y-5127500D02*
X23637500Y-5447500D01*
X23637500Y-5447500D02*
X23987500Y-5447500D01*
X23987500Y-5127500D02*
X23637500Y-5127500D01*
X23987500Y-5447500D02*
X23987500Y-5127500D01*
X23637500Y-3222500D02*
X23637500Y-3542500D01*
X23637500Y-3542500D02*
X23987500Y-3542500D01*
X23987500Y-3222500D02*
X23637500Y-3222500D01*
X23987500Y-3542500D02*
X23987500Y-3222500D01*
X23637500Y-1317500D02*
X23637500Y-1637500D01*
X23637500Y-1637500D02*
X23987500Y-1637500D01*
X23987500Y-1317500D02*
X23637500Y-1317500D01*
X23987500Y-1637500D02*
X23987500Y-1317500D01*
X17922500Y-6937250D02*
X17922500Y-7257250D01*
X17922500Y-7257250D02*
X18272500Y-7257250D01*
X18272500Y-6937250D02*
X17922500Y-6937250D01*
X18272500Y-7257250D02*
X18272500Y-6937250D01*
X21732500Y-7223000D02*
X21732500Y-7543000D01*
X21732500Y-7543000D02*
X22082500Y-7543000D01*
X22082500Y-7223000D02*
X21732500Y-7223000D01*
X22082500Y-7543000D02*
X22082500Y-7223000D01*
X25542500Y-1508000D02*
X25542500Y-1828000D01*
X25542500Y-1828000D02*
X25892500Y-1828000D01*
X25892500Y-1508000D02*
X25542500Y-1508000D01*
X25892500Y-1828000D02*
X25892500Y-1508000D01*
X25542500Y-5318000D02*
X25542500Y-5638000D01*
X25542500Y-5638000D02*
X25892500Y-5638000D01*
X25892500Y-5318000D02*
X25542500Y-5318000D01*
X25892500Y-5638000D02*
X25892500Y-5318000D01*
X20258269Y-10168244D02*
X20348855Y-10506318D01*
X20348855Y-10506318D02*
X20657952Y-10423496D01*
X20567365Y-10085422D02*
X20258269Y-10168244D01*
X20657952Y-10423496D02*
X20567365Y-10085422D01*
X19827500Y-5508500D02*
X19827500Y-5828500D01*
X19827500Y-5828500D02*
X20177500Y-5828500D01*
X20177500Y-5508500D02*
X19827500Y-5508500D01*
X20177500Y-5828500D02*
X20177500Y-5508500D01*
X21732500Y-5318000D02*
X21732500Y-5638000D01*
X21732500Y-5638000D02*
X22082500Y-5638000D01*
X22082500Y-5318000D02*
X21732500Y-5318000D01*
X22082500Y-5638000D02*
X22082500Y-5318000D01*
X19827500Y-3603500D02*
X19827500Y-3923500D01*
X19827500Y-3923500D02*
X20177500Y-3923500D01*
X20177500Y-3603500D02*
X19827500Y-3603500D01*
X20177500Y-3923500D02*
X20177500Y-3603500D01*
X29352500Y-1793750D02*
X29352500Y-2113750D01*
X29352500Y-2113750D02*
X29702500Y-2113750D01*
X29702500Y-1793750D02*
X29352500Y-1793750D01*
X29702500Y-2113750D02*
X29702500Y-1793750D01*
X19827500Y-7413500D02*
X19827500Y-7733500D01*
X19827500Y-7733500D02*
X20177500Y-7733500D01*
X20177500Y-7413500D02*
X19827500Y-7413500D01*
X20177500Y-7733500D02*
X20177500Y-7413500D01*
X27447500Y-5508500D02*
X27447500Y-5828500D01*
X27447500Y-5828500D02*
X27797500Y-5828500D01*
X27797500Y-5508500D02*
X27447500Y-5508500D01*
X27797500Y-5828500D02*
X27797500Y-5508500D01*
X27447500Y-1698500D02*
X27447500Y-2018500D01*
X27447500Y-2018500D02*
X27797500Y-2018500D01*
X27797500Y-1698500D02*
X27447500Y-1698500D01*
X27797500Y-2018500D02*
X27797500Y-1698500D01*
X17922500Y-5127500D02*
X17922500Y-5447500D01*
X17922500Y-5447500D02*
X18272500Y-5447500D01*
X18272500Y-5127500D02*
X17922500Y-5127500D01*
X18272500Y-5447500D02*
X18272500Y-5127500D01*
X29590630Y-7508750D02*
X29590630Y-7828750D01*
X29590630Y-7828750D02*
X29940630Y-7828750D01*
X29940630Y-7508750D02*
X29590630Y-7508750D01*
X29940630Y-7828750D02*
X29940630Y-7508750D01*
X21732500Y-3413000D02*
X21732500Y-3733000D01*
X21732500Y-3733000D02*
X22082500Y-3733000D01*
X22082500Y-3413000D02*
X21732500Y-3413000D01*
X22082500Y-3733000D02*
X22082500Y-3413000D01*
X27447500Y-3603500D02*
X27447500Y-3923500D01*
X27447500Y-3923500D02*
X27797500Y-3923500D01*
X27797500Y-3603500D02*
X27447500Y-3603500D01*
X27797500Y-3923500D02*
X27797500Y-3603500D01*
X25542500Y-7223000D02*
X25542500Y-7543000D01*
X25542500Y-7543000D02*
X25892500Y-7543000D01*
X25892500Y-7223000D02*
X25542500Y-7223000D01*
X25892500Y-7543000D02*
X25892500Y-7223000D01*
X19827500Y-1698500D02*
X19827500Y-2018500D01*
X19827500Y-2018500D02*
X20177500Y-2018500D01*
X20177500Y-1698500D02*
X19827500Y-1698500D01*
X20177500Y-2018500D02*
X20177500Y-1698500D01*
D12*
D13*
X17257500Y-2857500D02*
X17342500Y-2942500D01*
X17342500Y-2857500D02*
X17257500Y-2942500D01*
X17257500Y-3157500D02*
X17342500Y-3242500D01*
X17342500Y-3157500D02*
X17257500Y-3242500D01*
D14*
X19022020Y-9932340D02*
G75*
G02*
X18842020Y-9932340I-90000J0D01*
G01*
X18842020Y-9932340D02*
G75*
G02*
X19022020Y-9932340I90000J0D01*
G01*
X19284980Y-10913720D02*
G75*
G02*
X19104980Y-10913720I-90000J0D01*
G01*
X19104980Y-10913720D02*
G75*
G02*
X19284980Y-10913720I90000J0D01*
G01*
X20923740Y-9669300D02*
G75*
G02*
X20743740Y-9669300I-90000J0D01*
G01*
X20743740Y-9669300D02*
G75*
G02*
X20923740Y-9669300I90000J0D01*
G01*
X21186700Y-10650680D02*
G75*
G02*
X21006700Y-10650680I-90000J0D01*
G01*
X21006700Y-10650680D02*
G75*
G02*
X21186700Y-10650680I90000J0D01*
G01*
D12*
X17589500Y-4662500D02*
X17589500Y-4862500D01*
X17489500Y-4762500D02*
X17689500Y-4762500D01*
X17589500Y-6472250D02*
X17589500Y-6672250D01*
X17489500Y-6572250D02*
X17689500Y-6572250D01*
X18605500Y-4662500D02*
X18605500Y-4862500D01*
X18505500Y-4762500D02*
X18705500Y-4762500D01*
X18605500Y-6472250D02*
X18605500Y-6672250D01*
X18505500Y-6572250D02*
X18705500Y-6572250D01*
X19494500Y-1233500D02*
X19494500Y-1433500D01*
X19394500Y-1333500D02*
X19594500Y-1333500D01*
X19494500Y-3138500D02*
X19494500Y-3338500D01*
X19394500Y-3238500D02*
X19594500Y-3238500D01*
X19494500Y-5043500D02*
X19494500Y-5243500D01*
X19394500Y-5143500D02*
X19594500Y-5143500D01*
X19494500Y-6948500D02*
X19494500Y-7148500D01*
X19394500Y-7048500D02*
X19594500Y-7048500D01*
X20510500Y-1233500D02*
X20510500Y-1433500D01*
X20410500Y-1333500D02*
X20610500Y-1333500D01*
X20510500Y-3138500D02*
X20510500Y-3338500D01*
X20410500Y-3238500D02*
X20610500Y-3238500D01*
X20510500Y-5043500D02*
X20510500Y-5243500D01*
X20410500Y-5143500D02*
X20610500Y-5143500D01*
X20510500Y-6948500D02*
X20510500Y-7148500D01*
X20410500Y-7048500D02*
X20610500Y-7048500D01*
X21399500Y-1043000D02*
X21399500Y-1243000D01*
X21299500Y-1143000D02*
X21499500Y-1143000D01*
X21399500Y-2948000D02*
X21399500Y-3148000D01*
X21299500Y-3048000D02*
X21499500Y-3048000D01*
X21399500Y-4853000D02*
X21399500Y-5053000D01*
X21299500Y-4953000D02*
X21499500Y-4953000D01*
X21399500Y-6758000D02*
X21399500Y-6958000D01*
X21299500Y-6858000D02*
X21499500Y-6858000D01*
X22415500Y-1043000D02*
X22415500Y-1243000D01*
X22315500Y-1143000D02*
X22515500Y-1143000D01*
X22415500Y-2948000D02*
X22415500Y-3148000D01*
X22315500Y-3048000D02*
X22515500Y-3048000D01*
X22415500Y-4853000D02*
X22415500Y-5053000D01*
X22315500Y-4953000D02*
X22515500Y-4953000D01*
X22415500Y-6758000D02*
X22415500Y-6958000D01*
X22315500Y-6858000D02*
X22515500Y-6858000D01*
X23304500Y-852500D02*
X23304500Y-1052500D01*
X23204500Y-952500D02*
X23404500Y-952500D01*
X23304500Y-2757500D02*
X23304500Y-2957500D01*
X23204500Y-2857500D02*
X23404500Y-2857500D01*
X23304500Y-4662500D02*
X23304500Y-4862500D01*
X23204500Y-4762500D02*
X23404500Y-4762500D01*
X23304500Y-6567500D02*
X23304500Y-6767500D01*
X23204500Y-6667500D02*
X23404500Y-6667500D01*
X24320500Y-852500D02*
X24320500Y-1052500D01*
X24220500Y-952500D02*
X24420500Y-952500D01*
X24320500Y-2757500D02*
X24320500Y-2957500D01*
X24220500Y-2857500D02*
X24420500Y-2857500D01*
X24320500Y-4662500D02*
X24320500Y-4862500D01*
X24220500Y-4762500D02*
X24420500Y-4762500D01*
X24320500Y-6567500D02*
X24320500Y-6767500D01*
X24220500Y-6667500D02*
X24420500Y-6667500D01*
X25209500Y-1043000D02*
X25209500Y-1243000D01*
X25109500Y-1143000D02*
X25309500Y-1143000D01*
X25209500Y-2948000D02*
X25209500Y-3148000D01*
X25109500Y-3048000D02*
X25309500Y-3048000D01*
X25209500Y-4853000D02*
X25209500Y-5053000D01*
X25109500Y-4953000D02*
X25309500Y-4953000D01*
X25209500Y-6758000D02*
X25209500Y-6958000D01*
X25109500Y-6858000D02*
X25309500Y-6858000D01*
X26225500Y-1043000D02*
X26225500Y-1243000D01*
X26125500Y-1143000D02*
X26325500Y-1143000D01*
X26225500Y-2948000D02*
X26225500Y-3148000D01*
X26125500Y-3048000D02*
X26325500Y-3048000D01*
X26225500Y-4853000D02*
X26225500Y-5053000D01*
X26125500Y-4953000D02*
X26325500Y-4953000D01*
X26225500Y-6758000D02*
X26225500Y-6958000D01*
X26125500Y-6858000D02*
X26325500Y-6858000D01*
X27114500Y-1233500D02*
X27114500Y-1433500D01*
X27014500Y-1333500D02*
X27214500Y-1333500D01*
X27114500Y-3138500D02*
X27114500Y-3338500D01*
X27014500Y-3238500D02*
X27214500Y-3238500D01*
X27114500Y-5043500D02*
X27114500Y-5243500D01*
X27014500Y-5143500D02*
X27214500Y-5143500D01*
X27114500Y-6948500D02*
X27114500Y-7148500D01*
X27014500Y-7048500D02*
X27214500Y-7048500D01*
X28130500Y-1233500D02*
X28130500Y-1433500D01*
X28030500Y-1333500D02*
X28230500Y-1333500D01*
X28130500Y-3138500D02*
X28130500Y-3338500D01*
X28030500Y-3238500D02*
X28230500Y-3238500D01*
X28130500Y-5043500D02*
X28130500Y-5243500D01*
X28030500Y-5143500D02*
X28230500Y-5143500D01*
X28130500Y-6948500D02*
X28130500Y-7148500D01*
X28030500Y-7048500D02*
X28230500Y-7048500D01*
X29019500Y-1328750D02*
X29019500Y-1528750D01*
X28919500Y-1428750D02*
X29119500Y-1428750D01*
X29257630Y-3233750D02*
X29257630Y-3433750D01*
X29157630Y-3333750D02*
X29357630Y-3333750D01*
X29257630Y-5138750D02*
X29257630Y-5338750D01*
X29157630Y-5238750D02*
X29357630Y-5238750D01*
X29257630Y-7043750D02*
X29257630Y-7243750D01*
X29157630Y-7143750D02*
X29357630Y-7143750D01*
X30035500Y-1328750D02*
X30035500Y-1528750D01*
X29935500Y-1428750D02*
X30135500Y-1428750D01*
X30273630Y-3233750D02*
X30273630Y-3433750D01*
X30173630Y-3333750D02*
X30373630Y-3333750D01*
X30273630Y-5138750D02*
X30273630Y-5338750D01*
X30173630Y-5238750D02*
X30373630Y-5238750D01*
X30273630Y-7043750D02*
X30273630Y-7243750D01*
X30173630Y-7143750D02*
X30373630Y-7143750D01*
D15*
X18268463Y-3628532D02*
X18268463Y-3472967D01*
X18112898Y-3472967D01*
X18112898Y-3628532D01*
X18268463Y-3628532D01*
X23188462Y-7318532D02*
X23188462Y-7162967D01*
X23032897Y-7162967D01*
X23032897Y-7318532D01*
X23188462Y-7318532D01*
X30568462Y-6088532D02*
X30568462Y-5932967D01*
X30412897Y-5932967D01*
X30412897Y-6088532D01*
X30568462Y-6088532D01*
D16*
X17716500Y-4658500D02*
X17866500Y-4508500D01*
X17716500Y-4358500D01*
X17566500Y-4508500D01*
X17716500Y-4658500D01*
X17716500Y-6468250D02*
X17866500Y-6318250D01*
X17716500Y-6168250D01*
X17566500Y-6318250D01*
X17716500Y-6468250D01*
X18351500Y-4404500D02*
X18501500Y-4254500D01*
X18351500Y-4104500D01*
X18201500Y-4254500D01*
X18351500Y-4404500D01*
X18351500Y-6214250D02*
X18501500Y-6064250D01*
X18351500Y-5914250D01*
X18201500Y-6064250D01*
X18351500Y-6214250D01*
X18754520Y-9419910D02*
X18904520Y-9269910D01*
X18754520Y-9119910D01*
X18604520Y-9269910D01*
X18754520Y-9419910D01*
X19210235Y-10139272D02*
X19360235Y-9989272D01*
X19210235Y-9839272D01*
X19060235Y-9989272D01*
X19210235Y-10139272D01*
X19372480Y-11726160D02*
X19522480Y-11576160D01*
X19372480Y-11426160D01*
X19222480Y-11576160D01*
X19372480Y-11726160D01*
X19619930Y-10686895D02*
X19769930Y-10536895D01*
X19619930Y-10386895D01*
X19469930Y-10536895D01*
X19619930Y-10686895D01*
X19621500Y-1229500D02*
X19771500Y-1079500D01*
X19621500Y-929500D01*
X19471500Y-1079500D01*
X19621500Y-1229500D01*
X19621500Y-3134500D02*
X19771500Y-2984500D01*
X19621500Y-2834500D01*
X19471500Y-2984500D01*
X19621500Y-3134500D01*
X19621500Y-5039500D02*
X19771500Y-4889500D01*
X19621500Y-4739500D01*
X19471500Y-4889500D01*
X19621500Y-5039500D01*
X19621500Y-6944500D02*
X19771500Y-6794500D01*
X19621500Y-6644500D01*
X19471500Y-6794500D01*
X19621500Y-6944500D01*
X20256500Y-975500D02*
X20406500Y-825500D01*
X20256500Y-675500D01*
X20106500Y-825500D01*
X20256500Y-975500D01*
X20256500Y-2880500D02*
X20406500Y-2730500D01*
X20256500Y-2580500D01*
X20106500Y-2730500D01*
X20256500Y-2880500D01*
X20256500Y-4785500D02*
X20406500Y-4635500D01*
X20256500Y-4485500D01*
X20106500Y-4635500D01*
X20256500Y-4785500D01*
X20256500Y-6690500D02*
X20406500Y-6540500D01*
X20256500Y-6390500D01*
X20106500Y-6540500D01*
X20256500Y-6690500D01*
X20656240Y-9156870D02*
X20806240Y-9006870D01*
X20656240Y-8856870D01*
X20506240Y-9006870D01*
X20656240Y-9156870D01*
X21111955Y-9876232D02*
X21261955Y-9726232D01*
X21111955Y-9576232D01*
X20961955Y-9726232D01*
X21111955Y-9876232D01*
X21274200Y-11463120D02*
X21424200Y-11313120D01*
X21274200Y-11163120D01*
X21124200Y-11313120D01*
X21274200Y-11463120D01*
X21521650Y-10423855D02*
X21671650Y-10273855D01*
X21521650Y-10123855D01*
X21371650Y-10273855D01*
X21521650Y-10423855D01*
X21526500Y-1039000D02*
X21676500Y-889000D01*
X21526500Y-739000D01*
X21376500Y-889000D01*
X21526500Y-1039000D01*
X21526500Y-2944000D02*
X21676500Y-2794000D01*
X21526500Y-2644000D01*
X21376500Y-2794000D01*
X21526500Y-2944000D01*
X21526500Y-4849000D02*
X21676500Y-4699000D01*
X21526500Y-4549000D01*
X21376500Y-4699000D01*
X21526500Y-4849000D01*
X21526500Y-6754000D02*
X21676500Y-6604000D01*
X21526500Y-6454000D01*
X21376500Y-6604000D01*
X21526500Y-6754000D01*
X22161500Y-785000D02*
X22311500Y-635000D01*
X22161500Y-485000D01*
X22011500Y-635000D01*
X22161500Y-785000D01*
X22161500Y-2690000D02*
X22311500Y-2540000D01*
X22161500Y-2390000D01*
X22011500Y-2540000D01*
X22161500Y-2690000D01*
X22161500Y-4595000D02*
X22311500Y-4445000D01*
X22161500Y-4295000D01*
X22011500Y-4445000D01*
X22161500Y-4595000D01*
X22161500Y-6500000D02*
X22311500Y-6350000D01*
X22161500Y-6200000D01*
X22011500Y-6350000D01*
X22161500Y-6500000D01*
X23431500Y-848500D02*
X23581500Y-698500D01*
X23431500Y-548500D01*
X23281500Y-698500D01*
X23431500Y-848500D01*
X23431500Y-2753500D02*
X23581500Y-2603500D01*
X23431500Y-2453500D01*
X23281500Y-2603500D01*
X23431500Y-2753500D01*
X23431500Y-4658500D02*
X23581500Y-4508500D01*
X23431500Y-4358500D01*
X23281500Y-4508500D01*
X23431500Y-4658500D01*
X23431500Y-6563500D02*
X23581500Y-6413500D01*
X23431500Y-6263500D01*
X23281500Y-6413500D01*
X23431500Y-6563500D01*
X24066500Y-594500D02*
X24216500Y-444500D01*
X24066500Y-294500D01*
X23916500Y-444500D01*
X24066500Y-594500D01*
X24066500Y-2499500D02*
X24216500Y-2349500D01*
X24066500Y-2199500D01*
X23916500Y-2349500D01*
X24066500Y-2499500D01*
X24066500Y-4404500D02*
X24216500Y-4254500D01*
X24066500Y-4104500D01*
X23916500Y-4254500D01*
X24066500Y-4404500D01*
X24066500Y-6309500D02*
X24216500Y-6159500D01*
X24066500Y-6009500D01*
X23916500Y-6159500D01*
X24066500Y-6309500D01*
X25336500Y-1039000D02*
X25486500Y-889000D01*
X25336500Y-739000D01*
X25186500Y-889000D01*
X25336500Y-1039000D01*
X25336500Y-2944000D02*
X25486500Y-2794000D01*
X25336500Y-2644000D01*
X25186500Y-2794000D01*
X25336500Y-2944000D01*
X25336500Y-4849000D02*
X25486500Y-4699000D01*
X25336500Y-4549000D01*
X25186500Y-4699000D01*
X25336500Y-4849000D01*
X25336500Y-6754000D02*
X25486500Y-6604000D01*
X25336500Y-6454000D01*
X25186500Y-6604000D01*
X25336500Y-6754000D01*
X25971500Y-785000D02*
X26121500Y-635000D01*
X25971500Y-485000D01*
X25821500Y-635000D01*
X25971500Y-785000D01*
X25971500Y-2690000D02*
X26121500Y-2540000D01*
X25971500Y-2390000D01*
X25821500Y-2540000D01*
X25971500Y-2690000D01*
X25971500Y-4595000D02*
X26121500Y-4445000D01*
X25971500Y-4295000D01*
X25821500Y-4445000D01*
X25971500Y-4595000D01*
X25971500Y-6500000D02*
X26121500Y-6350000D01*
X25971500Y-6200000D01*
X25821500Y-6350000D01*
X25971500Y-6500000D01*
X27241500Y-1229500D02*
X27391500Y-1079500D01*
X27241500Y-929500D01*
X27091500Y-1079500D01*
X27241500Y-1229500D01*
X27241500Y-3134500D02*
X27391500Y-2984500D01*
X27241500Y-2834500D01*
X27091500Y-2984500D01*
X27241500Y-3134500D01*
X27241500Y-5039500D02*
X27391500Y-4889500D01*
X27241500Y-4739500D01*
X27091500Y-4889500D01*
X27241500Y-5039500D01*
X27241500Y-6944500D02*
X27391500Y-6794500D01*
X27241500Y-6644500D01*
X27091500Y-6794500D01*
X27241500Y-6944500D01*
X27876500Y-975500D02*
X28026500Y-825500D01*
X27876500Y-675500D01*
X27726500Y-825500D01*
X27876500Y-975500D01*
X27876500Y-2880500D02*
X28026500Y-2730500D01*
X27876500Y-2580500D01*
X27726500Y-2730500D01*
X27876500Y-2880500D01*
X27876500Y-4785500D02*
X28026500Y-4635500D01*
X27876500Y-4485500D01*
X27726500Y-4635500D01*
X27876500Y-4785500D01*
X27876500Y-6690500D02*
X28026500Y-6540500D01*
X27876500Y-6390500D01*
X27726500Y-6540500D01*
X27876500Y-6690500D01*
X29146500Y-1324750D02*
X29296500Y-1174750D01*
X29146500Y-1024750D01*
X28996500Y-1174750D01*
X29146500Y-1324750D01*
X29384630Y-3229750D02*
X29534630Y-3079750D01*
X29384630Y-2929750D01*
X29234630Y-3079750D01*
X29384630Y-3229750D01*
X29384630Y-5134750D02*
X29534630Y-4984750D01*
X29384630Y-4834750D01*
X29234630Y-4984750D01*
X29384630Y-5134750D01*
X29384630Y-7039750D02*
X29534630Y-6889750D01*
X29384630Y-6739750D01*
X29234630Y-6889750D01*
X29384630Y-7039750D01*
X29781500Y-1070750D02*
X29931500Y-920750D01*
X29781500Y-770750D01*
X29631500Y-920750D01*
X29781500Y-1070750D01*
X30019630Y-2975750D02*
X30169630Y-2825750D01*
X30019630Y-2675750D01*
X29869630Y-2825750D01*
X30019630Y-2975750D01*
X30019630Y-4880750D02*
X30169630Y-4730750D01*
X30019630Y-4580750D01*
X29869630Y-4730750D01*
X30019630Y-4880750D01*
X30019630Y-6785750D02*
X30169630Y-6635750D01*
X30019630Y-6485750D01*
X29869630Y-6635750D01*
X30019630Y-6785750D01*
D17*
X19279153Y-8939905D02*
X19584153Y-9244905D01*
X19584153Y-8939905D02*
X19279153Y-9244905D01*
X19584153Y-9092405D02*
G75*
G02*
X19279153Y-9092405I-152500J0D01*
G01*
X19279153Y-9092405D02*
G75*
G02*
X19584153Y-9092405I152500J0D01*
G01*
X19895143Y-11238808D02*
X20200143Y-11543808D01*
X20200143Y-11238808D02*
X19895143Y-11543808D01*
X20200143Y-11391308D02*
G75*
G02*
X19895143Y-11391308I-152500J0D01*
G01*
X19895143Y-11391308D02*
G75*
G02*
X20200143Y-11391308I152500J0D01*
G01*
X21180873Y-8676865D02*
X21485873Y-8981865D01*
X21485873Y-8676865D02*
X21180873Y-8981865D01*
X21485873Y-8829365D02*
G75*
G02*
X21180873Y-8829365I-152500J0D01*
G01*
X21180873Y-8829365D02*
G75*
G02*
X21485873Y-8829365I152500J0D01*
G01*
X21796863Y-10975768D02*
X22101863Y-11280768D01*
X22101863Y-10975768D02*
X21796863Y-11280768D01*
X22101863Y-11128268D02*
G75*
G02*
X21796863Y-11128268I-152500J0D01*
G01*
X21796863Y-11128268D02*
G75*
G02*
X22101863Y-11128268I152500J0D01*
G01*
D18*
X17759583Y-9286845D02*
X18159583Y-9686845D01*
X18159583Y-9286845D02*
X17759583Y-9686845D01*
X17959583Y-9286845D02*
X17959583Y-9686845D01*
X17759583Y-9486845D02*
X18159583Y-9486845D01*
X17897500Y-4562500D02*
X18297500Y-4962500D01*
X18297500Y-4562500D02*
X17897500Y-4962500D01*
X18097500Y-4562500D02*
X18097500Y-4962500D01*
X17897500Y-4762500D02*
X18297500Y-4762500D01*
X17897500Y-6372250D02*
X18297500Y-6772250D01*
X18297500Y-6372250D02*
X17897500Y-6772250D01*
X18097500Y-6372250D02*
X18097500Y-6772250D01*
X17897500Y-6572250D02*
X18297500Y-6572250D01*
X18375572Y-11585749D02*
X18775572Y-11985749D01*
X18775572Y-11585749D02*
X18375572Y-11985749D01*
X18575572Y-11585749D02*
X18575572Y-11985749D01*
X18375572Y-11785749D02*
X18775572Y-11785749D01*
X18863500Y-10223030D02*
X19263500Y-10623030D01*
X19263500Y-10223030D02*
X18863500Y-10623030D01*
X19063500Y-10223030D02*
X19063500Y-10623030D01*
X18863500Y-10423030D02*
X19263500Y-10423030D01*
X19661303Y-9023805D02*
X20061303Y-9423805D01*
X20061303Y-9023805D02*
X19661303Y-9423805D01*
X19861303Y-9023805D02*
X19861303Y-9423805D01*
X19661303Y-9223805D02*
X20061303Y-9223805D01*
X19802500Y-1133500D02*
X20202500Y-1533500D01*
X20202500Y-1133500D02*
X19802500Y-1533500D01*
X20002500Y-1133500D02*
X20002500Y-1533500D01*
X19802500Y-1333500D02*
X20202500Y-1333500D01*
X19802500Y-3038500D02*
X20202500Y-3438500D01*
X20202500Y-3038500D02*
X19802500Y-3438500D01*
X20002500Y-3038500D02*
X20002500Y-3438500D01*
X19802500Y-3238500D02*
X20202500Y-3238500D01*
X19802500Y-4943500D02*
X20202500Y-5343500D01*
X20202500Y-4943500D02*
X19802500Y-5343500D01*
X20002500Y-4943500D02*
X20002500Y-5343500D01*
X19802500Y-5143500D02*
X20202500Y-5143500D01*
X19802500Y-6848500D02*
X20202500Y-7248500D01*
X20202500Y-6848500D02*
X19802500Y-7248500D01*
X20002500Y-6848500D02*
X20002500Y-7248500D01*
X19802500Y-7048500D02*
X20202500Y-7048500D01*
X20277292Y-11322709D02*
X20677292Y-11722709D01*
X20677292Y-11322709D02*
X20277292Y-11722709D01*
X20477292Y-11322709D02*
X20477292Y-11722709D01*
X20277292Y-11522709D02*
X20677292Y-11522709D01*
X20765220Y-9959990D02*
X21165220Y-10359990D01*
X21165220Y-9959990D02*
X20765220Y-10359990D01*
X20965220Y-9959990D02*
X20965220Y-10359990D01*
X20765220Y-10159990D02*
X21165220Y-10159990D01*
X21707500Y-943000D02*
X22107500Y-1343000D01*
X22107500Y-943000D02*
X21707500Y-1343000D01*
X21907500Y-943000D02*
X21907500Y-1343000D01*
X21707500Y-1143000D02*
X22107500Y-1143000D01*
X21707500Y-2848000D02*
X22107500Y-3248000D01*
X22107500Y-2848000D02*
X21707500Y-3248000D01*
X21907500Y-2848000D02*
X21907500Y-3248000D01*
X21707500Y-3048000D02*
X22107500Y-3048000D01*
X21707500Y-4753000D02*
X22107500Y-5153000D01*
X22107500Y-4753000D02*
X21707500Y-5153000D01*
X21907500Y-4753000D02*
X21907500Y-5153000D01*
X21707500Y-4953000D02*
X22107500Y-4953000D01*
X21707500Y-6658000D02*
X22107500Y-7058000D01*
X22107500Y-6658000D02*
X21707500Y-7058000D01*
X21907500Y-6658000D02*
X21907500Y-7058000D01*
X21707500Y-6858000D02*
X22107500Y-6858000D01*
X23612500Y-752500D02*
X24012500Y-1152500D01*
X24012500Y-752500D02*
X23612500Y-1152500D01*
X23812500Y-752500D02*
X23812500Y-1152500D01*
X23612500Y-952500D02*
X24012500Y-952500D01*
X23612500Y-2657500D02*
X24012500Y-3057500D01*
X24012500Y-2657500D02*
X23612500Y-3057500D01*
X23812500Y-2657500D02*
X23812500Y-3057500D01*
X23612500Y-2857500D02*
X24012500Y-2857500D01*
X23612500Y-4562500D02*
X24012500Y-4962500D01*
X24012500Y-4562500D02*
X23612500Y-4962500D01*
X23812500Y-4562500D02*
X23812500Y-4962500D01*
X23612500Y-4762500D02*
X24012500Y-4762500D01*
X23612500Y-6467500D02*
X24012500Y-6867500D01*
X24012500Y-6467500D02*
X23612500Y-6867500D01*
X23812500Y-6467500D02*
X23812500Y-6867500D01*
X23612500Y-6667500D02*
X24012500Y-6667500D01*
X25517500Y-943000D02*
X25917500Y-1343000D01*
X25917500Y-943000D02*
X25517500Y-1343000D01*
X25717500Y-943000D02*
X25717500Y-1343000D01*
X25517500Y-1143000D02*
X25917500Y-1143000D01*
X25517500Y-2848000D02*
X25917500Y-3248000D01*
X25917500Y-2848000D02*
X25517500Y-3248000D01*
X25717500Y-2848000D02*
X25717500Y-3248000D01*
X25517500Y-3048000D02*
X25917500Y-3048000D01*
X25517500Y-4753000D02*
X25917500Y-5153000D01*
X25917500Y-4753000D02*
X25517500Y-5153000D01*
X25717500Y-4753000D02*
X25717500Y-5153000D01*
X25517500Y-4953000D02*
X25917500Y-4953000D01*
X25517500Y-6658000D02*
X25917500Y-7058000D01*
X25917500Y-6658000D02*
X25517500Y-7058000D01*
X25717500Y-6658000D02*
X25717500Y-7058000D01*
X25517500Y-6858000D02*
X25917500Y-6858000D01*
X27422500Y-1133500D02*
X27822500Y-1533500D01*
X27822500Y-1133500D02*
X27422500Y-1533500D01*
X27622500Y-1133500D02*
X27622500Y-1533500D01*
X27422500Y-1333500D02*
X27822500Y-1333500D01*
X27422500Y-3038500D02*
X27822500Y-3438500D01*
X27822500Y-3038500D02*
X27422500Y-3438500D01*
X27622500Y-3038500D02*
X27622500Y-3438500D01*
X27422500Y-3238500D02*
X27822500Y-3238500D01*
X27422500Y-4943500D02*
X27822500Y-5343500D01*
X27822500Y-4943500D02*
X27422500Y-5343500D01*
X27622500Y-4943500D02*
X27622500Y-5343500D01*
X27422500Y-5143500D02*
X27822500Y-5143500D01*
X27422500Y-6848500D02*
X27822500Y-7248500D01*
X27822500Y-6848500D02*
X27422500Y-7248500D01*
X27622500Y-6848500D02*
X27622500Y-7248500D01*
X27422500Y-7048500D02*
X27822500Y-7048500D01*
X29327500Y-1228750D02*
X29727500Y-1628750D01*
X29727500Y-1228750D02*
X29327500Y-1628750D01*
X29527500Y-1228750D02*
X29527500Y-1628750D01*
X29327500Y-1428750D02*
X29727500Y-1428750D01*
X29565630Y-3133750D02*
X29965630Y-3533750D01*
X29965630Y-3133750D02*
X29565630Y-3533750D01*
X29765630Y-3133750D02*
X29765630Y-3533750D01*
X29565630Y-3333750D02*
X29965630Y-3333750D01*
X29565630Y-5038750D02*
X29965630Y-5438750D01*
X29965630Y-5038750D02*
X29565630Y-5438750D01*
X29765630Y-5038750D02*
X29765630Y-5438750D01*
X29565630Y-5238750D02*
X29965630Y-5238750D01*
X29565630Y-6943750D02*
X29965630Y-7343750D01*
X29965630Y-6943750D02*
X29565630Y-7343750D01*
X29765630Y-6943750D02*
X29765630Y-7343750D01*
X29565630Y-7143750D02*
X29965630Y-7143750D01*
D12*
X17235677Y-13176117D02*
X17235677Y-12976117D01*
X17235677Y-12976117D02*
X17283296Y-12976117D01*
X17283296Y-12976117D02*
X17311867Y-12985641D01*
X17311867Y-12985641D02*
X17330915Y-13004688D01*
X17330915Y-13004688D02*
X17340439Y-13023736D01*
X17340439Y-13023736D02*
X17349963Y-13061831D01*
X17349963Y-13061831D02*
X17349963Y-13090402D01*
X17349963Y-13090402D02*
X17340439Y-13128498D01*
X17340439Y-13128498D02*
X17330915Y-13147545D01*
X17330915Y-13147545D02*
X17311867Y-13166593D01*
X17311867Y-13166593D02*
X17283296Y-13176117D01*
X17283296Y-13176117D02*
X17235677Y-13176117D01*
X17435677Y-13176117D02*
X17435677Y-13042783D01*
X17435677Y-13080879D02*
X17445201Y-13061831D01*
X17445201Y-13061831D02*
X17454724Y-13052307D01*
X17454724Y-13052307D02*
X17473772Y-13042783D01*
X17473772Y-13042783D02*
X17492820Y-13042783D01*
X17559486Y-13176117D02*
X17559486Y-13042783D01*
X17559486Y-12976117D02*
X17549963Y-12985641D01*
X17549963Y-12985641D02*
X17559486Y-12995164D01*
X17559486Y-12995164D02*
X17569010Y-12985641D01*
X17569010Y-12985641D02*
X17559486Y-12976117D01*
X17559486Y-12976117D02*
X17559486Y-12995164D01*
X17683296Y-13176117D02*
X17664248Y-13166593D01*
X17664248Y-13166593D02*
X17654724Y-13147545D01*
X17654724Y-13147545D02*
X17654724Y-12976117D01*
X17788058Y-13176117D02*
X17769010Y-13166593D01*
X17769010Y-13166593D02*
X17759486Y-13147545D01*
X17759486Y-13147545D02*
X17759486Y-12976117D01*
X18016629Y-13176117D02*
X18016629Y-12976117D01*
X18016629Y-12976117D02*
X18083296Y-13118974D01*
X18083296Y-13118974D02*
X18149963Y-12976117D01*
X18149963Y-12976117D02*
X18149963Y-13176117D01*
X18330915Y-13176117D02*
X18330915Y-13071355D01*
X18330915Y-13071355D02*
X18321391Y-13052307D01*
X18321391Y-13052307D02*
X18302344Y-13042783D01*
X18302344Y-13042783D02*
X18264248Y-13042783D01*
X18264248Y-13042783D02*
X18245201Y-13052307D01*
X18330915Y-13166593D02*
X18311867Y-13176117D01*
X18311867Y-13176117D02*
X18264248Y-13176117D01*
X18264248Y-13176117D02*
X18245201Y-13166593D01*
X18245201Y-13166593D02*
X18235677Y-13147545D01*
X18235677Y-13147545D02*
X18235677Y-13128498D01*
X18235677Y-13128498D02*
X18245201Y-13109450D01*
X18245201Y-13109450D02*
X18264248Y-13099926D01*
X18264248Y-13099926D02*
X18311867Y-13099926D01*
X18311867Y-13099926D02*
X18330915Y-13090402D01*
X18426153Y-13042783D02*
X18426153Y-13242783D01*
X18426153Y-13052307D02*
X18445201Y-13042783D01*
X18445201Y-13042783D02*
X18483296Y-13042783D01*
X18483296Y-13042783D02*
X18502344Y-13052307D01*
X18502344Y-13052307D02*
X18511867Y-13061831D01*
X18511867Y-13061831D02*
X18521391Y-13080879D01*
X18521391Y-13080879D02*
X18521391Y-13138021D01*
X18521391Y-13138021D02*
X18511867Y-13157069D01*
X18511867Y-13157069D02*
X18502344Y-13166593D01*
X18502344Y-13166593D02*
X18483296Y-13176117D01*
X18483296Y-13176117D02*
X18445201Y-13176117D01*
X18445201Y-13176117D02*
X18426153Y-13166593D01*
X18607105Y-13157069D02*
X18616629Y-13166593D01*
X18616629Y-13166593D02*
X18607105Y-13176117D01*
X18607105Y-13176117D02*
X18597582Y-13166593D01*
X18597582Y-13166593D02*
X18607105Y-13157069D01*
X18607105Y-13157069D02*
X18607105Y-13176117D01*
X18607105Y-13052307D02*
X18616629Y-13061831D01*
X18616629Y-13061831D02*
X18607105Y-13071355D01*
X18607105Y-13071355D02*
X18597582Y-13061831D01*
X18597582Y-13061831D02*
X18607105Y-13052307D01*
X18607105Y-13052307D02*
X18607105Y-13071355D01*
D13*
X16889900Y-13462133D02*
X16974900Y-13547133D01*
X16974900Y-13462133D02*
X16889900Y-13547133D01*
D12*
X17273772Y-13396117D02*
X17292820Y-13396117D01*
X17292820Y-13396117D02*
X17311867Y-13405641D01*
X17311867Y-13405641D02*
X17321391Y-13415164D01*
X17321391Y-13415164D02*
X17330915Y-13434212D01*
X17330915Y-13434212D02*
X17340439Y-13472307D01*
X17340439Y-13472307D02*
X17340439Y-13519926D01*
X17340439Y-13519926D02*
X17330915Y-13558021D01*
X17330915Y-13558021D02*
X17321391Y-13577069D01*
X17321391Y-13577069D02*
X17311867Y-13586593D01*
X17311867Y-13586593D02*
X17292820Y-13596117D01*
X17292820Y-13596117D02*
X17273772Y-13596117D01*
X17273772Y-13596117D02*
X17254724Y-13586593D01*
X17254724Y-13586593D02*
X17245201Y-13577069D01*
X17245201Y-13577069D02*
X17235677Y-13558021D01*
X17235677Y-13558021D02*
X17226153Y-13519926D01*
X17226153Y-13519926D02*
X17226153Y-13472307D01*
X17226153Y-13472307D02*
X17235677Y-13434212D01*
X17235677Y-13434212D02*
X17245201Y-13415164D01*
X17245201Y-13415164D02*
X17254724Y-13405641D01*
X17254724Y-13405641D02*
X17273772Y-13396117D01*
X17426153Y-13577069D02*
X17435677Y-13586593D01*
X17435677Y-13586593D02*
X17426153Y-13596117D01*
X17426153Y-13596117D02*
X17416629Y-13586593D01*
X17416629Y-13586593D02*
X17426153Y-13577069D01*
X17426153Y-13577069D02*
X17426153Y-13596117D01*
X17549963Y-13481831D02*
X17530915Y-13472307D01*
X17530915Y-13472307D02*
X17521391Y-13462783D01*
X17521391Y-13462783D02*
X17511867Y-13443736D01*
X17511867Y-13443736D02*
X17511867Y-13434212D01*
X17511867Y-13434212D02*
X17521391Y-13415164D01*
X17521391Y-13415164D02*
X17530915Y-13405641D01*
X17530915Y-13405641D02*
X17549963Y-13396117D01*
X17549963Y-13396117D02*
X17588058Y-13396117D01*
X17588058Y-13396117D02*
X17607105Y-13405641D01*
X17607105Y-13405641D02*
X17616629Y-13415164D01*
X17616629Y-13415164D02*
X17626153Y-13434212D01*
X17626153Y-13434212D02*
X17626153Y-13443736D01*
X17626153Y-13443736D02*
X17616629Y-13462783D01*
X17616629Y-13462783D02*
X17607105Y-13472307D01*
X17607105Y-13472307D02*
X17588058Y-13481831D01*
X17588058Y-13481831D02*
X17549963Y-13481831D01*
X17549963Y-13481831D02*
X17530915Y-13491355D01*
X17530915Y-13491355D02*
X17521391Y-13500879D01*
X17521391Y-13500879D02*
X17511867Y-13519926D01*
X17511867Y-13519926D02*
X17511867Y-13558021D01*
X17511867Y-13558021D02*
X17521391Y-13577069D01*
X17521391Y-13577069D02*
X17530915Y-13586593D01*
X17530915Y-13586593D02*
X17549963Y-13596117D01*
X17549963Y-13596117D02*
X17588058Y-13596117D01*
X17588058Y-13596117D02*
X17607105Y-13586593D01*
X17607105Y-13586593D02*
X17616629Y-13577069D01*
X17616629Y-13577069D02*
X17626153Y-13558021D01*
X17626153Y-13558021D02*
X17626153Y-13519926D01*
X17626153Y-13519926D02*
X17616629Y-13500879D01*
X17616629Y-13500879D02*
X17607105Y-13491355D01*
X17607105Y-13491355D02*
X17588058Y-13481831D01*
X17807105Y-13396117D02*
X17711867Y-13396117D01*
X17711867Y-13396117D02*
X17702344Y-13491355D01*
X17702344Y-13491355D02*
X17711867Y-13481831D01*
X17711867Y-13481831D02*
X17730915Y-13472307D01*
X17730915Y-13472307D02*
X17778534Y-13472307D01*
X17778534Y-13472307D02*
X17797582Y-13481831D01*
X17797582Y-13481831D02*
X17807105Y-13491355D01*
X17807105Y-13491355D02*
X17816629Y-13510402D01*
X17816629Y-13510402D02*
X17816629Y-13558021D01*
X17816629Y-13558021D02*
X17807105Y-13577069D01*
X17807105Y-13577069D02*
X17797582Y-13586593D01*
X17797582Y-13586593D02*
X17778534Y-13596117D01*
X17778534Y-13596117D02*
X17730915Y-13596117D01*
X17730915Y-13596117D02*
X17711867Y-13586593D01*
X17711867Y-13586593D02*
X17702344Y-13577069D01*
X17940439Y-13396117D02*
X17959486Y-13396117D01*
X17959486Y-13396117D02*
X17978534Y-13405641D01*
X17978534Y-13405641D02*
X17988058Y-13415164D01*
X17988058Y-13415164D02*
X17997582Y-13434212D01*
X17997582Y-13434212D02*
X18007105Y-13472307D01*
X18007105Y-13472307D02*
X18007105Y-13519926D01*
X18007105Y-13519926D02*
X17997582Y-13558021D01*
X17997582Y-13558021D02*
X17988058Y-13577069D01*
X17988058Y-13577069D02*
X17978534Y-13586593D01*
X17978534Y-13586593D02*
X17959486Y-13596117D01*
X17959486Y-13596117D02*
X17940439Y-13596117D01*
X17940439Y-13596117D02*
X17921391Y-13586593D01*
X17921391Y-13586593D02*
X17911867Y-13577069D01*
X17911867Y-13577069D02*
X17902344Y-13558021D01*
X17902344Y-13558021D02*
X17892820Y-13519926D01*
X17892820Y-13519926D02*
X17892820Y-13472307D01*
X17892820Y-13472307D02*
X17902344Y-13434212D01*
X17902344Y-13434212D02*
X17911867Y-13415164D01*
X17911867Y-13415164D02*
X17921391Y-13405641D01*
X17921391Y-13405641D02*
X17940439Y-13396117D01*
X18092820Y-13596117D02*
X18092820Y-13462783D01*
X18092820Y-13481831D02*
X18102344Y-13472307D01*
X18102344Y-13472307D02*
X18121391Y-13462783D01*
X18121391Y-13462783D02*
X18149963Y-13462783D01*
X18149963Y-13462783D02*
X18169010Y-13472307D01*
X18169010Y-13472307D02*
X18178534Y-13491355D01*
X18178534Y-13491355D02*
X18178534Y-13596117D01*
X18178534Y-13491355D02*
X18188058Y-13472307D01*
X18188058Y-13472307D02*
X18207105Y-13462783D01*
X18207105Y-13462783D02*
X18235677Y-13462783D01*
X18235677Y-13462783D02*
X18254725Y-13472307D01*
X18254725Y-13472307D02*
X18264248Y-13491355D01*
X18264248Y-13491355D02*
X18264248Y-13596117D01*
X18359486Y-13596117D02*
X18359486Y-13462783D01*
X18359486Y-13481831D02*
X18369010Y-13472307D01*
X18369010Y-13472307D02*
X18388058Y-13462783D01*
X18388058Y-13462783D02*
X18416629Y-13462783D01*
X18416629Y-13462783D02*
X18435677Y-13472307D01*
X18435677Y-13472307D02*
X18445201Y-13491355D01*
X18445201Y-13491355D02*
X18445201Y-13596117D01*
X18445201Y-13491355D02*
X18454725Y-13472307D01*
X18454725Y-13472307D02*
X18473772Y-13462783D01*
X18473772Y-13462783D02*
X18502344Y-13462783D01*
X18502344Y-13462783D02*
X18521391Y-13472307D01*
X18521391Y-13472307D02*
X18530915Y-13491355D01*
X18530915Y-13491355D02*
X18530915Y-13596117D01*
X18921391Y-13386593D02*
X18749963Y-13643736D01*
X19178534Y-13396117D02*
X19197582Y-13396117D01*
X19197582Y-13396117D02*
X19216629Y-13405641D01*
X19216629Y-13405641D02*
X19226153Y-13415164D01*
X19226153Y-13415164D02*
X19235677Y-13434212D01*
X19235677Y-13434212D02*
X19245201Y-13472307D01*
X19245201Y-13472307D02*
X19245201Y-13519926D01*
X19245201Y-13519926D02*
X19235677Y-13558021D01*
X19235677Y-13558021D02*
X19226153Y-13577069D01*
X19226153Y-13577069D02*
X19216629Y-13586593D01*
X19216629Y-13586593D02*
X19197582Y-13596117D01*
X19197582Y-13596117D02*
X19178534Y-13596117D01*
X19178534Y-13596117D02*
X19159487Y-13586593D01*
X19159487Y-13586593D02*
X19149963Y-13577069D01*
X19149963Y-13577069D02*
X19140439Y-13558021D01*
X19140439Y-13558021D02*
X19130915Y-13519926D01*
X19130915Y-13519926D02*
X19130915Y-13472307D01*
X19130915Y-13472307D02*
X19140439Y-13434212D01*
X19140439Y-13434212D02*
X19149963Y-13415164D01*
X19149963Y-13415164D02*
X19159487Y-13405641D01*
X19159487Y-13405641D02*
X19178534Y-13396117D01*
X19330915Y-13577069D02*
X19340439Y-13586593D01*
X19340439Y-13586593D02*
X19330915Y-13596117D01*
X19330915Y-13596117D02*
X19321391Y-13586593D01*
X19321391Y-13586593D02*
X19330915Y-13577069D01*
X19330915Y-13577069D02*
X19330915Y-13596117D01*
X19464248Y-13396117D02*
X19483296Y-13396117D01*
X19483296Y-13396117D02*
X19502344Y-13405641D01*
X19502344Y-13405641D02*
X19511868Y-13415164D01*
X19511868Y-13415164D02*
X19521391Y-13434212D01*
X19521391Y-13434212D02*
X19530915Y-13472307D01*
X19530915Y-13472307D02*
X19530915Y-13519926D01*
X19530915Y-13519926D02*
X19521391Y-13558021D01*
X19521391Y-13558021D02*
X19511868Y-13577069D01*
X19511868Y-13577069D02*
X19502344Y-13586593D01*
X19502344Y-13586593D02*
X19483296Y-13596117D01*
X19483296Y-13596117D02*
X19464248Y-13596117D01*
X19464248Y-13596117D02*
X19445201Y-13586593D01*
X19445201Y-13586593D02*
X19435677Y-13577069D01*
X19435677Y-13577069D02*
X19426153Y-13558021D01*
X19426153Y-13558021D02*
X19416629Y-13519926D01*
X19416629Y-13519926D02*
X19416629Y-13472307D01*
X19416629Y-13472307D02*
X19426153Y-13434212D01*
X19426153Y-13434212D02*
X19435677Y-13415164D01*
X19435677Y-13415164D02*
X19445201Y-13405641D01*
X19445201Y-13405641D02*
X19464248Y-13396117D01*
X19597582Y-13396117D02*
X19721391Y-13396117D01*
X19721391Y-13396117D02*
X19654725Y-13472307D01*
X19654725Y-13472307D02*
X19683296Y-13472307D01*
X19683296Y-13472307D02*
X19702344Y-13481831D01*
X19702344Y-13481831D02*
X19711868Y-13491355D01*
X19711868Y-13491355D02*
X19721391Y-13510402D01*
X19721391Y-13510402D02*
X19721391Y-13558021D01*
X19721391Y-13558021D02*
X19711868Y-13577069D01*
X19711868Y-13577069D02*
X19702344Y-13586593D01*
X19702344Y-13586593D02*
X19683296Y-13596117D01*
X19683296Y-13596117D02*
X19626153Y-13596117D01*
X19626153Y-13596117D02*
X19607106Y-13586593D01*
X19607106Y-13586593D02*
X19597582Y-13577069D01*
X19788058Y-13396117D02*
X19911868Y-13396117D01*
X19911868Y-13396117D02*
X19845201Y-13472307D01*
X19845201Y-13472307D02*
X19873772Y-13472307D01*
X19873772Y-13472307D02*
X19892820Y-13481831D01*
X19892820Y-13481831D02*
X19902344Y-13491355D01*
X19902344Y-13491355D02*
X19911868Y-13510402D01*
X19911868Y-13510402D02*
X19911868Y-13558021D01*
X19911868Y-13558021D02*
X19902344Y-13577069D01*
X19902344Y-13577069D02*
X19892820Y-13586593D01*
X19892820Y-13586593D02*
X19873772Y-13596117D01*
X19873772Y-13596117D02*
X19816629Y-13596117D01*
X19816629Y-13596117D02*
X19797582Y-13586593D01*
X19797582Y-13586593D02*
X19788058Y-13577069D01*
X20092820Y-13396117D02*
X19997582Y-13396117D01*
X19997582Y-13396117D02*
X19988058Y-13491355D01*
X19988058Y-13491355D02*
X19997582Y-13481831D01*
X19997582Y-13481831D02*
X20016629Y-13472307D01*
X20016629Y-13472307D02*
X20064249Y-13472307D01*
X20064249Y-13472307D02*
X20083296Y-13481831D01*
X20083296Y-13481831D02*
X20092820Y-13491355D01*
X20092820Y-13491355D02*
X20102344Y-13510402D01*
X20102344Y-13510402D02*
X20102344Y-13558021D01*
X20102344Y-13558021D02*
X20092820Y-13577069D01*
X20092820Y-13577069D02*
X20083296Y-13586593D01*
X20083296Y-13586593D02*
X20064249Y-13596117D01*
X20064249Y-13596117D02*
X20016629Y-13596117D01*
X20016629Y-13596117D02*
X19997582Y-13586593D01*
X19997582Y-13586593D02*
X19988058Y-13577069D01*
X20178534Y-13396117D02*
X20178534Y-13434212D01*
X20254725Y-13396117D02*
X20254725Y-13434212D01*
X20549963Y-13672307D02*
X20540439Y-13662783D01*
X20540439Y-13662783D02*
X20521391Y-13634212D01*
X20521391Y-13634212D02*
X20511868Y-13615164D01*
X20511868Y-13615164D02*
X20502344Y-13586593D01*
X20502344Y-13586593D02*
X20492820Y-13538974D01*
X20492820Y-13538974D02*
X20492820Y-13500879D01*
X20492820Y-13500879D02*
X20502344Y-13453260D01*
X20502344Y-13453260D02*
X20511868Y-13424688D01*
X20511868Y-13424688D02*
X20521391Y-13405641D01*
X20521391Y-13405641D02*
X20540439Y-13377069D01*
X20540439Y-13377069D02*
X20549963Y-13367545D01*
X20616630Y-13415164D02*
X20626153Y-13405641D01*
X20626153Y-13405641D02*
X20645201Y-13396117D01*
X20645201Y-13396117D02*
X20692820Y-13396117D01*
X20692820Y-13396117D02*
X20711868Y-13405641D01*
X20711868Y-13405641D02*
X20721391Y-13415164D01*
X20721391Y-13415164D02*
X20730915Y-13434212D01*
X20730915Y-13434212D02*
X20730915Y-13453260D01*
X20730915Y-13453260D02*
X20721391Y-13481831D01*
X20721391Y-13481831D02*
X20607106Y-13596117D01*
X20607106Y-13596117D02*
X20730915Y-13596117D01*
X20969011Y-13596117D02*
X20969011Y-13396117D01*
X21054725Y-13596117D02*
X21054725Y-13491355D01*
X21054725Y-13491355D02*
X21045201Y-13472307D01*
X21045201Y-13472307D02*
X21026153Y-13462783D01*
X21026153Y-13462783D02*
X20997582Y-13462783D01*
X20997582Y-13462783D02*
X20978534Y-13472307D01*
X20978534Y-13472307D02*
X20969011Y-13481831D01*
X21178534Y-13596117D02*
X21159487Y-13586593D01*
X21159487Y-13586593D02*
X21149963Y-13577069D01*
X21149963Y-13577069D02*
X21140439Y-13558021D01*
X21140439Y-13558021D02*
X21140439Y-13500879D01*
X21140439Y-13500879D02*
X21149963Y-13481831D01*
X21149963Y-13481831D02*
X21159487Y-13472307D01*
X21159487Y-13472307D02*
X21178534Y-13462783D01*
X21178534Y-13462783D02*
X21207106Y-13462783D01*
X21207106Y-13462783D02*
X21226153Y-13472307D01*
X21226153Y-13472307D02*
X21235677Y-13481831D01*
X21235677Y-13481831D02*
X21245201Y-13500879D01*
X21245201Y-13500879D02*
X21245201Y-13558021D01*
X21245201Y-13558021D02*
X21235677Y-13577069D01*
X21235677Y-13577069D02*
X21226153Y-13586593D01*
X21226153Y-13586593D02*
X21207106Y-13596117D01*
X21207106Y-13596117D02*
X21178534Y-13596117D01*
X21359487Y-13596117D02*
X21340439Y-13586593D01*
X21340439Y-13586593D02*
X21330915Y-13567545D01*
X21330915Y-13567545D02*
X21330915Y-13396117D01*
X21511868Y-13586593D02*
X21492820Y-13596117D01*
X21492820Y-13596117D02*
X21454725Y-13596117D01*
X21454725Y-13596117D02*
X21435677Y-13586593D01*
X21435677Y-13586593D02*
X21426153Y-13567545D01*
X21426153Y-13567545D02*
X21426153Y-13491355D01*
X21426153Y-13491355D02*
X21435677Y-13472307D01*
X21435677Y-13472307D02*
X21454725Y-13462783D01*
X21454725Y-13462783D02*
X21492820Y-13462783D01*
X21492820Y-13462783D02*
X21511868Y-13472307D01*
X21511868Y-13472307D02*
X21521392Y-13491355D01*
X21521392Y-13491355D02*
X21521392Y-13510402D01*
X21521392Y-13510402D02*
X21426153Y-13529450D01*
X21597582Y-13586593D02*
X21616630Y-13596117D01*
X21616630Y-13596117D02*
X21654725Y-13596117D01*
X21654725Y-13596117D02*
X21673773Y-13586593D01*
X21673773Y-13586593D02*
X21683296Y-13567545D01*
X21683296Y-13567545D02*
X21683296Y-13558021D01*
X21683296Y-13558021D02*
X21673773Y-13538974D01*
X21673773Y-13538974D02*
X21654725Y-13529450D01*
X21654725Y-13529450D02*
X21626153Y-13529450D01*
X21626153Y-13529450D02*
X21607106Y-13519926D01*
X21607106Y-13519926D02*
X21597582Y-13500879D01*
X21597582Y-13500879D02*
X21597582Y-13491355D01*
X21597582Y-13491355D02*
X21607106Y-13472307D01*
X21607106Y-13472307D02*
X21626153Y-13462783D01*
X21626153Y-13462783D02*
X21654725Y-13462783D01*
X21654725Y-13462783D02*
X21673773Y-13472307D01*
X21749963Y-13672307D02*
X21759487Y-13662783D01*
X21759487Y-13662783D02*
X21778534Y-13634212D01*
X21778534Y-13634212D02*
X21788058Y-13615164D01*
X21788058Y-13615164D02*
X21797582Y-13586593D01*
X21797582Y-13586593D02*
X21807106Y-13538974D01*
X21807106Y-13538974D02*
X21807106Y-13500879D01*
X21807106Y-13500879D02*
X21797582Y-13453260D01*
X21797582Y-13453260D02*
X21788058Y-13424688D01*
X21788058Y-13424688D02*
X21778534Y-13405641D01*
X21778534Y-13405641D02*
X21759487Y-13377069D01*
X21759487Y-13377069D02*
X21749963Y-13367545D01*
X22111868Y-13672307D02*
X22102344Y-13662783D01*
X22102344Y-13662783D02*
X22083296Y-13634212D01*
X22083296Y-13634212D02*
X22073773Y-13615164D01*
X22073773Y-13615164D02*
X22064249Y-13586593D01*
X22064249Y-13586593D02*
X22054725Y-13538974D01*
X22054725Y-13538974D02*
X22054725Y-13500879D01*
X22054725Y-13500879D02*
X22064249Y-13453260D01*
X22064249Y-13453260D02*
X22073773Y-13424688D01*
X22073773Y-13424688D02*
X22083296Y-13405641D01*
X22083296Y-13405641D02*
X22102344Y-13377069D01*
X22102344Y-13377069D02*
X22111868Y-13367545D01*
X22188058Y-13462783D02*
X22188058Y-13596117D01*
X22188058Y-13481831D02*
X22197582Y-13472307D01*
X22197582Y-13472307D02*
X22216630Y-13462783D01*
X22216630Y-13462783D02*
X22245201Y-13462783D01*
X22245201Y-13462783D02*
X22264249Y-13472307D01*
X22264249Y-13472307D02*
X22273773Y-13491355D01*
X22273773Y-13491355D02*
X22273773Y-13596117D01*
X22397582Y-13596117D02*
X22378534Y-13586593D01*
X22378534Y-13586593D02*
X22369011Y-13577069D01*
X22369011Y-13577069D02*
X22359487Y-13558021D01*
X22359487Y-13558021D02*
X22359487Y-13500879D01*
X22359487Y-13500879D02*
X22369011Y-13481831D01*
X22369011Y-13481831D02*
X22378534Y-13472307D01*
X22378534Y-13472307D02*
X22397582Y-13462783D01*
X22397582Y-13462783D02*
X22426153Y-13462783D01*
X22426153Y-13462783D02*
X22445201Y-13472307D01*
X22445201Y-13472307D02*
X22454725Y-13481831D01*
X22454725Y-13481831D02*
X22464249Y-13500879D01*
X22464249Y-13500879D02*
X22464249Y-13558021D01*
X22464249Y-13558021D02*
X22454725Y-13577069D01*
X22454725Y-13577069D02*
X22445201Y-13586593D01*
X22445201Y-13586593D02*
X22426153Y-13596117D01*
X22426153Y-13596117D02*
X22397582Y-13596117D01*
X22521392Y-13462783D02*
X22597582Y-13462783D01*
X22549963Y-13396117D02*
X22549963Y-13567545D01*
X22549963Y-13567545D02*
X22559487Y-13586593D01*
X22559487Y-13586593D02*
X22578534Y-13596117D01*
X22578534Y-13596117D02*
X22597582Y-13596117D01*
X22816630Y-13462783D02*
X22816630Y-13662783D01*
X22816630Y-13472307D02*
X22835677Y-13462783D01*
X22835677Y-13462783D02*
X22873773Y-13462783D01*
X22873773Y-13462783D02*
X22892820Y-13472307D01*
X22892820Y-13472307D02*
X22902344Y-13481831D01*
X22902344Y-13481831D02*
X22911868Y-13500879D01*
X22911868Y-13500879D02*
X22911868Y-13558021D01*
X22911868Y-13558021D02*
X22902344Y-13577069D01*
X22902344Y-13577069D02*
X22892820Y-13586593D01*
X22892820Y-13586593D02*
X22873773Y-13596117D01*
X22873773Y-13596117D02*
X22835677Y-13596117D01*
X22835677Y-13596117D02*
X22816630Y-13586593D01*
X23026153Y-13596117D02*
X23007106Y-13586593D01*
X23007106Y-13586593D02*
X22997582Y-13567545D01*
X22997582Y-13567545D02*
X22997582Y-13396117D01*
X23188058Y-13596117D02*
X23188058Y-13491355D01*
X23188058Y-13491355D02*
X23178534Y-13472307D01*
X23178534Y-13472307D02*
X23159487Y-13462783D01*
X23159487Y-13462783D02*
X23121392Y-13462783D01*
X23121392Y-13462783D02*
X23102344Y-13472307D01*
X23188058Y-13586593D02*
X23169011Y-13596117D01*
X23169011Y-13596117D02*
X23121392Y-13596117D01*
X23121392Y-13596117D02*
X23102344Y-13586593D01*
X23102344Y-13586593D02*
X23092820Y-13567545D01*
X23092820Y-13567545D02*
X23092820Y-13548498D01*
X23092820Y-13548498D02*
X23102344Y-13529450D01*
X23102344Y-13529450D02*
X23121392Y-13519926D01*
X23121392Y-13519926D02*
X23169011Y-13519926D01*
X23169011Y-13519926D02*
X23188058Y-13510402D01*
X23254725Y-13462783D02*
X23330915Y-13462783D01*
X23283296Y-13396117D02*
X23283296Y-13567545D01*
X23283296Y-13567545D02*
X23292820Y-13586593D01*
X23292820Y-13586593D02*
X23311868Y-13596117D01*
X23311868Y-13596117D02*
X23330915Y-13596117D01*
X23473773Y-13586593D02*
X23454725Y-13596117D01*
X23454725Y-13596117D02*
X23416630Y-13596117D01*
X23416630Y-13596117D02*
X23397582Y-13586593D01*
X23397582Y-13586593D02*
X23388058Y-13567545D01*
X23388058Y-13567545D02*
X23388058Y-13491355D01*
X23388058Y-13491355D02*
X23397582Y-13472307D01*
X23397582Y-13472307D02*
X23416630Y-13462783D01*
X23416630Y-13462783D02*
X23454725Y-13462783D01*
X23454725Y-13462783D02*
X23473773Y-13472307D01*
X23473773Y-13472307D02*
X23483296Y-13491355D01*
X23483296Y-13491355D02*
X23483296Y-13510402D01*
X23483296Y-13510402D02*
X23388058Y-13529450D01*
X23654725Y-13596117D02*
X23654725Y-13396117D01*
X23654725Y-13586593D02*
X23635677Y-13596117D01*
X23635677Y-13596117D02*
X23597582Y-13596117D01*
X23597582Y-13596117D02*
X23578534Y-13586593D01*
X23578534Y-13586593D02*
X23569011Y-13577069D01*
X23569011Y-13577069D02*
X23559487Y-13558021D01*
X23559487Y-13558021D02*
X23559487Y-13500879D01*
X23559487Y-13500879D02*
X23569011Y-13481831D01*
X23569011Y-13481831D02*
X23578534Y-13472307D01*
X23578534Y-13472307D02*
X23597582Y-13462783D01*
X23597582Y-13462783D02*
X23635677Y-13462783D01*
X23635677Y-13462783D02*
X23654725Y-13472307D01*
X23730915Y-13672307D02*
X23740439Y-13662783D01*
X23740439Y-13662783D02*
X23759487Y-13634212D01*
X23759487Y-13634212D02*
X23769011Y-13615164D01*
X23769011Y-13615164D02*
X23778534Y-13586593D01*
X23778534Y-13586593D02*
X23788058Y-13538974D01*
X23788058Y-13538974D02*
X23788058Y-13500879D01*
X23788058Y-13500879D02*
X23778534Y-13453260D01*
X23778534Y-13453260D02*
X23769011Y-13424688D01*
X23769011Y-13424688D02*
X23759487Y-13405641D01*
X23759487Y-13405641D02*
X23740439Y-13377069D01*
X23740439Y-13377069D02*
X23730915Y-13367545D01*
D14*
X16974900Y-13768633D02*
G75*
G02*
X16794900Y-13768633I-90000J0D01*
G01*
X16794900Y-13768633D02*
G75*
G02*
X16974900Y-13768633I90000J0D01*
G01*
D12*
X17340439Y-13860117D02*
X17226153Y-13860117D01*
X17283296Y-13860117D02*
X17283296Y-13660117D01*
X17283296Y-13660117D02*
X17264248Y-13688688D01*
X17264248Y-13688688D02*
X17245201Y-13707736D01*
X17245201Y-13707736D02*
X17226153Y-13717260D01*
X17426153Y-13841069D02*
X17435677Y-13850593D01*
X17435677Y-13850593D02*
X17426153Y-13860117D01*
X17426153Y-13860117D02*
X17416629Y-13850593D01*
X17416629Y-13850593D02*
X17426153Y-13841069D01*
X17426153Y-13841069D02*
X17426153Y-13860117D01*
X17549963Y-13745831D02*
X17530915Y-13736307D01*
X17530915Y-13736307D02*
X17521391Y-13726783D01*
X17521391Y-13726783D02*
X17511867Y-13707736D01*
X17511867Y-13707736D02*
X17511867Y-13698212D01*
X17511867Y-13698212D02*
X17521391Y-13679164D01*
X17521391Y-13679164D02*
X17530915Y-13669641D01*
X17530915Y-13669641D02*
X17549963Y-13660117D01*
X17549963Y-13660117D02*
X17588058Y-13660117D01*
X17588058Y-13660117D02*
X17607105Y-13669641D01*
X17607105Y-13669641D02*
X17616629Y-13679164D01*
X17616629Y-13679164D02*
X17626153Y-13698212D01*
X17626153Y-13698212D02*
X17626153Y-13707736D01*
X17626153Y-13707736D02*
X17616629Y-13726783D01*
X17616629Y-13726783D02*
X17607105Y-13736307D01*
X17607105Y-13736307D02*
X17588058Y-13745831D01*
X17588058Y-13745831D02*
X17549963Y-13745831D01*
X17549963Y-13745831D02*
X17530915Y-13755355D01*
X17530915Y-13755355D02*
X17521391Y-13764879D01*
X17521391Y-13764879D02*
X17511867Y-13783926D01*
X17511867Y-13783926D02*
X17511867Y-13822021D01*
X17511867Y-13822021D02*
X17521391Y-13841069D01*
X17521391Y-13841069D02*
X17530915Y-13850593D01*
X17530915Y-13850593D02*
X17549963Y-13860117D01*
X17549963Y-13860117D02*
X17588058Y-13860117D01*
X17588058Y-13860117D02*
X17607105Y-13850593D01*
X17607105Y-13850593D02*
X17616629Y-13841069D01*
X17616629Y-13841069D02*
X17626153Y-13822021D01*
X17626153Y-13822021D02*
X17626153Y-13783926D01*
X17626153Y-13783926D02*
X17616629Y-13764879D01*
X17616629Y-13764879D02*
X17607105Y-13755355D01*
X17607105Y-13755355D02*
X17588058Y-13745831D01*
X17749963Y-13660117D02*
X17769010Y-13660117D01*
X17769010Y-13660117D02*
X17788058Y-13669641D01*
X17788058Y-13669641D02*
X17797582Y-13679164D01*
X17797582Y-13679164D02*
X17807105Y-13698212D01*
X17807105Y-13698212D02*
X17816629Y-13736307D01*
X17816629Y-13736307D02*
X17816629Y-13783926D01*
X17816629Y-13783926D02*
X17807105Y-13822021D01*
X17807105Y-13822021D02*
X17797582Y-13841069D01*
X17797582Y-13841069D02*
X17788058Y-13850593D01*
X17788058Y-13850593D02*
X17769010Y-13860117D01*
X17769010Y-13860117D02*
X17749963Y-13860117D01*
X17749963Y-13860117D02*
X17730915Y-13850593D01*
X17730915Y-13850593D02*
X17721391Y-13841069D01*
X17721391Y-13841069D02*
X17711867Y-13822021D01*
X17711867Y-13822021D02*
X17702344Y-13783926D01*
X17702344Y-13783926D02*
X17702344Y-13736307D01*
X17702344Y-13736307D02*
X17711867Y-13698212D01*
X17711867Y-13698212D02*
X17721391Y-13679164D01*
X17721391Y-13679164D02*
X17730915Y-13669641D01*
X17730915Y-13669641D02*
X17749963Y-13660117D01*
X17940439Y-13660117D02*
X17959486Y-13660117D01*
X17959486Y-13660117D02*
X17978534Y-13669641D01*
X17978534Y-13669641D02*
X17988058Y-13679164D01*
X17988058Y-13679164D02*
X17997582Y-13698212D01*
X17997582Y-13698212D02*
X18007105Y-13736307D01*
X18007105Y-13736307D02*
X18007105Y-13783926D01*
X18007105Y-13783926D02*
X17997582Y-13822021D01*
X17997582Y-13822021D02*
X17988058Y-13841069D01*
X17988058Y-13841069D02*
X17978534Y-13850593D01*
X17978534Y-13850593D02*
X17959486Y-13860117D01*
X17959486Y-13860117D02*
X17940439Y-13860117D01*
X17940439Y-13860117D02*
X17921391Y-13850593D01*
X17921391Y-13850593D02*
X17911867Y-13841069D01*
X17911867Y-13841069D02*
X17902344Y-13822021D01*
X17902344Y-13822021D02*
X17892820Y-13783926D01*
X17892820Y-13783926D02*
X17892820Y-13736307D01*
X17892820Y-13736307D02*
X17902344Y-13698212D01*
X17902344Y-13698212D02*
X17911867Y-13679164D01*
X17911867Y-13679164D02*
X17921391Y-13669641D01*
X17921391Y-13669641D02*
X17940439Y-13660117D01*
X18092820Y-13860117D02*
X18092820Y-13726783D01*
X18092820Y-13745831D02*
X18102344Y-13736307D01*
X18102344Y-13736307D02*
X18121391Y-13726783D01*
X18121391Y-13726783D02*
X18149963Y-13726783D01*
X18149963Y-13726783D02*
X18169010Y-13736307D01*
X18169010Y-13736307D02*
X18178534Y-13755355D01*
X18178534Y-13755355D02*
X18178534Y-13860117D01*
X18178534Y-13755355D02*
X18188058Y-13736307D01*
X18188058Y-13736307D02*
X18207105Y-13726783D01*
X18207105Y-13726783D02*
X18235677Y-13726783D01*
X18235677Y-13726783D02*
X18254725Y-13736307D01*
X18254725Y-13736307D02*
X18264248Y-13755355D01*
X18264248Y-13755355D02*
X18264248Y-13860117D01*
X18359486Y-13860117D02*
X18359486Y-13726783D01*
X18359486Y-13745831D02*
X18369010Y-13736307D01*
X18369010Y-13736307D02*
X18388058Y-13726783D01*
X18388058Y-13726783D02*
X18416629Y-13726783D01*
X18416629Y-13726783D02*
X18435677Y-13736307D01*
X18435677Y-13736307D02*
X18445201Y-13755355D01*
X18445201Y-13755355D02*
X18445201Y-13860117D01*
X18445201Y-13755355D02*
X18454725Y-13736307D01*
X18454725Y-13736307D02*
X18473772Y-13726783D01*
X18473772Y-13726783D02*
X18502344Y-13726783D01*
X18502344Y-13726783D02*
X18521391Y-13736307D01*
X18521391Y-13736307D02*
X18530915Y-13755355D01*
X18530915Y-13755355D02*
X18530915Y-13860117D01*
X18921391Y-13650593D02*
X18749963Y-13907736D01*
X19178534Y-13660117D02*
X19197582Y-13660117D01*
X19197582Y-13660117D02*
X19216629Y-13669641D01*
X19216629Y-13669641D02*
X19226153Y-13679164D01*
X19226153Y-13679164D02*
X19235677Y-13698212D01*
X19235677Y-13698212D02*
X19245201Y-13736307D01*
X19245201Y-13736307D02*
X19245201Y-13783926D01*
X19245201Y-13783926D02*
X19235677Y-13822021D01*
X19235677Y-13822021D02*
X19226153Y-13841069D01*
X19226153Y-13841069D02*
X19216629Y-13850593D01*
X19216629Y-13850593D02*
X19197582Y-13860117D01*
X19197582Y-13860117D02*
X19178534Y-13860117D01*
X19178534Y-13860117D02*
X19159487Y-13850593D01*
X19159487Y-13850593D02*
X19149963Y-13841069D01*
X19149963Y-13841069D02*
X19140439Y-13822021D01*
X19140439Y-13822021D02*
X19130915Y-13783926D01*
X19130915Y-13783926D02*
X19130915Y-13736307D01*
X19130915Y-13736307D02*
X19140439Y-13698212D01*
X19140439Y-13698212D02*
X19149963Y-13679164D01*
X19149963Y-13679164D02*
X19159487Y-13669641D01*
X19159487Y-13669641D02*
X19178534Y-13660117D01*
X19330915Y-13841069D02*
X19340439Y-13850593D01*
X19340439Y-13850593D02*
X19330915Y-13860117D01*
X19330915Y-13860117D02*
X19321391Y-13850593D01*
X19321391Y-13850593D02*
X19330915Y-13841069D01*
X19330915Y-13841069D02*
X19330915Y-13860117D01*
X19464248Y-13660117D02*
X19483296Y-13660117D01*
X19483296Y-13660117D02*
X19502344Y-13669641D01*
X19502344Y-13669641D02*
X19511868Y-13679164D01*
X19511868Y-13679164D02*
X19521391Y-13698212D01*
X19521391Y-13698212D02*
X19530915Y-13736307D01*
X19530915Y-13736307D02*
X19530915Y-13783926D01*
X19530915Y-13783926D02*
X19521391Y-13822021D01*
X19521391Y-13822021D02*
X19511868Y-13841069D01*
X19511868Y-13841069D02*
X19502344Y-13850593D01*
X19502344Y-13850593D02*
X19483296Y-13860117D01*
X19483296Y-13860117D02*
X19464248Y-13860117D01*
X19464248Y-13860117D02*
X19445201Y-13850593D01*
X19445201Y-13850593D02*
X19435677Y-13841069D01*
X19435677Y-13841069D02*
X19426153Y-13822021D01*
X19426153Y-13822021D02*
X19416629Y-13783926D01*
X19416629Y-13783926D02*
X19416629Y-13736307D01*
X19416629Y-13736307D02*
X19426153Y-13698212D01*
X19426153Y-13698212D02*
X19435677Y-13679164D01*
X19435677Y-13679164D02*
X19445201Y-13669641D01*
X19445201Y-13669641D02*
X19464248Y-13660117D01*
X19597582Y-13660117D02*
X19730915Y-13660117D01*
X19730915Y-13660117D02*
X19645201Y-13860117D01*
X19845201Y-13660117D02*
X19864249Y-13660117D01*
X19864249Y-13660117D02*
X19883296Y-13669641D01*
X19883296Y-13669641D02*
X19892820Y-13679164D01*
X19892820Y-13679164D02*
X19902344Y-13698212D01*
X19902344Y-13698212D02*
X19911868Y-13736307D01*
X19911868Y-13736307D02*
X19911868Y-13783926D01*
X19911868Y-13783926D02*
X19902344Y-13822021D01*
X19902344Y-13822021D02*
X19892820Y-13841069D01*
X19892820Y-13841069D02*
X19883296Y-13850593D01*
X19883296Y-13850593D02*
X19864249Y-13860117D01*
X19864249Y-13860117D02*
X19845201Y-13860117D01*
X19845201Y-13860117D02*
X19826153Y-13850593D01*
X19826153Y-13850593D02*
X19816629Y-13841069D01*
X19816629Y-13841069D02*
X19807106Y-13822021D01*
X19807106Y-13822021D02*
X19797582Y-13783926D01*
X19797582Y-13783926D02*
X19797582Y-13736307D01*
X19797582Y-13736307D02*
X19807106Y-13698212D01*
X19807106Y-13698212D02*
X19816629Y-13679164D01*
X19816629Y-13679164D02*
X19826153Y-13669641D01*
X19826153Y-13669641D02*
X19845201Y-13660117D01*
X20007106Y-13860117D02*
X20045201Y-13860117D01*
X20045201Y-13860117D02*
X20064249Y-13850593D01*
X20064249Y-13850593D02*
X20073772Y-13841069D01*
X20073772Y-13841069D02*
X20092820Y-13812498D01*
X20092820Y-13812498D02*
X20102344Y-13774402D01*
X20102344Y-13774402D02*
X20102344Y-13698212D01*
X20102344Y-13698212D02*
X20092820Y-13679164D01*
X20092820Y-13679164D02*
X20083296Y-13669641D01*
X20083296Y-13669641D02*
X20064249Y-13660117D01*
X20064249Y-13660117D02*
X20026153Y-13660117D01*
X20026153Y-13660117D02*
X20007106Y-13669641D01*
X20007106Y-13669641D02*
X19997582Y-13679164D01*
X19997582Y-13679164D02*
X19988058Y-13698212D01*
X19988058Y-13698212D02*
X19988058Y-13745831D01*
X19988058Y-13745831D02*
X19997582Y-13764879D01*
X19997582Y-13764879D02*
X20007106Y-13774402D01*
X20007106Y-13774402D02*
X20026153Y-13783926D01*
X20026153Y-13783926D02*
X20064249Y-13783926D01*
X20064249Y-13783926D02*
X20083296Y-13774402D01*
X20083296Y-13774402D02*
X20092820Y-13764879D01*
X20092820Y-13764879D02*
X20102344Y-13745831D01*
X20178534Y-13660117D02*
X20178534Y-13698212D01*
X20254725Y-13660117D02*
X20254725Y-13698212D01*
X20549963Y-13936307D02*
X20540439Y-13926783D01*
X20540439Y-13926783D02*
X20521391Y-13898212D01*
X20521391Y-13898212D02*
X20511868Y-13879164D01*
X20511868Y-13879164D02*
X20502344Y-13850593D01*
X20502344Y-13850593D02*
X20492820Y-13802974D01*
X20492820Y-13802974D02*
X20492820Y-13764879D01*
X20492820Y-13764879D02*
X20502344Y-13717260D01*
X20502344Y-13717260D02*
X20511868Y-13688688D01*
X20511868Y-13688688D02*
X20521391Y-13669641D01*
X20521391Y-13669641D02*
X20540439Y-13641069D01*
X20540439Y-13641069D02*
X20549963Y-13631545D01*
X20711868Y-13726783D02*
X20711868Y-13860117D01*
X20664249Y-13650593D02*
X20616630Y-13793450D01*
X20616630Y-13793450D02*
X20740439Y-13793450D01*
X20969011Y-13860117D02*
X20969011Y-13660117D01*
X21054725Y-13860117D02*
X21054725Y-13755355D01*
X21054725Y-13755355D02*
X21045201Y-13736307D01*
X21045201Y-13736307D02*
X21026153Y-13726783D01*
X21026153Y-13726783D02*
X20997582Y-13726783D01*
X20997582Y-13726783D02*
X20978534Y-13736307D01*
X20978534Y-13736307D02*
X20969011Y-13745831D01*
X21178534Y-13860117D02*
X21159487Y-13850593D01*
X21159487Y-13850593D02*
X21149963Y-13841069D01*
X21149963Y-13841069D02*
X21140439Y-13822021D01*
X21140439Y-13822021D02*
X21140439Y-13764879D01*
X21140439Y-13764879D02*
X21149963Y-13745831D01*
X21149963Y-13745831D02*
X21159487Y-13736307D01*
X21159487Y-13736307D02*
X21178534Y-13726783D01*
X21178534Y-13726783D02*
X21207106Y-13726783D01*
X21207106Y-13726783D02*
X21226153Y-13736307D01*
X21226153Y-13736307D02*
X21235677Y-13745831D01*
X21235677Y-13745831D02*
X21245201Y-13764879D01*
X21245201Y-13764879D02*
X21245201Y-13822021D01*
X21245201Y-13822021D02*
X21235677Y-13841069D01*
X21235677Y-13841069D02*
X21226153Y-13850593D01*
X21226153Y-13850593D02*
X21207106Y-13860117D01*
X21207106Y-13860117D02*
X21178534Y-13860117D01*
X21359487Y-13860117D02*
X21340439Y-13850593D01*
X21340439Y-13850593D02*
X21330915Y-13831545D01*
X21330915Y-13831545D02*
X21330915Y-13660117D01*
X21511868Y-13850593D02*
X21492820Y-13860117D01*
X21492820Y-13860117D02*
X21454725Y-13860117D01*
X21454725Y-13860117D02*
X21435677Y-13850593D01*
X21435677Y-13850593D02*
X21426153Y-13831545D01*
X21426153Y-13831545D02*
X21426153Y-13755355D01*
X21426153Y-13755355D02*
X21435677Y-13736307D01*
X21435677Y-13736307D02*
X21454725Y-13726783D01*
X21454725Y-13726783D02*
X21492820Y-13726783D01*
X21492820Y-13726783D02*
X21511868Y-13736307D01*
X21511868Y-13736307D02*
X21521392Y-13755355D01*
X21521392Y-13755355D02*
X21521392Y-13774402D01*
X21521392Y-13774402D02*
X21426153Y-13793450D01*
X21597582Y-13850593D02*
X21616630Y-13860117D01*
X21616630Y-13860117D02*
X21654725Y-13860117D01*
X21654725Y-13860117D02*
X21673773Y-13850593D01*
X21673773Y-13850593D02*
X21683296Y-13831545D01*
X21683296Y-13831545D02*
X21683296Y-13822021D01*
X21683296Y-13822021D02*
X21673773Y-13802974D01*
X21673773Y-13802974D02*
X21654725Y-13793450D01*
X21654725Y-13793450D02*
X21626153Y-13793450D01*
X21626153Y-13793450D02*
X21607106Y-13783926D01*
X21607106Y-13783926D02*
X21597582Y-13764879D01*
X21597582Y-13764879D02*
X21597582Y-13755355D01*
X21597582Y-13755355D02*
X21607106Y-13736307D01*
X21607106Y-13736307D02*
X21626153Y-13726783D01*
X21626153Y-13726783D02*
X21654725Y-13726783D01*
X21654725Y-13726783D02*
X21673773Y-13736307D01*
X21749963Y-13936307D02*
X21759487Y-13926783D01*
X21759487Y-13926783D02*
X21778534Y-13898212D01*
X21778534Y-13898212D02*
X21788058Y-13879164D01*
X21788058Y-13879164D02*
X21797582Y-13850593D01*
X21797582Y-13850593D02*
X21807106Y-13802974D01*
X21807106Y-13802974D02*
X21807106Y-13764879D01*
X21807106Y-13764879D02*
X21797582Y-13717260D01*
X21797582Y-13717260D02*
X21788058Y-13688688D01*
X21788058Y-13688688D02*
X21778534Y-13669641D01*
X21778534Y-13669641D02*
X21759487Y-13641069D01*
X21759487Y-13641069D02*
X21749963Y-13631545D01*
X22111868Y-13936307D02*
X22102344Y-13926783D01*
X22102344Y-13926783D02*
X22083296Y-13898212D01*
X22083296Y-13898212D02*
X22073773Y-13879164D01*
X22073773Y-13879164D02*
X22064249Y-13850593D01*
X22064249Y-13850593D02*
X22054725Y-13802974D01*
X22054725Y-13802974D02*
X22054725Y-13764879D01*
X22054725Y-13764879D02*
X22064249Y-13717260D01*
X22064249Y-13717260D02*
X22073773Y-13688688D01*
X22073773Y-13688688D02*
X22083296Y-13669641D01*
X22083296Y-13669641D02*
X22102344Y-13641069D01*
X22102344Y-13641069D02*
X22111868Y-13631545D01*
X22188058Y-13726783D02*
X22188058Y-13860117D01*
X22188058Y-13745831D02*
X22197582Y-13736307D01*
X22197582Y-13736307D02*
X22216630Y-13726783D01*
X22216630Y-13726783D02*
X22245201Y-13726783D01*
X22245201Y-13726783D02*
X22264249Y-13736307D01*
X22264249Y-13736307D02*
X22273773Y-13755355D01*
X22273773Y-13755355D02*
X22273773Y-13860117D01*
X22397582Y-13860117D02*
X22378534Y-13850593D01*
X22378534Y-13850593D02*
X22369011Y-13841069D01*
X22369011Y-13841069D02*
X22359487Y-13822021D01*
X22359487Y-13822021D02*
X22359487Y-13764879D01*
X22359487Y-13764879D02*
X22369011Y-13745831D01*
X22369011Y-13745831D02*
X22378534Y-13736307D01*
X22378534Y-13736307D02*
X22397582Y-13726783D01*
X22397582Y-13726783D02*
X22426153Y-13726783D01*
X22426153Y-13726783D02*
X22445201Y-13736307D01*
X22445201Y-13736307D02*
X22454725Y-13745831D01*
X22454725Y-13745831D02*
X22464249Y-13764879D01*
X22464249Y-13764879D02*
X22464249Y-13822021D01*
X22464249Y-13822021D02*
X22454725Y-13841069D01*
X22454725Y-13841069D02*
X22445201Y-13850593D01*
X22445201Y-13850593D02*
X22426153Y-13860117D01*
X22426153Y-13860117D02*
X22397582Y-13860117D01*
X22521392Y-13726783D02*
X22597582Y-13726783D01*
X22549963Y-13660117D02*
X22549963Y-13831545D01*
X22549963Y-13831545D02*
X22559487Y-13850593D01*
X22559487Y-13850593D02*
X22578534Y-13860117D01*
X22578534Y-13860117D02*
X22597582Y-13860117D01*
X22816630Y-13726783D02*
X22816630Y-13926783D01*
X22816630Y-13736307D02*
X22835677Y-13726783D01*
X22835677Y-13726783D02*
X22873773Y-13726783D01*
X22873773Y-13726783D02*
X22892820Y-13736307D01*
X22892820Y-13736307D02*
X22902344Y-13745831D01*
X22902344Y-13745831D02*
X22911868Y-13764879D01*
X22911868Y-13764879D02*
X22911868Y-13822021D01*
X22911868Y-13822021D02*
X22902344Y-13841069D01*
X22902344Y-13841069D02*
X22892820Y-13850593D01*
X22892820Y-13850593D02*
X22873773Y-13860117D01*
X22873773Y-13860117D02*
X22835677Y-13860117D01*
X22835677Y-13860117D02*
X22816630Y-13850593D01*
X23026153Y-13860117D02*
X23007106Y-13850593D01*
X23007106Y-13850593D02*
X22997582Y-13831545D01*
X22997582Y-13831545D02*
X22997582Y-13660117D01*
X23188058Y-13860117D02*
X23188058Y-13755355D01*
X23188058Y-13755355D02*
X23178534Y-13736307D01*
X23178534Y-13736307D02*
X23159487Y-13726783D01*
X23159487Y-13726783D02*
X23121392Y-13726783D01*
X23121392Y-13726783D02*
X23102344Y-13736307D01*
X23188058Y-13850593D02*
X23169011Y-13860117D01*
X23169011Y-13860117D02*
X23121392Y-13860117D01*
X23121392Y-13860117D02*
X23102344Y-13850593D01*
X23102344Y-13850593D02*
X23092820Y-13831545D01*
X23092820Y-13831545D02*
X23092820Y-13812498D01*
X23092820Y-13812498D02*
X23102344Y-13793450D01*
X23102344Y-13793450D02*
X23121392Y-13783926D01*
X23121392Y-13783926D02*
X23169011Y-13783926D01*
X23169011Y-13783926D02*
X23188058Y-13774402D01*
X23254725Y-13726783D02*
X23330915Y-13726783D01*
X23283296Y-13660117D02*
X23283296Y-13831545D01*
X23283296Y-13831545D02*
X23292820Y-13850593D01*
X23292820Y-13850593D02*
X23311868Y-13860117D01*
X23311868Y-13860117D02*
X23330915Y-13860117D01*
X23473773Y-13850593D02*
X23454725Y-13860117D01*
X23454725Y-13860117D02*
X23416630Y-13860117D01*
X23416630Y-13860117D02*
X23397582Y-13850593D01*
X23397582Y-13850593D02*
X23388058Y-13831545D01*
X23388058Y-13831545D02*
X23388058Y-13755355D01*
X23388058Y-13755355D02*
X23397582Y-13736307D01*
X23397582Y-13736307D02*
X23416630Y-13726783D01*
X23416630Y-13726783D02*
X23454725Y-13726783D01*
X23454725Y-13726783D02*
X23473773Y-13736307D01*
X23473773Y-13736307D02*
X23483296Y-13755355D01*
X23483296Y-13755355D02*
X23483296Y-13774402D01*
X23483296Y-13774402D02*
X23388058Y-13793450D01*
X23654725Y-13860117D02*
X23654725Y-13660117D01*
X23654725Y-13850593D02*
X23635677Y-13860117D01*
X23635677Y-13860117D02*
X23597582Y-13860117D01*
X23597582Y-13860117D02*
X23578534Y-13850593D01*
X23578534Y-13850593D02*
X23569011Y-13841069D01*
X23569011Y-13841069D02*
X23559487Y-13822021D01*
X23559487Y-13822021D02*
X23559487Y-13764879D01*
X23559487Y-13764879D02*
X23569011Y-13745831D01*
X23569011Y-13745831D02*
X23578534Y-13736307D01*
X23578534Y-13736307D02*
X23597582Y-13726783D01*
X23597582Y-13726783D02*
X23635677Y-13726783D01*
X23635677Y-13726783D02*
X23654725Y-13736307D01*
X23730915Y-13936307D02*
X23740439Y-13926783D01*
X23740439Y-13926783D02*
X23759487Y-13898212D01*
X23759487Y-13898212D02*
X23769011Y-13879164D01*
X23769011Y-13879164D02*
X23778534Y-13850593D01*
X23778534Y-13850593D02*
X23788058Y-13802974D01*
X23788058Y-13802974D02*
X23788058Y-13764879D01*
X23788058Y-13764879D02*
X23778534Y-13717260D01*
X23778534Y-13717260D02*
X23769011Y-13688688D01*
X23769011Y-13688688D02*
X23759487Y-13669641D01*
X23759487Y-13669641D02*
X23740439Y-13641069D01*
X23740439Y-13641069D02*
X23730915Y-13631545D01*
X16874900Y-13968633D02*
X16874900Y-14168633D01*
X16774900Y-14068633D02*
X16974900Y-14068633D01*
X17226153Y-13979164D02*
X17235677Y-13969641D01*
X17235677Y-13969641D02*
X17254724Y-13960117D01*
X17254724Y-13960117D02*
X17302344Y-13960117D01*
X17302344Y-13960117D02*
X17321391Y-13969641D01*
X17321391Y-13969641D02*
X17330915Y-13979164D01*
X17330915Y-13979164D02*
X17340439Y-13998212D01*
X17340439Y-13998212D02*
X17340439Y-14017260D01*
X17340439Y-14017260D02*
X17330915Y-14045831D01*
X17330915Y-14045831D02*
X17216629Y-14160117D01*
X17216629Y-14160117D02*
X17340439Y-14160117D01*
X17426153Y-14141069D02*
X17435677Y-14150593D01*
X17435677Y-14150593D02*
X17426153Y-14160117D01*
X17426153Y-14160117D02*
X17416629Y-14150593D01*
X17416629Y-14150593D02*
X17426153Y-14141069D01*
X17426153Y-14141069D02*
X17426153Y-14160117D01*
X17559486Y-13960117D02*
X17578534Y-13960117D01*
X17578534Y-13960117D02*
X17597582Y-13969641D01*
X17597582Y-13969641D02*
X17607105Y-13979164D01*
X17607105Y-13979164D02*
X17616629Y-13998212D01*
X17616629Y-13998212D02*
X17626153Y-14036307D01*
X17626153Y-14036307D02*
X17626153Y-14083926D01*
X17626153Y-14083926D02*
X17616629Y-14122021D01*
X17616629Y-14122021D02*
X17607105Y-14141069D01*
X17607105Y-14141069D02*
X17597582Y-14150593D01*
X17597582Y-14150593D02*
X17578534Y-14160117D01*
X17578534Y-14160117D02*
X17559486Y-14160117D01*
X17559486Y-14160117D02*
X17540439Y-14150593D01*
X17540439Y-14150593D02*
X17530915Y-14141069D01*
X17530915Y-14141069D02*
X17521391Y-14122021D01*
X17521391Y-14122021D02*
X17511867Y-14083926D01*
X17511867Y-14083926D02*
X17511867Y-14036307D01*
X17511867Y-14036307D02*
X17521391Y-13998212D01*
X17521391Y-13998212D02*
X17530915Y-13979164D01*
X17530915Y-13979164D02*
X17540439Y-13969641D01*
X17540439Y-13969641D02*
X17559486Y-13960117D01*
X17749963Y-13960117D02*
X17769010Y-13960117D01*
X17769010Y-13960117D02*
X17788058Y-13969641D01*
X17788058Y-13969641D02*
X17797582Y-13979164D01*
X17797582Y-13979164D02*
X17807105Y-13998212D01*
X17807105Y-13998212D02*
X17816629Y-14036307D01*
X17816629Y-14036307D02*
X17816629Y-14083926D01*
X17816629Y-14083926D02*
X17807105Y-14122021D01*
X17807105Y-14122021D02*
X17797582Y-14141069D01*
X17797582Y-14141069D02*
X17788058Y-14150593D01*
X17788058Y-14150593D02*
X17769010Y-14160117D01*
X17769010Y-14160117D02*
X17749963Y-14160117D01*
X17749963Y-14160117D02*
X17730915Y-14150593D01*
X17730915Y-14150593D02*
X17721391Y-14141069D01*
X17721391Y-14141069D02*
X17711867Y-14122021D01*
X17711867Y-14122021D02*
X17702344Y-14083926D01*
X17702344Y-14083926D02*
X17702344Y-14036307D01*
X17702344Y-14036307D02*
X17711867Y-13998212D01*
X17711867Y-13998212D02*
X17721391Y-13979164D01*
X17721391Y-13979164D02*
X17730915Y-13969641D01*
X17730915Y-13969641D02*
X17749963Y-13960117D01*
X17940439Y-13960117D02*
X17959486Y-13960117D01*
X17959486Y-13960117D02*
X17978534Y-13969641D01*
X17978534Y-13969641D02*
X17988058Y-13979164D01*
X17988058Y-13979164D02*
X17997582Y-13998212D01*
X17997582Y-13998212D02*
X18007105Y-14036307D01*
X18007105Y-14036307D02*
X18007105Y-14083926D01*
X18007105Y-14083926D02*
X17997582Y-14122021D01*
X17997582Y-14122021D02*
X17988058Y-14141069D01*
X17988058Y-14141069D02*
X17978534Y-14150593D01*
X17978534Y-14150593D02*
X17959486Y-14160117D01*
X17959486Y-14160117D02*
X17940439Y-14160117D01*
X17940439Y-14160117D02*
X17921391Y-14150593D01*
X17921391Y-14150593D02*
X17911867Y-14141069D01*
X17911867Y-14141069D02*
X17902344Y-14122021D01*
X17902344Y-14122021D02*
X17892820Y-14083926D01*
X17892820Y-14083926D02*
X17892820Y-14036307D01*
X17892820Y-14036307D02*
X17902344Y-13998212D01*
X17902344Y-13998212D02*
X17911867Y-13979164D01*
X17911867Y-13979164D02*
X17921391Y-13969641D01*
X17921391Y-13969641D02*
X17940439Y-13960117D01*
X18092820Y-14160117D02*
X18092820Y-14026783D01*
X18092820Y-14045831D02*
X18102344Y-14036307D01*
X18102344Y-14036307D02*
X18121391Y-14026783D01*
X18121391Y-14026783D02*
X18149963Y-14026783D01*
X18149963Y-14026783D02*
X18169010Y-14036307D01*
X18169010Y-14036307D02*
X18178534Y-14055355D01*
X18178534Y-14055355D02*
X18178534Y-14160117D01*
X18178534Y-14055355D02*
X18188058Y-14036307D01*
X18188058Y-14036307D02*
X18207105Y-14026783D01*
X18207105Y-14026783D02*
X18235677Y-14026783D01*
X18235677Y-14026783D02*
X18254725Y-14036307D01*
X18254725Y-14036307D02*
X18264248Y-14055355D01*
X18264248Y-14055355D02*
X18264248Y-14160117D01*
X18359486Y-14160117D02*
X18359486Y-14026783D01*
X18359486Y-14045831D02*
X18369010Y-14036307D01*
X18369010Y-14036307D02*
X18388058Y-14026783D01*
X18388058Y-14026783D02*
X18416629Y-14026783D01*
X18416629Y-14026783D02*
X18435677Y-14036307D01*
X18435677Y-14036307D02*
X18445201Y-14055355D01*
X18445201Y-14055355D02*
X18445201Y-14160117D01*
X18445201Y-14055355D02*
X18454725Y-14036307D01*
X18454725Y-14036307D02*
X18473772Y-14026783D01*
X18473772Y-14026783D02*
X18502344Y-14026783D01*
X18502344Y-14026783D02*
X18521391Y-14036307D01*
X18521391Y-14036307D02*
X18530915Y-14055355D01*
X18530915Y-14055355D02*
X18530915Y-14160117D01*
X18921391Y-13950593D02*
X18749963Y-14207736D01*
X19178534Y-13960117D02*
X19197582Y-13960117D01*
X19197582Y-13960117D02*
X19216629Y-13969641D01*
X19216629Y-13969641D02*
X19226153Y-13979164D01*
X19226153Y-13979164D02*
X19235677Y-13998212D01*
X19235677Y-13998212D02*
X19245201Y-14036307D01*
X19245201Y-14036307D02*
X19245201Y-14083926D01*
X19245201Y-14083926D02*
X19235677Y-14122021D01*
X19235677Y-14122021D02*
X19226153Y-14141069D01*
X19226153Y-14141069D02*
X19216629Y-14150593D01*
X19216629Y-14150593D02*
X19197582Y-14160117D01*
X19197582Y-14160117D02*
X19178534Y-14160117D01*
X19178534Y-14160117D02*
X19159487Y-14150593D01*
X19159487Y-14150593D02*
X19149963Y-14141069D01*
X19149963Y-14141069D02*
X19140439Y-14122021D01*
X19140439Y-14122021D02*
X19130915Y-14083926D01*
X19130915Y-14083926D02*
X19130915Y-14036307D01*
X19130915Y-14036307D02*
X19140439Y-13998212D01*
X19140439Y-13998212D02*
X19149963Y-13979164D01*
X19149963Y-13979164D02*
X19159487Y-13969641D01*
X19159487Y-13969641D02*
X19178534Y-13960117D01*
X19330915Y-14141069D02*
X19340439Y-14150593D01*
X19340439Y-14150593D02*
X19330915Y-14160117D01*
X19330915Y-14160117D02*
X19321391Y-14150593D01*
X19321391Y-14150593D02*
X19330915Y-14141069D01*
X19330915Y-14141069D02*
X19330915Y-14160117D01*
X19464248Y-13960117D02*
X19483296Y-13960117D01*
X19483296Y-13960117D02*
X19502344Y-13969641D01*
X19502344Y-13969641D02*
X19511868Y-13979164D01*
X19511868Y-13979164D02*
X19521391Y-13998212D01*
X19521391Y-13998212D02*
X19530915Y-14036307D01*
X19530915Y-14036307D02*
X19530915Y-14083926D01*
X19530915Y-14083926D02*
X19521391Y-14122021D01*
X19521391Y-14122021D02*
X19511868Y-14141069D01*
X19511868Y-14141069D02*
X19502344Y-14150593D01*
X19502344Y-14150593D02*
X19483296Y-14160117D01*
X19483296Y-14160117D02*
X19464248Y-14160117D01*
X19464248Y-14160117D02*
X19445201Y-14150593D01*
X19445201Y-14150593D02*
X19435677Y-14141069D01*
X19435677Y-14141069D02*
X19426153Y-14122021D01*
X19426153Y-14122021D02*
X19416629Y-14083926D01*
X19416629Y-14083926D02*
X19416629Y-14036307D01*
X19416629Y-14036307D02*
X19426153Y-13998212D01*
X19426153Y-13998212D02*
X19435677Y-13979164D01*
X19435677Y-13979164D02*
X19445201Y-13969641D01*
X19445201Y-13969641D02*
X19464248Y-13960117D01*
X19597582Y-13960117D02*
X19730915Y-13960117D01*
X19730915Y-13960117D02*
X19645201Y-14160117D01*
X19835677Y-14045831D02*
X19816629Y-14036307D01*
X19816629Y-14036307D02*
X19807106Y-14026783D01*
X19807106Y-14026783D02*
X19797582Y-14007736D01*
X19797582Y-14007736D02*
X19797582Y-13998212D01*
X19797582Y-13998212D02*
X19807106Y-13979164D01*
X19807106Y-13979164D02*
X19816629Y-13969641D01*
X19816629Y-13969641D02*
X19835677Y-13960117D01*
X19835677Y-13960117D02*
X19873772Y-13960117D01*
X19873772Y-13960117D02*
X19892820Y-13969641D01*
X19892820Y-13969641D02*
X19902344Y-13979164D01*
X19902344Y-13979164D02*
X19911868Y-13998212D01*
X19911868Y-13998212D02*
X19911868Y-14007736D01*
X19911868Y-14007736D02*
X19902344Y-14026783D01*
X19902344Y-14026783D02*
X19892820Y-14036307D01*
X19892820Y-14036307D02*
X19873772Y-14045831D01*
X19873772Y-14045831D02*
X19835677Y-14045831D01*
X19835677Y-14045831D02*
X19816629Y-14055355D01*
X19816629Y-14055355D02*
X19807106Y-14064879D01*
X19807106Y-14064879D02*
X19797582Y-14083926D01*
X19797582Y-14083926D02*
X19797582Y-14122021D01*
X19797582Y-14122021D02*
X19807106Y-14141069D01*
X19807106Y-14141069D02*
X19816629Y-14150593D01*
X19816629Y-14150593D02*
X19835677Y-14160117D01*
X19835677Y-14160117D02*
X19873772Y-14160117D01*
X19873772Y-14160117D02*
X19892820Y-14150593D01*
X19892820Y-14150593D02*
X19902344Y-14141069D01*
X19902344Y-14141069D02*
X19911868Y-14122021D01*
X19911868Y-14122021D02*
X19911868Y-14083926D01*
X19911868Y-14083926D02*
X19902344Y-14064879D01*
X19902344Y-14064879D02*
X19892820Y-14055355D01*
X19892820Y-14055355D02*
X19873772Y-14045831D01*
X19978534Y-13960117D02*
X20111868Y-13960117D01*
X20111868Y-13960117D02*
X20026153Y-14160117D01*
X20178534Y-13960117D02*
X20178534Y-13998212D01*
X20254725Y-13960117D02*
X20254725Y-13998212D01*
X20549963Y-14236307D02*
X20540439Y-14226783D01*
X20540439Y-14226783D02*
X20521391Y-14198212D01*
X20521391Y-14198212D02*
X20511868Y-14179164D01*
X20511868Y-14179164D02*
X20502344Y-14150593D01*
X20502344Y-14150593D02*
X20492820Y-14102974D01*
X20492820Y-14102974D02*
X20492820Y-14064879D01*
X20492820Y-14064879D02*
X20502344Y-14017260D01*
X20502344Y-14017260D02*
X20511868Y-13988688D01*
X20511868Y-13988688D02*
X20521391Y-13969641D01*
X20521391Y-13969641D02*
X20540439Y-13941069D01*
X20540439Y-13941069D02*
X20549963Y-13931545D01*
X20721391Y-13960117D02*
X20626153Y-13960117D01*
X20626153Y-13960117D02*
X20616630Y-14055355D01*
X20616630Y-14055355D02*
X20626153Y-14045831D01*
X20626153Y-14045831D02*
X20645201Y-14036307D01*
X20645201Y-14036307D02*
X20692820Y-14036307D01*
X20692820Y-14036307D02*
X20711868Y-14045831D01*
X20711868Y-14045831D02*
X20721391Y-14055355D01*
X20721391Y-14055355D02*
X20730915Y-14074402D01*
X20730915Y-14074402D02*
X20730915Y-14122021D01*
X20730915Y-14122021D02*
X20721391Y-14141069D01*
X20721391Y-14141069D02*
X20711868Y-14150593D01*
X20711868Y-14150593D02*
X20692820Y-14160117D01*
X20692820Y-14160117D02*
X20645201Y-14160117D01*
X20645201Y-14160117D02*
X20626153Y-14150593D01*
X20626153Y-14150593D02*
X20616630Y-14141069D01*
X20807106Y-13979164D02*
X20816630Y-13969641D01*
X20816630Y-13969641D02*
X20835677Y-13960117D01*
X20835677Y-13960117D02*
X20883296Y-13960117D01*
X20883296Y-13960117D02*
X20902344Y-13969641D01*
X20902344Y-13969641D02*
X20911868Y-13979164D01*
X20911868Y-13979164D02*
X20921391Y-13998212D01*
X20921391Y-13998212D02*
X20921391Y-14017260D01*
X20921391Y-14017260D02*
X20911868Y-14045831D01*
X20911868Y-14045831D02*
X20797582Y-14160117D01*
X20797582Y-14160117D02*
X20921391Y-14160117D01*
X21159487Y-14160117D02*
X21159487Y-13960117D01*
X21245201Y-14160117D02*
X21245201Y-14055355D01*
X21245201Y-14055355D02*
X21235677Y-14036307D01*
X21235677Y-14036307D02*
X21216630Y-14026783D01*
X21216630Y-14026783D02*
X21188058Y-14026783D01*
X21188058Y-14026783D02*
X21169011Y-14036307D01*
X21169011Y-14036307D02*
X21159487Y-14045831D01*
X21369011Y-14160117D02*
X21349963Y-14150593D01*
X21349963Y-14150593D02*
X21340439Y-14141069D01*
X21340439Y-14141069D02*
X21330915Y-14122021D01*
X21330915Y-14122021D02*
X21330915Y-14064879D01*
X21330915Y-14064879D02*
X21340439Y-14045831D01*
X21340439Y-14045831D02*
X21349963Y-14036307D01*
X21349963Y-14036307D02*
X21369011Y-14026783D01*
X21369011Y-14026783D02*
X21397582Y-14026783D01*
X21397582Y-14026783D02*
X21416630Y-14036307D01*
X21416630Y-14036307D02*
X21426153Y-14045831D01*
X21426153Y-14045831D02*
X21435677Y-14064879D01*
X21435677Y-14064879D02*
X21435677Y-14122021D01*
X21435677Y-14122021D02*
X21426153Y-14141069D01*
X21426153Y-14141069D02*
X21416630Y-14150593D01*
X21416630Y-14150593D02*
X21397582Y-14160117D01*
X21397582Y-14160117D02*
X21369011Y-14160117D01*
X21549963Y-14160117D02*
X21530915Y-14150593D01*
X21530915Y-14150593D02*
X21521392Y-14131545D01*
X21521392Y-14131545D02*
X21521392Y-13960117D01*
X21702344Y-14150593D02*
X21683296Y-14160117D01*
X21683296Y-14160117D02*
X21645201Y-14160117D01*
X21645201Y-14160117D02*
X21626153Y-14150593D01*
X21626153Y-14150593D02*
X21616630Y-14131545D01*
X21616630Y-14131545D02*
X21616630Y-14055355D01*
X21616630Y-14055355D02*
X21626153Y-14036307D01*
X21626153Y-14036307D02*
X21645201Y-14026783D01*
X21645201Y-14026783D02*
X21683296Y-14026783D01*
X21683296Y-14026783D02*
X21702344Y-14036307D01*
X21702344Y-14036307D02*
X21711868Y-14055355D01*
X21711868Y-14055355D02*
X21711868Y-14074402D01*
X21711868Y-14074402D02*
X21616630Y-14093450D01*
X21788058Y-14150593D02*
X21807106Y-14160117D01*
X21807106Y-14160117D02*
X21845201Y-14160117D01*
X21845201Y-14160117D02*
X21864249Y-14150593D01*
X21864249Y-14150593D02*
X21873773Y-14131545D01*
X21873773Y-14131545D02*
X21873773Y-14122021D01*
X21873773Y-14122021D02*
X21864249Y-14102974D01*
X21864249Y-14102974D02*
X21845201Y-14093450D01*
X21845201Y-14093450D02*
X21816630Y-14093450D01*
X21816630Y-14093450D02*
X21797582Y-14083926D01*
X21797582Y-14083926D02*
X21788058Y-14064879D01*
X21788058Y-14064879D02*
X21788058Y-14055355D01*
X21788058Y-14055355D02*
X21797582Y-14036307D01*
X21797582Y-14036307D02*
X21816630Y-14026783D01*
X21816630Y-14026783D02*
X21845201Y-14026783D01*
X21845201Y-14026783D02*
X21864249Y-14036307D01*
X21940439Y-14236307D02*
X21949963Y-14226783D01*
X21949963Y-14226783D02*
X21969011Y-14198212D01*
X21969011Y-14198212D02*
X21978534Y-14179164D01*
X21978534Y-14179164D02*
X21988058Y-14150593D01*
X21988058Y-14150593D02*
X21997582Y-14102974D01*
X21997582Y-14102974D02*
X21997582Y-14064879D01*
X21997582Y-14064879D02*
X21988058Y-14017260D01*
X21988058Y-14017260D02*
X21978534Y-13988688D01*
X21978534Y-13988688D02*
X21969011Y-13969641D01*
X21969011Y-13969641D02*
X21949963Y-13941069D01*
X21949963Y-13941069D02*
X21940439Y-13931545D01*
X22302344Y-14236307D02*
X22292820Y-14226783D01*
X22292820Y-14226783D02*
X22273773Y-14198212D01*
X22273773Y-14198212D02*
X22264249Y-14179164D01*
X22264249Y-14179164D02*
X22254725Y-14150593D01*
X22254725Y-14150593D02*
X22245201Y-14102974D01*
X22245201Y-14102974D02*
X22245201Y-14064879D01*
X22245201Y-14064879D02*
X22254725Y-14017260D01*
X22254725Y-14017260D02*
X22264249Y-13988688D01*
X22264249Y-13988688D02*
X22273773Y-13969641D01*
X22273773Y-13969641D02*
X22292820Y-13941069D01*
X22292820Y-13941069D02*
X22302344Y-13931545D01*
X22378534Y-14026783D02*
X22378534Y-14160117D01*
X22378534Y-14045831D02*
X22388058Y-14036307D01*
X22388058Y-14036307D02*
X22407106Y-14026783D01*
X22407106Y-14026783D02*
X22435677Y-14026783D01*
X22435677Y-14026783D02*
X22454725Y-14036307D01*
X22454725Y-14036307D02*
X22464249Y-14055355D01*
X22464249Y-14055355D02*
X22464249Y-14160117D01*
X22588058Y-14160117D02*
X22569011Y-14150593D01*
X22569011Y-14150593D02*
X22559487Y-14141069D01*
X22559487Y-14141069D02*
X22549963Y-14122021D01*
X22549963Y-14122021D02*
X22549963Y-14064879D01*
X22549963Y-14064879D02*
X22559487Y-14045831D01*
X22559487Y-14045831D02*
X22569011Y-14036307D01*
X22569011Y-14036307D02*
X22588058Y-14026783D01*
X22588058Y-14026783D02*
X22616630Y-14026783D01*
X22616630Y-14026783D02*
X22635677Y-14036307D01*
X22635677Y-14036307D02*
X22645201Y-14045831D01*
X22645201Y-14045831D02*
X22654725Y-14064879D01*
X22654725Y-14064879D02*
X22654725Y-14122021D01*
X22654725Y-14122021D02*
X22645201Y-14141069D01*
X22645201Y-14141069D02*
X22635677Y-14150593D01*
X22635677Y-14150593D02*
X22616630Y-14160117D01*
X22616630Y-14160117D02*
X22588058Y-14160117D01*
X22711868Y-14026783D02*
X22788058Y-14026783D01*
X22740439Y-13960117D02*
X22740439Y-14131545D01*
X22740439Y-14131545D02*
X22749963Y-14150593D01*
X22749963Y-14150593D02*
X22769011Y-14160117D01*
X22769011Y-14160117D02*
X22788058Y-14160117D01*
X23007106Y-14026783D02*
X23007106Y-14226783D01*
X23007106Y-14036307D02*
X23026153Y-14026783D01*
X23026153Y-14026783D02*
X23064249Y-14026783D01*
X23064249Y-14026783D02*
X23083296Y-14036307D01*
X23083296Y-14036307D02*
X23092820Y-14045831D01*
X23092820Y-14045831D02*
X23102344Y-14064879D01*
X23102344Y-14064879D02*
X23102344Y-14122021D01*
X23102344Y-14122021D02*
X23092820Y-14141069D01*
X23092820Y-14141069D02*
X23083296Y-14150593D01*
X23083296Y-14150593D02*
X23064249Y-14160117D01*
X23064249Y-14160117D02*
X23026153Y-14160117D01*
X23026153Y-14160117D02*
X23007106Y-14150593D01*
X23216630Y-14160117D02*
X23197582Y-14150593D01*
X23197582Y-14150593D02*
X23188058Y-14131545D01*
X23188058Y-14131545D02*
X23188058Y-13960117D01*
X23378534Y-14160117D02*
X23378534Y-14055355D01*
X23378534Y-14055355D02*
X23369011Y-14036307D01*
X23369011Y-14036307D02*
X23349963Y-14026783D01*
X23349963Y-14026783D02*
X23311868Y-14026783D01*
X23311868Y-14026783D02*
X23292820Y-14036307D01*
X23378534Y-14150593D02*
X23359487Y-14160117D01*
X23359487Y-14160117D02*
X23311868Y-14160117D01*
X23311868Y-14160117D02*
X23292820Y-14150593D01*
X23292820Y-14150593D02*
X23283296Y-14131545D01*
X23283296Y-14131545D02*
X23283296Y-14112498D01*
X23283296Y-14112498D02*
X23292820Y-14093450D01*
X23292820Y-14093450D02*
X23311868Y-14083926D01*
X23311868Y-14083926D02*
X23359487Y-14083926D01*
X23359487Y-14083926D02*
X23378534Y-14074402D01*
X23445201Y-14026783D02*
X23521392Y-14026783D01*
X23473773Y-13960117D02*
X23473773Y-14131545D01*
X23473773Y-14131545D02*
X23483296Y-14150593D01*
X23483296Y-14150593D02*
X23502344Y-14160117D01*
X23502344Y-14160117D02*
X23521392Y-14160117D01*
X23664249Y-14150593D02*
X23645201Y-14160117D01*
X23645201Y-14160117D02*
X23607106Y-14160117D01*
X23607106Y-14160117D02*
X23588058Y-14150593D01*
X23588058Y-14150593D02*
X23578534Y-14131545D01*
X23578534Y-14131545D02*
X23578534Y-14055355D01*
X23578534Y-14055355D02*
X23588058Y-14036307D01*
X23588058Y-14036307D02*
X23607106Y-14026783D01*
X23607106Y-14026783D02*
X23645201Y-14026783D01*
X23645201Y-14026783D02*
X23664249Y-14036307D01*
X23664249Y-14036307D02*
X23673773Y-14055355D01*
X23673773Y-14055355D02*
X23673773Y-14074402D01*
X23673773Y-14074402D02*
X23578534Y-14093450D01*
X23845201Y-14160117D02*
X23845201Y-13960117D01*
X23845201Y-14150593D02*
X23826154Y-14160117D01*
X23826154Y-14160117D02*
X23788058Y-14160117D01*
X23788058Y-14160117D02*
X23769011Y-14150593D01*
X23769011Y-14150593D02*
X23759487Y-14141069D01*
X23759487Y-14141069D02*
X23749963Y-14122021D01*
X23749963Y-14122021D02*
X23749963Y-14064879D01*
X23749963Y-14064879D02*
X23759487Y-14045831D01*
X23759487Y-14045831D02*
X23769011Y-14036307D01*
X23769011Y-14036307D02*
X23788058Y-14026783D01*
X23788058Y-14026783D02*
X23826154Y-14026783D01*
X23826154Y-14026783D02*
X23845201Y-14036307D01*
X23921392Y-14236307D02*
X23930915Y-14226783D01*
X23930915Y-14226783D02*
X23949963Y-14198212D01*
X23949963Y-14198212D02*
X23959487Y-14179164D01*
X23959487Y-14179164D02*
X23969011Y-14150593D01*
X23969011Y-14150593D02*
X23978534Y-14102974D01*
X23978534Y-14102974D02*
X23978534Y-14064879D01*
X23978534Y-14064879D02*
X23969011Y-14017260D01*
X23969011Y-14017260D02*
X23959487Y-13988688D01*
X23959487Y-13988688D02*
X23949963Y-13969641D01*
X23949963Y-13969641D02*
X23930915Y-13941069D01*
X23930915Y-13941069D02*
X23921392Y-13931545D01*
X16945611Y-14459344D02*
X16945611Y-14317922D01*
X16804189Y-14317922D01*
X16804189Y-14459344D01*
X16945611Y-14459344D01*
X17226153Y-14299164D02*
X17235677Y-14289641D01*
X17235677Y-14289641D02*
X17254724Y-14280117D01*
X17254724Y-14280117D02*
X17302344Y-14280117D01*
X17302344Y-14280117D02*
X17321391Y-14289641D01*
X17321391Y-14289641D02*
X17330915Y-14299164D01*
X17330915Y-14299164D02*
X17340439Y-14318212D01*
X17340439Y-14318212D02*
X17340439Y-14337260D01*
X17340439Y-14337260D02*
X17330915Y-14365831D01*
X17330915Y-14365831D02*
X17216629Y-14480117D01*
X17216629Y-14480117D02*
X17340439Y-14480117D01*
X17426153Y-14461069D02*
X17435677Y-14470593D01*
X17435677Y-14470593D02*
X17426153Y-14480117D01*
X17426153Y-14480117D02*
X17416629Y-14470593D01*
X17416629Y-14470593D02*
X17426153Y-14461069D01*
X17426153Y-14461069D02*
X17426153Y-14480117D01*
X17511867Y-14299164D02*
X17521391Y-14289641D01*
X17521391Y-14289641D02*
X17540439Y-14280117D01*
X17540439Y-14280117D02*
X17588058Y-14280117D01*
X17588058Y-14280117D02*
X17607105Y-14289641D01*
X17607105Y-14289641D02*
X17616629Y-14299164D01*
X17616629Y-14299164D02*
X17626153Y-14318212D01*
X17626153Y-14318212D02*
X17626153Y-14337260D01*
X17626153Y-14337260D02*
X17616629Y-14365831D01*
X17616629Y-14365831D02*
X17502344Y-14480117D01*
X17502344Y-14480117D02*
X17626153Y-14480117D01*
X17749963Y-14280117D02*
X17769010Y-14280117D01*
X17769010Y-14280117D02*
X17788058Y-14289641D01*
X17788058Y-14289641D02*
X17797582Y-14299164D01*
X17797582Y-14299164D02*
X17807105Y-14318212D01*
X17807105Y-14318212D02*
X17816629Y-14356307D01*
X17816629Y-14356307D02*
X17816629Y-14403926D01*
X17816629Y-14403926D02*
X17807105Y-14442021D01*
X17807105Y-14442021D02*
X17797582Y-14461069D01*
X17797582Y-14461069D02*
X17788058Y-14470593D01*
X17788058Y-14470593D02*
X17769010Y-14480117D01*
X17769010Y-14480117D02*
X17749963Y-14480117D01*
X17749963Y-14480117D02*
X17730915Y-14470593D01*
X17730915Y-14470593D02*
X17721391Y-14461069D01*
X17721391Y-14461069D02*
X17711867Y-14442021D01*
X17711867Y-14442021D02*
X17702344Y-14403926D01*
X17702344Y-14403926D02*
X17702344Y-14356307D01*
X17702344Y-14356307D02*
X17711867Y-14318212D01*
X17711867Y-14318212D02*
X17721391Y-14299164D01*
X17721391Y-14299164D02*
X17730915Y-14289641D01*
X17730915Y-14289641D02*
X17749963Y-14280117D01*
X17940439Y-14280117D02*
X17959486Y-14280117D01*
X17959486Y-14280117D02*
X17978534Y-14289641D01*
X17978534Y-14289641D02*
X17988058Y-14299164D01*
X17988058Y-14299164D02*
X17997582Y-14318212D01*
X17997582Y-14318212D02*
X18007105Y-14356307D01*
X18007105Y-14356307D02*
X18007105Y-14403926D01*
X18007105Y-14403926D02*
X17997582Y-14442021D01*
X17997582Y-14442021D02*
X17988058Y-14461069D01*
X17988058Y-14461069D02*
X17978534Y-14470593D01*
X17978534Y-14470593D02*
X17959486Y-14480117D01*
X17959486Y-14480117D02*
X17940439Y-14480117D01*
X17940439Y-14480117D02*
X17921391Y-14470593D01*
X17921391Y-14470593D02*
X17911867Y-14461069D01*
X17911867Y-14461069D02*
X17902344Y-14442021D01*
X17902344Y-14442021D02*
X17892820Y-14403926D01*
X17892820Y-14403926D02*
X17892820Y-14356307D01*
X17892820Y-14356307D02*
X17902344Y-14318212D01*
X17902344Y-14318212D02*
X17911867Y-14299164D01*
X17911867Y-14299164D02*
X17921391Y-14289641D01*
X17921391Y-14289641D02*
X17940439Y-14280117D01*
X18092820Y-14480117D02*
X18092820Y-14346783D01*
X18092820Y-14365831D02*
X18102344Y-14356307D01*
X18102344Y-14356307D02*
X18121391Y-14346783D01*
X18121391Y-14346783D02*
X18149963Y-14346783D01*
X18149963Y-14346783D02*
X18169010Y-14356307D01*
X18169010Y-14356307D02*
X18178534Y-14375355D01*
X18178534Y-14375355D02*
X18178534Y-14480117D01*
X18178534Y-14375355D02*
X18188058Y-14356307D01*
X18188058Y-14356307D02*
X18207105Y-14346783D01*
X18207105Y-14346783D02*
X18235677Y-14346783D01*
X18235677Y-14346783D02*
X18254725Y-14356307D01*
X18254725Y-14356307D02*
X18264248Y-14375355D01*
X18264248Y-14375355D02*
X18264248Y-14480117D01*
X18359486Y-14480117D02*
X18359486Y-14346783D01*
X18359486Y-14365831D02*
X18369010Y-14356307D01*
X18369010Y-14356307D02*
X18388058Y-14346783D01*
X18388058Y-14346783D02*
X18416629Y-14346783D01*
X18416629Y-14346783D02*
X18435677Y-14356307D01*
X18435677Y-14356307D02*
X18445201Y-14375355D01*
X18445201Y-14375355D02*
X18445201Y-14480117D01*
X18445201Y-14375355D02*
X18454725Y-14356307D01*
X18454725Y-14356307D02*
X18473772Y-14346783D01*
X18473772Y-14346783D02*
X18502344Y-14346783D01*
X18502344Y-14346783D02*
X18521391Y-14356307D01*
X18521391Y-14356307D02*
X18530915Y-14375355D01*
X18530915Y-14375355D02*
X18530915Y-14480117D01*
X18921391Y-14270593D02*
X18749963Y-14527736D01*
X19178534Y-14280117D02*
X19197582Y-14280117D01*
X19197582Y-14280117D02*
X19216629Y-14289641D01*
X19216629Y-14289641D02*
X19226153Y-14299164D01*
X19226153Y-14299164D02*
X19235677Y-14318212D01*
X19235677Y-14318212D02*
X19245201Y-14356307D01*
X19245201Y-14356307D02*
X19245201Y-14403926D01*
X19245201Y-14403926D02*
X19235677Y-14442021D01*
X19235677Y-14442021D02*
X19226153Y-14461069D01*
X19226153Y-14461069D02*
X19216629Y-14470593D01*
X19216629Y-14470593D02*
X19197582Y-14480117D01*
X19197582Y-14480117D02*
X19178534Y-14480117D01*
X19178534Y-14480117D02*
X19159487Y-14470593D01*
X19159487Y-14470593D02*
X19149963Y-14461069D01*
X19149963Y-14461069D02*
X19140439Y-14442021D01*
X19140439Y-14442021D02*
X19130915Y-14403926D01*
X19130915Y-14403926D02*
X19130915Y-14356307D01*
X19130915Y-14356307D02*
X19140439Y-14318212D01*
X19140439Y-14318212D02*
X19149963Y-14299164D01*
X19149963Y-14299164D02*
X19159487Y-14289641D01*
X19159487Y-14289641D02*
X19178534Y-14280117D01*
X19330915Y-14461069D02*
X19340439Y-14470593D01*
X19340439Y-14470593D02*
X19330915Y-14480117D01*
X19330915Y-14480117D02*
X19321391Y-14470593D01*
X19321391Y-14470593D02*
X19330915Y-14461069D01*
X19330915Y-14461069D02*
X19330915Y-14480117D01*
X19464248Y-14280117D02*
X19483296Y-14280117D01*
X19483296Y-14280117D02*
X19502344Y-14289641D01*
X19502344Y-14289641D02*
X19511868Y-14299164D01*
X19511868Y-14299164D02*
X19521391Y-14318212D01*
X19521391Y-14318212D02*
X19530915Y-14356307D01*
X19530915Y-14356307D02*
X19530915Y-14403926D01*
X19530915Y-14403926D02*
X19521391Y-14442021D01*
X19521391Y-14442021D02*
X19511868Y-14461069D01*
X19511868Y-14461069D02*
X19502344Y-14470593D01*
X19502344Y-14470593D02*
X19483296Y-14480117D01*
X19483296Y-14480117D02*
X19464248Y-14480117D01*
X19464248Y-14480117D02*
X19445201Y-14470593D01*
X19445201Y-14470593D02*
X19435677Y-14461069D01*
X19435677Y-14461069D02*
X19426153Y-14442021D01*
X19426153Y-14442021D02*
X19416629Y-14403926D01*
X19416629Y-14403926D02*
X19416629Y-14356307D01*
X19416629Y-14356307D02*
X19426153Y-14318212D01*
X19426153Y-14318212D02*
X19435677Y-14299164D01*
X19435677Y-14299164D02*
X19445201Y-14289641D01*
X19445201Y-14289641D02*
X19464248Y-14280117D01*
X19645201Y-14365831D02*
X19626153Y-14356307D01*
X19626153Y-14356307D02*
X19616629Y-14346783D01*
X19616629Y-14346783D02*
X19607106Y-14327736D01*
X19607106Y-14327736D02*
X19607106Y-14318212D01*
X19607106Y-14318212D02*
X19616629Y-14299164D01*
X19616629Y-14299164D02*
X19626153Y-14289641D01*
X19626153Y-14289641D02*
X19645201Y-14280117D01*
X19645201Y-14280117D02*
X19683296Y-14280117D01*
X19683296Y-14280117D02*
X19702344Y-14289641D01*
X19702344Y-14289641D02*
X19711868Y-14299164D01*
X19711868Y-14299164D02*
X19721391Y-14318212D01*
X19721391Y-14318212D02*
X19721391Y-14327736D01*
X19721391Y-14327736D02*
X19711868Y-14346783D01*
X19711868Y-14346783D02*
X19702344Y-14356307D01*
X19702344Y-14356307D02*
X19683296Y-14365831D01*
X19683296Y-14365831D02*
X19645201Y-14365831D01*
X19645201Y-14365831D02*
X19626153Y-14375355D01*
X19626153Y-14375355D02*
X19616629Y-14384879D01*
X19616629Y-14384879D02*
X19607106Y-14403926D01*
X19607106Y-14403926D02*
X19607106Y-14442021D01*
X19607106Y-14442021D02*
X19616629Y-14461069D01*
X19616629Y-14461069D02*
X19626153Y-14470593D01*
X19626153Y-14470593D02*
X19645201Y-14480117D01*
X19645201Y-14480117D02*
X19683296Y-14480117D01*
X19683296Y-14480117D02*
X19702344Y-14470593D01*
X19702344Y-14470593D02*
X19711868Y-14461069D01*
X19711868Y-14461069D02*
X19721391Y-14442021D01*
X19721391Y-14442021D02*
X19721391Y-14403926D01*
X19721391Y-14403926D02*
X19711868Y-14384879D01*
X19711868Y-14384879D02*
X19702344Y-14375355D01*
X19702344Y-14375355D02*
X19683296Y-14365831D01*
X19892820Y-14280117D02*
X19854725Y-14280117D01*
X19854725Y-14280117D02*
X19835677Y-14289641D01*
X19835677Y-14289641D02*
X19826153Y-14299164D01*
X19826153Y-14299164D02*
X19807106Y-14327736D01*
X19807106Y-14327736D02*
X19797582Y-14365831D01*
X19797582Y-14365831D02*
X19797582Y-14442021D01*
X19797582Y-14442021D02*
X19807106Y-14461069D01*
X19807106Y-14461069D02*
X19816629Y-14470593D01*
X19816629Y-14470593D02*
X19835677Y-14480117D01*
X19835677Y-14480117D02*
X19873772Y-14480117D01*
X19873772Y-14480117D02*
X19892820Y-14470593D01*
X19892820Y-14470593D02*
X19902344Y-14461069D01*
X19902344Y-14461069D02*
X19911868Y-14442021D01*
X19911868Y-14442021D02*
X19911868Y-14394402D01*
X19911868Y-14394402D02*
X19902344Y-14375355D01*
X19902344Y-14375355D02*
X19892820Y-14365831D01*
X19892820Y-14365831D02*
X19873772Y-14356307D01*
X19873772Y-14356307D02*
X19835677Y-14356307D01*
X19835677Y-14356307D02*
X19816629Y-14365831D01*
X19816629Y-14365831D02*
X19807106Y-14375355D01*
X19807106Y-14375355D02*
X19797582Y-14394402D01*
X20083296Y-14280117D02*
X20045201Y-14280117D01*
X20045201Y-14280117D02*
X20026153Y-14289641D01*
X20026153Y-14289641D02*
X20016629Y-14299164D01*
X20016629Y-14299164D02*
X19997582Y-14327736D01*
X19997582Y-14327736D02*
X19988058Y-14365831D01*
X19988058Y-14365831D02*
X19988058Y-14442021D01*
X19988058Y-14442021D02*
X19997582Y-14461069D01*
X19997582Y-14461069D02*
X20007106Y-14470593D01*
X20007106Y-14470593D02*
X20026153Y-14480117D01*
X20026153Y-14480117D02*
X20064249Y-14480117D01*
X20064249Y-14480117D02*
X20083296Y-14470593D01*
X20083296Y-14470593D02*
X20092820Y-14461069D01*
X20092820Y-14461069D02*
X20102344Y-14442021D01*
X20102344Y-14442021D02*
X20102344Y-14394402D01*
X20102344Y-14394402D02*
X20092820Y-14375355D01*
X20092820Y-14375355D02*
X20083296Y-14365831D01*
X20083296Y-14365831D02*
X20064249Y-14356307D01*
X20064249Y-14356307D02*
X20026153Y-14356307D01*
X20026153Y-14356307D02*
X20007106Y-14365831D01*
X20007106Y-14365831D02*
X19997582Y-14375355D01*
X19997582Y-14375355D02*
X19988058Y-14394402D01*
X20178534Y-14280117D02*
X20178534Y-14318212D01*
X20254725Y-14280117D02*
X20254725Y-14318212D01*
X20549963Y-14556307D02*
X20540439Y-14546783D01*
X20540439Y-14546783D02*
X20521391Y-14518212D01*
X20521391Y-14518212D02*
X20511868Y-14499164D01*
X20511868Y-14499164D02*
X20502344Y-14470593D01*
X20502344Y-14470593D02*
X20492820Y-14422974D01*
X20492820Y-14422974D02*
X20492820Y-14384879D01*
X20492820Y-14384879D02*
X20502344Y-14337260D01*
X20502344Y-14337260D02*
X20511868Y-14308688D01*
X20511868Y-14308688D02*
X20521391Y-14289641D01*
X20521391Y-14289641D02*
X20540439Y-14261069D01*
X20540439Y-14261069D02*
X20549963Y-14251545D01*
X20607106Y-14280117D02*
X20730915Y-14280117D01*
X20730915Y-14280117D02*
X20664249Y-14356307D01*
X20664249Y-14356307D02*
X20692820Y-14356307D01*
X20692820Y-14356307D02*
X20711868Y-14365831D01*
X20711868Y-14365831D02*
X20721391Y-14375355D01*
X20721391Y-14375355D02*
X20730915Y-14394402D01*
X20730915Y-14394402D02*
X20730915Y-14442021D01*
X20730915Y-14442021D02*
X20721391Y-14461069D01*
X20721391Y-14461069D02*
X20711868Y-14470593D01*
X20711868Y-14470593D02*
X20692820Y-14480117D01*
X20692820Y-14480117D02*
X20635677Y-14480117D01*
X20635677Y-14480117D02*
X20616630Y-14470593D01*
X20616630Y-14470593D02*
X20607106Y-14461069D01*
X20969011Y-14480117D02*
X20969011Y-14280117D01*
X21054725Y-14480117D02*
X21054725Y-14375355D01*
X21054725Y-14375355D02*
X21045201Y-14356307D01*
X21045201Y-14356307D02*
X21026153Y-14346783D01*
X21026153Y-14346783D02*
X20997582Y-14346783D01*
X20997582Y-14346783D02*
X20978534Y-14356307D01*
X20978534Y-14356307D02*
X20969011Y-14365831D01*
X21178534Y-14480117D02*
X21159487Y-14470593D01*
X21159487Y-14470593D02*
X21149963Y-14461069D01*
X21149963Y-14461069D02*
X21140439Y-14442021D01*
X21140439Y-14442021D02*
X21140439Y-14384879D01*
X21140439Y-14384879D02*
X21149963Y-14365831D01*
X21149963Y-14365831D02*
X21159487Y-14356307D01*
X21159487Y-14356307D02*
X21178534Y-14346783D01*
X21178534Y-14346783D02*
X21207106Y-14346783D01*
X21207106Y-14346783D02*
X21226153Y-14356307D01*
X21226153Y-14356307D02*
X21235677Y-14365831D01*
X21235677Y-14365831D02*
X21245201Y-14384879D01*
X21245201Y-14384879D02*
X21245201Y-14442021D01*
X21245201Y-14442021D02*
X21235677Y-14461069D01*
X21235677Y-14461069D02*
X21226153Y-14470593D01*
X21226153Y-14470593D02*
X21207106Y-14480117D01*
X21207106Y-14480117D02*
X21178534Y-14480117D01*
X21359487Y-14480117D02*
X21340439Y-14470593D01*
X21340439Y-14470593D02*
X21330915Y-14451545D01*
X21330915Y-14451545D02*
X21330915Y-14280117D01*
X21511868Y-14470593D02*
X21492820Y-14480117D01*
X21492820Y-14480117D02*
X21454725Y-14480117D01*
X21454725Y-14480117D02*
X21435677Y-14470593D01*
X21435677Y-14470593D02*
X21426153Y-14451545D01*
X21426153Y-14451545D02*
X21426153Y-14375355D01*
X21426153Y-14375355D02*
X21435677Y-14356307D01*
X21435677Y-14356307D02*
X21454725Y-14346783D01*
X21454725Y-14346783D02*
X21492820Y-14346783D01*
X21492820Y-14346783D02*
X21511868Y-14356307D01*
X21511868Y-14356307D02*
X21521392Y-14375355D01*
X21521392Y-14375355D02*
X21521392Y-14394402D01*
X21521392Y-14394402D02*
X21426153Y-14413450D01*
X21597582Y-14470593D02*
X21616630Y-14480117D01*
X21616630Y-14480117D02*
X21654725Y-14480117D01*
X21654725Y-14480117D02*
X21673773Y-14470593D01*
X21673773Y-14470593D02*
X21683296Y-14451545D01*
X21683296Y-14451545D02*
X21683296Y-14442021D01*
X21683296Y-14442021D02*
X21673773Y-14422974D01*
X21673773Y-14422974D02*
X21654725Y-14413450D01*
X21654725Y-14413450D02*
X21626153Y-14413450D01*
X21626153Y-14413450D02*
X21607106Y-14403926D01*
X21607106Y-14403926D02*
X21597582Y-14384879D01*
X21597582Y-14384879D02*
X21597582Y-14375355D01*
X21597582Y-14375355D02*
X21607106Y-14356307D01*
X21607106Y-14356307D02*
X21626153Y-14346783D01*
X21626153Y-14346783D02*
X21654725Y-14346783D01*
X21654725Y-14346783D02*
X21673773Y-14356307D01*
X21749963Y-14556307D02*
X21759487Y-14546783D01*
X21759487Y-14546783D02*
X21778534Y-14518212D01*
X21778534Y-14518212D02*
X21788058Y-14499164D01*
X21788058Y-14499164D02*
X21797582Y-14470593D01*
X21797582Y-14470593D02*
X21807106Y-14422974D01*
X21807106Y-14422974D02*
X21807106Y-14384879D01*
X21807106Y-14384879D02*
X21797582Y-14337260D01*
X21797582Y-14337260D02*
X21788058Y-14308688D01*
X21788058Y-14308688D02*
X21778534Y-14289641D01*
X21778534Y-14289641D02*
X21759487Y-14261069D01*
X21759487Y-14261069D02*
X21749963Y-14251545D01*
X22111868Y-14556307D02*
X22102344Y-14546783D01*
X22102344Y-14546783D02*
X22083296Y-14518212D01*
X22083296Y-14518212D02*
X22073773Y-14499164D01*
X22073773Y-14499164D02*
X22064249Y-14470593D01*
X22064249Y-14470593D02*
X22054725Y-14422974D01*
X22054725Y-14422974D02*
X22054725Y-14384879D01*
X22054725Y-14384879D02*
X22064249Y-14337260D01*
X22064249Y-14337260D02*
X22073773Y-14308688D01*
X22073773Y-14308688D02*
X22083296Y-14289641D01*
X22083296Y-14289641D02*
X22102344Y-14261069D01*
X22102344Y-14261069D02*
X22111868Y-14251545D01*
X22188058Y-14346783D02*
X22188058Y-14480117D01*
X22188058Y-14365831D02*
X22197582Y-14356307D01*
X22197582Y-14356307D02*
X22216630Y-14346783D01*
X22216630Y-14346783D02*
X22245201Y-14346783D01*
X22245201Y-14346783D02*
X22264249Y-14356307D01*
X22264249Y-14356307D02*
X22273773Y-14375355D01*
X22273773Y-14375355D02*
X22273773Y-14480117D01*
X22397582Y-14480117D02*
X22378534Y-14470593D01*
X22378534Y-14470593D02*
X22369011Y-14461069D01*
X22369011Y-14461069D02*
X22359487Y-14442021D01*
X22359487Y-14442021D02*
X22359487Y-14384879D01*
X22359487Y-14384879D02*
X22369011Y-14365831D01*
X22369011Y-14365831D02*
X22378534Y-14356307D01*
X22378534Y-14356307D02*
X22397582Y-14346783D01*
X22397582Y-14346783D02*
X22426153Y-14346783D01*
X22426153Y-14346783D02*
X22445201Y-14356307D01*
X22445201Y-14356307D02*
X22454725Y-14365831D01*
X22454725Y-14365831D02*
X22464249Y-14384879D01*
X22464249Y-14384879D02*
X22464249Y-14442021D01*
X22464249Y-14442021D02*
X22454725Y-14461069D01*
X22454725Y-14461069D02*
X22445201Y-14470593D01*
X22445201Y-14470593D02*
X22426153Y-14480117D01*
X22426153Y-14480117D02*
X22397582Y-14480117D01*
X22521392Y-14346783D02*
X22597582Y-14346783D01*
X22549963Y-14280117D02*
X22549963Y-14451545D01*
X22549963Y-14451545D02*
X22559487Y-14470593D01*
X22559487Y-14470593D02*
X22578534Y-14480117D01*
X22578534Y-14480117D02*
X22597582Y-14480117D01*
X22816630Y-14346783D02*
X22816630Y-14546783D01*
X22816630Y-14356307D02*
X22835677Y-14346783D01*
X22835677Y-14346783D02*
X22873773Y-14346783D01*
X22873773Y-14346783D02*
X22892820Y-14356307D01*
X22892820Y-14356307D02*
X22902344Y-14365831D01*
X22902344Y-14365831D02*
X22911868Y-14384879D01*
X22911868Y-14384879D02*
X22911868Y-14442021D01*
X22911868Y-14442021D02*
X22902344Y-14461069D01*
X22902344Y-14461069D02*
X22892820Y-14470593D01*
X22892820Y-14470593D02*
X22873773Y-14480117D01*
X22873773Y-14480117D02*
X22835677Y-14480117D01*
X22835677Y-14480117D02*
X22816630Y-14470593D01*
X23026153Y-14480117D02*
X23007106Y-14470593D01*
X23007106Y-14470593D02*
X22997582Y-14451545D01*
X22997582Y-14451545D02*
X22997582Y-14280117D01*
X23188058Y-14480117D02*
X23188058Y-14375355D01*
X23188058Y-14375355D02*
X23178534Y-14356307D01*
X23178534Y-14356307D02*
X23159487Y-14346783D01*
X23159487Y-14346783D02*
X23121392Y-14346783D01*
X23121392Y-14346783D02*
X23102344Y-14356307D01*
X23188058Y-14470593D02*
X23169011Y-14480117D01*
X23169011Y-14480117D02*
X23121392Y-14480117D01*
X23121392Y-14480117D02*
X23102344Y-14470593D01*
X23102344Y-14470593D02*
X23092820Y-14451545D01*
X23092820Y-14451545D02*
X23092820Y-14432498D01*
X23092820Y-14432498D02*
X23102344Y-14413450D01*
X23102344Y-14413450D02*
X23121392Y-14403926D01*
X23121392Y-14403926D02*
X23169011Y-14403926D01*
X23169011Y-14403926D02*
X23188058Y-14394402D01*
X23254725Y-14346783D02*
X23330915Y-14346783D01*
X23283296Y-14280117D02*
X23283296Y-14451545D01*
X23283296Y-14451545D02*
X23292820Y-14470593D01*
X23292820Y-14470593D02*
X23311868Y-14480117D01*
X23311868Y-14480117D02*
X23330915Y-14480117D01*
X23473773Y-14470593D02*
X23454725Y-14480117D01*
X23454725Y-14480117D02*
X23416630Y-14480117D01*
X23416630Y-14480117D02*
X23397582Y-14470593D01*
X23397582Y-14470593D02*
X23388058Y-14451545D01*
X23388058Y-14451545D02*
X23388058Y-14375355D01*
X23388058Y-14375355D02*
X23397582Y-14356307D01*
X23397582Y-14356307D02*
X23416630Y-14346783D01*
X23416630Y-14346783D02*
X23454725Y-14346783D01*
X23454725Y-14346783D02*
X23473773Y-14356307D01*
X23473773Y-14356307D02*
X23483296Y-14375355D01*
X23483296Y-14375355D02*
X23483296Y-14394402D01*
X23483296Y-14394402D02*
X23388058Y-14413450D01*
X23654725Y-14480117D02*
X23654725Y-14280117D01*
X23654725Y-14470593D02*
X23635677Y-14480117D01*
X23635677Y-14480117D02*
X23597582Y-14480117D01*
X23597582Y-14480117D02*
X23578534Y-14470593D01*
X23578534Y-14470593D02*
X23569011Y-14461069D01*
X23569011Y-14461069D02*
X23559487Y-14442021D01*
X23559487Y-14442021D02*
X23559487Y-14384879D01*
X23559487Y-14384879D02*
X23569011Y-14365831D01*
X23569011Y-14365831D02*
X23578534Y-14356307D01*
X23578534Y-14356307D02*
X23597582Y-14346783D01*
X23597582Y-14346783D02*
X23635677Y-14346783D01*
X23635677Y-14346783D02*
X23654725Y-14356307D01*
X23730915Y-14556307D02*
X23740439Y-14546783D01*
X23740439Y-14546783D02*
X23759487Y-14518212D01*
X23759487Y-14518212D02*
X23769011Y-14499164D01*
X23769011Y-14499164D02*
X23778534Y-14470593D01*
X23778534Y-14470593D02*
X23788058Y-14422974D01*
X23788058Y-14422974D02*
X23788058Y-14384879D01*
X23788058Y-14384879D02*
X23778534Y-14337260D01*
X23778534Y-14337260D02*
X23769011Y-14308688D01*
X23769011Y-14308688D02*
X23759487Y-14289641D01*
X23759487Y-14289641D02*
X23740439Y-14261069D01*
X23740439Y-14261069D02*
X23730915Y-14251545D01*
X16874900Y-14808633D02*
X16974900Y-14708633D01*
X16874900Y-14608633D01*
X16774900Y-14708633D01*
X16874900Y-14808633D01*
X17216629Y-14600117D02*
X17340439Y-14600117D01*
X17340439Y-14600117D02*
X17273772Y-14676307D01*
X17273772Y-14676307D02*
X17302344Y-14676307D01*
X17302344Y-14676307D02*
X17321391Y-14685831D01*
X17321391Y-14685831D02*
X17330915Y-14695355D01*
X17330915Y-14695355D02*
X17340439Y-14714402D01*
X17340439Y-14714402D02*
X17340439Y-14762021D01*
X17340439Y-14762021D02*
X17330915Y-14781069D01*
X17330915Y-14781069D02*
X17321391Y-14790593D01*
X17321391Y-14790593D02*
X17302344Y-14800117D01*
X17302344Y-14800117D02*
X17245201Y-14800117D01*
X17245201Y-14800117D02*
X17226153Y-14790593D01*
X17226153Y-14790593D02*
X17216629Y-14781069D01*
X17426153Y-14781069D02*
X17435677Y-14790593D01*
X17435677Y-14790593D02*
X17426153Y-14800117D01*
X17426153Y-14800117D02*
X17416629Y-14790593D01*
X17416629Y-14790593D02*
X17426153Y-14781069D01*
X17426153Y-14781069D02*
X17426153Y-14800117D01*
X17559486Y-14600117D02*
X17578534Y-14600117D01*
X17578534Y-14600117D02*
X17597582Y-14609641D01*
X17597582Y-14609641D02*
X17607105Y-14619164D01*
X17607105Y-14619164D02*
X17616629Y-14638212D01*
X17616629Y-14638212D02*
X17626153Y-14676307D01*
X17626153Y-14676307D02*
X17626153Y-14723926D01*
X17626153Y-14723926D02*
X17616629Y-14762021D01*
X17616629Y-14762021D02*
X17607105Y-14781069D01*
X17607105Y-14781069D02*
X17597582Y-14790593D01*
X17597582Y-14790593D02*
X17578534Y-14800117D01*
X17578534Y-14800117D02*
X17559486Y-14800117D01*
X17559486Y-14800117D02*
X17540439Y-14790593D01*
X17540439Y-14790593D02*
X17530915Y-14781069D01*
X17530915Y-14781069D02*
X17521391Y-14762021D01*
X17521391Y-14762021D02*
X17511867Y-14723926D01*
X17511867Y-14723926D02*
X17511867Y-14676307D01*
X17511867Y-14676307D02*
X17521391Y-14638212D01*
X17521391Y-14638212D02*
X17530915Y-14619164D01*
X17530915Y-14619164D02*
X17540439Y-14609641D01*
X17540439Y-14609641D02*
X17559486Y-14600117D01*
X17749963Y-14600117D02*
X17769010Y-14600117D01*
X17769010Y-14600117D02*
X17788058Y-14609641D01*
X17788058Y-14609641D02*
X17797582Y-14619164D01*
X17797582Y-14619164D02*
X17807105Y-14638212D01*
X17807105Y-14638212D02*
X17816629Y-14676307D01*
X17816629Y-14676307D02*
X17816629Y-14723926D01*
X17816629Y-14723926D02*
X17807105Y-14762021D01*
X17807105Y-14762021D02*
X17797582Y-14781069D01*
X17797582Y-14781069D02*
X17788058Y-14790593D01*
X17788058Y-14790593D02*
X17769010Y-14800117D01*
X17769010Y-14800117D02*
X17749963Y-14800117D01*
X17749963Y-14800117D02*
X17730915Y-14790593D01*
X17730915Y-14790593D02*
X17721391Y-14781069D01*
X17721391Y-14781069D02*
X17711867Y-14762021D01*
X17711867Y-14762021D02*
X17702344Y-14723926D01*
X17702344Y-14723926D02*
X17702344Y-14676307D01*
X17702344Y-14676307D02*
X17711867Y-14638212D01*
X17711867Y-14638212D02*
X17721391Y-14619164D01*
X17721391Y-14619164D02*
X17730915Y-14609641D01*
X17730915Y-14609641D02*
X17749963Y-14600117D01*
X17940439Y-14600117D02*
X17959486Y-14600117D01*
X17959486Y-14600117D02*
X17978534Y-14609641D01*
X17978534Y-14609641D02*
X17988058Y-14619164D01*
X17988058Y-14619164D02*
X17997582Y-14638212D01*
X17997582Y-14638212D02*
X18007105Y-14676307D01*
X18007105Y-14676307D02*
X18007105Y-14723926D01*
X18007105Y-14723926D02*
X17997582Y-14762021D01*
X17997582Y-14762021D02*
X17988058Y-14781069D01*
X17988058Y-14781069D02*
X17978534Y-14790593D01*
X17978534Y-14790593D02*
X17959486Y-14800117D01*
X17959486Y-14800117D02*
X17940439Y-14800117D01*
X17940439Y-14800117D02*
X17921391Y-14790593D01*
X17921391Y-14790593D02*
X17911867Y-14781069D01*
X17911867Y-14781069D02*
X17902344Y-14762021D01*
X17902344Y-14762021D02*
X17892820Y-14723926D01*
X17892820Y-14723926D02*
X17892820Y-14676307D01*
X17892820Y-14676307D02*
X17902344Y-14638212D01*
X17902344Y-14638212D02*
X17911867Y-14619164D01*
X17911867Y-14619164D02*
X17921391Y-14609641D01*
X17921391Y-14609641D02*
X17940439Y-14600117D01*
X18092820Y-14800117D02*
X18092820Y-14666783D01*
X18092820Y-14685831D02*
X18102344Y-14676307D01*
X18102344Y-14676307D02*
X18121391Y-14666783D01*
X18121391Y-14666783D02*
X18149963Y-14666783D01*
X18149963Y-14666783D02*
X18169010Y-14676307D01*
X18169010Y-14676307D02*
X18178534Y-14695355D01*
X18178534Y-14695355D02*
X18178534Y-14800117D01*
X18178534Y-14695355D02*
X18188058Y-14676307D01*
X18188058Y-14676307D02*
X18207105Y-14666783D01*
X18207105Y-14666783D02*
X18235677Y-14666783D01*
X18235677Y-14666783D02*
X18254725Y-14676307D01*
X18254725Y-14676307D02*
X18264248Y-14695355D01*
X18264248Y-14695355D02*
X18264248Y-14800117D01*
X18359486Y-14800117D02*
X18359486Y-14666783D01*
X18359486Y-14685831D02*
X18369010Y-14676307D01*
X18369010Y-14676307D02*
X18388058Y-14666783D01*
X18388058Y-14666783D02*
X18416629Y-14666783D01*
X18416629Y-14666783D02*
X18435677Y-14676307D01*
X18435677Y-14676307D02*
X18445201Y-14695355D01*
X18445201Y-14695355D02*
X18445201Y-14800117D01*
X18445201Y-14695355D02*
X18454725Y-14676307D01*
X18454725Y-14676307D02*
X18473772Y-14666783D01*
X18473772Y-14666783D02*
X18502344Y-14666783D01*
X18502344Y-14666783D02*
X18521391Y-14676307D01*
X18521391Y-14676307D02*
X18530915Y-14695355D01*
X18530915Y-14695355D02*
X18530915Y-14800117D01*
X18921391Y-14590593D02*
X18749963Y-14847736D01*
X19178534Y-14600117D02*
X19197582Y-14600117D01*
X19197582Y-14600117D02*
X19216629Y-14609641D01*
X19216629Y-14609641D02*
X19226153Y-14619164D01*
X19226153Y-14619164D02*
X19235677Y-14638212D01*
X19235677Y-14638212D02*
X19245201Y-14676307D01*
X19245201Y-14676307D02*
X19245201Y-14723926D01*
X19245201Y-14723926D02*
X19235677Y-14762021D01*
X19235677Y-14762021D02*
X19226153Y-14781069D01*
X19226153Y-14781069D02*
X19216629Y-14790593D01*
X19216629Y-14790593D02*
X19197582Y-14800117D01*
X19197582Y-14800117D02*
X19178534Y-14800117D01*
X19178534Y-14800117D02*
X19159487Y-14790593D01*
X19159487Y-14790593D02*
X19149963Y-14781069D01*
X19149963Y-14781069D02*
X19140439Y-14762021D01*
X19140439Y-14762021D02*
X19130915Y-14723926D01*
X19130915Y-14723926D02*
X19130915Y-14676307D01*
X19130915Y-14676307D02*
X19140439Y-14638212D01*
X19140439Y-14638212D02*
X19149963Y-14619164D01*
X19149963Y-14619164D02*
X19159487Y-14609641D01*
X19159487Y-14609641D02*
X19178534Y-14600117D01*
X19330915Y-14781069D02*
X19340439Y-14790593D01*
X19340439Y-14790593D02*
X19330915Y-14800117D01*
X19330915Y-14800117D02*
X19321391Y-14790593D01*
X19321391Y-14790593D02*
X19330915Y-14781069D01*
X19330915Y-14781069D02*
X19330915Y-14800117D01*
X19530915Y-14800117D02*
X19416629Y-14800117D01*
X19473772Y-14800117D02*
X19473772Y-14600117D01*
X19473772Y-14600117D02*
X19454725Y-14628688D01*
X19454725Y-14628688D02*
X19435677Y-14647736D01*
X19435677Y-14647736D02*
X19416629Y-14657260D01*
X19721391Y-14800117D02*
X19607106Y-14800117D01*
X19664248Y-14800117D02*
X19664248Y-14600117D01*
X19664248Y-14600117D02*
X19645201Y-14628688D01*
X19645201Y-14628688D02*
X19626153Y-14647736D01*
X19626153Y-14647736D02*
X19607106Y-14657260D01*
X19835677Y-14685831D02*
X19816629Y-14676307D01*
X19816629Y-14676307D02*
X19807106Y-14666783D01*
X19807106Y-14666783D02*
X19797582Y-14647736D01*
X19797582Y-14647736D02*
X19797582Y-14638212D01*
X19797582Y-14638212D02*
X19807106Y-14619164D01*
X19807106Y-14619164D02*
X19816629Y-14609641D01*
X19816629Y-14609641D02*
X19835677Y-14600117D01*
X19835677Y-14600117D02*
X19873772Y-14600117D01*
X19873772Y-14600117D02*
X19892820Y-14609641D01*
X19892820Y-14609641D02*
X19902344Y-14619164D01*
X19902344Y-14619164D02*
X19911868Y-14638212D01*
X19911868Y-14638212D02*
X19911868Y-14647736D01*
X19911868Y-14647736D02*
X19902344Y-14666783D01*
X19902344Y-14666783D02*
X19892820Y-14676307D01*
X19892820Y-14676307D02*
X19873772Y-14685831D01*
X19873772Y-14685831D02*
X19835677Y-14685831D01*
X19835677Y-14685831D02*
X19816629Y-14695355D01*
X19816629Y-14695355D02*
X19807106Y-14704879D01*
X19807106Y-14704879D02*
X19797582Y-14723926D01*
X19797582Y-14723926D02*
X19797582Y-14762021D01*
X19797582Y-14762021D02*
X19807106Y-14781069D01*
X19807106Y-14781069D02*
X19816629Y-14790593D01*
X19816629Y-14790593D02*
X19835677Y-14800117D01*
X19835677Y-14800117D02*
X19873772Y-14800117D01*
X19873772Y-14800117D02*
X19892820Y-14790593D01*
X19892820Y-14790593D02*
X19902344Y-14781069D01*
X19902344Y-14781069D02*
X19911868Y-14762021D01*
X19911868Y-14762021D02*
X19911868Y-14723926D01*
X19911868Y-14723926D02*
X19902344Y-14704879D01*
X19902344Y-14704879D02*
X19892820Y-14695355D01*
X19892820Y-14695355D02*
X19873772Y-14685831D01*
X20102344Y-14800117D02*
X19988058Y-14800117D01*
X20045201Y-14800117D02*
X20045201Y-14600117D01*
X20045201Y-14600117D02*
X20026153Y-14628688D01*
X20026153Y-14628688D02*
X20007106Y-14647736D01*
X20007106Y-14647736D02*
X19988058Y-14657260D01*
X20178534Y-14600117D02*
X20178534Y-14638212D01*
X20254725Y-14600117D02*
X20254725Y-14638212D01*
X20549963Y-14876307D02*
X20540439Y-14866783D01*
X20540439Y-14866783D02*
X20521391Y-14838212D01*
X20521391Y-14838212D02*
X20511868Y-14819164D01*
X20511868Y-14819164D02*
X20502344Y-14790593D01*
X20502344Y-14790593D02*
X20492820Y-14742974D01*
X20492820Y-14742974D02*
X20492820Y-14704879D01*
X20492820Y-14704879D02*
X20502344Y-14657260D01*
X20502344Y-14657260D02*
X20511868Y-14628688D01*
X20511868Y-14628688D02*
X20521391Y-14609641D01*
X20521391Y-14609641D02*
X20540439Y-14581069D01*
X20540439Y-14581069D02*
X20549963Y-14571545D01*
X20711868Y-14600117D02*
X20673772Y-14600117D01*
X20673772Y-14600117D02*
X20654725Y-14609641D01*
X20654725Y-14609641D02*
X20645201Y-14619164D01*
X20645201Y-14619164D02*
X20626153Y-14647736D01*
X20626153Y-14647736D02*
X20616630Y-14685831D01*
X20616630Y-14685831D02*
X20616630Y-14762021D01*
X20616630Y-14762021D02*
X20626153Y-14781069D01*
X20626153Y-14781069D02*
X20635677Y-14790593D01*
X20635677Y-14790593D02*
X20654725Y-14800117D01*
X20654725Y-14800117D02*
X20692820Y-14800117D01*
X20692820Y-14800117D02*
X20711868Y-14790593D01*
X20711868Y-14790593D02*
X20721391Y-14781069D01*
X20721391Y-14781069D02*
X20730915Y-14762021D01*
X20730915Y-14762021D02*
X20730915Y-14714402D01*
X20730915Y-14714402D02*
X20721391Y-14695355D01*
X20721391Y-14695355D02*
X20711868Y-14685831D01*
X20711868Y-14685831D02*
X20692820Y-14676307D01*
X20692820Y-14676307D02*
X20654725Y-14676307D01*
X20654725Y-14676307D02*
X20635677Y-14685831D01*
X20635677Y-14685831D02*
X20626153Y-14695355D01*
X20626153Y-14695355D02*
X20616630Y-14714402D01*
X20854725Y-14600117D02*
X20873772Y-14600117D01*
X20873772Y-14600117D02*
X20892820Y-14609641D01*
X20892820Y-14609641D02*
X20902344Y-14619164D01*
X20902344Y-14619164D02*
X20911868Y-14638212D01*
X20911868Y-14638212D02*
X20921391Y-14676307D01*
X20921391Y-14676307D02*
X20921391Y-14723926D01*
X20921391Y-14723926D02*
X20911868Y-14762021D01*
X20911868Y-14762021D02*
X20902344Y-14781069D01*
X20902344Y-14781069D02*
X20892820Y-14790593D01*
X20892820Y-14790593D02*
X20873772Y-14800117D01*
X20873772Y-14800117D02*
X20854725Y-14800117D01*
X20854725Y-14800117D02*
X20835677Y-14790593D01*
X20835677Y-14790593D02*
X20826153Y-14781069D01*
X20826153Y-14781069D02*
X20816630Y-14762021D01*
X20816630Y-14762021D02*
X20807106Y-14723926D01*
X20807106Y-14723926D02*
X20807106Y-14676307D01*
X20807106Y-14676307D02*
X20816630Y-14638212D01*
X20816630Y-14638212D02*
X20826153Y-14619164D01*
X20826153Y-14619164D02*
X20835677Y-14609641D01*
X20835677Y-14609641D02*
X20854725Y-14600117D01*
X21159487Y-14800117D02*
X21159487Y-14600117D01*
X21245201Y-14800117D02*
X21245201Y-14695355D01*
X21245201Y-14695355D02*
X21235677Y-14676307D01*
X21235677Y-14676307D02*
X21216630Y-14666783D01*
X21216630Y-14666783D02*
X21188058Y-14666783D01*
X21188058Y-14666783D02*
X21169011Y-14676307D01*
X21169011Y-14676307D02*
X21159487Y-14685831D01*
X21369011Y-14800117D02*
X21349963Y-14790593D01*
X21349963Y-14790593D02*
X21340439Y-14781069D01*
X21340439Y-14781069D02*
X21330915Y-14762021D01*
X21330915Y-14762021D02*
X21330915Y-14704879D01*
X21330915Y-14704879D02*
X21340439Y-14685831D01*
X21340439Y-14685831D02*
X21349963Y-14676307D01*
X21349963Y-14676307D02*
X21369011Y-14666783D01*
X21369011Y-14666783D02*
X21397582Y-14666783D01*
X21397582Y-14666783D02*
X21416630Y-14676307D01*
X21416630Y-14676307D02*
X21426153Y-14685831D01*
X21426153Y-14685831D02*
X21435677Y-14704879D01*
X21435677Y-14704879D02*
X21435677Y-14762021D01*
X21435677Y-14762021D02*
X21426153Y-14781069D01*
X21426153Y-14781069D02*
X21416630Y-14790593D01*
X21416630Y-14790593D02*
X21397582Y-14800117D01*
X21397582Y-14800117D02*
X21369011Y-14800117D01*
X21549963Y-14800117D02*
X21530915Y-14790593D01*
X21530915Y-14790593D02*
X21521392Y-14771545D01*
X21521392Y-14771545D02*
X21521392Y-14600117D01*
X21702344Y-14790593D02*
X21683296Y-14800117D01*
X21683296Y-14800117D02*
X21645201Y-14800117D01*
X21645201Y-14800117D02*
X21626153Y-14790593D01*
X21626153Y-14790593D02*
X21616630Y-14771545D01*
X21616630Y-14771545D02*
X21616630Y-14695355D01*
X21616630Y-14695355D02*
X21626153Y-14676307D01*
X21626153Y-14676307D02*
X21645201Y-14666783D01*
X21645201Y-14666783D02*
X21683296Y-14666783D01*
X21683296Y-14666783D02*
X21702344Y-14676307D01*
X21702344Y-14676307D02*
X21711868Y-14695355D01*
X21711868Y-14695355D02*
X21711868Y-14714402D01*
X21711868Y-14714402D02*
X21616630Y-14733450D01*
X21788058Y-14790593D02*
X21807106Y-14800117D01*
X21807106Y-14800117D02*
X21845201Y-14800117D01*
X21845201Y-14800117D02*
X21864249Y-14790593D01*
X21864249Y-14790593D02*
X21873773Y-14771545D01*
X21873773Y-14771545D02*
X21873773Y-14762021D01*
X21873773Y-14762021D02*
X21864249Y-14742974D01*
X21864249Y-14742974D02*
X21845201Y-14733450D01*
X21845201Y-14733450D02*
X21816630Y-14733450D01*
X21816630Y-14733450D02*
X21797582Y-14723926D01*
X21797582Y-14723926D02*
X21788058Y-14704879D01*
X21788058Y-14704879D02*
X21788058Y-14695355D01*
X21788058Y-14695355D02*
X21797582Y-14676307D01*
X21797582Y-14676307D02*
X21816630Y-14666783D01*
X21816630Y-14666783D02*
X21845201Y-14666783D01*
X21845201Y-14666783D02*
X21864249Y-14676307D01*
X21940439Y-14876307D02*
X21949963Y-14866783D01*
X21949963Y-14866783D02*
X21969011Y-14838212D01*
X21969011Y-14838212D02*
X21978534Y-14819164D01*
X21978534Y-14819164D02*
X21988058Y-14790593D01*
X21988058Y-14790593D02*
X21997582Y-14742974D01*
X21997582Y-14742974D02*
X21997582Y-14704879D01*
X21997582Y-14704879D02*
X21988058Y-14657260D01*
X21988058Y-14657260D02*
X21978534Y-14628688D01*
X21978534Y-14628688D02*
X21969011Y-14609641D01*
X21969011Y-14609641D02*
X21949963Y-14581069D01*
X21949963Y-14581069D02*
X21940439Y-14571545D01*
X22302344Y-14876307D02*
X22292820Y-14866783D01*
X22292820Y-14866783D02*
X22273773Y-14838212D01*
X22273773Y-14838212D02*
X22264249Y-14819164D01*
X22264249Y-14819164D02*
X22254725Y-14790593D01*
X22254725Y-14790593D02*
X22245201Y-14742974D01*
X22245201Y-14742974D02*
X22245201Y-14704879D01*
X22245201Y-14704879D02*
X22254725Y-14657260D01*
X22254725Y-14657260D02*
X22264249Y-14628688D01*
X22264249Y-14628688D02*
X22273773Y-14609641D01*
X22273773Y-14609641D02*
X22292820Y-14581069D01*
X22292820Y-14581069D02*
X22302344Y-14571545D01*
X22378534Y-14666783D02*
X22378534Y-14800117D01*
X22378534Y-14685831D02*
X22388058Y-14676307D01*
X22388058Y-14676307D02*
X22407106Y-14666783D01*
X22407106Y-14666783D02*
X22435677Y-14666783D01*
X22435677Y-14666783D02*
X22454725Y-14676307D01*
X22454725Y-14676307D02*
X22464249Y-14695355D01*
X22464249Y-14695355D02*
X22464249Y-14800117D01*
X22588058Y-14800117D02*
X22569011Y-14790593D01*
X22569011Y-14790593D02*
X22559487Y-14781069D01*
X22559487Y-14781069D02*
X22549963Y-14762021D01*
X22549963Y-14762021D02*
X22549963Y-14704879D01*
X22549963Y-14704879D02*
X22559487Y-14685831D01*
X22559487Y-14685831D02*
X22569011Y-14676307D01*
X22569011Y-14676307D02*
X22588058Y-14666783D01*
X22588058Y-14666783D02*
X22616630Y-14666783D01*
X22616630Y-14666783D02*
X22635677Y-14676307D01*
X22635677Y-14676307D02*
X22645201Y-14685831D01*
X22645201Y-14685831D02*
X22654725Y-14704879D01*
X22654725Y-14704879D02*
X22654725Y-14762021D01*
X22654725Y-14762021D02*
X22645201Y-14781069D01*
X22645201Y-14781069D02*
X22635677Y-14790593D01*
X22635677Y-14790593D02*
X22616630Y-14800117D01*
X22616630Y-14800117D02*
X22588058Y-14800117D01*
X22711868Y-14666783D02*
X22788058Y-14666783D01*
X22740439Y-14600117D02*
X22740439Y-14771545D01*
X22740439Y-14771545D02*
X22749963Y-14790593D01*
X22749963Y-14790593D02*
X22769011Y-14800117D01*
X22769011Y-14800117D02*
X22788058Y-14800117D01*
X23007106Y-14666783D02*
X23007106Y-14866783D01*
X23007106Y-14676307D02*
X23026153Y-14666783D01*
X23026153Y-14666783D02*
X23064249Y-14666783D01*
X23064249Y-14666783D02*
X23083296Y-14676307D01*
X23083296Y-14676307D02*
X23092820Y-14685831D01*
X23092820Y-14685831D02*
X23102344Y-14704879D01*
X23102344Y-14704879D02*
X23102344Y-14762021D01*
X23102344Y-14762021D02*
X23092820Y-14781069D01*
X23092820Y-14781069D02*
X23083296Y-14790593D01*
X23083296Y-14790593D02*
X23064249Y-14800117D01*
X23064249Y-14800117D02*
X23026153Y-14800117D01*
X23026153Y-14800117D02*
X23007106Y-14790593D01*
X23216630Y-14800117D02*
X23197582Y-14790593D01*
X23197582Y-14790593D02*
X23188058Y-14771545D01*
X23188058Y-14771545D02*
X23188058Y-14600117D01*
X23378534Y-14800117D02*
X23378534Y-14695355D01*
X23378534Y-14695355D02*
X23369011Y-14676307D01*
X23369011Y-14676307D02*
X23349963Y-14666783D01*
X23349963Y-14666783D02*
X23311868Y-14666783D01*
X23311868Y-14666783D02*
X23292820Y-14676307D01*
X23378534Y-14790593D02*
X23359487Y-14800117D01*
X23359487Y-14800117D02*
X23311868Y-14800117D01*
X23311868Y-14800117D02*
X23292820Y-14790593D01*
X23292820Y-14790593D02*
X23283296Y-14771545D01*
X23283296Y-14771545D02*
X23283296Y-14752498D01*
X23283296Y-14752498D02*
X23292820Y-14733450D01*
X23292820Y-14733450D02*
X23311868Y-14723926D01*
X23311868Y-14723926D02*
X23359487Y-14723926D01*
X23359487Y-14723926D02*
X23378534Y-14714402D01*
X23445201Y-14666783D02*
X23521392Y-14666783D01*
X23473773Y-14600117D02*
X23473773Y-14771545D01*
X23473773Y-14771545D02*
X23483296Y-14790593D01*
X23483296Y-14790593D02*
X23502344Y-14800117D01*
X23502344Y-14800117D02*
X23521392Y-14800117D01*
X23664249Y-14790593D02*
X23645201Y-14800117D01*
X23645201Y-14800117D02*
X23607106Y-14800117D01*
X23607106Y-14800117D02*
X23588058Y-14790593D01*
X23588058Y-14790593D02*
X23578534Y-14771545D01*
X23578534Y-14771545D02*
X23578534Y-14695355D01*
X23578534Y-14695355D02*
X23588058Y-14676307D01*
X23588058Y-14676307D02*
X23607106Y-14666783D01*
X23607106Y-14666783D02*
X23645201Y-14666783D01*
X23645201Y-14666783D02*
X23664249Y-14676307D01*
X23664249Y-14676307D02*
X23673773Y-14695355D01*
X23673773Y-14695355D02*
X23673773Y-14714402D01*
X23673773Y-14714402D02*
X23578534Y-14733450D01*
X23845201Y-14800117D02*
X23845201Y-14600117D01*
X23845201Y-14790593D02*
X23826154Y-14800117D01*
X23826154Y-14800117D02*
X23788058Y-14800117D01*
X23788058Y-14800117D02*
X23769011Y-14790593D01*
X23769011Y-14790593D02*
X23759487Y-14781069D01*
X23759487Y-14781069D02*
X23749963Y-14762021D01*
X23749963Y-14762021D02*
X23749963Y-14704879D01*
X23749963Y-14704879D02*
X23759487Y-14685831D01*
X23759487Y-14685831D02*
X23769011Y-14676307D01*
X23769011Y-14676307D02*
X23788058Y-14666783D01*
X23788058Y-14666783D02*
X23826154Y-14666783D01*
X23826154Y-14666783D02*
X23845201Y-14676307D01*
X23921392Y-14876307D02*
X23930915Y-14866783D01*
X23930915Y-14866783D02*
X23949963Y-14838212D01*
X23949963Y-14838212D02*
X23959487Y-14819164D01*
X23959487Y-14819164D02*
X23969011Y-14790593D01*
X23969011Y-14790593D02*
X23978534Y-14742974D01*
X23978534Y-14742974D02*
X23978534Y-14704879D01*
X23978534Y-14704879D02*
X23969011Y-14657260D01*
X23969011Y-14657260D02*
X23959487Y-14628688D01*
X23959487Y-14628688D02*
X23949963Y-14609641D01*
X23949963Y-14609641D02*
X23930915Y-14581069D01*
X23930915Y-14581069D02*
X23921392Y-14571545D01*
X16774900Y-14928633D02*
X16974900Y-15128633D01*
X16974900Y-14928633D02*
X16774900Y-15128633D01*
X16974900Y-15028633D02*
G75*
G02*
X16774900Y-15028633I-100000J0D01*
G01*
X16774900Y-15028633D02*
G75*
G02*
X16974900Y-15028633I100000J0D01*
G01*
X17216629Y-14920117D02*
X17340439Y-14920117D01*
X17340439Y-14920117D02*
X17273772Y-14996307D01*
X17273772Y-14996307D02*
X17302344Y-14996307D01*
X17302344Y-14996307D02*
X17321391Y-15005831D01*
X17321391Y-15005831D02*
X17330915Y-15015355D01*
X17330915Y-15015355D02*
X17340439Y-15034402D01*
X17340439Y-15034402D02*
X17340439Y-15082021D01*
X17340439Y-15082021D02*
X17330915Y-15101069D01*
X17330915Y-15101069D02*
X17321391Y-15110593D01*
X17321391Y-15110593D02*
X17302344Y-15120117D01*
X17302344Y-15120117D02*
X17245201Y-15120117D01*
X17245201Y-15120117D02*
X17226153Y-15110593D01*
X17226153Y-15110593D02*
X17216629Y-15101069D01*
X17426153Y-15101069D02*
X17435677Y-15110593D01*
X17435677Y-15110593D02*
X17426153Y-15120117D01*
X17426153Y-15120117D02*
X17416629Y-15110593D01*
X17416629Y-15110593D02*
X17426153Y-15101069D01*
X17426153Y-15101069D02*
X17426153Y-15120117D01*
X17559486Y-14920117D02*
X17578534Y-14920117D01*
X17578534Y-14920117D02*
X17597582Y-14929641D01*
X17597582Y-14929641D02*
X17607105Y-14939164D01*
X17607105Y-14939164D02*
X17616629Y-14958212D01*
X17616629Y-14958212D02*
X17626153Y-14996307D01*
X17626153Y-14996307D02*
X17626153Y-15043926D01*
X17626153Y-15043926D02*
X17616629Y-15082021D01*
X17616629Y-15082021D02*
X17607105Y-15101069D01*
X17607105Y-15101069D02*
X17597582Y-15110593D01*
X17597582Y-15110593D02*
X17578534Y-15120117D01*
X17578534Y-15120117D02*
X17559486Y-15120117D01*
X17559486Y-15120117D02*
X17540439Y-15110593D01*
X17540439Y-15110593D02*
X17530915Y-15101069D01*
X17530915Y-15101069D02*
X17521391Y-15082021D01*
X17521391Y-15082021D02*
X17511867Y-15043926D01*
X17511867Y-15043926D02*
X17511867Y-14996307D01*
X17511867Y-14996307D02*
X17521391Y-14958212D01*
X17521391Y-14958212D02*
X17530915Y-14939164D01*
X17530915Y-14939164D02*
X17540439Y-14929641D01*
X17540439Y-14929641D02*
X17559486Y-14920117D01*
X17807105Y-14920117D02*
X17711867Y-14920117D01*
X17711867Y-14920117D02*
X17702344Y-15015355D01*
X17702344Y-15015355D02*
X17711867Y-15005831D01*
X17711867Y-15005831D02*
X17730915Y-14996307D01*
X17730915Y-14996307D02*
X17778534Y-14996307D01*
X17778534Y-14996307D02*
X17797582Y-15005831D01*
X17797582Y-15005831D02*
X17807105Y-15015355D01*
X17807105Y-15015355D02*
X17816629Y-15034402D01*
X17816629Y-15034402D02*
X17816629Y-15082021D01*
X17816629Y-15082021D02*
X17807105Y-15101069D01*
X17807105Y-15101069D02*
X17797582Y-15110593D01*
X17797582Y-15110593D02*
X17778534Y-15120117D01*
X17778534Y-15120117D02*
X17730915Y-15120117D01*
X17730915Y-15120117D02*
X17711867Y-15110593D01*
X17711867Y-15110593D02*
X17702344Y-15101069D01*
X17940439Y-14920117D02*
X17959486Y-14920117D01*
X17959486Y-14920117D02*
X17978534Y-14929641D01*
X17978534Y-14929641D02*
X17988058Y-14939164D01*
X17988058Y-14939164D02*
X17997582Y-14958212D01*
X17997582Y-14958212D02*
X18007105Y-14996307D01*
X18007105Y-14996307D02*
X18007105Y-15043926D01*
X18007105Y-15043926D02*
X17997582Y-15082021D01*
X17997582Y-15082021D02*
X17988058Y-15101069D01*
X17988058Y-15101069D02*
X17978534Y-15110593D01*
X17978534Y-15110593D02*
X17959486Y-15120117D01*
X17959486Y-15120117D02*
X17940439Y-15120117D01*
X17940439Y-15120117D02*
X17921391Y-15110593D01*
X17921391Y-15110593D02*
X17911867Y-15101069D01*
X17911867Y-15101069D02*
X17902344Y-15082021D01*
X17902344Y-15082021D02*
X17892820Y-15043926D01*
X17892820Y-15043926D02*
X17892820Y-14996307D01*
X17892820Y-14996307D02*
X17902344Y-14958212D01*
X17902344Y-14958212D02*
X17911867Y-14939164D01*
X17911867Y-14939164D02*
X17921391Y-14929641D01*
X17921391Y-14929641D02*
X17940439Y-14920117D01*
X18092820Y-15120117D02*
X18092820Y-14986783D01*
X18092820Y-15005831D02*
X18102344Y-14996307D01*
X18102344Y-14996307D02*
X18121391Y-14986783D01*
X18121391Y-14986783D02*
X18149963Y-14986783D01*
X18149963Y-14986783D02*
X18169010Y-14996307D01*
X18169010Y-14996307D02*
X18178534Y-15015355D01*
X18178534Y-15015355D02*
X18178534Y-15120117D01*
X18178534Y-15015355D02*
X18188058Y-14996307D01*
X18188058Y-14996307D02*
X18207105Y-14986783D01*
X18207105Y-14986783D02*
X18235677Y-14986783D01*
X18235677Y-14986783D02*
X18254725Y-14996307D01*
X18254725Y-14996307D02*
X18264248Y-15015355D01*
X18264248Y-15015355D02*
X18264248Y-15120117D01*
X18359486Y-15120117D02*
X18359486Y-14986783D01*
X18359486Y-15005831D02*
X18369010Y-14996307D01*
X18369010Y-14996307D02*
X18388058Y-14986783D01*
X18388058Y-14986783D02*
X18416629Y-14986783D01*
X18416629Y-14986783D02*
X18435677Y-14996307D01*
X18435677Y-14996307D02*
X18445201Y-15015355D01*
X18445201Y-15015355D02*
X18445201Y-15120117D01*
X18445201Y-15015355D02*
X18454725Y-14996307D01*
X18454725Y-14996307D02*
X18473772Y-14986783D01*
X18473772Y-14986783D02*
X18502344Y-14986783D01*
X18502344Y-14986783D02*
X18521391Y-14996307D01*
X18521391Y-14996307D02*
X18530915Y-15015355D01*
X18530915Y-15015355D02*
X18530915Y-15120117D01*
X18921391Y-14910593D02*
X18749963Y-15167736D01*
X19178534Y-14920117D02*
X19197582Y-14920117D01*
X19197582Y-14920117D02*
X19216629Y-14929641D01*
X19216629Y-14929641D02*
X19226153Y-14939164D01*
X19226153Y-14939164D02*
X19235677Y-14958212D01*
X19235677Y-14958212D02*
X19245201Y-14996307D01*
X19245201Y-14996307D02*
X19245201Y-15043926D01*
X19245201Y-15043926D02*
X19235677Y-15082021D01*
X19235677Y-15082021D02*
X19226153Y-15101069D01*
X19226153Y-15101069D02*
X19216629Y-15110593D01*
X19216629Y-15110593D02*
X19197582Y-15120117D01*
X19197582Y-15120117D02*
X19178534Y-15120117D01*
X19178534Y-15120117D02*
X19159487Y-15110593D01*
X19159487Y-15110593D02*
X19149963Y-15101069D01*
X19149963Y-15101069D02*
X19140439Y-15082021D01*
X19140439Y-15082021D02*
X19130915Y-15043926D01*
X19130915Y-15043926D02*
X19130915Y-14996307D01*
X19130915Y-14996307D02*
X19140439Y-14958212D01*
X19140439Y-14958212D02*
X19149963Y-14939164D01*
X19149963Y-14939164D02*
X19159487Y-14929641D01*
X19159487Y-14929641D02*
X19178534Y-14920117D01*
X19330915Y-15101069D02*
X19340439Y-15110593D01*
X19340439Y-15110593D02*
X19330915Y-15120117D01*
X19330915Y-15120117D02*
X19321391Y-15110593D01*
X19321391Y-15110593D02*
X19330915Y-15101069D01*
X19330915Y-15101069D02*
X19330915Y-15120117D01*
X19530915Y-15120117D02*
X19416629Y-15120117D01*
X19473772Y-15120117D02*
X19473772Y-14920117D01*
X19473772Y-14920117D02*
X19454725Y-14948688D01*
X19454725Y-14948688D02*
X19435677Y-14967736D01*
X19435677Y-14967736D02*
X19416629Y-14977260D01*
X19607106Y-14939164D02*
X19616629Y-14929641D01*
X19616629Y-14929641D02*
X19635677Y-14920117D01*
X19635677Y-14920117D02*
X19683296Y-14920117D01*
X19683296Y-14920117D02*
X19702344Y-14929641D01*
X19702344Y-14929641D02*
X19711868Y-14939164D01*
X19711868Y-14939164D02*
X19721391Y-14958212D01*
X19721391Y-14958212D02*
X19721391Y-14977260D01*
X19721391Y-14977260D02*
X19711868Y-15005831D01*
X19711868Y-15005831D02*
X19597582Y-15120117D01*
X19597582Y-15120117D02*
X19721391Y-15120117D01*
X19845201Y-14920117D02*
X19864249Y-14920117D01*
X19864249Y-14920117D02*
X19883296Y-14929641D01*
X19883296Y-14929641D02*
X19892820Y-14939164D01*
X19892820Y-14939164D02*
X19902344Y-14958212D01*
X19902344Y-14958212D02*
X19911868Y-14996307D01*
X19911868Y-14996307D02*
X19911868Y-15043926D01*
X19911868Y-15043926D02*
X19902344Y-15082021D01*
X19902344Y-15082021D02*
X19892820Y-15101069D01*
X19892820Y-15101069D02*
X19883296Y-15110593D01*
X19883296Y-15110593D02*
X19864249Y-15120117D01*
X19864249Y-15120117D02*
X19845201Y-15120117D01*
X19845201Y-15120117D02*
X19826153Y-15110593D01*
X19826153Y-15110593D02*
X19816629Y-15101069D01*
X19816629Y-15101069D02*
X19807106Y-15082021D01*
X19807106Y-15082021D02*
X19797582Y-15043926D01*
X19797582Y-15043926D02*
X19797582Y-14996307D01*
X19797582Y-14996307D02*
X19807106Y-14958212D01*
X19807106Y-14958212D02*
X19816629Y-14939164D01*
X19816629Y-14939164D02*
X19826153Y-14929641D01*
X19826153Y-14929641D02*
X19845201Y-14920117D01*
X20102344Y-15120117D02*
X19988058Y-15120117D01*
X20045201Y-15120117D02*
X20045201Y-14920117D01*
X20045201Y-14920117D02*
X20026153Y-14948688D01*
X20026153Y-14948688D02*
X20007106Y-14967736D01*
X20007106Y-14967736D02*
X19988058Y-14977260D01*
X20178534Y-14920117D02*
X20178534Y-14958212D01*
X20254725Y-14920117D02*
X20254725Y-14958212D01*
X20549963Y-15196307D02*
X20540439Y-15186783D01*
X20540439Y-15186783D02*
X20521391Y-15158212D01*
X20521391Y-15158212D02*
X20511868Y-15139164D01*
X20511868Y-15139164D02*
X20502344Y-15110593D01*
X20502344Y-15110593D02*
X20492820Y-15062974D01*
X20492820Y-15062974D02*
X20492820Y-15024879D01*
X20492820Y-15024879D02*
X20502344Y-14977260D01*
X20502344Y-14977260D02*
X20511868Y-14948688D01*
X20511868Y-14948688D02*
X20521391Y-14929641D01*
X20521391Y-14929641D02*
X20540439Y-14901069D01*
X20540439Y-14901069D02*
X20549963Y-14891545D01*
X20711868Y-14986783D02*
X20711868Y-15120117D01*
X20664249Y-14910593D02*
X20616630Y-15053450D01*
X20616630Y-15053450D02*
X20740439Y-15053450D01*
X20969011Y-15120117D02*
X20969011Y-14920117D01*
X21054725Y-15120117D02*
X21054725Y-15015355D01*
X21054725Y-15015355D02*
X21045201Y-14996307D01*
X21045201Y-14996307D02*
X21026153Y-14986783D01*
X21026153Y-14986783D02*
X20997582Y-14986783D01*
X20997582Y-14986783D02*
X20978534Y-14996307D01*
X20978534Y-14996307D02*
X20969011Y-15005831D01*
X21178534Y-15120117D02*
X21159487Y-15110593D01*
X21159487Y-15110593D02*
X21149963Y-15101069D01*
X21149963Y-15101069D02*
X21140439Y-15082021D01*
X21140439Y-15082021D02*
X21140439Y-15024879D01*
X21140439Y-15024879D02*
X21149963Y-15005831D01*
X21149963Y-15005831D02*
X21159487Y-14996307D01*
X21159487Y-14996307D02*
X21178534Y-14986783D01*
X21178534Y-14986783D02*
X21207106Y-14986783D01*
X21207106Y-14986783D02*
X21226153Y-14996307D01*
X21226153Y-14996307D02*
X21235677Y-15005831D01*
X21235677Y-15005831D02*
X21245201Y-15024879D01*
X21245201Y-15024879D02*
X21245201Y-15082021D01*
X21245201Y-15082021D02*
X21235677Y-15101069D01*
X21235677Y-15101069D02*
X21226153Y-15110593D01*
X21226153Y-15110593D02*
X21207106Y-15120117D01*
X21207106Y-15120117D02*
X21178534Y-15120117D01*
X21359487Y-15120117D02*
X21340439Y-15110593D01*
X21340439Y-15110593D02*
X21330915Y-15091545D01*
X21330915Y-15091545D02*
X21330915Y-14920117D01*
X21511868Y-15110593D02*
X21492820Y-15120117D01*
X21492820Y-15120117D02*
X21454725Y-15120117D01*
X21454725Y-15120117D02*
X21435677Y-15110593D01*
X21435677Y-15110593D02*
X21426153Y-15091545D01*
X21426153Y-15091545D02*
X21426153Y-15015355D01*
X21426153Y-15015355D02*
X21435677Y-14996307D01*
X21435677Y-14996307D02*
X21454725Y-14986783D01*
X21454725Y-14986783D02*
X21492820Y-14986783D01*
X21492820Y-14986783D02*
X21511868Y-14996307D01*
X21511868Y-14996307D02*
X21521392Y-15015355D01*
X21521392Y-15015355D02*
X21521392Y-15034402D01*
X21521392Y-15034402D02*
X21426153Y-15053450D01*
X21597582Y-15110593D02*
X21616630Y-15120117D01*
X21616630Y-15120117D02*
X21654725Y-15120117D01*
X21654725Y-15120117D02*
X21673773Y-15110593D01*
X21673773Y-15110593D02*
X21683296Y-15091545D01*
X21683296Y-15091545D02*
X21683296Y-15082021D01*
X21683296Y-15082021D02*
X21673773Y-15062974D01*
X21673773Y-15062974D02*
X21654725Y-15053450D01*
X21654725Y-15053450D02*
X21626153Y-15053450D01*
X21626153Y-15053450D02*
X21607106Y-15043926D01*
X21607106Y-15043926D02*
X21597582Y-15024879D01*
X21597582Y-15024879D02*
X21597582Y-15015355D01*
X21597582Y-15015355D02*
X21607106Y-14996307D01*
X21607106Y-14996307D02*
X21626153Y-14986783D01*
X21626153Y-14986783D02*
X21654725Y-14986783D01*
X21654725Y-14986783D02*
X21673773Y-14996307D01*
X21749963Y-15196307D02*
X21759487Y-15186783D01*
X21759487Y-15186783D02*
X21778534Y-15158212D01*
X21778534Y-15158212D02*
X21788058Y-15139164D01*
X21788058Y-15139164D02*
X21797582Y-15110593D01*
X21797582Y-15110593D02*
X21807106Y-15062974D01*
X21807106Y-15062974D02*
X21807106Y-15024879D01*
X21807106Y-15024879D02*
X21797582Y-14977260D01*
X21797582Y-14977260D02*
X21788058Y-14948688D01*
X21788058Y-14948688D02*
X21778534Y-14929641D01*
X21778534Y-14929641D02*
X21759487Y-14901069D01*
X21759487Y-14901069D02*
X21749963Y-14891545D01*
X22111868Y-15196307D02*
X22102344Y-15186783D01*
X22102344Y-15186783D02*
X22083296Y-15158212D01*
X22083296Y-15158212D02*
X22073773Y-15139164D01*
X22073773Y-15139164D02*
X22064249Y-15110593D01*
X22064249Y-15110593D02*
X22054725Y-15062974D01*
X22054725Y-15062974D02*
X22054725Y-15024879D01*
X22054725Y-15024879D02*
X22064249Y-14977260D01*
X22064249Y-14977260D02*
X22073773Y-14948688D01*
X22073773Y-14948688D02*
X22083296Y-14929641D01*
X22083296Y-14929641D02*
X22102344Y-14901069D01*
X22102344Y-14901069D02*
X22111868Y-14891545D01*
X22188058Y-14986783D02*
X22188058Y-15120117D01*
X22188058Y-15005831D02*
X22197582Y-14996307D01*
X22197582Y-14996307D02*
X22216630Y-14986783D01*
X22216630Y-14986783D02*
X22245201Y-14986783D01*
X22245201Y-14986783D02*
X22264249Y-14996307D01*
X22264249Y-14996307D02*
X22273773Y-15015355D01*
X22273773Y-15015355D02*
X22273773Y-15120117D01*
X22397582Y-15120117D02*
X22378534Y-15110593D01*
X22378534Y-15110593D02*
X22369011Y-15101069D01*
X22369011Y-15101069D02*
X22359487Y-15082021D01*
X22359487Y-15082021D02*
X22359487Y-15024879D01*
X22359487Y-15024879D02*
X22369011Y-15005831D01*
X22369011Y-15005831D02*
X22378534Y-14996307D01*
X22378534Y-14996307D02*
X22397582Y-14986783D01*
X22397582Y-14986783D02*
X22426153Y-14986783D01*
X22426153Y-14986783D02*
X22445201Y-14996307D01*
X22445201Y-14996307D02*
X22454725Y-15005831D01*
X22454725Y-15005831D02*
X22464249Y-15024879D01*
X22464249Y-15024879D02*
X22464249Y-15082021D01*
X22464249Y-15082021D02*
X22454725Y-15101069D01*
X22454725Y-15101069D02*
X22445201Y-15110593D01*
X22445201Y-15110593D02*
X22426153Y-15120117D01*
X22426153Y-15120117D02*
X22397582Y-15120117D01*
X22521392Y-14986783D02*
X22597582Y-14986783D01*
X22549963Y-14920117D02*
X22549963Y-15091545D01*
X22549963Y-15091545D02*
X22559487Y-15110593D01*
X22559487Y-15110593D02*
X22578534Y-15120117D01*
X22578534Y-15120117D02*
X22597582Y-15120117D01*
X22816630Y-14986783D02*
X22816630Y-15186783D01*
X22816630Y-14996307D02*
X22835677Y-14986783D01*
X22835677Y-14986783D02*
X22873773Y-14986783D01*
X22873773Y-14986783D02*
X22892820Y-14996307D01*
X22892820Y-14996307D02*
X22902344Y-15005831D01*
X22902344Y-15005831D02*
X22911868Y-15024879D01*
X22911868Y-15024879D02*
X22911868Y-15082021D01*
X22911868Y-15082021D02*
X22902344Y-15101069D01*
X22902344Y-15101069D02*
X22892820Y-15110593D01*
X22892820Y-15110593D02*
X22873773Y-15120117D01*
X22873773Y-15120117D02*
X22835677Y-15120117D01*
X22835677Y-15120117D02*
X22816630Y-15110593D01*
X23026153Y-15120117D02*
X23007106Y-15110593D01*
X23007106Y-15110593D02*
X22997582Y-15091545D01*
X22997582Y-15091545D02*
X22997582Y-14920117D01*
X23188058Y-15120117D02*
X23188058Y-15015355D01*
X23188058Y-15015355D02*
X23178534Y-14996307D01*
X23178534Y-14996307D02*
X23159487Y-14986783D01*
X23159487Y-14986783D02*
X23121392Y-14986783D01*
X23121392Y-14986783D02*
X23102344Y-14996307D01*
X23188058Y-15110593D02*
X23169011Y-15120117D01*
X23169011Y-15120117D02*
X23121392Y-15120117D01*
X23121392Y-15120117D02*
X23102344Y-15110593D01*
X23102344Y-15110593D02*
X23092820Y-15091545D01*
X23092820Y-15091545D02*
X23092820Y-15072498D01*
X23092820Y-15072498D02*
X23102344Y-15053450D01*
X23102344Y-15053450D02*
X23121392Y-15043926D01*
X23121392Y-15043926D02*
X23169011Y-15043926D01*
X23169011Y-15043926D02*
X23188058Y-15034402D01*
X23254725Y-14986783D02*
X23330915Y-14986783D01*
X23283296Y-14920117D02*
X23283296Y-15091545D01*
X23283296Y-15091545D02*
X23292820Y-15110593D01*
X23292820Y-15110593D02*
X23311868Y-15120117D01*
X23311868Y-15120117D02*
X23330915Y-15120117D01*
X23473773Y-15110593D02*
X23454725Y-15120117D01*
X23454725Y-15120117D02*
X23416630Y-15120117D01*
X23416630Y-15120117D02*
X23397582Y-15110593D01*
X23397582Y-15110593D02*
X23388058Y-15091545D01*
X23388058Y-15091545D02*
X23388058Y-15015355D01*
X23388058Y-15015355D02*
X23397582Y-14996307D01*
X23397582Y-14996307D02*
X23416630Y-14986783D01*
X23416630Y-14986783D02*
X23454725Y-14986783D01*
X23454725Y-14986783D02*
X23473773Y-14996307D01*
X23473773Y-14996307D02*
X23483296Y-15015355D01*
X23483296Y-15015355D02*
X23483296Y-15034402D01*
X23483296Y-15034402D02*
X23388058Y-15053450D01*
X23654725Y-15120117D02*
X23654725Y-14920117D01*
X23654725Y-15110593D02*
X23635677Y-15120117D01*
X23635677Y-15120117D02*
X23597582Y-15120117D01*
X23597582Y-15120117D02*
X23578534Y-15110593D01*
X23578534Y-15110593D02*
X23569011Y-15101069D01*
X23569011Y-15101069D02*
X23559487Y-15082021D01*
X23559487Y-15082021D02*
X23559487Y-15024879D01*
X23559487Y-15024879D02*
X23569011Y-15005831D01*
X23569011Y-15005831D02*
X23578534Y-14996307D01*
X23578534Y-14996307D02*
X23597582Y-14986783D01*
X23597582Y-14986783D02*
X23635677Y-14986783D01*
X23635677Y-14986783D02*
X23654725Y-14996307D01*
X23730915Y-15196307D02*
X23740439Y-15186783D01*
X23740439Y-15186783D02*
X23759487Y-15158212D01*
X23759487Y-15158212D02*
X23769011Y-15139164D01*
X23769011Y-15139164D02*
X23778534Y-15110593D01*
X23778534Y-15110593D02*
X23788058Y-15062974D01*
X23788058Y-15062974D02*
X23788058Y-15024879D01*
X23788058Y-15024879D02*
X23778534Y-14977260D01*
X23778534Y-14977260D02*
X23769011Y-14948688D01*
X23769011Y-14948688D02*
X23759487Y-14929641D01*
X23759487Y-14929641D02*
X23740439Y-14901069D01*
X23740439Y-14901069D02*
X23730915Y-14891545D01*
X16774900Y-15248633D02*
X16974900Y-15448633D01*
X16974900Y-15248633D02*
X16774900Y-15448633D01*
X16874900Y-15248633D02*
X16874900Y-15448633D01*
X16774900Y-15348633D02*
X16974900Y-15348633D01*
X17321391Y-15306783D02*
X17321391Y-15440117D01*
X17273772Y-15230593D02*
X17226153Y-15373450D01*
X17226153Y-15373450D02*
X17349963Y-15373450D01*
X17426153Y-15421069D02*
X17435677Y-15430593D01*
X17435677Y-15430593D02*
X17426153Y-15440117D01*
X17426153Y-15440117D02*
X17416629Y-15430593D01*
X17416629Y-15430593D02*
X17426153Y-15421069D01*
X17426153Y-15421069D02*
X17426153Y-15440117D01*
X17559486Y-15240117D02*
X17578534Y-15240117D01*
X17578534Y-15240117D02*
X17597582Y-15249641D01*
X17597582Y-15249641D02*
X17607105Y-15259164D01*
X17607105Y-15259164D02*
X17616629Y-15278212D01*
X17616629Y-15278212D02*
X17626153Y-15316307D01*
X17626153Y-15316307D02*
X17626153Y-15363926D01*
X17626153Y-15363926D02*
X17616629Y-15402021D01*
X17616629Y-15402021D02*
X17607105Y-15421069D01*
X17607105Y-15421069D02*
X17597582Y-15430593D01*
X17597582Y-15430593D02*
X17578534Y-15440117D01*
X17578534Y-15440117D02*
X17559486Y-15440117D01*
X17559486Y-15440117D02*
X17540439Y-15430593D01*
X17540439Y-15430593D02*
X17530915Y-15421069D01*
X17530915Y-15421069D02*
X17521391Y-15402021D01*
X17521391Y-15402021D02*
X17511867Y-15363926D01*
X17511867Y-15363926D02*
X17511867Y-15316307D01*
X17511867Y-15316307D02*
X17521391Y-15278212D01*
X17521391Y-15278212D02*
X17530915Y-15259164D01*
X17530915Y-15259164D02*
X17540439Y-15249641D01*
X17540439Y-15249641D02*
X17559486Y-15240117D01*
X17749963Y-15240117D02*
X17769010Y-15240117D01*
X17769010Y-15240117D02*
X17788058Y-15249641D01*
X17788058Y-15249641D02*
X17797582Y-15259164D01*
X17797582Y-15259164D02*
X17807105Y-15278212D01*
X17807105Y-15278212D02*
X17816629Y-15316307D01*
X17816629Y-15316307D02*
X17816629Y-15363926D01*
X17816629Y-15363926D02*
X17807105Y-15402021D01*
X17807105Y-15402021D02*
X17797582Y-15421069D01*
X17797582Y-15421069D02*
X17788058Y-15430593D01*
X17788058Y-15430593D02*
X17769010Y-15440117D01*
X17769010Y-15440117D02*
X17749963Y-15440117D01*
X17749963Y-15440117D02*
X17730915Y-15430593D01*
X17730915Y-15430593D02*
X17721391Y-15421069D01*
X17721391Y-15421069D02*
X17711867Y-15402021D01*
X17711867Y-15402021D02*
X17702344Y-15363926D01*
X17702344Y-15363926D02*
X17702344Y-15316307D01*
X17702344Y-15316307D02*
X17711867Y-15278212D01*
X17711867Y-15278212D02*
X17721391Y-15259164D01*
X17721391Y-15259164D02*
X17730915Y-15249641D01*
X17730915Y-15249641D02*
X17749963Y-15240117D01*
X17940439Y-15240117D02*
X17959486Y-15240117D01*
X17959486Y-15240117D02*
X17978534Y-15249641D01*
X17978534Y-15249641D02*
X17988058Y-15259164D01*
X17988058Y-15259164D02*
X17997582Y-15278212D01*
X17997582Y-15278212D02*
X18007105Y-15316307D01*
X18007105Y-15316307D02*
X18007105Y-15363926D01*
X18007105Y-15363926D02*
X17997582Y-15402021D01*
X17997582Y-15402021D02*
X17988058Y-15421069D01*
X17988058Y-15421069D02*
X17978534Y-15430593D01*
X17978534Y-15430593D02*
X17959486Y-15440117D01*
X17959486Y-15440117D02*
X17940439Y-15440117D01*
X17940439Y-15440117D02*
X17921391Y-15430593D01*
X17921391Y-15430593D02*
X17911867Y-15421069D01*
X17911867Y-15421069D02*
X17902344Y-15402021D01*
X17902344Y-15402021D02*
X17892820Y-15363926D01*
X17892820Y-15363926D02*
X17892820Y-15316307D01*
X17892820Y-15316307D02*
X17902344Y-15278212D01*
X17902344Y-15278212D02*
X17911867Y-15259164D01*
X17911867Y-15259164D02*
X17921391Y-15249641D01*
X17921391Y-15249641D02*
X17940439Y-15240117D01*
X18092820Y-15440117D02*
X18092820Y-15306783D01*
X18092820Y-15325831D02*
X18102344Y-15316307D01*
X18102344Y-15316307D02*
X18121391Y-15306783D01*
X18121391Y-15306783D02*
X18149963Y-15306783D01*
X18149963Y-15306783D02*
X18169010Y-15316307D01*
X18169010Y-15316307D02*
X18178534Y-15335355D01*
X18178534Y-15335355D02*
X18178534Y-15440117D01*
X18178534Y-15335355D02*
X18188058Y-15316307D01*
X18188058Y-15316307D02*
X18207105Y-15306783D01*
X18207105Y-15306783D02*
X18235677Y-15306783D01*
X18235677Y-15306783D02*
X18254725Y-15316307D01*
X18254725Y-15316307D02*
X18264248Y-15335355D01*
X18264248Y-15335355D02*
X18264248Y-15440117D01*
X18359486Y-15440117D02*
X18359486Y-15306783D01*
X18359486Y-15325831D02*
X18369010Y-15316307D01*
X18369010Y-15316307D02*
X18388058Y-15306783D01*
X18388058Y-15306783D02*
X18416629Y-15306783D01*
X18416629Y-15306783D02*
X18435677Y-15316307D01*
X18435677Y-15316307D02*
X18445201Y-15335355D01*
X18445201Y-15335355D02*
X18445201Y-15440117D01*
X18445201Y-15335355D02*
X18454725Y-15316307D01*
X18454725Y-15316307D02*
X18473772Y-15306783D01*
X18473772Y-15306783D02*
X18502344Y-15306783D01*
X18502344Y-15306783D02*
X18521391Y-15316307D01*
X18521391Y-15316307D02*
X18530915Y-15335355D01*
X18530915Y-15335355D02*
X18530915Y-15440117D01*
X18921391Y-15230593D02*
X18749963Y-15487736D01*
X19178534Y-15240117D02*
X19197582Y-15240117D01*
X19197582Y-15240117D02*
X19216629Y-15249641D01*
X19216629Y-15249641D02*
X19226153Y-15259164D01*
X19226153Y-15259164D02*
X19235677Y-15278212D01*
X19235677Y-15278212D02*
X19245201Y-15316307D01*
X19245201Y-15316307D02*
X19245201Y-15363926D01*
X19245201Y-15363926D02*
X19235677Y-15402021D01*
X19235677Y-15402021D02*
X19226153Y-15421069D01*
X19226153Y-15421069D02*
X19216629Y-15430593D01*
X19216629Y-15430593D02*
X19197582Y-15440117D01*
X19197582Y-15440117D02*
X19178534Y-15440117D01*
X19178534Y-15440117D02*
X19159487Y-15430593D01*
X19159487Y-15430593D02*
X19149963Y-15421069D01*
X19149963Y-15421069D02*
X19140439Y-15402021D01*
X19140439Y-15402021D02*
X19130915Y-15363926D01*
X19130915Y-15363926D02*
X19130915Y-15316307D01*
X19130915Y-15316307D02*
X19140439Y-15278212D01*
X19140439Y-15278212D02*
X19149963Y-15259164D01*
X19149963Y-15259164D02*
X19159487Y-15249641D01*
X19159487Y-15249641D02*
X19178534Y-15240117D01*
X19330915Y-15421069D02*
X19340439Y-15430593D01*
X19340439Y-15430593D02*
X19330915Y-15440117D01*
X19330915Y-15440117D02*
X19321391Y-15430593D01*
X19321391Y-15430593D02*
X19330915Y-15421069D01*
X19330915Y-15421069D02*
X19330915Y-15440117D01*
X19530915Y-15440117D02*
X19416629Y-15440117D01*
X19473772Y-15440117D02*
X19473772Y-15240117D01*
X19473772Y-15240117D02*
X19454725Y-15268688D01*
X19454725Y-15268688D02*
X19435677Y-15287736D01*
X19435677Y-15287736D02*
X19416629Y-15297260D01*
X19711868Y-15240117D02*
X19616629Y-15240117D01*
X19616629Y-15240117D02*
X19607106Y-15335355D01*
X19607106Y-15335355D02*
X19616629Y-15325831D01*
X19616629Y-15325831D02*
X19635677Y-15316307D01*
X19635677Y-15316307D02*
X19683296Y-15316307D01*
X19683296Y-15316307D02*
X19702344Y-15325831D01*
X19702344Y-15325831D02*
X19711868Y-15335355D01*
X19711868Y-15335355D02*
X19721391Y-15354402D01*
X19721391Y-15354402D02*
X19721391Y-15402021D01*
X19721391Y-15402021D02*
X19711868Y-15421069D01*
X19711868Y-15421069D02*
X19702344Y-15430593D01*
X19702344Y-15430593D02*
X19683296Y-15440117D01*
X19683296Y-15440117D02*
X19635677Y-15440117D01*
X19635677Y-15440117D02*
X19616629Y-15430593D01*
X19616629Y-15430593D02*
X19607106Y-15421069D01*
X19788058Y-15240117D02*
X19921391Y-15240117D01*
X19921391Y-15240117D02*
X19835677Y-15440117D01*
X20092820Y-15240117D02*
X19997582Y-15240117D01*
X19997582Y-15240117D02*
X19988058Y-15335355D01*
X19988058Y-15335355D02*
X19997582Y-15325831D01*
X19997582Y-15325831D02*
X20016629Y-15316307D01*
X20016629Y-15316307D02*
X20064249Y-15316307D01*
X20064249Y-15316307D02*
X20083296Y-15325831D01*
X20083296Y-15325831D02*
X20092820Y-15335355D01*
X20092820Y-15335355D02*
X20102344Y-15354402D01*
X20102344Y-15354402D02*
X20102344Y-15402021D01*
X20102344Y-15402021D02*
X20092820Y-15421069D01*
X20092820Y-15421069D02*
X20083296Y-15430593D01*
X20083296Y-15430593D02*
X20064249Y-15440117D01*
X20064249Y-15440117D02*
X20016629Y-15440117D01*
X20016629Y-15440117D02*
X19997582Y-15430593D01*
X19997582Y-15430593D02*
X19988058Y-15421069D01*
X20178534Y-15240117D02*
X20178534Y-15278212D01*
X20254725Y-15240117D02*
X20254725Y-15278212D01*
X20549963Y-15516307D02*
X20540439Y-15506783D01*
X20540439Y-15506783D02*
X20521391Y-15478212D01*
X20521391Y-15478212D02*
X20511868Y-15459164D01*
X20511868Y-15459164D02*
X20502344Y-15430593D01*
X20502344Y-15430593D02*
X20492820Y-15382974D01*
X20492820Y-15382974D02*
X20492820Y-15344879D01*
X20492820Y-15344879D02*
X20502344Y-15297260D01*
X20502344Y-15297260D02*
X20511868Y-15268688D01*
X20511868Y-15268688D02*
X20521391Y-15249641D01*
X20521391Y-15249641D02*
X20540439Y-15221069D01*
X20540439Y-15221069D02*
X20549963Y-15211545D01*
X20607106Y-15240117D02*
X20730915Y-15240117D01*
X20730915Y-15240117D02*
X20664249Y-15316307D01*
X20664249Y-15316307D02*
X20692820Y-15316307D01*
X20692820Y-15316307D02*
X20711868Y-15325831D01*
X20711868Y-15325831D02*
X20721391Y-15335355D01*
X20721391Y-15335355D02*
X20730915Y-15354402D01*
X20730915Y-15354402D02*
X20730915Y-15402021D01*
X20730915Y-15402021D02*
X20721391Y-15421069D01*
X20721391Y-15421069D02*
X20711868Y-15430593D01*
X20711868Y-15430593D02*
X20692820Y-15440117D01*
X20692820Y-15440117D02*
X20635677Y-15440117D01*
X20635677Y-15440117D02*
X20616630Y-15430593D01*
X20616630Y-15430593D02*
X20607106Y-15421069D01*
X20807106Y-15259164D02*
X20816630Y-15249641D01*
X20816630Y-15249641D02*
X20835677Y-15240117D01*
X20835677Y-15240117D02*
X20883296Y-15240117D01*
X20883296Y-15240117D02*
X20902344Y-15249641D01*
X20902344Y-15249641D02*
X20911868Y-15259164D01*
X20911868Y-15259164D02*
X20921391Y-15278212D01*
X20921391Y-15278212D02*
X20921391Y-15297260D01*
X20921391Y-15297260D02*
X20911868Y-15325831D01*
X20911868Y-15325831D02*
X20797582Y-15440117D01*
X20797582Y-15440117D02*
X20921391Y-15440117D01*
X21159487Y-15440117D02*
X21159487Y-15240117D01*
X21245201Y-15440117D02*
X21245201Y-15335355D01*
X21245201Y-15335355D02*
X21235677Y-15316307D01*
X21235677Y-15316307D02*
X21216630Y-15306783D01*
X21216630Y-15306783D02*
X21188058Y-15306783D01*
X21188058Y-15306783D02*
X21169011Y-15316307D01*
X21169011Y-15316307D02*
X21159487Y-15325831D01*
X21369011Y-15440117D02*
X21349963Y-15430593D01*
X21349963Y-15430593D02*
X21340439Y-15421069D01*
X21340439Y-15421069D02*
X21330915Y-15402021D01*
X21330915Y-15402021D02*
X21330915Y-15344879D01*
X21330915Y-15344879D02*
X21340439Y-15325831D01*
X21340439Y-15325831D02*
X21349963Y-15316307D01*
X21349963Y-15316307D02*
X21369011Y-15306783D01*
X21369011Y-15306783D02*
X21397582Y-15306783D01*
X21397582Y-15306783D02*
X21416630Y-15316307D01*
X21416630Y-15316307D02*
X21426153Y-15325831D01*
X21426153Y-15325831D02*
X21435677Y-15344879D01*
X21435677Y-15344879D02*
X21435677Y-15402021D01*
X21435677Y-15402021D02*
X21426153Y-15421069D01*
X21426153Y-15421069D02*
X21416630Y-15430593D01*
X21416630Y-15430593D02*
X21397582Y-15440117D01*
X21397582Y-15440117D02*
X21369011Y-15440117D01*
X21549963Y-15440117D02*
X21530915Y-15430593D01*
X21530915Y-15430593D02*
X21521392Y-15411545D01*
X21521392Y-15411545D02*
X21521392Y-15240117D01*
X21702344Y-15430593D02*
X21683296Y-15440117D01*
X21683296Y-15440117D02*
X21645201Y-15440117D01*
X21645201Y-15440117D02*
X21626153Y-15430593D01*
X21626153Y-15430593D02*
X21616630Y-15411545D01*
X21616630Y-15411545D02*
X21616630Y-15335355D01*
X21616630Y-15335355D02*
X21626153Y-15316307D01*
X21626153Y-15316307D02*
X21645201Y-15306783D01*
X21645201Y-15306783D02*
X21683296Y-15306783D01*
X21683296Y-15306783D02*
X21702344Y-15316307D01*
X21702344Y-15316307D02*
X21711868Y-15335355D01*
X21711868Y-15335355D02*
X21711868Y-15354402D01*
X21711868Y-15354402D02*
X21616630Y-15373450D01*
X21788058Y-15430593D02*
X21807106Y-15440117D01*
X21807106Y-15440117D02*
X21845201Y-15440117D01*
X21845201Y-15440117D02*
X21864249Y-15430593D01*
X21864249Y-15430593D02*
X21873773Y-15411545D01*
X21873773Y-15411545D02*
X21873773Y-15402021D01*
X21873773Y-15402021D02*
X21864249Y-15382974D01*
X21864249Y-15382974D02*
X21845201Y-15373450D01*
X21845201Y-15373450D02*
X21816630Y-15373450D01*
X21816630Y-15373450D02*
X21797582Y-15363926D01*
X21797582Y-15363926D02*
X21788058Y-15344879D01*
X21788058Y-15344879D02*
X21788058Y-15335355D01*
X21788058Y-15335355D02*
X21797582Y-15316307D01*
X21797582Y-15316307D02*
X21816630Y-15306783D01*
X21816630Y-15306783D02*
X21845201Y-15306783D01*
X21845201Y-15306783D02*
X21864249Y-15316307D01*
X21940439Y-15516307D02*
X21949963Y-15506783D01*
X21949963Y-15506783D02*
X21969011Y-15478212D01*
X21969011Y-15478212D02*
X21978534Y-15459164D01*
X21978534Y-15459164D02*
X21988058Y-15430593D01*
X21988058Y-15430593D02*
X21997582Y-15382974D01*
X21997582Y-15382974D02*
X21997582Y-15344879D01*
X21997582Y-15344879D02*
X21988058Y-15297260D01*
X21988058Y-15297260D02*
X21978534Y-15268688D01*
X21978534Y-15268688D02*
X21969011Y-15249641D01*
X21969011Y-15249641D02*
X21949963Y-15221069D01*
X21949963Y-15221069D02*
X21940439Y-15211545D01*
X22302344Y-15516307D02*
X22292820Y-15506783D01*
X22292820Y-15506783D02*
X22273773Y-15478212D01*
X22273773Y-15478212D02*
X22264249Y-15459164D01*
X22264249Y-15459164D02*
X22254725Y-15430593D01*
X22254725Y-15430593D02*
X22245201Y-15382974D01*
X22245201Y-15382974D02*
X22245201Y-15344879D01*
X22245201Y-15344879D02*
X22254725Y-15297260D01*
X22254725Y-15297260D02*
X22264249Y-15268688D01*
X22264249Y-15268688D02*
X22273773Y-15249641D01*
X22273773Y-15249641D02*
X22292820Y-15221069D01*
X22292820Y-15221069D02*
X22302344Y-15211545D01*
X22378534Y-15306783D02*
X22378534Y-15440117D01*
X22378534Y-15325831D02*
X22388058Y-15316307D01*
X22388058Y-15316307D02*
X22407106Y-15306783D01*
X22407106Y-15306783D02*
X22435677Y-15306783D01*
X22435677Y-15306783D02*
X22454725Y-15316307D01*
X22454725Y-15316307D02*
X22464249Y-15335355D01*
X22464249Y-15335355D02*
X22464249Y-15440117D01*
X22588058Y-15440117D02*
X22569011Y-15430593D01*
X22569011Y-15430593D02*
X22559487Y-15421069D01*
X22559487Y-15421069D02*
X22549963Y-15402021D01*
X22549963Y-15402021D02*
X22549963Y-15344879D01*
X22549963Y-15344879D02*
X22559487Y-15325831D01*
X22559487Y-15325831D02*
X22569011Y-15316307D01*
X22569011Y-15316307D02*
X22588058Y-15306783D01*
X22588058Y-15306783D02*
X22616630Y-15306783D01*
X22616630Y-15306783D02*
X22635677Y-15316307D01*
X22635677Y-15316307D02*
X22645201Y-15325831D01*
X22645201Y-15325831D02*
X22654725Y-15344879D01*
X22654725Y-15344879D02*
X22654725Y-15402021D01*
X22654725Y-15402021D02*
X22645201Y-15421069D01*
X22645201Y-15421069D02*
X22635677Y-15430593D01*
X22635677Y-15430593D02*
X22616630Y-15440117D01*
X22616630Y-15440117D02*
X22588058Y-15440117D01*
X22711868Y-15306783D02*
X22788058Y-15306783D01*
X22740439Y-15240117D02*
X22740439Y-15411545D01*
X22740439Y-15411545D02*
X22749963Y-15430593D01*
X22749963Y-15430593D02*
X22769011Y-15440117D01*
X22769011Y-15440117D02*
X22788058Y-15440117D01*
X23007106Y-15306783D02*
X23007106Y-15506783D01*
X23007106Y-15316307D02*
X23026153Y-15306783D01*
X23026153Y-15306783D02*
X23064249Y-15306783D01*
X23064249Y-15306783D02*
X23083296Y-15316307D01*
X23083296Y-15316307D02*
X23092820Y-15325831D01*
X23092820Y-15325831D02*
X23102344Y-15344879D01*
X23102344Y-15344879D02*
X23102344Y-15402021D01*
X23102344Y-15402021D02*
X23092820Y-15421069D01*
X23092820Y-15421069D02*
X23083296Y-15430593D01*
X23083296Y-15430593D02*
X23064249Y-15440117D01*
X23064249Y-15440117D02*
X23026153Y-15440117D01*
X23026153Y-15440117D02*
X23007106Y-15430593D01*
X23216630Y-15440117D02*
X23197582Y-15430593D01*
X23197582Y-15430593D02*
X23188058Y-15411545D01*
X23188058Y-15411545D02*
X23188058Y-15240117D01*
X23378534Y-15440117D02*
X23378534Y-15335355D01*
X23378534Y-15335355D02*
X23369011Y-15316307D01*
X23369011Y-15316307D02*
X23349963Y-15306783D01*
X23349963Y-15306783D02*
X23311868Y-15306783D01*
X23311868Y-15306783D02*
X23292820Y-15316307D01*
X23378534Y-15430593D02*
X23359487Y-15440117D01*
X23359487Y-15440117D02*
X23311868Y-15440117D01*
X23311868Y-15440117D02*
X23292820Y-15430593D01*
X23292820Y-15430593D02*
X23283296Y-15411545D01*
X23283296Y-15411545D02*
X23283296Y-15392498D01*
X23283296Y-15392498D02*
X23292820Y-15373450D01*
X23292820Y-15373450D02*
X23311868Y-15363926D01*
X23311868Y-15363926D02*
X23359487Y-15363926D01*
X23359487Y-15363926D02*
X23378534Y-15354402D01*
X23445201Y-15306783D02*
X23521392Y-15306783D01*
X23473773Y-15240117D02*
X23473773Y-15411545D01*
X23473773Y-15411545D02*
X23483296Y-15430593D01*
X23483296Y-15430593D02*
X23502344Y-15440117D01*
X23502344Y-15440117D02*
X23521392Y-15440117D01*
X23664249Y-15430593D02*
X23645201Y-15440117D01*
X23645201Y-15440117D02*
X23607106Y-15440117D01*
X23607106Y-15440117D02*
X23588058Y-15430593D01*
X23588058Y-15430593D02*
X23578534Y-15411545D01*
X23578534Y-15411545D02*
X23578534Y-15335355D01*
X23578534Y-15335355D02*
X23588058Y-15316307D01*
X23588058Y-15316307D02*
X23607106Y-15306783D01*
X23607106Y-15306783D02*
X23645201Y-15306783D01*
X23645201Y-15306783D02*
X23664249Y-15316307D01*
X23664249Y-15316307D02*
X23673773Y-15335355D01*
X23673773Y-15335355D02*
X23673773Y-15354402D01*
X23673773Y-15354402D02*
X23578534Y-15373450D01*
X23845201Y-15440117D02*
X23845201Y-15240117D01*
X23845201Y-15430593D02*
X23826154Y-15440117D01*
X23826154Y-15440117D02*
X23788058Y-15440117D01*
X23788058Y-15440117D02*
X23769011Y-15430593D01*
X23769011Y-15430593D02*
X23759487Y-15421069D01*
X23759487Y-15421069D02*
X23749963Y-15402021D01*
X23749963Y-15402021D02*
X23749963Y-15344879D01*
X23749963Y-15344879D02*
X23759487Y-15325831D01*
X23759487Y-15325831D02*
X23769011Y-15316307D01*
X23769011Y-15316307D02*
X23788058Y-15306783D01*
X23788058Y-15306783D02*
X23826154Y-15306783D01*
X23826154Y-15306783D02*
X23845201Y-15316307D01*
X23921392Y-15516307D02*
X23930915Y-15506783D01*
X23930915Y-15506783D02*
X23949963Y-15478212D01*
X23949963Y-15478212D02*
X23959487Y-15459164D01*
X23959487Y-15459164D02*
X23969011Y-15430593D01*
X23969011Y-15430593D02*
X23978534Y-15382974D01*
X23978534Y-15382974D02*
X23978534Y-15344879D01*
X23978534Y-15344879D02*
X23969011Y-15297260D01*
X23969011Y-15297260D02*
X23959487Y-15268688D01*
X23959487Y-15268688D02*
X23949963Y-15249641D01*
X23949963Y-15249641D02*
X23930915Y-15221069D01*
X23930915Y-15221069D02*
X23921392Y-15211545D01*
M02*
