G04 #@! TF.GenerationSoftware,KiCad,Pcbnew,10.0.5*
G04 #@! TF.CreationDate,2026-09-23T16:28:02+09:00*
G04 #@! TF.ProjectId,keyboard,6b657962-6f61-4726-942e-6b696361645f,rev?*
G04 #@! TF.SameCoordinates,Original*
G04 #@! TF.FileFunction,Copper,L2,Bot*
G04 #@! TF.FilePolarity,Positive*
%FSLAX46Y46*%
G04 Gerber Fmt 4.6, Leading zero omitted, Abs format (unit mm)*
G04 Created by KiCad (PCBNEW 10.0.5) date 2026-09-23 16:28:02*
%MOMM*%
%LPD*%
G01*
G04 APERTURE LIST*
G04 Aperture macros list*
%AMRoundRect*
0 Rectangle with rounded corners*
0 $1 Rounding radius*
0 $2 $3 $4 $5 $6 $7 $8 $9 X,Y pos of 4 corners*
0 Add a 4 corners polygon primitive as box body*
4,1,4,$2,$3,$4,$5,$6,$7,$8,$9,$2,$3,0*
0 Add four circle primitives for the rounded corners*
1,1,$1+$1,$2,$3*
1,1,$1+$1,$4,$5*
1,1,$1+$1,$6,$7*
1,1,$1+$1,$8,$9*
0 Add four rect primitives between the rounded corners*
20,1,$1+$1,$2,$3,$4,$5,0*
20,1,$1+$1,$4,$5,$6,$7,0*
20,1,$1+$1,$6,$7,$8,$9,0*
20,1,$1+$1,$8,$9,$2,$3,0*%
%AMRotRect*
0 Rectangle, with rotation*
0 The origin of the aperture is its center*
0 $1 length*
0 $2 width*
0 $3 Rotation angle, in degrees counterclockwise*
0 Add horizontal line*
21,1,$1,$2,0,0,$3*%
G04 Aperture macros list end*
G04 #@! TA.AperFunction,SMDPad,CuDef*
%ADD10R,3.300000X3.000000*%
G04 #@! TD*
G04 #@! TA.AperFunction,SMDPad,CuDef*
%ADD11RotRect,3.300000X3.000000X105.000000*%
G04 #@! TD*
G04 #@! TA.AperFunction,ComponentPad*
%ADD12O,1.800000X1.200000*%
G04 #@! TD*
G04 #@! TA.AperFunction,ComponentPad*
%ADD13O,1.900000X1.900000*%
G04 #@! TD*
G04 #@! TA.AperFunction,ComponentPad*
%ADD14O,1.200000X2.500000*%
G04 #@! TD*
G04 #@! TA.AperFunction,SMDPad,CuDef*
%ADD15R,0.900000X1.200000*%
G04 #@! TD*
G04 #@! TA.AperFunction,SMDPad,CuDef*
%ADD16RoundRect,0.180000X0.270000X-0.270000X0.270000X0.270000X-0.270000X0.270000X-0.270000X-0.270000X0*%
G04 #@! TD*
G04 #@! TA.AperFunction,SMDPad,CuDef*
%ADD17R,2.200000X0.820000*%
G04 #@! TD*
G04 #@! TA.AperFunction,SMDPad,CuDef*
%ADD18RotRect,0.900000X1.200000X105.000000*%
G04 #@! TD*
G04 #@! TA.AperFunction,SMDPad,CuDef*
%ADD19RoundRect,0.180000X0.270000X0.270000X-0.270000X0.270000X-0.270000X-0.270000X0.270000X-0.270000X0*%
G04 #@! TD*
G04 #@! TA.AperFunction,SMDPad,CuDef*
%ADD20RotRect,2.200000X0.820000X105.000000*%
G04 #@! TD*
G04 #@! TA.AperFunction,SMDPad,CuDef*
%ADD21RoundRect,0.180000X-0.190919X-0.330681X0.330681X-0.190919X0.190919X0.330681X-0.330681X0.190919X0*%
G04 #@! TD*
G04 #@! TA.AperFunction,SMDPad,CuDef*
%ADD22RoundRect,0.150000X0.512500X0.150000X-0.512500X0.150000X-0.512500X-0.150000X0.512500X-0.150000X0*%
G04 #@! TD*
G04 #@! TA.AperFunction,SMDPad,CuDef*
%ADD23RoundRect,0.230000X0.670000X-0.345000X0.670000X0.345000X-0.670000X0.345000X-0.670000X-0.345000X0*%
G04 #@! TD*
G04 #@! TA.AperFunction,SMDPad,CuDef*
%ADD24RoundRect,0.087500X0.250000X0.087500X-0.250000X0.087500X-0.250000X-0.087500X0.250000X-0.087500X0*%
G04 #@! TD*
G04 #@! TA.AperFunction,ComponentPad*
%ADD25R,2.000000X2.000000*%
G04 #@! TD*
G04 #@! TA.AperFunction,ComponentPad*
%ADD26C,2.000000*%
G04 #@! TD*
G04 #@! TA.AperFunction,ComponentPad*
%ADD27RoundRect,0.250000X0.625000X-0.350000X0.625000X0.350000X-0.625000X0.350000X-0.625000X-0.350000X0*%
G04 #@! TD*
G04 #@! TA.AperFunction,ComponentPad*
%ADD28O,1.750000X1.200000*%
G04 #@! TD*
G04 #@! TA.AperFunction,ViaPad*
%ADD29C,0.650000*%
G04 #@! TD*
G04 #@! TA.AperFunction,ViaPad*
%ADD30C,0.500000*%
G04 #@! TD*
G04 #@! TA.AperFunction,Conductor*
%ADD31C,0.250000*%
G04 #@! TD*
G04 #@! TA.AperFunction,Conductor*
%ADD32C,0.200000*%
G04 #@! TD*
G04 APERTURE END LIST*
D10*
G04 #@! TO.P,SW39,1*
G04 #@! TO.N,/COL5*
X173525000Y-63142500D03*
G04 #@! TO.P,SW39,2*
G04 #@! TO.N,/matrix/SW39_A*
X187125000Y-60602500D03*
G04 #@! TD*
G04 #@! TO.P,SW22,1*
G04 #@! TO.N,/COL4*
X268775000Y-29805000D03*
G04 #@! TO.P,SW22,2*
G04 #@! TO.N,/matrix/SW22_A*
X282375000Y-27265000D03*
G04 #@! TD*
G04 #@! TO.P,SW5,1*
G04 #@! TO.N,/COL7*
X211625000Y-8850000D03*
G04 #@! TO.P,SW5,2*
G04 #@! TO.N,/matrix/SW5_A*
X225225000Y-6310000D03*
G04 #@! TD*
G04 #@! TO.P,SW38,1*
G04 #@! TO.N,/COL4*
X290206300Y-49807500D03*
G04 #@! TO.P,SW38,2*
G04 #@! TO.N,/matrix/SW38_A*
X303806300Y-47267500D03*
G04 #@! TD*
G04 #@! TO.P,SW32,1*
G04 #@! TO.N,/COL5*
X249725000Y-46950000D03*
G04 #@! TO.P,SW32,2*
G04 #@! TO.N,/matrix/SW32_A*
X263325000Y-44410000D03*
G04 #@! TD*
G04 #@! TO.P,SW2,1*
G04 #@! TO.N,/COL6*
X230675000Y-6945000D03*
G04 #@! TO.P,SW2,2*
G04 #@! TO.N,/matrix/SW2_A*
X244275000Y-4405000D03*
G04 #@! TD*
G04 #@! TO.P,SW45,1*
G04 #@! TO.N,/COL7*
X211625000Y-66000000D03*
G04 #@! TO.P,SW45,2*
G04 #@! TO.N,/matrix/SW45_A*
X225225000Y-63460000D03*
G04 #@! TD*
G04 #@! TO.P,SW17,1*
G04 #@! TO.N,/COL5*
X211625000Y-27900000D03*
G04 #@! TO.P,SW17,2*
G04 #@! TO.N,/matrix/SW17_A*
X225225000Y-25360000D03*
G04 #@! TD*
G04 #@! TO.P,SW14,1*
G04 #@! TO.N,/COL4*
X230675000Y-25995000D03*
G04 #@! TO.P,SW14,2*
G04 #@! TO.N,/matrix/SW14_A*
X244275000Y-23455000D03*
G04 #@! TD*
G04 #@! TO.P,SW46,1*
G04 #@! TO.N,/COL4*
X249725000Y-66000000D03*
G04 #@! TO.P,SW46,2*
G04 #@! TO.N,/matrix/SW46_A*
X263325000Y-63460000D03*
G04 #@! TD*
G04 #@! TO.P,SW18,1*
G04 #@! TO.N,/COL6*
X249725000Y-27900000D03*
G04 #@! TO.P,SW18,2*
G04 #@! TO.N,/matrix/SW18_A*
X263325000Y-25360000D03*
G04 #@! TD*
D11*
G04 #@! TO.P,SW57,1*
G04 #@! TO.N,/COL5*
X191173190Y-96425048D03*
G04 #@! TO.P,SW57,2*
G04 #@! TO.N,/matrix/SW57_A*
X197120700Y-108807647D03*
G04 #@! TD*
D10*
G04 #@! TO.P,SW49,1*
G04 #@! TO.N,/COL5*
X192575000Y-67905000D03*
G04 #@! TO.P,SW49,2*
G04 #@! TO.N,/matrix/SW49_A*
X206175000Y-65365000D03*
G04 #@! TD*
G04 #@! TO.P,SW10,1*
G04 #@! TO.N,/COL6*
X268775000Y-10755000D03*
G04 #@! TO.P,SW10,2*
G04 #@! TO.N,/matrix/SW10_A*
X282375000Y-8215000D03*
G04 #@! TD*
G04 #@! TO.P,SW12,1*
G04 #@! TO.N,/COL7*
X287825000Y-11707500D03*
G04 #@! TO.P,SW12,2*
G04 #@! TO.N,/matrix/SW12_A*
X301425000Y-9167500D03*
G04 #@! TD*
G04 #@! TO.P,SW42,1*
G04 #@! TO.N,/COL6*
X230675000Y-64095000D03*
G04 #@! TO.P,SW42,2*
G04 #@! TO.N,/matrix/SW42_A*
X244275000Y-61555000D03*
G04 #@! TD*
G04 #@! TO.P,SW36,1*
G04 #@! TO.N,/COL7*
X268775000Y-48855000D03*
G04 #@! TO.P,SW36,2*
G04 #@! TO.N,/matrix/SW36_A*
X282375000Y-46315000D03*
G04 #@! TD*
G04 #@! TO.P,SW52,1*
G04 #@! TO.N,/COL7*
X290206300Y-68857500D03*
G04 #@! TO.P,SW52,2*
G04 #@! TO.N,/matrix/SW52_A*
X303806300Y-66317500D03*
G04 #@! TD*
G04 #@! TO.P,SW27,1*
G04 #@! TO.N,/COL6*
X173525000Y-45045000D03*
G04 #@! TO.P,SW27,2*
G04 #@! TO.N,/matrix/SW27_A*
X187125000Y-42505000D03*
G04 #@! TD*
G04 #@! TO.P,SW6,1*
G04 #@! TO.N,/COL4*
X249725000Y-8850000D03*
G04 #@! TO.P,SW6,2*
G04 #@! TO.N,/matrix/SW6_A*
X263325000Y-6310000D03*
G04 #@! TD*
G04 #@! TO.P,SW31,1*
G04 #@! TO.N,/COL4*
X211625000Y-46950000D03*
G04 #@! TO.P,SW31,2*
G04 #@! TO.N,/matrix/SW31_A*
X225225000Y-44410000D03*
G04 #@! TD*
G04 #@! TO.P,SW35,1*
G04 #@! TO.N,/COL6*
X192575000Y-48855000D03*
G04 #@! TO.P,SW35,2*
G04 #@! TO.N,/matrix/SW35_A*
X206175000Y-46315000D03*
G04 #@! TD*
G04 #@! TO.P,SW28,1*
G04 #@! TO.N,/COL7*
X230675000Y-45045000D03*
G04 #@! TO.P,SW28,2*
G04 #@! TO.N,/matrix/SW28_A*
X244275000Y-42505000D03*
G04 #@! TD*
G04 #@! TO.P,SW9,1*
G04 #@! TO.N,/COL5*
X192575000Y-10755000D03*
G04 #@! TO.P,SW9,2*
G04 #@! TO.N,/matrix/SW9_A*
X206175000Y-8215000D03*
G04 #@! TD*
G04 #@! TO.P,SW24,1*
G04 #@! TO.N,/COL5*
X290206300Y-30757500D03*
G04 #@! TO.P,SW24,2*
G04 #@! TO.N,/matrix/SW24_A*
X303806300Y-28217500D03*
G04 #@! TD*
G04 #@! TO.P,SW21,1*
G04 #@! TO.N,/COL7*
X192575000Y-29805000D03*
G04 #@! TO.P,SW21,2*
G04 #@! TO.N,/matrix/SW21_A*
X206175000Y-27265000D03*
G04 #@! TD*
D11*
G04 #@! TO.P,SW56,1*
G04 #@! TO.N,/COL4*
X210190390Y-93794648D03*
G04 #@! TO.P,SW56,2*
G04 #@! TO.N,/matrix/SW56_A*
X216137900Y-106177247D03*
G04 #@! TD*
D12*
G04 #@! TO.P,U2,17*
G04 #@! TO.N,/COL6*
X171390000Y-10337500D03*
D13*
G04 #@! TO.P,U2,26*
G04 #@! TO.N,unconnected-(U2-RESET-Pad26)*
X178775000Y-5575000D03*
G04 #@! TO.P,U2,27*
G04 #@! TO.N,/GND_RIGHT*
X181315000Y-5575000D03*
D14*
G04 #@! TO.P,U2,28*
G04 #@! TO.N,/VBAT_RIGHT*
X179051012Y-17125323D03*
G04 #@! TO.P,U2,29*
G04 #@! TO.N,/GND_RIGHT*
X181051012Y-17125323D03*
G04 #@! TD*
D10*
G04 #@! TO.P,SW50,1*
G04 #@! TO.N,/COL6*
X268775000Y-67905000D03*
G04 #@! TO.P,SW50,2*
G04 #@! TO.N,/matrix/SW50_A*
X282375000Y-65365000D03*
G04 #@! TD*
D15*
G04 #@! TO.P,D17,1*
G04 #@! TO.N,/ROW10*
X227725000Y-33480000D03*
G04 #@! TO.P,D17,2*
G04 #@! TO.N,/matrix/SW17_A*
X224425000Y-33480000D03*
G04 #@! TD*
D16*
G04 #@! TO.P,C_RGB50,1*
G04 #@! TO.N,/RGB_5V_RIGHT*
X269725000Y-76485000D03*
G04 #@! TO.P,C_RGB50,2*
G04 #@! TO.N,/GND_RIGHT*
X269725000Y-74985000D03*
G04 #@! TD*
D17*
G04 #@! TO.P,LED18,1*
G04 #@! TO.N,/RGB_5V_RIGHT*
X254015000Y-34980000D03*
G04 #@! TO.P,LED18,2*
G04 #@! TO.N,/GND_RIGHT*
X260335000Y-34980000D03*
G04 #@! TO.P,LED18,3*
G04 #@! TO.N,/rgb/RGB_LED_right_7*
X260335000Y-36480000D03*
G04 #@! TO.P,LED18,4*
G04 #@! TO.N,/rgb/RGB_LED_right_8*
X254015000Y-36480000D03*
G04 #@! TD*
D18*
G04 #@! TO.P,D57,1*
G04 #@! TO.N,/ROW8*
X189976050Y-113362078D03*
G04 #@! TO.P,D57,2*
G04 #@! TO.N,/matrix/SW57_A*
X189121950Y-110174522D03*
G04 #@! TD*
D17*
G04 #@! TO.P,LED50,1*
G04 #@! TO.N,/RGB_5V_RIGHT*
X273065000Y-74985000D03*
G04 #@! TO.P,LED50,2*
G04 #@! TO.N,/GND_RIGHT*
X279385000Y-74985000D03*
G04 #@! TO.P,LED50,3*
G04 #@! TO.N,/rgb/RGB_LED_right_23*
X279385000Y-76485000D03*
G04 #@! TO.P,LED50,4*
G04 #@! TO.N,/rgb/RGB_LED_right_24*
X273065000Y-76485000D03*
G04 #@! TD*
G04 #@! TO.P,LED24,1*
G04 #@! TO.N,/RGB_5V_RIGHT*
X294496300Y-37837500D03*
G04 #@! TO.P,LED24,2*
G04 #@! TO.N,/GND_RIGHT*
X300816300Y-37837500D03*
G04 #@! TO.P,LED24,3*
G04 #@! TO.N,/rgb/RGB_LED_right_10*
X300816300Y-39337500D03*
G04 #@! TO.P,LED24,4*
G04 #@! TO.N,/rgb/RGB_LED_right_11*
X294496300Y-39337500D03*
G04 #@! TD*
G04 #@! TO.P,LED5,1*
G04 #@! TO.N,/RGB_5V_RIGHT*
X215915000Y-15930000D03*
G04 #@! TO.P,LED5,2*
G04 #@! TO.N,/GND_RIGHT*
X222235000Y-15930000D03*
G04 #@! TO.P,LED5,3*
G04 #@! TO.N,/rgb/RGB_LED_right_0*
X222235000Y-17430000D03*
G04 #@! TO.P,LED5,4*
G04 #@! TO.N,/rgb/RGB_LED_right_1*
X215915000Y-17430000D03*
G04 #@! TD*
D15*
G04 #@! TO.P,D22,1*
G04 #@! TO.N,/ROW11*
X284875000Y-35385000D03*
G04 #@! TO.P,D22,2*
G04 #@! TO.N,/matrix/SW22_A*
X281575000Y-35385000D03*
G04 #@! TD*
G04 #@! TO.P,D5,1*
G04 #@! TO.N,/ROW8*
X227725000Y-14430000D03*
G04 #@! TO.P,D5,2*
G04 #@! TO.N,/matrix/SW5_A*
X224425000Y-14430000D03*
G04 #@! TD*
D19*
G04 #@! TO.P,L_RGB2,1*
G04 #@! TO.N,/VBAT_RIGHT*
X185750000Y-26600000D03*
G04 #@! TO.P,L_RGB2,2*
G04 #@! TO.N,/power/RGB_SW_RIGHT*
X184250000Y-26600000D03*
G04 #@! TD*
D17*
G04 #@! TO.P,LED42,1*
G04 #@! TO.N,/RGB_5V_RIGHT*
X234965000Y-71175000D03*
G04 #@! TO.P,LED42,2*
G04 #@! TO.N,/GND_RIGHT*
X241285000Y-71175000D03*
G04 #@! TO.P,LED42,3*
G04 #@! TO.N,/rgb/RGB_LED_right_19*
X241285000Y-72675000D03*
G04 #@! TO.P,LED42,4*
G04 #@! TO.N,/rgb/RGB_LED_right_20*
X234965000Y-72675000D03*
G04 #@! TD*
D15*
G04 #@! TO.P,D49,1*
G04 #@! TO.N,/ROW14*
X208675000Y-73485000D03*
G04 #@! TO.P,D49,2*
G04 #@! TO.N,/matrix/SW49_A*
X205375000Y-73485000D03*
G04 #@! TD*
D16*
G04 #@! TO.P,C_RGB2,1*
G04 #@! TO.N,/RGB_5V_RIGHT*
X231625000Y-15525000D03*
G04 #@! TO.P,C_RGB2,2*
G04 #@! TO.N,/GND_RIGHT*
X231625000Y-14025000D03*
G04 #@! TD*
D15*
G04 #@! TO.P,D50,1*
G04 #@! TO.N,/ROW14*
X284875000Y-73485000D03*
G04 #@! TO.P,D50,2*
G04 #@! TO.N,/matrix/SW50_A*
X281575000Y-73485000D03*
G04 #@! TD*
G04 #@! TO.P,D12,1*
G04 #@! TO.N,/ROW9*
X303925000Y-17287500D03*
G04 #@! TO.P,D12,2*
G04 #@! TO.N,/matrix/SW12_A*
X300625000Y-17287500D03*
G04 #@! TD*
G04 #@! TO.P,D32,1*
G04 #@! TO.N,/ROW12*
X265825000Y-52530000D03*
G04 #@! TO.P,D32,2*
G04 #@! TO.N,/matrix/SW32_A*
X262525000Y-52530000D03*
G04 #@! TD*
D16*
G04 #@! TO.P,C_RGB5,1*
G04 #@! TO.N,/RGB_5V_RIGHT*
X212575000Y-17430000D03*
G04 #@! TO.P,C_RGB5,2*
G04 #@! TO.N,/GND_RIGHT*
X212575000Y-15930000D03*
G04 #@! TD*
G04 #@! TO.P,C_RGB27,1*
G04 #@! TO.N,/RGB_5V_RIGHT*
X174475000Y-53625000D03*
G04 #@! TO.P,C_RGB27,2*
G04 #@! TO.N,/GND_RIGHT*
X174475000Y-52125000D03*
G04 #@! TD*
G04 #@! TO.P,C_RGB22,1*
G04 #@! TO.N,/RGB_5V_RIGHT*
X269725000Y-38385000D03*
G04 #@! TO.P,C_RGB22,2*
G04 #@! TO.N,/GND_RIGHT*
X269725000Y-36885000D03*
G04 #@! TD*
G04 #@! TO.P,C_RGB9,1*
G04 #@! TO.N,/RGB_5V_RIGHT*
X193525000Y-19335000D03*
G04 #@! TO.P,C_RGB9,2*
G04 #@! TO.N,/GND_RIGHT*
X193525000Y-17835000D03*
G04 #@! TD*
D20*
G04 #@! TO.P,LED57,1*
G04 #@! TO.N,/RGB_5V_RIGHT*
X185470476Y-102342661D03*
G04 #@! TO.P,LED57,2*
G04 #@! TO.N,/GND_RIGHT*
X187106213Y-108447311D03*
G04 #@! TO.P,LED57,3*
G04 #@! TO.N,/rgb/RGB_LED_right_26*
X185657324Y-108835539D03*
G04 #@! TO.P,LED57,4*
G04 #@! TO.N,unconnected-(LED57-DOUT-Pad4)*
X184021587Y-102730889D03*
G04 #@! TD*
D16*
G04 #@! TO.P,C_RGB6,1*
G04 #@! TO.N,/RGB_5V_RIGHT*
X250675000Y-17430000D03*
G04 #@! TO.P,C_RGB6,2*
G04 #@! TO.N,/GND_RIGHT*
X250675000Y-15930000D03*
G04 #@! TD*
G04 #@! TO.P,C_RGB49,1*
G04 #@! TO.N,/RGB_5V_RIGHT*
X193525000Y-76485000D03*
G04 #@! TO.P,C_RGB49,2*
G04 #@! TO.N,/GND_RIGHT*
X193525000Y-74985000D03*
G04 #@! TD*
D15*
G04 #@! TO.P,D46,1*
G04 #@! TO.N,/ROW14*
X265825000Y-71580000D03*
G04 #@! TO.P,D46,2*
G04 #@! TO.N,/matrix/SW46_A*
X262525000Y-71580000D03*
G04 #@! TD*
D16*
G04 #@! TO.P,C_RGB42,1*
G04 #@! TO.N,/RGB_5V_RIGHT*
X231625000Y-76450000D03*
G04 #@! TO.P,C_RGB42,2*
G04 #@! TO.N,/GND_RIGHT*
X231625000Y-74950000D03*
G04 #@! TD*
D17*
G04 #@! TO.P,LED38,1*
G04 #@! TO.N,/RGB_5V_RIGHT*
X294496300Y-56887500D03*
G04 #@! TO.P,LED38,2*
G04 #@! TO.N,/GND_RIGHT*
X300816300Y-56887500D03*
G04 #@! TO.P,LED38,3*
G04 #@! TO.N,/rgb/RGB_LED_right_17*
X300816300Y-58387500D03*
G04 #@! TO.P,LED38,4*
G04 #@! TO.N,/rgb/RGB_LED_right_18*
X294496300Y-58387500D03*
G04 #@! TD*
D16*
G04 #@! TO.P,C_RGB21,1*
G04 #@! TO.N,/RGB_5V_RIGHT*
X193525000Y-38385000D03*
G04 #@! TO.P,C_RGB21,2*
G04 #@! TO.N,/GND_RIGHT*
X193525000Y-36885000D03*
G04 #@! TD*
D17*
G04 #@! TO.P,LED28,1*
G04 #@! TO.N,/RGB_5V_RIGHT*
X234965000Y-52125000D03*
G04 #@! TO.P,LED28,2*
G04 #@! TO.N,/GND_RIGHT*
X241285000Y-52125000D03*
G04 #@! TO.P,LED28,3*
G04 #@! TO.N,/rgb/RGB_LED_right_12*
X241285000Y-53625000D03*
G04 #@! TO.P,LED28,4*
G04 #@! TO.N,/rgb/RGB_LED_right_13*
X234965000Y-53625000D03*
G04 #@! TD*
D16*
G04 #@! TO.P,C_RGB36,1*
G04 #@! TO.N,/RGB_5V_RIGHT*
X269725000Y-57435000D03*
G04 #@! TO.P,C_RGB36,2*
G04 #@! TO.N,/GND_RIGHT*
X269725000Y-55935000D03*
G04 #@! TD*
G04 #@! TO.P,C_RGB_OUT1_2,1*
G04 #@! TO.N,/RGB_5V_RIGHT*
X182000000Y-30750000D03*
G04 #@! TO.P,C_RGB_OUT1_2,2*
G04 #@! TO.N,/GND_RIGHT*
X182000000Y-29250000D03*
G04 #@! TD*
G04 #@! TO.P,C_RGB46,1*
G04 #@! TO.N,/RGB_5V_RIGHT*
X250675000Y-74580000D03*
G04 #@! TO.P,C_RGB46,2*
G04 #@! TO.N,/GND_RIGHT*
X250675000Y-73080000D03*
G04 #@! TD*
G04 #@! TO.P,C_RGB17,1*
G04 #@! TO.N,/RGB_5V_RIGHT*
X212575000Y-36480000D03*
G04 #@! TO.P,C_RGB17,2*
G04 #@! TO.N,/GND_RIGHT*
X212575000Y-34980000D03*
G04 #@! TD*
D17*
G04 #@! TO.P,LED14,1*
G04 #@! TO.N,/RGB_5V_RIGHT*
X234965000Y-33075000D03*
G04 #@! TO.P,LED14,2*
G04 #@! TO.N,/GND_RIGHT*
X241285000Y-33075000D03*
G04 #@! TO.P,LED14,3*
G04 #@! TO.N,/rgb/RGB_LED_right_5*
X241285000Y-34575000D03*
G04 #@! TO.P,LED14,4*
G04 #@! TO.N,/rgb/RGB_LED_right_6*
X234965000Y-34575000D03*
G04 #@! TD*
D16*
G04 #@! TO.P,C_RGB_OUT2_2,1*
G04 #@! TO.N,/RGB_5V_RIGHT*
X179000000Y-30750000D03*
G04 #@! TO.P,C_RGB_OUT2_2,2*
G04 #@! TO.N,/GND_RIGHT*
X179000000Y-29250000D03*
G04 #@! TD*
D17*
G04 #@! TO.P,LED2,1*
G04 #@! TO.N,/RGB_5V_RIGHT*
X234965000Y-14025000D03*
G04 #@! TO.P,LED2,2*
G04 #@! TO.N,/GND_RIGHT*
X241285000Y-14025000D03*
G04 #@! TO.P,LED2,3*
G04 #@! TO.N,/RGB_DATA_SHIFTED_RIGHT*
X241285000Y-15525000D03*
G04 #@! TO.P,LED2,4*
G04 #@! TO.N,/rgb/RGB_LED_right_0*
X234965000Y-15525000D03*
G04 #@! TD*
D16*
G04 #@! TO.P,C_RGB10,1*
G04 #@! TO.N,/RGB_5V_RIGHT*
X269725000Y-19335000D03*
G04 #@! TO.P,C_RGB10,2*
G04 #@! TO.N,/GND_RIGHT*
X269725000Y-17835000D03*
G04 #@! TD*
G04 #@! TO.P,C_RGB24,1*
G04 #@! TO.N,/RGB_5V_RIGHT*
X291156300Y-39337500D03*
G04 #@! TO.P,C_RGB24,2*
G04 #@! TO.N,/GND_RIGHT*
X291156300Y-37837500D03*
G04 #@! TD*
D15*
G04 #@! TO.P,D27,1*
G04 #@! TO.N,/ROW11*
X189625000Y-50625000D03*
G04 #@! TO.P,D27,2*
G04 #@! TO.N,/matrix/SW27_A*
X186325000Y-50625000D03*
G04 #@! TD*
D16*
G04 #@! TO.P,R_RGB_DATA2,1*
G04 #@! TO.N,/power/RGB_SHIFTED_RIGHT*
X189000000Y-22750000D03*
G04 #@! TO.P,R_RGB_DATA2,2*
G04 #@! TO.N,/RGB_DATA_SHIFTED_RIGHT*
X189000000Y-21250000D03*
G04 #@! TD*
D17*
G04 #@! TO.P,LED39,1*
G04 #@! TO.N,/RGB_5V_RIGHT*
X177815000Y-70222500D03*
G04 #@! TO.P,LED39,2*
G04 #@! TO.N,/GND_RIGHT*
X184135000Y-70222500D03*
G04 #@! TO.P,LED39,3*
G04 #@! TO.N,/rgb/RGB_LED_right_18*
X184135000Y-71722500D03*
G04 #@! TO.P,LED39,4*
G04 #@! TO.N,/rgb/RGB_LED_right_19*
X177815000Y-71722500D03*
G04 #@! TD*
G04 #@! TO.P,LED45,1*
G04 #@! TO.N,/RGB_5V_RIGHT*
X215915000Y-73080000D03*
G04 #@! TO.P,LED45,2*
G04 #@! TO.N,/GND_RIGHT*
X222235000Y-73080000D03*
G04 #@! TO.P,LED45,3*
G04 #@! TO.N,/rgb/RGB_LED_right_20*
X222235000Y-74580000D03*
G04 #@! TO.P,LED45,4*
G04 #@! TO.N,/rgb/RGB_LED_right_21*
X215915000Y-74580000D03*
G04 #@! TD*
D15*
G04 #@! TO.P,D36,1*
G04 #@! TO.N,/ROW12*
X284875000Y-54435000D03*
G04 #@! TO.P,D36,2*
G04 #@! TO.N,/matrix/SW36_A*
X281575000Y-54435000D03*
G04 #@! TD*
G04 #@! TO.P,D10,1*
G04 #@! TO.N,/ROW9*
X284875000Y-16335000D03*
G04 #@! TO.P,D10,2*
G04 #@! TO.N,/matrix/SW10_A*
X281575000Y-16335000D03*
G04 #@! TD*
D17*
G04 #@! TO.P,LED6,1*
G04 #@! TO.N,/RGB_5V_RIGHT*
X254015000Y-15930000D03*
G04 #@! TO.P,LED6,2*
G04 #@! TO.N,/GND_RIGHT*
X260335000Y-15930000D03*
G04 #@! TO.P,LED6,3*
G04 #@! TO.N,/rgb/RGB_LED_right_1*
X260335000Y-17430000D03*
G04 #@! TO.P,LED6,4*
G04 #@! TO.N,/rgb/RGB_LED_right_2*
X254015000Y-17430000D03*
G04 #@! TD*
D15*
G04 #@! TO.P,D2,1*
G04 #@! TO.N,/ROW8*
X246775000Y-12525000D03*
G04 #@! TO.P,D2,2*
G04 #@! TO.N,/matrix/SW2_A*
X243475000Y-12525000D03*
G04 #@! TD*
D16*
G04 #@! TO.P,C_RGB18,1*
G04 #@! TO.N,/RGB_5V_RIGHT*
X250675000Y-36480000D03*
G04 #@! TO.P,C_RGB18,2*
G04 #@! TO.N,/GND_RIGHT*
X250675000Y-34980000D03*
G04 #@! TD*
D15*
G04 #@! TO.P,D28,1*
G04 #@! TO.N,/ROW11*
X246775000Y-50625000D03*
G04 #@! TO.P,D28,2*
G04 #@! TO.N,/matrix/SW28_A*
X243475000Y-50625000D03*
G04 #@! TD*
D18*
G04 #@! TO.P,D56,1*
G04 #@! TO.N,/ROW8*
X208993250Y-110731678D03*
G04 #@! TO.P,D56,2*
G04 #@! TO.N,/matrix/SW56_A*
X208139150Y-107544122D03*
G04 #@! TD*
D17*
G04 #@! TO.P,LED32,1*
G04 #@! TO.N,/RGB_5V_RIGHT*
X254015000Y-54030000D03*
G04 #@! TO.P,LED32,2*
G04 #@! TO.N,/GND_RIGHT*
X260335000Y-54030000D03*
G04 #@! TO.P,LED32,3*
G04 #@! TO.N,/rgb/RGB_LED_right_14*
X260335000Y-55530000D03*
G04 #@! TO.P,LED32,4*
G04 #@! TO.N,/rgb/RGB_LED_right_15*
X254015000Y-55530000D03*
G04 #@! TD*
D20*
G04 #@! TO.P,LED56,1*
G04 #@! TO.N,/RGB_5V_RIGHT*
X204487676Y-99712261D03*
G04 #@! TO.P,LED56,2*
G04 #@! TO.N,/GND_RIGHT*
X206123413Y-105816911D03*
G04 #@! TO.P,LED56,3*
G04 #@! TO.N,/rgb/RGB_LED_right_25*
X204674524Y-106205139D03*
G04 #@! TO.P,LED56,4*
G04 #@! TO.N,/rgb/RGB_LED_right_26*
X203038787Y-100100489D03*
G04 #@! TD*
D16*
G04 #@! TO.P,C_RGB28,1*
G04 #@! TO.N,/RGB_5V_RIGHT*
X231625000Y-53625000D03*
G04 #@! TO.P,C_RGB28,2*
G04 #@! TO.N,/GND_RIGHT*
X231625000Y-52125000D03*
G04 #@! TD*
D17*
G04 #@! TO.P,LED35,1*
G04 #@! TO.N,/RGB_5V_RIGHT*
X196865000Y-55935000D03*
G04 #@! TO.P,LED35,2*
G04 #@! TO.N,/GND_RIGHT*
X203185000Y-55935000D03*
G04 #@! TO.P,LED35,3*
G04 #@! TO.N,/rgb/RGB_LED_right_15*
X203185000Y-57435000D03*
G04 #@! TO.P,LED35,4*
G04 #@! TO.N,/rgb/RGB_LED_right_16*
X196865000Y-57435000D03*
G04 #@! TD*
G04 #@! TO.P,LED31,1*
G04 #@! TO.N,/RGB_5V_RIGHT*
X215915000Y-54030000D03*
G04 #@! TO.P,LED31,2*
G04 #@! TO.N,/GND_RIGHT*
X222235000Y-54030000D03*
G04 #@! TO.P,LED31,3*
G04 #@! TO.N,/rgb/RGB_LED_right_13*
X222235000Y-55530000D03*
G04 #@! TO.P,LED31,4*
G04 #@! TO.N,/rgb/RGB_LED_right_14*
X215915000Y-55530000D03*
G04 #@! TD*
D16*
G04 #@! TO.P,C_LS2,1*
G04 #@! TO.N,/RGB_5V_RIGHT*
X182000000Y-22750000D03*
G04 #@! TO.P,C_LS2,2*
G04 #@! TO.N,/GND_RIGHT*
X182000000Y-21250000D03*
G04 #@! TD*
D17*
G04 #@! TO.P,LED21,1*
G04 #@! TO.N,/RGB_5V_RIGHT*
X196865000Y-36885000D03*
G04 #@! TO.P,LED21,2*
G04 #@! TO.N,/GND_RIGHT*
X203185000Y-36885000D03*
G04 #@! TO.P,LED21,3*
G04 #@! TO.N,/rgb/RGB_LED_right_8*
X203185000Y-38385000D03*
G04 #@! TO.P,LED21,4*
G04 #@! TO.N,/rgb/RGB_LED_right_9*
X196865000Y-38385000D03*
G04 #@! TD*
D19*
G04 #@! TO.P,R_RGB_FB_TOP2,1*
G04 #@! TO.N,/RGB_5V_RIGHT*
X182750000Y-33000000D03*
G04 #@! TO.P,R_RGB_FB_TOP2,2*
G04 #@! TO.N,/power/RGB_FB_RIGHT*
X181250000Y-33000000D03*
G04 #@! TD*
D17*
G04 #@! TO.P,LED12,1*
G04 #@! TO.N,/RGB_5V_RIGHT*
X292115000Y-18787500D03*
G04 #@! TO.P,LED12,2*
G04 #@! TO.N,/GND_RIGHT*
X298435000Y-18787500D03*
G04 #@! TO.P,LED12,3*
G04 #@! TO.N,/rgb/RGB_LED_right_4*
X298435000Y-20287500D03*
G04 #@! TO.P,LED12,4*
G04 #@! TO.N,/rgb/RGB_LED_right_5*
X292115000Y-20287500D03*
G04 #@! TD*
G04 #@! TO.P,LED49,1*
G04 #@! TO.N,/RGB_5V_RIGHT*
X196865000Y-74985000D03*
G04 #@! TO.P,LED49,2*
G04 #@! TO.N,/GND_RIGHT*
X203185000Y-74985000D03*
G04 #@! TO.P,LED49,3*
G04 #@! TO.N,/rgb/RGB_LED_right_22*
X203185000Y-76485000D03*
G04 #@! TO.P,LED49,4*
G04 #@! TO.N,/rgb/RGB_LED_right_23*
X196865000Y-76485000D03*
G04 #@! TD*
D15*
G04 #@! TO.P,D52,1*
G04 #@! TO.N,/ROW14*
X306306300Y-74437500D03*
G04 #@! TO.P,D52,2*
G04 #@! TO.N,/matrix/SW52_A*
X303006300Y-74437500D03*
G04 #@! TD*
G04 #@! TO.P,D6,1*
G04 #@! TO.N,/ROW9*
X265825000Y-14430000D03*
G04 #@! TO.P,D6,2*
G04 #@! TO.N,/matrix/SW6_A*
X262525000Y-14430000D03*
G04 #@! TD*
D21*
G04 #@! TO.P,C_RGB56,1*
G04 #@! TO.N,/RGB_5V_RIGHT*
X202174356Y-96874314D03*
G04 #@! TO.P,C_RGB56,2*
G04 #@! TO.N,/GND_RIGHT*
X203623244Y-96486086D03*
G04 #@! TD*
D22*
G04 #@! TO.P,U_LS2,1*
G04 #@! TO.N,/GND_RIGHT*
X187137500Y-21050000D03*
G04 #@! TO.P,U_LS2,2*
G04 #@! TO.N,/RGB_DATA_RIGHT*
X187137500Y-22000000D03*
G04 #@! TO.P,U_LS2,3*
G04 #@! TO.N,/GND_RIGHT*
X187137500Y-22950000D03*
G04 #@! TO.P,U_LS2,4*
G04 #@! TO.N,/power/RGB_SHIFTED_RIGHT*
X184862500Y-22950000D03*
G04 #@! TO.P,U_LS2,5*
G04 #@! TO.N,/RGB_5V_RIGHT*
X184862500Y-21050000D03*
G04 #@! TD*
D15*
G04 #@! TO.P,D18,1*
G04 #@! TO.N,/ROW10*
X265825000Y-33480000D03*
G04 #@! TO.P,D18,2*
G04 #@! TO.N,/matrix/SW18_A*
X262525000Y-33480000D03*
G04 #@! TD*
G04 #@! TO.P,D21,1*
G04 #@! TO.N,/ROW10*
X208675000Y-35385000D03*
G04 #@! TO.P,D21,2*
G04 #@! TO.N,/matrix/SW21_A*
X205375000Y-35385000D03*
G04 #@! TD*
G04 #@! TO.P,D45,1*
G04 #@! TO.N,/ROW13*
X227725000Y-71580000D03*
G04 #@! TO.P,D45,2*
G04 #@! TO.N,/matrix/SW45_A*
X224425000Y-71580000D03*
G04 #@! TD*
D16*
G04 #@! TO.P,C_RGB32,1*
G04 #@! TO.N,/RGB_5V_RIGHT*
X250675000Y-55530000D03*
G04 #@! TO.P,C_RGB32,2*
G04 #@! TO.N,/GND_RIGHT*
X250675000Y-54030000D03*
G04 #@! TD*
D15*
G04 #@! TO.P,D9,1*
G04 #@! TO.N,/ROW9*
X208675000Y-16335000D03*
G04 #@! TO.P,D9,2*
G04 #@! TO.N,/matrix/SW9_A*
X205375000Y-16335000D03*
G04 #@! TD*
D17*
G04 #@! TO.P,LED36,1*
G04 #@! TO.N,/RGB_5V_RIGHT*
X273065000Y-55935000D03*
G04 #@! TO.P,LED36,2*
G04 #@! TO.N,/GND_RIGHT*
X279385000Y-55935000D03*
G04 #@! TO.P,LED36,3*
G04 #@! TO.N,/rgb/RGB_LED_right_16*
X279385000Y-57435000D03*
G04 #@! TO.P,LED36,4*
G04 #@! TO.N,/rgb/RGB_LED_right_17*
X273065000Y-57435000D03*
G04 #@! TD*
G04 #@! TO.P,LED10,1*
G04 #@! TO.N,/RGB_5V_RIGHT*
X273065000Y-17835000D03*
G04 #@! TO.P,LED10,2*
G04 #@! TO.N,/GND_RIGHT*
X279385000Y-17835000D03*
G04 #@! TO.P,LED10,3*
G04 #@! TO.N,/rgb/RGB_LED_right_3*
X279385000Y-19335000D03*
G04 #@! TO.P,LED10,4*
G04 #@! TO.N,/rgb/RGB_LED_right_4*
X273065000Y-19335000D03*
G04 #@! TD*
G04 #@! TO.P,LED27,1*
G04 #@! TO.N,/RGB_5V_RIGHT*
X177815000Y-52125000D03*
G04 #@! TO.P,LED27,2*
G04 #@! TO.N,/GND_RIGHT*
X184135000Y-52125000D03*
G04 #@! TO.P,LED27,3*
G04 #@! TO.N,/rgb/RGB_LED_right_11*
X184135000Y-53625000D03*
G04 #@! TO.P,LED27,4*
G04 #@! TO.N,/rgb/RGB_LED_right_12*
X177815000Y-53625000D03*
G04 #@! TD*
D16*
G04 #@! TO.P,C_RGB35,1*
G04 #@! TO.N,/RGB_5V_RIGHT*
X193525000Y-57435000D03*
G04 #@! TO.P,C_RGB35,2*
G04 #@! TO.N,/GND_RIGHT*
X193525000Y-55935000D03*
G04 #@! TD*
G04 #@! TO.P,C_RGB14,1*
G04 #@! TO.N,/RGB_5V_RIGHT*
X231625000Y-34575000D03*
G04 #@! TO.P,C_RGB14,2*
G04 #@! TO.N,/GND_RIGHT*
X231625000Y-33075000D03*
G04 #@! TD*
D19*
G04 #@! TO.P,R_RGB_FB_BOT2,1*
G04 #@! TO.N,/power/RGB_FB_RIGHT*
X185750000Y-33000000D03*
G04 #@! TO.P,R_RGB_FB_BOT2,2*
G04 #@! TO.N,/GND_RIGHT*
X184250000Y-33000000D03*
G04 #@! TD*
D17*
G04 #@! TO.P,LED52,1*
G04 #@! TO.N,/RGB_5V_RIGHT*
X294496300Y-75937500D03*
G04 #@! TO.P,LED52,2*
G04 #@! TO.N,/GND_RIGHT*
X300816300Y-75937500D03*
G04 #@! TO.P,LED52,3*
G04 #@! TO.N,/rgb/RGB_LED_right_24*
X300816300Y-77437500D03*
G04 #@! TO.P,LED52,4*
G04 #@! TO.N,/rgb/RGB_LED_right_25*
X294496300Y-77437500D03*
G04 #@! TD*
G04 #@! TO.P,LED17,1*
G04 #@! TO.N,/RGB_5V_RIGHT*
X215915000Y-34980000D03*
G04 #@! TO.P,LED17,2*
G04 #@! TO.N,/GND_RIGHT*
X222235000Y-34980000D03*
G04 #@! TO.P,LED17,3*
G04 #@! TO.N,/rgb/RGB_LED_right_6*
X222235000Y-36480000D03*
G04 #@! TO.P,LED17,4*
G04 #@! TO.N,/rgb/RGB_LED_right_7*
X215915000Y-36480000D03*
G04 #@! TD*
D16*
G04 #@! TO.P,C_RGB12,1*
G04 #@! TO.N,/RGB_5V_RIGHT*
X288775000Y-20287500D03*
G04 #@! TO.P,C_RGB12,2*
G04 #@! TO.N,/GND_RIGHT*
X288775000Y-18787500D03*
G04 #@! TD*
D15*
G04 #@! TO.P,D42,1*
G04 #@! TO.N,/ROW13*
X246775000Y-69675000D03*
G04 #@! TO.P,D42,2*
G04 #@! TO.N,/matrix/SW42_A*
X243475000Y-69675000D03*
G04 #@! TD*
D19*
G04 #@! TO.P,R_RGB_EN_PD2,1*
G04 #@! TO.N,/RGB_EN_RIGHT*
X184750000Y-39500000D03*
G04 #@! TO.P,R_RGB_EN_PD2,2*
G04 #@! TO.N,/GND_RIGHT*
X183250000Y-39500000D03*
G04 #@! TD*
D23*
G04 #@! TO.P,C_RGB_BULK2,1*
G04 #@! TO.N,/RGB_5V_RIGHT*
X173300000Y-25475000D03*
G04 #@! TO.P,C_RGB_BULK2,2*
G04 #@! TO.N,/GND_RIGHT*
X173300000Y-22525000D03*
G04 #@! TD*
D24*
G04 #@! TO.P,U_RGB2,1*
G04 #@! TO.N,/power/RGB_FB_RIGHT*
X185712500Y-29500000D03*
G04 #@! TO.P,U_RGB2,2*
G04 #@! TO.N,/RGB_EN_RIGHT*
X185712500Y-30000000D03*
G04 #@! TO.P,U_RGB2,3*
G04 #@! TO.N,/VBAT_RIGHT*
X185712500Y-30500000D03*
G04 #@! TO.P,U_RGB2,4*
G04 #@! TO.N,/GND_RIGHT*
X184287500Y-30500000D03*
G04 #@! TO.P,U_RGB2,5*
G04 #@! TO.N,/power/RGB_SW_RIGHT*
X184287500Y-30000000D03*
G04 #@! TO.P,U_RGB2,6*
G04 #@! TO.N,/RGB_5V_RIGHT*
X184287500Y-29500000D03*
G04 #@! TD*
D16*
G04 #@! TO.P,C_RGB38,1*
G04 #@! TO.N,/RGB_5V_RIGHT*
X291156300Y-58387500D03*
G04 #@! TO.P,C_RGB38,2*
G04 #@! TO.N,/GND_RIGHT*
X291156300Y-56887500D03*
G04 #@! TD*
D17*
G04 #@! TO.P,LED22,1*
G04 #@! TO.N,/RGB_5V_RIGHT*
X273065000Y-36885000D03*
G04 #@! TO.P,LED22,2*
G04 #@! TO.N,/GND_RIGHT*
X279385000Y-36885000D03*
G04 #@! TO.P,LED22,3*
G04 #@! TO.N,/rgb/RGB_LED_right_9*
X279385000Y-38385000D03*
G04 #@! TO.P,LED22,4*
G04 #@! TO.N,/rgb/RGB_LED_right_10*
X273065000Y-38385000D03*
G04 #@! TD*
D15*
G04 #@! TO.P,D38,1*
G04 #@! TO.N,/ROW13*
X306306300Y-55387500D03*
G04 #@! TO.P,D38,2*
G04 #@! TO.N,/matrix/SW38_A*
X303006300Y-55387500D03*
G04 #@! TD*
G04 #@! TO.P,D35,1*
G04 #@! TO.N,/ROW12*
X208675000Y-54435000D03*
G04 #@! TO.P,D35,2*
G04 #@! TO.N,/matrix/SW35_A*
X205375000Y-54435000D03*
G04 #@! TD*
G04 #@! TO.P,D31,1*
G04 #@! TO.N,/ROW12*
X227725000Y-52530000D03*
G04 #@! TO.P,D31,2*
G04 #@! TO.N,/matrix/SW31_A*
X224425000Y-52530000D03*
G04 #@! TD*
D25*
G04 #@! TO.P,J3,1*
G04 #@! TO.N,+3V3_RIGHT*
X221725000Y-86162500D03*
D26*
G04 #@! TO.P,J3,2*
G04 #@! TO.N,/GND_RIGHT*
X219185000Y-86162500D03*
G04 #@! TO.P,J3,3*
G04 #@! TO.N,unconnected-(J3-NC-Pad3)*
X221725000Y-88702500D03*
G04 #@! TO.P,J3,4*
G04 #@! TO.N,unconnected-(J3-NC-Pad4)*
X219185000Y-88702500D03*
G04 #@! TO.P,J3,5*
G04 #@! TO.N,/controller/pmw3610_0_SCLK*
X221725000Y-91242500D03*
G04 #@! TO.P,J3,6*
G04 #@! TO.N,/controller/pmw3610_0_SDIO*
X219185000Y-91242500D03*
G04 #@! TO.P,J3,7*
G04 #@! TO.N,/controller/pmw3610_0_MOTION*
X221725000Y-93782500D03*
G04 #@! TO.P,J3,8*
G04 #@! TO.N,/controller/pmw3610_0_NCS*
X219185000Y-93782500D03*
G04 #@! TD*
D16*
G04 #@! TO.P,C_RGB_IN2,1*
G04 #@! TO.N,/VBAT_RIGHT*
X197000000Y-34450000D03*
G04 #@! TO.P,C_RGB_IN2,2*
G04 #@! TO.N,/GND_RIGHT*
X197000000Y-32950000D03*
G04 #@! TD*
D17*
G04 #@! TO.P,LED46,1*
G04 #@! TO.N,/RGB_5V_RIGHT*
X254015000Y-73080000D03*
G04 #@! TO.P,LED46,2*
G04 #@! TO.N,/GND_RIGHT*
X260335000Y-73080000D03*
G04 #@! TO.P,LED46,3*
G04 #@! TO.N,/rgb/RGB_LED_right_21*
X260335000Y-74580000D03*
G04 #@! TO.P,LED46,4*
G04 #@! TO.N,/rgb/RGB_LED_right_22*
X254015000Y-74580000D03*
G04 #@! TD*
D15*
G04 #@! TO.P,D14,1*
G04 #@! TO.N,/ROW10*
X246775000Y-31575000D03*
G04 #@! TO.P,D14,2*
G04 #@! TO.N,/matrix/SW14_A*
X243475000Y-31575000D03*
G04 #@! TD*
D16*
G04 #@! TO.P,C_RGB52,1*
G04 #@! TO.N,/RGB_5V_RIGHT*
X291156300Y-77437500D03*
G04 #@! TO.P,C_RGB52,2*
G04 #@! TO.N,/GND_RIGHT*
X291156300Y-75937500D03*
G04 #@! TD*
D21*
G04 #@! TO.P,C_RGB57,1*
G04 #@! TO.N,/RGB_5V_RIGHT*
X183157156Y-99504714D03*
G04 #@! TO.P,C_RGB57,2*
G04 #@! TO.N,/GND_RIGHT*
X184606044Y-99116486D03*
G04 #@! TD*
D16*
G04 #@! TO.P,C_RGB31,1*
G04 #@! TO.N,/RGB_5V_RIGHT*
X212575000Y-55530000D03*
G04 #@! TO.P,C_RGB31,2*
G04 #@! TO.N,/GND_RIGHT*
X212575000Y-54030000D03*
G04 #@! TD*
D27*
G04 #@! TO.P,J2,1*
G04 #@! TO.N,/power/BAT_RAW_RIGHT*
X178000000Y-37500000D03*
D28*
G04 #@! TO.P,J2,2*
G04 #@! TO.N,/GND_RIGHT*
X178000000Y-35500000D03*
G04 #@! TD*
D15*
G04 #@! TO.P,D39,1*
G04 #@! TO.N,/ROW13*
X189625000Y-68722500D03*
G04 #@! TO.P,D39,2*
G04 #@! TO.N,/matrix/SW39_A*
X186325000Y-68722500D03*
G04 #@! TD*
D16*
G04 #@! TO.P,C_RGB39,1*
G04 #@! TO.N,/RGB_5V_RIGHT*
X174475000Y-71722500D03*
G04 #@! TO.P,C_RGB39,2*
G04 #@! TO.N,/GND_RIGHT*
X174475000Y-70222500D03*
G04 #@! TD*
G04 #@! TO.P,C_RGB45,1*
G04 #@! TO.N,/RGB_5V_RIGHT*
X212575000Y-74580000D03*
G04 #@! TO.P,C_RGB45,2*
G04 #@! TO.N,/GND_RIGHT*
X212575000Y-73080000D03*
G04 #@! TD*
D17*
G04 #@! TO.P,LED9,1*
G04 #@! TO.N,/RGB_5V_RIGHT*
X196865000Y-17835000D03*
G04 #@! TO.P,LED9,2*
G04 #@! TO.N,/GND_RIGHT*
X203185000Y-17835000D03*
G04 #@! TO.P,LED9,3*
G04 #@! TO.N,/rgb/RGB_LED_right_2*
X203185000Y-19335000D03*
G04 #@! TO.P,LED9,4*
G04 #@! TO.N,/rgb/RGB_LED_right_3*
X196865000Y-19335000D03*
G04 #@! TD*
D15*
G04 #@! TO.P,D24,1*
G04 #@! TO.N,/ROW11*
X306306300Y-36337500D03*
G04 #@! TO.P,D24,2*
G04 #@! TO.N,/matrix/SW24_A*
X303006300Y-36337500D03*
G04 #@! TD*
D29*
G04 #@! TO.N,/COL5*
X289909000Y-36966300D03*
X212686000Y-18442000D03*
X193025000Y-6764200D03*
X192552000Y-74814500D03*
X193025000Y-69883100D03*
X250175000Y-40318700D03*
X191016000Y-26307300D03*
X197866000Y-80832200D03*
X174543000Y-68510000D03*
X193025000Y-8606500D03*
G04 #@! TO.N,/matrix/SW39_A*
X186066000Y-62611700D03*
X187769000Y-63499300D03*
G04 #@! TO.N,/COL4*
X249837000Y-69501800D03*
X263974000Y-53107500D03*
X266725000Y-18442300D03*
X265267000Y-46570200D03*
X229104000Y-69501800D03*
X263748000Y-54439000D03*
X290656000Y-53749200D03*
X248676000Y-12450000D03*
X231507000Y-16565300D03*
X214691000Y-42292800D03*
D30*
G04 #@! TO.N,/power/BAT_RAW_RIGHT*
X177500000Y-25700000D03*
X176000000Y-36100000D03*
X175600000Y-33900000D03*
X175100000Y-30100000D03*
G04 #@! TO.N,/VBAT_RIGHT*
X188000000Y-30050000D03*
X184950000Y-17550000D03*
X189800000Y-12100000D03*
X185809000Y-31170000D03*
X193100000Y-26400000D03*
X197000000Y-34450000D03*
X191600000Y-16050000D03*
D29*
G04 #@! TO.N,/COL7*
X192105000Y-21134600D03*
X265726000Y-51430800D03*
X202615000Y-29787800D03*
X213544000Y-56288700D03*
X287956000Y-16394800D03*
X290656000Y-60819600D03*
X193728000Y-26781800D03*
X231125000Y-36260600D03*
D30*
G04 #@! TO.N,/COL6*
X179274000Y-33630000D03*
D29*
X209060000Y-57692200D03*
X175593000Y-9819600D03*
X251624000Y-17565700D03*
X231125000Y-60827000D03*
X226872000Y-8695800D03*
D30*
X179474000Y-36330000D03*
D29*
X267917000Y-65905100D03*
D30*
X176376999Y-33833200D03*
D29*
G04 #@! TO.N,/controller/pmw3610_0_MOTION*
X173244000Y-4684500D03*
X174000000Y-20000000D03*
X173500000Y-16000000D03*
X172525000Y-21025000D03*
G04 #@! TO.N,/controller/pmw3610_0_NCS*
X184000000Y-13500000D03*
X173917000Y-36583000D03*
X184000000Y-4500000D03*
X176000000Y-15000000D03*
G04 #@! TO.N,/ROW8*
X191011000Y-111284000D03*
X207722000Y-111224000D03*
X170497000Y-20066800D03*
X174482400Y-9067500D03*
X218669000Y-5699300D03*
X175879000Y-75586900D03*
G04 #@! TO.N,/ROW9*
X267277000Y-17218900D03*
X208675000Y-15242000D03*
G04 #@! TO.N,/ROW10*
X245848000Y-31570000D03*
X227725000Y-31570000D03*
G04 #@! TO.N,/ROW11*
X305359000Y-36358900D03*
X179424200Y-25501000D03*
X177035000Y-17861400D03*
X286161000Y-36356200D03*
X207794000Y-43484900D03*
X188082000Y-33821100D03*
X246078000Y-37368300D03*
G04 #@! TO.N,/ROW12*
X176433000Y-22325000D03*
X266158000Y-53623000D03*
X228654000Y-51705300D03*
X209687000Y-56890400D03*
X179382100Y-35237600D03*
G04 #@! TO.N,/ROW13*
X213503000Y-79456400D03*
X300338000Y-61426300D03*
X247632000Y-71369100D03*
X189728800Y-39962000D03*
X190441000Y-67048200D03*
X189246000Y-20212600D03*
X190352000Y-73638100D03*
X227725000Y-74378700D03*
X190965000Y-43300300D03*
G04 #@! TO.N,/ROW14*
X305367000Y-74463800D03*
X210636000Y-73498900D03*
X286181000Y-74381100D03*
X264870000Y-72472600D03*
G04 #@! TO.N,+3V3_RIGHT*
X194121000Y-35044400D03*
X190414000Y-9753600D03*
G04 #@! TO.N,/GND_RIGHT*
X229691300Y-50191300D03*
X202625000Y-16637700D03*
X192551700Y-36939000D03*
D30*
X183250000Y-39450000D03*
X184606000Y-98106800D03*
D29*
X284073200Y-72549800D03*
X269725000Y-73055700D03*
D30*
X183700000Y-33850000D03*
D29*
X216991900Y-62912000D03*
X240725000Y-50501500D03*
D30*
X203623200Y-96486100D03*
X179500000Y-29450000D03*
X188038500Y-106019900D03*
D29*
X187250000Y-35334200D03*
X253972200Y-32102500D03*
X278825000Y-73064100D03*
X203623200Y-95042900D03*
X278825000Y-34949400D03*
X195553600Y-16669100D03*
X290216600Y-56547700D03*
D30*
X183000000Y-30550000D03*
D29*
X262262100Y-55468900D03*
X223838900Y-15930000D03*
X185397900Y-97714600D03*
X269725000Y-16662000D03*
X212216400Y-62912000D03*
X250675000Y-32636800D03*
X213161400Y-95042900D03*
X291156300Y-73064100D03*
X206827400Y-34980000D03*
X188000000Y-28306900D03*
X211631000Y-34980000D03*
X280990200Y-56547700D03*
D30*
X180300000Y-33850000D03*
D29*
X291156300Y-34949400D03*
X268793300Y-55935000D03*
X259775000Y-13568700D03*
X223835000Y-35234600D03*
D30*
X206923200Y-98186100D03*
D29*
X280990200Y-18447700D03*
X230677600Y-15930000D03*
G04 #@! TO.N,/RGB_DATA_RIGHT*
X185531400Y-19764200D03*
X183914400Y-23599200D03*
X187576800Y-15144500D03*
D30*
G04 #@! TO.N,/RGB_EN_RIGHT*
X185650000Y-38600000D03*
X186450000Y-36600000D03*
X186650000Y-34700000D03*
D29*
X189802700Y-12877500D03*
D30*
X187450000Y-32400000D03*
D29*
X186220300Y-20225300D03*
X188750000Y-23901700D03*
G04 #@! TO.N,/RGB_5V_RIGHT*
X192552100Y-38566000D03*
X190559700Y-56538300D03*
D30*
X231225000Y-30971800D03*
X213309300Y-70820900D03*
D29*
X178155900Y-32965500D03*
D30*
X226715000Y-71701700D03*
X234825000Y-32371800D03*
D29*
X183160900Y-22750000D03*
D30*
X230625000Y-32171800D03*
D29*
X180667000Y-22750000D03*
X194679600Y-56749800D03*
D30*
X229215000Y-74001700D03*
X237200000Y-23750000D03*
X213309300Y-64020900D03*
D29*
X179000000Y-31969800D03*
G04 #@! TO.N,/rgb/RGB_LED_right_7*
X259775000Y-38403800D03*
X216475000Y-39018700D03*
G04 #@! TO.N,/rgb/RGB_LED_right_8*
X206025000Y-39620400D03*
X254575000Y-39013300D03*
G04 #@! TO.N,/rgb/RGB_LED_right_23*
X249277000Y-78439600D03*
X197425000Y-78178200D03*
X248179000Y-75499100D03*
X211062000Y-78178200D03*
X213426000Y-75247000D03*
X278825000Y-78536200D03*
G04 #@! TO.N,/rgb/RGB_LED_right_24*
X273625000Y-79330000D03*
X300256000Y-79330000D03*
G04 #@! TO.N,/rgb/RGB_LED_right_10*
X273625000Y-41700700D03*
X300256000Y-41700700D03*
G04 #@! TO.N,/rgb/RGB_LED_right_11*
X293120000Y-42528100D03*
X206014000Y-40439800D03*
X186538000Y-53419200D03*
X201643000Y-41808800D03*
G04 #@! TO.N,/rgb/RGB_LED_right_0*
X223945000Y-17167000D03*
X235525000Y-17167000D03*
G04 #@! TO.N,/rgb/RGB_LED_right_1*
X259775000Y-18321500D03*
X216475000Y-18726700D03*
G04 #@! TO.N,/power/RGB_SW_RIGHT*
X184000000Y-28684400D03*
X183344600Y-29788200D03*
G04 #@! TO.N,/rgb/RGB_LED_right_19*
X210951000Y-71437800D03*
X176299000Y-72659500D03*
X207401000Y-72171600D03*
X221253000Y-70552300D03*
X240355000Y-74075200D03*
X216131000Y-71136700D03*
X187726000Y-72594100D03*
X187726000Y-74498300D03*
G04 #@! TO.N,/rgb/RGB_LED_right_20*
X229554000Y-71096600D03*
X224595000Y-72660700D03*
G04 #@! TO.N,/rgb/RGB_LED_right_26*
X201212000Y-107525000D03*
X184058000Y-108294000D03*
G04 #@! TO.N,/rgb/RGB_LED_right_17*
X273625000Y-58951500D03*
X300256000Y-59825400D03*
G04 #@! TO.N,/rgb/RGB_LED_right_18*
X210396000Y-59629100D03*
X185528000Y-67794500D03*
X293120000Y-60000900D03*
X207017000Y-62414800D03*
G04 #@! TO.N,/rgb/RGB_LED_right_12*
X209060000Y-56173800D03*
X210648000Y-56173800D03*
X205963000Y-53334400D03*
X187911000Y-54737900D03*
X210648000Y-57494800D03*
X240725000Y-57396200D03*
G04 #@! TO.N,/rgb/RGB_LED_right_13*
X233588000Y-56612500D03*
X224356000Y-56612500D03*
G04 #@! TO.N,/rgb/RGB_LED_right_5*
X243060000Y-34330700D03*
X292675000Y-23219000D03*
G04 #@! TO.N,/rgb/RGB_LED_right_6*
X235525000Y-37548900D03*
X223612000Y-37548900D03*
G04 #@! TO.N,/RGB_DATA_SHIFTED_RIGHT*
X237902200Y-22730200D03*
X193932600Y-20298800D03*
X196966400Y-22730200D03*
X189802700Y-16587500D03*
G04 #@! TO.N,/rgb/RGB_LED_right_21*
X216475000Y-76947300D03*
X259775000Y-76935000D03*
G04 #@! TO.N,/rgb/RGB_LED_right_2*
X254575000Y-19939400D03*
X205129000Y-19937800D03*
G04 #@! TO.N,/rgb/RGB_LED_right_14*
X259775000Y-58000300D03*
X216475000Y-58000300D03*
G04 #@! TO.N,/rgb/RGB_LED_right_15*
X254575000Y-58603600D03*
X209526000Y-58359300D03*
G04 #@! TO.N,/rgb/RGB_LED_right_25*
X215568000Y-76527200D03*
X201603000Y-102326000D03*
X206280000Y-98776700D03*
X292623000Y-77934500D03*
G04 #@! TO.N,/rgb/RGB_LED_right_16*
X278825000Y-59254000D03*
X209461000Y-59161100D03*
G04 #@! TO.N,/rgb/RGB_LED_right_9*
X278825000Y-40106700D03*
X261803000Y-40106700D03*
X206879000Y-41416300D03*
X204529000Y-41236900D03*
X259884000Y-42025900D03*
X203854000Y-39993300D03*
G04 #@! TO.N,/power/RGB_FB_RIGHT*
X182131500Y-32081300D03*
X185126000Y-28913500D03*
X185099100Y-32168500D03*
G04 #@! TO.N,/rgb/RGB_LED_right_4*
X273625000Y-20741800D03*
X297875000Y-22326600D03*
G04 #@! TO.N,/rgb/RGB_LED_right_22*
X252406000Y-74692800D03*
X202625000Y-78915200D03*
X211857000Y-78915200D03*
X214266000Y-73647500D03*
G04 #@! TO.N,/rgb/RGB_LED_right_3*
X197960000Y-21347400D03*
X278825000Y-21347400D03*
G04 #@! TD*
G04 #@! TO.N,/COL5*
D31*
X173975000Y-67942400D02*
X174543000Y-68510000D01*
X191303000Y-93352800D02*
X191303000Y-92543600D01*
X216758000Y-23217300D02*
X216758000Y-22514200D01*
X212075000Y-27900000D02*
X216758000Y-23217300D01*
X250175000Y-45173300D02*
X250175000Y-40318700D01*
X191303000Y-92543600D02*
X191304000Y-92542100D01*
X191304000Y-92542100D02*
X191304000Y-87960100D01*
X190551000Y-94104000D02*
X191303000Y-93352800D01*
X193025000Y-12531700D02*
X191016000Y-14541200D01*
X250175000Y-40018100D02*
X250175000Y-40318700D01*
X227712000Y-24271400D02*
X227712000Y-26613800D01*
X191304000Y-87960100D02*
X195434000Y-83830100D01*
X197659000Y-81399000D02*
X197659000Y-81038600D01*
X191303000Y-96908000D02*
X190551000Y-94104000D01*
X193025000Y-10755000D02*
X193025000Y-12531700D01*
X193025000Y-8606500D02*
X193025000Y-6764200D01*
X192552000Y-70356400D02*
X193025000Y-69883100D01*
X192552000Y-74814500D02*
X192552000Y-70356400D01*
X290656000Y-32534200D02*
X289909000Y-33281700D01*
X197659000Y-81038600D02*
X197866000Y-80832200D01*
X173975000Y-63142500D02*
X173975000Y-67942400D01*
X191016000Y-14541200D02*
X191016000Y-26307300D01*
X241455000Y-31298100D02*
X250175000Y-40018100D01*
X290656300Y-30757500D02*
X290656000Y-30757500D01*
X195434000Y-83624000D02*
X197659000Y-81399000D01*
X289909000Y-33281700D02*
X289909000Y-36966300D01*
X193025000Y-67905000D02*
X193025000Y-69883100D01*
X195434000Y-83830100D02*
X195434000Y-83624000D01*
X232396000Y-31298100D02*
X241455000Y-31298100D01*
X227712000Y-26613800D02*
X232396000Y-31298100D01*
X193025000Y-10755000D02*
X193025000Y-8606500D01*
X216758000Y-22514200D02*
X212686000Y-18442000D01*
X250175000Y-46950000D02*
X250175000Y-45173300D01*
X216758000Y-23217300D02*
X226658000Y-23217300D01*
X290656000Y-30757500D02*
X290656000Y-32534200D01*
X226658000Y-23217300D02*
X227712000Y-24271400D01*
G04 #@! TO.N,/matrix/SW39_A*
X186066000Y-62611700D02*
X186066000Y-61211500D01*
X187769000Y-68005000D02*
X187769000Y-63499300D01*
X186325000Y-68722500D02*
X187052000Y-68722500D01*
X186066000Y-61211500D02*
X186675000Y-60602500D01*
X187052000Y-68722500D02*
X187769000Y-68005000D01*
G04 #@! TO.N,/COL4*
X263974000Y-49214100D02*
X263974000Y-53107500D01*
D32*
X290656000Y-49807500D02*
X290656000Y-51559200D01*
D31*
X250175000Y-66000000D02*
X252795000Y-63379600D01*
X269225000Y-20942200D02*
X269225000Y-29805000D01*
X266725000Y-18442300D02*
X269225000Y-20942200D01*
X269225000Y-33723800D02*
X265506000Y-37442400D01*
X248676000Y-12126100D02*
X248676000Y-12450000D01*
X229104000Y-69501800D02*
X229104000Y-69641000D01*
X228903000Y-70059800D02*
X228594000Y-70368700D01*
X229104000Y-69641000D02*
X228903000Y-69841500D01*
X212075000Y-46950000D02*
X214691000Y-44333700D01*
X265267000Y-47921700D02*
X263974000Y-49214100D01*
X212405000Y-92376300D02*
X212405000Y-93718800D01*
X228594000Y-70629400D02*
X228543000Y-70680800D01*
D32*
X265267000Y-47681900D02*
X265267000Y-46570200D01*
X265267000Y-47921700D02*
X265267000Y-47681900D01*
D31*
X252795000Y-63379600D02*
X255257000Y-63379600D01*
X228594000Y-70368700D02*
X228594000Y-70629400D01*
X250175000Y-10626700D02*
X248676000Y-12126100D01*
X217207000Y-84557700D02*
X216493000Y-84557700D01*
X228536000Y-70757600D02*
X228536000Y-74482100D01*
X250175000Y-8850000D02*
X250175000Y-10626700D01*
X228543000Y-70680800D02*
X228543000Y-70750800D01*
X228536000Y-74482100D02*
X227936000Y-75082300D01*
X227590000Y-75082300D02*
X227588000Y-75083800D01*
X255257000Y-63379600D02*
X263748000Y-54888300D01*
X228543000Y-70750800D02*
X228536000Y-70757600D01*
X216141000Y-88640900D02*
X212405000Y-92376300D01*
D32*
X290656000Y-51559200D02*
X290656000Y-53749200D01*
D31*
X227588000Y-75083800D02*
X226681000Y-75083800D01*
X228903000Y-69841500D02*
X228903000Y-70059800D01*
X250175000Y-66000000D02*
X250175000Y-69163600D01*
X227936000Y-75082300D02*
X227590000Y-75082300D01*
X231507000Y-16565300D02*
X231507000Y-23836700D01*
X216141000Y-84910200D02*
X216141000Y-88640900D01*
X210320000Y-94277600D02*
X212405000Y-93718800D01*
X250175000Y-69163600D02*
X249837000Y-69501800D01*
X269225000Y-29805000D02*
X269225000Y-33723800D01*
X263748000Y-54888300D02*
X263748000Y-54439000D01*
X265506000Y-37442400D02*
X265506000Y-47681900D01*
X216493000Y-84557700D02*
X216141000Y-84910200D01*
D32*
X265506000Y-47681900D02*
X265267000Y-47681900D01*
D31*
X290656300Y-49807500D02*
X290656000Y-49807500D01*
X226681000Y-75083800D02*
X217207000Y-84557700D01*
X210319800Y-94277600D02*
X210320000Y-94277600D01*
X231125000Y-25995000D02*
X231125000Y-24218300D01*
X214691000Y-44333700D02*
X214691000Y-42292800D01*
X231507000Y-23836700D02*
X231125000Y-24218300D01*
G04 #@! TO.N,/matrix/SW22_A*
X279654000Y-29535500D02*
X281925000Y-27265000D01*
X280848000Y-35385000D02*
X279654000Y-34191200D01*
X281575000Y-35385000D02*
X280848000Y-35385000D01*
X279654000Y-34191200D02*
X279654000Y-29535500D01*
G04 #@! TO.N,/power/BAT_RAW_RIGHT*
X178000000Y-37500000D02*
X176900000Y-36800000D01*
X175600000Y-33900000D02*
X175100000Y-30100000D01*
X176900000Y-36800000D02*
X176000000Y-36100000D01*
G04 #@! TO.N,/VBAT_RIGHT*
X186357000Y-30500000D02*
X186607000Y-30750000D01*
X187150000Y-14700000D02*
X189450000Y-12350000D01*
X189450000Y-12350000D02*
X189800000Y-12100000D01*
X188000000Y-30750000D02*
X188000000Y-30050000D01*
X185150000Y-16950000D02*
X187150000Y-14700000D01*
X186357000Y-26957000D02*
X186000000Y-26600000D01*
X191600000Y-16050000D02*
X191450000Y-21950000D01*
X185713000Y-31073000D02*
X185809000Y-31170000D01*
X186357000Y-30500000D02*
X186357000Y-26957000D01*
X186357000Y-30500000D02*
X185713000Y-30500000D01*
X184950000Y-17550000D02*
X185150000Y-16950000D01*
X191450000Y-21950000D02*
X193100000Y-26400000D01*
X185713000Y-30500000D02*
X185713000Y-31073000D01*
X186607000Y-30750000D02*
X188000000Y-30750000D01*
G04 #@! TO.N,/COL7*
X290656000Y-68857500D02*
X290656000Y-60819600D01*
X201391000Y-29787800D02*
X199272000Y-27668900D01*
X194064000Y-16032600D02*
X192105000Y-17992000D01*
X193728000Y-27668900D02*
X193384000Y-27668900D01*
X231125000Y-45045000D02*
X231125000Y-36260600D01*
X202615000Y-29787800D02*
X201391000Y-29787800D01*
X287956000Y-13802800D02*
X287956000Y-16394800D01*
X288275000Y-13484200D02*
X287956000Y-13802800D01*
X269225000Y-48855000D02*
X266848000Y-48855000D01*
X193025000Y-29805000D02*
X193025000Y-28028300D01*
X202673000Y-12186000D02*
X202673000Y-14430400D01*
X212075000Y-8850000D02*
X212075000Y-7073300D01*
X288275000Y-11707500D02*
X288275000Y-13484200D01*
X193728000Y-27668900D02*
X193728000Y-26781800D01*
X200403000Y-7369000D02*
X200403000Y-9916700D01*
X192105000Y-17992000D02*
X192105000Y-21134600D01*
X290656300Y-68857500D02*
X290656000Y-68857500D01*
X212075000Y-66000000D02*
X212075000Y-64223300D01*
X211060000Y-6058400D02*
X201714000Y-6058400D01*
X200403000Y-9916700D02*
X202673000Y-12186000D01*
X193384000Y-27668900D02*
X193025000Y-28028300D01*
X213544000Y-62753800D02*
X213544000Y-56288700D01*
X265726000Y-49977000D02*
X266848000Y-48855000D01*
X212075000Y-7073300D02*
X211060000Y-6058400D01*
X265726000Y-51430800D02*
X265726000Y-49977000D01*
X202673000Y-14430400D02*
X201070000Y-16032600D01*
X212075000Y-64223300D02*
X213544000Y-62753800D01*
X199272000Y-27668900D02*
X193728000Y-27668900D01*
X201714000Y-6058400D02*
X200403000Y-7369000D01*
X201070000Y-16032600D02*
X194064000Y-16032600D01*
G04 #@! TO.N,/matrix/SW5_A*
X224775000Y-8086700D02*
X225828000Y-9139600D01*
X225828000Y-13753800D02*
X225152000Y-14430000D01*
X225828000Y-9139600D02*
X225828000Y-13753800D01*
X224775000Y-6310000D02*
X224775000Y-8086700D01*
X224425000Y-14430000D02*
X225152000Y-14430000D01*
G04 #@! TO.N,/matrix/SW38_A*
X304432000Y-54688600D02*
X303733000Y-55387500D01*
X303356000Y-47267500D02*
X303356000Y-49044200D01*
X303006000Y-55387500D02*
X303733000Y-55387500D01*
X303356000Y-49044200D02*
X304432000Y-50119800D01*
X304432000Y-50119800D02*
X304432000Y-54688600D01*
X303356300Y-47267500D02*
X303356000Y-47267500D01*
G04 #@! TO.N,/matrix/SW32_A*
X262525000Y-52530000D02*
X261798000Y-52530000D01*
X260556000Y-46729500D02*
X260556000Y-51287200D01*
X262875000Y-44410000D02*
X260556000Y-46729500D01*
X260556000Y-51287200D02*
X261798000Y-52530000D01*
G04 #@! TO.N,/COL6*
X192144000Y-51512500D02*
X192398000Y-51258200D01*
X173975000Y-48048300D02*
X176225000Y-50298000D01*
X176975000Y-25917463D02*
X176975000Y-25482537D01*
X188503000Y-51512500D02*
X188894000Y-51903400D01*
X269225000Y-8612800D02*
X262888000Y-2275800D01*
X176435000Y-17612871D02*
X176786471Y-17261400D01*
X177282537Y-25175000D02*
X177500000Y-25175000D01*
X206699000Y-57492200D02*
X208660000Y-57492200D01*
X193025000Y-48855000D02*
X193025000Y-50631700D01*
X184456000Y-50298000D02*
X185670000Y-51512500D01*
X175275000Y-43030000D02*
X178775000Y-40230000D01*
X203288000Y-54081700D02*
X206699000Y-57492200D01*
X177500000Y-11726600D02*
X175593000Y-9819600D01*
X177282537Y-26225000D02*
X176975000Y-25917463D01*
X195222000Y-54081700D02*
X203288000Y-54081700D01*
X191468000Y-51512500D02*
X192144000Y-51512500D01*
X251624000Y-24674400D02*
X251624000Y-17565700D01*
X226872000Y-8695800D02*
X226998000Y-8695800D01*
X177500000Y-27710200D02*
X177500000Y-26225000D01*
X269225000Y-67905000D02*
X269225000Y-66128300D01*
X176376999Y-33833200D02*
X175677000Y-29533200D01*
X190758000Y-51903400D02*
X190960000Y-51701700D01*
X185670000Y-51512500D02*
X188503000Y-51512500D01*
X176435000Y-18109929D02*
X176435000Y-17612871D01*
X269225000Y-66128300D02*
X268141000Y-66128300D01*
X191278000Y-51701700D02*
X191468000Y-51512500D01*
X173975000Y-45045000D02*
X173975000Y-48048300D01*
X231125000Y-6945000D02*
X228748000Y-6945000D01*
X231125000Y-64095000D02*
X231125000Y-60827000D01*
X177500000Y-17477871D02*
X177500000Y-11726600D01*
X173975000Y-45030000D02*
X175275000Y-43030000D01*
X192398000Y-51258200D02*
X193025000Y-50631700D01*
X177500000Y-25175000D02*
X177500000Y-18892086D01*
X226998000Y-8695800D02*
X228748000Y-6945000D01*
X177283529Y-17261400D02*
X177500000Y-17477871D01*
X177500000Y-18892086D02*
X177069314Y-18461400D01*
X262888000Y-2275800D02*
X235794000Y-2275800D01*
X208860000Y-57692200D02*
X209060000Y-57692200D01*
X177069314Y-18461400D02*
X176786471Y-18461400D01*
X190960000Y-51701700D02*
X191278000Y-51701700D01*
X268141000Y-66128300D02*
X267917000Y-65905100D01*
X176975000Y-25482537D02*
X177282537Y-25175000D01*
X176225000Y-50298000D02*
X184456000Y-50298000D01*
X208660000Y-57492200D02*
X208860000Y-57692200D01*
X177500000Y-26225000D02*
X177282537Y-26225000D01*
X235794000Y-2275800D02*
X231125000Y-6945000D01*
X269225000Y-10755000D02*
X269225000Y-8612800D01*
X192398000Y-51258200D02*
X195222000Y-54081700D01*
X250175000Y-26123300D02*
X251624000Y-24674400D01*
X250175000Y-27900000D02*
X250175000Y-26123300D01*
X175677000Y-29533200D02*
X177500000Y-27710200D01*
X178774000Y-40230000D02*
X179474000Y-36330000D01*
X176786471Y-18461400D02*
X176435000Y-18109929D01*
X188894000Y-51903400D02*
X190758000Y-51903400D01*
X176786471Y-17261400D02*
X177283529Y-17261400D01*
G04 #@! TO.N,/matrix/SW2_A*
X242748000Y-12525000D02*
X241554000Y-11331200D01*
X243475000Y-12525000D02*
X242748000Y-12525000D01*
X241554000Y-6675500D02*
X243825000Y-4405000D01*
X241554000Y-11331200D02*
X241554000Y-6675500D01*
G04 #@! TO.N,/matrix/SW45_A*
X224425000Y-71580000D02*
X223698000Y-71580000D01*
X222504000Y-65730500D02*
X224775000Y-63460000D01*
X222504000Y-70386200D02*
X222504000Y-65730500D01*
X223698000Y-71580000D02*
X222504000Y-70386200D01*
G04 #@! TO.N,/matrix/SW17_A*
X225855000Y-32776900D02*
X225855000Y-28216500D01*
X224425000Y-33480000D02*
X225152000Y-33480000D01*
X225152000Y-33480000D02*
X225855000Y-32776900D01*
X224775000Y-25360000D02*
X224775000Y-27136700D01*
X225855000Y-28216500D02*
X224775000Y-27136700D01*
G04 #@! TO.N,/matrix/SW14_A*
X241554000Y-25725500D02*
X243825000Y-23455000D01*
X243475000Y-31575000D02*
X242748000Y-31575000D01*
X241554000Y-30381200D02*
X241554000Y-25725500D01*
X242748000Y-31575000D02*
X241554000Y-30381200D01*
G04 #@! TO.N,/matrix/SW46_A*
X263252000Y-71580000D02*
X263915000Y-70916900D01*
X263915000Y-66276500D02*
X262875000Y-65236700D01*
X262875000Y-63460000D02*
X262875000Y-65236700D01*
X262525000Y-71580000D02*
X263252000Y-71580000D01*
X263915000Y-70916900D02*
X263915000Y-66276500D01*
G04 #@! TO.N,/matrix/SW18_A*
X263910000Y-32822200D02*
X263252000Y-33480000D01*
X262525000Y-33480000D02*
X263252000Y-33480000D01*
X262875000Y-27136700D02*
X263910000Y-28171200D01*
X262875000Y-25360000D02*
X262875000Y-27136700D01*
X263910000Y-28171200D02*
X263910000Y-32822200D01*
G04 #@! TO.N,/matrix/SW57_A*
X190434000Y-110174000D02*
X190800000Y-110174000D01*
X189122000Y-110174400D02*
X189122000Y-110174000D01*
X190800000Y-110174000D02*
X191361000Y-110735000D01*
X191361000Y-110735000D02*
X193054000Y-110735000D01*
X196991000Y-108325000D02*
X196991300Y-108324700D01*
X196991000Y-108325000D02*
X194906000Y-108884000D01*
X193054000Y-110735000D02*
X194906000Y-108884000D01*
X189122000Y-110174000D02*
X190157000Y-109897000D01*
X190157000Y-109897000D02*
X190434000Y-110174000D01*
X189121900Y-110174500D02*
X189122000Y-110174400D01*
G04 #@! TO.N,/matrix/SW49_A*
X206779000Y-72807500D02*
X206102000Y-73485000D01*
X205375000Y-73485000D02*
X206102000Y-73485000D01*
X205725000Y-65365000D02*
X205725000Y-67141700D01*
X206779000Y-68195900D02*
X206779000Y-72807500D01*
X205725000Y-67141700D02*
X206779000Y-68195900D01*
G04 #@! TO.N,/matrix/SW10_A*
X282302000Y-16335000D02*
X282976000Y-15660700D01*
X282976000Y-15660700D02*
X282976000Y-11042700D01*
X282976000Y-11042700D02*
X281925000Y-9991700D01*
X281925000Y-8215000D02*
X281925000Y-9991700D01*
X281575000Y-16335000D02*
X282302000Y-16335000D01*
G04 #@! TO.N,/matrix/SW12_A*
X301352000Y-17287500D02*
X302058000Y-16580800D01*
X302058000Y-12027600D02*
X300975000Y-10944200D01*
X300975000Y-9167500D02*
X300975000Y-10944200D01*
X302058000Y-16580800D02*
X302058000Y-12027600D01*
X300625000Y-17287500D02*
X301352000Y-17287500D01*
G04 #@! TO.N,/matrix/SW42_A*
X244202000Y-69675000D02*
X244893000Y-68983600D01*
X243825000Y-61555000D02*
X243825000Y-63331700D01*
X244893000Y-64399800D02*
X243825000Y-63331700D01*
X244893000Y-68983600D02*
X244893000Y-64399800D01*
X243475000Y-69675000D02*
X244202000Y-69675000D01*
G04 #@! TO.N,/matrix/SW36_A*
X281575000Y-54435000D02*
X282302000Y-54435000D01*
X282958000Y-53778600D02*
X282958000Y-49124800D01*
X282302000Y-54435000D02*
X282958000Y-53778600D01*
X282958000Y-49124800D02*
X281925000Y-48091700D01*
X281925000Y-46315000D02*
X281925000Y-48091700D01*
G04 #@! TO.N,/matrix/SW52_A*
X304438000Y-73732600D02*
X303733000Y-74437500D01*
X303356300Y-66317500D02*
X303356000Y-66317500D01*
X303356000Y-66317500D02*
X303356000Y-68094200D01*
X304438000Y-69175800D02*
X304438000Y-73732600D01*
X303356000Y-68094200D02*
X304438000Y-69175800D01*
X303006000Y-74437500D02*
X303733000Y-74437500D01*
G04 #@! TO.N,/matrix/SW27_A*
X187738000Y-45344300D02*
X187738000Y-49939100D01*
X186675000Y-44281700D02*
X187738000Y-45344300D01*
X186325000Y-50625000D02*
X187052000Y-50625000D01*
X186675000Y-42505000D02*
X186675000Y-44281700D01*
X187738000Y-49939100D02*
X187052000Y-50625000D01*
G04 #@! TO.N,/matrix/SW6_A*
X262525000Y-14430000D02*
X261798000Y-14430000D01*
X261798000Y-14430000D02*
X260604000Y-13236200D01*
X260604000Y-13236200D02*
X260604000Y-8580500D01*
X260604000Y-8580500D02*
X262875000Y-6310000D01*
G04 #@! TO.N,/matrix/SW31_A*
X225853000Y-47264400D02*
X224775000Y-46186700D01*
X225853000Y-51829000D02*
X225853000Y-47264400D01*
X224425000Y-52530000D02*
X225152000Y-52530000D01*
X225152000Y-52530000D02*
X225853000Y-51829000D01*
X224775000Y-44410000D02*
X224775000Y-46186700D01*
G04 #@! TO.N,/matrix/SW35_A*
X203454000Y-48585500D02*
X203454000Y-53241200D01*
X205375000Y-54435000D02*
X204648000Y-54435000D01*
X203454000Y-53241200D02*
X204648000Y-54435000D01*
X205725000Y-46315000D02*
X203454000Y-48585500D01*
G04 #@! TO.N,/matrix/SW28_A*
X243475000Y-50625000D02*
X242748000Y-50625000D01*
X241554000Y-44775500D02*
X243825000Y-42505000D01*
X241554000Y-49431200D02*
X241554000Y-44775500D01*
X242748000Y-50625000D02*
X241554000Y-49431200D01*
G04 #@! TO.N,/matrix/SW9_A*
X206787000Y-11054100D02*
X206787000Y-15649300D01*
X205725000Y-9991700D02*
X206787000Y-11054100D01*
X205725000Y-8215000D02*
X205725000Y-9991700D01*
X205375000Y-16335000D02*
X206102000Y-16335000D01*
X206787000Y-15649300D02*
X206102000Y-16335000D01*
G04 #@! TO.N,/matrix/SW24_A*
X304438000Y-35632600D02*
X303733000Y-36337500D01*
X303356000Y-28217500D02*
X303356000Y-29994200D01*
X303006000Y-36337500D02*
X303733000Y-36337500D01*
X303356000Y-29994200D02*
X304438000Y-31075800D01*
X304438000Y-31075800D02*
X304438000Y-35632600D01*
X303356300Y-28217500D02*
X303356000Y-28217500D01*
G04 #@! TO.N,/matrix/SW21_A*
X203454000Y-34191200D02*
X203454000Y-29535500D01*
X203454000Y-29535500D02*
X205725000Y-27265000D01*
X205375000Y-35385000D02*
X204648000Y-35385000D01*
X204648000Y-35385000D02*
X203454000Y-34191200D01*
G04 #@! TO.N,/matrix/SW56_A*
X216008300Y-105694300D02*
X216008000Y-105694000D01*
X209966000Y-108059000D02*
X212117000Y-108059000D01*
X216008500Y-105694300D02*
X216008300Y-105694300D01*
X212117000Y-108059000D02*
X213923000Y-106253000D01*
X216008000Y-105694000D02*
X213923000Y-106253000D01*
X209174000Y-107267000D02*
X209966000Y-108059000D01*
X208139000Y-107544000D02*
X209174000Y-107267000D01*
G04 #@! TO.N,/controller/pmw3610_0_MOTION*
X173550000Y-20000000D02*
X174000000Y-20000000D01*
X173500000Y-16000000D02*
X173500000Y-13349900D01*
X173500000Y-13349900D02*
X173244000Y-13093900D01*
X172525000Y-21025000D02*
X173550000Y-20000000D01*
X173244000Y-4684500D02*
X173244000Y-13093900D01*
G04 #@! TO.N,/controller/pmw3610_0_NCS*
X172500000Y-36500000D02*
X172000000Y-36000000D01*
X184000000Y-4500000D02*
X184000000Y-13500000D01*
X172000000Y-36000000D02*
X172000000Y-24000000D01*
X175500000Y-15500000D02*
X176000000Y-15000000D01*
X173917000Y-36583000D02*
X173834000Y-36500000D01*
X174000000Y-24000000D02*
X175500000Y-22500000D01*
X172000000Y-24000000D02*
X174000000Y-24000000D01*
X173834000Y-36500000D02*
X172500000Y-36500000D01*
X175500000Y-22500000D02*
X175500000Y-15500000D01*
G04 #@! TO.N,/ROW8*
X227725000Y-14430000D02*
X228452000Y-14430000D01*
X171556000Y-21126000D02*
X170497000Y-20066800D01*
X191011000Y-113085000D02*
X191011000Y-111284000D01*
X170948000Y-51569900D02*
X170948000Y-70656000D01*
X223860000Y-15306700D02*
X222322000Y-13768400D01*
X227725000Y-14430000D02*
X227482000Y-14430000D01*
X170948000Y-41750100D02*
X171556000Y-41142200D01*
X208993000Y-110732000D02*
X208993300Y-110731700D01*
X222322000Y-13768400D02*
X222322000Y-10861700D01*
X171556000Y-21126000D02*
X174482400Y-18199600D01*
X207936000Y-111009000D02*
X207722000Y-111224000D01*
X222322000Y-10861700D02*
X218669000Y-7208300D01*
X207958000Y-111009000D02*
X207936000Y-111009000D01*
X228452000Y-14430000D02*
X230632000Y-12249200D01*
X226630000Y-15281700D02*
X226605000Y-15306700D01*
X246775000Y-12525000D02*
X246048000Y-12525000D01*
X170873000Y-51469800D02*
X170848000Y-51444800D01*
X230632000Y-12249200D02*
X241657000Y-12249200D01*
X174482400Y-18199600D02*
X174482400Y-9067500D01*
X170948000Y-70656000D02*
X175879000Y-75586900D01*
X189976000Y-113362000D02*
X191011000Y-113085000D01*
X171556000Y-41142200D02*
X171556000Y-21126000D01*
X208993000Y-110732000D02*
X207958000Y-111009000D01*
X218669000Y-7208300D02*
X218669000Y-5699300D01*
X241657000Y-12249200D02*
X242820000Y-13412500D01*
D32*
X170848000Y-41850200D02*
X170948000Y-41750100D01*
D31*
X242820000Y-13412500D02*
X245161000Y-13412500D01*
X245161000Y-13412500D02*
X246048000Y-12525000D01*
X227482000Y-14430000D02*
X227030000Y-14881900D01*
X170848000Y-51444800D02*
X170848000Y-51369800D01*
D32*
X170948000Y-51569900D02*
X170873000Y-51494800D01*
D31*
X226605000Y-15306700D02*
X223860000Y-15306700D01*
D32*
X170848000Y-51369800D02*
X170848000Y-41850200D01*
X227030000Y-14881900D02*
X226630000Y-15281700D01*
X170873000Y-51494800D02*
X170873000Y-51469800D01*
G04 #@! TO.N,/ROW9*
D31*
X265098000Y-14430000D02*
X265098000Y-15039900D01*
X284875000Y-16335000D02*
X285602000Y-16335000D01*
X284875000Y-16335000D02*
X284148000Y-16335000D01*
X265825000Y-14430000D02*
X266552000Y-14430000D01*
X284148000Y-16335000D02*
X283272000Y-17211700D01*
X303925000Y-17287500D02*
X303198000Y-17287500D01*
X286268000Y-17001100D02*
X298649000Y-17001100D01*
X208675000Y-15242000D02*
X208675000Y-16335000D01*
X298649000Y-17001100D02*
X299812000Y-18164200D01*
X265098000Y-15039900D02*
X267277000Y-17218900D01*
X283272000Y-17211700D02*
X280764000Y-17211700D01*
X299812000Y-18164200D02*
X302322000Y-18164200D01*
X285602000Y-16335000D02*
X286268000Y-17001100D01*
X280764000Y-17211700D02*
X279608000Y-16055200D01*
X302322000Y-18164200D02*
X303198000Y-17287500D01*
X279608000Y-16055200D02*
X268177000Y-16055200D01*
X265825000Y-14430000D02*
X265098000Y-14430000D01*
X268177000Y-16055200D02*
X266552000Y-14430000D01*
G04 #@! TO.N,/ROW10*
X227725000Y-33480000D02*
X226998000Y-33480000D01*
X265825000Y-33480000D02*
X265825000Y-34356700D01*
X222433000Y-33178400D02*
X223612000Y-34356700D01*
X223612000Y-34356700D02*
X226122000Y-34356700D01*
X227725000Y-33480000D02*
X227725000Y-31570000D01*
X208675000Y-35385000D02*
X209402000Y-35385000D01*
X211608000Y-33178400D02*
X222433000Y-33178400D01*
X265825000Y-34356700D02*
X260539000Y-39642400D01*
X209402000Y-35385000D02*
X211608000Y-33178400D01*
X246775000Y-33803200D02*
X246775000Y-31575000D01*
X245853000Y-31575000D02*
X245848000Y-31570000D01*
X246775000Y-31575000D02*
X245853000Y-31575000D01*
X260539000Y-39642400D02*
X252614000Y-39642400D01*
X252614000Y-39642400D02*
X246775000Y-33803200D01*
X226122000Y-34356700D02*
X226998000Y-33480000D01*
G04 #@! TO.N,/ROW11*
X179424200Y-25501000D02*
X179424200Y-20250600D01*
X179424200Y-20250600D02*
X177035000Y-17861400D01*
X305380000Y-36337500D02*
X305359000Y-36358900D01*
X191214000Y-43902000D02*
X191631000Y-43484900D01*
X189625000Y-43902000D02*
X191214000Y-43902000D01*
X191631000Y-43484900D02*
X207794000Y-43484900D01*
X188082000Y-39600600D02*
X188082000Y-33821100D01*
X189625000Y-40881500D02*
X188344000Y-39600600D01*
X189625000Y-50625000D02*
X189625000Y-43902000D01*
X284875000Y-35385000D02*
X285602000Y-35385000D01*
X286161000Y-35944400D02*
X286161000Y-36356200D01*
X188082000Y-39600600D02*
X184181000Y-35699500D01*
X188344000Y-39600600D02*
X188082000Y-39600600D01*
X285602000Y-35385000D02*
X286161000Y-35944400D01*
X306306000Y-36337500D02*
X305380000Y-36337500D01*
X246775000Y-50625000D02*
X246775000Y-38065400D01*
X306306000Y-36337500D02*
X306306300Y-36337500D01*
X189625000Y-43902000D02*
X189625000Y-40881500D01*
X246775000Y-38065400D02*
X246078000Y-37368300D01*
G04 #@! TO.N,/ROW12*
X189060000Y-51501700D02*
X190221000Y-51501700D01*
X188765000Y-40590000D02*
X189052000Y-40876300D01*
X193671000Y-44208300D02*
X207668000Y-44208300D01*
X208675000Y-54435000D02*
X209402000Y-54435000D01*
X183780000Y-35973900D02*
X183780000Y-35874900D01*
X209687000Y-54720000D02*
X209687000Y-56890400D01*
X181190600Y-37179200D02*
X182574700Y-37179200D01*
X265825000Y-52530000D02*
X265825000Y-53406700D01*
X280920000Y-55322500D02*
X279911000Y-54312900D01*
X209402000Y-54435000D02*
X209687000Y-54720000D01*
X207668000Y-44208300D02*
X208675000Y-45215200D01*
X284875000Y-54435000D02*
X284148000Y-54435000D01*
X188898000Y-51339600D02*
X189060000Y-51501700D01*
X188898000Y-47198200D02*
X188898000Y-51339600D01*
X189052000Y-40876300D02*
X189052000Y-47044800D01*
X228452000Y-51907100D02*
X228654000Y-51705300D01*
X265825000Y-53406700D02*
X265942000Y-53406700D01*
X227725000Y-52530000D02*
X228452000Y-52530000D01*
X190581000Y-47298600D02*
X193671000Y-44208300D01*
X266848000Y-54312900D02*
X266158000Y-53623000D01*
X188495000Y-40590000D02*
X188765000Y-40590000D01*
X183780000Y-34742800D02*
X183780000Y-35874900D01*
X265942000Y-53406700D02*
X266158000Y-53623000D01*
X190581000Y-51142300D02*
X190581000Y-47298600D01*
X228452000Y-52530000D02*
X228452000Y-51907100D01*
X189052000Y-47044800D02*
X188898000Y-47198200D01*
X208675000Y-45215200D02*
X208675000Y-54435000D01*
X179382100Y-35237600D02*
X179382100Y-35370700D01*
X279911000Y-54312900D02*
X266848000Y-54312900D01*
X179382100Y-35370700D02*
X181190600Y-37179200D01*
X284148000Y-54435000D02*
X283261000Y-55322500D01*
X183780000Y-35874900D02*
X188495000Y-40590000D01*
X190221000Y-51501700D02*
X190581000Y-51142300D01*
X283261000Y-55322500D02*
X280920000Y-55322500D01*
X182574700Y-37179200D02*
X183780000Y-35973900D01*
G04 #@! TO.N,/ROW13*
X246775000Y-69675000D02*
X246775000Y-70551700D01*
X246775000Y-70551700D02*
X246815000Y-70551700D01*
X190965000Y-43300300D02*
X190965000Y-36412300D01*
X305580000Y-55387500D02*
X305580000Y-56184500D01*
X189726000Y-67763700D02*
X190441000Y-67048200D01*
X189625000Y-68722500D02*
X189726000Y-68722500D01*
X306306000Y-55387500D02*
X305580000Y-55387500D01*
X305580000Y-56184500D02*
X300338000Y-61426300D01*
X225455000Y-74378700D02*
X220378000Y-79456400D01*
X220378000Y-79456400D02*
X213503000Y-79456400D01*
X227725000Y-71580000D02*
X227725000Y-74378700D01*
X246815000Y-70551700D02*
X247632000Y-71369100D01*
X189246000Y-20212600D02*
X189728800Y-20695400D01*
X190965000Y-36412300D02*
X189246000Y-34693200D01*
X190352000Y-68722500D02*
X190352000Y-73638100D01*
X189728800Y-20695400D02*
X189728800Y-39962000D01*
X189726000Y-68722500D02*
X189726000Y-67763700D01*
X306306000Y-55387500D02*
X306306300Y-55387500D01*
X227725000Y-74378700D02*
X225455000Y-74378700D01*
X189726000Y-68722500D02*
X190352000Y-68722500D01*
G04 #@! TO.N,/ROW14*
X208675000Y-73485000D02*
X209402000Y-73485000D01*
X265098000Y-72244200D02*
X264870000Y-72472600D01*
X306306000Y-74437500D02*
X305393000Y-74437500D01*
X265825000Y-71580000D02*
X265098000Y-71580000D01*
X285602000Y-73485000D02*
X286181000Y-74064100D01*
X286181000Y-74064100D02*
X286181000Y-74381100D01*
X284875000Y-73485000D02*
X285602000Y-73485000D01*
X305393000Y-74437500D02*
X305367000Y-74463800D01*
X209402000Y-73485000D02*
X209416000Y-73498900D01*
X306306000Y-74437500D02*
X306306300Y-74437500D01*
X265098000Y-71580000D02*
X265098000Y-72244200D01*
X209416000Y-73498900D02*
X210636000Y-73498900D01*
G04 #@! TO.N,+3V3_RIGHT*
X194121000Y-35044400D02*
X193647000Y-35044400D01*
X190531000Y-26673600D02*
X190414000Y-26556500D01*
X190247000Y-28021800D02*
X190531000Y-27737500D01*
X193647000Y-35044400D02*
X190247000Y-31644300D01*
X190414000Y-26556500D02*
X190414000Y-9753600D01*
X190247000Y-31644300D02*
X190247000Y-28021800D01*
X190531000Y-27737500D02*
X190531000Y-26673600D01*
G04 #@! TO.N,/GND_RIGHT*
X250675000Y-34980000D02*
X250675000Y-32636800D01*
X300256300Y-75170500D02*
X300256300Y-75937500D01*
X183700000Y-33850000D02*
X183700000Y-32150000D01*
X228527600Y-35234600D02*
X230687200Y-33075000D01*
X211841800Y-71395900D02*
X211841800Y-73080000D01*
X182820600Y-68685600D02*
X183575000Y-69440000D01*
X190025700Y-88300600D02*
X190025700Y-93086800D01*
X202086400Y-35540100D02*
X194869900Y-35540100D01*
X202625000Y-55185000D02*
X202040700Y-54600700D01*
X266582700Y-73055700D02*
X269725000Y-73055700D01*
X299712200Y-36526400D02*
X300256300Y-37070500D01*
X209188500Y-51403500D02*
X211815000Y-54030000D01*
X266419200Y-58309100D02*
X268793300Y-55935000D01*
X246212400Y-68398700D02*
X243048900Y-71562200D01*
X187250000Y-33761700D02*
X187250000Y-35334200D01*
X184250000Y-33000000D02*
X184250000Y-30537500D01*
X280730400Y-56287900D02*
X280730400Y-55935000D01*
X187250000Y-33761700D02*
X185011700Y-33761700D01*
X205368300Y-36885000D02*
X206827400Y-35425900D01*
X206080100Y-105498600D02*
X207124600Y-104474700D01*
X191323700Y-75430800D02*
X193079200Y-75430800D01*
X231625000Y-14025000D02*
X232962900Y-12687100D01*
X191323700Y-75430800D02*
X191323700Y-87002600D01*
X290118200Y-17444300D02*
X288775000Y-18787500D01*
X179727900Y-28522100D02*
X181272100Y-28522100D01*
X174475000Y-70222500D02*
X176011900Y-68685600D01*
X259775000Y-34374400D02*
X259775000Y-34980000D01*
X212575000Y-15930000D02*
X210670000Y-17835000D01*
X181272100Y-28522100D02*
X182000000Y-29250000D01*
X183575000Y-52125000D02*
X187371000Y-52125000D01*
X193079200Y-75430800D02*
X193525000Y-74985000D01*
X269725000Y-74985000D02*
X269725000Y-73055700D01*
X187295000Y-23107000D02*
X188250000Y-22348000D01*
X299712200Y-74626400D02*
X300256300Y-75170500D01*
X179000000Y-29250000D02*
X179727900Y-28522100D01*
X284304900Y-59862400D02*
X280990200Y-56547700D01*
X211841800Y-73080000D02*
X212575000Y-73080000D01*
X243048900Y-71562200D02*
X242661700Y-71175000D01*
X183242700Y-30537500D02*
X182000000Y-29294800D01*
X242885000Y-14279600D02*
X242630400Y-14025000D01*
X196014500Y-42883200D02*
X208097200Y-42883200D01*
X278825000Y-17835000D02*
X280730400Y-17835000D01*
X230677600Y-14972400D02*
X230677600Y-15930000D01*
X269725000Y-17835000D02*
X266381000Y-17835000D01*
X291156300Y-74626400D02*
X291156300Y-73064100D01*
X191921600Y-37569100D02*
X191921600Y-38790300D01*
X209188500Y-43974500D02*
X209188500Y-51403500D01*
X185011700Y-33761700D02*
X184250000Y-33000000D01*
X196200000Y-34300000D02*
X196200000Y-35150000D01*
X206423200Y-100286099D02*
X207123200Y-99086099D01*
X207123200Y-98486100D02*
X206923200Y-98186100D01*
X210670000Y-17835000D02*
X202625000Y-17835000D01*
X181272100Y-21977900D02*
X182000000Y-21250000D01*
X213161400Y-92188600D02*
X213161400Y-95042900D01*
X183300000Y-31150000D02*
X183000000Y-30550000D01*
X259178400Y-52666100D02*
X259775000Y-53262700D01*
X192551700Y-36939000D02*
X193471000Y-36939000D01*
X186170600Y-21050000D02*
X185525600Y-20405000D01*
X259775000Y-72312200D02*
X259178000Y-71715200D01*
X207123200Y-99086099D02*
X207123200Y-98486100D01*
X202023100Y-73609100D02*
X194900900Y-73609100D01*
X221675000Y-34980000D02*
X223580400Y-34980000D01*
X259775000Y-53262700D02*
X259775000Y-54030000D01*
X187137500Y-22950000D02*
X187294800Y-23107300D01*
X252038900Y-52666100D02*
X259178400Y-52666100D01*
X223835000Y-35234600D02*
X228527600Y-35234600D01*
X174475000Y-52125000D02*
X175837000Y-50763000D01*
X188712600Y-72904800D02*
X191238600Y-75430800D01*
X259775000Y-54030000D02*
X261711700Y-54030000D01*
X179000000Y-34450000D02*
X179400000Y-34450000D01*
X278825000Y-34949400D02*
X278825000Y-36885000D01*
X291156300Y-37837500D02*
X291156300Y-36526400D01*
X271660600Y-34949400D02*
X278825000Y-34949400D01*
X284304900Y-72318100D02*
X284304900Y-59862400D01*
X197000000Y-32950000D02*
X196250000Y-33700000D01*
X212575000Y-15930000D02*
X213889700Y-14615300D01*
X202625000Y-74985000D02*
X204561700Y-74985000D01*
X232962900Y-12687100D02*
X240139000Y-12687100D01*
X181315000Y-5575000D02*
X181315000Y-6551700D01*
X240921400Y-74950000D02*
X243178000Y-72693400D01*
X221859800Y-72895200D02*
X221859800Y-67779900D01*
X266419200Y-70698100D02*
X266419200Y-58309100D01*
X231625000Y-74950000D02*
X240921400Y-74950000D01*
X231625000Y-33075000D02*
X232963500Y-31736500D01*
X202625000Y-17835000D02*
X202625000Y-16637700D01*
X291156300Y-56887500D02*
X290816500Y-56547700D01*
X252039800Y-71715200D02*
X250675000Y-73080000D01*
X240725000Y-32253600D02*
X240725000Y-33075000D01*
X253972200Y-32102500D02*
X255485800Y-33616100D01*
X184606000Y-98106800D02*
X185397900Y-97714600D01*
X181051000Y-17125300D02*
X181051000Y-18652000D01*
X229410200Y-49910200D02*
X229691300Y-50191300D01*
X280730400Y-18187900D02*
X280730400Y-17835000D01*
X265607800Y-18608200D02*
X265607800Y-31844300D01*
X209697200Y-69251300D02*
X211841800Y-71395900D01*
X284073200Y-72549800D02*
X284304900Y-72318100D01*
X268793300Y-55935000D02*
X269725000Y-55935000D01*
X203623200Y-95042900D02*
X203623200Y-77948100D01*
X259775000Y-73080000D02*
X266558400Y-73080000D01*
X249024600Y-14279600D02*
X250675000Y-15930000D01*
X262262100Y-54580400D02*
X261711700Y-54030000D01*
X297875000Y-18787500D02*
X299811700Y-18787500D01*
X266558400Y-73080000D02*
X266582700Y-73055700D01*
X178000000Y-35450000D02*
X179000000Y-34450000D01*
X202625000Y-36078700D02*
X202086400Y-35540100D01*
X184606000Y-98106800D02*
X184606000Y-99116500D01*
X242661700Y-52125000D02*
X246212400Y-55675700D01*
X221451800Y-14939600D02*
X221451800Y-15706900D01*
X280990200Y-18447700D02*
X280730400Y-18187900D01*
X211815000Y-62510600D02*
X212216400Y-62912000D01*
X187460100Y-21050000D02*
X187137500Y-21050000D01*
X202040700Y-54600700D02*
X194859300Y-54600700D01*
X191181000Y-60413300D02*
X188712600Y-62881700D01*
X291156300Y-74626400D02*
X299712200Y-74626400D01*
X240725000Y-52125000D02*
X242661700Y-52125000D01*
X240725000Y-13273100D02*
X240725000Y-14025000D01*
X179400000Y-34450000D02*
X180300000Y-33850000D01*
X262262100Y-55468900D02*
X262262100Y-54580400D01*
X191323700Y-87002600D02*
X190025700Y-88300600D01*
X300210100Y-36028500D02*
X299712200Y-36526400D01*
X291156300Y-36526400D02*
X299712200Y-36526400D01*
X187371000Y-52125000D02*
X191181000Y-55935000D01*
X207124600Y-104474700D02*
X207035700Y-103429200D01*
X269725000Y-17835000D02*
X269725000Y-16662000D01*
X299811700Y-18787500D02*
X299811700Y-23432100D01*
X300256300Y-37070500D02*
X300256300Y-37837500D01*
X183575000Y-69440000D02*
X183575000Y-70222500D01*
X228527600Y-49910200D02*
X224407800Y-54030000D01*
X278825000Y-55935000D02*
X280730400Y-55935000D01*
X191921600Y-38790300D02*
X196014500Y-42883200D01*
X194869900Y-35540100D02*
X193525000Y-36885000D01*
X190025700Y-93086800D02*
X185397900Y-97714600D01*
X266582700Y-73055700D02*
X266582700Y-70861600D01*
X280990200Y-56547700D02*
X280730400Y-56287900D01*
X186689600Y-62881700D02*
X183576700Y-65994600D01*
X259775000Y-14599500D02*
X252005500Y-14599500D01*
X221127500Y-14615300D02*
X221451800Y-14939600D01*
X259775000Y-34216000D02*
X259775000Y-34374400D01*
X223835000Y-35234600D02*
X223580400Y-34980000D01*
X219185000Y-86162500D02*
X219185000Y-86165000D01*
X290816500Y-56547700D02*
X290216600Y-56547700D01*
X182000000Y-19601000D02*
X182000000Y-20405000D01*
X204561700Y-77009600D02*
X204561700Y-74985000D01*
X255485800Y-33616100D02*
X259175100Y-33616100D01*
X194900900Y-73609100D02*
X193525000Y-74985000D01*
X298145700Y-25098100D02*
X298145700Y-30122800D01*
X194690900Y-16669100D02*
X195553600Y-16669100D01*
X181272100Y-28522100D02*
X181272100Y-21977900D01*
X187250000Y-33000000D02*
X187250000Y-33761700D01*
X299767700Y-55584400D02*
X292459400Y-55584400D01*
X230687200Y-33075000D02*
X231625000Y-33075000D01*
X263077700Y-34374400D02*
X259775000Y-34374400D01*
X228527600Y-49910200D02*
X229410200Y-49910200D01*
X188250000Y-22348000D02*
X188250000Y-21644000D01*
X191238600Y-75430800D02*
X191323700Y-75430800D01*
X206223200Y-100486100D02*
X206423200Y-100286099D01*
X298145700Y-30122800D02*
X300210100Y-32187200D01*
X203623200Y-77948100D02*
X204561700Y-77009600D01*
X240725000Y-14025000D02*
X242630400Y-14025000D01*
X242885000Y-14279600D02*
X249024600Y-14279600D01*
X183575000Y-51281800D02*
X183575000Y-52125000D01*
X181315000Y-6551700D02*
X181051000Y-6815700D01*
X240725000Y-71175000D02*
X242661700Y-71175000D01*
X183576700Y-67929500D02*
X182820600Y-68685600D01*
X181051000Y-9175200D02*
X181051000Y-17125300D01*
X183056200Y-50763000D02*
X183575000Y-51281800D01*
X211815000Y-54030000D02*
X211815000Y-62510600D01*
X188712600Y-62881700D02*
X188712600Y-72904800D01*
X243178000Y-71691300D02*
X243048900Y-71562200D01*
X194859300Y-54600700D02*
X193525000Y-55935000D01*
X191181000Y-55935000D02*
X193525000Y-55935000D01*
X232963500Y-31736500D02*
X240207900Y-31736500D01*
X212575000Y-34980000D02*
X211631000Y-34980000D01*
X187062900Y-108119300D02*
X188109400Y-107090500D01*
X266381000Y-17835000D02*
X265607800Y-18608200D01*
X291156300Y-75937500D02*
X291156300Y-74626400D01*
X211815000Y-54030000D02*
X212575000Y-54030000D01*
X300256300Y-56073000D02*
X299767700Y-55584400D01*
X175324300Y-9175200D02*
X181051000Y-9175200D01*
X259775000Y-73080000D02*
X259775000Y-72312200D01*
X259775000Y-13568700D02*
X259775000Y-14599500D01*
X173300000Y-22525000D02*
X174892900Y-20932100D01*
X240207900Y-31736500D02*
X240725000Y-32253600D01*
X224407800Y-54030000D02*
X221675000Y-54030000D01*
X193471000Y-36939000D02*
X193525000Y-36885000D01*
X259775000Y-14599500D02*
X259775000Y-15930000D01*
X243178000Y-72693400D02*
X243178000Y-71691300D01*
X269725000Y-36885000D02*
X271660600Y-34949400D01*
X213889700Y-14615300D02*
X221127500Y-14615300D01*
X196200000Y-35150000D02*
X196950000Y-35550000D01*
X185525600Y-20405000D02*
X182000000Y-20405000D01*
X291156300Y-36526400D02*
X291156300Y-34949400D01*
X300210100Y-32187200D02*
X300210100Y-36028500D01*
X219185000Y-86165000D02*
X213161400Y-92188600D01*
X250675000Y-54030000D02*
X252038900Y-52666100D01*
X183576700Y-65994600D02*
X183576700Y-67929500D01*
X300256300Y-56887500D02*
X300256300Y-56073000D01*
X174892900Y-9606600D02*
X175324300Y-9175200D01*
X182000000Y-29294800D02*
X182000000Y-29250000D01*
X221451900Y-15706900D02*
X221675000Y-15930000D01*
X240139000Y-12687100D02*
X240725000Y-13273100D01*
X228527600Y-35234600D02*
X228527600Y-49910200D01*
X202625000Y-36885000D02*
X205368300Y-36885000D01*
X209697200Y-64359500D02*
X209697200Y-69251300D01*
X297338100Y-17444300D02*
X290118200Y-17444300D01*
X203623200Y-96486100D02*
X203623200Y-95042900D01*
X208097200Y-42883200D02*
X209188500Y-43974500D01*
X188000000Y-28306900D02*
X188000000Y-29250000D01*
X196950000Y-35550000D02*
X197000000Y-35550000D01*
X175837000Y-50763000D02*
X183056200Y-50763000D01*
X174892900Y-20932100D02*
X174892900Y-9606600D01*
X184250000Y-30537500D02*
X184287500Y-30500000D01*
X206827400Y-35425900D02*
X206827400Y-34980000D01*
X196250000Y-33700000D02*
X196200000Y-34300000D01*
X211144700Y-62912000D02*
X209697200Y-64359500D01*
X202625000Y-55935000D02*
X202625000Y-55185000D01*
X202625000Y-74211000D02*
X202023100Y-73609100D01*
X187137500Y-21050000D02*
X186170600Y-21050000D01*
X278825000Y-74985000D02*
X278825000Y-73064100D01*
X202625000Y-74985000D02*
X202625000Y-74211000D01*
X299811700Y-23432100D02*
X298145700Y-25098100D01*
X259178000Y-71715200D02*
X252039800Y-71715200D01*
X188712600Y-62881700D02*
X186689600Y-62881700D01*
X250288400Y-72693400D02*
X250675000Y-73080000D01*
X243178000Y-72693400D02*
X250288400Y-72693400D01*
X181051000Y-6815700D02*
X181051000Y-9175200D01*
X229691300Y-50191300D02*
X231625000Y-52125000D01*
X182000000Y-20405000D02*
X182000000Y-21250000D01*
X212216400Y-62912000D02*
X211144700Y-62912000D01*
X231625000Y-14025000D02*
X230677600Y-14972400D01*
X193525000Y-17835000D02*
X194690900Y-16669100D01*
X288435200Y-18447700D02*
X288775000Y-18787500D01*
X240725000Y-52125000D02*
X240725000Y-50501500D01*
X192551700Y-36939000D02*
X191921600Y-37569100D01*
X188109400Y-107090500D02*
X188038500Y-106019900D01*
X259175100Y-33616100D02*
X259775000Y-34216000D01*
X179500000Y-29450000D02*
X179000000Y-29250000D01*
X292459400Y-55584400D02*
X291156300Y-56887500D01*
X191181000Y-55935000D02*
X191181000Y-60413300D01*
X221451800Y-15706900D02*
X221451900Y-15706900D01*
X280990200Y-18447700D02*
X288435200Y-18447700D01*
X266582700Y-70861600D02*
X266419200Y-70698100D01*
X184250000Y-30537500D02*
X183242700Y-30537500D01*
X211841800Y-73174200D02*
X210031000Y-74985000D01*
X176011900Y-68685600D02*
X182820600Y-68685600D01*
X202625000Y-36885000D02*
X202625000Y-36078700D01*
X221859800Y-67779900D02*
X216991900Y-62912000D01*
X223838900Y-15930000D02*
X221675000Y-15930000D01*
X188250000Y-21644000D02*
X187460000Y-21050000D01*
X187294800Y-23107300D02*
X187294900Y-23107300D01*
X221675000Y-73080000D02*
X221859800Y-72895200D01*
X183700000Y-32150000D02*
X183300000Y-31150000D01*
X297875000Y-18787500D02*
X297875000Y-17981200D01*
X297875000Y-17981200D02*
X297338100Y-17444300D01*
X211841800Y-73080000D02*
X211841800Y-73174200D01*
X207035700Y-103429200D02*
X206223200Y-100486100D01*
X181051000Y-18652000D02*
X182000000Y-19601000D01*
X246212400Y-55675700D02*
X246212400Y-68398700D01*
X252005500Y-14599500D02*
X250675000Y-15930000D01*
X265607800Y-31844300D02*
X263077700Y-34374400D01*
X210031000Y-74985000D02*
X204561700Y-74985000D01*
G04 #@! TO.N,/RGB_DATA_RIGHT*
X185531400Y-17189900D02*
X185531400Y-19764200D01*
X183914400Y-22598700D02*
X183914400Y-23599200D01*
X187576800Y-15144500D02*
X185531400Y-17189900D01*
X187137500Y-22000000D02*
X184513100Y-22000000D01*
X184513100Y-22000000D02*
X183914400Y-22598700D01*
G04 #@! TO.N,/RGB_EN_RIGHT*
X185355300Y-30000000D02*
X185712500Y-30000000D01*
X186450000Y-36600000D02*
X186450000Y-35000000D01*
X186220300Y-18830900D02*
X189802700Y-15248500D01*
X188750000Y-31775100D02*
X185562600Y-31775100D01*
X185072000Y-31284500D02*
X185072000Y-30283300D01*
X186450000Y-35000000D02*
X186650000Y-34700000D01*
X187450000Y-32400000D02*
X188750000Y-33000000D01*
X185562600Y-31775100D02*
X185072000Y-31284500D01*
X184750000Y-39500000D02*
X185650000Y-38600000D01*
X188750000Y-33000000D02*
X188750000Y-31775100D01*
X185072000Y-30283300D02*
X185355300Y-30000000D01*
X186220300Y-20225300D02*
X186220300Y-18830900D01*
X189802700Y-15248500D02*
X189802700Y-12877500D01*
X188750000Y-31775100D02*
X188750000Y-23901700D01*
G04 #@! TO.N,/matrix/SW50_A*
X282302000Y-73485000D02*
X283002000Y-72784800D01*
X283002000Y-72784800D02*
X283002000Y-68218600D01*
X281575000Y-73485000D02*
X282302000Y-73485000D01*
X281925000Y-65365000D02*
X281925000Y-67141700D01*
X283002000Y-68218600D02*
X281925000Y-67141700D01*
G04 #@! TO.N,/RGB_5V_RIGHT*
X195120400Y-38560900D02*
X195120400Y-37699800D01*
X231665700Y-34575000D02*
X232350900Y-33889800D01*
X288775000Y-20287500D02*
X288225300Y-20837200D01*
X174475000Y-71722500D02*
X171598300Y-68845800D01*
X204574400Y-88280000D02*
X204474400Y-91780000D01*
X270904800Y-36885000D02*
X271719600Y-36885000D01*
X254575000Y-54030000D02*
X252669600Y-54030000D01*
X232350900Y-14839800D02*
X232804800Y-14839800D01*
X178225900Y-29975900D02*
X178225900Y-28837200D01*
X203274400Y-97680000D02*
X202174400Y-96880000D01*
X175000000Y-38675000D02*
X171598300Y-42047900D01*
X232352400Y-52125000D02*
X233619600Y-52125000D01*
X173300000Y-25475000D02*
X174000000Y-28975000D01*
X270904800Y-73362800D02*
X269656300Y-72114300D01*
X197600900Y-22002900D02*
X208002100Y-22002900D01*
X236121600Y-50761100D02*
X235525000Y-51357700D01*
X292336100Y-76752300D02*
X293150900Y-75937500D01*
X171598300Y-68845800D02*
X171598300Y-56501700D01*
X288266800Y-75012300D02*
X281649500Y-75012300D01*
X290282300Y-19274800D02*
X290769600Y-18787500D01*
X269656300Y-72114300D02*
X269433200Y-72114300D01*
X201752900Y-96874300D02*
X202174400Y-96874300D01*
X188062100Y-104129800D02*
X188062100Y-105262800D01*
X213302400Y-54030000D02*
X214490400Y-54030000D01*
X194721200Y-37699800D02*
X195120400Y-37699800D01*
X194679600Y-74985000D02*
X195519600Y-74985000D01*
X273625000Y-17835000D02*
X271719600Y-17835000D01*
X193565700Y-19335000D02*
X194250900Y-18649800D01*
X254575000Y-73080000D02*
X252669600Y-73080000D01*
X183097400Y-28690000D02*
X183097400Y-22750000D01*
X288279600Y-42328200D02*
X288279600Y-42214200D01*
X268672800Y-77537200D02*
X253632200Y-77537200D01*
X183097400Y-22750000D02*
X183160900Y-22750000D01*
X288279600Y-55510800D02*
X291156300Y-58387500D01*
X208137900Y-34480800D02*
X207930000Y-34688700D01*
X175200900Y-71037300D02*
X175654800Y-71037300D01*
X295056300Y-37837500D02*
X293150900Y-37837500D01*
X172864000Y-35184400D02*
X175664000Y-35484399D01*
X232895500Y-37761200D02*
X240708300Y-45574000D01*
X232350900Y-33889800D02*
X232895500Y-33889800D01*
X239513900Y-50761100D02*
X236121600Y-50761100D01*
X288775000Y-20287500D02*
X288815700Y-20287500D01*
X192552100Y-38566000D02*
X193344000Y-38566000D01*
X194679600Y-56749800D02*
X194704800Y-56749800D01*
X182000000Y-30750000D02*
X182750000Y-31500000D01*
X230715000Y-75901700D02*
X240815000Y-76401700D01*
X251520300Y-16744800D02*
X251532200Y-16732900D01*
X231625000Y-53625000D02*
X232310200Y-52939800D01*
X270450900Y-37699800D02*
X270904800Y-37699800D01*
X204632600Y-100253200D02*
X204083700Y-98204600D01*
X232352400Y-52125000D02*
X232352400Y-52939800D01*
X191863700Y-106763500D02*
X201752900Y-96874300D01*
X173900000Y-28575000D02*
X174000000Y-28875000D01*
X269433200Y-72114300D02*
X266826100Y-69507200D01*
X202174400Y-84242700D02*
X195488300Y-77556600D01*
X273625000Y-55935000D02*
X271719600Y-55935000D01*
X266826100Y-69507200D02*
X266826100Y-60333900D01*
X273352500Y-42328200D02*
X288279600Y-42328200D01*
X174475000Y-71722500D02*
X175160200Y-71037300D01*
X289500900Y-19602300D02*
X290120400Y-19602300D01*
X174475000Y-53625000D02*
X174515700Y-53625000D01*
X229215000Y-74001700D02*
X230715000Y-75901700D01*
X291156300Y-77437500D02*
X288731100Y-75012300D01*
X194036000Y-38385000D02*
X194721200Y-37699800D01*
X216475000Y-54030000D02*
X214569600Y-54030000D01*
X171598300Y-50748300D02*
X171598300Y-42047900D01*
X214490400Y-54030000D02*
X214490400Y-56910900D01*
X240708300Y-49888300D02*
X240386700Y-49888300D01*
X251666100Y-16732900D02*
X251666100Y-16599000D01*
X250675000Y-17430000D02*
X251360200Y-16744800D01*
X291841500Y-38652300D02*
X291882200Y-38652300D01*
X291841500Y-76752300D02*
X291882200Y-76752300D01*
X254575000Y-34980000D02*
X252669600Y-34980000D01*
X252335100Y-16097200D02*
X252335100Y-15930000D01*
X197425000Y-17835000D02*
X195519600Y-17835000D01*
X269725000Y-76485000D02*
X269765700Y-76485000D01*
X233212200Y-33482400D02*
X233619600Y-33075000D01*
X213300900Y-16744800D02*
X213754800Y-16744800D01*
X291156300Y-77437500D02*
X291841500Y-76752300D01*
X184030500Y-100377900D02*
X184609400Y-100377900D01*
X252000600Y-16599000D02*
X252000600Y-16264500D01*
X204874399Y-96880000D02*
X203674400Y-97580000D01*
X213302400Y-54030000D02*
X213302400Y-53570500D01*
X174000000Y-28975000D02*
X174800000Y-33975000D01*
X194704800Y-19106800D02*
X197600900Y-22002900D01*
X174475000Y-53625000D02*
X171598300Y-50748300D01*
X241045300Y-49888300D02*
X240708300Y-49888300D01*
X175654800Y-71037300D02*
X176469600Y-70222500D01*
X228715000Y-58620900D02*
X228715000Y-56535000D01*
X194250900Y-75799800D02*
X194679600Y-75799800D01*
X197425000Y-36885000D02*
X195519600Y-36885000D01*
X183907400Y-29500000D02*
X183097400Y-28690000D01*
X232350900Y-52939800D02*
X232352400Y-52939800D01*
X270904800Y-55935000D02*
X271719600Y-55935000D01*
X213300900Y-54844800D02*
X213302400Y-54844800D01*
X196323600Y-55935000D02*
X196225200Y-55935000D01*
X179000000Y-30750000D02*
X179000000Y-31969800D01*
X288279600Y-42214200D02*
X291156300Y-39337500D01*
X250675000Y-74580000D02*
X251360200Y-73894800D01*
X270450900Y-56749800D02*
X270904800Y-56749800D01*
X180667000Y-26396100D02*
X180667000Y-22750000D01*
X193525000Y-38385000D02*
X194036000Y-38385000D01*
X291841500Y-57702300D02*
X291882200Y-57702300D01*
X290120400Y-19436700D02*
X290282300Y-19274800D01*
X207930000Y-34688700D02*
X207930000Y-36138500D01*
X251400900Y-54844800D02*
X251854800Y-54844800D01*
X250715700Y-55530000D02*
X251400900Y-54844800D01*
X182750000Y-31500000D02*
X182750000Y-33000000D01*
X228715000Y-66301700D02*
X233588300Y-71175000D01*
X179000000Y-30750000D02*
X178225900Y-29975900D01*
X216409300Y-73014300D02*
X216475000Y-73080000D01*
X185615400Y-102883600D02*
X185066500Y-100835000D01*
X288266800Y-75012300D02*
X288266800Y-61277000D01*
X233212200Y-33482400D02*
X232895500Y-33799100D01*
X238134400Y-23371800D02*
X237594900Y-23371800D01*
X252912900Y-15930000D02*
X252335100Y-15930000D01*
X210423300Y-38631700D02*
X209698300Y-39356700D01*
X240803000Y-76450000D02*
X231625000Y-76450000D01*
X193565700Y-76485000D02*
X194250900Y-75799800D01*
X184025500Y-100373000D02*
X184025600Y-100373000D01*
X178375000Y-52125000D02*
X176469600Y-52125000D01*
X270904800Y-17835000D02*
X271719600Y-17835000D01*
X212615700Y-36480000D02*
X213300900Y-35794800D01*
X202174400Y-96874300D02*
X203504700Y-98204600D01*
X231625000Y-34575000D02*
X231665700Y-34575000D01*
X228715000Y-66301700D02*
X226715000Y-70701700D01*
X235525000Y-33075000D02*
X233619600Y-33075000D01*
X195120400Y-37300600D02*
X195519600Y-36901400D01*
X235525000Y-33071800D02*
X234825000Y-32371800D01*
X273625000Y-36885000D02*
X271719600Y-36885000D01*
X247798300Y-21463000D02*
X239784200Y-21463000D01*
X273625000Y-74985000D02*
X271719600Y-74985000D01*
X216509300Y-62220900D02*
X213309300Y-64020900D01*
X288266800Y-61277000D02*
X291156300Y-58387500D01*
X240708300Y-45574000D02*
X240708300Y-49888300D01*
X288815700Y-20287500D02*
X289500900Y-19602300D01*
X212575000Y-36480000D02*
X212615700Y-36480000D01*
X270450900Y-18649800D02*
X270904800Y-18649800D01*
X209698300Y-39356700D02*
X209698300Y-42455900D01*
X213996000Y-73014300D02*
X216409300Y-73014300D01*
X208002100Y-22002900D02*
X208137900Y-22138700D01*
X269725000Y-57435000D02*
X269765700Y-57435000D01*
X270904800Y-55935000D02*
X270904800Y-56749800D01*
X250715700Y-36480000D02*
X251400900Y-35794800D01*
X238571200Y-22935000D02*
X238134400Y-23371800D01*
X174800000Y-33975000D02*
X175600000Y-35475000D01*
X212615700Y-55530000D02*
X213300900Y-54844800D01*
X270904800Y-39880500D02*
X273352500Y-42328200D01*
X195488300Y-77556600D02*
X195488300Y-75016300D01*
X174515700Y-53625000D02*
X175200900Y-52939800D01*
X252167800Y-16264500D02*
X252000600Y-16264500D01*
X176047300Y-53830600D02*
X178755000Y-56538300D01*
X270904800Y-17835000D02*
X270904800Y-18649800D01*
X183157200Y-99504700D02*
X184025500Y-100373000D01*
X247798300Y-21463000D02*
X247798300Y-20306700D01*
X184025600Y-100373000D02*
X184030500Y-100377900D01*
X193525000Y-57435000D02*
X193565700Y-57435000D01*
X193344000Y-38566000D02*
X193525000Y-38385000D01*
X176047300Y-52547300D02*
X176469600Y-52125000D01*
X270904800Y-74985000D02*
X270904800Y-75799800D01*
X213309300Y-70820900D02*
X216409300Y-73020900D01*
X251666100Y-16599000D02*
X252000600Y-16599000D01*
X250675000Y-55530000D02*
X250715700Y-55530000D01*
X288731100Y-75012300D02*
X288266800Y-75012300D01*
X235525000Y-14025000D02*
X233619600Y-14025000D01*
X197425000Y-55935000D02*
X196323600Y-55935000D01*
X281649500Y-75012300D02*
X279051400Y-72414200D01*
X212575000Y-74580000D02*
X212575000Y-74435300D01*
X288225300Y-36406500D02*
X291156300Y-39337500D01*
X251666100Y-16732900D02*
X251532200Y-16732900D01*
X251400900Y-35794800D02*
X251402400Y-35794800D01*
X182000000Y-22750000D02*
X183097400Y-22750000D01*
X213302400Y-53570500D02*
X209698300Y-49966400D01*
X248159800Y-29900300D02*
X247798300Y-29538800D01*
X178375000Y-70222500D02*
X176469600Y-70222500D01*
X252335100Y-16097200D02*
X252167800Y-16264500D01*
X254575000Y-15930000D02*
X252912900Y-15930000D01*
X291882200Y-57702300D02*
X291883700Y-57702300D01*
X193525000Y-19335000D02*
X193565700Y-19335000D01*
X273625000Y-74217700D02*
X273625000Y-74985000D01*
X184609400Y-100377900D02*
X185066500Y-100835000D01*
X277206700Y-73621100D02*
X274221600Y-73621100D01*
X213300900Y-35794800D02*
X213754800Y-35794800D01*
X194704800Y-18649800D02*
X195519600Y-17835000D01*
X216200400Y-58620900D02*
X228715000Y-58620900D01*
X174000000Y-28975000D02*
X175000000Y-38675000D01*
X175160200Y-71037300D02*
X175200900Y-71037300D01*
X270904800Y-36885000D02*
X270904800Y-37699800D01*
X269765700Y-57435000D02*
X270450900Y-56749800D01*
X290120400Y-19602300D02*
X290120400Y-19436700D01*
X231665700Y-15525000D02*
X232350900Y-14839800D01*
X189562800Y-106763500D02*
X191863700Y-106763500D01*
X212615700Y-17430000D02*
X213300900Y-16744800D01*
X186815900Y-102883600D02*
X188062100Y-104129800D01*
X184862500Y-21050000D02*
X183162500Y-22750000D01*
X274221600Y-73621100D02*
X273625000Y-74217700D01*
X216475000Y-34980000D02*
X214569600Y-34980000D01*
X209698300Y-42455900D02*
X199015400Y-42455900D01*
X251360200Y-73894800D02*
X251400900Y-73894800D01*
X178225900Y-28837200D02*
X180667000Y-26396100D01*
X269765700Y-38385000D02*
X270450900Y-37699800D01*
X269725000Y-76485000D02*
X268672800Y-77537200D01*
X172864000Y-35184400D02*
X174072000Y-33976700D01*
X194250900Y-18649800D02*
X194704800Y-18649800D01*
X251854800Y-54844800D02*
X252669600Y-54030000D01*
X295056300Y-75937500D02*
X293150900Y-75937500D01*
X251402400Y-34980000D02*
X251402400Y-32452700D01*
X228709300Y-58620900D02*
X216509300Y-62220900D01*
X175646400Y-35475000D02*
X178155900Y-32965500D01*
X212575000Y-55530000D02*
X212615700Y-55530000D01*
X250675000Y-55530000D02*
X246687000Y-55530000D01*
X291883700Y-56887500D02*
X293150900Y-56887500D01*
X212575000Y-74435300D02*
X213996000Y-73014300D01*
X242673000Y-74580000D02*
X240803000Y-76450000D01*
X292336100Y-38652300D02*
X293150900Y-37837500D01*
X291882200Y-76752300D02*
X292336100Y-76752300D01*
X266826100Y-60333900D02*
X269725000Y-57435000D01*
X188062100Y-105262800D02*
X189562800Y-106763500D01*
X213302400Y-54030000D02*
X213302400Y-54844800D01*
X240386700Y-49888300D02*
X239513900Y-50761100D01*
X291156300Y-58387500D02*
X291841500Y-57702300D01*
X288279600Y-42328200D02*
X288279600Y-55510800D01*
X176047300Y-52939800D02*
X176047300Y-53830600D01*
X238571200Y-22676000D02*
X238571200Y-22935000D01*
X228715000Y-58620900D02*
X228715000Y-66301700D01*
X270904800Y-37699800D02*
X270904800Y-39880500D01*
X182000000Y-30750000D02*
X179000000Y-30750000D01*
X232804800Y-18581700D02*
X232804800Y-14839800D01*
X212574400Y-74580000D02*
X210474400Y-77280000D01*
X232895500Y-33799100D02*
X232895500Y-33889800D01*
X183162500Y-22750000D02*
X183160900Y-22750000D01*
X251360200Y-16744800D02*
X251400900Y-16744800D01*
X250675000Y-36480000D02*
X250715700Y-36480000D01*
X247798300Y-29538800D02*
X247798300Y-21463000D01*
X239784200Y-21463000D02*
X238571200Y-22676000D01*
X251400900Y-16744800D02*
X251520300Y-16744800D01*
X174000000Y-28875000D02*
X175000000Y-38675000D01*
X175200900Y-52939800D02*
X176047300Y-52939800D01*
X251854800Y-73894800D02*
X252669600Y-73080000D01*
X195519600Y-36901400D02*
X195519600Y-36885000D01*
X288225300Y-20837200D02*
X288225300Y-21965200D01*
X193525000Y-76485000D02*
X193565700Y-76485000D01*
X194704800Y-56749800D02*
X195519600Y-55935000D01*
X203674400Y-97580000D02*
X203374399Y-97680000D01*
X203374399Y-97680000D02*
X203274400Y-97680000D01*
X235525000Y-52125000D02*
X233619600Y-52125000D01*
X292675000Y-18787500D02*
X290769600Y-18787500D01*
X197425000Y-74985000D02*
X195519600Y-74985000D01*
X194679600Y-74985000D02*
X194679600Y-75799800D01*
X212575000Y-17430000D02*
X212615700Y-17430000D01*
X207930000Y-36138500D02*
X210423300Y-38631700D01*
X269725000Y-19335000D02*
X269765700Y-19335000D01*
X213754800Y-16744800D02*
X214569600Y-15930000D01*
X246687000Y-55530000D02*
X241045300Y-49888300D01*
X203504700Y-98204600D02*
X204083700Y-98204600D01*
X251402400Y-34980000D02*
X252669600Y-34980000D01*
X194250900Y-56749800D02*
X194679600Y-56749800D01*
X209698300Y-49966400D02*
X209698300Y-42455900D01*
X194704800Y-18649800D02*
X194704800Y-19106800D01*
X288225300Y-21965200D02*
X288225300Y-36406500D01*
X235525000Y-51357700D02*
X235525000Y-52125000D01*
X178755000Y-56538300D02*
X190559700Y-56538300D01*
X251402400Y-32452700D02*
X248850000Y-29900300D01*
X295056300Y-56887500D02*
X293150900Y-56887500D01*
X176047300Y-52547300D02*
X176047300Y-52939800D01*
X204474400Y-91780000D02*
X204874399Y-96880000D01*
X269765700Y-19335000D02*
X270450900Y-18649800D01*
X270904800Y-74985000D02*
X271719600Y-74985000D01*
X270904800Y-19182000D02*
X270904800Y-18649800D01*
X269765700Y-76485000D02*
X270450900Y-75799800D01*
X208137900Y-22138700D02*
X208137900Y-34480800D01*
X270450900Y-75799800D02*
X270904800Y-75799800D01*
X214490400Y-54030000D02*
X214569600Y-54030000D01*
X228715000Y-56535000D02*
X231625000Y-53625000D01*
X230625000Y-32171800D02*
X231225000Y-30971800D01*
X210474400Y-77280000D02*
X204574400Y-88280000D01*
X248850000Y-29900300D02*
X248159800Y-29900300D01*
X288225300Y-21965200D02*
X273688000Y-21965200D01*
X273688000Y-21965200D02*
X270904800Y-19182000D01*
X195120400Y-37300600D02*
X195120400Y-37699800D01*
X171598300Y-56501700D02*
X174475000Y-53625000D01*
X232310200Y-52939800D02*
X232350900Y-52939800D01*
X231625000Y-15525000D02*
X231665700Y-15525000D01*
X232895500Y-33889800D02*
X232895500Y-37761200D01*
X184287500Y-29500000D02*
X183907400Y-29500000D01*
X235525000Y-71175000D02*
X233588300Y-71175000D01*
X212575000Y-36480000D02*
X210423300Y-38631700D01*
X269725000Y-38385000D02*
X269765700Y-38385000D01*
X270904800Y-74985000D02*
X270904800Y-73362800D01*
X196225200Y-55935000D02*
X195519600Y-55935000D01*
X237594900Y-23371800D02*
X237200000Y-23750000D01*
X199015400Y-42455900D02*
X195120400Y-38560900D01*
X193565700Y-57435000D02*
X194250900Y-56749800D01*
X214490400Y-56910900D02*
X216200400Y-58620900D01*
X195488300Y-75016300D02*
X195519600Y-74985000D01*
X237594900Y-23371800D02*
X232804800Y-18581700D01*
X291156300Y-39337500D02*
X291841500Y-38652300D01*
X216475000Y-15930000D02*
X214569600Y-15930000D01*
X291883700Y-56887500D02*
X291883700Y-57702300D01*
X185615400Y-102883600D02*
X186815900Y-102883600D01*
X202174400Y-96874300D02*
X202174400Y-84242700D01*
X213754800Y-35794800D02*
X214569600Y-34980000D01*
X251402400Y-34980000D02*
X251402400Y-35794800D01*
X253632200Y-77537200D02*
X250675000Y-74580000D01*
X208002100Y-22002900D02*
X212575000Y-17430000D01*
X250675000Y-74580000D02*
X242673000Y-74580000D01*
X232804800Y-14839800D02*
X233619600Y-14025000D01*
X247798300Y-20306700D02*
X250675000Y-17430000D01*
X251400900Y-73894800D02*
X251854800Y-73894800D01*
X226715000Y-70701700D02*
X226715000Y-71701700D01*
X278413600Y-72414200D02*
X277206700Y-73621100D01*
X279051400Y-72414200D02*
X278413600Y-72414200D01*
X291882200Y-38652300D02*
X292336100Y-38652300D01*
G04 #@! TO.N,/rgb/RGB_LED_right_7*
X216475000Y-36480000D02*
X216475000Y-39018700D01*
X259775000Y-36480000D02*
X259775000Y-38403800D01*
G04 #@! TO.N,/rgb/RGB_LED_right_8*
X204789000Y-38385000D02*
X206025000Y-39620400D01*
X202625000Y-38385000D02*
X204789000Y-38385000D01*
X254575000Y-36480000D02*
X254575000Y-39013300D01*
G04 #@! TO.N,/rgb/RGB_LED_right_23*
X248179000Y-75499100D02*
X249277000Y-76596600D01*
X211062000Y-77610100D02*
X211062000Y-78178200D01*
X278825000Y-76485000D02*
X278825000Y-78536200D01*
X249277000Y-76596600D02*
X249277000Y-78439600D01*
X213426000Y-75247000D02*
X211062000Y-77610100D01*
X197425000Y-76485000D02*
X197425000Y-78178200D01*
G04 #@! TO.N,/rgb/RGB_LED_right_24*
X300256000Y-77437500D02*
X300256000Y-79330000D01*
X300256300Y-77437500D02*
X300256000Y-77437500D01*
X273625000Y-76485000D02*
X273625000Y-79330000D01*
G04 #@! TO.N,/rgb/RGB_LED_right_10*
X300256000Y-39337500D02*
X300256000Y-41700700D01*
X300256300Y-39337500D02*
X300256000Y-39337500D01*
X273625000Y-38385000D02*
X273625000Y-41700700D01*
G04 #@! TO.N,/rgb/RGB_LED_right_11*
X186332000Y-53625000D02*
X186538000Y-53419200D01*
X295056000Y-39337500D02*
X293120000Y-39337500D01*
X205835000Y-40618100D02*
X202834000Y-40618100D01*
X295056000Y-39337500D02*
X295056300Y-39337500D01*
X206014000Y-40439800D02*
X205835000Y-40618100D01*
X293120000Y-39337500D02*
X293120000Y-42528100D01*
X185512000Y-53625000D02*
X186332000Y-53625000D01*
X183575000Y-53625000D02*
X185512000Y-53625000D01*
X202834000Y-40618100D02*
X201643000Y-41808800D01*
G04 #@! TO.N,/rgb/RGB_LED_right_0*
X223612000Y-17430000D02*
X223682000Y-17430000D01*
X223682000Y-17430000D02*
X223945000Y-17167000D01*
X235525000Y-15525000D02*
X235525000Y-17167000D01*
X221675000Y-17430000D02*
X223612000Y-17430000D01*
G04 #@! TO.N,/rgb/RGB_LED_right_1*
X259775000Y-17430000D02*
X259775000Y-18321500D01*
X216475000Y-17430000D02*
X216475000Y-18726700D01*
G04 #@! TO.N,/power/RGB_SW_RIGHT*
X184000000Y-26600000D02*
X184000000Y-28684400D01*
X184287500Y-30000000D02*
X183556400Y-30000000D01*
X183556400Y-30000000D02*
X183344600Y-29788200D01*
G04 #@! TO.N,/rgb/RGB_LED_right_19*
X176438000Y-72519900D02*
X176299000Y-72659500D01*
X221253000Y-70552300D02*
X220523000Y-71283000D01*
X240355000Y-73044600D02*
X240725000Y-72675000D01*
X176438000Y-71722500D02*
X176438000Y-72519900D01*
X187726000Y-72594100D02*
X187726000Y-74498300D01*
X178375000Y-71722500D02*
X176438000Y-71722500D01*
X240355000Y-74075200D02*
X240355000Y-73044600D01*
X210217000Y-72171600D02*
X210951000Y-71437800D01*
X207401000Y-72171600D02*
X210217000Y-72171600D01*
X216277000Y-71283000D02*
X216131000Y-71136700D01*
X220523000Y-71283000D02*
X216277000Y-71283000D01*
G04 #@! TO.N,/rgb/RGB_LED_right_20*
X223612000Y-73643800D02*
X224595000Y-72660700D01*
X223612000Y-74580000D02*
X223612000Y-73643800D01*
X233588000Y-72675000D02*
X232075000Y-74188400D01*
X221675000Y-74580000D02*
X223612000Y-74580000D01*
X229346000Y-71304500D02*
X229554000Y-71096600D01*
X235525000Y-72675000D02*
X233588000Y-72675000D01*
X232075000Y-74188400D02*
X230349000Y-74188400D01*
X229346000Y-73185800D02*
X229346000Y-71304500D01*
X230349000Y-74188400D02*
X229346000Y-73185800D01*
G04 #@! TO.N,/rgb/RGB_LED_right_26*
X202436000Y-100641000D02*
X201001000Y-102077000D01*
X203184000Y-100641000D02*
X202436000Y-100641000D01*
X201001000Y-102575000D02*
X201212000Y-102787000D01*
X201001000Y-102077000D02*
X201001000Y-102575000D01*
X185512000Y-108295000D02*
X184058000Y-108295000D01*
X201212000Y-102787000D02*
X201212000Y-107525000D01*
X184058000Y-108295000D02*
X184058000Y-108294000D01*
X185512000Y-108295000D02*
X185512400Y-108294600D01*
G04 #@! TO.N,/rgb/RGB_LED_right_17*
X273625000Y-57435000D02*
X273625000Y-58951500D01*
X300256300Y-58387500D02*
X300256000Y-58387500D01*
X300256000Y-58387500D02*
X300256000Y-59825400D01*
G04 #@! TO.N,/rgb/RGB_LED_right_18*
X210396000Y-59629100D02*
X207611000Y-62414800D01*
X295056000Y-58387500D02*
X293120000Y-58387500D01*
X207611000Y-62414800D02*
X207017000Y-62414800D01*
X295056000Y-58387500D02*
X295056300Y-58387500D01*
X184536000Y-71722500D02*
X185528000Y-70730800D01*
X293120000Y-58387500D02*
X293120000Y-60000900D01*
X185528000Y-70730800D02*
X185528000Y-67794500D01*
X183575000Y-71722500D02*
X184536000Y-71722500D01*
G04 #@! TO.N,/rgb/RGB_LED_right_12*
X178375000Y-53625000D02*
X178375000Y-54357400D01*
X178375000Y-54357400D02*
X178974000Y-54956400D01*
X240725000Y-53625000D02*
X240725000Y-57396200D01*
X205963000Y-53334400D02*
X208803000Y-56173800D01*
X187693000Y-54956400D02*
X187911000Y-54737900D01*
X208803000Y-56173800D02*
X209060000Y-56173800D01*
X210648000Y-57494800D02*
X210648000Y-56173800D01*
X178974000Y-54956400D02*
X187693000Y-54956400D01*
G04 #@! TO.N,/rgb/RGB_LED_right_13*
X235525000Y-53625000D02*
X233588000Y-53625000D01*
X233588000Y-53625000D02*
X233588000Y-56612500D01*
X223612000Y-55530000D02*
X223612000Y-55868100D01*
X221675000Y-55530000D02*
X223612000Y-55530000D01*
X223612000Y-55868100D02*
X224356000Y-56612500D01*
G04 #@! TO.N,/rgb/RGB_LED_right_5*
X242816000Y-34575000D02*
X243060000Y-34330700D01*
X292675000Y-20287500D02*
X292675000Y-23219000D01*
X242662000Y-34575000D02*
X242816000Y-34575000D01*
X240725000Y-34575000D02*
X242662000Y-34575000D01*
G04 #@! TO.N,/rgb/RGB_LED_right_6*
X221675000Y-36480000D02*
X223612000Y-36480000D01*
X223612000Y-36480000D02*
X223612000Y-37548900D01*
X235525000Y-34575000D02*
X235525000Y-37548900D01*
G04 #@! TO.N,/RGB_DATA_SHIFTED_RIGHT*
X188617400Y-20867400D02*
X189000000Y-21250000D01*
X240725000Y-19907400D02*
X237902200Y-22730200D01*
X193932600Y-20298800D02*
X194535000Y-20298800D01*
X188617400Y-17772800D02*
X188617400Y-20867400D01*
X189802700Y-16587500D02*
X188617400Y-17772800D01*
X240725000Y-15525000D02*
X240725000Y-19907400D01*
X194535000Y-20298800D02*
X196966400Y-22730200D01*
G04 #@! TO.N,/power/RGB_SHIFTED_RIGHT*
X185450100Y-23537600D02*
X184862500Y-22950000D01*
X188212400Y-23537600D02*
X185450100Y-23537600D01*
X189000000Y-22750000D02*
X188212400Y-23537600D01*
G04 #@! TO.N,/rgb/RGB_LED_right_21*
X259775000Y-74580000D02*
X259775000Y-76935000D01*
X216475000Y-74580000D02*
X216475000Y-76947300D01*
G04 #@! TO.N,/rgb/RGB_LED_right_2*
X202625000Y-19335000D02*
X204562000Y-19335000D01*
X254575000Y-17430000D02*
X254575000Y-19939400D01*
X204562000Y-19370400D02*
X205129000Y-19937800D01*
X204562000Y-19335000D02*
X204562000Y-19370400D01*
G04 #@! TO.N,/rgb/RGB_LED_right_14*
X216475000Y-55530000D02*
X216475000Y-58000300D01*
X259775000Y-55530000D02*
X259775000Y-58000300D01*
G04 #@! TO.N,/rgb/RGB_LED_right_15*
X202625000Y-57435000D02*
X204562000Y-57435000D01*
X254575000Y-55530000D02*
X254575000Y-58603600D01*
X205486000Y-58359300D02*
X209526000Y-58359300D01*
X204562000Y-57435000D02*
X205486000Y-58359300D01*
G04 #@! TO.N,/rgb/RGB_LED_right_25*
X295056000Y-77437500D02*
X293120000Y-77437500D01*
X295056000Y-77437500D02*
X295056300Y-77437500D01*
X206280000Y-98776700D02*
X206280000Y-93964900D01*
X293120000Y-77437500D02*
X292623000Y-77934500D01*
X202100000Y-102823000D02*
X201603000Y-102326000D01*
X204530000Y-105664000D02*
X203335000Y-105664000D01*
X203335000Y-105664000D02*
X202100000Y-104429000D01*
X202100000Y-104429000D02*
X202100000Y-102823000D01*
X210841000Y-81254300D02*
X215568000Y-76527200D01*
X206280000Y-93964900D02*
X210841000Y-89404100D01*
X210841000Y-89404100D02*
X210841000Y-81254300D01*
G04 #@! TO.N,/rgb/RGB_LED_right_16*
X198362000Y-59161100D02*
X209461000Y-59161100D01*
X278825000Y-57435000D02*
X278825000Y-59254000D01*
X197425000Y-58224400D02*
X198362000Y-59161100D01*
X197425000Y-57435000D02*
X197425000Y-58224400D01*
G04 #@! TO.N,/rgb/RGB_LED_right_9*
X259884000Y-42025900D02*
X261803000Y-40106700D01*
X197425000Y-38385000D02*
X197425000Y-39165900D01*
X197425000Y-39165900D02*
X198252000Y-39993300D01*
X198252000Y-39993300D02*
X203854000Y-39993300D01*
X278825000Y-38385000D02*
X278825000Y-40106700D01*
X206879000Y-41416300D02*
X204708000Y-41416300D01*
X204708000Y-41416300D02*
X204529000Y-41236900D01*
G04 #@! TO.N,/power/RGB_FB_RIGHT*
X181250000Y-32962800D02*
X182131500Y-32081300D01*
X185750000Y-32819400D02*
X185099100Y-32168500D01*
X185712500Y-29500000D02*
X185126000Y-28913500D01*
X185750000Y-33000000D02*
X185750000Y-32819400D01*
X181250000Y-33000000D02*
X181250000Y-32962800D01*
G04 #@! TO.N,/rgb/RGB_LED_right_4*
X273625000Y-19335000D02*
X273625000Y-20741800D01*
X297875000Y-20287500D02*
X297875000Y-22326600D01*
G04 #@! TO.N,/rgb/RGB_LED_right_22*
X214266000Y-73647500D02*
X214266000Y-76506400D01*
X214266000Y-76506400D02*
X211857000Y-78915200D01*
X254575000Y-74580000D02*
X252638000Y-74580000D01*
X202625000Y-76485000D02*
X202625000Y-78915200D01*
X252526000Y-74692800D02*
X252406000Y-74692800D01*
X252638000Y-74580000D02*
X252526000Y-74692800D01*
G04 #@! TO.N,/rgb/RGB_LED_right_3*
X278825000Y-19335000D02*
X278825000Y-21347400D01*
X197425000Y-19335000D02*
X197425000Y-20812200D01*
X197425000Y-20812200D02*
X197960000Y-21347400D01*
G04 #@! TD*
M02*
