M48
; DRILL file KiCad 10.0.5 date 2026-09-23T16:28:02
; FORMAT={-:-/ absolute / metric / decimal}
; #@! TF.CreationDate,2026-09-23T16:28:02+09:00
; #@! TF.GenerationSoftware,Kicad,Pcbnew,10.0.5
; #@! TF.FileFunction,NonPlated,1,2,NPTH
FMAT,2
METRIC
; #@! TA.AperFunction,NonPlated,NPTH,ComponentDrill
T1C0.850
; #@! TA.AperFunction,NonPlated,NPTH,ComponentDrill
T2C1.800
; #@! TA.AperFunction,NonPlated,NPTH,ComponentDrill
T3C2.000
; #@! TA.AperFunction,NonPlated,NPTH,ComponentDrill
T4C2.200
; #@! TA.AperFunction,NonPlated,NPTH,ComponentDrill
T5C3.000
; #@! TA.AperFunction,NonPlated,NPTH,ComponentDrill
T6C3.050
; #@! TA.AperFunction,NonPlated,NPTH,ComponentDrill
T7C4.000
%
G90
G05
T1
X173.0Y-29.0
X173.0Y-32.0
T2
X189.32Y-99.323
X191.95Y-109.137
X208.337Y-96.693
X210.967Y-106.507
T3
X175.895Y-47.625
X175.895Y-65.722
X186.055Y-47.625
X186.055Y-65.722
X194.945Y-13.335
X194.945Y-32.385
X194.945Y-51.435
X194.945Y-70.485
X205.105Y-13.335
X205.105Y-32.385
X205.105Y-51.435
X205.105Y-70.485
X213.995Y-11.43
X213.995Y-30.48
X213.995Y-49.53
X213.995Y-68.58
X224.155Y-11.43
X224.155Y-30.48
X224.155Y-49.53
X224.155Y-68.58
X233.045Y-9.525
X233.045Y-28.575
X233.045Y-47.625
X233.045Y-66.675
X243.205Y-9.525
X243.205Y-28.575
X243.205Y-47.625
X243.205Y-66.675
X252.095Y-11.43
X252.095Y-30.48
X252.095Y-49.53
X252.095Y-68.58
X262.255Y-11.43
X262.255Y-30.48
X262.255Y-49.53
X262.255Y-68.58
X271.145Y-13.335
X271.145Y-32.385
X271.145Y-51.435
X271.145Y-70.485
X281.305Y-13.335
X281.305Y-32.385
X281.305Y-51.435
X281.305Y-70.485
X290.195Y-14.287
X292.576Y-33.337
X292.576Y-52.387
X292.576Y-71.438
X300.355Y-14.287
X302.736Y-33.337
X302.736Y-52.387
X302.736Y-71.438
T4
X181.907Y-35.508
X231.107Y-72.407
X304.907Y-60.107
T5
X177.165Y-45.085
X177.165Y-63.182
X183.515Y-42.545
X183.515Y-60.642
X187.545Y-92.699
X192.102Y-99.893
X193.725Y-115.762
X196.199Y-105.369
X196.215Y-10.795
X196.215Y-29.845
X196.215Y-48.895
X196.215Y-67.945
X202.565Y-8.255
X202.565Y-27.305
X202.565Y-46.355
X202.565Y-65.405
X206.562Y-90.069
X211.12Y-97.262
X212.742Y-113.131
X215.217Y-102.739
X215.265Y-8.89
X215.265Y-27.94
X215.265Y-46.99
X215.265Y-66.04
X221.615Y-6.35
X221.615Y-25.4
X221.615Y-44.45
X221.615Y-63.5
X234.315Y-6.985
X234.315Y-26.035
X234.315Y-45.085
X234.315Y-64.135
X240.665Y-4.445
X240.665Y-23.495
X240.665Y-42.545
X240.665Y-61.595
X253.365Y-8.89
X253.365Y-27.94
X253.365Y-46.99
X253.365Y-66.04
X259.715Y-6.35
X259.715Y-25.4
X259.715Y-44.45
X259.715Y-63.5
X272.415Y-10.795
X272.415Y-29.845
X272.415Y-48.895
X272.415Y-67.945
X278.765Y-8.255
X278.765Y-27.305
X278.765Y-46.355
X278.765Y-65.405
X291.465Y-11.747
X293.846Y-30.797
X293.846Y-49.847
X293.846Y-68.897
X297.815Y-9.207
X300.196Y-28.258
X300.196Y-47.307
X300.196Y-66.358
T6
X194.317Y-90.924
X200.476Y-113.913
X213.334Y-88.294
X219.494Y-111.283
T7
X179.596Y-94.868
X180.975Y-47.625
X180.975Y-65.722
X185.756Y-117.857
X190.635Y-104.23
X198.613Y-92.238
X200.025Y-13.335
X200.025Y-32.385
X200.025Y-51.435
X200.025Y-70.485
X204.773Y-115.227
X209.652Y-101.6
X219.075Y-11.43
X219.075Y-30.48
X219.075Y-49.53
X219.075Y-68.58
X238.125Y-9.525
X238.125Y-28.575
X238.125Y-47.625
X238.125Y-66.675
X257.175Y-11.43
X257.175Y-30.48
X257.175Y-49.53
X257.175Y-68.58
X276.225Y-13.335
X276.225Y-32.385
X276.225Y-51.435
X276.225Y-70.485
X295.275Y-14.287
X297.656Y-33.337
X297.656Y-52.387
X297.656Y-71.438
M30
