%TF.GenerationSoftware,KiCad,Pcbnew,10.0.5*%
%TF.CreationDate,2026-09-23T03:24:25+09:00*%
%TF.ProjectId,keyboard,6b657962-6f61-4726-942e-6b696361645f,rev?*%
%TF.SameCoordinates,Original*%
%TF.FileFunction,AssemblyDrawing,Top*%
%FSLAX46Y46*%
G04 Gerber Fmt 4.6, Leading zero omitted, Abs format (unit mm)*
G04 Created by KiCad (PCBNEW 10.0.5) date 2026-09-23 03:24:25*
%MOMM*%
%LPD*%
G01*
G04 APERTURE LIST*
%ADD10C,0.125000*%
%ADD11C,0.150000*%
%ADD12C,0.120000*%
%ADD13C,0.100000*%
%ADD14C,0.127000*%
G04 APERTURE END LIST*
D10*
X135014285Y-38506119D02*
X134680952Y-38029928D01*
X134442857Y-38506119D02*
X134442857Y-37506119D01*
X134442857Y-37506119D02*
X134823809Y-37506119D01*
X134823809Y-37506119D02*
X134919047Y-37553738D01*
X134919047Y-37553738D02*
X134966666Y-37601357D01*
X134966666Y-37601357D02*
X135014285Y-37696595D01*
X135014285Y-37696595D02*
X135014285Y-37839452D01*
X135014285Y-37839452D02*
X134966666Y-37934690D01*
X134966666Y-37934690D02*
X134919047Y-37982309D01*
X134919047Y-37982309D02*
X134823809Y-38029928D01*
X134823809Y-38029928D02*
X134442857Y-38029928D01*
X135204762Y-38601357D02*
X135966666Y-38601357D01*
X136776190Y-38506119D02*
X136442857Y-38029928D01*
X136204762Y-38506119D02*
X136204762Y-37506119D01*
X136204762Y-37506119D02*
X136585714Y-37506119D01*
X136585714Y-37506119D02*
X136680952Y-37553738D01*
X136680952Y-37553738D02*
X136728571Y-37601357D01*
X136728571Y-37601357D02*
X136776190Y-37696595D01*
X136776190Y-37696595D02*
X136776190Y-37839452D01*
X136776190Y-37839452D02*
X136728571Y-37934690D01*
X136728571Y-37934690D02*
X136680952Y-37982309D01*
X136680952Y-37982309D02*
X136585714Y-38029928D01*
X136585714Y-38029928D02*
X136204762Y-38029928D01*
X137728571Y-37553738D02*
X137633333Y-37506119D01*
X137633333Y-37506119D02*
X137490476Y-37506119D01*
X137490476Y-37506119D02*
X137347619Y-37553738D01*
X137347619Y-37553738D02*
X137252381Y-37648976D01*
X137252381Y-37648976D02*
X137204762Y-37744214D01*
X137204762Y-37744214D02*
X137157143Y-37934690D01*
X137157143Y-37934690D02*
X137157143Y-38077547D01*
X137157143Y-38077547D02*
X137204762Y-38268023D01*
X137204762Y-38268023D02*
X137252381Y-38363261D01*
X137252381Y-38363261D02*
X137347619Y-38458500D01*
X137347619Y-38458500D02*
X137490476Y-38506119D01*
X137490476Y-38506119D02*
X137585714Y-38506119D01*
X137585714Y-38506119D02*
X137728571Y-38458500D01*
X137728571Y-38458500D02*
X137776190Y-38410880D01*
X137776190Y-38410880D02*
X137776190Y-38077547D01*
X137776190Y-38077547D02*
X137585714Y-38077547D01*
X138538095Y-37982309D02*
X138680952Y-38029928D01*
X138680952Y-38029928D02*
X138728571Y-38077547D01*
X138728571Y-38077547D02*
X138776190Y-38172785D01*
X138776190Y-38172785D02*
X138776190Y-38315642D01*
X138776190Y-38315642D02*
X138728571Y-38410880D01*
X138728571Y-38410880D02*
X138680952Y-38458500D01*
X138680952Y-38458500D02*
X138585714Y-38506119D01*
X138585714Y-38506119D02*
X138204762Y-38506119D01*
X138204762Y-38506119D02*
X138204762Y-37506119D01*
X138204762Y-37506119D02*
X138538095Y-37506119D01*
X138538095Y-37506119D02*
X138633333Y-37553738D01*
X138633333Y-37553738D02*
X138680952Y-37601357D01*
X138680952Y-37601357D02*
X138728571Y-37696595D01*
X138728571Y-37696595D02*
X138728571Y-37791833D01*
X138728571Y-37791833D02*
X138680952Y-37887071D01*
X138680952Y-37887071D02*
X138633333Y-37934690D01*
X138633333Y-37934690D02*
X138538095Y-37982309D01*
X138538095Y-37982309D02*
X138204762Y-37982309D01*
X138966667Y-38601357D02*
X139728571Y-38601357D01*
X139966667Y-37982309D02*
X140300000Y-37982309D01*
X140442857Y-38506119D02*
X139966667Y-38506119D01*
X139966667Y-38506119D02*
X139966667Y-37506119D01*
X139966667Y-37506119D02*
X140442857Y-37506119D01*
X140871429Y-38506119D02*
X140871429Y-37506119D01*
X140871429Y-37506119D02*
X141442857Y-38506119D01*
X141442857Y-38506119D02*
X141442857Y-37506119D01*
X141680953Y-38601357D02*
X142442857Y-38601357D01*
X142680953Y-38506119D02*
X142680953Y-37506119D01*
X142680953Y-37506119D02*
X143061905Y-37506119D01*
X143061905Y-37506119D02*
X143157143Y-37553738D01*
X143157143Y-37553738D02*
X143204762Y-37601357D01*
X143204762Y-37601357D02*
X143252381Y-37696595D01*
X143252381Y-37696595D02*
X143252381Y-37839452D01*
X143252381Y-37839452D02*
X143204762Y-37934690D01*
X143204762Y-37934690D02*
X143157143Y-37982309D01*
X143157143Y-37982309D02*
X143061905Y-38029928D01*
X143061905Y-38029928D02*
X142680953Y-38029928D01*
X143680953Y-38506119D02*
X143680953Y-37506119D01*
X143680953Y-37506119D02*
X143919048Y-37506119D01*
X143919048Y-37506119D02*
X144061905Y-37553738D01*
X144061905Y-37553738D02*
X144157143Y-37648976D01*
X144157143Y-37648976D02*
X144204762Y-37744214D01*
X144204762Y-37744214D02*
X144252381Y-37934690D01*
X144252381Y-37934690D02*
X144252381Y-38077547D01*
X144252381Y-38077547D02*
X144204762Y-38268023D01*
X144204762Y-38268023D02*
X144157143Y-38363261D01*
X144157143Y-38363261D02*
X144061905Y-38458500D01*
X144061905Y-38458500D02*
X143919048Y-38506119D01*
X143919048Y-38506119D02*
X143680953Y-38506119D01*
X145204762Y-38506119D02*
X144633334Y-38506119D01*
X144919048Y-38506119D02*
X144919048Y-37506119D01*
X144919048Y-37506119D02*
X144823810Y-37648976D01*
X144823810Y-37648976D02*
X144728572Y-37744214D01*
X144728572Y-37744214D02*
X144633334Y-37791833D01*
X147410880Y-41714286D02*
X147458500Y-41761905D01*
X147458500Y-41761905D02*
X147506119Y-41904762D01*
X147506119Y-41904762D02*
X147506119Y-42000000D01*
X147506119Y-42000000D02*
X147458500Y-42142857D01*
X147458500Y-42142857D02*
X147363261Y-42238095D01*
X147363261Y-42238095D02*
X147268023Y-42285714D01*
X147268023Y-42285714D02*
X147077547Y-42333333D01*
X147077547Y-42333333D02*
X146934690Y-42333333D01*
X146934690Y-42333333D02*
X146744214Y-42285714D01*
X146744214Y-42285714D02*
X146648976Y-42238095D01*
X146648976Y-42238095D02*
X146553738Y-42142857D01*
X146553738Y-42142857D02*
X146506119Y-42000000D01*
X146506119Y-42000000D02*
X146506119Y-41904762D01*
X146506119Y-41904762D02*
X146553738Y-41761905D01*
X146553738Y-41761905D02*
X146601357Y-41714286D01*
X147601357Y-41523810D02*
X147601357Y-40761905D01*
X147506119Y-39952381D02*
X147029928Y-40285714D01*
X147506119Y-40523809D02*
X146506119Y-40523809D01*
X146506119Y-40523809D02*
X146506119Y-40142857D01*
X146506119Y-40142857D02*
X146553738Y-40047619D01*
X146553738Y-40047619D02*
X146601357Y-40000000D01*
X146601357Y-40000000D02*
X146696595Y-39952381D01*
X146696595Y-39952381D02*
X146839452Y-39952381D01*
X146839452Y-39952381D02*
X146934690Y-40000000D01*
X146934690Y-40000000D02*
X146982309Y-40047619D01*
X146982309Y-40047619D02*
X147029928Y-40142857D01*
X147029928Y-40142857D02*
X147029928Y-40523809D01*
X146553738Y-39000000D02*
X146506119Y-39095238D01*
X146506119Y-39095238D02*
X146506119Y-39238095D01*
X146506119Y-39238095D02*
X146553738Y-39380952D01*
X146553738Y-39380952D02*
X146648976Y-39476190D01*
X146648976Y-39476190D02*
X146744214Y-39523809D01*
X146744214Y-39523809D02*
X146934690Y-39571428D01*
X146934690Y-39571428D02*
X147077547Y-39571428D01*
X147077547Y-39571428D02*
X147268023Y-39523809D01*
X147268023Y-39523809D02*
X147363261Y-39476190D01*
X147363261Y-39476190D02*
X147458500Y-39380952D01*
X147458500Y-39380952D02*
X147506119Y-39238095D01*
X147506119Y-39238095D02*
X147506119Y-39142857D01*
X147506119Y-39142857D02*
X147458500Y-39000000D01*
X147458500Y-39000000D02*
X147410880Y-38952381D01*
X147410880Y-38952381D02*
X147077547Y-38952381D01*
X147077547Y-38952381D02*
X147077547Y-39142857D01*
X146982309Y-38190476D02*
X147029928Y-38047619D01*
X147029928Y-38047619D02*
X147077547Y-38000000D01*
X147077547Y-38000000D02*
X147172785Y-37952381D01*
X147172785Y-37952381D02*
X147315642Y-37952381D01*
X147315642Y-37952381D02*
X147410880Y-38000000D01*
X147410880Y-38000000D02*
X147458500Y-38047619D01*
X147458500Y-38047619D02*
X147506119Y-38142857D01*
X147506119Y-38142857D02*
X147506119Y-38523809D01*
X147506119Y-38523809D02*
X146506119Y-38523809D01*
X146506119Y-38523809D02*
X146506119Y-38190476D01*
X146506119Y-38190476D02*
X146553738Y-38095238D01*
X146553738Y-38095238D02*
X146601357Y-38047619D01*
X146601357Y-38047619D02*
X146696595Y-38000000D01*
X146696595Y-38000000D02*
X146791833Y-38000000D01*
X146791833Y-38000000D02*
X146887071Y-38047619D01*
X146887071Y-38047619D02*
X146934690Y-38095238D01*
X146934690Y-38095238D02*
X146982309Y-38190476D01*
X146982309Y-38190476D02*
X146982309Y-38523809D01*
X147601357Y-37761905D02*
X147601357Y-37000000D01*
X146506119Y-36571428D02*
X146506119Y-36380952D01*
X146506119Y-36380952D02*
X146553738Y-36285714D01*
X146553738Y-36285714D02*
X146648976Y-36190476D01*
X146648976Y-36190476D02*
X146839452Y-36142857D01*
X146839452Y-36142857D02*
X147172785Y-36142857D01*
X147172785Y-36142857D02*
X147363261Y-36190476D01*
X147363261Y-36190476D02*
X147458500Y-36285714D01*
X147458500Y-36285714D02*
X147506119Y-36380952D01*
X147506119Y-36380952D02*
X147506119Y-36571428D01*
X147506119Y-36571428D02*
X147458500Y-36666666D01*
X147458500Y-36666666D02*
X147363261Y-36761904D01*
X147363261Y-36761904D02*
X147172785Y-36809523D01*
X147172785Y-36809523D02*
X146839452Y-36809523D01*
X146839452Y-36809523D02*
X146648976Y-36761904D01*
X146648976Y-36761904D02*
X146553738Y-36666666D01*
X146553738Y-36666666D02*
X146506119Y-36571428D01*
X146506119Y-35714285D02*
X147315642Y-35714285D01*
X147315642Y-35714285D02*
X147410880Y-35666666D01*
X147410880Y-35666666D02*
X147458500Y-35619047D01*
X147458500Y-35619047D02*
X147506119Y-35523809D01*
X147506119Y-35523809D02*
X147506119Y-35333333D01*
X147506119Y-35333333D02*
X147458500Y-35238095D01*
X147458500Y-35238095D02*
X147410880Y-35190476D01*
X147410880Y-35190476D02*
X147315642Y-35142857D01*
X147315642Y-35142857D02*
X146506119Y-35142857D01*
X146506119Y-34809523D02*
X146506119Y-34238095D01*
X147506119Y-34523809D02*
X146506119Y-34523809D01*
X147506119Y-33380952D02*
X147506119Y-33952380D01*
X147506119Y-33666666D02*
X146506119Y-33666666D01*
X146506119Y-33666666D02*
X146648976Y-33761904D01*
X146648976Y-33761904D02*
X146744214Y-33857142D01*
X146744214Y-33857142D02*
X146791833Y-33952380D01*
X147601357Y-33190476D02*
X147601357Y-32428571D01*
X147506119Y-31666666D02*
X147506119Y-32238094D01*
X147506119Y-31952380D02*
X146506119Y-31952380D01*
X146506119Y-31952380D02*
X146648976Y-32047618D01*
X146648976Y-32047618D02*
X146744214Y-32142856D01*
X146744214Y-32142856D02*
X146791833Y-32238094D01*
X149910880Y-41714286D02*
X149958500Y-41761905D01*
X149958500Y-41761905D02*
X150006119Y-41904762D01*
X150006119Y-41904762D02*
X150006119Y-42000000D01*
X150006119Y-42000000D02*
X149958500Y-42142857D01*
X149958500Y-42142857D02*
X149863261Y-42238095D01*
X149863261Y-42238095D02*
X149768023Y-42285714D01*
X149768023Y-42285714D02*
X149577547Y-42333333D01*
X149577547Y-42333333D02*
X149434690Y-42333333D01*
X149434690Y-42333333D02*
X149244214Y-42285714D01*
X149244214Y-42285714D02*
X149148976Y-42238095D01*
X149148976Y-42238095D02*
X149053738Y-42142857D01*
X149053738Y-42142857D02*
X149006119Y-42000000D01*
X149006119Y-42000000D02*
X149006119Y-41904762D01*
X149006119Y-41904762D02*
X149053738Y-41761905D01*
X149053738Y-41761905D02*
X149101357Y-41714286D01*
X150101357Y-41523810D02*
X150101357Y-40761905D01*
X150006119Y-39952381D02*
X149529928Y-40285714D01*
X150006119Y-40523809D02*
X149006119Y-40523809D01*
X149006119Y-40523809D02*
X149006119Y-40142857D01*
X149006119Y-40142857D02*
X149053738Y-40047619D01*
X149053738Y-40047619D02*
X149101357Y-40000000D01*
X149101357Y-40000000D02*
X149196595Y-39952381D01*
X149196595Y-39952381D02*
X149339452Y-39952381D01*
X149339452Y-39952381D02*
X149434690Y-40000000D01*
X149434690Y-40000000D02*
X149482309Y-40047619D01*
X149482309Y-40047619D02*
X149529928Y-40142857D01*
X149529928Y-40142857D02*
X149529928Y-40523809D01*
X149053738Y-39000000D02*
X149006119Y-39095238D01*
X149006119Y-39095238D02*
X149006119Y-39238095D01*
X149006119Y-39238095D02*
X149053738Y-39380952D01*
X149053738Y-39380952D02*
X149148976Y-39476190D01*
X149148976Y-39476190D02*
X149244214Y-39523809D01*
X149244214Y-39523809D02*
X149434690Y-39571428D01*
X149434690Y-39571428D02*
X149577547Y-39571428D01*
X149577547Y-39571428D02*
X149768023Y-39523809D01*
X149768023Y-39523809D02*
X149863261Y-39476190D01*
X149863261Y-39476190D02*
X149958500Y-39380952D01*
X149958500Y-39380952D02*
X150006119Y-39238095D01*
X150006119Y-39238095D02*
X150006119Y-39142857D01*
X150006119Y-39142857D02*
X149958500Y-39000000D01*
X149958500Y-39000000D02*
X149910880Y-38952381D01*
X149910880Y-38952381D02*
X149577547Y-38952381D01*
X149577547Y-38952381D02*
X149577547Y-39142857D01*
X149482309Y-38190476D02*
X149529928Y-38047619D01*
X149529928Y-38047619D02*
X149577547Y-38000000D01*
X149577547Y-38000000D02*
X149672785Y-37952381D01*
X149672785Y-37952381D02*
X149815642Y-37952381D01*
X149815642Y-37952381D02*
X149910880Y-38000000D01*
X149910880Y-38000000D02*
X149958500Y-38047619D01*
X149958500Y-38047619D02*
X150006119Y-38142857D01*
X150006119Y-38142857D02*
X150006119Y-38523809D01*
X150006119Y-38523809D02*
X149006119Y-38523809D01*
X149006119Y-38523809D02*
X149006119Y-38190476D01*
X149006119Y-38190476D02*
X149053738Y-38095238D01*
X149053738Y-38095238D02*
X149101357Y-38047619D01*
X149101357Y-38047619D02*
X149196595Y-38000000D01*
X149196595Y-38000000D02*
X149291833Y-38000000D01*
X149291833Y-38000000D02*
X149387071Y-38047619D01*
X149387071Y-38047619D02*
X149434690Y-38095238D01*
X149434690Y-38095238D02*
X149482309Y-38190476D01*
X149482309Y-38190476D02*
X149482309Y-38523809D01*
X150101357Y-37761905D02*
X150101357Y-37000000D01*
X149006119Y-36571428D02*
X149006119Y-36380952D01*
X149006119Y-36380952D02*
X149053738Y-36285714D01*
X149053738Y-36285714D02*
X149148976Y-36190476D01*
X149148976Y-36190476D02*
X149339452Y-36142857D01*
X149339452Y-36142857D02*
X149672785Y-36142857D01*
X149672785Y-36142857D02*
X149863261Y-36190476D01*
X149863261Y-36190476D02*
X149958500Y-36285714D01*
X149958500Y-36285714D02*
X150006119Y-36380952D01*
X150006119Y-36380952D02*
X150006119Y-36571428D01*
X150006119Y-36571428D02*
X149958500Y-36666666D01*
X149958500Y-36666666D02*
X149863261Y-36761904D01*
X149863261Y-36761904D02*
X149672785Y-36809523D01*
X149672785Y-36809523D02*
X149339452Y-36809523D01*
X149339452Y-36809523D02*
X149148976Y-36761904D01*
X149148976Y-36761904D02*
X149053738Y-36666666D01*
X149053738Y-36666666D02*
X149006119Y-36571428D01*
X149006119Y-35714285D02*
X149815642Y-35714285D01*
X149815642Y-35714285D02*
X149910880Y-35666666D01*
X149910880Y-35666666D02*
X149958500Y-35619047D01*
X149958500Y-35619047D02*
X150006119Y-35523809D01*
X150006119Y-35523809D02*
X150006119Y-35333333D01*
X150006119Y-35333333D02*
X149958500Y-35238095D01*
X149958500Y-35238095D02*
X149910880Y-35190476D01*
X149910880Y-35190476D02*
X149815642Y-35142857D01*
X149815642Y-35142857D02*
X149006119Y-35142857D01*
X149006119Y-34809523D02*
X149006119Y-34238095D01*
X150006119Y-34523809D02*
X149006119Y-34523809D01*
X149101357Y-33952380D02*
X149053738Y-33904761D01*
X149053738Y-33904761D02*
X149006119Y-33809523D01*
X149006119Y-33809523D02*
X149006119Y-33571428D01*
X149006119Y-33571428D02*
X149053738Y-33476190D01*
X149053738Y-33476190D02*
X149101357Y-33428571D01*
X149101357Y-33428571D02*
X149196595Y-33380952D01*
X149196595Y-33380952D02*
X149291833Y-33380952D01*
X149291833Y-33380952D02*
X149434690Y-33428571D01*
X149434690Y-33428571D02*
X150006119Y-33999999D01*
X150006119Y-33999999D02*
X150006119Y-33380952D01*
X150101357Y-33190476D02*
X150101357Y-32428571D01*
X150006119Y-31666666D02*
X150006119Y-32238094D01*
X150006119Y-31952380D02*
X149006119Y-31952380D01*
X149006119Y-31952380D02*
X149148976Y-32047618D01*
X149148976Y-32047618D02*
X149244214Y-32142856D01*
X149244214Y-32142856D02*
X149291833Y-32238094D01*
X143952380Y-31756119D02*
X143476190Y-31756119D01*
X143476190Y-31756119D02*
X143476190Y-30756119D01*
X144047619Y-31851357D02*
X144809523Y-31851357D01*
X145619047Y-31756119D02*
X145285714Y-31279928D01*
X145047619Y-31756119D02*
X145047619Y-30756119D01*
X145047619Y-30756119D02*
X145428571Y-30756119D01*
X145428571Y-30756119D02*
X145523809Y-30803738D01*
X145523809Y-30803738D02*
X145571428Y-30851357D01*
X145571428Y-30851357D02*
X145619047Y-30946595D01*
X145619047Y-30946595D02*
X145619047Y-31089452D01*
X145619047Y-31089452D02*
X145571428Y-31184690D01*
X145571428Y-31184690D02*
X145523809Y-31232309D01*
X145523809Y-31232309D02*
X145428571Y-31279928D01*
X145428571Y-31279928D02*
X145047619Y-31279928D01*
X146571428Y-30803738D02*
X146476190Y-30756119D01*
X146476190Y-30756119D02*
X146333333Y-30756119D01*
X146333333Y-30756119D02*
X146190476Y-30803738D01*
X146190476Y-30803738D02*
X146095238Y-30898976D01*
X146095238Y-30898976D02*
X146047619Y-30994214D01*
X146047619Y-30994214D02*
X146000000Y-31184690D01*
X146000000Y-31184690D02*
X146000000Y-31327547D01*
X146000000Y-31327547D02*
X146047619Y-31518023D01*
X146047619Y-31518023D02*
X146095238Y-31613261D01*
X146095238Y-31613261D02*
X146190476Y-31708500D01*
X146190476Y-31708500D02*
X146333333Y-31756119D01*
X146333333Y-31756119D02*
X146428571Y-31756119D01*
X146428571Y-31756119D02*
X146571428Y-31708500D01*
X146571428Y-31708500D02*
X146619047Y-31660880D01*
X146619047Y-31660880D02*
X146619047Y-31327547D01*
X146619047Y-31327547D02*
X146428571Y-31327547D01*
X147380952Y-31232309D02*
X147523809Y-31279928D01*
X147523809Y-31279928D02*
X147571428Y-31327547D01*
X147571428Y-31327547D02*
X147619047Y-31422785D01*
X147619047Y-31422785D02*
X147619047Y-31565642D01*
X147619047Y-31565642D02*
X147571428Y-31660880D01*
X147571428Y-31660880D02*
X147523809Y-31708500D01*
X147523809Y-31708500D02*
X147428571Y-31756119D01*
X147428571Y-31756119D02*
X147047619Y-31756119D01*
X147047619Y-31756119D02*
X147047619Y-30756119D01*
X147047619Y-30756119D02*
X147380952Y-30756119D01*
X147380952Y-30756119D02*
X147476190Y-30803738D01*
X147476190Y-30803738D02*
X147523809Y-30851357D01*
X147523809Y-30851357D02*
X147571428Y-30946595D01*
X147571428Y-30946595D02*
X147571428Y-31041833D01*
X147571428Y-31041833D02*
X147523809Y-31137071D01*
X147523809Y-31137071D02*
X147476190Y-31184690D01*
X147476190Y-31184690D02*
X147380952Y-31232309D01*
X147380952Y-31232309D02*
X147047619Y-31232309D01*
X148571428Y-31756119D02*
X148000000Y-31756119D01*
X148285714Y-31756119D02*
X148285714Y-30756119D01*
X148285714Y-30756119D02*
X148190476Y-30898976D01*
X148190476Y-30898976D02*
X148095238Y-30994214D01*
X148095238Y-30994214D02*
X148000000Y-31041833D01*
D11*
X143357143Y-33554819D02*
X143357143Y-34364342D01*
X143357143Y-34364342D02*
X143404762Y-34459580D01*
X143404762Y-34459580D02*
X143452381Y-34507200D01*
X143452381Y-34507200D02*
X143547619Y-34554819D01*
X143547619Y-34554819D02*
X143738095Y-34554819D01*
X143738095Y-34554819D02*
X143833333Y-34507200D01*
X143833333Y-34507200D02*
X143880952Y-34459580D01*
X143880952Y-34459580D02*
X143928571Y-34364342D01*
X143928571Y-34364342D02*
X143928571Y-33554819D01*
X144166667Y-34650057D02*
X144928571Y-34650057D01*
X145738095Y-34554819D02*
X145404762Y-34078628D01*
X145166667Y-34554819D02*
X145166667Y-33554819D01*
X145166667Y-33554819D02*
X145547619Y-33554819D01*
X145547619Y-33554819D02*
X145642857Y-33602438D01*
X145642857Y-33602438D02*
X145690476Y-33650057D01*
X145690476Y-33650057D02*
X145738095Y-33745295D01*
X145738095Y-33745295D02*
X145738095Y-33888152D01*
X145738095Y-33888152D02*
X145690476Y-33983390D01*
X145690476Y-33983390D02*
X145642857Y-34031009D01*
X145642857Y-34031009D02*
X145547619Y-34078628D01*
X145547619Y-34078628D02*
X145166667Y-34078628D01*
X146690476Y-33602438D02*
X146595238Y-33554819D01*
X146595238Y-33554819D02*
X146452381Y-33554819D01*
X146452381Y-33554819D02*
X146309524Y-33602438D01*
X146309524Y-33602438D02*
X146214286Y-33697676D01*
X146214286Y-33697676D02*
X146166667Y-33792914D01*
X146166667Y-33792914D02*
X146119048Y-33983390D01*
X146119048Y-33983390D02*
X146119048Y-34126247D01*
X146119048Y-34126247D02*
X146166667Y-34316723D01*
X146166667Y-34316723D02*
X146214286Y-34411961D01*
X146214286Y-34411961D02*
X146309524Y-34507200D01*
X146309524Y-34507200D02*
X146452381Y-34554819D01*
X146452381Y-34554819D02*
X146547619Y-34554819D01*
X146547619Y-34554819D02*
X146690476Y-34507200D01*
X146690476Y-34507200D02*
X146738095Y-34459580D01*
X146738095Y-34459580D02*
X146738095Y-34126247D01*
X146738095Y-34126247D02*
X146547619Y-34126247D01*
X147500000Y-34031009D02*
X147642857Y-34078628D01*
X147642857Y-34078628D02*
X147690476Y-34126247D01*
X147690476Y-34126247D02*
X147738095Y-34221485D01*
X147738095Y-34221485D02*
X147738095Y-34364342D01*
X147738095Y-34364342D02*
X147690476Y-34459580D01*
X147690476Y-34459580D02*
X147642857Y-34507200D01*
X147642857Y-34507200D02*
X147547619Y-34554819D01*
X147547619Y-34554819D02*
X147166667Y-34554819D01*
X147166667Y-34554819D02*
X147166667Y-33554819D01*
X147166667Y-33554819D02*
X147500000Y-33554819D01*
X147500000Y-33554819D02*
X147595238Y-33602438D01*
X147595238Y-33602438D02*
X147642857Y-33650057D01*
X147642857Y-33650057D02*
X147690476Y-33745295D01*
X147690476Y-33745295D02*
X147690476Y-33840533D01*
X147690476Y-33840533D02*
X147642857Y-33935771D01*
X147642857Y-33935771D02*
X147595238Y-33983390D01*
X147595238Y-33983390D02*
X147500000Y-34031009D01*
X147500000Y-34031009D02*
X147166667Y-34031009D01*
X148690476Y-34554819D02*
X148119048Y-34554819D01*
X148404762Y-34554819D02*
X148404762Y-33554819D01*
X148404762Y-33554819D02*
X148309524Y-33697676D01*
X148309524Y-33697676D02*
X148214286Y-33792914D01*
X148214286Y-33792914D02*
X148119048Y-33840533D01*
D10*
X141410880Y-39990476D02*
X141458500Y-40038095D01*
X141458500Y-40038095D02*
X141506119Y-40180952D01*
X141506119Y-40180952D02*
X141506119Y-40276190D01*
X141506119Y-40276190D02*
X141458500Y-40419047D01*
X141458500Y-40419047D02*
X141363261Y-40514285D01*
X141363261Y-40514285D02*
X141268023Y-40561904D01*
X141268023Y-40561904D02*
X141077547Y-40609523D01*
X141077547Y-40609523D02*
X140934690Y-40609523D01*
X140934690Y-40609523D02*
X140744214Y-40561904D01*
X140744214Y-40561904D02*
X140648976Y-40514285D01*
X140648976Y-40514285D02*
X140553738Y-40419047D01*
X140553738Y-40419047D02*
X140506119Y-40276190D01*
X140506119Y-40276190D02*
X140506119Y-40180952D01*
X140506119Y-40180952D02*
X140553738Y-40038095D01*
X140553738Y-40038095D02*
X140601357Y-39990476D01*
X141601357Y-39800000D02*
X141601357Y-39038095D01*
X141506119Y-38228571D02*
X141029928Y-38561904D01*
X141506119Y-38799999D02*
X140506119Y-38799999D01*
X140506119Y-38799999D02*
X140506119Y-38419047D01*
X140506119Y-38419047D02*
X140553738Y-38323809D01*
X140553738Y-38323809D02*
X140601357Y-38276190D01*
X140601357Y-38276190D02*
X140696595Y-38228571D01*
X140696595Y-38228571D02*
X140839452Y-38228571D01*
X140839452Y-38228571D02*
X140934690Y-38276190D01*
X140934690Y-38276190D02*
X140982309Y-38323809D01*
X140982309Y-38323809D02*
X141029928Y-38419047D01*
X141029928Y-38419047D02*
X141029928Y-38799999D01*
X140553738Y-37276190D02*
X140506119Y-37371428D01*
X140506119Y-37371428D02*
X140506119Y-37514285D01*
X140506119Y-37514285D02*
X140553738Y-37657142D01*
X140553738Y-37657142D02*
X140648976Y-37752380D01*
X140648976Y-37752380D02*
X140744214Y-37799999D01*
X140744214Y-37799999D02*
X140934690Y-37847618D01*
X140934690Y-37847618D02*
X141077547Y-37847618D01*
X141077547Y-37847618D02*
X141268023Y-37799999D01*
X141268023Y-37799999D02*
X141363261Y-37752380D01*
X141363261Y-37752380D02*
X141458500Y-37657142D01*
X141458500Y-37657142D02*
X141506119Y-37514285D01*
X141506119Y-37514285D02*
X141506119Y-37419047D01*
X141506119Y-37419047D02*
X141458500Y-37276190D01*
X141458500Y-37276190D02*
X141410880Y-37228571D01*
X141410880Y-37228571D02*
X141077547Y-37228571D01*
X141077547Y-37228571D02*
X141077547Y-37419047D01*
X140982309Y-36466666D02*
X141029928Y-36323809D01*
X141029928Y-36323809D02*
X141077547Y-36276190D01*
X141077547Y-36276190D02*
X141172785Y-36228571D01*
X141172785Y-36228571D02*
X141315642Y-36228571D01*
X141315642Y-36228571D02*
X141410880Y-36276190D01*
X141410880Y-36276190D02*
X141458500Y-36323809D01*
X141458500Y-36323809D02*
X141506119Y-36419047D01*
X141506119Y-36419047D02*
X141506119Y-36799999D01*
X141506119Y-36799999D02*
X140506119Y-36799999D01*
X140506119Y-36799999D02*
X140506119Y-36466666D01*
X140506119Y-36466666D02*
X140553738Y-36371428D01*
X140553738Y-36371428D02*
X140601357Y-36323809D01*
X140601357Y-36323809D02*
X140696595Y-36276190D01*
X140696595Y-36276190D02*
X140791833Y-36276190D01*
X140791833Y-36276190D02*
X140887071Y-36323809D01*
X140887071Y-36323809D02*
X140934690Y-36371428D01*
X140934690Y-36371428D02*
X140982309Y-36466666D01*
X140982309Y-36466666D02*
X140982309Y-36799999D01*
X141601357Y-36038095D02*
X141601357Y-35276190D01*
X141506119Y-35038094D02*
X140506119Y-35038094D01*
X141506119Y-34561904D02*
X140506119Y-34561904D01*
X140506119Y-34561904D02*
X141506119Y-33990476D01*
X141506119Y-33990476D02*
X140506119Y-33990476D01*
X141506119Y-32990476D02*
X141506119Y-33561904D01*
X141506119Y-33276190D02*
X140506119Y-33276190D01*
X140506119Y-33276190D02*
X140648976Y-33371428D01*
X140648976Y-33371428D02*
X140744214Y-33466666D01*
X140744214Y-33466666D02*
X140791833Y-33561904D01*
X141357142Y-38506119D02*
X141023809Y-38029928D01*
X140785714Y-38506119D02*
X140785714Y-37506119D01*
X140785714Y-37506119D02*
X141166666Y-37506119D01*
X141166666Y-37506119D02*
X141261904Y-37553738D01*
X141261904Y-37553738D02*
X141309523Y-37601357D01*
X141309523Y-37601357D02*
X141357142Y-37696595D01*
X141357142Y-37696595D02*
X141357142Y-37839452D01*
X141357142Y-37839452D02*
X141309523Y-37934690D01*
X141309523Y-37934690D02*
X141261904Y-37982309D01*
X141261904Y-37982309D02*
X141166666Y-38029928D01*
X141166666Y-38029928D02*
X140785714Y-38029928D01*
X141547619Y-38601357D02*
X142309523Y-38601357D01*
X143119047Y-38506119D02*
X142785714Y-38029928D01*
X142547619Y-38506119D02*
X142547619Y-37506119D01*
X142547619Y-37506119D02*
X142928571Y-37506119D01*
X142928571Y-37506119D02*
X143023809Y-37553738D01*
X143023809Y-37553738D02*
X143071428Y-37601357D01*
X143071428Y-37601357D02*
X143119047Y-37696595D01*
X143119047Y-37696595D02*
X143119047Y-37839452D01*
X143119047Y-37839452D02*
X143071428Y-37934690D01*
X143071428Y-37934690D02*
X143023809Y-37982309D01*
X143023809Y-37982309D02*
X142928571Y-38029928D01*
X142928571Y-38029928D02*
X142547619Y-38029928D01*
X144071428Y-37553738D02*
X143976190Y-37506119D01*
X143976190Y-37506119D02*
X143833333Y-37506119D01*
X143833333Y-37506119D02*
X143690476Y-37553738D01*
X143690476Y-37553738D02*
X143595238Y-37648976D01*
X143595238Y-37648976D02*
X143547619Y-37744214D01*
X143547619Y-37744214D02*
X143500000Y-37934690D01*
X143500000Y-37934690D02*
X143500000Y-38077547D01*
X143500000Y-38077547D02*
X143547619Y-38268023D01*
X143547619Y-38268023D02*
X143595238Y-38363261D01*
X143595238Y-38363261D02*
X143690476Y-38458500D01*
X143690476Y-38458500D02*
X143833333Y-38506119D01*
X143833333Y-38506119D02*
X143928571Y-38506119D01*
X143928571Y-38506119D02*
X144071428Y-38458500D01*
X144071428Y-38458500D02*
X144119047Y-38410880D01*
X144119047Y-38410880D02*
X144119047Y-38077547D01*
X144119047Y-38077547D02*
X143928571Y-38077547D01*
X144880952Y-37982309D02*
X145023809Y-38029928D01*
X145023809Y-38029928D02*
X145071428Y-38077547D01*
X145071428Y-38077547D02*
X145119047Y-38172785D01*
X145119047Y-38172785D02*
X145119047Y-38315642D01*
X145119047Y-38315642D02*
X145071428Y-38410880D01*
X145071428Y-38410880D02*
X145023809Y-38458500D01*
X145023809Y-38458500D02*
X144928571Y-38506119D01*
X144928571Y-38506119D02*
X144547619Y-38506119D01*
X144547619Y-38506119D02*
X144547619Y-37506119D01*
X144547619Y-37506119D02*
X144880952Y-37506119D01*
X144880952Y-37506119D02*
X144976190Y-37553738D01*
X144976190Y-37553738D02*
X145023809Y-37601357D01*
X145023809Y-37601357D02*
X145071428Y-37696595D01*
X145071428Y-37696595D02*
X145071428Y-37791833D01*
X145071428Y-37791833D02*
X145023809Y-37887071D01*
X145023809Y-37887071D02*
X144976190Y-37934690D01*
X144976190Y-37934690D02*
X144880952Y-37982309D01*
X144880952Y-37982309D02*
X144547619Y-37982309D01*
X145309524Y-38601357D02*
X146071428Y-38601357D01*
X146642857Y-37982309D02*
X146309524Y-37982309D01*
X146309524Y-38506119D02*
X146309524Y-37506119D01*
X146309524Y-37506119D02*
X146785714Y-37506119D01*
X147500000Y-37982309D02*
X147642857Y-38029928D01*
X147642857Y-38029928D02*
X147690476Y-38077547D01*
X147690476Y-38077547D02*
X147738095Y-38172785D01*
X147738095Y-38172785D02*
X147738095Y-38315642D01*
X147738095Y-38315642D02*
X147690476Y-38410880D01*
X147690476Y-38410880D02*
X147642857Y-38458500D01*
X147642857Y-38458500D02*
X147547619Y-38506119D01*
X147547619Y-38506119D02*
X147166667Y-38506119D01*
X147166667Y-38506119D02*
X147166667Y-37506119D01*
X147166667Y-37506119D02*
X147500000Y-37506119D01*
X147500000Y-37506119D02*
X147595238Y-37553738D01*
X147595238Y-37553738D02*
X147642857Y-37601357D01*
X147642857Y-37601357D02*
X147690476Y-37696595D01*
X147690476Y-37696595D02*
X147690476Y-37791833D01*
X147690476Y-37791833D02*
X147642857Y-37887071D01*
X147642857Y-37887071D02*
X147595238Y-37934690D01*
X147595238Y-37934690D02*
X147500000Y-37982309D01*
X147500000Y-37982309D02*
X147166667Y-37982309D01*
X147928572Y-38601357D02*
X148690476Y-38601357D01*
X148785715Y-37506119D02*
X149357143Y-37506119D01*
X149071429Y-38506119D02*
X149071429Y-37506119D01*
X149880953Y-37506119D02*
X150071429Y-37506119D01*
X150071429Y-37506119D02*
X150166667Y-37553738D01*
X150166667Y-37553738D02*
X150261905Y-37648976D01*
X150261905Y-37648976D02*
X150309524Y-37839452D01*
X150309524Y-37839452D02*
X150309524Y-38172785D01*
X150309524Y-38172785D02*
X150261905Y-38363261D01*
X150261905Y-38363261D02*
X150166667Y-38458500D01*
X150166667Y-38458500D02*
X150071429Y-38506119D01*
X150071429Y-38506119D02*
X149880953Y-38506119D01*
X149880953Y-38506119D02*
X149785715Y-38458500D01*
X149785715Y-38458500D02*
X149690477Y-38363261D01*
X149690477Y-38363261D02*
X149642858Y-38172785D01*
X149642858Y-38172785D02*
X149642858Y-37839452D01*
X149642858Y-37839452D02*
X149690477Y-37648976D01*
X149690477Y-37648976D02*
X149785715Y-37553738D01*
X149785715Y-37553738D02*
X149880953Y-37506119D01*
X150738096Y-38506119D02*
X150738096Y-37506119D01*
X150738096Y-37506119D02*
X151119048Y-37506119D01*
X151119048Y-37506119D02*
X151214286Y-37553738D01*
X151214286Y-37553738D02*
X151261905Y-37601357D01*
X151261905Y-37601357D02*
X151309524Y-37696595D01*
X151309524Y-37696595D02*
X151309524Y-37839452D01*
X151309524Y-37839452D02*
X151261905Y-37934690D01*
X151261905Y-37934690D02*
X151214286Y-37982309D01*
X151214286Y-37982309D02*
X151119048Y-38029928D01*
X151119048Y-38029928D02*
X150738096Y-38029928D01*
X152261905Y-38506119D02*
X151690477Y-38506119D01*
X151976191Y-38506119D02*
X151976191Y-37506119D01*
X151976191Y-37506119D02*
X151880953Y-37648976D01*
X151880953Y-37648976D02*
X151785715Y-37744214D01*
X151785715Y-37744214D02*
X151690477Y-37791833D01*
D11*
X136976190Y-30754819D02*
X136976190Y-31564342D01*
X136976190Y-31564342D02*
X137023809Y-31659580D01*
X137023809Y-31659580D02*
X137071428Y-31707200D01*
X137071428Y-31707200D02*
X137166666Y-31754819D01*
X137166666Y-31754819D02*
X137357142Y-31754819D01*
X137357142Y-31754819D02*
X137452380Y-31707200D01*
X137452380Y-31707200D02*
X137499999Y-31659580D01*
X137499999Y-31659580D02*
X137547618Y-31564342D01*
X137547618Y-31564342D02*
X137547618Y-30754819D01*
X137785714Y-31850057D02*
X138547618Y-31850057D01*
X139261904Y-31754819D02*
X138785714Y-31754819D01*
X138785714Y-31754819D02*
X138785714Y-30754819D01*
X139547619Y-31707200D02*
X139690476Y-31754819D01*
X139690476Y-31754819D02*
X139928571Y-31754819D01*
X139928571Y-31754819D02*
X140023809Y-31707200D01*
X140023809Y-31707200D02*
X140071428Y-31659580D01*
X140071428Y-31659580D02*
X140119047Y-31564342D01*
X140119047Y-31564342D02*
X140119047Y-31469104D01*
X140119047Y-31469104D02*
X140071428Y-31373866D01*
X140071428Y-31373866D02*
X140023809Y-31326247D01*
X140023809Y-31326247D02*
X139928571Y-31278628D01*
X139928571Y-31278628D02*
X139738095Y-31231009D01*
X139738095Y-31231009D02*
X139642857Y-31183390D01*
X139642857Y-31183390D02*
X139595238Y-31135771D01*
X139595238Y-31135771D02*
X139547619Y-31040533D01*
X139547619Y-31040533D02*
X139547619Y-30945295D01*
X139547619Y-30945295D02*
X139595238Y-30850057D01*
X139595238Y-30850057D02*
X139642857Y-30802438D01*
X139642857Y-30802438D02*
X139738095Y-30754819D01*
X139738095Y-30754819D02*
X139976190Y-30754819D01*
X139976190Y-30754819D02*
X140119047Y-30802438D01*
X141071428Y-31754819D02*
X140500000Y-31754819D01*
X140785714Y-31754819D02*
X140785714Y-30754819D01*
X140785714Y-30754819D02*
X140690476Y-30897676D01*
X140690476Y-30897676D02*
X140595238Y-30992914D01*
X140595238Y-30992914D02*
X140500000Y-31040533D01*
D10*
X134333332Y-36006119D02*
X133999999Y-35529928D01*
X133761904Y-36006119D02*
X133761904Y-35006119D01*
X133761904Y-35006119D02*
X134142856Y-35006119D01*
X134142856Y-35006119D02*
X134238094Y-35053738D01*
X134238094Y-35053738D02*
X134285713Y-35101357D01*
X134285713Y-35101357D02*
X134333332Y-35196595D01*
X134333332Y-35196595D02*
X134333332Y-35339452D01*
X134333332Y-35339452D02*
X134285713Y-35434690D01*
X134285713Y-35434690D02*
X134238094Y-35482309D01*
X134238094Y-35482309D02*
X134142856Y-35529928D01*
X134142856Y-35529928D02*
X133761904Y-35529928D01*
X134523809Y-36101357D02*
X135285713Y-36101357D01*
X136095237Y-36006119D02*
X135761904Y-35529928D01*
X135523809Y-36006119D02*
X135523809Y-35006119D01*
X135523809Y-35006119D02*
X135904761Y-35006119D01*
X135904761Y-35006119D02*
X135999999Y-35053738D01*
X135999999Y-35053738D02*
X136047618Y-35101357D01*
X136047618Y-35101357D02*
X136095237Y-35196595D01*
X136095237Y-35196595D02*
X136095237Y-35339452D01*
X136095237Y-35339452D02*
X136047618Y-35434690D01*
X136047618Y-35434690D02*
X135999999Y-35482309D01*
X135999999Y-35482309D02*
X135904761Y-35529928D01*
X135904761Y-35529928D02*
X135523809Y-35529928D01*
X137047618Y-35053738D02*
X136952380Y-35006119D01*
X136952380Y-35006119D02*
X136809523Y-35006119D01*
X136809523Y-35006119D02*
X136666666Y-35053738D01*
X136666666Y-35053738D02*
X136571428Y-35148976D01*
X136571428Y-35148976D02*
X136523809Y-35244214D01*
X136523809Y-35244214D02*
X136476190Y-35434690D01*
X136476190Y-35434690D02*
X136476190Y-35577547D01*
X136476190Y-35577547D02*
X136523809Y-35768023D01*
X136523809Y-35768023D02*
X136571428Y-35863261D01*
X136571428Y-35863261D02*
X136666666Y-35958500D01*
X136666666Y-35958500D02*
X136809523Y-36006119D01*
X136809523Y-36006119D02*
X136904761Y-36006119D01*
X136904761Y-36006119D02*
X137047618Y-35958500D01*
X137047618Y-35958500D02*
X137095237Y-35910880D01*
X137095237Y-35910880D02*
X137095237Y-35577547D01*
X137095237Y-35577547D02*
X136904761Y-35577547D01*
X137857142Y-35482309D02*
X137999999Y-35529928D01*
X137999999Y-35529928D02*
X138047618Y-35577547D01*
X138047618Y-35577547D02*
X138095237Y-35672785D01*
X138095237Y-35672785D02*
X138095237Y-35815642D01*
X138095237Y-35815642D02*
X138047618Y-35910880D01*
X138047618Y-35910880D02*
X137999999Y-35958500D01*
X137999999Y-35958500D02*
X137904761Y-36006119D01*
X137904761Y-36006119D02*
X137523809Y-36006119D01*
X137523809Y-36006119D02*
X137523809Y-35006119D01*
X137523809Y-35006119D02*
X137857142Y-35006119D01*
X137857142Y-35006119D02*
X137952380Y-35053738D01*
X137952380Y-35053738D02*
X137999999Y-35101357D01*
X137999999Y-35101357D02*
X138047618Y-35196595D01*
X138047618Y-35196595D02*
X138047618Y-35291833D01*
X138047618Y-35291833D02*
X137999999Y-35387071D01*
X137999999Y-35387071D02*
X137952380Y-35434690D01*
X137952380Y-35434690D02*
X137857142Y-35482309D01*
X137857142Y-35482309D02*
X137523809Y-35482309D01*
X138285714Y-36101357D02*
X139047618Y-36101357D01*
X139285714Y-36006119D02*
X139285714Y-35006119D01*
X139285714Y-35006119D02*
X139523809Y-35006119D01*
X139523809Y-35006119D02*
X139666666Y-35053738D01*
X139666666Y-35053738D02*
X139761904Y-35148976D01*
X139761904Y-35148976D02*
X139809523Y-35244214D01*
X139809523Y-35244214D02*
X139857142Y-35434690D01*
X139857142Y-35434690D02*
X139857142Y-35577547D01*
X139857142Y-35577547D02*
X139809523Y-35768023D01*
X139809523Y-35768023D02*
X139761904Y-35863261D01*
X139761904Y-35863261D02*
X139666666Y-35958500D01*
X139666666Y-35958500D02*
X139523809Y-36006119D01*
X139523809Y-36006119D02*
X139285714Y-36006119D01*
X140238095Y-35720404D02*
X140714285Y-35720404D01*
X140142857Y-36006119D02*
X140476190Y-35006119D01*
X140476190Y-35006119D02*
X140809523Y-36006119D01*
X141000000Y-35006119D02*
X141571428Y-35006119D01*
X141285714Y-36006119D02*
X141285714Y-35006119D01*
X141857143Y-35720404D02*
X142333333Y-35720404D01*
X141761905Y-36006119D02*
X142095238Y-35006119D01*
X142095238Y-35006119D02*
X142428571Y-36006119D01*
X143285714Y-36006119D02*
X142714286Y-36006119D01*
X143000000Y-36006119D02*
X143000000Y-35006119D01*
X143000000Y-35006119D02*
X142904762Y-35148976D01*
X142904762Y-35148976D02*
X142809524Y-35244214D01*
X142809524Y-35244214D02*
X142714286Y-35291833D01*
D11*
X152907200Y-32320832D02*
X152954819Y-32177975D01*
X152954819Y-32177975D02*
X152954819Y-31939880D01*
X152954819Y-31939880D02*
X152907200Y-31844642D01*
X152907200Y-31844642D02*
X152859580Y-31797023D01*
X152859580Y-31797023D02*
X152764342Y-31749404D01*
X152764342Y-31749404D02*
X152669104Y-31749404D01*
X152669104Y-31749404D02*
X152573866Y-31797023D01*
X152573866Y-31797023D02*
X152526247Y-31844642D01*
X152526247Y-31844642D02*
X152478628Y-31939880D01*
X152478628Y-31939880D02*
X152431009Y-32130356D01*
X152431009Y-32130356D02*
X152383390Y-32225594D01*
X152383390Y-32225594D02*
X152335771Y-32273213D01*
X152335771Y-32273213D02*
X152240533Y-32320832D01*
X152240533Y-32320832D02*
X152145295Y-32320832D01*
X152145295Y-32320832D02*
X152050057Y-32273213D01*
X152050057Y-32273213D02*
X152002438Y-32225594D01*
X152002438Y-32225594D02*
X151954819Y-32130356D01*
X151954819Y-32130356D02*
X151954819Y-31892261D01*
X151954819Y-31892261D02*
X152002438Y-31749404D01*
X151954819Y-31416070D02*
X152954819Y-31177975D01*
X152954819Y-31177975D02*
X152240533Y-30987499D01*
X152240533Y-30987499D02*
X152954819Y-30797023D01*
X152954819Y-30797023D02*
X151954819Y-30558928D01*
X152954819Y-30177975D02*
X151954819Y-30177975D01*
X151954819Y-30177975D02*
X151954819Y-29797023D01*
X151954819Y-29797023D02*
X152002438Y-29701785D01*
X152002438Y-29701785D02*
X152050057Y-29654166D01*
X152050057Y-29654166D02*
X152145295Y-29606547D01*
X152145295Y-29606547D02*
X152288152Y-29606547D01*
X152288152Y-29606547D02*
X152383390Y-29654166D01*
X152383390Y-29654166D02*
X152431009Y-29701785D01*
X152431009Y-29701785D02*
X152478628Y-29797023D01*
X152478628Y-29797023D02*
X152478628Y-30177975D01*
X152954819Y-28654166D02*
X152954819Y-29225594D01*
X152954819Y-28939880D02*
X151954819Y-28939880D01*
X151954819Y-28939880D02*
X152097676Y-29035118D01*
X152097676Y-29035118D02*
X152192914Y-29130356D01*
X152192914Y-29130356D02*
X152240533Y-29225594D01*
D10*
X152210880Y-41357143D02*
X152258500Y-41404762D01*
X152258500Y-41404762D02*
X152306119Y-41547619D01*
X152306119Y-41547619D02*
X152306119Y-41642857D01*
X152306119Y-41642857D02*
X152258500Y-41785714D01*
X152258500Y-41785714D02*
X152163261Y-41880952D01*
X152163261Y-41880952D02*
X152068023Y-41928571D01*
X152068023Y-41928571D02*
X151877547Y-41976190D01*
X151877547Y-41976190D02*
X151734690Y-41976190D01*
X151734690Y-41976190D02*
X151544214Y-41928571D01*
X151544214Y-41928571D02*
X151448976Y-41880952D01*
X151448976Y-41880952D02*
X151353738Y-41785714D01*
X151353738Y-41785714D02*
X151306119Y-41642857D01*
X151306119Y-41642857D02*
X151306119Y-41547619D01*
X151306119Y-41547619D02*
X151353738Y-41404762D01*
X151353738Y-41404762D02*
X151401357Y-41357143D01*
X152401357Y-41166667D02*
X152401357Y-40404762D01*
X152306119Y-39595238D02*
X151829928Y-39928571D01*
X152306119Y-40166666D02*
X151306119Y-40166666D01*
X151306119Y-40166666D02*
X151306119Y-39785714D01*
X151306119Y-39785714D02*
X151353738Y-39690476D01*
X151353738Y-39690476D02*
X151401357Y-39642857D01*
X151401357Y-39642857D02*
X151496595Y-39595238D01*
X151496595Y-39595238D02*
X151639452Y-39595238D01*
X151639452Y-39595238D02*
X151734690Y-39642857D01*
X151734690Y-39642857D02*
X151782309Y-39690476D01*
X151782309Y-39690476D02*
X151829928Y-39785714D01*
X151829928Y-39785714D02*
X151829928Y-40166666D01*
X151353738Y-38642857D02*
X151306119Y-38738095D01*
X151306119Y-38738095D02*
X151306119Y-38880952D01*
X151306119Y-38880952D02*
X151353738Y-39023809D01*
X151353738Y-39023809D02*
X151448976Y-39119047D01*
X151448976Y-39119047D02*
X151544214Y-39166666D01*
X151544214Y-39166666D02*
X151734690Y-39214285D01*
X151734690Y-39214285D02*
X151877547Y-39214285D01*
X151877547Y-39214285D02*
X152068023Y-39166666D01*
X152068023Y-39166666D02*
X152163261Y-39119047D01*
X152163261Y-39119047D02*
X152258500Y-39023809D01*
X152258500Y-39023809D02*
X152306119Y-38880952D01*
X152306119Y-38880952D02*
X152306119Y-38785714D01*
X152306119Y-38785714D02*
X152258500Y-38642857D01*
X152258500Y-38642857D02*
X152210880Y-38595238D01*
X152210880Y-38595238D02*
X151877547Y-38595238D01*
X151877547Y-38595238D02*
X151877547Y-38785714D01*
X151782309Y-37833333D02*
X151829928Y-37690476D01*
X151829928Y-37690476D02*
X151877547Y-37642857D01*
X151877547Y-37642857D02*
X151972785Y-37595238D01*
X151972785Y-37595238D02*
X152115642Y-37595238D01*
X152115642Y-37595238D02*
X152210880Y-37642857D01*
X152210880Y-37642857D02*
X152258500Y-37690476D01*
X152258500Y-37690476D02*
X152306119Y-37785714D01*
X152306119Y-37785714D02*
X152306119Y-38166666D01*
X152306119Y-38166666D02*
X151306119Y-38166666D01*
X151306119Y-38166666D02*
X151306119Y-37833333D01*
X151306119Y-37833333D02*
X151353738Y-37738095D01*
X151353738Y-37738095D02*
X151401357Y-37690476D01*
X151401357Y-37690476D02*
X151496595Y-37642857D01*
X151496595Y-37642857D02*
X151591833Y-37642857D01*
X151591833Y-37642857D02*
X151687071Y-37690476D01*
X151687071Y-37690476D02*
X151734690Y-37738095D01*
X151734690Y-37738095D02*
X151782309Y-37833333D01*
X151782309Y-37833333D02*
X151782309Y-38166666D01*
X152401357Y-37404762D02*
X152401357Y-36642857D01*
X151782309Y-36071428D02*
X151829928Y-35928571D01*
X151829928Y-35928571D02*
X151877547Y-35880952D01*
X151877547Y-35880952D02*
X151972785Y-35833333D01*
X151972785Y-35833333D02*
X152115642Y-35833333D01*
X152115642Y-35833333D02*
X152210880Y-35880952D01*
X152210880Y-35880952D02*
X152258500Y-35928571D01*
X152258500Y-35928571D02*
X152306119Y-36023809D01*
X152306119Y-36023809D02*
X152306119Y-36404761D01*
X152306119Y-36404761D02*
X151306119Y-36404761D01*
X151306119Y-36404761D02*
X151306119Y-36071428D01*
X151306119Y-36071428D02*
X151353738Y-35976190D01*
X151353738Y-35976190D02*
X151401357Y-35928571D01*
X151401357Y-35928571D02*
X151496595Y-35880952D01*
X151496595Y-35880952D02*
X151591833Y-35880952D01*
X151591833Y-35880952D02*
X151687071Y-35928571D01*
X151687071Y-35928571D02*
X151734690Y-35976190D01*
X151734690Y-35976190D02*
X151782309Y-36071428D01*
X151782309Y-36071428D02*
X151782309Y-36404761D01*
X151306119Y-35404761D02*
X152115642Y-35404761D01*
X152115642Y-35404761D02*
X152210880Y-35357142D01*
X152210880Y-35357142D02*
X152258500Y-35309523D01*
X152258500Y-35309523D02*
X152306119Y-35214285D01*
X152306119Y-35214285D02*
X152306119Y-35023809D01*
X152306119Y-35023809D02*
X152258500Y-34928571D01*
X152258500Y-34928571D02*
X152210880Y-34880952D01*
X152210880Y-34880952D02*
X152115642Y-34833333D01*
X152115642Y-34833333D02*
X151306119Y-34833333D01*
X152306119Y-33880952D02*
X152306119Y-34357142D01*
X152306119Y-34357142D02*
X151306119Y-34357142D01*
X152306119Y-33547618D02*
X151306119Y-33547618D01*
X152306119Y-32976190D02*
X151734690Y-33404761D01*
X151306119Y-32976190D02*
X151877547Y-33547618D01*
X152306119Y-32023809D02*
X152306119Y-32595237D01*
X152306119Y-32309523D02*
X151306119Y-32309523D01*
X151306119Y-32309523D02*
X151448976Y-32404761D01*
X151448976Y-32404761D02*
X151544214Y-32499999D01*
X151544214Y-32499999D02*
X151591833Y-32595237D01*
X138057142Y-38506119D02*
X137723809Y-38029928D01*
X137485714Y-38506119D02*
X137485714Y-37506119D01*
X137485714Y-37506119D02*
X137866666Y-37506119D01*
X137866666Y-37506119D02*
X137961904Y-37553738D01*
X137961904Y-37553738D02*
X138009523Y-37601357D01*
X138009523Y-37601357D02*
X138057142Y-37696595D01*
X138057142Y-37696595D02*
X138057142Y-37839452D01*
X138057142Y-37839452D02*
X138009523Y-37934690D01*
X138009523Y-37934690D02*
X137961904Y-37982309D01*
X137961904Y-37982309D02*
X137866666Y-38029928D01*
X137866666Y-38029928D02*
X137485714Y-38029928D01*
X138247619Y-38601357D02*
X139009523Y-38601357D01*
X139819047Y-38506119D02*
X139485714Y-38029928D01*
X139247619Y-38506119D02*
X139247619Y-37506119D01*
X139247619Y-37506119D02*
X139628571Y-37506119D01*
X139628571Y-37506119D02*
X139723809Y-37553738D01*
X139723809Y-37553738D02*
X139771428Y-37601357D01*
X139771428Y-37601357D02*
X139819047Y-37696595D01*
X139819047Y-37696595D02*
X139819047Y-37839452D01*
X139819047Y-37839452D02*
X139771428Y-37934690D01*
X139771428Y-37934690D02*
X139723809Y-37982309D01*
X139723809Y-37982309D02*
X139628571Y-38029928D01*
X139628571Y-38029928D02*
X139247619Y-38029928D01*
X140771428Y-37553738D02*
X140676190Y-37506119D01*
X140676190Y-37506119D02*
X140533333Y-37506119D01*
X140533333Y-37506119D02*
X140390476Y-37553738D01*
X140390476Y-37553738D02*
X140295238Y-37648976D01*
X140295238Y-37648976D02*
X140247619Y-37744214D01*
X140247619Y-37744214D02*
X140200000Y-37934690D01*
X140200000Y-37934690D02*
X140200000Y-38077547D01*
X140200000Y-38077547D02*
X140247619Y-38268023D01*
X140247619Y-38268023D02*
X140295238Y-38363261D01*
X140295238Y-38363261D02*
X140390476Y-38458500D01*
X140390476Y-38458500D02*
X140533333Y-38506119D01*
X140533333Y-38506119D02*
X140628571Y-38506119D01*
X140628571Y-38506119D02*
X140771428Y-38458500D01*
X140771428Y-38458500D02*
X140819047Y-38410880D01*
X140819047Y-38410880D02*
X140819047Y-38077547D01*
X140819047Y-38077547D02*
X140628571Y-38077547D01*
X141580952Y-37982309D02*
X141723809Y-38029928D01*
X141723809Y-38029928D02*
X141771428Y-38077547D01*
X141771428Y-38077547D02*
X141819047Y-38172785D01*
X141819047Y-38172785D02*
X141819047Y-38315642D01*
X141819047Y-38315642D02*
X141771428Y-38410880D01*
X141771428Y-38410880D02*
X141723809Y-38458500D01*
X141723809Y-38458500D02*
X141628571Y-38506119D01*
X141628571Y-38506119D02*
X141247619Y-38506119D01*
X141247619Y-38506119D02*
X141247619Y-37506119D01*
X141247619Y-37506119D02*
X141580952Y-37506119D01*
X141580952Y-37506119D02*
X141676190Y-37553738D01*
X141676190Y-37553738D02*
X141723809Y-37601357D01*
X141723809Y-37601357D02*
X141771428Y-37696595D01*
X141771428Y-37696595D02*
X141771428Y-37791833D01*
X141771428Y-37791833D02*
X141723809Y-37887071D01*
X141723809Y-37887071D02*
X141676190Y-37934690D01*
X141676190Y-37934690D02*
X141580952Y-37982309D01*
X141580952Y-37982309D02*
X141247619Y-37982309D01*
X142009524Y-38601357D02*
X142771428Y-38601357D01*
X143342857Y-37982309D02*
X143009524Y-37982309D01*
X143009524Y-38506119D02*
X143009524Y-37506119D01*
X143009524Y-37506119D02*
X143485714Y-37506119D01*
X144200000Y-37982309D02*
X144342857Y-38029928D01*
X144342857Y-38029928D02*
X144390476Y-38077547D01*
X144390476Y-38077547D02*
X144438095Y-38172785D01*
X144438095Y-38172785D02*
X144438095Y-38315642D01*
X144438095Y-38315642D02*
X144390476Y-38410880D01*
X144390476Y-38410880D02*
X144342857Y-38458500D01*
X144342857Y-38458500D02*
X144247619Y-38506119D01*
X144247619Y-38506119D02*
X143866667Y-38506119D01*
X143866667Y-38506119D02*
X143866667Y-37506119D01*
X143866667Y-37506119D02*
X144200000Y-37506119D01*
X144200000Y-37506119D02*
X144295238Y-37553738D01*
X144295238Y-37553738D02*
X144342857Y-37601357D01*
X144342857Y-37601357D02*
X144390476Y-37696595D01*
X144390476Y-37696595D02*
X144390476Y-37791833D01*
X144390476Y-37791833D02*
X144342857Y-37887071D01*
X144342857Y-37887071D02*
X144295238Y-37934690D01*
X144295238Y-37934690D02*
X144200000Y-37982309D01*
X144200000Y-37982309D02*
X143866667Y-37982309D01*
X144628572Y-38601357D02*
X145390476Y-38601357D01*
X145961905Y-37982309D02*
X146104762Y-38029928D01*
X146104762Y-38029928D02*
X146152381Y-38077547D01*
X146152381Y-38077547D02*
X146200000Y-38172785D01*
X146200000Y-38172785D02*
X146200000Y-38315642D01*
X146200000Y-38315642D02*
X146152381Y-38410880D01*
X146152381Y-38410880D02*
X146104762Y-38458500D01*
X146104762Y-38458500D02*
X146009524Y-38506119D01*
X146009524Y-38506119D02*
X145628572Y-38506119D01*
X145628572Y-38506119D02*
X145628572Y-37506119D01*
X145628572Y-37506119D02*
X145961905Y-37506119D01*
X145961905Y-37506119D02*
X146057143Y-37553738D01*
X146057143Y-37553738D02*
X146104762Y-37601357D01*
X146104762Y-37601357D02*
X146152381Y-37696595D01*
X146152381Y-37696595D02*
X146152381Y-37791833D01*
X146152381Y-37791833D02*
X146104762Y-37887071D01*
X146104762Y-37887071D02*
X146057143Y-37934690D01*
X146057143Y-37934690D02*
X145961905Y-37982309D01*
X145961905Y-37982309D02*
X145628572Y-37982309D01*
X146819048Y-37506119D02*
X147009524Y-37506119D01*
X147009524Y-37506119D02*
X147104762Y-37553738D01*
X147104762Y-37553738D02*
X147200000Y-37648976D01*
X147200000Y-37648976D02*
X147247619Y-37839452D01*
X147247619Y-37839452D02*
X147247619Y-38172785D01*
X147247619Y-38172785D02*
X147200000Y-38363261D01*
X147200000Y-38363261D02*
X147104762Y-38458500D01*
X147104762Y-38458500D02*
X147009524Y-38506119D01*
X147009524Y-38506119D02*
X146819048Y-38506119D01*
X146819048Y-38506119D02*
X146723810Y-38458500D01*
X146723810Y-38458500D02*
X146628572Y-38363261D01*
X146628572Y-38363261D02*
X146580953Y-38172785D01*
X146580953Y-38172785D02*
X146580953Y-37839452D01*
X146580953Y-37839452D02*
X146628572Y-37648976D01*
X146628572Y-37648976D02*
X146723810Y-37553738D01*
X146723810Y-37553738D02*
X146819048Y-37506119D01*
X147533334Y-37506119D02*
X148104762Y-37506119D01*
X147819048Y-38506119D02*
X147819048Y-37506119D01*
X148961905Y-38506119D02*
X148390477Y-38506119D01*
X148676191Y-38506119D02*
X148676191Y-37506119D01*
X148676191Y-37506119D02*
X148580953Y-37648976D01*
X148580953Y-37648976D02*
X148485715Y-37744214D01*
X148485715Y-37744214D02*
X148390477Y-37791833D01*
%TO.C,R_RGB_EN_PD1*%
D12*
X138900000Y-39450000D02*
X140700000Y-39450000D01*
X140700000Y-40550000D01*
X138900000Y-40550000D01*
X138900000Y-39450000D01*
%TO.C,U1*%
D13*
X139722500Y-20116500D02*
X139722500Y-2971500D01*
X157502500Y-20116500D02*
X157502500Y-2971500D01*
X139712500Y-1057500D02*
X157512500Y-1057500D01*
X157512500Y-22007500D01*
X139712500Y-22007500D01*
X139712500Y-1057500D01*
X139722500Y-2967500D02*
G75*
G02*
X141627500Y-1062500I1905001J-1D01*
G01*
X141627500Y-22021500D02*
G75*
G02*
X139722500Y-20116500I1J1905001D01*
G01*
D14*
X144121228Y-56228D02*
G75*
G02*
X144621228Y443499I500018J-291D01*
G01*
X152616500Y443500D02*
G75*
G02*
X153116500Y-56500I-100J-500100D01*
G01*
D13*
X155597500Y-1066500D02*
G75*
G02*
X157502500Y-2971500I-50J-1905050D01*
G01*
X157502500Y-20116500D02*
G75*
G02*
X155597500Y-22021500I-1905000J0D01*
G01*
%TO.C,C_RGB_OUT1_1*%
D12*
X148450000Y-36100000D02*
X149550000Y-36100000D01*
X149550000Y-37900000D01*
X148450000Y-37900000D01*
X148450000Y-36100000D01*
%TO.C,C_RGB_OUT2_1*%
X150950000Y-36100000D02*
X152050000Y-36100000D01*
X152050000Y-37900000D01*
X150950000Y-37900000D01*
X150950000Y-36100000D01*
%TO.C,L_RGB1*%
X144650000Y-32700000D02*
X147350000Y-32700000D01*
X147350000Y-34900000D01*
X144650000Y-34900000D01*
X144650000Y-32700000D01*
%TO.C,U_RGB1*%
X145574432Y-36065000D02*
X146710000Y-36065000D01*
X146710000Y-37935000D02*
X145290000Y-37935000D01*
D13*
X145700000Y-36200000D02*
X146600000Y-36200000D01*
X146600000Y-37800000D01*
X145400000Y-37800000D01*
X145400000Y-36500000D01*
X145700000Y-36200000D01*
%TO.C,C_RGB_IN1*%
D12*
X142450000Y-35900000D02*
X143550000Y-35900000D01*
X143550000Y-37700000D01*
X142450000Y-37700000D01*
X142450000Y-35900000D01*
%TO.C,R_RGB_FB_TOP1*%
X145600000Y-39450000D02*
X147400000Y-39450000D01*
X147400000Y-40550000D01*
X145600000Y-40550000D01*
X145600000Y-39450000D01*
%TO.C,U_LS1*%
X138090000Y-35760000D02*
X138090000Y-35710000D01*
X139910000Y-35760000D02*
X138090000Y-35760000D01*
X137550000Y-32690000D02*
X137310000Y-32360000D01*
X137790000Y-32360000D01*
X137550000Y-32690000D01*
G36*
X137550000Y-32690000D02*
G01*
X137310000Y-32360000D01*
X137790000Y-32360000D01*
X137550000Y-32690000D01*
G37*
D13*
X138600000Y-32750000D02*
X139800000Y-32750000D01*
X139800000Y-35650000D01*
X138200000Y-35650000D01*
X138200000Y-33150000D01*
X138600000Y-32750000D01*
%TO.C,R_RGB_DATA1*%
D12*
X137600000Y-36950000D02*
X139400000Y-36950000D01*
X139400000Y-38050000D01*
X137600000Y-38050000D01*
X137600000Y-36950000D01*
%TO.C,SWP1*%
D13*
X158400000Y-29037500D02*
X159850000Y-29037500D01*
X158400000Y-30337500D02*
X159850000Y-30337500D01*
X159850000Y-30337500D02*
X159850000Y-29037500D01*
X155600000Y-27137500D02*
X158400000Y-27137500D01*
X158400000Y-33837500D01*
X155600000Y-33837500D01*
X155600000Y-27137500D01*
%TO.C,C_RGB_BULK1*%
D12*
X153250000Y-36100000D02*
X154350000Y-36100000D01*
X154350000Y-37900000D01*
X153250000Y-37900000D01*
X153250000Y-36100000D01*
%TO.C,SW59*%
D11*
X125019841Y-122248046D02*
X143420728Y-127178549D01*
X131193886Y-108962047D02*
X131452705Y-107996122D01*
X132159812Y-109220867D02*
X131193886Y-108962047D01*
X134558533Y-96405012D02*
X134817353Y-95439086D01*
X134817353Y-95439086D02*
X135783278Y-95697905D01*
X136113472Y-80846051D02*
X125019841Y-122248046D01*
X143420728Y-127178549D02*
X154514359Y-85776554D01*
X144716847Y-112585514D02*
X143750922Y-112326695D01*
X144975667Y-111619588D02*
X144716847Y-112585514D01*
X147374388Y-98803733D02*
X148340314Y-99062553D01*
X148340314Y-99062553D02*
X148081495Y-100028478D01*
X154514359Y-85776554D02*
X136113472Y-80846051D01*
%TO.C,R_RGB_FB_BOT1*%
D12*
X142300000Y-39450000D02*
X144100000Y-39450000D01*
X144100000Y-40550000D01*
X142300000Y-40550000D01*
X142300000Y-39450000D01*
%TO.C,C_LS1*%
X137600000Y-30550000D02*
X139400000Y-30550000D01*
X139400000Y-31650000D01*
X137600000Y-31650000D01*
X137600000Y-30550000D01*
%TD*%
M02*
