%TF.GenerationSoftware,KiCad,Pcbnew,10.0.5*%
%TF.CreationDate,2026-09-23T03:24:25+09:00*%
%TF.ProjectId,keyboard,6b657962-6f61-4726-942e-6b696361645f,rev?*%
%TF.SameCoordinates,Original*%
%TF.FileFunction,Paste,Top*%
%TF.FilePolarity,Positive*%
%FSLAX46Y46*%
G04 Gerber Fmt 4.6, Leading zero omitted, Abs format (unit mm)*
G04 Created by KiCad (PCBNEW 10.0.5) date 2026-09-23 03:24:25*
%MOMM*%
%LPD*%
G01*
G04 APERTURE LIST*
G04 Aperture macros list*
%AMRoundRect*
0 Rectangle with rounded corners*
0 $1 Rounding radius*
0 $2 $3 $4 $5 $6 $7 $8 $9 X,Y pos of 4 corners*
0 Add a 4 corners polygon primitive as box body*
4,1,4,$2,$3,$4,$5,$6,$7,$8,$9,$2,$3,0*
0 Add four circle primitives for the rounded corners*
1,1,$1+$1,$2,$3*
1,1,$1+$1,$4,$5*
1,1,$1+$1,$6,$7*
1,1,$1+$1,$8,$9*
0 Add four rect primitives between the rounded corners*
20,1,$1+$1,$2,$3,$4,$5,0*
20,1,$1+$1,$4,$5,$6,$7,0*
20,1,$1+$1,$6,$7,$8,$9,0*
20,1,$1+$1,$8,$9,$2,$3,0*%
%AMFreePoly0*
4,1,15,-0.616000,0.142500,-0.283500,0.475000,0.521000,0.475000,0.557355,0.467769,0.588175,0.447175,0.608769,0.416355,0.616000,0.380000,0.616000,-0.380000,0.608769,-0.416355,0.588175,-0.447175,0.557355,-0.467769,0.521000,-0.475000,-0.283500,-0.475000,-0.616000,-0.142500,-0.616000,0.142500,-0.616000,0.142500,$1*%
G04 Aperture macros list end*
%ADD10RoundRect,0.180000X-0.270000X-0.270000X0.270000X-0.270000X0.270000X0.270000X-0.270000X0.270000X0*%
%ADD11RoundRect,0.095000X0.921000X0.380000X-0.921000X0.380000X-0.921000X-0.380000X0.921000X-0.380000X0*%
%ADD12RoundRect,0.095000X-0.921000X-0.380000X0.921000X-0.380000X0.921000X0.380000X-0.921000X0.380000X0*%
%ADD13FreePoly0,180.000000*%
%ADD14O,1.800000X1.200000*%
%ADD15FreePoly0,0.000000*%
%ADD16C,1.700000*%
%ADD17O,1.800000X1.400000*%
%ADD18O,1.100000X2.500000*%
%ADD19RoundRect,0.180000X0.270000X-0.270000X0.270000X0.270000X-0.270000X0.270000X-0.270000X-0.270000X0*%
%ADD20RoundRect,0.240000X-0.360000X-0.460000X0.360000X-0.460000X0.360000X0.460000X-0.360000X0.460000X0*%
%ADD21RoundRect,0.087500X-0.250000X-0.087500X0.250000X-0.087500X0.250000X0.087500X-0.250000X0.087500X0*%
%ADD22RoundRect,0.150000X-0.512500X-0.150000X0.512500X-0.150000X0.512500X0.150000X-0.512500X0.150000X0*%
%ADD23RoundRect,0.150000X0.500000X-0.150000X0.500000X0.150000X-0.500000X0.150000X-0.500000X-0.150000X0*%
%ADD24RoundRect,0.175000X0.175000X-0.350000X0.175000X0.350000X-0.175000X0.350000X-0.175000X-0.350000X0*%
G04 APERTURE END LIST*
D10*
%TO.C,R_RGB_EN_PD1*%
X139050000Y-40000000D03*
X140550000Y-40000000D03*
%TD*%
D11*
%TO.C,U1*%
X140357500Y-3987500D03*
X140357500Y-6527500D03*
X140357500Y-9067500D03*
X140357500Y-11607500D03*
X140357500Y-14147500D03*
X140357500Y-16687500D03*
X140357500Y-19227500D03*
D12*
X156867500Y-19227500D03*
X156867500Y-16687500D03*
X156867500Y-14147500D03*
X156867500Y-11607500D03*
X156867500Y-9067500D03*
X156867500Y-6527500D03*
X156867500Y-3987500D03*
D13*
X139957500Y-5257500D03*
X139957500Y-7797500D03*
D14*
X139957500Y-10337500D03*
D13*
X139957500Y-12877500D03*
X139957500Y-15417500D03*
X139957500Y-17957500D03*
D15*
X157267500Y-17957500D03*
X157267500Y-15417500D03*
X157267500Y-12877500D03*
D16*
X147342500Y-3035000D03*
X149882500Y-3035000D03*
X147342500Y-5575000D03*
D17*
X149882500Y-5575000D03*
D18*
X147618512Y-17125323D03*
X149618512Y-17125323D03*
%TD*%
D19*
%TO.C,C_RGB_OUT1_1*%
X149000000Y-37750000D03*
X149000000Y-36250000D03*
%TD*%
%TO.C,C_RGB_OUT2_1*%
X151500000Y-37750000D03*
X151500000Y-36250000D03*
%TD*%
D20*
%TO.C,L_RGB1*%
X145000000Y-33800000D03*
X147000000Y-33800000D03*
%TD*%
D21*
%TO.C,U_RGB1*%
X145287500Y-36500000D03*
X145287500Y-37000000D03*
X145287500Y-37500000D03*
X146712500Y-37500000D03*
X146712500Y-37000000D03*
X146712500Y-36500000D03*
%TD*%
D19*
%TO.C,C_RGB_IN1*%
X143000000Y-37550000D03*
X143000000Y-36050000D03*
%TD*%
D10*
%TO.C,R_RGB_FB_TOP1*%
X145750000Y-40000000D03*
X147250000Y-40000000D03*
%TD*%
D22*
%TO.C,U_LS1*%
X137862500Y-33250000D03*
X137862500Y-34200000D03*
X137862500Y-35150000D03*
X140137500Y-35150000D03*
X140137500Y-33250000D03*
%TD*%
D10*
%TO.C,R_RGB_DATA1*%
X137750000Y-37500000D03*
X139250000Y-37500000D03*
%TD*%
D23*
%TO.C,SWP1*%
X155050000Y-32737500D03*
X155050000Y-29737500D03*
X155050000Y-28237500D03*
D24*
X155900000Y-34162500D03*
X158100000Y-34162500D03*
X155900000Y-26812500D03*
X158100000Y-26812500D03*
%TD*%
D19*
%TO.C,C_RGB_BULK1*%
X153800000Y-37750000D03*
X153800000Y-36250000D03*
%TD*%
D10*
%TO.C,R_RGB_FB_BOT1*%
X142450000Y-40000000D03*
X143950000Y-40000000D03*
%TD*%
%TO.C,C_LS1*%
X137750000Y-31100000D03*
X139250000Y-31100000D03*
%TD*%
M02*
