%TF.GenerationSoftware,KiCad,Pcbnew,10.0.5*%
%TF.CreationDate,2026-09-23T03:24:45+09:00*%
%TF.ProjectId,keyboard,6b657962-6f61-4726-942e-6b696361645f,rev?*%
%TF.SameCoordinates,Original*%
%TF.FileFunction,OtherDrawing,Comment*%
%FSLAX46Y46*%
G04 Gerber Fmt 4.6, Leading zero omitted, Abs format (unit mm)*
G04 Created by KiCad (PCBNEW 10.0.5) date 2026-09-23 03:24:45*
%MOMM*%
%LPD*%
G01*
G04 APERTURE LIST*
%ADD10C,0.100000*%
%ADD11C,0.150000*%
G04 APERTURE END LIST*
D10*
X171450000Y-38100000D02*
X190500000Y-38100000D01*
X171450000Y-56197500D02*
X190500000Y-56197500D01*
X171450000Y-57150000D02*
X171450000Y-38100000D01*
X171450000Y-75247500D02*
X171450000Y-56197500D01*
X175887768Y-85994590D02*
X194288655Y-81064088D01*
X186981399Y-127396586D02*
X175887768Y-85994590D01*
X190500000Y-3810000D02*
X209550000Y-3810000D01*
X190500000Y-22860000D02*
X190500000Y-3810000D01*
X190500000Y-22860000D02*
X209550000Y-22860000D01*
X190500000Y-38100000D02*
X190500000Y-57150000D01*
X190500000Y-41910000D02*
X190500000Y-22860000D01*
X190500000Y-41910000D02*
X209550000Y-41910000D01*
X190500000Y-56197500D02*
X190500000Y-75247500D01*
X190500000Y-57150000D02*
X171450000Y-57150000D01*
X190500000Y-60960000D02*
X190500000Y-41910000D01*
X190500000Y-60960000D02*
X209550000Y-60960000D01*
X190500000Y-75247500D02*
X171450000Y-75247500D01*
X190500000Y-80010000D02*
X190500000Y-60960000D01*
X194288655Y-81064088D02*
X205382286Y-122466083D01*
X195521281Y-85664309D02*
X213922168Y-80733807D01*
X205382286Y-122466083D02*
X186981399Y-127396586D01*
X205382286Y-122466083D02*
X195521281Y-85664309D01*
X209550000Y-1905000D02*
X228600000Y-1905000D01*
X209550000Y-3810000D02*
X209550000Y-22860000D01*
X209550000Y-20955000D02*
X209550000Y-1905000D01*
X209550000Y-20955000D02*
X228600000Y-20955000D01*
X209550000Y-22860000D02*
X190500000Y-22860000D01*
X209550000Y-22860000D02*
X209550000Y-41910000D01*
X209550000Y-40005000D02*
X209550000Y-20955000D01*
X209550000Y-40005000D02*
X228600000Y-40005000D01*
X209550000Y-41910000D02*
X190500000Y-41910000D01*
X209550000Y-41910000D02*
X209550000Y-60960000D01*
X209550000Y-59055000D02*
X209550000Y-40005000D01*
X209550000Y-59055000D02*
X228600000Y-59055000D01*
X209550000Y-60960000D02*
X190500000Y-60960000D01*
X209550000Y-60960000D02*
X209550000Y-80010000D01*
X209550000Y-78105000D02*
X209550000Y-59055000D01*
X209550000Y-80010000D02*
X190500000Y-80010000D01*
X213922168Y-80733807D02*
X223783173Y-117535581D01*
X223783173Y-117535581D02*
X205382286Y-122466083D01*
X228600000Y0D02*
X247650000Y0D01*
X228600000Y-1905000D02*
X228600000Y-20955000D01*
X228600000Y-19050000D02*
X228600000Y0D01*
X228600000Y-19050000D02*
X247650000Y-19050000D01*
X228600000Y-20955000D02*
X209550000Y-20955000D01*
X228600000Y-20955000D02*
X228600000Y-40005000D01*
X228600000Y-38100000D02*
X228600000Y-19050000D01*
X228600000Y-38100000D02*
X247650000Y-38100000D01*
X228600000Y-40005000D02*
X209550000Y-40005000D01*
X228600000Y-40005000D02*
X228600000Y-59055000D01*
X228600000Y-57150000D02*
X228600000Y-38100000D01*
X228600000Y-57150000D02*
X247650000Y-57150000D01*
X228600000Y-59055000D02*
X209550000Y-59055000D01*
X228600000Y-59055000D02*
X228600000Y-78105000D01*
X228600000Y-76200000D02*
X228600000Y-57150000D01*
X228600000Y-78105000D02*
X209550000Y-78105000D01*
X247650000Y0D02*
X247650000Y-19050000D01*
X247650000Y-1905000D02*
X266700000Y-1905000D01*
X247650000Y-19050000D02*
X228600000Y-19050000D01*
X247650000Y-19050000D02*
X247650000Y-38100000D01*
X247650000Y-20955000D02*
X247650000Y-1905000D01*
X247650000Y-20955000D02*
X266700000Y-20955000D01*
X247650000Y-38100000D02*
X228600000Y-38100000D01*
X247650000Y-38100000D02*
X247650000Y-57150000D01*
X247650000Y-40005000D02*
X247650000Y-20955000D01*
X247650000Y-40005000D02*
X266700000Y-40005000D01*
X247650000Y-57150000D02*
X228600000Y-57150000D01*
X247650000Y-57150000D02*
X247650000Y-76200000D01*
X247650000Y-59055000D02*
X247650000Y-40005000D01*
X247650000Y-59055000D02*
X266700000Y-59055000D01*
X247650000Y-76200000D02*
X228600000Y-76200000D01*
X247650000Y-78105000D02*
X247650000Y-59055000D01*
X266700000Y-1905000D02*
X266700000Y-20955000D01*
X266700000Y-3810000D02*
X285750000Y-3810000D01*
X266700000Y-20955000D02*
X247650000Y-20955000D01*
X266700000Y-20955000D02*
X266700000Y-40005000D01*
X266700000Y-22860000D02*
X266700000Y-3810000D01*
X266700000Y-22860000D02*
X285750000Y-22860000D01*
X266700000Y-40005000D02*
X247650000Y-40005000D01*
X266700000Y-40005000D02*
X266700000Y-59055000D01*
X266700000Y-41910000D02*
X266700000Y-22860000D01*
X266700000Y-41910000D02*
X285750000Y-41910000D01*
X266700000Y-59055000D02*
X247650000Y-59055000D01*
X266700000Y-59055000D02*
X266700000Y-78105000D01*
X266700000Y-60960000D02*
X266700000Y-41910000D01*
X266700000Y-60960000D02*
X285750000Y-60960000D01*
X266700000Y-78105000D02*
X247650000Y-78105000D01*
X266700000Y-80010000D02*
X266700000Y-60960000D01*
X285750000Y-3810000D02*
X285750000Y-22860000D01*
X285750000Y-4762500D02*
X304800000Y-4762500D01*
X285750000Y-22860000D02*
X266700000Y-22860000D01*
X285750000Y-22860000D02*
X285750000Y-41910000D01*
X285750000Y-23812500D02*
X285750000Y-4762500D01*
X285750000Y-23812500D02*
X309562500Y-23812500D01*
X285750000Y-41910000D02*
X266700000Y-41910000D01*
X285750000Y-41910000D02*
X285750000Y-60960000D01*
X285750000Y-42862500D02*
X285750000Y-23812500D01*
X285750000Y-42862500D02*
X309562500Y-42862500D01*
X285750000Y-60960000D02*
X266700000Y-60960000D01*
X285750000Y-60960000D02*
X285750000Y-80010000D01*
X285750000Y-61912500D02*
X285750000Y-42862500D01*
X285750000Y-61912500D02*
X309562500Y-61912500D01*
X285750000Y-80010000D02*
X266700000Y-80010000D01*
X285750000Y-80962500D02*
X285750000Y-61912500D01*
X304800000Y-4762500D02*
X304800000Y-23812500D01*
X304800000Y-23812500D02*
X285750000Y-23812500D01*
X309562500Y-23812500D02*
X309562500Y-42862500D01*
X309562500Y-42862500D02*
X285750000Y-42862500D01*
X309562500Y-42862500D02*
X309562500Y-61912500D01*
X309562500Y-61912500D02*
X285750000Y-61912500D01*
X309562500Y-61912500D02*
X309562500Y-80962500D01*
X309562500Y-80962500D02*
X285750000Y-80962500D01*
%TO.C,SW39*%
D11*
X171450000Y-56197500D02*
X190500000Y-56197500D01*
X171450000Y-75247500D02*
X171450000Y-56197500D01*
X173975000Y-58722500D02*
X174975000Y-58722500D01*
X173975000Y-59722500D02*
X173975000Y-58722500D01*
X173975000Y-71722500D02*
X173975000Y-72722500D01*
X173975000Y-72722500D02*
X174975000Y-72722500D01*
X186975000Y-72722500D02*
X187975000Y-72722500D01*
X187975000Y-58722500D02*
X186975000Y-58722500D01*
X187975000Y-58722500D02*
X187975000Y-59722500D01*
X187975000Y-72722500D02*
X187975000Y-71722500D01*
X190500000Y-56197500D02*
X190500000Y-75247500D01*
X190500000Y-75247500D02*
X171450000Y-75247500D01*
%TO.C,SW22*%
X266700000Y-22860000D02*
X285750000Y-22860000D01*
X266700000Y-41910000D02*
X266700000Y-22860000D01*
X269225000Y-25385000D02*
X270225000Y-25385000D01*
X269225000Y-26385000D02*
X269225000Y-25385000D01*
X269225000Y-38385000D02*
X269225000Y-39385000D01*
X269225000Y-39385000D02*
X270225000Y-39385000D01*
X282225000Y-39385000D02*
X283225000Y-39385000D01*
X283225000Y-25385000D02*
X282225000Y-25385000D01*
X283225000Y-25385000D02*
X283225000Y-26385000D01*
X283225000Y-39385000D02*
X283225000Y-38385000D01*
X285750000Y-22860000D02*
X285750000Y-41910000D01*
X285750000Y-41910000D02*
X266700000Y-41910000D01*
%TO.C,SW5*%
X209550000Y-1905000D02*
X228600000Y-1905000D01*
X209550000Y-20955000D02*
X209550000Y-1905000D01*
X212075000Y-4430000D02*
X213075000Y-4430000D01*
X212075000Y-5430000D02*
X212075000Y-4430000D01*
X212075000Y-17430000D02*
X212075000Y-18430000D01*
X212075000Y-18430000D02*
X213075000Y-18430000D01*
X225075000Y-18430000D02*
X226075000Y-18430000D01*
X226075000Y-4430000D02*
X225075000Y-4430000D01*
X226075000Y-4430000D02*
X226075000Y-5430000D01*
X226075000Y-18430000D02*
X226075000Y-17430000D01*
X228600000Y-1905000D02*
X228600000Y-20955000D01*
X228600000Y-20955000D02*
X209550000Y-20955000D01*
%TO.C,SW38*%
X285750050Y-42862500D02*
X309562550Y-42862500D01*
X285750050Y-61912500D02*
X285750050Y-42862500D01*
X290656300Y-45387500D02*
X291656300Y-45387500D01*
X290656300Y-46387500D02*
X290656300Y-45387500D01*
X290656300Y-58387500D02*
X290656300Y-59387500D01*
X290656300Y-59387500D02*
X291656300Y-59387500D01*
X303656300Y-59387500D02*
X304656300Y-59387500D01*
X304656300Y-45387500D02*
X303656300Y-45387500D01*
X304656300Y-45387500D02*
X304656300Y-46387500D01*
X304656300Y-59387500D02*
X304656300Y-58387500D01*
X309562550Y-42862500D02*
X309562550Y-61912500D01*
X309562550Y-61912500D02*
X285750050Y-61912500D01*
%TO.C,SW32*%
X247650000Y-40005000D02*
X266700000Y-40005000D01*
X247650000Y-59055000D02*
X247650000Y-40005000D01*
X250175000Y-42530000D02*
X251175000Y-42530000D01*
X250175000Y-43530000D02*
X250175000Y-42530000D01*
X250175000Y-55530000D02*
X250175000Y-56530000D01*
X250175000Y-56530000D02*
X251175000Y-56530000D01*
X263175000Y-56530000D02*
X264175000Y-56530000D01*
X264175000Y-42530000D02*
X263175000Y-42530000D01*
X264175000Y-42530000D02*
X264175000Y-43530000D01*
X264175000Y-56530000D02*
X264175000Y-55530000D01*
X266700000Y-40005000D02*
X266700000Y-59055000D01*
X266700000Y-59055000D02*
X247650000Y-59055000D01*
%TO.C,SW2*%
X228600000Y0D02*
X247650000Y0D01*
X228600000Y-19050000D02*
X228600000Y0D01*
X231125000Y-2525000D02*
X232125000Y-2525000D01*
X231125000Y-3525000D02*
X231125000Y-2525000D01*
X231125000Y-15525000D02*
X231125000Y-16525000D01*
X231125000Y-16525000D02*
X232125000Y-16525000D01*
X244125000Y-16525000D02*
X245125000Y-16525000D01*
X245125000Y-2525000D02*
X244125000Y-2525000D01*
X245125000Y-2525000D02*
X245125000Y-3525000D01*
X245125000Y-16525000D02*
X245125000Y-15525000D01*
X247650000Y0D02*
X247650000Y-19050000D01*
X247650000Y-19050000D02*
X228600000Y-19050000D01*
%TO.C,SW45*%
X209550000Y-59055000D02*
X228600000Y-59055000D01*
X209550000Y-78105000D02*
X209550000Y-59055000D01*
X212075000Y-61580000D02*
X213075000Y-61580000D01*
X212075000Y-62580000D02*
X212075000Y-61580000D01*
X212075000Y-74580000D02*
X212075000Y-75580000D01*
X212075000Y-75580000D02*
X213075000Y-75580000D01*
X225075000Y-75580000D02*
X226075000Y-75580000D01*
X226075000Y-61580000D02*
X225075000Y-61580000D01*
X226075000Y-61580000D02*
X226075000Y-62580000D01*
X226075000Y-75580000D02*
X226075000Y-74580000D01*
X228600000Y-59055000D02*
X228600000Y-78105000D01*
X228600000Y-78105000D02*
X209550000Y-78105000D01*
%TO.C,SW17*%
X209550000Y-20955000D02*
X228600000Y-20955000D01*
X209550000Y-40005000D02*
X209550000Y-20955000D01*
X212075000Y-23480000D02*
X213075000Y-23480000D01*
X212075000Y-24480000D02*
X212075000Y-23480000D01*
X212075000Y-36480000D02*
X212075000Y-37480000D01*
X212075000Y-37480000D02*
X213075000Y-37480000D01*
X225075000Y-37480000D02*
X226075000Y-37480000D01*
X226075000Y-23480000D02*
X225075000Y-23480000D01*
X226075000Y-23480000D02*
X226075000Y-24480000D01*
X226075000Y-37480000D02*
X226075000Y-36480000D01*
X228600000Y-20955000D02*
X228600000Y-40005000D01*
X228600000Y-40005000D02*
X209550000Y-40005000D01*
%TO.C,SW14*%
X228600000Y-19050000D02*
X247650000Y-19050000D01*
X228600000Y-38100000D02*
X228600000Y-19050000D01*
X231125000Y-21575000D02*
X232125000Y-21575000D01*
X231125000Y-22575000D02*
X231125000Y-21575000D01*
X231125000Y-34575000D02*
X231125000Y-35575000D01*
X231125000Y-35575000D02*
X232125000Y-35575000D01*
X244125000Y-35575000D02*
X245125000Y-35575000D01*
X245125000Y-21575000D02*
X244125000Y-21575000D01*
X245125000Y-21575000D02*
X245125000Y-22575000D01*
X245125000Y-35575000D02*
X245125000Y-34575000D01*
X247650000Y-19050000D02*
X247650000Y-38100000D01*
X247650000Y-38100000D02*
X228600000Y-38100000D01*
%TO.C,SW46*%
X247650000Y-59055000D02*
X266700000Y-59055000D01*
X247650000Y-78105000D02*
X247650000Y-59055000D01*
X250175000Y-61580000D02*
X251175000Y-61580000D01*
X250175000Y-62580000D02*
X250175000Y-61580000D01*
X250175000Y-74580000D02*
X250175000Y-75580000D01*
X250175000Y-75580000D02*
X251175000Y-75580000D01*
X263175000Y-75580000D02*
X264175000Y-75580000D01*
X264175000Y-61580000D02*
X263175000Y-61580000D01*
X264175000Y-61580000D02*
X264175000Y-62580000D01*
X264175000Y-75580000D02*
X264175000Y-74580000D01*
X266700000Y-59055000D02*
X266700000Y-78105000D01*
X266700000Y-78105000D02*
X247650000Y-78105000D01*
%TO.C,SW18*%
X247650000Y-20955000D02*
X266700000Y-20955000D01*
X247650000Y-40005000D02*
X247650000Y-20955000D01*
X250175000Y-23480000D02*
X251175000Y-23480000D01*
X250175000Y-24480000D02*
X250175000Y-23480000D01*
X250175000Y-36480000D02*
X250175000Y-37480000D01*
X250175000Y-37480000D02*
X251175000Y-37480000D01*
X263175000Y-37480000D02*
X264175000Y-37480000D01*
X264175000Y-23480000D02*
X263175000Y-23480000D01*
X264175000Y-23480000D02*
X264175000Y-24480000D01*
X264175000Y-37480000D02*
X264175000Y-36480000D01*
X266700000Y-20955000D02*
X266700000Y-40005000D01*
X266700000Y-40005000D02*
X247650000Y-40005000D01*
%TO.C,SW49*%
X190500000Y-60960000D02*
X209550000Y-60960000D01*
X190500000Y-80010000D02*
X190500000Y-60960000D01*
X193025000Y-63485000D02*
X194025000Y-63485000D01*
X193025000Y-64485000D02*
X193025000Y-63485000D01*
X193025000Y-76485000D02*
X193025000Y-77485000D01*
X193025000Y-77485000D02*
X194025000Y-77485000D01*
X206025000Y-77485000D02*
X207025000Y-77485000D01*
X207025000Y-63485000D02*
X206025000Y-63485000D01*
X207025000Y-63485000D02*
X207025000Y-64485000D01*
X207025000Y-77485000D02*
X207025000Y-76485000D01*
X209550000Y-60960000D02*
X209550000Y-80010000D01*
X209550000Y-80010000D02*
X190500000Y-80010000D01*
%TO.C,SW10*%
X266700000Y-3810000D02*
X285750000Y-3810000D01*
X266700000Y-22860000D02*
X266700000Y-3810000D01*
X269225000Y-6335000D02*
X270225000Y-6335000D01*
X269225000Y-7335000D02*
X269225000Y-6335000D01*
X269225000Y-19335000D02*
X269225000Y-20335000D01*
X269225000Y-20335000D02*
X270225000Y-20335000D01*
X282225000Y-20335000D02*
X283225000Y-20335000D01*
X283225000Y-6335000D02*
X282225000Y-6335000D01*
X283225000Y-6335000D02*
X283225000Y-7335000D01*
X283225000Y-20335000D02*
X283225000Y-19335000D01*
X285750000Y-3810000D02*
X285750000Y-22860000D01*
X285750000Y-22860000D02*
X266700000Y-22860000D01*
%TO.C,SW12*%
X285750000Y-4762500D02*
X304800000Y-4762500D01*
X285750000Y-23812500D02*
X285750000Y-4762500D01*
X288275000Y-7287500D02*
X289275000Y-7287500D01*
X288275000Y-8287500D02*
X288275000Y-7287500D01*
X288275000Y-20287500D02*
X288275000Y-21287500D01*
X288275000Y-21287500D02*
X289275000Y-21287500D01*
X301275000Y-21287500D02*
X302275000Y-21287500D01*
X302275000Y-7287500D02*
X301275000Y-7287500D01*
X302275000Y-7287500D02*
X302275000Y-8287500D01*
X302275000Y-21287500D02*
X302275000Y-20287500D01*
X304800000Y-4762500D02*
X304800000Y-23812500D01*
X304800000Y-23812500D02*
X285750000Y-23812500D01*
%TO.C,SW42*%
X228600000Y-57150000D02*
X247650000Y-57150000D01*
X228600000Y-76200000D02*
X228600000Y-57150000D01*
X231125000Y-59675000D02*
X232125000Y-59675000D01*
X231125000Y-60675000D02*
X231125000Y-59675000D01*
X231125000Y-72675000D02*
X231125000Y-73675000D01*
X231125000Y-73675000D02*
X232125000Y-73675000D01*
X244125000Y-73675000D02*
X245125000Y-73675000D01*
X245125000Y-59675000D02*
X244125000Y-59675000D01*
X245125000Y-59675000D02*
X245125000Y-60675000D01*
X245125000Y-73675000D02*
X245125000Y-72675000D01*
X247650000Y-57150000D02*
X247650000Y-76200000D01*
X247650000Y-76200000D02*
X228600000Y-76200000D01*
%TO.C,SW36*%
X266700000Y-41910000D02*
X285750000Y-41910000D01*
X266700000Y-60960000D02*
X266700000Y-41910000D01*
X269225000Y-44435000D02*
X270225000Y-44435000D01*
X269225000Y-45435000D02*
X269225000Y-44435000D01*
X269225000Y-57435000D02*
X269225000Y-58435000D01*
X269225000Y-58435000D02*
X270225000Y-58435000D01*
X282225000Y-58435000D02*
X283225000Y-58435000D01*
X283225000Y-44435000D02*
X282225000Y-44435000D01*
X283225000Y-44435000D02*
X283225000Y-45435000D01*
X283225000Y-58435000D02*
X283225000Y-57435000D01*
X285750000Y-41910000D02*
X285750000Y-60960000D01*
X285750000Y-60960000D02*
X266700000Y-60960000D01*
%TO.C,SW52*%
X285750050Y-61912500D02*
X309562550Y-61912500D01*
X285750050Y-80962500D02*
X285750050Y-61912500D01*
X290656300Y-64437500D02*
X291656300Y-64437500D01*
X290656300Y-65437500D02*
X290656300Y-64437500D01*
X290656300Y-77437500D02*
X290656300Y-78437500D01*
X290656300Y-78437500D02*
X291656300Y-78437500D01*
X303656300Y-78437500D02*
X304656300Y-78437500D01*
X304656300Y-64437500D02*
X303656300Y-64437500D01*
X304656300Y-64437500D02*
X304656300Y-65437500D01*
X304656300Y-78437500D02*
X304656300Y-77437500D01*
X309562550Y-61912500D02*
X309562550Y-80962500D01*
X309562550Y-80962500D02*
X285750050Y-80962500D01*
%TO.C,SW27*%
X171450000Y-38100000D02*
X190500000Y-38100000D01*
X171450000Y-57150000D02*
X171450000Y-38100000D01*
X173975000Y-40625000D02*
X174975000Y-40625000D01*
X173975000Y-41625000D02*
X173975000Y-40625000D01*
X173975000Y-53625000D02*
X173975000Y-54625000D01*
X173975000Y-54625000D02*
X174975000Y-54625000D01*
X186975000Y-54625000D02*
X187975000Y-54625000D01*
X187975000Y-40625000D02*
X186975000Y-40625000D01*
X187975000Y-40625000D02*
X187975000Y-41625000D01*
X187975000Y-54625000D02*
X187975000Y-53625000D01*
X190500000Y-38100000D02*
X190500000Y-57150000D01*
X190500000Y-57150000D02*
X171450000Y-57150000D01*
%TO.C,SW6*%
X247650000Y-1905000D02*
X266700000Y-1905000D01*
X247650000Y-20955000D02*
X247650000Y-1905000D01*
X250175000Y-4430000D02*
X251175000Y-4430000D01*
X250175000Y-5430000D02*
X250175000Y-4430000D01*
X250175000Y-17430000D02*
X250175000Y-18430000D01*
X250175000Y-18430000D02*
X251175000Y-18430000D01*
X263175000Y-18430000D02*
X264175000Y-18430000D01*
X264175000Y-4430000D02*
X263175000Y-4430000D01*
X264175000Y-4430000D02*
X264175000Y-5430000D01*
X264175000Y-18430000D02*
X264175000Y-17430000D01*
X266700000Y-1905000D02*
X266700000Y-20955000D01*
X266700000Y-20955000D02*
X247650000Y-20955000D01*
%TO.C,SW31*%
X209550000Y-40005000D02*
X228600000Y-40005000D01*
X209550000Y-59055000D02*
X209550000Y-40005000D01*
X212075000Y-42530000D02*
X213075000Y-42530000D01*
X212075000Y-43530000D02*
X212075000Y-42530000D01*
X212075000Y-55530000D02*
X212075000Y-56530000D01*
X212075000Y-56530000D02*
X213075000Y-56530000D01*
X225075000Y-56530000D02*
X226075000Y-56530000D01*
X226075000Y-42530000D02*
X225075000Y-42530000D01*
X226075000Y-42530000D02*
X226075000Y-43530000D01*
X226075000Y-56530000D02*
X226075000Y-55530000D01*
X228600000Y-40005000D02*
X228600000Y-59055000D01*
X228600000Y-59055000D02*
X209550000Y-59055000D01*
%TO.C,SW35*%
X190500000Y-41910000D02*
X209550000Y-41910000D01*
X190500000Y-60960000D02*
X190500000Y-41910000D01*
X193025000Y-44435000D02*
X194025000Y-44435000D01*
X193025000Y-45435000D02*
X193025000Y-44435000D01*
X193025000Y-57435000D02*
X193025000Y-58435000D01*
X193025000Y-58435000D02*
X194025000Y-58435000D01*
X206025000Y-58435000D02*
X207025000Y-58435000D01*
X207025000Y-44435000D02*
X206025000Y-44435000D01*
X207025000Y-44435000D02*
X207025000Y-45435000D01*
X207025000Y-58435000D02*
X207025000Y-57435000D01*
X209550000Y-41910000D02*
X209550000Y-60960000D01*
X209550000Y-60960000D02*
X190500000Y-60960000D01*
%TO.C,SW28*%
X228600000Y-38100000D02*
X247650000Y-38100000D01*
X228600000Y-57150000D02*
X228600000Y-38100000D01*
X231125000Y-40625000D02*
X232125000Y-40625000D01*
X231125000Y-41625000D02*
X231125000Y-40625000D01*
X231125000Y-53625000D02*
X231125000Y-54625000D01*
X231125000Y-54625000D02*
X232125000Y-54625000D01*
X244125000Y-54625000D02*
X245125000Y-54625000D01*
X245125000Y-40625000D02*
X244125000Y-40625000D01*
X245125000Y-40625000D02*
X245125000Y-41625000D01*
X245125000Y-54625000D02*
X245125000Y-53625000D01*
X247650000Y-38100000D02*
X247650000Y-57150000D01*
X247650000Y-57150000D02*
X228600000Y-57150000D01*
%TO.C,SW9*%
X190500000Y-3810000D02*
X209550000Y-3810000D01*
X190500000Y-22860000D02*
X190500000Y-3810000D01*
X193025000Y-6335000D02*
X194025000Y-6335000D01*
X193025000Y-7335000D02*
X193025000Y-6335000D01*
X193025000Y-19335000D02*
X193025000Y-20335000D01*
X193025000Y-20335000D02*
X194025000Y-20335000D01*
X206025000Y-20335000D02*
X207025000Y-20335000D01*
X207025000Y-6335000D02*
X206025000Y-6335000D01*
X207025000Y-6335000D02*
X207025000Y-7335000D01*
X207025000Y-20335000D02*
X207025000Y-19335000D01*
X209550000Y-3810000D02*
X209550000Y-22860000D01*
X209550000Y-22860000D02*
X190500000Y-22860000D01*
%TO.C,SW24*%
X285750050Y-23812500D02*
X309562550Y-23812500D01*
X285750050Y-42862500D02*
X285750050Y-23812500D01*
X290656300Y-26337500D02*
X291656300Y-26337500D01*
X290656300Y-27337500D02*
X290656300Y-26337500D01*
X290656300Y-39337500D02*
X290656300Y-40337500D01*
X290656300Y-40337500D02*
X291656300Y-40337500D01*
X303656300Y-40337500D02*
X304656300Y-40337500D01*
X304656300Y-26337500D02*
X303656300Y-26337500D01*
X304656300Y-26337500D02*
X304656300Y-27337500D01*
X304656300Y-40337500D02*
X304656300Y-39337500D01*
X309562550Y-23812500D02*
X309562550Y-42862500D01*
X309562550Y-42862500D02*
X285750050Y-42862500D01*
%TO.C,SW21*%
X190500000Y-22860000D02*
X209550000Y-22860000D01*
X190500000Y-41910000D02*
X190500000Y-22860000D01*
X193025000Y-25385000D02*
X194025000Y-25385000D01*
X193025000Y-26385000D02*
X193025000Y-25385000D01*
X193025000Y-38385000D02*
X193025000Y-39385000D01*
X193025000Y-39385000D02*
X194025000Y-39385000D01*
X206025000Y-39385000D02*
X207025000Y-39385000D01*
X207025000Y-25385000D02*
X206025000Y-25385000D01*
X207025000Y-25385000D02*
X207025000Y-26385000D01*
X207025000Y-39385000D02*
X207025000Y-38385000D01*
X209550000Y-22860000D02*
X209550000Y-41910000D01*
X209550000Y-41910000D02*
X190500000Y-41910000D01*
%TO.C,SW50*%
X266700000Y-60960000D02*
X285750000Y-60960000D01*
X266700000Y-80010000D02*
X266700000Y-60960000D01*
X269225000Y-63485000D02*
X270225000Y-63485000D01*
X269225000Y-64485000D02*
X269225000Y-63485000D01*
X269225000Y-76485000D02*
X269225000Y-77485000D01*
X269225000Y-77485000D02*
X270225000Y-77485000D01*
X282225000Y-77485000D02*
X283225000Y-77485000D01*
X283225000Y-63485000D02*
X282225000Y-63485000D01*
X283225000Y-63485000D02*
X283225000Y-64485000D01*
X283225000Y-77485000D02*
X283225000Y-76485000D01*
X285750000Y-60960000D02*
X285750000Y-80010000D01*
X285750000Y-80010000D02*
X266700000Y-80010000D01*
%TD*%
M02*
