%TF.GenerationSoftware,KiCad,Pcbnew,10.0.5*%
%TF.CreationDate,2026-09-23T03:24:45+09:00*%
%TF.ProjectId,keyboard,6b657962-6f61-4726-942e-6b696361645f,rev?*%
%TF.SameCoordinates,Original*%
%TF.FileFunction,AssemblyDrawing,Top*%
%FSLAX46Y46*%
G04 Gerber Fmt 4.6, Leading zero omitted, Abs format (unit mm)*
G04 Created by KiCad (PCBNEW 10.0.5) date 2026-09-23 03:24:45*
%MOMM*%
%LPD*%
G01*
G04 APERTURE LIST*
%ADD10C,0.150000*%
%ADD11C,0.125000*%
%ADD12C,0.101600*%
%ADD13C,0.100000*%
%ADD14C,0.120000*%
%ADD15C,0.127000*%
G04 APERTURE END LIST*
D10*
X177907200Y-32333332D02*
X177954819Y-32190475D01*
X177954819Y-32190475D02*
X177954819Y-31952380D01*
X177954819Y-31952380D02*
X177907200Y-31857142D01*
X177907200Y-31857142D02*
X177859580Y-31809523D01*
X177859580Y-31809523D02*
X177764342Y-31761904D01*
X177764342Y-31761904D02*
X177669104Y-31761904D01*
X177669104Y-31761904D02*
X177573866Y-31809523D01*
X177573866Y-31809523D02*
X177526247Y-31857142D01*
X177526247Y-31857142D02*
X177478628Y-31952380D01*
X177478628Y-31952380D02*
X177431009Y-32142856D01*
X177431009Y-32142856D02*
X177383390Y-32238094D01*
X177383390Y-32238094D02*
X177335771Y-32285713D01*
X177335771Y-32285713D02*
X177240533Y-32333332D01*
X177240533Y-32333332D02*
X177145295Y-32333332D01*
X177145295Y-32333332D02*
X177050057Y-32285713D01*
X177050057Y-32285713D02*
X177002438Y-32238094D01*
X177002438Y-32238094D02*
X176954819Y-32142856D01*
X176954819Y-32142856D02*
X176954819Y-31904761D01*
X176954819Y-31904761D02*
X177002438Y-31761904D01*
X176954819Y-31428570D02*
X177954819Y-31190475D01*
X177954819Y-31190475D02*
X177240533Y-30999999D01*
X177240533Y-30999999D02*
X177954819Y-30809523D01*
X177954819Y-30809523D02*
X176954819Y-30571428D01*
X177954819Y-30190475D02*
X176954819Y-30190475D01*
X176954819Y-30190475D02*
X176954819Y-29809523D01*
X176954819Y-29809523D02*
X177002438Y-29714285D01*
X177002438Y-29714285D02*
X177050057Y-29666666D01*
X177050057Y-29666666D02*
X177145295Y-29619047D01*
X177145295Y-29619047D02*
X177288152Y-29619047D01*
X177288152Y-29619047D02*
X177383390Y-29666666D01*
X177383390Y-29666666D02*
X177431009Y-29714285D01*
X177431009Y-29714285D02*
X177478628Y-29809523D01*
X177478628Y-29809523D02*
X177478628Y-30190475D01*
X177050057Y-29238094D02*
X177002438Y-29190475D01*
X177002438Y-29190475D02*
X176954819Y-29095237D01*
X176954819Y-29095237D02*
X176954819Y-28857142D01*
X176954819Y-28857142D02*
X177002438Y-28761904D01*
X177002438Y-28761904D02*
X177050057Y-28714285D01*
X177050057Y-28714285D02*
X177145295Y-28666666D01*
X177145295Y-28666666D02*
X177240533Y-28666666D01*
X177240533Y-28666666D02*
X177383390Y-28714285D01*
X177383390Y-28714285D02*
X177954819Y-29285713D01*
X177954819Y-29285713D02*
X177954819Y-28666666D01*
D11*
X178060880Y-41714286D02*
X178108500Y-41761905D01*
X178108500Y-41761905D02*
X178156119Y-41904762D01*
X178156119Y-41904762D02*
X178156119Y-42000000D01*
X178156119Y-42000000D02*
X178108500Y-42142857D01*
X178108500Y-42142857D02*
X178013261Y-42238095D01*
X178013261Y-42238095D02*
X177918023Y-42285714D01*
X177918023Y-42285714D02*
X177727547Y-42333333D01*
X177727547Y-42333333D02*
X177584690Y-42333333D01*
X177584690Y-42333333D02*
X177394214Y-42285714D01*
X177394214Y-42285714D02*
X177298976Y-42238095D01*
X177298976Y-42238095D02*
X177203738Y-42142857D01*
X177203738Y-42142857D02*
X177156119Y-42000000D01*
X177156119Y-42000000D02*
X177156119Y-41904762D01*
X177156119Y-41904762D02*
X177203738Y-41761905D01*
X177203738Y-41761905D02*
X177251357Y-41714286D01*
X178251357Y-41523810D02*
X178251357Y-40761905D01*
X178156119Y-39952381D02*
X177679928Y-40285714D01*
X178156119Y-40523809D02*
X177156119Y-40523809D01*
X177156119Y-40523809D02*
X177156119Y-40142857D01*
X177156119Y-40142857D02*
X177203738Y-40047619D01*
X177203738Y-40047619D02*
X177251357Y-40000000D01*
X177251357Y-40000000D02*
X177346595Y-39952381D01*
X177346595Y-39952381D02*
X177489452Y-39952381D01*
X177489452Y-39952381D02*
X177584690Y-40000000D01*
X177584690Y-40000000D02*
X177632309Y-40047619D01*
X177632309Y-40047619D02*
X177679928Y-40142857D01*
X177679928Y-40142857D02*
X177679928Y-40523809D01*
X177203738Y-39000000D02*
X177156119Y-39095238D01*
X177156119Y-39095238D02*
X177156119Y-39238095D01*
X177156119Y-39238095D02*
X177203738Y-39380952D01*
X177203738Y-39380952D02*
X177298976Y-39476190D01*
X177298976Y-39476190D02*
X177394214Y-39523809D01*
X177394214Y-39523809D02*
X177584690Y-39571428D01*
X177584690Y-39571428D02*
X177727547Y-39571428D01*
X177727547Y-39571428D02*
X177918023Y-39523809D01*
X177918023Y-39523809D02*
X178013261Y-39476190D01*
X178013261Y-39476190D02*
X178108500Y-39380952D01*
X178108500Y-39380952D02*
X178156119Y-39238095D01*
X178156119Y-39238095D02*
X178156119Y-39142857D01*
X178156119Y-39142857D02*
X178108500Y-39000000D01*
X178108500Y-39000000D02*
X178060880Y-38952381D01*
X178060880Y-38952381D02*
X177727547Y-38952381D01*
X177727547Y-38952381D02*
X177727547Y-39142857D01*
X177632309Y-38190476D02*
X177679928Y-38047619D01*
X177679928Y-38047619D02*
X177727547Y-38000000D01*
X177727547Y-38000000D02*
X177822785Y-37952381D01*
X177822785Y-37952381D02*
X177965642Y-37952381D01*
X177965642Y-37952381D02*
X178060880Y-38000000D01*
X178060880Y-38000000D02*
X178108500Y-38047619D01*
X178108500Y-38047619D02*
X178156119Y-38142857D01*
X178156119Y-38142857D02*
X178156119Y-38523809D01*
X178156119Y-38523809D02*
X177156119Y-38523809D01*
X177156119Y-38523809D02*
X177156119Y-38190476D01*
X177156119Y-38190476D02*
X177203738Y-38095238D01*
X177203738Y-38095238D02*
X177251357Y-38047619D01*
X177251357Y-38047619D02*
X177346595Y-38000000D01*
X177346595Y-38000000D02*
X177441833Y-38000000D01*
X177441833Y-38000000D02*
X177537071Y-38047619D01*
X177537071Y-38047619D02*
X177584690Y-38095238D01*
X177584690Y-38095238D02*
X177632309Y-38190476D01*
X177632309Y-38190476D02*
X177632309Y-38523809D01*
X178251357Y-37761905D02*
X178251357Y-37000000D01*
X177156119Y-36571428D02*
X177156119Y-36380952D01*
X177156119Y-36380952D02*
X177203738Y-36285714D01*
X177203738Y-36285714D02*
X177298976Y-36190476D01*
X177298976Y-36190476D02*
X177489452Y-36142857D01*
X177489452Y-36142857D02*
X177822785Y-36142857D01*
X177822785Y-36142857D02*
X178013261Y-36190476D01*
X178013261Y-36190476D02*
X178108500Y-36285714D01*
X178108500Y-36285714D02*
X178156119Y-36380952D01*
X178156119Y-36380952D02*
X178156119Y-36571428D01*
X178156119Y-36571428D02*
X178108500Y-36666666D01*
X178108500Y-36666666D02*
X178013261Y-36761904D01*
X178013261Y-36761904D02*
X177822785Y-36809523D01*
X177822785Y-36809523D02*
X177489452Y-36809523D01*
X177489452Y-36809523D02*
X177298976Y-36761904D01*
X177298976Y-36761904D02*
X177203738Y-36666666D01*
X177203738Y-36666666D02*
X177156119Y-36571428D01*
X177156119Y-35714285D02*
X177965642Y-35714285D01*
X177965642Y-35714285D02*
X178060880Y-35666666D01*
X178060880Y-35666666D02*
X178108500Y-35619047D01*
X178108500Y-35619047D02*
X178156119Y-35523809D01*
X178156119Y-35523809D02*
X178156119Y-35333333D01*
X178156119Y-35333333D02*
X178108500Y-35238095D01*
X178108500Y-35238095D02*
X178060880Y-35190476D01*
X178060880Y-35190476D02*
X177965642Y-35142857D01*
X177965642Y-35142857D02*
X177156119Y-35142857D01*
X177156119Y-34809523D02*
X177156119Y-34238095D01*
X178156119Y-34523809D02*
X177156119Y-34523809D01*
X178156119Y-33380952D02*
X178156119Y-33952380D01*
X178156119Y-33666666D02*
X177156119Y-33666666D01*
X177156119Y-33666666D02*
X177298976Y-33761904D01*
X177298976Y-33761904D02*
X177394214Y-33857142D01*
X177394214Y-33857142D02*
X177441833Y-33952380D01*
X178251357Y-33190476D02*
X178251357Y-32428571D01*
X177251357Y-32238094D02*
X177203738Y-32190475D01*
X177203738Y-32190475D02*
X177156119Y-32095237D01*
X177156119Y-32095237D02*
X177156119Y-31857142D01*
X177156119Y-31857142D02*
X177203738Y-31761904D01*
X177203738Y-31761904D02*
X177251357Y-31714285D01*
X177251357Y-31714285D02*
X177346595Y-31666666D01*
X177346595Y-31666666D02*
X177441833Y-31666666D01*
X177441833Y-31666666D02*
X177584690Y-31714285D01*
X177584690Y-31714285D02*
X178156119Y-32285713D01*
X178156119Y-32285713D02*
X178156119Y-31666666D01*
X175560880Y-41714286D02*
X175608500Y-41761905D01*
X175608500Y-41761905D02*
X175656119Y-41904762D01*
X175656119Y-41904762D02*
X175656119Y-42000000D01*
X175656119Y-42000000D02*
X175608500Y-42142857D01*
X175608500Y-42142857D02*
X175513261Y-42238095D01*
X175513261Y-42238095D02*
X175418023Y-42285714D01*
X175418023Y-42285714D02*
X175227547Y-42333333D01*
X175227547Y-42333333D02*
X175084690Y-42333333D01*
X175084690Y-42333333D02*
X174894214Y-42285714D01*
X174894214Y-42285714D02*
X174798976Y-42238095D01*
X174798976Y-42238095D02*
X174703738Y-42142857D01*
X174703738Y-42142857D02*
X174656119Y-42000000D01*
X174656119Y-42000000D02*
X174656119Y-41904762D01*
X174656119Y-41904762D02*
X174703738Y-41761905D01*
X174703738Y-41761905D02*
X174751357Y-41714286D01*
X175751357Y-41523810D02*
X175751357Y-40761905D01*
X175656119Y-39952381D02*
X175179928Y-40285714D01*
X175656119Y-40523809D02*
X174656119Y-40523809D01*
X174656119Y-40523809D02*
X174656119Y-40142857D01*
X174656119Y-40142857D02*
X174703738Y-40047619D01*
X174703738Y-40047619D02*
X174751357Y-40000000D01*
X174751357Y-40000000D02*
X174846595Y-39952381D01*
X174846595Y-39952381D02*
X174989452Y-39952381D01*
X174989452Y-39952381D02*
X175084690Y-40000000D01*
X175084690Y-40000000D02*
X175132309Y-40047619D01*
X175132309Y-40047619D02*
X175179928Y-40142857D01*
X175179928Y-40142857D02*
X175179928Y-40523809D01*
X174703738Y-39000000D02*
X174656119Y-39095238D01*
X174656119Y-39095238D02*
X174656119Y-39238095D01*
X174656119Y-39238095D02*
X174703738Y-39380952D01*
X174703738Y-39380952D02*
X174798976Y-39476190D01*
X174798976Y-39476190D02*
X174894214Y-39523809D01*
X174894214Y-39523809D02*
X175084690Y-39571428D01*
X175084690Y-39571428D02*
X175227547Y-39571428D01*
X175227547Y-39571428D02*
X175418023Y-39523809D01*
X175418023Y-39523809D02*
X175513261Y-39476190D01*
X175513261Y-39476190D02*
X175608500Y-39380952D01*
X175608500Y-39380952D02*
X175656119Y-39238095D01*
X175656119Y-39238095D02*
X175656119Y-39142857D01*
X175656119Y-39142857D02*
X175608500Y-39000000D01*
X175608500Y-39000000D02*
X175560880Y-38952381D01*
X175560880Y-38952381D02*
X175227547Y-38952381D01*
X175227547Y-38952381D02*
X175227547Y-39142857D01*
X175132309Y-38190476D02*
X175179928Y-38047619D01*
X175179928Y-38047619D02*
X175227547Y-38000000D01*
X175227547Y-38000000D02*
X175322785Y-37952381D01*
X175322785Y-37952381D02*
X175465642Y-37952381D01*
X175465642Y-37952381D02*
X175560880Y-38000000D01*
X175560880Y-38000000D02*
X175608500Y-38047619D01*
X175608500Y-38047619D02*
X175656119Y-38142857D01*
X175656119Y-38142857D02*
X175656119Y-38523809D01*
X175656119Y-38523809D02*
X174656119Y-38523809D01*
X174656119Y-38523809D02*
X174656119Y-38190476D01*
X174656119Y-38190476D02*
X174703738Y-38095238D01*
X174703738Y-38095238D02*
X174751357Y-38047619D01*
X174751357Y-38047619D02*
X174846595Y-38000000D01*
X174846595Y-38000000D02*
X174941833Y-38000000D01*
X174941833Y-38000000D02*
X175037071Y-38047619D01*
X175037071Y-38047619D02*
X175084690Y-38095238D01*
X175084690Y-38095238D02*
X175132309Y-38190476D01*
X175132309Y-38190476D02*
X175132309Y-38523809D01*
X175751357Y-37761905D02*
X175751357Y-37000000D01*
X174656119Y-36571428D02*
X174656119Y-36380952D01*
X174656119Y-36380952D02*
X174703738Y-36285714D01*
X174703738Y-36285714D02*
X174798976Y-36190476D01*
X174798976Y-36190476D02*
X174989452Y-36142857D01*
X174989452Y-36142857D02*
X175322785Y-36142857D01*
X175322785Y-36142857D02*
X175513261Y-36190476D01*
X175513261Y-36190476D02*
X175608500Y-36285714D01*
X175608500Y-36285714D02*
X175656119Y-36380952D01*
X175656119Y-36380952D02*
X175656119Y-36571428D01*
X175656119Y-36571428D02*
X175608500Y-36666666D01*
X175608500Y-36666666D02*
X175513261Y-36761904D01*
X175513261Y-36761904D02*
X175322785Y-36809523D01*
X175322785Y-36809523D02*
X174989452Y-36809523D01*
X174989452Y-36809523D02*
X174798976Y-36761904D01*
X174798976Y-36761904D02*
X174703738Y-36666666D01*
X174703738Y-36666666D02*
X174656119Y-36571428D01*
X174656119Y-35714285D02*
X175465642Y-35714285D01*
X175465642Y-35714285D02*
X175560880Y-35666666D01*
X175560880Y-35666666D02*
X175608500Y-35619047D01*
X175608500Y-35619047D02*
X175656119Y-35523809D01*
X175656119Y-35523809D02*
X175656119Y-35333333D01*
X175656119Y-35333333D02*
X175608500Y-35238095D01*
X175608500Y-35238095D02*
X175560880Y-35190476D01*
X175560880Y-35190476D02*
X175465642Y-35142857D01*
X175465642Y-35142857D02*
X174656119Y-35142857D01*
X174656119Y-34809523D02*
X174656119Y-34238095D01*
X175656119Y-34523809D02*
X174656119Y-34523809D01*
X174751357Y-33952380D02*
X174703738Y-33904761D01*
X174703738Y-33904761D02*
X174656119Y-33809523D01*
X174656119Y-33809523D02*
X174656119Y-33571428D01*
X174656119Y-33571428D02*
X174703738Y-33476190D01*
X174703738Y-33476190D02*
X174751357Y-33428571D01*
X174751357Y-33428571D02*
X174846595Y-33380952D01*
X174846595Y-33380952D02*
X174941833Y-33380952D01*
X174941833Y-33380952D02*
X175084690Y-33428571D01*
X175084690Y-33428571D02*
X175656119Y-33999999D01*
X175656119Y-33999999D02*
X175656119Y-33380952D01*
X175751357Y-33190476D02*
X175751357Y-32428571D01*
X174751357Y-32238094D02*
X174703738Y-32190475D01*
X174703738Y-32190475D02*
X174656119Y-32095237D01*
X174656119Y-32095237D02*
X174656119Y-31857142D01*
X174656119Y-31857142D02*
X174703738Y-31761904D01*
X174703738Y-31761904D02*
X174751357Y-31714285D01*
X174751357Y-31714285D02*
X174846595Y-31666666D01*
X174846595Y-31666666D02*
X174941833Y-31666666D01*
X174941833Y-31666666D02*
X175084690Y-31714285D01*
X175084690Y-31714285D02*
X175656119Y-32285713D01*
X175656119Y-32285713D02*
X175656119Y-31666666D01*
X187333332Y-23506119D02*
X186999999Y-23029928D01*
X186761904Y-23506119D02*
X186761904Y-22506119D01*
X186761904Y-22506119D02*
X187142856Y-22506119D01*
X187142856Y-22506119D02*
X187238094Y-22553738D01*
X187238094Y-22553738D02*
X187285713Y-22601357D01*
X187285713Y-22601357D02*
X187333332Y-22696595D01*
X187333332Y-22696595D02*
X187333332Y-22839452D01*
X187333332Y-22839452D02*
X187285713Y-22934690D01*
X187285713Y-22934690D02*
X187238094Y-22982309D01*
X187238094Y-22982309D02*
X187142856Y-23029928D01*
X187142856Y-23029928D02*
X186761904Y-23029928D01*
X187523809Y-23601357D02*
X188285713Y-23601357D01*
X189095237Y-23506119D02*
X188761904Y-23029928D01*
X188523809Y-23506119D02*
X188523809Y-22506119D01*
X188523809Y-22506119D02*
X188904761Y-22506119D01*
X188904761Y-22506119D02*
X188999999Y-22553738D01*
X188999999Y-22553738D02*
X189047618Y-22601357D01*
X189047618Y-22601357D02*
X189095237Y-22696595D01*
X189095237Y-22696595D02*
X189095237Y-22839452D01*
X189095237Y-22839452D02*
X189047618Y-22934690D01*
X189047618Y-22934690D02*
X188999999Y-22982309D01*
X188999999Y-22982309D02*
X188904761Y-23029928D01*
X188904761Y-23029928D02*
X188523809Y-23029928D01*
X190047618Y-22553738D02*
X189952380Y-22506119D01*
X189952380Y-22506119D02*
X189809523Y-22506119D01*
X189809523Y-22506119D02*
X189666666Y-22553738D01*
X189666666Y-22553738D02*
X189571428Y-22648976D01*
X189571428Y-22648976D02*
X189523809Y-22744214D01*
X189523809Y-22744214D02*
X189476190Y-22934690D01*
X189476190Y-22934690D02*
X189476190Y-23077547D01*
X189476190Y-23077547D02*
X189523809Y-23268023D01*
X189523809Y-23268023D02*
X189571428Y-23363261D01*
X189571428Y-23363261D02*
X189666666Y-23458500D01*
X189666666Y-23458500D02*
X189809523Y-23506119D01*
X189809523Y-23506119D02*
X189904761Y-23506119D01*
X189904761Y-23506119D02*
X190047618Y-23458500D01*
X190047618Y-23458500D02*
X190095237Y-23410880D01*
X190095237Y-23410880D02*
X190095237Y-23077547D01*
X190095237Y-23077547D02*
X189904761Y-23077547D01*
X190857142Y-22982309D02*
X190999999Y-23029928D01*
X190999999Y-23029928D02*
X191047618Y-23077547D01*
X191047618Y-23077547D02*
X191095237Y-23172785D01*
X191095237Y-23172785D02*
X191095237Y-23315642D01*
X191095237Y-23315642D02*
X191047618Y-23410880D01*
X191047618Y-23410880D02*
X190999999Y-23458500D01*
X190999999Y-23458500D02*
X190904761Y-23506119D01*
X190904761Y-23506119D02*
X190523809Y-23506119D01*
X190523809Y-23506119D02*
X190523809Y-22506119D01*
X190523809Y-22506119D02*
X190857142Y-22506119D01*
X190857142Y-22506119D02*
X190952380Y-22553738D01*
X190952380Y-22553738D02*
X190999999Y-22601357D01*
X190999999Y-22601357D02*
X191047618Y-22696595D01*
X191047618Y-22696595D02*
X191047618Y-22791833D01*
X191047618Y-22791833D02*
X190999999Y-22887071D01*
X190999999Y-22887071D02*
X190952380Y-22934690D01*
X190952380Y-22934690D02*
X190857142Y-22982309D01*
X190857142Y-22982309D02*
X190523809Y-22982309D01*
X191285714Y-23601357D02*
X192047618Y-23601357D01*
X192285714Y-23506119D02*
X192285714Y-22506119D01*
X192285714Y-22506119D02*
X192523809Y-22506119D01*
X192523809Y-22506119D02*
X192666666Y-22553738D01*
X192666666Y-22553738D02*
X192761904Y-22648976D01*
X192761904Y-22648976D02*
X192809523Y-22744214D01*
X192809523Y-22744214D02*
X192857142Y-22934690D01*
X192857142Y-22934690D02*
X192857142Y-23077547D01*
X192857142Y-23077547D02*
X192809523Y-23268023D01*
X192809523Y-23268023D02*
X192761904Y-23363261D01*
X192761904Y-23363261D02*
X192666666Y-23458500D01*
X192666666Y-23458500D02*
X192523809Y-23506119D01*
X192523809Y-23506119D02*
X192285714Y-23506119D01*
X193238095Y-23220404D02*
X193714285Y-23220404D01*
X193142857Y-23506119D02*
X193476190Y-22506119D01*
X193476190Y-22506119D02*
X193809523Y-23506119D01*
X194000000Y-22506119D02*
X194571428Y-22506119D01*
X194285714Y-23506119D02*
X194285714Y-22506119D01*
X194857143Y-23220404D02*
X195333333Y-23220404D01*
X194761905Y-23506119D02*
X195095238Y-22506119D01*
X195095238Y-22506119D02*
X195428571Y-23506119D01*
X195714286Y-22601357D02*
X195761905Y-22553738D01*
X195761905Y-22553738D02*
X195857143Y-22506119D01*
X195857143Y-22506119D02*
X196095238Y-22506119D01*
X196095238Y-22506119D02*
X196190476Y-22553738D01*
X196190476Y-22553738D02*
X196238095Y-22601357D01*
X196238095Y-22601357D02*
X196285714Y-22696595D01*
X196285714Y-22696595D02*
X196285714Y-22791833D01*
X196285714Y-22791833D02*
X196238095Y-22934690D01*
X196238095Y-22934690D02*
X195666667Y-23506119D01*
X195666667Y-23506119D02*
X196285714Y-23506119D01*
X186071428Y-21410880D02*
X186023809Y-21458500D01*
X186023809Y-21458500D02*
X185880952Y-21506119D01*
X185880952Y-21506119D02*
X185785714Y-21506119D01*
X185785714Y-21506119D02*
X185642857Y-21458500D01*
X185642857Y-21458500D02*
X185547619Y-21363261D01*
X185547619Y-21363261D02*
X185500000Y-21268023D01*
X185500000Y-21268023D02*
X185452381Y-21077547D01*
X185452381Y-21077547D02*
X185452381Y-20934690D01*
X185452381Y-20934690D02*
X185500000Y-20744214D01*
X185500000Y-20744214D02*
X185547619Y-20648976D01*
X185547619Y-20648976D02*
X185642857Y-20553738D01*
X185642857Y-20553738D02*
X185785714Y-20506119D01*
X185785714Y-20506119D02*
X185880952Y-20506119D01*
X185880952Y-20506119D02*
X186023809Y-20553738D01*
X186023809Y-20553738D02*
X186071428Y-20601357D01*
X186261905Y-21601357D02*
X187023809Y-21601357D01*
X187738095Y-21506119D02*
X187261905Y-21506119D01*
X187261905Y-21506119D02*
X187261905Y-20506119D01*
X188023810Y-21458500D02*
X188166667Y-21506119D01*
X188166667Y-21506119D02*
X188404762Y-21506119D01*
X188404762Y-21506119D02*
X188500000Y-21458500D01*
X188500000Y-21458500D02*
X188547619Y-21410880D01*
X188547619Y-21410880D02*
X188595238Y-21315642D01*
X188595238Y-21315642D02*
X188595238Y-21220404D01*
X188595238Y-21220404D02*
X188547619Y-21125166D01*
X188547619Y-21125166D02*
X188500000Y-21077547D01*
X188500000Y-21077547D02*
X188404762Y-21029928D01*
X188404762Y-21029928D02*
X188214286Y-20982309D01*
X188214286Y-20982309D02*
X188119048Y-20934690D01*
X188119048Y-20934690D02*
X188071429Y-20887071D01*
X188071429Y-20887071D02*
X188023810Y-20791833D01*
X188023810Y-20791833D02*
X188023810Y-20696595D01*
X188023810Y-20696595D02*
X188071429Y-20601357D01*
X188071429Y-20601357D02*
X188119048Y-20553738D01*
X188119048Y-20553738D02*
X188214286Y-20506119D01*
X188214286Y-20506119D02*
X188452381Y-20506119D01*
X188452381Y-20506119D02*
X188595238Y-20553738D01*
X188976191Y-20601357D02*
X189023810Y-20553738D01*
X189023810Y-20553738D02*
X189119048Y-20506119D01*
X189119048Y-20506119D02*
X189357143Y-20506119D01*
X189357143Y-20506119D02*
X189452381Y-20553738D01*
X189452381Y-20553738D02*
X189500000Y-20601357D01*
X189500000Y-20601357D02*
X189547619Y-20696595D01*
X189547619Y-20696595D02*
X189547619Y-20791833D01*
X189547619Y-20791833D02*
X189500000Y-20934690D01*
X189500000Y-20934690D02*
X188928572Y-21506119D01*
X188928572Y-21506119D02*
X189547619Y-21506119D01*
X177007142Y-38506119D02*
X176673809Y-38029928D01*
X176435714Y-38506119D02*
X176435714Y-37506119D01*
X176435714Y-37506119D02*
X176816666Y-37506119D01*
X176816666Y-37506119D02*
X176911904Y-37553738D01*
X176911904Y-37553738D02*
X176959523Y-37601357D01*
X176959523Y-37601357D02*
X177007142Y-37696595D01*
X177007142Y-37696595D02*
X177007142Y-37839452D01*
X177007142Y-37839452D02*
X176959523Y-37934690D01*
X176959523Y-37934690D02*
X176911904Y-37982309D01*
X176911904Y-37982309D02*
X176816666Y-38029928D01*
X176816666Y-38029928D02*
X176435714Y-38029928D01*
X177197619Y-38601357D02*
X177959523Y-38601357D01*
X178769047Y-38506119D02*
X178435714Y-38029928D01*
X178197619Y-38506119D02*
X178197619Y-37506119D01*
X178197619Y-37506119D02*
X178578571Y-37506119D01*
X178578571Y-37506119D02*
X178673809Y-37553738D01*
X178673809Y-37553738D02*
X178721428Y-37601357D01*
X178721428Y-37601357D02*
X178769047Y-37696595D01*
X178769047Y-37696595D02*
X178769047Y-37839452D01*
X178769047Y-37839452D02*
X178721428Y-37934690D01*
X178721428Y-37934690D02*
X178673809Y-37982309D01*
X178673809Y-37982309D02*
X178578571Y-38029928D01*
X178578571Y-38029928D02*
X178197619Y-38029928D01*
X179721428Y-37553738D02*
X179626190Y-37506119D01*
X179626190Y-37506119D02*
X179483333Y-37506119D01*
X179483333Y-37506119D02*
X179340476Y-37553738D01*
X179340476Y-37553738D02*
X179245238Y-37648976D01*
X179245238Y-37648976D02*
X179197619Y-37744214D01*
X179197619Y-37744214D02*
X179150000Y-37934690D01*
X179150000Y-37934690D02*
X179150000Y-38077547D01*
X179150000Y-38077547D02*
X179197619Y-38268023D01*
X179197619Y-38268023D02*
X179245238Y-38363261D01*
X179245238Y-38363261D02*
X179340476Y-38458500D01*
X179340476Y-38458500D02*
X179483333Y-38506119D01*
X179483333Y-38506119D02*
X179578571Y-38506119D01*
X179578571Y-38506119D02*
X179721428Y-38458500D01*
X179721428Y-38458500D02*
X179769047Y-38410880D01*
X179769047Y-38410880D02*
X179769047Y-38077547D01*
X179769047Y-38077547D02*
X179578571Y-38077547D01*
X180530952Y-37982309D02*
X180673809Y-38029928D01*
X180673809Y-38029928D02*
X180721428Y-38077547D01*
X180721428Y-38077547D02*
X180769047Y-38172785D01*
X180769047Y-38172785D02*
X180769047Y-38315642D01*
X180769047Y-38315642D02*
X180721428Y-38410880D01*
X180721428Y-38410880D02*
X180673809Y-38458500D01*
X180673809Y-38458500D02*
X180578571Y-38506119D01*
X180578571Y-38506119D02*
X180197619Y-38506119D01*
X180197619Y-38506119D02*
X180197619Y-37506119D01*
X180197619Y-37506119D02*
X180530952Y-37506119D01*
X180530952Y-37506119D02*
X180626190Y-37553738D01*
X180626190Y-37553738D02*
X180673809Y-37601357D01*
X180673809Y-37601357D02*
X180721428Y-37696595D01*
X180721428Y-37696595D02*
X180721428Y-37791833D01*
X180721428Y-37791833D02*
X180673809Y-37887071D01*
X180673809Y-37887071D02*
X180626190Y-37934690D01*
X180626190Y-37934690D02*
X180530952Y-37982309D01*
X180530952Y-37982309D02*
X180197619Y-37982309D01*
X180959524Y-38601357D02*
X181721428Y-38601357D01*
X182292857Y-37982309D02*
X181959524Y-37982309D01*
X181959524Y-38506119D02*
X181959524Y-37506119D01*
X181959524Y-37506119D02*
X182435714Y-37506119D01*
X183150000Y-37982309D02*
X183292857Y-38029928D01*
X183292857Y-38029928D02*
X183340476Y-38077547D01*
X183340476Y-38077547D02*
X183388095Y-38172785D01*
X183388095Y-38172785D02*
X183388095Y-38315642D01*
X183388095Y-38315642D02*
X183340476Y-38410880D01*
X183340476Y-38410880D02*
X183292857Y-38458500D01*
X183292857Y-38458500D02*
X183197619Y-38506119D01*
X183197619Y-38506119D02*
X182816667Y-38506119D01*
X182816667Y-38506119D02*
X182816667Y-37506119D01*
X182816667Y-37506119D02*
X183150000Y-37506119D01*
X183150000Y-37506119D02*
X183245238Y-37553738D01*
X183245238Y-37553738D02*
X183292857Y-37601357D01*
X183292857Y-37601357D02*
X183340476Y-37696595D01*
X183340476Y-37696595D02*
X183340476Y-37791833D01*
X183340476Y-37791833D02*
X183292857Y-37887071D01*
X183292857Y-37887071D02*
X183245238Y-37934690D01*
X183245238Y-37934690D02*
X183150000Y-37982309D01*
X183150000Y-37982309D02*
X182816667Y-37982309D01*
X183578572Y-38601357D02*
X184340476Y-38601357D01*
X184435715Y-37506119D02*
X185007143Y-37506119D01*
X184721429Y-38506119D02*
X184721429Y-37506119D01*
X185530953Y-37506119D02*
X185721429Y-37506119D01*
X185721429Y-37506119D02*
X185816667Y-37553738D01*
X185816667Y-37553738D02*
X185911905Y-37648976D01*
X185911905Y-37648976D02*
X185959524Y-37839452D01*
X185959524Y-37839452D02*
X185959524Y-38172785D01*
X185959524Y-38172785D02*
X185911905Y-38363261D01*
X185911905Y-38363261D02*
X185816667Y-38458500D01*
X185816667Y-38458500D02*
X185721429Y-38506119D01*
X185721429Y-38506119D02*
X185530953Y-38506119D01*
X185530953Y-38506119D02*
X185435715Y-38458500D01*
X185435715Y-38458500D02*
X185340477Y-38363261D01*
X185340477Y-38363261D02*
X185292858Y-38172785D01*
X185292858Y-38172785D02*
X185292858Y-37839452D01*
X185292858Y-37839452D02*
X185340477Y-37648976D01*
X185340477Y-37648976D02*
X185435715Y-37553738D01*
X185435715Y-37553738D02*
X185530953Y-37506119D01*
X186388096Y-38506119D02*
X186388096Y-37506119D01*
X186388096Y-37506119D02*
X186769048Y-37506119D01*
X186769048Y-37506119D02*
X186864286Y-37553738D01*
X186864286Y-37553738D02*
X186911905Y-37601357D01*
X186911905Y-37601357D02*
X186959524Y-37696595D01*
X186959524Y-37696595D02*
X186959524Y-37839452D01*
X186959524Y-37839452D02*
X186911905Y-37934690D01*
X186911905Y-37934690D02*
X186864286Y-37982309D01*
X186864286Y-37982309D02*
X186769048Y-38029928D01*
X186769048Y-38029928D02*
X186388096Y-38029928D01*
X187340477Y-37601357D02*
X187388096Y-37553738D01*
X187388096Y-37553738D02*
X187483334Y-37506119D01*
X187483334Y-37506119D02*
X187721429Y-37506119D01*
X187721429Y-37506119D02*
X187816667Y-37553738D01*
X187816667Y-37553738D02*
X187864286Y-37601357D01*
X187864286Y-37601357D02*
X187911905Y-37696595D01*
X187911905Y-37696595D02*
X187911905Y-37791833D01*
X187911905Y-37791833D02*
X187864286Y-37934690D01*
X187864286Y-37934690D02*
X187292858Y-38506119D01*
X187292858Y-38506119D02*
X187911905Y-38506119D01*
D10*
X185476190Y-22554819D02*
X185476190Y-23364342D01*
X185476190Y-23364342D02*
X185523809Y-23459580D01*
X185523809Y-23459580D02*
X185571428Y-23507200D01*
X185571428Y-23507200D02*
X185666666Y-23554819D01*
X185666666Y-23554819D02*
X185857142Y-23554819D01*
X185857142Y-23554819D02*
X185952380Y-23507200D01*
X185952380Y-23507200D02*
X185999999Y-23459580D01*
X185999999Y-23459580D02*
X186047618Y-23364342D01*
X186047618Y-23364342D02*
X186047618Y-22554819D01*
X186285714Y-23650057D02*
X187047618Y-23650057D01*
X187761904Y-23554819D02*
X187285714Y-23554819D01*
X187285714Y-23554819D02*
X187285714Y-22554819D01*
X188047619Y-23507200D02*
X188190476Y-23554819D01*
X188190476Y-23554819D02*
X188428571Y-23554819D01*
X188428571Y-23554819D02*
X188523809Y-23507200D01*
X188523809Y-23507200D02*
X188571428Y-23459580D01*
X188571428Y-23459580D02*
X188619047Y-23364342D01*
X188619047Y-23364342D02*
X188619047Y-23269104D01*
X188619047Y-23269104D02*
X188571428Y-23173866D01*
X188571428Y-23173866D02*
X188523809Y-23126247D01*
X188523809Y-23126247D02*
X188428571Y-23078628D01*
X188428571Y-23078628D02*
X188238095Y-23031009D01*
X188238095Y-23031009D02*
X188142857Y-22983390D01*
X188142857Y-22983390D02*
X188095238Y-22935771D01*
X188095238Y-22935771D02*
X188047619Y-22840533D01*
X188047619Y-22840533D02*
X188047619Y-22745295D01*
X188047619Y-22745295D02*
X188095238Y-22650057D01*
X188095238Y-22650057D02*
X188142857Y-22602438D01*
X188142857Y-22602438D02*
X188238095Y-22554819D01*
X188238095Y-22554819D02*
X188476190Y-22554819D01*
X188476190Y-22554819D02*
X188619047Y-22602438D01*
X189000000Y-22650057D02*
X189047619Y-22602438D01*
X189047619Y-22602438D02*
X189142857Y-22554819D01*
X189142857Y-22554819D02*
X189380952Y-22554819D01*
X189380952Y-22554819D02*
X189476190Y-22602438D01*
X189476190Y-22602438D02*
X189523809Y-22650057D01*
X189523809Y-22650057D02*
X189571428Y-22745295D01*
X189571428Y-22745295D02*
X189571428Y-22840533D01*
X189571428Y-22840533D02*
X189523809Y-22983390D01*
X189523809Y-22983390D02*
X188952381Y-23554819D01*
X188952381Y-23554819D02*
X189571428Y-23554819D01*
D11*
X180307142Y-38506119D02*
X179973809Y-38029928D01*
X179735714Y-38506119D02*
X179735714Y-37506119D01*
X179735714Y-37506119D02*
X180116666Y-37506119D01*
X180116666Y-37506119D02*
X180211904Y-37553738D01*
X180211904Y-37553738D02*
X180259523Y-37601357D01*
X180259523Y-37601357D02*
X180307142Y-37696595D01*
X180307142Y-37696595D02*
X180307142Y-37839452D01*
X180307142Y-37839452D02*
X180259523Y-37934690D01*
X180259523Y-37934690D02*
X180211904Y-37982309D01*
X180211904Y-37982309D02*
X180116666Y-38029928D01*
X180116666Y-38029928D02*
X179735714Y-38029928D01*
X180497619Y-38601357D02*
X181259523Y-38601357D01*
X182069047Y-38506119D02*
X181735714Y-38029928D01*
X181497619Y-38506119D02*
X181497619Y-37506119D01*
X181497619Y-37506119D02*
X181878571Y-37506119D01*
X181878571Y-37506119D02*
X181973809Y-37553738D01*
X181973809Y-37553738D02*
X182021428Y-37601357D01*
X182021428Y-37601357D02*
X182069047Y-37696595D01*
X182069047Y-37696595D02*
X182069047Y-37839452D01*
X182069047Y-37839452D02*
X182021428Y-37934690D01*
X182021428Y-37934690D02*
X181973809Y-37982309D01*
X181973809Y-37982309D02*
X181878571Y-38029928D01*
X181878571Y-38029928D02*
X181497619Y-38029928D01*
X183021428Y-37553738D02*
X182926190Y-37506119D01*
X182926190Y-37506119D02*
X182783333Y-37506119D01*
X182783333Y-37506119D02*
X182640476Y-37553738D01*
X182640476Y-37553738D02*
X182545238Y-37648976D01*
X182545238Y-37648976D02*
X182497619Y-37744214D01*
X182497619Y-37744214D02*
X182450000Y-37934690D01*
X182450000Y-37934690D02*
X182450000Y-38077547D01*
X182450000Y-38077547D02*
X182497619Y-38268023D01*
X182497619Y-38268023D02*
X182545238Y-38363261D01*
X182545238Y-38363261D02*
X182640476Y-38458500D01*
X182640476Y-38458500D02*
X182783333Y-38506119D01*
X182783333Y-38506119D02*
X182878571Y-38506119D01*
X182878571Y-38506119D02*
X183021428Y-38458500D01*
X183021428Y-38458500D02*
X183069047Y-38410880D01*
X183069047Y-38410880D02*
X183069047Y-38077547D01*
X183069047Y-38077547D02*
X182878571Y-38077547D01*
X183830952Y-37982309D02*
X183973809Y-38029928D01*
X183973809Y-38029928D02*
X184021428Y-38077547D01*
X184021428Y-38077547D02*
X184069047Y-38172785D01*
X184069047Y-38172785D02*
X184069047Y-38315642D01*
X184069047Y-38315642D02*
X184021428Y-38410880D01*
X184021428Y-38410880D02*
X183973809Y-38458500D01*
X183973809Y-38458500D02*
X183878571Y-38506119D01*
X183878571Y-38506119D02*
X183497619Y-38506119D01*
X183497619Y-38506119D02*
X183497619Y-37506119D01*
X183497619Y-37506119D02*
X183830952Y-37506119D01*
X183830952Y-37506119D02*
X183926190Y-37553738D01*
X183926190Y-37553738D02*
X183973809Y-37601357D01*
X183973809Y-37601357D02*
X184021428Y-37696595D01*
X184021428Y-37696595D02*
X184021428Y-37791833D01*
X184021428Y-37791833D02*
X183973809Y-37887071D01*
X183973809Y-37887071D02*
X183926190Y-37934690D01*
X183926190Y-37934690D02*
X183830952Y-37982309D01*
X183830952Y-37982309D02*
X183497619Y-37982309D01*
X184259524Y-38601357D02*
X185021428Y-38601357D01*
X185592857Y-37982309D02*
X185259524Y-37982309D01*
X185259524Y-38506119D02*
X185259524Y-37506119D01*
X185259524Y-37506119D02*
X185735714Y-37506119D01*
X186450000Y-37982309D02*
X186592857Y-38029928D01*
X186592857Y-38029928D02*
X186640476Y-38077547D01*
X186640476Y-38077547D02*
X186688095Y-38172785D01*
X186688095Y-38172785D02*
X186688095Y-38315642D01*
X186688095Y-38315642D02*
X186640476Y-38410880D01*
X186640476Y-38410880D02*
X186592857Y-38458500D01*
X186592857Y-38458500D02*
X186497619Y-38506119D01*
X186497619Y-38506119D02*
X186116667Y-38506119D01*
X186116667Y-38506119D02*
X186116667Y-37506119D01*
X186116667Y-37506119D02*
X186450000Y-37506119D01*
X186450000Y-37506119D02*
X186545238Y-37553738D01*
X186545238Y-37553738D02*
X186592857Y-37601357D01*
X186592857Y-37601357D02*
X186640476Y-37696595D01*
X186640476Y-37696595D02*
X186640476Y-37791833D01*
X186640476Y-37791833D02*
X186592857Y-37887071D01*
X186592857Y-37887071D02*
X186545238Y-37934690D01*
X186545238Y-37934690D02*
X186450000Y-37982309D01*
X186450000Y-37982309D02*
X186116667Y-37982309D01*
X186878572Y-38601357D02*
X187640476Y-38601357D01*
X188211905Y-37982309D02*
X188354762Y-38029928D01*
X188354762Y-38029928D02*
X188402381Y-38077547D01*
X188402381Y-38077547D02*
X188450000Y-38172785D01*
X188450000Y-38172785D02*
X188450000Y-38315642D01*
X188450000Y-38315642D02*
X188402381Y-38410880D01*
X188402381Y-38410880D02*
X188354762Y-38458500D01*
X188354762Y-38458500D02*
X188259524Y-38506119D01*
X188259524Y-38506119D02*
X187878572Y-38506119D01*
X187878572Y-38506119D02*
X187878572Y-37506119D01*
X187878572Y-37506119D02*
X188211905Y-37506119D01*
X188211905Y-37506119D02*
X188307143Y-37553738D01*
X188307143Y-37553738D02*
X188354762Y-37601357D01*
X188354762Y-37601357D02*
X188402381Y-37696595D01*
X188402381Y-37696595D02*
X188402381Y-37791833D01*
X188402381Y-37791833D02*
X188354762Y-37887071D01*
X188354762Y-37887071D02*
X188307143Y-37934690D01*
X188307143Y-37934690D02*
X188211905Y-37982309D01*
X188211905Y-37982309D02*
X187878572Y-37982309D01*
X189069048Y-37506119D02*
X189259524Y-37506119D01*
X189259524Y-37506119D02*
X189354762Y-37553738D01*
X189354762Y-37553738D02*
X189450000Y-37648976D01*
X189450000Y-37648976D02*
X189497619Y-37839452D01*
X189497619Y-37839452D02*
X189497619Y-38172785D01*
X189497619Y-38172785D02*
X189450000Y-38363261D01*
X189450000Y-38363261D02*
X189354762Y-38458500D01*
X189354762Y-38458500D02*
X189259524Y-38506119D01*
X189259524Y-38506119D02*
X189069048Y-38506119D01*
X189069048Y-38506119D02*
X188973810Y-38458500D01*
X188973810Y-38458500D02*
X188878572Y-38363261D01*
X188878572Y-38363261D02*
X188830953Y-38172785D01*
X188830953Y-38172785D02*
X188830953Y-37839452D01*
X188830953Y-37839452D02*
X188878572Y-37648976D01*
X188878572Y-37648976D02*
X188973810Y-37553738D01*
X188973810Y-37553738D02*
X189069048Y-37506119D01*
X189783334Y-37506119D02*
X190354762Y-37506119D01*
X190069048Y-38506119D02*
X190069048Y-37506119D01*
X190640477Y-37601357D02*
X190688096Y-37553738D01*
X190688096Y-37553738D02*
X190783334Y-37506119D01*
X190783334Y-37506119D02*
X191021429Y-37506119D01*
X191021429Y-37506119D02*
X191116667Y-37553738D01*
X191116667Y-37553738D02*
X191164286Y-37601357D01*
X191164286Y-37601357D02*
X191211905Y-37696595D01*
X191211905Y-37696595D02*
X191211905Y-37791833D01*
X191211905Y-37791833D02*
X191164286Y-37934690D01*
X191164286Y-37934690D02*
X190592858Y-38506119D01*
X190592858Y-38506119D02*
X191211905Y-38506119D01*
X184064285Y-38506119D02*
X183730952Y-38029928D01*
X183492857Y-38506119D02*
X183492857Y-37506119D01*
X183492857Y-37506119D02*
X183873809Y-37506119D01*
X183873809Y-37506119D02*
X183969047Y-37553738D01*
X183969047Y-37553738D02*
X184016666Y-37601357D01*
X184016666Y-37601357D02*
X184064285Y-37696595D01*
X184064285Y-37696595D02*
X184064285Y-37839452D01*
X184064285Y-37839452D02*
X184016666Y-37934690D01*
X184016666Y-37934690D02*
X183969047Y-37982309D01*
X183969047Y-37982309D02*
X183873809Y-38029928D01*
X183873809Y-38029928D02*
X183492857Y-38029928D01*
X184254762Y-38601357D02*
X185016666Y-38601357D01*
X185826190Y-38506119D02*
X185492857Y-38029928D01*
X185254762Y-38506119D02*
X185254762Y-37506119D01*
X185254762Y-37506119D02*
X185635714Y-37506119D01*
X185635714Y-37506119D02*
X185730952Y-37553738D01*
X185730952Y-37553738D02*
X185778571Y-37601357D01*
X185778571Y-37601357D02*
X185826190Y-37696595D01*
X185826190Y-37696595D02*
X185826190Y-37839452D01*
X185826190Y-37839452D02*
X185778571Y-37934690D01*
X185778571Y-37934690D02*
X185730952Y-37982309D01*
X185730952Y-37982309D02*
X185635714Y-38029928D01*
X185635714Y-38029928D02*
X185254762Y-38029928D01*
X186778571Y-37553738D02*
X186683333Y-37506119D01*
X186683333Y-37506119D02*
X186540476Y-37506119D01*
X186540476Y-37506119D02*
X186397619Y-37553738D01*
X186397619Y-37553738D02*
X186302381Y-37648976D01*
X186302381Y-37648976D02*
X186254762Y-37744214D01*
X186254762Y-37744214D02*
X186207143Y-37934690D01*
X186207143Y-37934690D02*
X186207143Y-38077547D01*
X186207143Y-38077547D02*
X186254762Y-38268023D01*
X186254762Y-38268023D02*
X186302381Y-38363261D01*
X186302381Y-38363261D02*
X186397619Y-38458500D01*
X186397619Y-38458500D02*
X186540476Y-38506119D01*
X186540476Y-38506119D02*
X186635714Y-38506119D01*
X186635714Y-38506119D02*
X186778571Y-38458500D01*
X186778571Y-38458500D02*
X186826190Y-38410880D01*
X186826190Y-38410880D02*
X186826190Y-38077547D01*
X186826190Y-38077547D02*
X186635714Y-38077547D01*
X187588095Y-37982309D02*
X187730952Y-38029928D01*
X187730952Y-38029928D02*
X187778571Y-38077547D01*
X187778571Y-38077547D02*
X187826190Y-38172785D01*
X187826190Y-38172785D02*
X187826190Y-38315642D01*
X187826190Y-38315642D02*
X187778571Y-38410880D01*
X187778571Y-38410880D02*
X187730952Y-38458500D01*
X187730952Y-38458500D02*
X187635714Y-38506119D01*
X187635714Y-38506119D02*
X187254762Y-38506119D01*
X187254762Y-38506119D02*
X187254762Y-37506119D01*
X187254762Y-37506119D02*
X187588095Y-37506119D01*
X187588095Y-37506119D02*
X187683333Y-37553738D01*
X187683333Y-37553738D02*
X187730952Y-37601357D01*
X187730952Y-37601357D02*
X187778571Y-37696595D01*
X187778571Y-37696595D02*
X187778571Y-37791833D01*
X187778571Y-37791833D02*
X187730952Y-37887071D01*
X187730952Y-37887071D02*
X187683333Y-37934690D01*
X187683333Y-37934690D02*
X187588095Y-37982309D01*
X187588095Y-37982309D02*
X187254762Y-37982309D01*
X188016667Y-38601357D02*
X188778571Y-38601357D01*
X189016667Y-37982309D02*
X189350000Y-37982309D01*
X189492857Y-38506119D02*
X189016667Y-38506119D01*
X189016667Y-38506119D02*
X189016667Y-37506119D01*
X189016667Y-37506119D02*
X189492857Y-37506119D01*
X189921429Y-38506119D02*
X189921429Y-37506119D01*
X189921429Y-37506119D02*
X190492857Y-38506119D01*
X190492857Y-38506119D02*
X190492857Y-37506119D01*
X190730953Y-38601357D02*
X191492857Y-38601357D01*
X191730953Y-38506119D02*
X191730953Y-37506119D01*
X191730953Y-37506119D02*
X192111905Y-37506119D01*
X192111905Y-37506119D02*
X192207143Y-37553738D01*
X192207143Y-37553738D02*
X192254762Y-37601357D01*
X192254762Y-37601357D02*
X192302381Y-37696595D01*
X192302381Y-37696595D02*
X192302381Y-37839452D01*
X192302381Y-37839452D02*
X192254762Y-37934690D01*
X192254762Y-37934690D02*
X192207143Y-37982309D01*
X192207143Y-37982309D02*
X192111905Y-38029928D01*
X192111905Y-38029928D02*
X191730953Y-38029928D01*
X192730953Y-38506119D02*
X192730953Y-37506119D01*
X192730953Y-37506119D02*
X192969048Y-37506119D01*
X192969048Y-37506119D02*
X193111905Y-37553738D01*
X193111905Y-37553738D02*
X193207143Y-37648976D01*
X193207143Y-37648976D02*
X193254762Y-37744214D01*
X193254762Y-37744214D02*
X193302381Y-37934690D01*
X193302381Y-37934690D02*
X193302381Y-38077547D01*
X193302381Y-38077547D02*
X193254762Y-38268023D01*
X193254762Y-38268023D02*
X193207143Y-38363261D01*
X193207143Y-38363261D02*
X193111905Y-38458500D01*
X193111905Y-38458500D02*
X192969048Y-38506119D01*
X192969048Y-38506119D02*
X192730953Y-38506119D01*
X193683334Y-37601357D02*
X193730953Y-37553738D01*
X193730953Y-37553738D02*
X193826191Y-37506119D01*
X193826191Y-37506119D02*
X194064286Y-37506119D01*
X194064286Y-37506119D02*
X194159524Y-37553738D01*
X194159524Y-37553738D02*
X194207143Y-37601357D01*
X194207143Y-37601357D02*
X194254762Y-37696595D01*
X194254762Y-37696595D02*
X194254762Y-37791833D01*
X194254762Y-37791833D02*
X194207143Y-37934690D01*
X194207143Y-37934690D02*
X193635715Y-38506119D01*
X193635715Y-38506119D02*
X194254762Y-38506119D01*
X173260880Y-41357143D02*
X173308500Y-41404762D01*
X173308500Y-41404762D02*
X173356119Y-41547619D01*
X173356119Y-41547619D02*
X173356119Y-41642857D01*
X173356119Y-41642857D02*
X173308500Y-41785714D01*
X173308500Y-41785714D02*
X173213261Y-41880952D01*
X173213261Y-41880952D02*
X173118023Y-41928571D01*
X173118023Y-41928571D02*
X172927547Y-41976190D01*
X172927547Y-41976190D02*
X172784690Y-41976190D01*
X172784690Y-41976190D02*
X172594214Y-41928571D01*
X172594214Y-41928571D02*
X172498976Y-41880952D01*
X172498976Y-41880952D02*
X172403738Y-41785714D01*
X172403738Y-41785714D02*
X172356119Y-41642857D01*
X172356119Y-41642857D02*
X172356119Y-41547619D01*
X172356119Y-41547619D02*
X172403738Y-41404762D01*
X172403738Y-41404762D02*
X172451357Y-41357143D01*
X173451357Y-41166667D02*
X173451357Y-40404762D01*
X173356119Y-39595238D02*
X172879928Y-39928571D01*
X173356119Y-40166666D02*
X172356119Y-40166666D01*
X172356119Y-40166666D02*
X172356119Y-39785714D01*
X172356119Y-39785714D02*
X172403738Y-39690476D01*
X172403738Y-39690476D02*
X172451357Y-39642857D01*
X172451357Y-39642857D02*
X172546595Y-39595238D01*
X172546595Y-39595238D02*
X172689452Y-39595238D01*
X172689452Y-39595238D02*
X172784690Y-39642857D01*
X172784690Y-39642857D02*
X172832309Y-39690476D01*
X172832309Y-39690476D02*
X172879928Y-39785714D01*
X172879928Y-39785714D02*
X172879928Y-40166666D01*
X172403738Y-38642857D02*
X172356119Y-38738095D01*
X172356119Y-38738095D02*
X172356119Y-38880952D01*
X172356119Y-38880952D02*
X172403738Y-39023809D01*
X172403738Y-39023809D02*
X172498976Y-39119047D01*
X172498976Y-39119047D02*
X172594214Y-39166666D01*
X172594214Y-39166666D02*
X172784690Y-39214285D01*
X172784690Y-39214285D02*
X172927547Y-39214285D01*
X172927547Y-39214285D02*
X173118023Y-39166666D01*
X173118023Y-39166666D02*
X173213261Y-39119047D01*
X173213261Y-39119047D02*
X173308500Y-39023809D01*
X173308500Y-39023809D02*
X173356119Y-38880952D01*
X173356119Y-38880952D02*
X173356119Y-38785714D01*
X173356119Y-38785714D02*
X173308500Y-38642857D01*
X173308500Y-38642857D02*
X173260880Y-38595238D01*
X173260880Y-38595238D02*
X172927547Y-38595238D01*
X172927547Y-38595238D02*
X172927547Y-38785714D01*
X172832309Y-37833333D02*
X172879928Y-37690476D01*
X172879928Y-37690476D02*
X172927547Y-37642857D01*
X172927547Y-37642857D02*
X173022785Y-37595238D01*
X173022785Y-37595238D02*
X173165642Y-37595238D01*
X173165642Y-37595238D02*
X173260880Y-37642857D01*
X173260880Y-37642857D02*
X173308500Y-37690476D01*
X173308500Y-37690476D02*
X173356119Y-37785714D01*
X173356119Y-37785714D02*
X173356119Y-38166666D01*
X173356119Y-38166666D02*
X172356119Y-38166666D01*
X172356119Y-38166666D02*
X172356119Y-37833333D01*
X172356119Y-37833333D02*
X172403738Y-37738095D01*
X172403738Y-37738095D02*
X172451357Y-37690476D01*
X172451357Y-37690476D02*
X172546595Y-37642857D01*
X172546595Y-37642857D02*
X172641833Y-37642857D01*
X172641833Y-37642857D02*
X172737071Y-37690476D01*
X172737071Y-37690476D02*
X172784690Y-37738095D01*
X172784690Y-37738095D02*
X172832309Y-37833333D01*
X172832309Y-37833333D02*
X172832309Y-38166666D01*
X173451357Y-37404762D02*
X173451357Y-36642857D01*
X172832309Y-36071428D02*
X172879928Y-35928571D01*
X172879928Y-35928571D02*
X172927547Y-35880952D01*
X172927547Y-35880952D02*
X173022785Y-35833333D01*
X173022785Y-35833333D02*
X173165642Y-35833333D01*
X173165642Y-35833333D02*
X173260880Y-35880952D01*
X173260880Y-35880952D02*
X173308500Y-35928571D01*
X173308500Y-35928571D02*
X173356119Y-36023809D01*
X173356119Y-36023809D02*
X173356119Y-36404761D01*
X173356119Y-36404761D02*
X172356119Y-36404761D01*
X172356119Y-36404761D02*
X172356119Y-36071428D01*
X172356119Y-36071428D02*
X172403738Y-35976190D01*
X172403738Y-35976190D02*
X172451357Y-35928571D01*
X172451357Y-35928571D02*
X172546595Y-35880952D01*
X172546595Y-35880952D02*
X172641833Y-35880952D01*
X172641833Y-35880952D02*
X172737071Y-35928571D01*
X172737071Y-35928571D02*
X172784690Y-35976190D01*
X172784690Y-35976190D02*
X172832309Y-36071428D01*
X172832309Y-36071428D02*
X172832309Y-36404761D01*
X172356119Y-35404761D02*
X173165642Y-35404761D01*
X173165642Y-35404761D02*
X173260880Y-35357142D01*
X173260880Y-35357142D02*
X173308500Y-35309523D01*
X173308500Y-35309523D02*
X173356119Y-35214285D01*
X173356119Y-35214285D02*
X173356119Y-35023809D01*
X173356119Y-35023809D02*
X173308500Y-34928571D01*
X173308500Y-34928571D02*
X173260880Y-34880952D01*
X173260880Y-34880952D02*
X173165642Y-34833333D01*
X173165642Y-34833333D02*
X172356119Y-34833333D01*
X173356119Y-33880952D02*
X173356119Y-34357142D01*
X173356119Y-34357142D02*
X172356119Y-34357142D01*
X173356119Y-33547618D02*
X172356119Y-33547618D01*
X173356119Y-32976190D02*
X172784690Y-33404761D01*
X172356119Y-32976190D02*
X172927547Y-33547618D01*
X172451357Y-32595237D02*
X172403738Y-32547618D01*
X172403738Y-32547618D02*
X172356119Y-32452380D01*
X172356119Y-32452380D02*
X172356119Y-32214285D01*
X172356119Y-32214285D02*
X172403738Y-32119047D01*
X172403738Y-32119047D02*
X172451357Y-32071428D01*
X172451357Y-32071428D02*
X172546595Y-32023809D01*
X172546595Y-32023809D02*
X172641833Y-32023809D01*
X172641833Y-32023809D02*
X172784690Y-32071428D01*
X172784690Y-32071428D02*
X173356119Y-32642856D01*
X173356119Y-32642856D02*
X173356119Y-32023809D01*
D10*
X183857143Y-33054819D02*
X183857143Y-33864342D01*
X183857143Y-33864342D02*
X183904762Y-33959580D01*
X183904762Y-33959580D02*
X183952381Y-34007200D01*
X183952381Y-34007200D02*
X184047619Y-34054819D01*
X184047619Y-34054819D02*
X184238095Y-34054819D01*
X184238095Y-34054819D02*
X184333333Y-34007200D01*
X184333333Y-34007200D02*
X184380952Y-33959580D01*
X184380952Y-33959580D02*
X184428571Y-33864342D01*
X184428571Y-33864342D02*
X184428571Y-33054819D01*
X184666667Y-34150057D02*
X185428571Y-34150057D01*
X186238095Y-34054819D02*
X185904762Y-33578628D01*
X185666667Y-34054819D02*
X185666667Y-33054819D01*
X185666667Y-33054819D02*
X186047619Y-33054819D01*
X186047619Y-33054819D02*
X186142857Y-33102438D01*
X186142857Y-33102438D02*
X186190476Y-33150057D01*
X186190476Y-33150057D02*
X186238095Y-33245295D01*
X186238095Y-33245295D02*
X186238095Y-33388152D01*
X186238095Y-33388152D02*
X186190476Y-33483390D01*
X186190476Y-33483390D02*
X186142857Y-33531009D01*
X186142857Y-33531009D02*
X186047619Y-33578628D01*
X186047619Y-33578628D02*
X185666667Y-33578628D01*
X187190476Y-33102438D02*
X187095238Y-33054819D01*
X187095238Y-33054819D02*
X186952381Y-33054819D01*
X186952381Y-33054819D02*
X186809524Y-33102438D01*
X186809524Y-33102438D02*
X186714286Y-33197676D01*
X186714286Y-33197676D02*
X186666667Y-33292914D01*
X186666667Y-33292914D02*
X186619048Y-33483390D01*
X186619048Y-33483390D02*
X186619048Y-33626247D01*
X186619048Y-33626247D02*
X186666667Y-33816723D01*
X186666667Y-33816723D02*
X186714286Y-33911961D01*
X186714286Y-33911961D02*
X186809524Y-34007200D01*
X186809524Y-34007200D02*
X186952381Y-34054819D01*
X186952381Y-34054819D02*
X187047619Y-34054819D01*
X187047619Y-34054819D02*
X187190476Y-34007200D01*
X187190476Y-34007200D02*
X187238095Y-33959580D01*
X187238095Y-33959580D02*
X187238095Y-33626247D01*
X187238095Y-33626247D02*
X187047619Y-33626247D01*
X188000000Y-33531009D02*
X188142857Y-33578628D01*
X188142857Y-33578628D02*
X188190476Y-33626247D01*
X188190476Y-33626247D02*
X188238095Y-33721485D01*
X188238095Y-33721485D02*
X188238095Y-33864342D01*
X188238095Y-33864342D02*
X188190476Y-33959580D01*
X188190476Y-33959580D02*
X188142857Y-34007200D01*
X188142857Y-34007200D02*
X188047619Y-34054819D01*
X188047619Y-34054819D02*
X187666667Y-34054819D01*
X187666667Y-34054819D02*
X187666667Y-33054819D01*
X187666667Y-33054819D02*
X188000000Y-33054819D01*
X188000000Y-33054819D02*
X188095238Y-33102438D01*
X188095238Y-33102438D02*
X188142857Y-33150057D01*
X188142857Y-33150057D02*
X188190476Y-33245295D01*
X188190476Y-33245295D02*
X188190476Y-33340533D01*
X188190476Y-33340533D02*
X188142857Y-33435771D01*
X188142857Y-33435771D02*
X188095238Y-33483390D01*
X188095238Y-33483390D02*
X188000000Y-33531009D01*
X188000000Y-33531009D02*
X187666667Y-33531009D01*
X188619048Y-33150057D02*
X188666667Y-33102438D01*
X188666667Y-33102438D02*
X188761905Y-33054819D01*
X188761905Y-33054819D02*
X189000000Y-33054819D01*
X189000000Y-33054819D02*
X189095238Y-33102438D01*
X189095238Y-33102438D02*
X189142857Y-33150057D01*
X189142857Y-33150057D02*
X189190476Y-33245295D01*
X189190476Y-33245295D02*
X189190476Y-33340533D01*
X189190476Y-33340533D02*
X189142857Y-33483390D01*
X189142857Y-33483390D02*
X188571429Y-34054819D01*
X188571429Y-34054819D02*
X189190476Y-34054819D01*
D12*
X179435476Y2227688D02*
X179435476Y1580069D01*
X179435476Y1580069D02*
X179473571Y1503879D01*
X179473571Y1503879D02*
X179511666Y1465784D01*
X179511666Y1465784D02*
X179587857Y1427688D01*
X179587857Y1427688D02*
X179740238Y1427688D01*
X179740238Y1427688D02*
X179816428Y1465784D01*
X179816428Y1465784D02*
X179854523Y1503879D01*
X179854523Y1503879D02*
X179892619Y1580069D01*
X179892619Y1580069D02*
X179892619Y2227688D01*
X180235475Y2151498D02*
X180273571Y2189593D01*
X180273571Y2189593D02*
X180349761Y2227688D01*
X180349761Y2227688D02*
X180540237Y2227688D01*
X180540237Y2227688D02*
X180616428Y2189593D01*
X180616428Y2189593D02*
X180654523Y2151498D01*
X180654523Y2151498D02*
X180692618Y2075307D01*
X180692618Y2075307D02*
X180692618Y1999117D01*
X180692618Y1999117D02*
X180654523Y1884831D01*
X180654523Y1884831D02*
X180197380Y1427688D01*
X180197380Y1427688D02*
X180692618Y1427688D01*
D11*
X187910880Y-39690476D02*
X187958500Y-39738095D01*
X187958500Y-39738095D02*
X188006119Y-39880952D01*
X188006119Y-39880952D02*
X188006119Y-39976190D01*
X188006119Y-39976190D02*
X187958500Y-40119047D01*
X187958500Y-40119047D02*
X187863261Y-40214285D01*
X187863261Y-40214285D02*
X187768023Y-40261904D01*
X187768023Y-40261904D02*
X187577547Y-40309523D01*
X187577547Y-40309523D02*
X187434690Y-40309523D01*
X187434690Y-40309523D02*
X187244214Y-40261904D01*
X187244214Y-40261904D02*
X187148976Y-40214285D01*
X187148976Y-40214285D02*
X187053738Y-40119047D01*
X187053738Y-40119047D02*
X187006119Y-39976190D01*
X187006119Y-39976190D02*
X187006119Y-39880952D01*
X187006119Y-39880952D02*
X187053738Y-39738095D01*
X187053738Y-39738095D02*
X187101357Y-39690476D01*
X188101357Y-39500000D02*
X188101357Y-38738095D01*
X188006119Y-37928571D02*
X187529928Y-38261904D01*
X188006119Y-38499999D02*
X187006119Y-38499999D01*
X187006119Y-38499999D02*
X187006119Y-38119047D01*
X187006119Y-38119047D02*
X187053738Y-38023809D01*
X187053738Y-38023809D02*
X187101357Y-37976190D01*
X187101357Y-37976190D02*
X187196595Y-37928571D01*
X187196595Y-37928571D02*
X187339452Y-37928571D01*
X187339452Y-37928571D02*
X187434690Y-37976190D01*
X187434690Y-37976190D02*
X187482309Y-38023809D01*
X187482309Y-38023809D02*
X187529928Y-38119047D01*
X187529928Y-38119047D02*
X187529928Y-38499999D01*
X187053738Y-36976190D02*
X187006119Y-37071428D01*
X187006119Y-37071428D02*
X187006119Y-37214285D01*
X187006119Y-37214285D02*
X187053738Y-37357142D01*
X187053738Y-37357142D02*
X187148976Y-37452380D01*
X187148976Y-37452380D02*
X187244214Y-37499999D01*
X187244214Y-37499999D02*
X187434690Y-37547618D01*
X187434690Y-37547618D02*
X187577547Y-37547618D01*
X187577547Y-37547618D02*
X187768023Y-37499999D01*
X187768023Y-37499999D02*
X187863261Y-37452380D01*
X187863261Y-37452380D02*
X187958500Y-37357142D01*
X187958500Y-37357142D02*
X188006119Y-37214285D01*
X188006119Y-37214285D02*
X188006119Y-37119047D01*
X188006119Y-37119047D02*
X187958500Y-36976190D01*
X187958500Y-36976190D02*
X187910880Y-36928571D01*
X187910880Y-36928571D02*
X187577547Y-36928571D01*
X187577547Y-36928571D02*
X187577547Y-37119047D01*
X187482309Y-36166666D02*
X187529928Y-36023809D01*
X187529928Y-36023809D02*
X187577547Y-35976190D01*
X187577547Y-35976190D02*
X187672785Y-35928571D01*
X187672785Y-35928571D02*
X187815642Y-35928571D01*
X187815642Y-35928571D02*
X187910880Y-35976190D01*
X187910880Y-35976190D02*
X187958500Y-36023809D01*
X187958500Y-36023809D02*
X188006119Y-36119047D01*
X188006119Y-36119047D02*
X188006119Y-36499999D01*
X188006119Y-36499999D02*
X187006119Y-36499999D01*
X187006119Y-36499999D02*
X187006119Y-36166666D01*
X187006119Y-36166666D02*
X187053738Y-36071428D01*
X187053738Y-36071428D02*
X187101357Y-36023809D01*
X187101357Y-36023809D02*
X187196595Y-35976190D01*
X187196595Y-35976190D02*
X187291833Y-35976190D01*
X187291833Y-35976190D02*
X187387071Y-36023809D01*
X187387071Y-36023809D02*
X187434690Y-36071428D01*
X187434690Y-36071428D02*
X187482309Y-36166666D01*
X187482309Y-36166666D02*
X187482309Y-36499999D01*
X188101357Y-35738095D02*
X188101357Y-34976190D01*
X188006119Y-34738094D02*
X187006119Y-34738094D01*
X188006119Y-34261904D02*
X187006119Y-34261904D01*
X187006119Y-34261904D02*
X188006119Y-33690476D01*
X188006119Y-33690476D02*
X187006119Y-33690476D01*
X187101357Y-33261904D02*
X187053738Y-33214285D01*
X187053738Y-33214285D02*
X187006119Y-33119047D01*
X187006119Y-33119047D02*
X187006119Y-32880952D01*
X187006119Y-32880952D02*
X187053738Y-32785714D01*
X187053738Y-32785714D02*
X187101357Y-32738095D01*
X187101357Y-32738095D02*
X187196595Y-32690476D01*
X187196595Y-32690476D02*
X187291833Y-32690476D01*
X187291833Y-32690476D02*
X187434690Y-32738095D01*
X187434690Y-32738095D02*
X188006119Y-33309523D01*
X188006119Y-33309523D02*
X188006119Y-32690476D01*
%TO.C,SWP2*%
D13*
X170150000Y-30650000D02*
X170150000Y-31950000D01*
X171600000Y-30650000D02*
X170150000Y-30650000D01*
X171600000Y-31950000D02*
X170150000Y-31950000D01*
D14*
X173400000Y-33950000D02*
X172600000Y-33950000D01*
D13*
X171600000Y-27150000D02*
X174400000Y-27150000D01*
X174400000Y-33850000D01*
X171600000Y-33850000D01*
X171600000Y-27150000D01*
%TO.C,L_RGB2*%
D14*
X185150000Y-32200000D02*
X187850000Y-32200000D01*
X187850000Y-34400000D01*
X185150000Y-34400000D01*
X185150000Y-32200000D01*
%TO.C,SW57*%
D10*
X175887741Y-85994554D02*
X186981372Y-127396549D01*
X182061786Y-99280553D02*
X183027712Y-99021733D01*
X182320605Y-100246478D02*
X182061786Y-99280553D01*
X185685253Y-112803514D02*
X185426433Y-111837588D01*
X186651178Y-112544695D02*
X185685253Y-112803514D01*
X186981372Y-127396549D02*
X205382259Y-122466046D01*
X194288628Y-81064051D02*
X175887741Y-85994554D01*
X194618822Y-95915905D02*
X195584747Y-95657086D01*
X195584747Y-95657086D02*
X195843567Y-96623012D01*
X198949395Y-108214122D02*
X199208214Y-109180047D01*
X199208214Y-109180047D02*
X198242288Y-109438867D01*
X205382259Y-122466046D02*
X194288628Y-81064051D01*
%TO.C,C_RGB_OUT1_2*%
D14*
X179100000Y-36100000D02*
X180200000Y-36100000D01*
X180200000Y-37900000D01*
X179100000Y-37900000D01*
X179100000Y-36100000D01*
%TO.C,C_RGB_OUT2_2*%
X176600000Y-36100000D02*
X177700000Y-36100000D01*
X177700000Y-37900000D01*
X176600000Y-37900000D01*
X176600000Y-36100000D01*
%TO.C,R_RGB_DATA2*%
X190600000Y-24450000D02*
X192400000Y-24450000D01*
X192400000Y-25550000D01*
X190600000Y-25550000D01*
X190600000Y-24450000D01*
%TO.C,C_LS2*%
X186600000Y-22450000D02*
X188400000Y-22450000D01*
X188400000Y-23550000D01*
X186600000Y-23550000D01*
X186600000Y-22450000D01*
%TO.C,R_RGB_FB_TOP2*%
X181250000Y-39450000D02*
X183050000Y-39450000D01*
X183050000Y-40550000D01*
X181250000Y-40550000D01*
X181250000Y-39450000D01*
%TO.C,U_LS2*%
X186590000Y-27560000D02*
X186590000Y-27510000D01*
X188410000Y-27560000D02*
X186590000Y-27560000D01*
D13*
X187100000Y-24550000D02*
X188300000Y-24550000D01*
X188300000Y-27450000D01*
X186700000Y-27450000D01*
X186700000Y-24950000D01*
X187100000Y-24550000D01*
%TO.C,R_RGB_FB_BOT2*%
D14*
X184550000Y-39450000D02*
X186350000Y-39450000D01*
X186350000Y-40550000D01*
X184550000Y-40550000D01*
X184550000Y-39450000D01*
%TO.C,R_RGB_EN_PD2*%
X187950000Y-39450000D02*
X189750000Y-39450000D01*
X189750000Y-40550000D01*
X187950000Y-40550000D01*
X187950000Y-39450000D01*
%TO.C,C_RGB_BULK2*%
X174300000Y-36100000D02*
X175400000Y-36100000D01*
X175400000Y-37900000D01*
X174300000Y-37900000D01*
X174300000Y-36100000D01*
%TO.C,U_RGB2*%
X186074432Y-35565000D02*
X187210000Y-35565000D01*
X187210000Y-37435000D02*
X185790000Y-37435000D01*
X185780000Y-35560000D02*
X185640000Y-35370000D01*
X185920000Y-35370000D01*
X185780000Y-35560000D01*
G36*
X185780000Y-35560000D02*
G01*
X185640000Y-35370000D01*
X185920000Y-35370000D01*
X185780000Y-35560000D01*
G37*
D13*
X186200000Y-35700000D02*
X187100000Y-35700000D01*
X187100000Y-37300000D01*
X185900000Y-37300000D01*
X185900000Y-36000000D01*
X186200000Y-35700000D01*
%TO.C,SW56*%
D10*
X195521254Y-85664264D02*
X205382259Y-122466038D01*
X201078986Y-96650153D02*
X202044912Y-96391333D01*
X201337805Y-97616078D02*
X201078986Y-96650153D01*
X204702453Y-110173114D02*
X204443633Y-109207188D01*
X205382259Y-122466038D02*
X223783146Y-117535536D01*
X205668378Y-109914295D02*
X204702453Y-110173114D01*
X213636022Y-93285505D02*
X214601947Y-93026686D01*
X213922141Y-80733762D02*
X195521254Y-85664264D01*
X214601947Y-93026686D02*
X214860767Y-93992612D01*
X217966595Y-105583722D02*
X218225414Y-106549647D01*
X218225414Y-106549647D02*
X217259488Y-106808467D01*
X223783146Y-117535536D02*
X213922141Y-80733762D01*
%TO.C,U2*%
D13*
X171155000Y-20116500D02*
X171155000Y-2971500D01*
X188935000Y-20116500D02*
X188935000Y-2971500D01*
X171145000Y-1057500D02*
X188945000Y-1057500D01*
X188945000Y-22007500D01*
X171145000Y-22007500D01*
X171145000Y-1057500D01*
X171155000Y-2967500D02*
G75*
G02*
X173060000Y-1062500I1905001J-1D01*
G01*
X173060000Y-22021500D02*
G75*
G02*
X171155000Y-20116500I1J1905001D01*
G01*
D15*
X175553728Y-56228D02*
G75*
G02*
X176053728Y443499I500018J-291D01*
G01*
X184049000Y443500D02*
G75*
G02*
X184549000Y-56500I-100J-500100D01*
G01*
D13*
X187030000Y-1066500D02*
G75*
G02*
X188935000Y-2971500I-50J-1905050D01*
G01*
X188935000Y-20116500D02*
G75*
G02*
X187030000Y-22021500I-1905000J0D01*
G01*
%TO.C,C_RGB_IN2*%
D14*
X188950000Y-35600000D02*
X190050000Y-35600000D01*
X190050000Y-37400000D01*
X188950000Y-37400000D01*
X188950000Y-35600000D01*
%TD*%
M02*
