%TF.GenerationSoftware,KiCad,Pcbnew,10.0.5*%
%TF.CreationDate,2026-09-23T03:24:45+09:00*%
%TF.ProjectId,keyboard,6b657962-6f61-4726-942e-6b696361645f,rev?*%
%TF.SameCoordinates,Original*%
%TF.FileFunction,Other,User*%
%FSLAX46Y46*%
G04 Gerber Fmt 4.6, Leading zero omitted, Abs format (unit mm)*
G04 Created by KiCad (PCBNEW 10.0.5) date 2026-09-23 03:24:45*
%MOMM*%
%LPD*%
G01*
G04 APERTURE LIST*
%ADD10C,0.050000*%
G04 APERTURE END LIST*
%TO.C,SWP2*%
D10*
X169900000Y-32200000D02*
X169900000Y-28800000D01*
X169900000Y-32200000D02*
X171300000Y-32200000D01*
X171300000Y-26050000D02*
X171300000Y-28800000D01*
X171300000Y-28800000D02*
X169900000Y-28800000D01*
X171300000Y-32200000D02*
X171300000Y-34950000D01*
X171300000Y-34950000D02*
X174700000Y-34950000D01*
X174700000Y-26050000D02*
X171300000Y-26050000D01*
X174700000Y-26050000D02*
X174700000Y-27700000D01*
X174700000Y-27700000D02*
X175850000Y-27700000D01*
X174700000Y-33300000D02*
X175850000Y-33300000D01*
X174700000Y-34950000D02*
X174700000Y-33300000D01*
X175850000Y-27700000D02*
X175850000Y-33300000D01*
%TO.C,L_RGB2*%
X184650000Y-31950000D02*
X188350000Y-31950000D01*
X188350000Y-34650000D01*
X184650000Y-34650000D01*
X184650000Y-31950000D01*
%TO.C,C_RGB_OUT1_2*%
X178850000Y-35550000D02*
X180450000Y-35550000D01*
X180450000Y-38450000D01*
X178850000Y-38450000D01*
X178850000Y-35550000D01*
%TO.C,C_RGB_OUT2_2*%
X176350000Y-35550000D02*
X177950000Y-35550000D01*
X177950000Y-38450000D01*
X176350000Y-38450000D01*
X176350000Y-35550000D01*
%TO.C,R_RGB_DATA2*%
X190050000Y-24200000D02*
X192950000Y-24200000D01*
X192950000Y-25800000D01*
X190050000Y-25800000D01*
X190050000Y-24200000D01*
%TO.C,C_LS2*%
X186050000Y-22200000D02*
X188950000Y-22200000D01*
X188950000Y-23800000D01*
X186050000Y-23800000D01*
X186050000Y-22200000D01*
%TO.C,R_RGB_FB_TOP2*%
X180700000Y-39200000D02*
X183600000Y-39200000D01*
X183600000Y-40800000D01*
X180700000Y-40800000D01*
X180700000Y-39200000D01*
%TO.C,U_LS2*%
X185450000Y-24500000D02*
X186450000Y-24500000D01*
X185450000Y-27500000D02*
X185450000Y-24500000D01*
X186450000Y-24300000D02*
X188550000Y-24300000D01*
X186450000Y-24500000D02*
X186450000Y-24300000D01*
X186450000Y-27500000D02*
X185450000Y-27500000D01*
X186450000Y-27700000D02*
X186450000Y-27500000D01*
X188550000Y-24300000D02*
X188550000Y-24500000D01*
X188550000Y-24500000D02*
X189550000Y-24500000D01*
X188550000Y-25610000D02*
X188550000Y-26390000D01*
X188550000Y-26390000D02*
X189550000Y-26390000D01*
X188550000Y-27500000D02*
X188550000Y-27700000D01*
X188550000Y-27700000D02*
X186450000Y-27700000D01*
X189550000Y-24500000D02*
X189550000Y-25610000D01*
X189550000Y-25610000D02*
X188550000Y-25610000D01*
X189550000Y-26390000D02*
X189550000Y-27500000D01*
X189550000Y-27500000D02*
X188550000Y-27500000D01*
%TO.C,R_RGB_FB_BOT2*%
X184000000Y-39200000D02*
X186900000Y-39200000D01*
X186900000Y-40800000D01*
X184000000Y-40800000D01*
X184000000Y-39200000D01*
%TO.C,R_RGB_EN_PD2*%
X187400000Y-39200000D02*
X190300000Y-39200000D01*
X190300000Y-40800000D01*
X187400000Y-40800000D01*
X187400000Y-39200000D01*
%TO.C,C_RGB_BULK2*%
X174050000Y-35550000D02*
X175650000Y-35550000D01*
X175650000Y-38450000D01*
X174050000Y-38450000D01*
X174050000Y-35550000D01*
%TO.C,U_RGB2*%
X185300000Y-35670000D02*
X185750000Y-35670000D01*
X185300000Y-37330000D02*
X185300000Y-35670000D01*
X185750000Y-35550000D02*
X187250000Y-35550000D01*
X185750000Y-35670000D02*
X185750000Y-35550000D01*
X185750000Y-37330000D02*
X185300000Y-37330000D01*
X185750000Y-37450000D02*
X185750000Y-37330000D01*
X187250000Y-35550000D02*
X187250000Y-35670000D01*
X187250000Y-35670000D02*
X187700000Y-35670000D01*
X187250000Y-37330000D02*
X187250000Y-37450000D01*
X187250000Y-37450000D02*
X185750000Y-37450000D01*
X187700000Y-35670000D02*
X187700000Y-37330000D01*
X187700000Y-37330000D02*
X187250000Y-37330000D01*
%TO.C,U2*%
X171145000Y-1057500D02*
X188945000Y-1057500D01*
X188945000Y-22007500D01*
X171145000Y-22007500D01*
X171145000Y-1057500D01*
%TO.C,C_RGB_IN2*%
X188700000Y-35050000D02*
X190300000Y-35050000D01*
X190300000Y-37950000D01*
X188700000Y-37950000D01*
X188700000Y-35050000D01*
%TD*%
M02*
