%TF.GenerationSoftware,KiCad,Pcbnew,10.0.5*%
%TF.CreationDate,2026-09-22T23:22:17+09:00*%
%TF.ProjectId,keyboard,6b657962-6f61-4726-942e-6b696361645f,rev?*%
%TF.SameCoordinates,Original*%
%TF.FileFunction,Copper,L1,Top*%
%TF.FilePolarity,Positive*%
%FSLAX46Y46*%
G04 Gerber Fmt 4.6, Leading zero omitted, Abs format (unit mm)*
G04 Created by KiCad (PCBNEW 10.0.5) date 2026-09-22 23:22:17*
%MOMM*%
%LPD*%
G01*
G04 APERTURE LIST*
G04 Aperture macros list*
%AMRoundRect*
0 Rectangle with rounded corners*
0 $1 Rounding radius*
0 $2 $3 $4 $5 $6 $7 $8 $9 X,Y pos of 4 corners*
0 Add a 4 corners polygon primitive as box body*
4,1,4,$2,$3,$4,$5,$6,$7,$8,$9,$2,$3,0*
0 Add four circle primitives for the rounded corners*
1,1,$1+$1,$2,$3*
1,1,$1+$1,$4,$5*
1,1,$1+$1,$6,$7*
1,1,$1+$1,$8,$9*
0 Add four rect primitives between the rounded corners*
20,1,$1+$1,$2,$3,$4,$5,0*
20,1,$1+$1,$4,$5,$6,$7,0*
20,1,$1+$1,$6,$7,$8,$9,0*
20,1,$1+$1,$8,$9,$2,$3,0*%
%AMFreePoly0*
4,1,15,-0.616000,0.142500,-0.283500,0.475000,0.521000,0.475000,0.557355,0.467769,0.588175,0.447175,0.608769,0.416355,0.616000,0.380000,0.616000,-0.380000,0.608769,-0.416355,0.588175,-0.447175,0.557355,-0.467769,0.521000,-0.475000,-0.283500,-0.475000,-0.616000,-0.142500,-0.616000,0.142500,-0.616000,0.142500,$1*%
G04 Aperture macros list end*
%TA.AperFunction,SMDPad,CuDef*%
%ADD10RoundRect,0.180000X-0.270000X-0.270000X0.270000X-0.270000X0.270000X0.270000X-0.270000X0.270000X0*%
%TD*%
%TA.AperFunction,SMDPad,CuDef*%
%ADD11RoundRect,0.095000X0.921000X0.380000X-0.921000X0.380000X-0.921000X-0.380000X0.921000X-0.380000X0*%
%TD*%
%TA.AperFunction,SMDPad,CuDef*%
%ADD12RoundRect,0.095000X-0.921000X-0.380000X0.921000X-0.380000X0.921000X0.380000X-0.921000X0.380000X0*%
%TD*%
%TA.AperFunction,SMDPad,CuDef*%
%ADD13FreePoly0,180.000000*%
%TD*%
%TA.AperFunction,SMDPad,CuDef*%
%ADD14FreePoly0,0.000000*%
%TD*%
%TA.AperFunction,SMDPad,CuDef*%
%ADD15C,1.700000*%
%TD*%
%TA.AperFunction,SMDPad,CuDef*%
%ADD16RoundRect,0.110000X-0.440000X1.140000X-0.440000X-1.140000X0.440000X-1.140000X0.440000X1.140000X0*%
%TD*%
%TA.AperFunction,SMDPad,CuDef*%
%ADD17RoundRect,0.180000X0.270000X-0.270000X0.270000X0.270000X-0.270000X0.270000X-0.270000X-0.270000X0*%
%TD*%
%TA.AperFunction,SMDPad,CuDef*%
%ADD18RoundRect,0.240000X-0.360000X-0.460000X0.360000X-0.460000X0.360000X0.460000X-0.360000X0.460000X0*%
%TD*%
%TA.AperFunction,SMDPad,CuDef*%
%ADD19RoundRect,0.087500X-0.250000X-0.087500X0.250000X-0.087500X0.250000X0.087500X-0.250000X0.087500X0*%
%TD*%
%TA.AperFunction,SMDPad,CuDef*%
%ADD20RoundRect,0.150000X-0.512500X-0.150000X0.512500X-0.150000X0.512500X0.150000X-0.512500X0.150000X0*%
%TD*%
%TA.AperFunction,SMDPad,CuDef*%
%ADD21RoundRect,0.150000X0.500000X-0.150000X0.500000X0.150000X-0.500000X0.150000X-0.500000X-0.150000X0*%
%TD*%
%TA.AperFunction,SMDPad,CuDef*%
%ADD22RoundRect,0.175000X0.175000X-0.350000X0.175000X0.350000X-0.175000X0.350000X-0.175000X-0.350000X0*%
%TD*%
%TA.AperFunction,ComponentPad*%
%ADD23RoundRect,0.250000X0.350000X0.625000X-0.350000X0.625000X-0.350000X-0.625000X0.350000X-0.625000X0*%
%TD*%
%TA.AperFunction,ComponentPad*%
%ADD24O,1.200000X1.750000*%
%TD*%
%TA.AperFunction,ViaPad*%
%ADD25C,0.650000*%
%TD*%
%TA.AperFunction,ViaPad*%
%ADD26C,0.500000*%
%TD*%
%TA.AperFunction,Conductor*%
%ADD27C,0.200000*%
%TD*%
%TA.AperFunction,Conductor*%
%ADD28C,0.250000*%
%TD*%
%TA.AperFunction,Conductor*%
%ADD29C,0.600000*%
%TD*%
G04 APERTURE END LIST*
D10*
%TO.P,R_RGB_EN_PD1,1*%
%TO.N,/RGB_EN_LEFT*%
X139050000Y-40000000D03*
%TO.P,R_RGB_EN_PD1,2*%
%TO.N,/GND_LEFT*%
X140550000Y-40000000D03*
%TD*%
D11*
%TO.P,U1,1*%
%TO.N,/ROW0*%
X140357500Y-3987500D03*
%TO.P,U1,2*%
%TO.N,/ROW1*%
X140357500Y-6527500D03*
%TO.P,U1,3*%
%TO.N,/ROW2*%
X140357500Y-9067500D03*
%TO.P,U1,4*%
%TO.N,/ROW3*%
X140357500Y-11607500D03*
%TO.P,U1,5*%
%TO.N,/ROW4*%
X140357500Y-14147500D03*
%TO.P,U1,6*%
%TO.N,/ROW5*%
X140357500Y-16687500D03*
%TO.P,U1,7*%
%TO.N,/ROW6*%
X140357500Y-19227500D03*
D12*
%TO.P,U1,8*%
%TO.N,/ROW7*%
X156867500Y-19227500D03*
%TO.P,U1,9*%
%TO.N,/COL0*%
X156867500Y-16687500D03*
%TO.P,U1,10*%
%TO.N,/COL1*%
X156867500Y-14147500D03*
%TO.P,U1,11*%
%TO.N,/COL2*%
X156867500Y-11607500D03*
%TO.P,U1,12*%
%TO.N,+3V3_LEFT*%
X156867500Y-9067500D03*
%TO.P,U1,13*%
%TO.N,/GND_LEFT*%
X156867500Y-6527500D03*
%TO.P,U1,14*%
%TO.N,VBUS_LEFT*%
X156867500Y-3987500D03*
D13*
%TO.P,U1,15*%
%TO.N,/COL3*%
X139957500Y-5257500D03*
%TO.P,U1,16*%
%TO.N,/RGB_DATA_LEFT*%
X139957500Y-7797500D03*
%TO.P,U1,17*%
%TO.N,/RGB_EN_LEFT*%
X139957500Y-10337500D03*
%TO.P,U1,18*%
%TO.N,unconnected-(U1-D14_NFC1-Pad18)*%
X139957500Y-12877500D03*
%TO.P,U1,19*%
%TO.N,unconnected-(U1-D15_NFC2-Pad19)*%
X139957500Y-15417500D03*
%TO.P,U1,20*%
%TO.N,unconnected-(U1-D16_BAT_ADC-Pad20)*%
X139957500Y-17957500D03*
D14*
%TO.P,U1,21*%
%TO.N,unconnected-(U1-D17_P1.03-Pad21)*%
X157267500Y-17957500D03*
%TO.P,U1,22*%
%TO.N,unconnected-(U1-D18_P1.05-Pad22)*%
X157267500Y-15417500D03*
%TO.P,U1,23*%
%TO.N,unconnected-(U1-D19_P1.07-Pad23)*%
X157267500Y-12877500D03*
D15*
%TO.P,U1,24*%
%TO.N,unconnected-(U1-SWDIO-Pad24)*%
X147342500Y-3035000D03*
%TO.P,U1,25*%
%TO.N,unconnected-(U1-SWCLK-Pad25)*%
X149882500Y-3035000D03*
%TO.P,U1,26*%
%TO.N,unconnected-(U1-RESET-Pad26)*%
X147342500Y-5575000D03*
%TO.P,U1,27*%
%TO.N,/GND_LEFT*%
X149882500Y-5575000D03*
D16*
%TO.P,U1,28*%
%TO.N,/VBAT_LEFT*%
X147618512Y-17125323D03*
%TO.P,U1,29*%
%TO.N,/GND_LEFT*%
X149618512Y-17125323D03*
%TD*%
D17*
%TO.P,C_RGB_OUT1_1,1*%
%TO.N,/RGB_5V_LEFT*%
X149000000Y-37750000D03*
%TO.P,C_RGB_OUT1_1,2*%
%TO.N,/GND_LEFT*%
X149000000Y-36250000D03*
%TD*%
%TO.P,C_RGB_OUT2_1,1*%
%TO.N,/RGB_5V_LEFT*%
X151500000Y-37750000D03*
%TO.P,C_RGB_OUT2_1,2*%
%TO.N,/GND_LEFT*%
X151500000Y-36250000D03*
%TD*%
D18*
%TO.P,L_RGB1,1*%
%TO.N,/VBAT_LEFT*%
X145000000Y-33800000D03*
%TO.P,L_RGB1,2*%
%TO.N,/power/RGB_SW_LEFT*%
X147000000Y-33800000D03*
%TD*%
D19*
%TO.P,U_RGB1,1*%
%TO.N,/power/RGB_FB_LEFT*%
X145287500Y-36500000D03*
%TO.P,U_RGB1,2*%
%TO.N,/RGB_EN_LEFT*%
X145287500Y-37000000D03*
%TO.P,U_RGB1,3*%
%TO.N,/VBAT_LEFT*%
X145287500Y-37500000D03*
%TO.P,U_RGB1,4*%
%TO.N,/GND_LEFT*%
X146712500Y-37500000D03*
%TO.P,U_RGB1,5*%
%TO.N,/power/RGB_SW_LEFT*%
X146712500Y-37000000D03*
%TO.P,U_RGB1,6*%
%TO.N,/RGB_5V_LEFT*%
X146712500Y-36500000D03*
%TD*%
D17*
%TO.P,C_RGB_IN1,1*%
%TO.N,/VBAT_LEFT*%
X143000000Y-37550000D03*
%TO.P,C_RGB_IN1,2*%
%TO.N,/GND_LEFT*%
X143000000Y-36050000D03*
%TD*%
D10*
%TO.P,R_RGB_FB_TOP1,1*%
%TO.N,/RGB_5V_LEFT*%
X145750000Y-40000000D03*
%TO.P,R_RGB_FB_TOP1,2*%
%TO.N,/power/RGB_FB_LEFT*%
X147250000Y-40000000D03*
%TD*%
D20*
%TO.P,U_LS1,1*%
%TO.N,/GND_LEFT*%
X137862500Y-33250000D03*
%TO.P,U_LS1,2*%
%TO.N,/RGB_DATA_LEFT*%
X137862500Y-34200000D03*
%TO.P,U_LS1,3*%
%TO.N,/GND_LEFT*%
X137862500Y-35150000D03*
%TO.P,U_LS1,4*%
%TO.N,/power/RGB_SHIFTED_LEFT*%
X140137500Y-35150000D03*
%TO.P,U_LS1,5*%
%TO.N,/RGB_5V_LEFT*%
X140137500Y-33250000D03*
%TD*%
D10*
%TO.P,R_RGB_DATA1,1*%
%TO.N,/power/RGB_SHIFTED_LEFT*%
X137750000Y-37500000D03*
%TO.P,R_RGB_DATA1,2*%
%TO.N,/RGB_DATA_SHIFTED_LEFT*%
X139250000Y-37500000D03*
%TD*%
D21*
%TO.P,SWP1,1*%
%TO.N,/power/BAT_RAW_LEFT*%
X155050000Y-32737500D03*
%TO.P,SWP1,2*%
%TO.N,/VBAT_LEFT*%
X155050000Y-29737500D03*
%TO.P,SWP1,3*%
%TO.N,unconnected-(SWP1-Pad3)*%
X155050000Y-28237500D03*
D22*
%TO.P,SWP1,SH*%
%TO.N,N/C*%
X155900000Y-34162500D03*
X158100000Y-34162500D03*
X155900000Y-26812500D03*
X158100000Y-26812500D03*
%TD*%
D17*
%TO.P,C_RGB_BULK1,1*%
%TO.N,/RGB_5V_LEFT*%
X153800000Y-37750000D03*
%TO.P,C_RGB_BULK1,2*%
%TO.N,/GND_LEFT*%
X153800000Y-36250000D03*
%TD*%
D10*
%TO.P,R_RGB_FB_BOT1,1*%
%TO.N,/power/RGB_FB_LEFT*%
X142450000Y-40000000D03*
%TO.P,R_RGB_FB_BOT1,2*%
%TO.N,/GND_LEFT*%
X143950000Y-40000000D03*
%TD*%
%TO.P,C_LS1,1*%
%TO.N,/RGB_5V_LEFT*%
X137750000Y-31100000D03*
%TO.P,C_LS1,2*%
%TO.N,/GND_LEFT*%
X139250000Y-31100000D03*
%TD*%
D23*
%TO.P,J1,1*%
%TO.N,/power/BAT_RAW_LEFT*%
X143500000Y-30550000D03*
D24*
%TO.P,J1,2*%
%TO.N,/GND_LEFT*%
X141500000Y-30550000D03*
%TD*%
D25*
%TO.N,/RGB_EN_LEFT*%
X146117600Y-35870100D03*
X147274100Y-38990100D03*
%TO.N,/GND_LEFT*%
X143752900Y-34985000D03*
X153404400Y-35288800D03*
%TO.N,/COL0*%
X83487500Y-37586400D03*
X50432600Y-44009200D03*
X100749600Y-31971500D03*
X102941900Y-18365300D03*
X118608300Y-12002500D03*
X121622800Y-58489800D03*
X83487500Y-47022400D03*
%TO.N,/ROW0*%
X99000000Y-18083200D03*
X63996400Y-17486500D03*
X79500000Y-18083200D03*
%TO.N,/ROW1*%
X138862200Y-6527500D03*
X79000000Y-37197200D03*
X98500000Y-37818300D03*
X40602700Y-24235900D03*
%TO.N,/ROW2*%
X60902100Y-41319100D03*
X116000000Y-41607900D03*
%TO.N,/ROW3*%
X136868800Y-45100000D03*
X98500000Y-52950800D03*
X114890600Y-52394400D03*
%TO.N,/ROW4*%
X60500000Y-59545900D03*
X42485400Y-59483000D03*
X93983500Y-67983400D03*
X135568500Y-61285800D03*
%TO.N,/ROW5*%
X78932700Y-77325300D03*
X139702500Y-75808900D03*
X117500000Y-76329100D03*
X144422100Y-17647900D03*
%TO.N,/ROW6*%
X82500000Y-90417500D03*
X135907900Y-78914300D03*
X101994200Y-90417500D03*
X41576200Y-78799900D03*
%TO.N,/ROW7*%
X128222700Y-93762500D03*
X52000000Y-92247900D03*
%TO.N,/COL1*%
X64437500Y-63182400D03*
X26022100Y-19594500D03*
X45387500Y-25365600D03*
X155598500Y-14989200D03*
X25875100Y-58067900D03*
X118945400Y-47715100D03*
X115594900Y-100662900D03*
X113580900Y-100662900D03*
%TO.N,/COL2*%
X102537500Y-10833800D03*
X26493400Y-43232400D03*
X118376700Y-85882100D03*
X88093200Y-22401500D03*
X102555900Y-56686100D03*
X135921200Y-103995900D03*
X117873500Y-72370800D03*
X105194100Y-71783300D03*
X64437500Y-43232400D03*
X90631300Y-82373500D03*
X121587500Y-23253300D03*
X88093200Y-17370900D03*
X114997900Y-93998500D03*
D26*
%TO.N,/COL3*%
X81037500Y-57600000D03*
X65237500Y-52900000D03*
X65237500Y-51700000D03*
X83437500Y-64099999D03*
D25*
X24782700Y-23460400D03*
D26*
X80837500Y-61900000D03*
D25*
X84948800Y-71623600D03*
X45387500Y-16215600D03*
X65687500Y-18445800D03*
D26*
X63837500Y-44600000D03*
D25*
X47891500Y-73688300D03*
D26*
X64037499Y-38000000D03*
D25*
X64115500Y-77003000D03*
D26*
X64037499Y-34500000D03*
D25*
%TO.N,/RGB_DATA_LEFT*%
X139947500Y-29910700D03*
X141068000Y-7797500D03*
%TO.N,/VBAT_LEFT*%
X151734500Y-31953000D03*
X151734500Y-28904600D03*
%TO.N,/matrix/SW37_A*%
X39342900Y-51830100D03*
X41000000Y-51830100D03*
%TO.N,/matrix/SW33_A*%
X58087500Y-49547700D03*
X60930000Y-50953200D03*
%TO.N,/RGB_5V_LEFT*%
X137648700Y-32029000D03*
%TO.N,/matrix/SW15_A*%
X77137500Y-27355100D03*
X80413000Y-29647100D03*
%TO.N,/power/RGB_SW_LEFT*%
X151171100Y-33800000D03*
X147587200Y-37581800D03*
%TO.N,/power/RGB_FB_LEFT*%
X148179800Y-40442700D03*
X145287500Y-35795200D03*
%TO.N,/RGB_DATA_SHIFTED_LEFT*%
X106521800Y-33469600D03*
X138577600Y-38358300D03*
X105505200Y-32453000D03*
X90736500Y-21898500D03*
X130984700Y-35031700D03*
%TO.N,/matrix/SW7_A*%
X62859900Y-15890700D03*
X62284800Y-15315600D03*
%TO.N,/matrix/SW11_A*%
X40789500Y-18669300D03*
X40750200Y-17421200D03*
%TO.N,/matrix/SW48_A*%
X134954900Y-77931200D03*
X136110800Y-72784400D03*
X135535300Y-72208900D03*
X137000000Y-77931200D03*
%TO.N,/rgb/RGB_LED_left_16*%
X133124200Y-59493200D03*
X49787500Y-58944200D03*
%TO.N,/rgb/RGB_LED_left_17*%
X125987500Y-60492300D03*
X56601200Y-60265200D03*
X55389600Y-60392600D03*
X35493000Y-60392600D03*
%TO.N,/rgb/RGB_LED_left_14*%
X112137500Y-59732900D03*
X68837500Y-61751900D03*
%TO.N,/rgb/RGB_LED_left_15*%
X57318200Y-61150200D03*
X106937500Y-59532900D03*
%TO.N,/rgb/RGB_LED_left_23*%
X49787500Y-79742000D03*
X131187500Y-79742000D03*
%TO.N,/rgb/RGB_LED_left_24*%
X35563500Y-78204100D03*
X122981600Y-77953600D03*
%TO.N,/rgb/RGB_LED_left_13*%
X75974200Y-57911100D03*
X142057300Y-57371400D03*
%TO.N,/rgb/RGB_LED_left_4*%
X125987500Y-20698800D03*
X37726100Y-21179500D03*
%TO.N,/rgb/RGB_LED_left_5*%
X30737500Y-22819500D03*
X91678000Y-36824600D03*
%TO.N,/rgb/RGB_LED_left_3*%
X131187500Y-21304600D03*
X49796300Y-21304600D03*
%TO.N,/rgb/RGB_LED_left_12*%
X87887500Y-57102400D03*
X148600000Y-56769700D03*
%TO.N,/rgb/RGB_LED_left_19*%
X87887500Y-74491800D03*
X148975000Y-75098600D03*
%TO.N,/rgb/RGB_LED_left_20*%
X141602400Y-73787800D03*
X74037500Y-76089800D03*
%TO.N,/rgb/RGB_LED_left_18*%
X93087500Y-74331200D03*
X28075100Y-60745400D03*
%TO.N,/rgb/RGB_LED_left_6*%
X87887500Y-35476700D03*
X77186800Y-33137600D03*
%TO.N,/rgb/RGB_LED_left_25*%
X100231300Y-96102000D03*
X32401900Y-93136400D03*
%TO.N,/rgb/RGB_LED_left_1*%
X114074200Y-20299700D03*
X68837500Y-19895900D03*
%TO.N,/rgb/RGB_LED_left_2*%
X57130300Y-19286700D03*
X106937500Y-19659400D03*
%TO.N,/rgb/RGB_LED_left_10*%
X34578900Y-40360100D03*
X125987500Y-39992600D03*
%TO.N,/rgb/RGB_LED_left_11*%
X28356300Y-44009100D03*
X93087500Y-55133300D03*
%TO.N,/rgb/RGB_LED_left_7*%
X68837500Y-39225000D03*
X114074200Y-39225000D03*
%TO.N,/rgb/RGB_LED_left_8*%
X105000800Y-38608300D03*
X57282600Y-37887100D03*
%TO.N,/rgb/RGB_LED_left_21*%
X68837500Y-76697100D03*
X114074200Y-76697100D03*
%TO.N,/rgb/RGB_LED_left_9*%
X49787500Y-39738500D03*
X130984700Y-39736900D03*
%TO.N,/rgb/RGB_LED_left_29*%
X125536200Y-107667400D03*
X145019600Y-110492500D03*
%TO.N,/rgb/RGB_LED_left_26*%
X92687400Y-93192600D03*
X75974200Y-92641600D03*
%TO.N,/rgb/RGB_LED_left_0*%
X85698500Y-15815700D03*
X77134800Y-15815700D03*
%TO.N,/rgb/RGB_LED_left_22*%
X56924200Y-78835800D03*
X105000800Y-78835800D03*
%TO.N,/rgb/RGB_LED_left_28*%
X37881300Y-98696800D03*
X128516600Y-98718500D03*
%TO.N,/rgb/RGB_LED_left_27*%
X66900800Y-98039600D03*
X43081300Y-98039600D03*
%TD*%
%TO.N,/RGB_EN_LEFT*%
D27*
X138343700Y-40000000D02*
X139050000Y-40000000D01*
D28*
X136221000Y-38310300D02*
X136654000Y-38310300D01*
X146043400Y-41525900D02*
X149258700Y-44741200D01*
X140918800Y-10337500D02*
X145024500Y-14443200D01*
X145952700Y-36035000D02*
X146117600Y-35870100D01*
X139957500Y-10337500D02*
X140918800Y-10337500D01*
X149667700Y-38990100D02*
X147274100Y-38990100D01*
X139050000Y-40000000D02*
X140575900Y-41525900D01*
X152358800Y-43458400D02*
X152358800Y-41681200D01*
X145024500Y-14443200D02*
X145024500Y-19509700D01*
X145952700Y-36735000D02*
X145952700Y-36035000D01*
D27*
X136221000Y-28313200D02*
X136221000Y-38310300D01*
D28*
X140575900Y-41525900D02*
X146043400Y-41525900D01*
D27*
X136654000Y-38310300D02*
X138343700Y-40000000D01*
D28*
X152358800Y-41681200D02*
X149667700Y-38990100D01*
X149258700Y-44741200D02*
X151076000Y-44741200D01*
X145287500Y-37000000D02*
X145687700Y-37000000D01*
X145687700Y-37000000D02*
X145952700Y-36735000D01*
X145024500Y-19509700D02*
X136221000Y-28313200D01*
X151076000Y-44741200D02*
X152358800Y-43458400D01*
%TO.N,/GND_LEFT*%
X138511600Y-30361600D02*
X139250000Y-31100000D01*
X138811600Y-34517900D02*
X138811600Y-33829800D01*
X150835000Y-6527500D02*
X156867500Y-6527500D01*
X151500000Y-36250000D02*
X149000000Y-36250000D01*
X138231800Y-33250000D02*
X137862500Y-33250000D01*
X153404400Y-35288800D02*
X153800000Y-35684400D01*
X138179500Y-35150000D02*
X138811600Y-34517900D01*
X149618500Y-17125300D02*
X149618500Y-15596900D01*
X143950000Y-39253200D02*
X143950000Y-40000000D01*
X137862500Y-35150000D02*
X138179500Y-35150000D01*
X144959300Y-39253200D02*
X143950000Y-39253200D01*
X153800000Y-36250000D02*
X151500000Y-36250000D01*
X145834700Y-16751200D02*
X145834700Y-26434500D01*
X137259800Y-30361600D02*
X138511600Y-30361600D01*
X143752900Y-35297100D02*
X143000000Y-36050000D01*
X138811600Y-33829800D02*
X138231800Y-33250000D01*
X141500000Y-30550000D02*
X142376700Y-30550000D01*
X141500000Y-30550000D02*
X140623300Y-30550000D01*
X146712500Y-37500000D02*
X144959300Y-39253200D01*
X149618500Y-15596900D02*
X149618500Y-7744000D01*
X141296800Y-34964000D02*
X140850700Y-34517900D01*
X137018400Y-32405900D02*
X137018400Y-30603000D01*
X137862500Y-33250000D02*
X137018400Y-32405900D01*
X140073300Y-31100000D02*
X139250000Y-31100000D01*
X141296800Y-39253200D02*
X141296800Y-34964000D01*
X140623300Y-30550000D02*
X140073300Y-31100000D01*
X140550000Y-40000000D02*
X141296800Y-39253200D01*
X143752900Y-34985000D02*
X143752900Y-35297100D01*
X145834700Y-26434500D02*
X142376700Y-29892500D01*
X153800000Y-35684400D02*
X153800000Y-36250000D01*
X142376700Y-29892500D02*
X142376700Y-30550000D01*
X140850700Y-34517900D02*
X138811600Y-34517900D01*
X137018400Y-30603000D02*
X137259800Y-30361600D01*
X149618500Y-15596900D02*
X146989000Y-15596900D01*
X149882500Y-5575000D02*
X150835000Y-6527500D01*
X146989000Y-15596900D02*
X145834700Y-16751200D01*
X149618500Y-7744000D02*
X150835000Y-6527500D01*
X141296800Y-39253200D02*
X143950000Y-39253200D01*
%TO.N,/COL0*%
X107075600Y-14231600D02*
X102941900Y-18365300D01*
X142741300Y-4176100D02*
X152334200Y-4176100D01*
X118608300Y-12002500D02*
X116379200Y-14231600D01*
X158183000Y-9618100D02*
X157142800Y-10658300D01*
X69657600Y-44009200D02*
X50432600Y-44009200D01*
X154986200Y-11602900D02*
X154986200Y-15245900D01*
X72456900Y-46808500D02*
X69657600Y-44009200D01*
X158183000Y-5994400D02*
X158183000Y-9618100D01*
X93726600Y-51999900D02*
X92213200Y-50486500D01*
X87839800Y-56252300D02*
X92820200Y-56252300D01*
X121622800Y-58489800D02*
X120859000Y-57726000D01*
X154986200Y-15245900D02*
X156427800Y-16687500D01*
X116379200Y-14231600D02*
X107075600Y-14231600D01*
X100749600Y-31971500D02*
X95134700Y-37586400D01*
X152334200Y-4176100D02*
X153820600Y-5662500D01*
X83487500Y-48036600D02*
X83487500Y-47022400D01*
X157142800Y-10658300D02*
X155930800Y-10658300D01*
X157851100Y-5662500D02*
X158183000Y-5994400D01*
X85937400Y-50486500D02*
X83487500Y-48036600D01*
X156427800Y-16687500D02*
X156867500Y-16687500D01*
X127391700Y-3219100D02*
X141784300Y-3219100D01*
X153820600Y-5662500D02*
X157851100Y-5662500D01*
X87231000Y-56861100D02*
X87839800Y-56252300D01*
X155930800Y-10658300D02*
X154986200Y-11602900D01*
X118608300Y-12002500D02*
X127391700Y-3219100D01*
X87624400Y-57726000D02*
X87231000Y-57332600D01*
X95134700Y-37586400D02*
X83487500Y-37586400D01*
X83487500Y-47022400D02*
X83273600Y-46808500D01*
X87231000Y-57332600D02*
X87231000Y-56861100D01*
X92213200Y-50486500D02*
X85937400Y-50486500D01*
X141784300Y-3219100D02*
X142741300Y-4176100D01*
X83273600Y-46808500D02*
X72456900Y-46808500D01*
X92820200Y-56252300D02*
X93726600Y-55345900D01*
X120859000Y-57726000D02*
X87624400Y-57726000D01*
X93726600Y-55345900D02*
X93726600Y-51999900D01*
%TO.N,/ROW0*%
X78484600Y-18083200D02*
X75034000Y-14632600D01*
X107503400Y-14633300D02*
X105346700Y-16790000D01*
X75034000Y-14632600D02*
X66850300Y-14632600D01*
X105346600Y-18564800D02*
X104935400Y-18976000D01*
X104935400Y-18976000D02*
X101847600Y-18976000D01*
X105346700Y-16790000D02*
X105346700Y-18564800D01*
X79500000Y-18083200D02*
X78484600Y-18083200D01*
X99000000Y-18083200D02*
X79500000Y-18083200D01*
X100954800Y-18083200D02*
X99000000Y-18083200D01*
X127981000Y-3987500D02*
X117335200Y-14633300D01*
X66850300Y-14632600D02*
X63996400Y-17486500D01*
X117335200Y-14633300D02*
X107503400Y-14633300D01*
X140357500Y-3987500D02*
X127981000Y-3987500D01*
X101847600Y-18976000D02*
X100954800Y-18083200D01*
X105346700Y-18564800D02*
X105346600Y-18564800D01*
%TO.N,/ROW1*%
X79376900Y-38202200D02*
X79000000Y-37825300D01*
X125386200Y-24100100D02*
X116354100Y-33132200D01*
X98330200Y-37988100D02*
X91139900Y-37988100D01*
X107035400Y-33132200D02*
X106771100Y-32867900D01*
X135314200Y-10075500D02*
X135314200Y-14287400D01*
X54894400Y-24235900D02*
X68483800Y-37825300D01*
X135314200Y-14287400D02*
X132693700Y-16907900D01*
X91139900Y-37988100D02*
X90925800Y-38202200D01*
X79000000Y-37825300D02*
X79000000Y-37197200D01*
X106771100Y-32867900D02*
X106272600Y-32867900D01*
X105873100Y-33267400D02*
X105873100Y-33267500D01*
X129245400Y-24100100D02*
X125386200Y-24100100D01*
X132693700Y-20651800D02*
X129245400Y-24100100D01*
X140357500Y-6527500D02*
X138862200Y-6527500D01*
X90925800Y-38202200D02*
X79376900Y-38202200D01*
X68483800Y-37825300D02*
X79000000Y-37825300D01*
X98500000Y-37818300D02*
X98330200Y-37988100D01*
X138862200Y-6527500D02*
X135314200Y-10075500D01*
X116354100Y-33132200D02*
X107035400Y-33132200D01*
X105873100Y-33267500D02*
X103050800Y-33267500D01*
X103050800Y-33267500D02*
X98500000Y-37818300D01*
X106272600Y-32867900D02*
X105873100Y-33267400D01*
X40602700Y-24235900D02*
X54894400Y-24235900D01*
X132693700Y-16907900D02*
X132693700Y-20651800D01*
%TO.N,/ROW2*%
X135830700Y-12960400D02*
X135830700Y-14621800D01*
X94083200Y-39996600D02*
X91971900Y-39996600D01*
X90649400Y-41319100D02*
X60902100Y-41319100D01*
X139723600Y-9067500D02*
X135830700Y-12960400D01*
X95694500Y-41607900D02*
X94083200Y-39996600D01*
X131586500Y-31082500D02*
X131586500Y-40051200D01*
X134234100Y-28434900D02*
X131586500Y-31082500D01*
X131586500Y-40051200D02*
X130029800Y-41607900D01*
X130029800Y-41607900D02*
X116000000Y-41607900D01*
X140357500Y-9067500D02*
X139723600Y-9067500D01*
X91971900Y-39996600D02*
X90649400Y-41319100D01*
X134234100Y-16218400D02*
X134234100Y-28434900D01*
X116000000Y-41607900D02*
X95694500Y-41607900D01*
X135830700Y-14621800D02*
X134234100Y-16218400D01*
%TO.N,/ROW3*%
X131987900Y-40219000D02*
X131988300Y-40218600D01*
X114890600Y-52394400D02*
X99056400Y-52394400D01*
X134653900Y-28944300D02*
X134653900Y-16679400D01*
X128956500Y-43250400D02*
X131987900Y-40219000D01*
X139725800Y-11607500D02*
X140357500Y-11607500D01*
X134653900Y-16679400D02*
X139725800Y-11607500D01*
X99056400Y-52394400D02*
X98500000Y-52950800D01*
X131988300Y-40218600D02*
X131988300Y-31609900D01*
X131988300Y-31609900D02*
X134653900Y-28944300D01*
X116396900Y-52394400D02*
X125540900Y-43250400D01*
X114890600Y-52394400D02*
X116396900Y-52394400D01*
X136868800Y-45100000D02*
X131987900Y-40219000D01*
X125540900Y-43250400D02*
X128956500Y-43250400D01*
%TO.N,/ROW4*%
X72456900Y-65858500D02*
X69158100Y-62559700D01*
X93983500Y-67983400D02*
X93859100Y-67859000D01*
X138661100Y-46041300D02*
X135356600Y-42736800D01*
X93859100Y-66036700D02*
X98610000Y-61285800D01*
X149225800Y-57041000D02*
X149225800Y-52638200D01*
X149225800Y-52638200D02*
X147395800Y-50808200D01*
X55999500Y-60716200D02*
X55999500Y-59545900D01*
X69158100Y-62559700D02*
X57843000Y-62559700D01*
X55999500Y-59545900D02*
X42548300Y-59545900D01*
X143350500Y-50808200D02*
X138661100Y-46118800D01*
X57843000Y-62559700D02*
X55999500Y-60716200D01*
X135356600Y-42736800D02*
X135356600Y-18583300D01*
X138661100Y-46118800D02*
X138661100Y-46041300D01*
X135568500Y-61285800D02*
X144981000Y-61285800D01*
X85776600Y-69372900D02*
X82262200Y-65858500D01*
X93983500Y-67983400D02*
X92594000Y-69372900D01*
X93859100Y-67859000D02*
X93859100Y-66036700D01*
X92594000Y-69372900D02*
X85776600Y-69372900D01*
X147395800Y-50808200D02*
X143350500Y-50808200D01*
X98610000Y-61285800D02*
X135568500Y-61285800D01*
X82262200Y-65858500D02*
X72456900Y-65858500D01*
X144981000Y-61285800D02*
X149225800Y-57041000D01*
X135356600Y-18583300D02*
X139792400Y-14147500D01*
X139792400Y-14147500D02*
X140357500Y-14147500D01*
X55999500Y-59545900D02*
X60500000Y-59545900D01*
X42548300Y-59545900D02*
X42485400Y-59483000D01*
%TO.N,/ROW5*%
X130606300Y-77798000D02*
X124116800Y-77798000D01*
X116503800Y-77325300D02*
X117500000Y-76329100D01*
X140357500Y-16687500D02*
X141317900Y-17647900D01*
X141317900Y-17647900D02*
X144422100Y-17647900D01*
X122647900Y-76329100D02*
X117500000Y-76329100D01*
X139702500Y-75808900D02*
X132595400Y-75808900D01*
X124116800Y-77798000D02*
X122647900Y-76329100D01*
X78932700Y-77325300D02*
X116503800Y-77325300D01*
X132595400Y-75808900D02*
X130606300Y-77798000D01*
%TO.N,/ROW6*%
X72456900Y-86813500D02*
X78896000Y-86813500D01*
X139909800Y-42604700D02*
X146473100Y-42604700D01*
X137652500Y-78914300D02*
X135907900Y-78914300D01*
X135907900Y-79062300D02*
X135907900Y-78914300D01*
X150882500Y-47014100D02*
X150882500Y-51504400D01*
X78896000Y-86813500D02*
X82500000Y-90417500D01*
X140443500Y-76123300D02*
X137652500Y-78914300D01*
X135758300Y-38453200D02*
X139909800Y-42604700D01*
X154414100Y-70558600D02*
X148849400Y-76123300D01*
X41576200Y-78799900D02*
X46336900Y-83560600D01*
X140357500Y-19227500D02*
X135758300Y-23826700D01*
X135758300Y-23826700D02*
X135758300Y-38453200D01*
X69204000Y-83560600D02*
X72456900Y-86813500D01*
X124552700Y-90417500D02*
X135907900Y-79062300D01*
X46336900Y-83560600D02*
X69204000Y-83560600D01*
X148849400Y-76123300D02*
X140443500Y-76123300D01*
X154414100Y-55036000D02*
X154414100Y-70558600D01*
X101994200Y-90417500D02*
X82500000Y-90417500D01*
X150882500Y-51504400D02*
X154414100Y-55036000D01*
X146473100Y-42604700D02*
X150882500Y-47014100D01*
X101994200Y-90417500D02*
X124552700Y-90417500D01*
%TO.N,/ROW7*%
D27*
X148002800Y-77543500D02*
X140110100Y-77543500D01*
D28*
X156867500Y-19227500D02*
X156525900Y-19569100D01*
D27*
X157390800Y-33352100D02*
X157390800Y-68155500D01*
X156525900Y-22413700D02*
X156525900Y-26741900D01*
D28*
X128222700Y-93762500D02*
X127857000Y-93396800D01*
D27*
X158086200Y-32656700D02*
X157390800Y-33352100D01*
D28*
X156525900Y-19569100D02*
X156525900Y-22413700D01*
D27*
X157390800Y-68155500D02*
X148002800Y-77543500D01*
D28*
X102348800Y-93396800D02*
X99772400Y-90820400D01*
X74872100Y-92247900D02*
X52000000Y-92247900D01*
D27*
X140110100Y-77543500D02*
X128222700Y-89430900D01*
X156525900Y-26741900D02*
X158086200Y-28302200D01*
D28*
X86920400Y-90820400D02*
X86020000Y-91720800D01*
D27*
X158086200Y-28302200D02*
X158086200Y-32656700D01*
D28*
X127857000Y-93396800D02*
X102348800Y-93396800D01*
X75399200Y-91720800D02*
X74872100Y-92247900D01*
D27*
X128222700Y-89430900D02*
X128222700Y-93762500D01*
D28*
X86020000Y-91720800D02*
X75399200Y-91720800D01*
X99772400Y-90820400D02*
X86920400Y-90820400D01*
%TO.N,/COL1*%
X24229600Y-56422400D02*
X24229600Y-41925700D01*
X96952900Y-43434400D02*
X93916800Y-40398300D01*
X93916800Y-40398300D02*
X92138300Y-40398300D01*
X24999600Y-30037500D02*
X24999600Y-29908300D01*
X36625600Y-63182400D02*
X64437500Y-63182400D01*
X92138300Y-40398300D02*
X90811900Y-41724700D01*
X24231100Y-30806000D02*
X24999600Y-30037500D01*
X25875100Y-58067900D02*
X24229600Y-56422400D01*
X25875100Y-58067900D02*
X27950800Y-60143600D01*
X24229600Y-31573500D02*
X24231100Y-31572000D01*
X30668800Y-24241200D02*
X30667800Y-24240100D01*
X30667800Y-24240100D02*
X26022100Y-19594500D01*
X45387500Y-25365600D02*
X32154500Y-25365600D01*
X24229600Y-41925700D02*
X24229600Y-31573500D01*
X115594900Y-100662900D02*
X113580900Y-100662900D01*
X118945400Y-47715100D02*
X112306700Y-47715100D01*
X71652700Y-41925700D02*
X24229600Y-41925700D01*
X32154500Y-25365600D02*
X31030100Y-24241200D01*
X24231100Y-31572000D02*
X24231100Y-30806000D01*
X24999600Y-29908300D02*
X30667800Y-24240100D01*
X90811900Y-41724700D02*
X71853700Y-41724700D01*
X31030100Y-24241200D02*
X30668800Y-24241200D01*
X156440200Y-14147500D02*
X155598500Y-14989200D01*
X156867500Y-14147500D02*
X156440200Y-14147500D01*
X71853700Y-41724700D02*
X71652700Y-41925700D01*
X27950800Y-60143600D02*
X33586800Y-60143600D01*
X33586800Y-60143600D02*
X36625600Y-63182400D01*
X112306700Y-47715100D02*
X108026000Y-43434400D01*
X108026000Y-43434400D02*
X96952900Y-43434400D01*
%TO.N,/COL2*%
X26493400Y-43232400D02*
X64437500Y-43232400D01*
X90631300Y-82373500D02*
X96425000Y-82373500D01*
X71113900Y-43232400D02*
X72070500Y-42275800D01*
D27*
X102537500Y-10833800D02*
X96000400Y-17370900D01*
D28*
X88093200Y-22401500D02*
X89330200Y-22401500D01*
X157879900Y-5123100D02*
X154132100Y-5123100D01*
X102516400Y-23253300D02*
X121587500Y-23253300D01*
X88921600Y-42275800D02*
X93386000Y-46740200D01*
X156867500Y-11607500D02*
X158584700Y-9890300D01*
X142441000Y-2799600D02*
X108755100Y-2799600D01*
X102537500Y-9017200D02*
X102537500Y-10833800D01*
X105194100Y-71783300D02*
X117286000Y-71783300D01*
X96425000Y-82373500D02*
X99933600Y-85882100D01*
X125923800Y-93998500D02*
X135921200Y-103995900D01*
X117286000Y-71783300D02*
X117873500Y-72370800D01*
X158584700Y-5827900D02*
X157879900Y-5123100D01*
X154132100Y-5123100D02*
X150916800Y-1907800D01*
X72070500Y-42275800D02*
X88921600Y-42275800D01*
X93386000Y-48732900D02*
X101339200Y-56686100D01*
X64437500Y-43232400D02*
X71113900Y-43232400D01*
X114997900Y-93998500D02*
X125923800Y-93998500D01*
X99933600Y-85882100D02*
X118376700Y-85882100D01*
X108755100Y-2799600D02*
X102537500Y-9017200D01*
X158584700Y-9890300D02*
X158584700Y-5827900D01*
D27*
X96000400Y-17370900D02*
X88093200Y-17370900D01*
D28*
X143332800Y-1907800D02*
X142441000Y-2799600D01*
X89330200Y-22401500D02*
X90434900Y-21296800D01*
X101339200Y-56686100D02*
X102555900Y-56686100D01*
X100559900Y-21296800D02*
X102516400Y-23253300D01*
X150916800Y-1907800D02*
X143332800Y-1907800D01*
X93386000Y-46740200D02*
X93386000Y-48732900D01*
X90434900Y-21296800D02*
X100559900Y-21296800D01*
%TO.N,/COL3*%
X84796300Y-71776100D02*
X69342400Y-71776100D01*
X64038600Y-18445800D02*
X65687500Y-18445800D01*
X127279100Y-5257500D02*
X113548000Y-18988600D01*
X40142100Y-16940600D02*
X27780300Y-16940600D01*
X105490900Y-18988600D02*
X105083000Y-19396500D01*
X40867100Y-16215600D02*
X40142100Y-16940600D01*
X47891500Y-73688300D02*
X60800800Y-73688300D01*
X105083000Y-19396500D02*
X101700000Y-19396500D01*
D27*
X65237500Y-52900000D02*
X69537500Y-57100000D01*
D28*
X69342400Y-71776100D02*
X64115500Y-77003000D01*
X45387500Y-16215600D02*
X61808400Y-16215600D01*
X27780300Y-16940600D02*
X24782700Y-19938200D01*
D27*
X76037500Y-57100000D02*
X81037500Y-57600000D01*
D28*
X101053500Y-18750000D02*
X65991700Y-18750000D01*
D27*
X63837500Y-44600000D02*
X64937500Y-50900000D01*
D28*
X113548000Y-18988600D02*
X105490900Y-18988600D01*
D27*
X64937500Y-50900000D02*
X65237500Y-51700000D01*
D28*
X45387500Y-16215600D02*
X40867100Y-16215600D01*
X61808400Y-16215600D02*
X64038600Y-18445800D01*
X139957500Y-5257500D02*
X127279100Y-5257500D01*
D27*
X64037499Y-34500000D02*
X64037499Y-38000000D01*
X80837500Y-61900000D02*
X83437500Y-64099999D01*
D28*
X24782700Y-19938200D02*
X24782700Y-23460400D01*
X84948800Y-71623600D02*
X84796300Y-71776100D01*
X60800800Y-73688300D02*
X64115500Y-77003000D01*
D27*
X69537500Y-57100000D02*
X76037500Y-57100000D01*
D28*
X101700000Y-19396500D02*
X101053500Y-18750000D01*
X65991700Y-18750000D02*
X65687500Y-18445800D01*
%TO.N,/RGB_DATA_LEFT*%
X137142600Y-29910700D02*
X139947500Y-29910700D01*
X141068000Y-7797500D02*
X139957500Y-7797500D01*
X137862500Y-34200000D02*
X137498600Y-34200000D01*
X137498600Y-34200000D02*
X136615200Y-33316600D01*
X136615200Y-33316600D02*
X136615200Y-30438100D01*
X136615200Y-30438100D02*
X137142600Y-29910700D01*
%TO.N,/VBAT_LEFT*%
D29*
X151734500Y-25793200D02*
X151734500Y-28904600D01*
X146847000Y-31953000D02*
X151734500Y-31953000D01*
X155050000Y-29737500D02*
X154916500Y-29604000D01*
X142083900Y-36633900D02*
X142083900Y-35488000D01*
X145000000Y-33800000D02*
X146847000Y-31953000D01*
X142083900Y-35488000D02*
X143771900Y-33800000D01*
X147618500Y-21677200D02*
X151734500Y-25793200D01*
X152433900Y-29604000D02*
X151734500Y-28904600D01*
X154916500Y-29604000D02*
X152433900Y-29604000D01*
X143771900Y-33800000D02*
X145000000Y-33800000D01*
X143000000Y-37550000D02*
X143851000Y-37550000D01*
D27*
X143851000Y-37550000D02*
X145237500Y-37550000D01*
X145237500Y-37550000D02*
X145287500Y-37500000D01*
D29*
X147618500Y-17125300D02*
X147618500Y-21677200D01*
X143000000Y-37550000D02*
X142083900Y-36633900D01*
%TO.N,/matrix/SW37_A*%
D28*
X41000000Y-51830100D02*
X39342900Y-51830100D01*
%TO.N,/matrix/SW33_A*%
X59524500Y-49547700D02*
X58087500Y-49547700D01*
X60930000Y-50953200D02*
X59524500Y-49547700D01*
%TO.N,/RGB_5V_LEFT*%
D29*
X154704400Y-36845600D02*
X154704400Y-35490300D01*
X138163900Y-31513800D02*
X137648700Y-32029000D01*
D27*
X149000000Y-37750000D02*
X148336600Y-38413400D01*
D29*
X139900000Y-33250000D02*
X138163900Y-31513800D01*
D27*
X146012900Y-39435800D02*
X146012900Y-39737100D01*
D29*
X152119100Y-31173500D02*
X144955600Y-31173500D01*
X153800000Y-37750000D02*
X154704400Y-36845600D01*
D27*
X145968700Y-39781300D02*
X145750000Y-40000000D01*
D29*
X148862500Y-37750000D02*
X148087900Y-36975400D01*
D27*
X147612500Y-36500000D02*
X146712500Y-36500000D01*
D29*
X151500000Y-37750000D02*
X149000000Y-37750000D01*
X138163900Y-31513800D02*
X137750000Y-31100000D01*
X153800000Y-37750000D02*
X151500000Y-37750000D01*
D27*
X147035300Y-38413400D02*
X146012900Y-39435800D01*
D29*
X144955600Y-31173500D02*
X142879100Y-33250000D01*
X146012900Y-39737100D02*
X145968700Y-39781300D01*
X153697000Y-34482900D02*
X153697000Y-32751400D01*
X154704400Y-35490300D02*
X153697000Y-34482900D01*
D27*
X148336600Y-38413400D02*
X147035300Y-38413400D01*
X148087900Y-36975400D02*
X147612500Y-36500000D01*
D29*
X140137500Y-33250000D02*
X139900000Y-33250000D01*
X153697000Y-32751400D02*
X152119100Y-31173500D01*
X149000000Y-37750000D02*
X148862500Y-37750000D01*
X142879100Y-33250000D02*
X140137500Y-33250000D01*
%TO.N,/matrix/SW15_A*%
D28*
X78121000Y-27355100D02*
X77137500Y-27355100D01*
X80413000Y-29647100D02*
X78121000Y-27355100D01*
%TO.N,/power/RGB_SW_LEFT*%
D27*
X147100000Y-37000000D02*
X147587200Y-37487200D01*
X151171100Y-33800000D02*
X147000000Y-33800000D01*
X146712500Y-37000000D02*
X147100000Y-37000000D01*
X147587200Y-37487200D02*
X147587200Y-37581800D01*
%TO.N,/power/RGB_FB_LEFT*%
D28*
X147692700Y-40442700D02*
X147250000Y-40000000D01*
X147250000Y-40000000D02*
X146519800Y-40730200D01*
X143180200Y-40730200D02*
X142450000Y-40000000D01*
X145287500Y-36500000D02*
X145287500Y-35795200D01*
X146519800Y-40730200D02*
X143180200Y-40730200D01*
X148179800Y-40442700D02*
X147692700Y-40442700D01*
%TO.N,/power/RGB_SHIFTED_LEFT*%
X140137500Y-35150000D02*
X137787500Y-37500000D01*
X137787500Y-37500000D02*
X137750000Y-37500000D01*
%TO.N,/RGB_DATA_SHIFTED_LEFT*%
X98341500Y-26830700D02*
X93266300Y-26830700D01*
X139250000Y-37500000D02*
X139250000Y-37685900D01*
X106521800Y-33469600D02*
X106728300Y-33676100D01*
X139250000Y-37685900D02*
X138577600Y-38358300D01*
X93266300Y-26830700D02*
X90736500Y-24300900D01*
X103963800Y-32453000D02*
X98341500Y-26830700D01*
X120806700Y-33676100D02*
X122162300Y-35031700D01*
X106728300Y-33676100D02*
X120806700Y-33676100D01*
X105505200Y-32453000D02*
X103963800Y-32453000D01*
X90736500Y-24300900D02*
X90736500Y-21898500D01*
X122162300Y-35031700D02*
X130984700Y-35031700D01*
%TO.N,/power/BAT_RAW_LEFT*%
D29*
X152668200Y-30355700D02*
X155050000Y-32737500D01*
X143500000Y-30550000D02*
X143694300Y-30355700D01*
X143694300Y-30355700D02*
X152668200Y-30355700D01*
%TO.N,/matrix/SW7_A*%
D28*
X62859900Y-15890700D02*
X62284800Y-15315600D01*
%TO.N,/matrix/SW11_A*%
X40789500Y-18669300D02*
X40789500Y-17460500D01*
X40789500Y-17460500D02*
X40750200Y-17421200D01*
%TO.N,/matrix/SW48_A*%
X136110800Y-72784400D02*
X135535300Y-72208900D01*
X134954900Y-77931200D02*
X137000000Y-77931200D01*
%TO.N,/rgb/RGB_LED_left_16*%
X120497700Y-59493200D02*
X133124200Y-59493200D01*
X58656300Y-58944200D02*
X59071100Y-58529400D01*
X49787500Y-58944200D02*
X58656300Y-58944200D01*
X59071100Y-58529400D02*
X119533900Y-58529400D01*
X119533900Y-58529400D02*
X120497700Y-59493200D01*
%TO.N,/rgb/RGB_LED_left_17*%
X71097800Y-60265200D02*
X72431900Y-58931100D01*
X72431900Y-58931100D02*
X113974100Y-58931100D01*
X113974100Y-58931100D02*
X115535300Y-60492300D01*
X115535300Y-60492300D02*
X125987500Y-60492300D01*
X55389600Y-60392600D02*
X35493000Y-60392600D01*
X56601200Y-60265200D02*
X71097800Y-60265200D01*
%TO.N,/rgb/RGB_LED_left_14*%
X107588400Y-59733000D02*
X107588400Y-59732900D01*
X93916800Y-63741700D02*
X97523800Y-60134700D01*
X107186800Y-60134600D02*
X107588400Y-59733000D01*
X107588400Y-59732900D02*
X112137500Y-59732900D01*
X72147900Y-61351400D02*
X89748000Y-61351400D01*
X71747400Y-61751900D02*
X72147900Y-61351400D01*
X97523800Y-60134700D02*
X97523800Y-60134600D01*
X89748000Y-61351400D02*
X92138300Y-63741700D01*
X68837500Y-61751900D02*
X71747400Y-61751900D01*
X97523800Y-60134600D02*
X107186800Y-60134600D01*
X92138300Y-63741700D02*
X93916800Y-63741700D01*
%TO.N,/rgb/RGB_LED_left_15*%
X71581100Y-61150200D02*
X73298500Y-59432800D01*
X106837400Y-59432800D02*
X106937500Y-59532900D01*
X57318200Y-61150200D02*
X71581100Y-61150200D01*
X73298500Y-59432800D02*
X106837400Y-59432800D01*
%TO.N,/rgb/RGB_LED_left_23*%
X131187500Y-79742000D02*
X49787500Y-79742000D01*
%TO.N,/rgb/RGB_LED_left_24*%
X35814000Y-77953600D02*
X122981600Y-77953600D01*
X35563500Y-78204100D02*
X35814000Y-77953600D01*
%TO.N,/rgb/RGB_LED_left_13*%
X142057300Y-57371400D02*
X132103100Y-57371400D01*
X76190800Y-58127700D02*
X75974200Y-57911100D01*
X130383000Y-59091500D02*
X120697700Y-59091500D01*
X132103100Y-57371400D02*
X130383000Y-59091500D01*
X120697700Y-59091500D02*
X119733900Y-58127700D01*
X119733900Y-58127700D02*
X76190800Y-58127700D01*
%TO.N,/rgb/RGB_LED_left_4*%
X125987500Y-20698800D02*
X125783400Y-20902900D01*
X89713700Y-20493400D02*
X89507600Y-20699500D01*
X101092600Y-20493400D02*
X89713700Y-20493400D01*
X101502100Y-20902900D02*
X101092600Y-20493400D01*
X125783400Y-20902900D02*
X101502100Y-20902900D01*
X38206100Y-20699500D02*
X37726100Y-21179500D01*
X89507600Y-20699500D02*
X38206100Y-20699500D01*
%TO.N,/rgb/RGB_LED_left_5*%
X74336000Y-29612800D02*
X67542700Y-22819500D01*
X80022900Y-36824600D02*
X74336000Y-31137700D01*
X74336000Y-31137700D02*
X74336000Y-29612800D01*
X91678000Y-36824600D02*
X80022900Y-36824600D01*
X67542700Y-22819500D02*
X30737500Y-22819500D01*
%TO.N,/rgb/RGB_LED_left_3*%
X101335700Y-21304600D02*
X100926200Y-20895100D01*
X100926200Y-20895100D02*
X90168300Y-20895100D01*
X131187500Y-21304600D02*
X101335700Y-21304600D01*
X90168300Y-20895100D02*
X89758800Y-21304600D01*
X89758800Y-21304600D02*
X49796300Y-21304600D01*
%TO.N,/rgb/RGB_LED_left_12*%
X111708000Y-57287800D02*
X114373700Y-54622100D01*
X88072900Y-57287800D02*
X111708000Y-57287800D01*
X138955400Y-54622100D02*
X141103000Y-56769700D01*
X87887500Y-57102400D02*
X88072900Y-57287800D01*
X114373700Y-54622100D02*
X138955400Y-54622100D01*
X141103000Y-56769700D02*
X148600000Y-56769700D01*
%TO.N,/rgb/RGB_LED_left_19*%
X148975000Y-75098600D02*
X144354700Y-75098600D01*
X136360100Y-73386100D02*
X135861600Y-73386100D01*
X135670800Y-73195300D02*
X114281400Y-73195300D01*
X89272400Y-75876700D02*
X87887500Y-74491800D01*
X111600000Y-75876700D02*
X89272400Y-75876700D01*
X142430800Y-73174700D02*
X136571500Y-73174700D01*
X136571500Y-73174700D02*
X136360100Y-73386100D01*
X114281400Y-73195300D02*
X111600000Y-75876700D01*
X144354700Y-75098600D02*
X142430800Y-73174700D01*
X135861600Y-73386100D02*
X135670800Y-73195300D01*
%TO.N,/rgb/RGB_LED_left_20*%
X114392100Y-73652800D02*
X111766500Y-76278400D01*
X135695200Y-73787800D02*
X135560200Y-73652800D01*
X111766500Y-76278400D02*
X74226100Y-76278400D01*
X135560200Y-73652800D02*
X114392100Y-73652800D01*
X74226100Y-76278400D02*
X74037500Y-76089800D01*
X141602400Y-73787800D02*
X135695200Y-73787800D01*
%TO.N,/rgb/RGB_LED_left_18*%
X63711600Y-71281000D02*
X60194100Y-67763500D01*
X93087500Y-74331200D02*
X88801800Y-74331200D01*
X85492500Y-71021900D02*
X84699600Y-71021900D01*
X84699600Y-71021900D02*
X84440500Y-71281000D01*
X53406900Y-67763500D02*
X50079200Y-64435800D01*
X60194100Y-67763500D02*
X53406900Y-67763500D01*
X50079200Y-64435800D02*
X36337100Y-64435800D01*
X84440500Y-71281000D02*
X63711600Y-71281000D01*
X32646700Y-60745400D02*
X28075100Y-60745400D01*
X36337100Y-64435800D02*
X32646700Y-60745400D01*
X88801800Y-74331200D02*
X85492500Y-71021900D01*
%TO.N,/rgb/RGB_LED_left_6*%
X85548400Y-33137600D02*
X87887500Y-35476700D01*
X77186800Y-33137600D02*
X85548400Y-33137600D01*
%TO.N,/rgb/RGB_LED_left_25*%
X32401900Y-93136400D02*
X56039100Y-93136400D01*
X75144400Y-94256400D02*
X92081300Y-94256400D01*
X56039100Y-93136400D02*
X56459800Y-92715700D01*
X56459800Y-92715700D02*
X73603700Y-92715700D01*
X73603700Y-92715700D02*
X75144400Y-94256400D01*
X92081300Y-94256400D02*
X93926900Y-96102000D01*
X93926900Y-96102000D02*
X100231300Y-96102000D01*
%TO.N,/rgb/RGB_LED_left_1*%
X101467000Y-20299700D02*
X101063200Y-19895900D01*
X114074200Y-20299700D02*
X101467000Y-20299700D01*
X101063200Y-19895900D02*
X68837500Y-19895900D01*
%TO.N,/rgb/RGB_LED_left_2*%
X101022100Y-19286700D02*
X57130300Y-19286700D01*
X101573600Y-19838200D02*
X101022100Y-19286700D01*
X106937500Y-19659400D02*
X106758700Y-19838200D01*
X106758700Y-19838200D02*
X101573600Y-19838200D01*
%TO.N,/rgb/RGB_LED_left_10*%
X94249600Y-39594900D02*
X91805500Y-39594900D01*
X125711900Y-40268200D02*
X94922900Y-40268200D01*
X91805500Y-39594900D02*
X91040300Y-40360100D01*
X91040300Y-40360100D02*
X34578900Y-40360100D01*
X125987500Y-39992600D02*
X125711900Y-40268200D01*
X94922900Y-40268200D02*
X94249600Y-39594900D01*
%TO.N,/rgb/RGB_LED_left_11*%
X49545700Y-44009100D02*
X54379300Y-48842700D01*
X54379300Y-48842700D02*
X59670500Y-48842700D01*
X28356300Y-44009100D02*
X49545700Y-44009100D01*
X74705900Y-52317500D02*
X77521700Y-55133300D01*
X77521700Y-55133300D02*
X93087500Y-55133300D01*
X63145300Y-52317500D02*
X74705900Y-52317500D01*
X59670500Y-48842700D02*
X63145300Y-52317500D01*
%TO.N,/rgb/RGB_LED_left_7*%
X95015900Y-39225000D02*
X94582400Y-38791500D01*
X94582400Y-38791500D02*
X91472700Y-38791500D01*
X91472700Y-38791500D02*
X91039200Y-39225000D01*
X91039200Y-39225000D02*
X68837500Y-39225000D01*
X114074200Y-39225000D02*
X95015900Y-39225000D01*
%TO.N,/rgb/RGB_LED_left_8*%
X105000800Y-38608300D02*
X94967300Y-38608300D01*
X91087800Y-38608300D02*
X58003800Y-38608300D01*
X91306300Y-38389800D02*
X91087800Y-38608300D01*
X94748800Y-38389800D02*
X91306300Y-38389800D01*
X94967300Y-38608300D02*
X94748800Y-38389800D01*
X58003800Y-38608300D02*
X57282600Y-37887100D01*
%TO.N,/rgb/RGB_LED_left_21*%
X114074200Y-76697100D02*
X68837500Y-76697100D01*
%TO.N,/rgb/RGB_LED_left_9*%
X49875800Y-39826800D02*
X49787500Y-39738500D01*
X91005500Y-39826800D02*
X49875800Y-39826800D01*
X95049600Y-39826800D02*
X94416000Y-39193200D01*
X94416000Y-39193200D02*
X91639100Y-39193200D01*
X125302400Y-39826800D02*
X95049600Y-39826800D01*
X130984700Y-39736900D02*
X126582800Y-39736900D01*
X126236800Y-39390900D02*
X125738300Y-39390900D01*
X125738300Y-39390900D02*
X125302400Y-39826800D01*
X126582800Y-39736900D02*
X126236800Y-39390900D01*
X91639100Y-39193200D02*
X91005500Y-39826800D01*
%TO.N,/rgb/RGB_LED_left_29*%
X125536200Y-107667400D02*
X128361300Y-110492500D01*
X128361300Y-110492500D02*
X145019600Y-110492500D01*
%TO.N,/rgb/RGB_LED_left_26*%
X92687400Y-93192600D02*
X92136400Y-92641600D01*
X92136400Y-92641600D02*
X75974200Y-92641600D01*
%TO.N,/rgb/RGB_LED_left_0*%
X85698500Y-15815700D02*
X77134800Y-15815700D01*
%TO.N,/rgb/RGB_LED_left_22*%
X56924200Y-78835800D02*
X105000800Y-78835800D01*
%TO.N,/rgb/RGB_LED_left_28*%
X118947300Y-98718500D02*
X117885300Y-99780500D01*
X115435900Y-99780500D02*
X114352200Y-98696800D01*
X128516600Y-98718500D02*
X118947300Y-98718500D01*
X114352200Y-98696800D02*
X37881300Y-98696800D01*
X117885300Y-99780500D02*
X115435900Y-99780500D01*
%TO.N,/rgb/RGB_LED_left_27*%
X66900800Y-98039600D02*
X43081300Y-98039600D01*
%TD*%
M02*
