%TF.GenerationSoftware,KiCad,Pcbnew,10.0.5*%
%TF.CreationDate,2026-09-22T23:22:17+09:00*%
%TF.ProjectId,keyboard,6b657962-6f61-4726-942e-6b696361645f,rev?*%
%TF.SameCoordinates,Original*%
%TF.FileFunction,Copper,L2,Bot*%
%TF.FilePolarity,Positive*%
%FSLAX46Y46*%
G04 Gerber Fmt 4.6, Leading zero omitted, Abs format (unit mm)*
G04 Created by KiCad (PCBNEW 10.0.5) date 2026-09-22 23:22:17*
%MOMM*%
%LPD*%
G01*
G04 APERTURE LIST*
G04 Aperture macros list*
%AMRoundRect*
0 Rectangle with rounded corners*
0 $1 Rounding radius*
0 $2 $3 $4 $5 $6 $7 $8 $9 X,Y pos of 4 corners*
0 Add a 4 corners polygon primitive as box body*
4,1,4,$2,$3,$4,$5,$6,$7,$8,$9,$2,$3,0*
0 Add four circle primitives for the rounded corners*
1,1,$1+$1,$2,$3*
1,1,$1+$1,$4,$5*
1,1,$1+$1,$6,$7*
1,1,$1+$1,$8,$9*
0 Add four rect primitives between the rounded corners*
20,1,$1+$1,$2,$3,$4,$5,0*
20,1,$1+$1,$4,$5,$6,$7,0*
20,1,$1+$1,$6,$7,$8,$9,0*
20,1,$1+$1,$8,$9,$2,$3,0*%
%AMRotRect*
0 Rectangle, with rotation*
0 The origin of the aperture is its center*
0 $1 length*
0 $2 width*
0 $3 Rotation angle, in degrees counterclockwise*
0 Add horizontal line*
21,1,$1,$2,0,0,$3*%
G04 Aperture macros list end*
%TA.AperFunction,SMDPad,CuDef*%
%ADD10R,3.300000X3.000000*%
%TD*%
%TA.AperFunction,SMDPad,CuDef*%
%ADD11RotRect,3.300000X3.000000X255.000000*%
%TD*%
%TA.AperFunction,SMDPad,CuDef*%
%ADD12R,1.200000X0.900000*%
%TD*%
%TA.AperFunction,SMDPad,CuDef*%
%ADD13R,2.200000X0.820000*%
%TD*%
%TA.AperFunction,SMDPad,CuDef*%
%ADD14RoundRect,0.180000X0.270000X-0.270000X0.270000X0.270000X-0.270000X0.270000X-0.270000X-0.270000X0*%
%TD*%
%TA.AperFunction,ComponentPad*%
%ADD15RoundRect,0.250000X0.350000X0.625000X-0.350000X0.625000X-0.350000X-0.625000X0.350000X-0.625000X0*%
%TD*%
%TA.AperFunction,ComponentPad*%
%ADD16O,1.200000X1.750000*%
%TD*%
%TA.AperFunction,SMDPad,CuDef*%
%ADD17RoundRect,0.180000X0.330681X0.190919X-0.190919X0.330681X-0.330681X-0.190919X0.190919X-0.330681X0*%
%TD*%
%TA.AperFunction,SMDPad,CuDef*%
%ADD18RotRect,2.200000X0.820000X255.000000*%
%TD*%
%TA.AperFunction,SMDPad,CuDef*%
%ADD19RotRect,0.900000X1.200000X165.000000*%
%TD*%
%TA.AperFunction,SMDPad,CuDef*%
%ADD20RotRect,0.900000X1.200000X345.000000*%
%TD*%
%TA.AperFunction,ViaPad*%
%ADD21C,0.650000*%
%TD*%
%TA.AperFunction,ViaPad*%
%ADD22C,0.500000*%
%TD*%
%TA.AperFunction,Conductor*%
%ADD23C,0.250000*%
%TD*%
%TA.AperFunction,Conductor*%
%ADD24C,0.200000*%
%TD*%
%TA.AperFunction,Conductor*%
%ADD25C,0.600000*%
%TD*%
G04 APERTURE END LIST*
D10*
%TO.P,SW41,1*%
%TO.N,/COL0*%
X140187500Y-64095000D03*
%TO.P,SW41,2*%
%TO.N,/matrix/SW41_A*%
X153787500Y-61555000D03*
%TD*%
%TO.P,SW4,1*%
%TO.N,/COL2*%
X102087500Y-8850000D03*
%TO.P,SW4,2*%
%TO.N,/matrix/SW4_A*%
X115687500Y-6310000D03*
%TD*%
%TO.P,SW26,1*%
%TO.N,/COL1*%
X140187500Y-45045000D03*
%TO.P,SW26,2*%
%TO.N,/matrix/SW26_A*%
X153787500Y-42505000D03*
%TD*%
%TO.P,SW55,1*%
%TO.N,/COL0*%
X33031300Y-87907500D03*
%TO.P,SW55,2*%
%TO.N,/matrix/SW55_A*%
X46631300Y-85367500D03*
%TD*%
%TO.P,SW37,1*%
%TO.N,/COL2*%
X23506300Y-49807500D03*
%TO.P,SW37,2*%
%TO.N,/matrix/SW37_A*%
X37106300Y-47267500D03*
%TD*%
%TO.P,SW1,1*%
%TO.N,/COL0*%
X83037500Y-6945000D03*
%TO.P,SW1,2*%
%TO.N,/matrix/SW1_A*%
X96637500Y-4405000D03*
%TD*%
%TO.P,SW33,1*%
%TO.N,/COL0*%
X44937500Y-48855000D03*
%TO.P,SW33,2*%
%TO.N,/matrix/SW33_A*%
X58537500Y-46315000D03*
%TD*%
%TO.P,SW23,1*%
%TO.N,/COL3*%
X23506300Y-30757500D03*
%TO.P,SW23,2*%
%TO.N,/matrix/SW23_A*%
X37106300Y-28217500D03*
%TD*%
%TO.P,SW15,1*%
%TO.N,/COL3*%
X63987500Y-27900000D03*
%TO.P,SW15,2*%
%TO.N,/matrix/SW15_A*%
X77587500Y-25360000D03*
%TD*%
%TO.P,SW53,1*%
%TO.N,/COL2*%
X90181300Y-85050000D03*
%TO.P,SW53,2*%
%TO.N,/matrix/SW53_A*%
X103781300Y-82510000D03*
%TD*%
%TO.P,SW16,1*%
%TO.N,/COL0*%
X102087500Y-27900000D03*
%TO.P,SW16,2*%
%TO.N,/matrix/SW16_A*%
X115687500Y-25360000D03*
%TD*%
%TO.P,SW54,1*%
%TO.N,/COL3*%
X63987500Y-86955000D03*
%TO.P,SW54,2*%
%TO.N,/matrix/SW54_A*%
X77587500Y-84415000D03*
%TD*%
%TO.P,SW3,1*%
%TO.N,/COL1*%
X63987500Y-8850000D03*
%TO.P,SW3,2*%
%TO.N,/matrix/SW3_A*%
X77587500Y-6310000D03*
%TD*%
%TO.P,SW40,1*%
%TO.N,/COL3*%
X83037500Y-64095000D03*
%TO.P,SW40,2*%
%TO.N,/matrix/SW40_A*%
X96637500Y-61555000D03*
%TD*%
%TO.P,SW44,1*%
%TO.N,/COL2*%
X102087500Y-66000000D03*
%TO.P,SW44,2*%
%TO.N,/matrix/SW44_A*%
X115687500Y-63460000D03*
%TD*%
D11*
%TO.P,SW58,1*%
%TO.N,/COL1*%
X116329609Y-107910295D03*
%TO.P,SW58,2*%
%TO.N,/matrix/SW58_A*%
X117396097Y-94116302D03*
%TD*%
D10*
%TO.P,SW34,1*%
%TO.N,/COL1*%
X121137500Y-48855000D03*
%TO.P,SW34,2*%
%TO.N,/matrix/SW34_A*%
X134737500Y-46315000D03*
%TD*%
%TO.P,SW20,1*%
%TO.N,/COL2*%
X121137500Y-29805000D03*
%TO.P,SW20,2*%
%TO.N,/matrix/SW20_A*%
X134737500Y-27265000D03*
%TD*%
%TO.P,SW29,1*%
%TO.N,/COL2*%
X63987500Y-46950000D03*
%TO.P,SW29,2*%
%TO.N,/matrix/SW29_A*%
X77587500Y-44410000D03*
%TD*%
%TO.P,SW19,1*%
%TO.N,/COL1*%
X44937500Y-29805000D03*
%TO.P,SW19,2*%
%TO.N,/matrix/SW19_A*%
X58537500Y-27265000D03*
%TD*%
D11*
%TO.P,SW59,1*%
%TO.N,/COL2*%
X135398387Y-110502751D03*
%TO.P,SW59,2*%
%TO.N,/matrix/SW59_A*%
X136438993Y-96805352D03*
%TD*%
D10*
%TO.P,SW43,1*%
%TO.N,/COL1*%
X63987500Y-66000000D03*
%TO.P,SW43,2*%
%TO.N,/matrix/SW43_A*%
X77587500Y-63460000D03*
%TD*%
%TO.P,SW51,1*%
%TO.N,/COL1*%
X23506300Y-68857500D03*
%TO.P,SW51,2*%
%TO.N,/matrix/SW51_A*%
X37106300Y-66317500D03*
%TD*%
%TO.P,SW7,1*%
%TO.N,/COL3*%
X44937500Y-10755000D03*
%TO.P,SW7,2*%
%TO.N,/matrix/SW7_A*%
X58537500Y-8215000D03*
%TD*%
%TO.P,SW11,1*%
%TO.N,/COL1*%
X25887500Y-11707500D03*
%TO.P,SW11,2*%
%TO.N,/matrix/SW11_A*%
X39487500Y-9167500D03*
%TD*%
%TO.P,SW13,1*%
%TO.N,/COL2*%
X83037500Y-25995000D03*
%TO.P,SW13,2*%
%TO.N,/matrix/SW13_A*%
X96637500Y-23455000D03*
%TD*%
%TO.P,SW48,1*%
%TO.N,/COL0*%
X121137500Y-67905000D03*
%TO.P,SW48,2*%
%TO.N,/matrix/SW48_A*%
X134737500Y-65365000D03*
%TD*%
%TO.P,SW47,1*%
%TO.N,/COL3*%
X44937500Y-67905000D03*
%TO.P,SW47,2*%
%TO.N,/matrix/SW47_A*%
X58537500Y-65365000D03*
%TD*%
%TO.P,SW25,1*%
%TO.N,/COL0*%
X83037500Y-45045000D03*
%TO.P,SW25,2*%
%TO.N,/matrix/SW25_A*%
X96637500Y-42505000D03*
%TD*%
%TO.P,SW8,1*%
%TO.N,/COL0*%
X121137500Y-10755000D03*
%TO.P,SW8,2*%
%TO.N,/matrix/SW8_A*%
X134737500Y-8215000D03*
%TD*%
%TO.P,SW30,1*%
%TO.N,/COL3*%
X102087500Y-46950000D03*
%TO.P,SW30,2*%
%TO.N,/matrix/SW30_A*%
X115687500Y-44410000D03*
%TD*%
D12*
%TO.P,D1,1*%
%TO.N,/ROW0*%
X99000000Y-15000000D03*
%TO.P,D1,2*%
%TO.N,/matrix/SW1_A*%
X99000000Y-11700000D03*
%TD*%
%TO.P,D40,1*%
%TO.N,/ROW4*%
X98000000Y-72000000D03*
%TO.P,D40,2*%
%TO.N,/matrix/SW40_A*%
X98000000Y-68700000D03*
%TD*%
D13*
%TO.P,LED34,1*%
%TO.N,/RGB_5V_LEFT*%
X125427500Y-55935000D03*
%TO.P,LED34,2*%
%TO.N,/GND_LEFT*%
X131747500Y-55935000D03*
%TO.P,LED34,3*%
%TO.N,/rgb/RGB_LED_left_16*%
X131747500Y-57435000D03*
%TO.P,LED34,4*%
%TO.N,/rgb/RGB_LED_left_17*%
X125427500Y-57435000D03*
%TD*%
%TO.P,LED30,1*%
%TO.N,/RGB_5V_LEFT*%
X106377500Y-54030000D03*
%TO.P,LED30,2*%
%TO.N,/GND_LEFT*%
X112697500Y-54030000D03*
%TO.P,LED30,3*%
%TO.N,/rgb/RGB_LED_left_14*%
X112697500Y-55530000D03*
%TO.P,LED30,4*%
%TO.N,/rgb/RGB_LED_left_15*%
X106377500Y-55530000D03*
%TD*%
D14*
%TO.P,C_RGB4,1*%
%TO.N,/RGB_5V_LEFT*%
X103037500Y-17430000D03*
%TO.P,C_RGB4,2*%
%TO.N,/GND_LEFT*%
X103037500Y-15930000D03*
%TD*%
%TO.P,C_RGB16,1*%
%TO.N,/RGB_5V_LEFT*%
X103037500Y-36480000D03*
%TO.P,C_RGB16,2*%
%TO.N,/GND_LEFT*%
X103037500Y-34980000D03*
%TD*%
%TO.P,C_RGB37,1*%
%TO.N,/RGB_5V_LEFT*%
X24456300Y-58387500D03*
%TO.P,C_RGB37,2*%
%TO.N,/GND_LEFT*%
X24456300Y-56887500D03*
%TD*%
D13*
%TO.P,LED33,1*%
%TO.N,/RGB_5V_LEFT*%
X49227500Y-55935000D03*
%TO.P,LED33,2*%
%TO.N,/GND_LEFT*%
X55547500Y-55935000D03*
%TO.P,LED33,3*%
%TO.N,/rgb/RGB_LED_left_15*%
X55547500Y-57435000D03*
%TO.P,LED33,4*%
%TO.N,/rgb/RGB_LED_left_16*%
X49227500Y-57435000D03*
%TD*%
D14*
%TO.P,C_RGB1,1*%
%TO.N,/RGB_5V_LEFT*%
X83987500Y-15525000D03*
%TO.P,C_RGB1,2*%
%TO.N,/GND_LEFT*%
X83987500Y-14025000D03*
%TD*%
D13*
%TO.P,LED48,1*%
%TO.N,/RGB_5V_LEFT*%
X125427500Y-74985000D03*
%TO.P,LED48,2*%
%TO.N,/GND_LEFT*%
X131747500Y-74985000D03*
%TO.P,LED48,3*%
%TO.N,/rgb/RGB_LED_left_23*%
X131747500Y-76485000D03*
%TO.P,LED48,4*%
%TO.N,/rgb/RGB_LED_left_24*%
X125427500Y-76485000D03*
%TD*%
D14*
%TO.P,C_RGB44,1*%
%TO.N,/RGB_5V_LEFT*%
X103037500Y-74580000D03*
%TO.P,C_RGB44,2*%
%TO.N,/GND_LEFT*%
X103037500Y-73080000D03*
%TD*%
D13*
%TO.P,LED29,1*%
%TO.N,/RGB_5V_LEFT*%
X68277500Y-54030000D03*
%TO.P,LED29,2*%
%TO.N,/GND_LEFT*%
X74597500Y-54030000D03*
%TO.P,LED29,3*%
%TO.N,/rgb/RGB_LED_left_13*%
X74597500Y-55530000D03*
%TO.P,LED29,4*%
%TO.N,/rgb/RGB_LED_left_14*%
X68277500Y-55530000D03*
%TD*%
%TO.P,LED11,1*%
%TO.N,/RGB_5V_LEFT*%
X30177500Y-18787500D03*
%TO.P,LED11,2*%
%TO.N,/GND_LEFT*%
X36497500Y-18787500D03*
%TO.P,LED11,3*%
%TO.N,/rgb/RGB_LED_left_4*%
X36497500Y-20287500D03*
%TO.P,LED11,4*%
%TO.N,/rgb/RGB_LED_left_5*%
X30177500Y-20287500D03*
%TD*%
D14*
%TO.P,C_RGB20,1*%
%TO.N,/RGB_5V_LEFT*%
X122087500Y-38385000D03*
%TO.P,C_RGB20,2*%
%TO.N,/GND_LEFT*%
X122087500Y-36885000D03*
%TD*%
D13*
%TO.P,LED8,1*%
%TO.N,/RGB_5V_LEFT*%
X125427500Y-17835000D03*
%TO.P,LED8,2*%
%TO.N,/GND_LEFT*%
X131747500Y-17835000D03*
%TO.P,LED8,3*%
%TO.N,/rgb/RGB_LED_left_3*%
X131747500Y-19335000D03*
%TO.P,LED8,4*%
%TO.N,/rgb/RGB_LED_left_4*%
X125427500Y-19335000D03*
%TD*%
D15*
%TO.P,J1,1*%
%TO.N,/power/BAT_RAW_LEFT*%
X143500000Y-30550000D03*
D16*
%TO.P,J1,2*%
%TO.N,/GND_LEFT*%
X141500000Y-30550000D03*
%TD*%
D14*
%TO.P,C_RGB29,1*%
%TO.N,/RGB_5V_LEFT*%
X64937500Y-55530000D03*
%TO.P,C_RGB29,2*%
%TO.N,/GND_LEFT*%
X64937500Y-54030000D03*
%TD*%
D13*
%TO.P,LED26,1*%
%TO.N,/RGB_5V_LEFT*%
X142840000Y-52750000D03*
%TO.P,LED26,2*%
%TO.N,/GND_LEFT*%
X149160000Y-52750000D03*
%TO.P,LED26,3*%
%TO.N,/rgb/RGB_LED_left_12*%
X149160000Y-54250000D03*
%TO.P,LED26,4*%
%TO.N,/rgb/RGB_LED_left_13*%
X142840000Y-54250000D03*
%TD*%
D12*
%TO.P,D20,1*%
%TO.N,/ROW2*%
X137000000Y-41150000D03*
%TO.P,D20,2*%
%TO.N,/matrix/SW20_A*%
X137000000Y-37850000D03*
%TD*%
%TO.P,D25,1*%
%TO.N,/ROW3*%
X98500000Y-52000000D03*
%TO.P,D25,2*%
%TO.N,/matrix/SW25_A*%
X98500000Y-48700000D03*
%TD*%
%TO.P,D44,1*%
%TO.N,/ROW5*%
X117500000Y-73500000D03*
%TO.P,D44,2*%
%TO.N,/matrix/SW44_A*%
X117500000Y-70200000D03*
%TD*%
D13*
%TO.P,LED41,1*%
%TO.N,/RGB_5V_LEFT*%
X143215000Y-72250000D03*
%TO.P,LED41,2*%
%TO.N,/GND_LEFT*%
X149535000Y-72250000D03*
%TO.P,LED41,3*%
%TO.N,/rgb/RGB_LED_left_19*%
X149535000Y-73750000D03*
%TO.P,LED41,4*%
%TO.N,/rgb/RGB_LED_left_20*%
X143215000Y-73750000D03*
%TD*%
D12*
%TO.P,D48,1*%
%TO.N,/ROW6*%
X137000000Y-79000000D03*
%TO.P,D48,2*%
%TO.N,/matrix/SW48_A*%
X137000000Y-75700000D03*
%TD*%
D13*
%TO.P,LED37,1*%
%TO.N,/RGB_5V_LEFT*%
X27796300Y-56887500D03*
%TO.P,LED37,2*%
%TO.N,/GND_LEFT*%
X34116300Y-56887500D03*
%TO.P,LED37,3*%
%TO.N,/rgb/RGB_LED_left_17*%
X34116300Y-58387500D03*
%TO.P,LED37,4*%
%TO.N,/rgb/RGB_LED_left_18*%
X27796300Y-58387500D03*
%TD*%
D14*
%TO.P,C_RGB53,1*%
%TO.N,/RGB_5V_LEFT*%
X91131300Y-93630000D03*
%TO.P,C_RGB53,2*%
%TO.N,/GND_LEFT*%
X91131300Y-92130000D03*
%TD*%
D17*
%TO.P,C_RGB59,1*%
%TO.N,/RGB_5V_LEFT*%
X143880344Y-111843714D03*
%TO.P,C_RGB59,2*%
%TO.N,/GND_LEFT*%
X142431456Y-111455486D03*
%TD*%
D13*
%TO.P,LED13,1*%
%TO.N,/RGB_5V_LEFT*%
X87327500Y-33075000D03*
%TO.P,LED13,2*%
%TO.N,/GND_LEFT*%
X93647500Y-33075000D03*
%TO.P,LED13,3*%
%TO.N,/rgb/RGB_LED_left_5*%
X93647500Y-34575000D03*
%TO.P,LED13,4*%
%TO.N,/rgb/RGB_LED_left_6*%
X87327500Y-34575000D03*
%TD*%
%TO.P,LED51,1*%
%TO.N,/RGB_5V_LEFT*%
X27796300Y-75937500D03*
%TO.P,LED51,2*%
%TO.N,/GND_LEFT*%
X34116300Y-75937500D03*
%TO.P,LED51,3*%
%TO.N,/rgb/RGB_LED_left_24*%
X34116300Y-77437500D03*
%TO.P,LED51,4*%
%TO.N,/rgb/RGB_LED_left_25*%
X27796300Y-77437500D03*
%TD*%
D12*
%TO.P,D41,1*%
%TO.N,/ROW5*%
X155500000Y-75150000D03*
%TO.P,D41,2*%
%TO.N,/matrix/SW41_A*%
X155500000Y-71850000D03*
%TD*%
D14*
%TO.P,C_RGB41,1*%
%TO.N,/RGB_5V_LEFT*%
X139875000Y-73750000D03*
%TO.P,C_RGB41,2*%
%TO.N,/GND_LEFT*%
X139875000Y-72250000D03*
%TD*%
%TO.P,C_RGB43,1*%
%TO.N,/RGB_5V_LEFT*%
X64937500Y-74580000D03*
%TO.P,C_RGB43,2*%
%TO.N,/GND_LEFT*%
X64937500Y-73080000D03*
%TD*%
D13*
%TO.P,LED4,1*%
%TO.N,/RGB_5V_LEFT*%
X106377500Y-15930000D03*
%TO.P,LED4,2*%
%TO.N,/GND_LEFT*%
X112697500Y-15930000D03*
%TO.P,LED4,3*%
%TO.N,/rgb/RGB_LED_left_1*%
X112697500Y-17430000D03*
%TO.P,LED4,4*%
%TO.N,/rgb/RGB_LED_left_2*%
X106377500Y-17430000D03*
%TD*%
D14*
%TO.P,C_RGB7,1*%
%TO.N,/RGB_5V_LEFT*%
X45887500Y-19335000D03*
%TO.P,C_RGB7,2*%
%TO.N,/GND_LEFT*%
X45887500Y-17835000D03*
%TD*%
%TO.P,C_RGB3,1*%
%TO.N,/RGB_5V_LEFT*%
X64937500Y-17430000D03*
%TO.P,C_RGB3,2*%
%TO.N,/GND_LEFT*%
X64937500Y-15930000D03*
%TD*%
D13*
%TO.P,LED23,1*%
%TO.N,/RGB_5V_LEFT*%
X27796300Y-37837500D03*
%TO.P,LED23,2*%
%TO.N,/GND_LEFT*%
X34116300Y-37837500D03*
%TO.P,LED23,3*%
%TO.N,/rgb/RGB_LED_left_10*%
X34116300Y-39337500D03*
%TO.P,LED23,4*%
%TO.N,/rgb/RGB_LED_left_11*%
X27796300Y-39337500D03*
%TD*%
D14*
%TO.P,C_RGB48,1*%
%TO.N,/RGB_5V_LEFT*%
X122087500Y-76485000D03*
%TO.P,C_RGB48,2*%
%TO.N,/GND_LEFT*%
X122087500Y-74985000D03*
%TD*%
D13*
%TO.P,LED16,1*%
%TO.N,/RGB_5V_LEFT*%
X106377500Y-34980000D03*
%TO.P,LED16,2*%
%TO.N,/GND_LEFT*%
X112697500Y-34980000D03*
%TO.P,LED16,3*%
%TO.N,/rgb/RGB_LED_left_7*%
X112697500Y-36480000D03*
%TO.P,LED16,4*%
%TO.N,/rgb/RGB_LED_left_8*%
X106377500Y-36480000D03*
%TD*%
D14*
%TO.P,C_RGB13,1*%
%TO.N,/RGB_5V_LEFT*%
X83987500Y-34575000D03*
%TO.P,C_RGB13,2*%
%TO.N,/GND_LEFT*%
X83987500Y-33075000D03*
%TD*%
%TO.P,C_RGB47,1*%
%TO.N,/RGB_5V_LEFT*%
X45887500Y-76485000D03*
%TO.P,C_RGB47,2*%
%TO.N,/GND_LEFT*%
X45887500Y-74985000D03*
%TD*%
%TO.P,C_RGB40,1*%
%TO.N,/RGB_5V_LEFT*%
X83987500Y-72675000D03*
%TO.P,C_RGB40,2*%
%TO.N,/GND_LEFT*%
X83987500Y-71175000D03*
%TD*%
D12*
%TO.P,D47,1*%
%TO.N,/ROW5*%
X60000000Y-75500000D03*
%TO.P,D47,2*%
%TO.N,/matrix/SW47_A*%
X60000000Y-72200000D03*
%TD*%
D13*
%TO.P,LED40,1*%
%TO.N,/RGB_5V_LEFT*%
X87327500Y-71175000D03*
%TO.P,LED40,2*%
%TO.N,/GND_LEFT*%
X93647500Y-71175000D03*
%TO.P,LED40,3*%
%TO.N,/rgb/RGB_LED_left_18*%
X93647500Y-72675000D03*
%TO.P,LED40,4*%
%TO.N,/rgb/RGB_LED_left_19*%
X87327500Y-72675000D03*
%TD*%
D12*
%TO.P,D8,1*%
%TO.N,/ROW1*%
X137000000Y-22000000D03*
%TO.P,D8,2*%
%TO.N,/matrix/SW8_A*%
X137000000Y-18700000D03*
%TD*%
D14*
%TO.P,C_RGB26,1*%
%TO.N,/RGB_5V_LEFT*%
X139500000Y-54250000D03*
%TO.P,C_RGB26,2*%
%TO.N,/GND_LEFT*%
X139500000Y-52750000D03*
%TD*%
D12*
%TO.P,D11,1*%
%TO.N,/ROW1*%
X39500000Y-24000000D03*
%TO.P,D11,2*%
%TO.N,/matrix/SW11_A*%
X39500000Y-20700000D03*
%TD*%
%TO.P,D26,1*%
%TO.N,/ROW3*%
X155500000Y-56150000D03*
%TO.P,D26,2*%
%TO.N,/matrix/SW26_A*%
X155500000Y-52850000D03*
%TD*%
%TO.P,D15,1*%
%TO.N,/ROW1*%
X79000000Y-35500000D03*
%TO.P,D15,2*%
%TO.N,/matrix/SW15_A*%
X79000000Y-32200000D03*
%TD*%
D14*
%TO.P,C_RGB23,1*%
%TO.N,/RGB_5V_LEFT*%
X24456300Y-39337500D03*
%TO.P,C_RGB23,2*%
%TO.N,/GND_LEFT*%
X24456300Y-37837500D03*
%TD*%
%TO.P,C_RGB55,1*%
%TO.N,/RGB_5V_LEFT*%
X33981300Y-96487500D03*
%TO.P,C_RGB55,2*%
%TO.N,/GND_LEFT*%
X33981300Y-94987500D03*
%TD*%
%TO.P,C_RGB19,1*%
%TO.N,/RGB_5V_LEFT*%
X45887500Y-38385000D03*
%TO.P,C_RGB19,2*%
%TO.N,/GND_LEFT*%
X45887500Y-36885000D03*
%TD*%
D13*
%TO.P,LED43,1*%
%TO.N,/RGB_5V_LEFT*%
X68277500Y-73080000D03*
%TO.P,LED43,2*%
%TO.N,/GND_LEFT*%
X74597500Y-73080000D03*
%TO.P,LED43,3*%
%TO.N,/rgb/RGB_LED_left_20*%
X74597500Y-74580000D03*
%TO.P,LED43,4*%
%TO.N,/rgb/RGB_LED_left_21*%
X68277500Y-74580000D03*
%TD*%
D12*
%TO.P,D29,1*%
%TO.N,/ROW3*%
X79500000Y-53500000D03*
%TO.P,D29,2*%
%TO.N,/matrix/SW29_A*%
X79500000Y-50200000D03*
%TD*%
D14*
%TO.P,C_RGB30,1*%
%TO.N,/RGB_5V_LEFT*%
X103037500Y-55530000D03*
%TO.P,C_RGB30,2*%
%TO.N,/GND_LEFT*%
X103037500Y-54030000D03*
%TD*%
D13*
%TO.P,LED19,1*%
%TO.N,/RGB_5V_LEFT*%
X49227500Y-36885000D03*
%TO.P,LED19,2*%
%TO.N,/GND_LEFT*%
X55547500Y-36885000D03*
%TO.P,LED19,3*%
%TO.N,/rgb/RGB_LED_left_8*%
X55547500Y-38385000D03*
%TO.P,LED19,4*%
%TO.N,/rgb/RGB_LED_left_9*%
X49227500Y-38385000D03*
%TD*%
D12*
%TO.P,D53,1*%
%TO.N,/ROW6*%
X106500000Y-95650000D03*
%TO.P,D53,2*%
%TO.N,/matrix/SW53_A*%
X106500000Y-92350000D03*
%TD*%
D18*
%TO.P,LED59,1*%
%TO.N,/RGB_5V_LEFT*%
X143295887Y-108229311D03*
%TO.P,LED59,2*%
%TO.N,/GND_LEFT*%
X144931624Y-102124661D03*
%TO.P,LED59,3*%
%TO.N,/rgb/RGB_LED_left_29*%
X146380513Y-102512889D03*
%TO.P,LED59,4*%
%TO.N,unconnected-(LED59-DOUT-Pad4)*%
X144744776Y-108617539D03*
%TD*%
D14*
%TO.P,C_RGB11,1*%
%TO.N,/RGB_5V_LEFT*%
X26837500Y-20287500D03*
%TO.P,C_RGB11,2*%
%TO.N,/GND_LEFT*%
X26837500Y-18787500D03*
%TD*%
D13*
%TO.P,LED53,1*%
%TO.N,/RGB_5V_LEFT*%
X94471300Y-92130000D03*
%TO.P,LED53,2*%
%TO.N,/GND_LEFT*%
X100791300Y-92130000D03*
%TO.P,LED53,3*%
%TO.N,/rgb/RGB_LED_left_25*%
X100791300Y-93630000D03*
%TO.P,LED53,4*%
%TO.N,/rgb/RGB_LED_left_26*%
X94471300Y-93630000D03*
%TD*%
D12*
%TO.P,D55,1*%
%TO.N,/ROW7*%
X52000000Y-93500000D03*
%TO.P,D55,2*%
%TO.N,/matrix/SW55_A*%
X52000000Y-90200000D03*
%TD*%
%TO.P,D23,1*%
%TO.N,/ROW2*%
X40500000Y-41500000D03*
%TO.P,D23,2*%
%TO.N,/matrix/SW23_A*%
X40500000Y-38200000D03*
%TD*%
%TO.P,D33,1*%
%TO.N,/ROW4*%
X60500000Y-56085000D03*
%TO.P,D33,2*%
%TO.N,/matrix/SW33_A*%
X60500000Y-52785000D03*
%TD*%
%TO.P,D4,1*%
%TO.N,/ROW0*%
X118000000Y-21650000D03*
%TO.P,D4,2*%
%TO.N,/matrix/SW4_A*%
X118000000Y-18350000D03*
%TD*%
%TO.P,D19,1*%
%TO.N,/ROW2*%
X61037500Y-40000000D03*
%TO.P,D19,2*%
%TO.N,/matrix/SW19_A*%
X61037500Y-36700000D03*
%TD*%
D14*
%TO.P,C_RGB15,1*%
%TO.N,/RGB_5V_LEFT*%
X64937500Y-36480000D03*
%TO.P,C_RGB15,2*%
%TO.N,/GND_LEFT*%
X64937500Y-34980000D03*
%TD*%
D12*
%TO.P,D43,1*%
%TO.N,/ROW5*%
X79000000Y-74500000D03*
%TO.P,D43,2*%
%TO.N,/matrix/SW43_A*%
X79000000Y-71200000D03*
%TD*%
D13*
%TO.P,LED3,1*%
%TO.N,/RGB_5V_LEFT*%
X68277500Y-15930000D03*
%TO.P,LED3,2*%
%TO.N,/GND_LEFT*%
X74597500Y-15930000D03*
%TO.P,LED3,3*%
%TO.N,/rgb/RGB_LED_left_0*%
X74597500Y-17430000D03*
%TO.P,LED3,4*%
%TO.N,/rgb/RGB_LED_left_1*%
X68277500Y-17430000D03*
%TD*%
D12*
%TO.P,D51,1*%
%TO.N,/ROW6*%
X40000000Y-78150000D03*
%TO.P,D51,2*%
%TO.N,/matrix/SW51_A*%
X40000000Y-74850000D03*
%TD*%
%TO.P,D30,1*%
%TO.N,/ROW3*%
X117500000Y-55000000D03*
%TO.P,D30,2*%
%TO.N,/matrix/SW30_A*%
X117500000Y-51700000D03*
%TD*%
%TO.P,D7,1*%
%TO.N,/ROW0*%
X61000000Y-20000000D03*
%TO.P,D7,2*%
%TO.N,/matrix/SW7_A*%
X61000000Y-16700000D03*
%TD*%
%TO.P,D34,1*%
%TO.N,/ROW4*%
X137000000Y-60000000D03*
%TO.P,D34,2*%
%TO.N,/matrix/SW34_A*%
X137000000Y-56700000D03*
%TD*%
D17*
%TO.P,C_RGB58,1*%
%TO.N,/RGB_5V_LEFT*%
X124863144Y-109213314D03*
%TO.P,C_RGB58,2*%
%TO.N,/GND_LEFT*%
X123414256Y-108825086D03*
%TD*%
D13*
%TO.P,LED20,1*%
%TO.N,/RGB_5V_LEFT*%
X125427500Y-36885000D03*
%TO.P,LED20,2*%
%TO.N,/GND_LEFT*%
X131747500Y-36885000D03*
%TO.P,LED20,3*%
%TO.N,/rgb/RGB_LED_left_9*%
X131747500Y-38385000D03*
%TO.P,LED20,4*%
%TO.N,/rgb/RGB_LED_left_10*%
X125427500Y-38385000D03*
%TD*%
%TO.P,LED44,1*%
%TO.N,/RGB_5V_LEFT*%
X106377500Y-73080000D03*
%TO.P,LED44,2*%
%TO.N,/GND_LEFT*%
X112697500Y-73080000D03*
%TO.P,LED44,3*%
%TO.N,/rgb/RGB_LED_left_21*%
X112697500Y-74580000D03*
%TO.P,LED44,4*%
%TO.N,/rgb/RGB_LED_left_22*%
X106377500Y-74580000D03*
%TD*%
D18*
%TO.P,LED58,1*%
%TO.N,/RGB_5V_LEFT*%
X124278687Y-105598911D03*
%TO.P,LED58,2*%
%TO.N,/GND_LEFT*%
X125914424Y-99494261D03*
%TO.P,LED58,3*%
%TO.N,/rgb/RGB_LED_left_28*%
X127363313Y-99882489D03*
%TO.P,LED58,4*%
%TO.N,/rgb/RGB_LED_left_29*%
X125727576Y-105987139D03*
%TD*%
D12*
%TO.P,D54,1*%
%TO.N,/ROW6*%
X82500000Y-91650000D03*
%TO.P,D54,2*%
%TO.N,/matrix/SW54_A*%
X82500000Y-88350000D03*
%TD*%
D14*
%TO.P,C_RGB33,1*%
%TO.N,/RGB_5V_LEFT*%
X45887500Y-57435000D03*
%TO.P,C_RGB33,2*%
%TO.N,/GND_LEFT*%
X45887500Y-55935000D03*
%TD*%
D19*
%TO.P,D58,1*%
%TO.N,/ROW7*%
X128499978Y-92499950D03*
%TO.P,D58,2*%
%TO.N,/matrix/SW58_A*%
X125312422Y-91645850D03*
%TD*%
D13*
%TO.P,LED47,1*%
%TO.N,/RGB_5V_LEFT*%
X49227500Y-74985000D03*
%TO.P,LED47,2*%
%TO.N,/GND_LEFT*%
X55547500Y-74985000D03*
%TO.P,LED47,3*%
%TO.N,/rgb/RGB_LED_left_22*%
X55547500Y-76485000D03*
%TO.P,LED47,4*%
%TO.N,/rgb/RGB_LED_left_23*%
X49227500Y-76485000D03*
%TD*%
D14*
%TO.P,C_RGB25,1*%
%TO.N,/RGB_5V_LEFT*%
X83987500Y-53625000D03*
%TO.P,C_RGB25,2*%
%TO.N,/GND_LEFT*%
X83987500Y-52125000D03*
%TD*%
D12*
%TO.P,D37,1*%
%TO.N,/ROW4*%
X41000000Y-59500000D03*
%TO.P,D37,2*%
%TO.N,/matrix/SW37_A*%
X41000000Y-56200000D03*
%TD*%
D13*
%TO.P,LED1,1*%
%TO.N,/RGB_5V_LEFT*%
X87327500Y-14025000D03*
%TO.P,LED1,2*%
%TO.N,/GND_LEFT*%
X93647500Y-14025000D03*
%TO.P,LED1,3*%
%TO.N,/RGB_DATA_SHIFTED_LEFT*%
X93647500Y-15525000D03*
%TO.P,LED1,4*%
%TO.N,/rgb/RGB_LED_left_0*%
X87327500Y-15525000D03*
%TD*%
%TO.P,LED54,1*%
%TO.N,/RGB_5V_LEFT*%
X68277500Y-94035000D03*
%TO.P,LED54,2*%
%TO.N,/GND_LEFT*%
X74597500Y-94035000D03*
%TO.P,LED54,3*%
%TO.N,/rgb/RGB_LED_left_26*%
X74597500Y-95535000D03*
%TO.P,LED54,4*%
%TO.N,/rgb/RGB_LED_left_27*%
X68277500Y-95535000D03*
%TD*%
D12*
%TO.P,D16,1*%
%TO.N,/ROW2*%
X116000000Y-40500000D03*
%TO.P,D16,2*%
%TO.N,/matrix/SW16_A*%
X116000000Y-37200000D03*
%TD*%
D13*
%TO.P,LED15,1*%
%TO.N,/RGB_5V_LEFT*%
X68277500Y-34980000D03*
%TO.P,LED15,2*%
%TO.N,/GND_LEFT*%
X74597500Y-34980000D03*
%TO.P,LED15,3*%
%TO.N,/rgb/RGB_LED_left_6*%
X74597500Y-36480000D03*
%TO.P,LED15,4*%
%TO.N,/rgb/RGB_LED_left_7*%
X68277500Y-36480000D03*
%TD*%
%TO.P,LED55,1*%
%TO.N,/RGB_5V_LEFT*%
X37321300Y-94987500D03*
%TO.P,LED55,2*%
%TO.N,/GND_LEFT*%
X43641300Y-94987500D03*
%TO.P,LED55,3*%
%TO.N,/rgb/RGB_LED_left_27*%
X43641300Y-96487500D03*
%TO.P,LED55,4*%
%TO.N,/rgb/RGB_LED_left_28*%
X37321300Y-96487500D03*
%TD*%
D20*
%TO.P,D59,1*%
%TO.N,/ROW7*%
X137000022Y-82999950D03*
%TO.P,D59,2*%
%TO.N,/matrix/SW59_A*%
X140187578Y-83854050D03*
%TD*%
D13*
%TO.P,LED25,1*%
%TO.N,/RGB_5V_LEFT*%
X87327500Y-52125000D03*
%TO.P,LED25,2*%
%TO.N,/GND_LEFT*%
X93647500Y-52125000D03*
%TO.P,LED25,3*%
%TO.N,/rgb/RGB_LED_left_11*%
X93647500Y-53625000D03*
%TO.P,LED25,4*%
%TO.N,/rgb/RGB_LED_left_12*%
X87327500Y-53625000D03*
%TD*%
D12*
%TO.P,D3,1*%
%TO.N,/ROW0*%
X79500000Y-16000000D03*
%TO.P,D3,2*%
%TO.N,/matrix/SW3_A*%
X79500000Y-12700000D03*
%TD*%
%TO.P,D13,1*%
%TO.N,/ROW1*%
X98500000Y-33500000D03*
%TO.P,D13,2*%
%TO.N,/matrix/SW13_A*%
X98500000Y-30200000D03*
%TD*%
D14*
%TO.P,C_RGB54,1*%
%TO.N,/RGB_5V_LEFT*%
X64937500Y-95535000D03*
%TO.P,C_RGB54,2*%
%TO.N,/GND_LEFT*%
X64937500Y-94035000D03*
%TD*%
%TO.P,C_RGB51,1*%
%TO.N,/RGB_5V_LEFT*%
X24456300Y-77437500D03*
%TO.P,C_RGB51,2*%
%TO.N,/GND_LEFT*%
X24456300Y-75937500D03*
%TD*%
%TO.P,C_RGB34,1*%
%TO.N,/RGB_5V_LEFT*%
X122087500Y-57435000D03*
%TO.P,C_RGB34,2*%
%TO.N,/GND_LEFT*%
X122087500Y-55935000D03*
%TD*%
D13*
%TO.P,LED7,1*%
%TO.N,/RGB_5V_LEFT*%
X49227500Y-17835000D03*
%TO.P,LED7,2*%
%TO.N,/GND_LEFT*%
X55547500Y-17835000D03*
%TO.P,LED7,3*%
%TO.N,/rgb/RGB_LED_left_2*%
X55547500Y-19335000D03*
%TO.P,LED7,4*%
%TO.N,/rgb/RGB_LED_left_3*%
X49227500Y-19335000D03*
%TD*%
D14*
%TO.P,C_RGB8,1*%
%TO.N,/RGB_5V_LEFT*%
X122087500Y-19335000D03*
%TO.P,C_RGB8,2*%
%TO.N,/GND_LEFT*%
X122087500Y-17835000D03*
%TD*%
D21*
%TO.N,/RGB_EN_LEFT*%
X146117600Y-35870100D03*
X147274100Y-38990100D03*
%TO.N,/GND_LEFT*%
X143752900Y-34985000D03*
X153404400Y-35288800D03*
%TO.N,/COL0*%
X83487500Y-37586400D03*
X50432600Y-44009200D03*
X100749600Y-31971500D03*
X102941900Y-18365300D03*
X118608300Y-12002500D03*
X121622800Y-58489800D03*
X83487500Y-47022400D03*
%TO.N,/ROW0*%
X99000000Y-18083200D03*
X63996400Y-17486500D03*
X79500000Y-18083200D03*
%TO.N,/ROW1*%
X138862200Y-6527500D03*
X79000000Y-37197200D03*
X98500000Y-37818300D03*
X40602700Y-24235900D03*
%TO.N,/ROW2*%
X60902100Y-41319100D03*
X116000000Y-41607900D03*
%TO.N,/ROW3*%
X136868800Y-45100000D03*
X98500000Y-52950800D03*
X114890600Y-52394400D03*
%TO.N,/ROW4*%
X60500000Y-59545900D03*
X42485400Y-59483000D03*
X93983500Y-67983400D03*
X135568500Y-61285800D03*
%TO.N,/ROW5*%
X78932700Y-77325300D03*
X139702500Y-75808900D03*
X117500000Y-76329100D03*
X144422100Y-17647900D03*
%TO.N,/ROW6*%
X82500000Y-90417500D03*
X135907900Y-78914300D03*
X101994200Y-90417500D03*
X41576200Y-78799900D03*
%TO.N,/ROW7*%
X128222700Y-93762500D03*
X52000000Y-92247900D03*
%TO.N,/COL1*%
X64437500Y-63182400D03*
X26022100Y-19594500D03*
X45387500Y-25365600D03*
X155598500Y-14989200D03*
X25875100Y-58067900D03*
X118945400Y-47715100D03*
X115594900Y-100662900D03*
X113580900Y-100662900D03*
%TO.N,/COL2*%
X102537500Y-10833800D03*
X26493400Y-43232400D03*
X118376700Y-85882100D03*
X88093200Y-22401500D03*
X102555900Y-56686100D03*
X135921200Y-103995900D03*
X117873500Y-72370800D03*
X105194100Y-71783300D03*
X64437500Y-43232400D03*
X90631300Y-82373500D03*
X121587500Y-23253300D03*
X88093200Y-17370900D03*
X114997900Y-93998500D03*
D22*
%TO.N,/COL3*%
X81037500Y-57600000D03*
X65237500Y-52900000D03*
X65237500Y-51700000D03*
X83437500Y-64099999D03*
D21*
X24782700Y-23460400D03*
D22*
X80837500Y-61900000D03*
D21*
X84948800Y-71623600D03*
X45387500Y-16215600D03*
X65687500Y-18445800D03*
D22*
X63837500Y-44600000D03*
D21*
X47891500Y-73688300D03*
D22*
X64037499Y-38000000D03*
D21*
X64115500Y-77003000D03*
D22*
X64037499Y-34500000D03*
D21*
%TO.N,/RGB_DATA_LEFT*%
X139947500Y-29910700D03*
X141068000Y-7797500D03*
%TO.N,/VBAT_LEFT*%
X151734500Y-31953000D03*
X151734500Y-28904600D03*
%TO.N,/matrix/SW37_A*%
X39342900Y-51830100D03*
X41000000Y-51830100D03*
%TO.N,/matrix/SW33_A*%
X58087500Y-49547700D03*
X60930000Y-50953200D03*
%TO.N,/RGB_5V_LEFT*%
X137648700Y-32029000D03*
%TO.N,/matrix/SW15_A*%
X77137500Y-27355100D03*
X80413000Y-29647100D03*
%TO.N,/power/RGB_SW_LEFT*%
X151171100Y-33800000D03*
X147587200Y-37581800D03*
%TO.N,/power/RGB_FB_LEFT*%
X148179800Y-40442700D03*
X145287500Y-35795200D03*
%TO.N,/RGB_DATA_SHIFTED_LEFT*%
X106521800Y-33469600D03*
X138577600Y-38358300D03*
X105505200Y-32453000D03*
X90736500Y-21898500D03*
X130984700Y-35031700D03*
%TO.N,/matrix/SW7_A*%
X62859900Y-15890700D03*
X62284800Y-15315600D03*
%TO.N,/matrix/SW11_A*%
X40789500Y-18669300D03*
X40750200Y-17421200D03*
%TO.N,/matrix/SW48_A*%
X134954900Y-77931200D03*
X136110800Y-72784400D03*
X135535300Y-72208900D03*
X137000000Y-77931200D03*
%TO.N,/rgb/RGB_LED_left_16*%
X133124200Y-59493200D03*
X49787500Y-58944200D03*
%TO.N,/rgb/RGB_LED_left_17*%
X125987500Y-60492300D03*
X56601200Y-60265200D03*
X55389600Y-60392600D03*
X35493000Y-60392600D03*
%TO.N,/rgb/RGB_LED_left_14*%
X112137500Y-59732900D03*
X68837500Y-61751900D03*
%TO.N,/rgb/RGB_LED_left_15*%
X57318200Y-61150200D03*
X106937500Y-59532900D03*
%TO.N,/rgb/RGB_LED_left_23*%
X49787500Y-79742000D03*
X131187500Y-79742000D03*
%TO.N,/rgb/RGB_LED_left_24*%
X35563500Y-78204100D03*
X122981600Y-77953600D03*
%TO.N,/rgb/RGB_LED_left_13*%
X75974200Y-57911100D03*
X142057300Y-57371400D03*
%TO.N,/rgb/RGB_LED_left_4*%
X125987500Y-20698800D03*
X37726100Y-21179500D03*
%TO.N,/rgb/RGB_LED_left_5*%
X30737500Y-22819500D03*
X91678000Y-36824600D03*
%TO.N,/rgb/RGB_LED_left_3*%
X131187500Y-21304600D03*
X49796300Y-21304600D03*
%TO.N,/rgb/RGB_LED_left_12*%
X87887500Y-57102400D03*
X148600000Y-56769700D03*
%TO.N,/rgb/RGB_LED_left_19*%
X87887500Y-74491800D03*
X148975000Y-75098600D03*
%TO.N,/rgb/RGB_LED_left_20*%
X141602400Y-73787800D03*
X74037500Y-76089800D03*
%TO.N,/rgb/RGB_LED_left_18*%
X93087500Y-74331200D03*
X28075100Y-60745400D03*
%TO.N,/rgb/RGB_LED_left_6*%
X87887500Y-35476700D03*
X77186800Y-33137600D03*
%TO.N,/rgb/RGB_LED_left_25*%
X100231300Y-96102000D03*
X32401900Y-93136400D03*
%TO.N,/rgb/RGB_LED_left_1*%
X114074200Y-20299700D03*
X68837500Y-19895900D03*
%TO.N,/rgb/RGB_LED_left_2*%
X57130300Y-19286700D03*
X106937500Y-19659400D03*
%TO.N,/rgb/RGB_LED_left_10*%
X34578900Y-40360100D03*
X125987500Y-39992600D03*
%TO.N,/rgb/RGB_LED_left_11*%
X28356300Y-44009100D03*
X93087500Y-55133300D03*
%TO.N,/rgb/RGB_LED_left_7*%
X68837500Y-39225000D03*
X114074200Y-39225000D03*
%TO.N,/rgb/RGB_LED_left_8*%
X105000800Y-38608300D03*
X57282600Y-37887100D03*
%TO.N,/rgb/RGB_LED_left_21*%
X68837500Y-76697100D03*
X114074200Y-76697100D03*
%TO.N,/rgb/RGB_LED_left_9*%
X49787500Y-39738500D03*
X130984700Y-39736900D03*
%TO.N,/rgb/RGB_LED_left_29*%
X125536200Y-107667400D03*
X145019600Y-110492500D03*
%TO.N,/rgb/RGB_LED_left_26*%
X92687400Y-93192600D03*
X75974200Y-92641600D03*
%TO.N,/rgb/RGB_LED_left_0*%
X85698500Y-15815700D03*
X77134800Y-15815700D03*
%TO.N,/rgb/RGB_LED_left_22*%
X56924200Y-78835800D03*
X105000800Y-78835800D03*
%TO.N,/rgb/RGB_LED_left_28*%
X37881300Y-98696800D03*
X128516600Y-98718500D03*
%TO.N,/rgb/RGB_LED_left_27*%
X66900800Y-98039600D03*
X43081300Y-98039600D03*
%TD*%
%TO.N,/RGB_EN_LEFT*%
D23*
X147274100Y-38990100D02*
X146117600Y-37833600D01*
X146117600Y-37833600D02*
X146117600Y-35870100D01*
%TO.N,/GND_LEFT*%
X33556300Y-75201900D02*
X33556300Y-75937500D01*
X90821100Y-22664900D02*
X94755700Y-18730300D01*
X99769800Y-52596700D02*
X99769800Y-45702400D01*
X59605100Y-53254100D02*
X56924200Y-55935000D01*
X43156000Y-89365500D02*
X40813400Y-87022900D01*
X116066700Y-42563000D02*
X117443400Y-42563000D01*
X45887500Y-55935000D02*
X47195200Y-54627300D01*
X45113400Y-74985000D02*
X45887500Y-74985000D01*
X112667700Y-101746900D02*
X114200700Y-101746900D01*
X145595700Y-100617000D02*
X145335600Y-100617000D01*
X98716100Y-72725200D02*
X98714600Y-72726700D01*
X61257600Y-50350100D02*
X60662600Y-50350100D01*
X140819800Y-51430200D02*
X148092400Y-51430200D01*
X54399900Y-16503800D02*
X47218700Y-16503800D01*
X103852600Y-41619600D02*
X115123300Y-41619600D01*
X56272200Y-80381200D02*
X57584800Y-79068600D01*
X96809200Y-72725200D02*
X95828200Y-71744200D01*
X124857400Y-98736700D02*
X122141400Y-98736700D01*
X114695500Y-73701300D02*
X114074200Y-73080000D01*
X45113400Y-74985000D02*
X42589900Y-72461500D01*
X100237300Y-18730200D02*
X103037500Y-15930000D01*
X118391600Y-48012200D02*
X118391600Y-52455600D01*
D24*
X141371500Y-96653000D02*
X139293400Y-98731100D01*
D23*
X95024200Y-53554500D02*
X98812000Y-53554500D01*
X131187500Y-74985000D02*
X131187500Y-74240200D01*
X92515400Y-12717300D02*
X93087500Y-13289400D01*
D24*
X123362600Y-110149000D02*
X115084700Y-110149000D01*
D23*
X33556300Y-56121300D02*
X33014900Y-55579900D01*
X103037500Y-34980000D02*
X103946200Y-34071300D01*
X75312000Y-92024900D02*
X74037500Y-93299400D01*
X24456300Y-75937500D02*
X25763900Y-74629900D01*
X115722100Y-100061200D02*
X115345700Y-100061200D01*
X141500000Y-30550000D02*
X141500000Y-32732100D01*
X122087500Y-17835000D02*
X123395800Y-16526700D01*
X91131300Y-92130000D02*
X92438900Y-90822400D01*
X140623300Y-30550000D02*
X139735600Y-30550000D01*
X99324200Y-57743300D02*
X103037500Y-54030000D01*
X148600000Y-51937800D02*
X148600000Y-52750000D01*
X131187500Y-17099000D02*
X131187500Y-17835000D01*
X76291500Y-92024900D02*
X75312000Y-92024900D01*
X103037500Y-73080000D02*
X102497200Y-72539600D01*
D24*
X114200700Y-109265000D02*
X114200700Y-101746900D01*
D23*
X64937500Y-94035000D02*
X66245200Y-92727300D01*
X73465400Y-92727300D02*
X74037500Y-93299400D01*
X90821100Y-25111900D02*
X90821100Y-22664900D01*
X131187500Y-17835000D02*
X133124200Y-17835000D01*
X35363300Y-17469200D02*
X28155800Y-17469200D01*
X60662600Y-50350100D02*
X59605100Y-51407600D01*
X60696100Y-38171200D02*
X61961700Y-39436800D01*
X139735600Y-38118500D02*
X139735600Y-30550000D01*
X83987500Y-33075000D02*
X85295200Y-31767300D01*
X33637200Y-50549400D02*
X33637200Y-54957600D01*
X73542900Y-33672300D02*
X74336000Y-32879200D01*
X147375900Y-102905000D02*
X147375900Y-101411700D01*
X111565200Y-52721700D02*
X112137500Y-53294000D01*
X42509300Y-93679900D02*
X43156000Y-93033200D01*
X115123300Y-38038200D02*
X115224300Y-37937200D01*
X147375900Y-101411700D02*
X147009100Y-101044900D01*
X130527700Y-118480400D02*
X138413200Y-118480400D01*
X61961700Y-49646000D02*
X61257600Y-50350100D01*
X130615200Y-16526700D02*
X131187500Y-17099000D01*
X73465400Y-14622300D02*
X74037500Y-15194400D01*
X46762800Y-78601200D02*
X45113400Y-76951800D01*
X139718900Y-74882000D02*
X141369100Y-76532300D01*
X40813400Y-87022900D02*
X40813400Y-84550600D01*
X73542900Y-33672300D02*
X74037500Y-34166900D01*
X57155000Y-36885000D02*
X57904000Y-37634000D01*
X138808200Y-39045900D02*
X139735600Y-38118500D01*
X35937500Y-18043400D02*
X35363300Y-17469200D01*
X31305100Y-45764000D02*
X31305100Y-48217300D01*
X141186000Y-70939000D02*
X148401600Y-70939000D01*
X31034000Y-89451500D02*
X33981300Y-92398800D01*
X100231300Y-91394400D02*
X100231300Y-92130000D01*
X147777600Y-109116000D02*
X147777600Y-103306700D01*
X114634600Y-35540400D02*
X114634600Y-37347500D01*
D24*
X122141400Y-98736700D02*
X118377900Y-98736700D01*
D23*
X98714600Y-72726700D02*
X97285400Y-72726700D01*
D24*
X141147100Y-112739900D02*
X142431500Y-111455500D01*
D23*
X97285400Y-72726700D02*
X97283900Y-72725200D01*
X123362600Y-108876800D02*
X123362600Y-110149000D01*
D24*
X139293400Y-98731100D02*
X139293400Y-99788300D01*
D23*
X81098400Y-68285900D02*
X83987500Y-71175000D01*
X118755900Y-22376700D02*
X117285400Y-22376700D01*
X36174400Y-76618900D02*
X36174400Y-79214100D01*
X126318400Y-97986600D02*
X125607500Y-97986600D01*
X94755700Y-18730200D02*
X95024200Y-18730200D01*
D24*
X102143000Y-92745600D02*
X105757400Y-96360000D01*
D23*
X74336000Y-30246000D02*
X76457000Y-28125000D01*
X156389900Y-56939100D02*
X156389900Y-38274300D01*
X74118400Y-52029700D02*
X74118400Y-47691900D01*
X93087500Y-51393700D02*
X93087500Y-52125000D01*
X123362600Y-110149000D02*
X123362600Y-111315300D01*
X121194000Y-38746000D02*
X121194000Y-37937200D01*
X139718900Y-74882000D02*
X137888100Y-76712800D01*
X74336000Y-32879200D02*
X74336000Y-30246000D01*
X118343700Y-47964300D02*
X118391600Y-48012200D01*
X35937500Y-18787500D02*
X35937500Y-18043400D01*
X47195200Y-35577300D02*
X54415400Y-35577300D01*
X36684800Y-39029300D02*
X36684800Y-40384300D01*
X33072900Y-36532500D02*
X25761300Y-36532500D01*
X139875000Y-72250000D02*
X141186000Y-70939000D01*
X138413200Y-118480400D02*
X147777600Y-109116000D01*
X133124200Y-74985000D02*
X133124200Y-77036300D01*
X83387400Y-77435400D02*
X83387400Y-92130000D01*
X114877600Y-19968900D02*
X114877600Y-16733400D01*
X139125700Y-72999300D02*
X139125700Y-74288900D01*
D24*
X83387400Y-92130000D02*
X83387400Y-92385800D01*
D23*
X45679100Y-18043400D02*
X45887500Y-17835000D01*
X81098400Y-62481300D02*
X81098400Y-68285900D01*
X102497200Y-72539600D02*
X102311600Y-72725200D01*
X54987500Y-55199400D02*
X54987500Y-55935000D01*
X95024200Y-18730200D02*
X100237300Y-18730200D01*
X54987500Y-74985000D02*
X56924200Y-74985000D01*
X103037500Y-54030000D02*
X104345800Y-52721700D01*
D24*
X110479400Y-99558600D02*
X112667700Y-101746900D01*
D23*
X141371500Y-96653000D02*
X145335500Y-100617000D01*
X99324200Y-69366600D02*
X99324200Y-57743300D01*
X112137500Y-73080000D02*
X114074200Y-73080000D01*
X125769500Y-100035200D02*
X126318400Y-97986600D01*
X57904000Y-38171200D02*
X60696100Y-38171200D01*
X47195200Y-54627300D02*
X54415400Y-54627300D01*
X102311600Y-72725200D02*
X98716100Y-72725200D01*
X54987500Y-17835000D02*
X54987500Y-17091400D01*
X133124200Y-38913600D02*
X133256500Y-39045900D01*
X83987500Y-52125000D02*
X85284200Y-50828300D01*
X138201700Y-56964300D02*
X137739300Y-57426700D01*
X139500000Y-52750000D02*
X138201700Y-54048300D01*
X74994400Y-42068100D02*
X83987500Y-33075000D01*
X104345800Y-52721700D02*
X111565200Y-52721700D01*
X121194000Y-37778500D02*
X122087500Y-36885000D01*
X150536700Y-52750000D02*
X154725800Y-56939100D01*
X103037500Y-15930000D02*
X104386000Y-14581500D01*
X117285400Y-22376700D02*
X114877600Y-19968900D01*
X71786300Y-45359800D02*
X71786300Y-43591700D01*
X117443400Y-42563000D02*
X118343700Y-43463300D01*
X139875000Y-72250000D02*
X139125700Y-72999300D01*
X77879200Y-14025000D02*
X83987500Y-14025000D01*
X145335500Y-100617000D02*
X145335600Y-100617000D01*
X93087500Y-52125000D02*
X95024200Y-52125000D01*
X111565300Y-33671800D02*
X112137500Y-34244000D01*
X57904000Y-37634000D02*
X57904000Y-38171200D01*
X45887500Y-36885000D02*
X47195200Y-35577300D01*
X155906000Y-72920200D02*
X156389900Y-72436300D01*
X133809000Y-55935000D02*
X131187500Y-55935000D01*
X133256500Y-39045900D02*
X138808200Y-39045900D01*
X75974200Y-73080000D02*
X76646800Y-73752600D01*
X97283900Y-72725200D02*
X96809200Y-72725200D01*
X90210300Y-55735100D02*
X83702000Y-62243400D01*
X90584000Y-22664900D02*
X90821100Y-22664900D01*
X92515400Y-31767300D02*
X93087500Y-32339400D01*
X123362600Y-111315300D02*
X130527700Y-118480400D01*
X122087500Y-55935000D02*
X123394300Y-54628200D01*
X42411800Y-39029300D02*
X43759100Y-40376600D01*
X133124200Y-36885000D02*
X133124200Y-38913600D01*
X87878100Y-16726400D02*
X88299900Y-16726400D01*
X135851100Y-79763200D02*
X137888100Y-79763200D01*
X146023600Y-101044900D02*
X145595700Y-100617000D01*
D24*
X118377900Y-98736700D02*
X117177900Y-99936700D01*
D23*
X137739300Y-57426700D02*
X135300700Y-57426700D01*
X81336300Y-62243400D02*
X81098400Y-62481300D01*
X93087500Y-32339400D02*
X93087500Y-33075000D01*
X115722100Y-99936700D02*
X115722100Y-100061200D01*
X133124200Y-20088300D02*
X133124200Y-17835000D01*
X62797000Y-17835000D02*
X54987500Y-17835000D01*
X47218700Y-16503800D02*
X45887500Y-17835000D01*
X64937500Y-73080000D02*
X66245200Y-71772300D01*
X110479400Y-96360000D02*
X110479400Y-99558600D01*
X33014900Y-55579900D02*
X25763900Y-55579900D01*
X74037500Y-54030000D02*
X74037500Y-53291000D01*
X33556300Y-56887500D02*
X33556300Y-56121300D01*
X133124200Y-77036300D02*
X135851100Y-79763200D01*
X123394300Y-54628200D02*
X130616700Y-54628200D01*
X114993200Y-100912100D02*
X115014400Y-100933200D01*
X45088000Y-58299700D02*
X45088000Y-56734500D01*
X64937500Y-15930000D02*
X66245200Y-14622300D01*
X148975000Y-71512400D02*
X148975000Y-72250000D01*
X43759100Y-40376600D02*
X55698600Y-40376600D01*
D24*
X102143000Y-92130000D02*
X102143000Y-92745600D01*
D23*
X75974200Y-15930000D02*
X77879200Y-14025000D01*
X42589900Y-60797800D02*
X45088000Y-58299700D01*
X31034000Y-84354500D02*
X31034000Y-89451500D01*
X43156000Y-93033200D02*
X43156000Y-89365500D01*
X121194000Y-37937200D02*
X121194000Y-37778500D01*
X93488100Y-55735100D02*
X90210300Y-55735100D01*
X118343700Y-43463300D02*
X118343700Y-47964300D01*
X73465400Y-71772300D02*
X74037500Y-72344400D01*
X131187500Y-36885000D02*
X133124200Y-36885000D01*
D24*
X133214600Y-111789000D02*
X134165500Y-112739900D01*
D23*
X106771100Y-34071300D02*
X107170600Y-33671800D01*
X35288900Y-93679900D02*
X42509300Y-93679900D01*
X118608100Y-52455600D02*
X122087500Y-55935000D01*
X123425300Y-73647200D02*
X122087500Y-74985000D01*
X139500000Y-52750000D02*
X140819800Y-51430200D01*
X131187500Y-74240200D02*
X130594500Y-73647200D01*
X144786700Y-102665600D02*
X145335600Y-100617000D01*
X137888100Y-79763200D02*
X141060100Y-82935200D01*
X114877600Y-16733400D02*
X114074200Y-15930000D01*
X112137500Y-15930000D02*
X114074200Y-15930000D01*
X114695500Y-78284800D02*
X114695500Y-73701300D01*
X115722100Y-99936700D02*
X114350600Y-98565200D01*
X148401600Y-70939000D02*
X148975000Y-71512400D01*
X112137500Y-53294000D02*
X112137500Y-54030000D01*
X31305100Y-48217300D02*
X33637200Y-50549400D01*
X78448800Y-28125000D02*
X80420400Y-26153400D01*
X66266700Y-52700800D02*
X64937500Y-54030000D01*
X102497200Y-72539600D02*
X99324200Y-69366600D01*
X54415400Y-54627300D02*
X54987500Y-55199400D01*
X95828200Y-71744200D02*
X95593400Y-71744200D01*
X35493000Y-37837500D02*
X36684800Y-39029300D01*
X94755700Y-18730300D02*
X94755700Y-18730200D01*
X95024200Y-53554500D02*
X95024200Y-54199000D01*
X54987500Y-55935000D02*
X56924200Y-55935000D01*
X76646800Y-73752600D02*
X79704600Y-73752600D01*
D24*
X100231300Y-92130000D02*
X102143000Y-92130000D01*
D23*
X131187500Y-55199000D02*
X131187500Y-55935000D01*
X114634600Y-37347500D02*
X115224300Y-37937200D01*
X148092400Y-51430200D02*
X148600000Y-51937800D01*
X147777600Y-103306700D02*
X147375900Y-102905000D01*
X141369100Y-76532300D02*
X151261700Y-76532300D01*
X71786300Y-43591700D02*
X73309900Y-42068100D01*
D24*
X117177900Y-99936700D02*
X115722100Y-99936700D01*
D23*
X103946200Y-34071300D02*
X106771100Y-34071300D01*
X64702000Y-15930000D02*
X62797000Y-17835000D01*
X66245200Y-92727300D02*
X73465400Y-92727300D01*
X36684800Y-39029300D02*
X42411800Y-39029300D01*
X33556300Y-37837500D02*
X33556300Y-37015900D01*
D24*
X134165500Y-112739900D02*
X141147100Y-112739900D01*
D23*
X74037500Y-15930000D02*
X75974200Y-15930000D01*
D24*
X115084700Y-110149000D02*
X114200700Y-109265000D01*
D23*
X98812000Y-53554500D02*
X99769800Y-52596700D01*
X74037500Y-15194400D02*
X74037500Y-15930000D01*
X112137500Y-34244000D02*
X112137500Y-34980000D01*
X28155800Y-17469200D02*
X26837500Y-18787500D01*
X46762800Y-78601200D02*
X48542800Y-80381200D01*
X59605100Y-51407600D02*
X59605100Y-53254100D01*
X66245200Y-33672300D02*
X73542900Y-33672300D01*
X36174400Y-79214100D02*
X31034000Y-84354500D01*
X139125700Y-74288900D02*
X139718900Y-74882000D01*
X57584800Y-79068600D02*
X57584800Y-75645600D01*
X74037500Y-53291000D02*
X73447300Y-52700800D01*
X112137500Y-34980000D02*
X114074200Y-34980000D01*
X113703900Y-51727600D02*
X115520200Y-51727600D01*
X123395800Y-16526700D02*
X130615200Y-16526700D01*
X140691900Y-91417000D02*
X140691900Y-95973400D01*
X76652400Y-92385800D02*
X76291500Y-92024900D01*
X138642500Y-25606600D02*
X133124200Y-20088300D01*
X148600000Y-52750000D02*
X150536700Y-52750000D01*
X156389900Y-72436300D02*
X156389900Y-56939100D01*
X74037500Y-73080000D02*
X75974200Y-73080000D01*
X116248200Y-52455600D02*
X118391600Y-52455600D01*
X35937500Y-18043400D02*
X45679100Y-18043400D01*
X92515400Y-31767300D02*
X93201000Y-31081700D01*
X95024200Y-14025000D02*
X95024200Y-18730200D01*
X25763900Y-74629900D02*
X32984300Y-74629900D01*
X130594500Y-73647200D02*
X123425300Y-73647200D01*
X40813400Y-84550600D02*
X46762800Y-78601200D01*
X151261700Y-76532300D02*
X154873800Y-72920200D01*
X33556300Y-37015900D02*
X33072900Y-36532500D01*
X154725800Y-56939100D02*
X156389900Y-56939100D01*
X85295200Y-31767300D02*
X92515400Y-31767300D01*
X112137500Y-15118600D02*
X112137500Y-15930000D01*
X33637200Y-54957600D02*
X33014900Y-55579900D01*
X125607500Y-97986600D02*
X124857400Y-98736700D01*
X79704600Y-73752600D02*
X83387400Y-77435400D01*
X138642500Y-29456900D02*
X138642500Y-25606600D01*
X114993200Y-100413700D02*
X114993200Y-100912100D01*
X115345700Y-100061200D02*
X114993200Y-100413700D01*
X54415400Y-35577300D02*
X54987500Y-36149400D01*
X122087500Y-17835000D02*
X120128900Y-19793600D01*
X114350600Y-78629700D02*
X114695500Y-78284800D01*
X33556300Y-37837500D02*
X35493000Y-37837500D01*
X74037500Y-72344400D02*
X74037500Y-73080000D01*
X123042400Y-40594400D02*
X121194000Y-38746000D01*
X92522100Y-50828300D02*
X93087500Y-51393700D01*
X91131300Y-92130000D02*
X83387400Y-92130000D01*
X95024200Y-52125000D02*
X95024200Y-53554500D01*
X54987500Y-36885000D02*
X57155000Y-36885000D01*
X93087500Y-14025000D02*
X95024200Y-14025000D01*
X42589900Y-72461500D02*
X42589900Y-60797800D01*
X61961700Y-39436800D02*
X61961700Y-49646000D01*
X115123300Y-41619600D02*
X115123300Y-38038200D01*
X115520200Y-51727600D02*
X116248200Y-52455600D01*
X104386000Y-14581500D02*
X111600400Y-14581500D01*
X74037500Y-93299400D02*
X74037500Y-94035000D01*
X83987500Y-14025000D02*
X85295200Y-12717300D01*
X139735600Y-30550000D02*
X138642500Y-29456900D01*
X64937500Y-54030000D02*
X61257600Y-50350100D01*
X80420400Y-26153400D02*
X80420400Y-24184100D01*
X35493000Y-75937500D02*
X36174400Y-76618900D01*
X74118400Y-47691900D02*
X71786300Y-45359800D01*
X36684800Y-40384300D02*
X31305100Y-45764000D01*
X54987500Y-36149400D02*
X54987500Y-36885000D01*
X66245200Y-71772300D02*
X73465400Y-71772300D01*
X131443400Y-40594400D02*
X123042400Y-40594400D01*
X93201000Y-27491800D02*
X90821100Y-25111900D01*
X120128900Y-19793600D02*
X120128900Y-21003700D01*
X74037500Y-34166900D02*
X74037500Y-34980000D01*
X83702000Y-62243400D02*
X81336300Y-62243400D01*
X115014400Y-100933200D02*
X114200700Y-101746900D01*
X95024200Y-54199000D02*
X93488100Y-55735100D01*
X93087500Y-13289400D02*
X93087500Y-14025000D01*
X135300700Y-57426700D02*
X133809000Y-55935000D01*
X33981300Y-92398800D02*
X33981300Y-94987500D01*
X154873800Y-72920200D02*
X155906000Y-72920200D01*
X138201700Y-54048300D02*
X138201700Y-56964300D01*
X120128900Y-21003700D02*
X118755900Y-22376700D01*
X118391600Y-52455600D02*
X118608100Y-52455600D01*
X54987500Y-17091400D02*
X54399900Y-16503800D01*
X66245200Y-14622300D02*
X73465400Y-14622300D01*
X137888100Y-76712800D02*
X137888100Y-79763200D01*
X64937500Y-15930000D02*
X64702000Y-15930000D01*
X83387400Y-92385800D02*
X76652400Y-92385800D01*
X57584800Y-75645600D02*
X56924200Y-74985000D01*
X123414300Y-108825100D02*
X123362600Y-108876800D01*
D24*
X133214600Y-105867100D02*
X133214600Y-111789000D01*
D23*
X55698600Y-40376600D02*
X57904000Y-38171200D01*
X131187500Y-74985000D02*
X133124200Y-74985000D01*
X130616700Y-54628200D02*
X131187500Y-55199000D01*
X133124200Y-38913600D02*
X131443400Y-40594400D01*
X141060100Y-82935200D02*
X141060100Y-91048800D01*
X107170600Y-33671800D02*
X111565300Y-33671800D01*
X76457000Y-28125000D02*
X78448800Y-28125000D01*
X141060100Y-91048800D02*
X140691900Y-91417000D01*
D24*
X105757400Y-96360000D02*
X110479400Y-96360000D01*
D23*
X64937500Y-34980000D02*
X66245200Y-33672300D01*
X115224300Y-37937200D02*
X121194000Y-37937200D01*
X114350600Y-98565200D02*
X114350600Y-78629700D01*
X114074200Y-34980000D02*
X114634600Y-35540400D01*
X112137500Y-53294000D02*
X113703900Y-51727600D01*
X99659300Y-90822400D02*
X100231300Y-91394400D01*
X73447300Y-52700800D02*
X66266700Y-52700800D01*
X115123300Y-41619600D02*
X116066700Y-42563000D01*
X45088000Y-56734500D02*
X45887500Y-55935000D01*
X85284200Y-50828300D02*
X92522100Y-50828300D01*
X93087500Y-71175000D02*
X95024200Y-71175000D01*
X33981300Y-94987500D02*
X35288900Y-93679900D01*
X93201000Y-31081700D02*
X93201000Y-27491800D01*
X99769800Y-45702400D02*
X103852600Y-41619600D01*
X73447300Y-52700800D02*
X74118400Y-52029700D01*
X25763900Y-55579900D02*
X24456300Y-56887500D01*
X95593400Y-71744200D02*
X95024200Y-71175000D01*
X111600400Y-14581500D02*
X112137500Y-15118600D01*
X48542800Y-80381200D02*
X56272200Y-80381200D01*
X156389900Y-38274300D02*
X153404400Y-35288800D01*
X141500000Y-32732100D02*
X143752900Y-34985000D01*
X42509300Y-93679900D02*
X43081300Y-94251900D01*
X88299900Y-16726400D02*
X89708500Y-18135000D01*
X141500000Y-30550000D02*
X140623300Y-30550000D01*
X89708500Y-18135000D02*
X89708500Y-21789400D01*
X80420400Y-24184100D02*
X87878100Y-16726400D01*
X147009100Y-101044900D02*
X146023600Y-101044900D01*
X92438900Y-90822400D02*
X99659300Y-90822400D01*
X33556300Y-75937500D02*
X35493000Y-75937500D01*
X45113400Y-76951800D02*
X45113400Y-74985000D01*
X140691900Y-95973400D02*
X141371500Y-96653000D01*
X73309900Y-42068100D02*
X74994400Y-42068100D01*
X43081300Y-94251900D02*
X43081300Y-94987500D01*
X25761300Y-36532500D02*
X24456300Y-37837500D01*
X32984300Y-74629900D02*
X33556300Y-75201900D01*
X85295200Y-12717300D02*
X92515400Y-12717300D01*
X89708500Y-21789400D02*
X90584000Y-22664900D01*
D24*
X139293400Y-99788300D02*
X133214600Y-105867100D01*
%TO.N,/COL0*%
D23*
X119235800Y-10755000D02*
X119235800Y-6316600D01*
D24*
X121587500Y-10755000D02*
X119235800Y-10755000D01*
D23*
X123162500Y-63234400D02*
X123162500Y-60029500D01*
D24*
X119235800Y-11375000D02*
X118608300Y-12002500D01*
D23*
X137400200Y-63234400D02*
X138260800Y-64095000D01*
X50233300Y-44009200D02*
X50432600Y-44009200D01*
X45387500Y-50631700D02*
X44686300Y-51332900D01*
X115165200Y-2246000D02*
X88186500Y-2246000D01*
X88186500Y-2246000D02*
X83487500Y-6945000D01*
X121587500Y-67905000D02*
X123162500Y-66330000D01*
X42188200Y-60631400D02*
X42188200Y-79200600D01*
X42188200Y-79200600D02*
X33481300Y-87907500D01*
X44686300Y-51332900D02*
X44686300Y-58133300D01*
X100749600Y-31464600D02*
X100749600Y-31971500D01*
X140637500Y-64095000D02*
X138260800Y-64095000D01*
X102537500Y-27900000D02*
X102537500Y-29676700D01*
X102537500Y-27900000D02*
X102537500Y-18769700D01*
X102537500Y-18769700D02*
X102941900Y-18365300D01*
X44686300Y-58133300D02*
X42188200Y-60631400D01*
D24*
X119235800Y-11065000D02*
X119235800Y-11375000D01*
D23*
X119235800Y-6316600D02*
X115165200Y-2246000D01*
X102537500Y-29676700D02*
X100749600Y-31464600D01*
X83487500Y-45045000D02*
X83487500Y-47022400D01*
X45387500Y-48855000D02*
X45387500Y-50631700D01*
X119235800Y-11065000D02*
X119235800Y-10755000D01*
X123162500Y-63234400D02*
X137400200Y-63234400D01*
X83487500Y-45045000D02*
X83487500Y-37586400D01*
X45387500Y-48855000D02*
X50233300Y-44009200D01*
X123162500Y-60029500D02*
X121622800Y-58489800D01*
X123162500Y-66330000D02*
X123162500Y-63234400D01*
%TO.N,/matrix/SW41_A*%
X153337500Y-63331700D02*
X155500000Y-65494200D01*
X155500000Y-65494200D02*
X155500000Y-71850000D01*
X153337500Y-61555000D02*
X153337500Y-63331700D01*
%TO.N,/ROW0*%
X118000000Y-20923300D02*
X115419200Y-18342500D01*
X61876700Y-20000000D02*
X61876700Y-19606200D01*
X79500000Y-16000000D02*
X79500000Y-18083200D01*
X99855400Y-14179800D02*
X99000000Y-15035200D01*
X115419200Y-18342500D02*
X115419200Y-16698200D01*
X112900800Y-14179800D02*
X99855400Y-14179800D01*
X118000000Y-21650000D02*
X118000000Y-20923300D01*
X61876700Y-19606200D02*
X63996400Y-17486500D01*
X99000000Y-15726700D02*
X99000000Y-18083200D01*
X115419200Y-16698200D02*
X112900800Y-14179800D01*
X99000000Y-15035200D02*
X99000000Y-15726700D01*
X99000000Y-15000000D02*
X99000000Y-15035200D01*
X61000000Y-20000000D02*
X61876700Y-20000000D01*
%TO.N,/ROW1*%
X98500000Y-33500000D02*
X98500000Y-34226700D01*
X40376700Y-24009900D02*
X40376700Y-24000000D01*
X39500000Y-24000000D02*
X40376700Y-24000000D01*
X137000000Y-21273300D02*
X138862200Y-19411100D01*
X98500000Y-34226700D02*
X98500000Y-37818300D01*
X40602700Y-24235900D02*
X40376700Y-24009900D01*
X79000000Y-35500000D02*
X79000000Y-37197200D01*
X137000000Y-22000000D02*
X137000000Y-21273300D01*
X138862200Y-19411100D02*
X138862200Y-6527500D01*
%TO.N,/ROW2*%
X116000000Y-41226700D02*
X116000000Y-41607900D01*
X43387800Y-40773300D02*
X43476600Y-40862100D01*
X116000000Y-40500000D02*
X116000000Y-41226700D01*
X116000000Y-40500000D02*
X116876700Y-40500000D01*
X43476600Y-40862100D02*
X60902100Y-40862100D01*
X40500000Y-40773300D02*
X43387800Y-40773300D01*
X60902100Y-40862100D02*
X60902100Y-41319100D01*
X61037500Y-40000000D02*
X61037500Y-40726700D01*
X116876700Y-40500000D02*
X117526700Y-41150000D01*
X60902100Y-40862100D02*
X61037500Y-40726700D01*
X117526700Y-41150000D02*
X137000000Y-41150000D01*
X40500000Y-41500000D02*
X40500000Y-40773300D01*
%TO.N,/ROW3*%
X98500000Y-52000000D02*
X98500000Y-52950800D01*
X117500000Y-55000000D02*
X117500000Y-54273300D01*
X117500000Y-54273300D02*
X116769500Y-54273300D01*
X150368300Y-50291600D02*
X141892800Y-50291600D01*
D24*
X79500000Y-52798300D02*
X81870200Y-50428100D01*
D23*
X96456800Y-51273300D02*
X95611600Y-50428100D01*
X155500000Y-55423300D02*
X150368300Y-50291600D01*
X98500000Y-51273300D02*
X96456800Y-51273300D01*
X155500000Y-56150000D02*
X155500000Y-55423300D01*
D24*
X81870200Y-50428100D02*
X95611600Y-50428100D01*
X79500000Y-53500000D02*
X79500000Y-52798300D01*
D23*
X116769500Y-54273300D02*
X114890600Y-52394400D01*
X98500000Y-52000000D02*
X98500000Y-51273300D01*
X136868800Y-45267600D02*
X136868800Y-45100000D01*
X141892800Y-50291600D02*
X136868800Y-45267600D01*
%TO.N,/ROW4*%
X60500000Y-56085000D02*
X60500000Y-59545900D01*
X136284300Y-59273300D02*
X135568500Y-59989100D01*
X97273300Y-71273300D02*
X94981700Y-68981700D01*
X98000000Y-72000000D02*
X98000000Y-71273300D01*
X41775700Y-58773300D02*
X42485400Y-59483000D01*
D24*
X94981700Y-68981700D02*
X93983500Y-67983400D01*
D23*
X98000000Y-71273300D02*
X97273300Y-71273300D01*
X41000000Y-58773300D02*
X41775700Y-58773300D01*
X137000000Y-59273300D02*
X136284300Y-59273300D01*
X137000000Y-60000000D02*
X137000000Y-59273300D01*
X135568500Y-59989100D02*
X135568500Y-61285800D01*
X41000000Y-59500000D02*
X41000000Y-58773300D01*
%TO.N,/ROW5*%
X79000000Y-74500000D02*
X79000000Y-74863300D01*
X158085600Y-71837700D02*
X158085600Y-16602300D01*
X155500000Y-75150000D02*
X155500000Y-75876700D01*
X140827600Y-76934000D02*
X154442700Y-76934000D01*
X78932700Y-77320000D02*
X78932700Y-77325300D01*
X154442700Y-76934000D02*
X155500000Y-75876700D01*
X79000000Y-74863300D02*
X78932700Y-74930600D01*
X78932700Y-74930600D02*
X78932700Y-77320000D01*
X158085600Y-16602300D02*
X155841300Y-14358000D01*
X60000000Y-75500000D02*
X65505500Y-75500000D01*
X155500000Y-74423300D02*
X158085600Y-71837700D01*
X117500000Y-73500000D02*
X117500000Y-76329100D01*
X155500000Y-75150000D02*
X155500000Y-74423300D01*
X139702500Y-75808900D02*
X140827600Y-76934000D01*
X65505500Y-75500000D02*
X67325500Y-77320000D01*
X155841300Y-14358000D02*
X147712000Y-14358000D01*
X67325500Y-77320000D02*
X78932700Y-77320000D01*
X147712000Y-14358000D02*
X144422100Y-17647900D01*
%TO.N,/ROW6*%
X106500000Y-94923300D02*
X101994200Y-90417500D01*
X40926300Y-78150000D02*
X41576200Y-78799900D01*
X136037600Y-78914300D02*
X135907900Y-78914300D01*
X82500000Y-90923300D02*
X82500000Y-90417500D01*
X136123300Y-79000000D02*
X136037600Y-78914300D01*
X106500000Y-95650000D02*
X106500000Y-94923300D01*
X82500000Y-91650000D02*
X82500000Y-90923300D01*
X137000000Y-79000000D02*
X136123300Y-79000000D01*
X40000000Y-78150000D02*
X40926300Y-78150000D01*
%TO.N,/ROW7*%
X128222700Y-93535000D02*
X128222700Y-93762500D01*
X128500000Y-92500000D02*
X128222700Y-93535000D01*
X52000000Y-93500000D02*
X52000000Y-92773300D01*
X137000000Y-82999900D02*
X136722700Y-84035000D01*
X129292700Y-91464900D02*
X128777300Y-91464900D01*
X136722600Y-84035000D02*
X129292700Y-91464900D01*
X136722700Y-84035000D02*
X136722600Y-84035000D01*
X128500000Y-92500000D02*
X128777300Y-91464900D01*
X52000000Y-92773300D02*
X52000000Y-92247900D01*
%TO.N,/COL1*%
X155598500Y-23990400D02*
X155598500Y-14989200D01*
X105232100Y-80368300D02*
X113580900Y-88717100D01*
X23956300Y-68857500D02*
X25875100Y-66938700D01*
X140637500Y-44192800D02*
X126249700Y-44192800D01*
X140637500Y-45045000D02*
X140637500Y-44192800D01*
X31957200Y-6087800D02*
X63452000Y-6087800D01*
X63452000Y-6087800D02*
X64437500Y-7073300D01*
X119210800Y-47980500D02*
X119210800Y-48855000D01*
X118945400Y-47715100D02*
X119210800Y-47980500D01*
X90453900Y-80368300D02*
X105232100Y-80368300D01*
X26022100Y-13799600D02*
X26022100Y-19594500D01*
X26337500Y-13484200D02*
X26022100Y-13799600D01*
X114729000Y-102084800D02*
X114729000Y-105758500D01*
X74684700Y-68011700D02*
X74684700Y-69078300D01*
X140637500Y-44192800D02*
X140637500Y-38951400D01*
X115594900Y-101218900D02*
X114729000Y-102084800D01*
X113580900Y-88717100D02*
X113580900Y-100662900D01*
X121587500Y-48855000D02*
X119210800Y-48855000D01*
X74684700Y-69078300D02*
X78690800Y-73084400D01*
X64437500Y-8850000D02*
X64437500Y-7073300D01*
X25875100Y-66938700D02*
X25875100Y-58067900D01*
X45387500Y-29805000D02*
X45387500Y-28028300D01*
X64437500Y-63857900D02*
X64437500Y-63182400D01*
X115594900Y-100662900D02*
X115594900Y-101218900D01*
X26337500Y-11707500D02*
X31957200Y-6087800D01*
X45387500Y-28028300D02*
X45387500Y-25365600D01*
X64437500Y-63857900D02*
X70530900Y-63857900D01*
X64437500Y-66000000D02*
X64437500Y-64223300D01*
X114729000Y-105758500D02*
X116446100Y-107475600D01*
X126249700Y-44192800D02*
X121587500Y-48855000D01*
X83170000Y-73084400D02*
X90453900Y-80368300D01*
X78690800Y-73084400D02*
X83170000Y-73084400D01*
X70530900Y-63857900D02*
X74684700Y-68011700D01*
X26337500Y-11707500D02*
X26337500Y-13484200D01*
X140637500Y-38951400D02*
X155598500Y-23990400D01*
X64437500Y-64223300D02*
X64437500Y-63857900D01*
%TO.N,/COL2*%
X23956300Y-49807500D02*
X23956300Y-45769500D01*
D24*
X81121300Y-24670600D02*
X81121300Y-24342800D01*
D23*
X79811300Y-29397900D02*
X79811300Y-29893300D01*
X121587500Y-29805000D02*
X121587500Y-23253300D01*
X102555900Y-56686100D02*
X102555900Y-64204900D01*
X102555900Y-64204900D02*
X102537500Y-64223300D01*
X134134700Y-108626700D02*
X134134700Y-105782400D01*
D24*
X81121300Y-24342800D02*
X88093200Y-17370900D01*
D23*
X135527800Y-110019800D02*
X134134700Y-108626700D01*
X77971800Y-31732800D02*
X77971800Y-35072200D01*
X102537500Y-8850000D02*
X102537500Y-10626700D01*
X134134700Y-105782400D02*
X135921200Y-103995900D01*
X69319000Y-40291800D02*
X64437500Y-45173300D01*
X83487500Y-27771700D02*
X81437500Y-27771700D01*
X64437500Y-46950000D02*
X64437500Y-45173300D01*
X88093200Y-17370900D02*
X88093200Y-22401500D01*
X118376700Y-72874000D02*
X118376700Y-85882100D01*
D24*
X81437500Y-27771700D02*
X81437500Y-24986800D01*
D23*
X102537500Y-66000000D02*
X102537500Y-64223300D01*
X102537500Y-66000000D02*
X102537500Y-69126700D01*
X114997900Y-93998500D02*
X114997900Y-89260900D01*
X81437500Y-27771700D02*
X79811300Y-29397900D01*
D24*
X81437500Y-24986800D02*
X81121300Y-24670600D01*
D23*
X102537500Y-69126700D02*
X105194100Y-71783300D01*
X77971800Y-35072200D02*
X72752200Y-40291800D01*
X114997900Y-89260900D02*
X118376700Y-85882100D01*
X79811300Y-29893300D02*
X77971800Y-31732800D01*
X117873500Y-72370800D02*
X118376700Y-72874000D01*
X72752200Y-40291800D02*
X69319000Y-40291800D01*
X23956300Y-45769500D02*
X26493400Y-43232400D01*
X102537500Y-10626700D02*
X102537500Y-10833800D01*
X83487500Y-25995000D02*
X83487500Y-27771700D01*
X90631300Y-85050000D02*
X90631300Y-82373500D01*
X64437500Y-45173300D02*
X64437500Y-43232400D01*
%TO.N,/COL3*%
X45387500Y-67905000D02*
X45387500Y-71184300D01*
X65687500Y-24873300D02*
X64437500Y-26123300D01*
X65687500Y-18445800D02*
X65687500Y-24873300D01*
X83487500Y-69488100D02*
X84948800Y-70949400D01*
X102537500Y-50397100D02*
X102537500Y-46950000D01*
X64437500Y-77325000D02*
X64115500Y-77003000D01*
X23956300Y-30757500D02*
X23956300Y-24286800D01*
D24*
X63637500Y-43300000D02*
X63837500Y-44600000D01*
X64437500Y-27900000D02*
X64037499Y-34500000D01*
D23*
X64437500Y-86955000D02*
X64437500Y-77325000D01*
D24*
X81037500Y-57600000D02*
X80837500Y-61900000D01*
D23*
X45387500Y-71184300D02*
X47891500Y-73688300D01*
X95878300Y-57056300D02*
X102537500Y-50397100D01*
X23956300Y-24286800D02*
X24782700Y-23460400D01*
X64437500Y-27900000D02*
X64437500Y-26123300D01*
D24*
X65237500Y-51700000D02*
X65237500Y-52900000D01*
D23*
X83487500Y-64095000D02*
X83487500Y-69488100D01*
D24*
X64037499Y-38000000D02*
X63637500Y-43300000D01*
D23*
X90526200Y-57056300D02*
X95878300Y-57056300D01*
X83487500Y-64095000D02*
X90526200Y-57056300D01*
X84948800Y-70949400D02*
X84948800Y-71623600D01*
X45387500Y-10755000D02*
X45387500Y-16215600D01*
%TO.N,/RGB_DATA_LEFT*%
X139947500Y-8918000D02*
X139947500Y-29910700D01*
X141068000Y-7797500D02*
X139947500Y-8918000D01*
%TO.N,/VBAT_LEFT*%
D25*
X151734500Y-31953000D02*
X151734500Y-28904600D01*
%TO.N,/matrix/SW4_A*%
D23*
X115237500Y-6310000D02*
X115237500Y-8086700D01*
X118000000Y-10849200D02*
X115237500Y-8086700D01*
X118000000Y-18350000D02*
X118000000Y-10849200D01*
%TO.N,/matrix/SW26_A*%
X155500000Y-46444200D02*
X153337500Y-44281700D01*
X153337500Y-42505000D02*
X153337500Y-44281700D01*
X155500000Y-52850000D02*
X155500000Y-46444200D01*
%TO.N,/matrix/SW55_A*%
X52000000Y-89473300D02*
X48510400Y-89473300D01*
X52000000Y-90200000D02*
X52000000Y-89473300D01*
X46181300Y-85367500D02*
X46181300Y-87144200D01*
X48510400Y-89473300D02*
X46181300Y-87144200D01*
%TO.N,/matrix/SW37_A*%
X36656300Y-49143500D02*
X39342900Y-51830100D01*
X41000000Y-56200000D02*
X41000000Y-51830100D01*
X36656300Y-47267500D02*
X36656300Y-49143500D01*
%TO.N,/matrix/SW1_A*%
X96187500Y-4405000D02*
X96187500Y-6181700D01*
X99000000Y-11700000D02*
X99000000Y-8994200D01*
X99000000Y-8994200D02*
X96187500Y-6181700D01*
%TO.N,/matrix/SW33_A*%
X60930000Y-51628300D02*
X60930000Y-50953200D01*
X58087500Y-46315000D02*
X58087500Y-49547700D01*
X60500000Y-52785000D02*
X60500000Y-52058300D01*
X60500000Y-52058300D02*
X60930000Y-51628300D01*
%TO.N,/matrix/SW23_A*%
X36656300Y-28217500D02*
X36656300Y-29994200D01*
X40500000Y-38200000D02*
X40500000Y-33837900D01*
X40500000Y-33837900D02*
X36656300Y-29994200D01*
%TO.N,/RGB_5V_LEFT*%
D25*
X143400000Y-52750000D02*
X141288300Y-52750000D01*
X106160800Y-19612800D02*
X106160800Y-19981100D01*
X85487500Y-14025000D02*
X87887500Y-14025000D01*
X85075100Y-72841400D02*
X85075100Y-72675000D01*
X137648700Y-26312900D02*
X137648700Y-32029000D01*
X92631300Y-92130000D02*
X95031300Y-92130000D01*
X99944600Y-20260100D02*
X99944600Y-32747400D01*
X107365200Y-71576800D02*
X106937500Y-72004500D01*
X46449700Y-19061100D02*
X47675800Y-17835000D01*
X24456300Y-86962500D02*
X24456300Y-77437500D01*
X99944600Y-32747400D02*
X99944600Y-33387100D01*
X130776600Y-117877100D02*
X124863100Y-111963600D01*
X21404600Y-36135500D02*
X23426400Y-38157300D01*
X123175100Y-58778400D02*
X126480700Y-62084000D01*
X47387500Y-74985000D02*
X49787500Y-74985000D01*
X30737500Y-18787500D02*
X28625800Y-18787500D01*
X91131300Y-93630000D02*
X92631300Y-92130000D01*
X118994600Y-73392100D02*
X122087500Y-76485000D01*
X124423600Y-105058000D02*
X123817300Y-107320700D01*
X83987500Y-15525000D02*
X78816000Y-20696500D01*
X123875800Y-55935000D02*
X123875800Y-56734300D01*
X21380900Y-61462900D02*
X21380900Y-74362100D01*
X83987500Y-72675000D02*
X85075100Y-72675000D01*
X118048900Y-23905800D02*
X118269300Y-24126300D01*
X141288300Y-52750000D02*
X141040600Y-52750000D01*
X78816000Y-20696500D02*
X68506300Y-20696500D01*
X141166100Y-56215200D02*
X140200900Y-55250000D01*
X136035500Y-24699700D02*
X137648700Y-26312900D01*
X26837500Y-20287500D02*
X21404600Y-25720400D01*
X118994600Y-71576800D02*
X118994600Y-73392100D01*
X57760700Y-73473400D02*
X58867300Y-74580000D01*
X24456300Y-58387500D02*
X21382800Y-55314000D01*
X46175800Y-19335000D02*
X46449700Y-19061100D01*
X106937500Y-73080000D02*
X104825800Y-73080000D01*
X45887500Y-76485000D02*
X47387500Y-74985000D01*
X123324700Y-36885000D02*
X125987500Y-36885000D01*
X66040300Y-60131200D02*
X64937500Y-59028400D01*
X106937500Y-15930000D02*
X104825800Y-15930000D01*
X129331500Y-96014100D02*
X126412600Y-93095200D01*
X143440800Y-107688400D02*
X142834500Y-109951100D01*
X126412600Y-89755300D02*
X122087500Y-85430200D01*
X87887500Y-71175000D02*
X85775800Y-71175000D01*
X123324700Y-36613000D02*
X123324700Y-36885000D01*
X106984100Y-20436100D02*
X109501400Y-22953400D01*
X42831700Y-25013800D02*
X42831700Y-35329200D01*
X80088400Y-51300400D02*
X80935800Y-50453000D01*
X103037500Y-36480000D02*
X104537500Y-34980000D01*
X123836200Y-19335000D02*
X122087500Y-19335000D01*
X103037500Y-55530000D02*
X102613600Y-55530000D01*
X21380900Y-74362100D02*
X24456300Y-77437500D01*
X66437500Y-17430000D02*
X64937500Y-17430000D01*
X103987100Y-73080000D02*
X104825800Y-73080000D01*
X64910800Y-20328000D02*
X64910800Y-18124100D01*
X25956300Y-56887500D02*
X28356300Y-56887500D01*
X104537500Y-34980000D02*
X106937500Y-34980000D01*
X77911800Y-59700700D02*
X74212600Y-59700700D01*
X141166100Y-57550100D02*
X141166100Y-56215200D01*
X66437500Y-16218300D02*
X66725800Y-15930000D01*
X104537500Y-54030000D02*
X106937500Y-54030000D01*
X118269300Y-31557600D02*
X123324700Y-36613000D01*
X104506700Y-16249100D02*
X104825800Y-15930000D01*
D24*
X45887500Y-57435000D02*
X45887500Y-61924200D01*
D25*
X124863100Y-111963600D02*
X124863100Y-109213300D01*
D24*
X143137700Y-110254200D02*
X143880300Y-110254200D01*
D25*
X66437500Y-54030000D02*
X64937500Y-55530000D01*
D24*
X97768600Y-32747400D02*
X93108300Y-37407700D01*
D25*
X126480700Y-62084000D02*
X136632200Y-62084000D01*
X71355900Y-62557400D02*
X68466500Y-62557400D01*
X58867300Y-74580000D02*
X61869600Y-74580000D01*
X33981300Y-96487500D02*
X24456300Y-86962500D01*
X85032000Y-34655500D02*
X85279000Y-34408500D01*
X106937500Y-72004500D02*
X106937500Y-73080000D01*
X122087500Y-38385000D02*
X123324700Y-38385000D01*
X126412600Y-93095200D02*
X126412600Y-89755300D01*
X80935800Y-37626700D02*
X83987500Y-34575000D01*
X61799900Y-33342400D02*
X61799900Y-23438900D01*
X150797400Y-65846500D02*
X150797400Y-69489700D01*
X151086700Y-69779000D02*
X151086700Y-74367200D01*
X66464200Y-17695800D02*
X66437500Y-17669100D01*
X21404600Y-25720400D02*
X21404600Y-36135500D01*
X104506700Y-17958700D02*
X106160800Y-19612800D01*
X80050200Y-68737700D02*
X83987500Y-72675000D01*
X142834600Y-109951100D02*
X143137700Y-110254200D01*
X66437500Y-17430000D02*
X66437500Y-16218300D01*
X102613600Y-55530000D02*
X99934500Y-58209100D01*
X99934500Y-58209100D02*
X99934500Y-68467800D01*
X87623100Y-75270100D02*
X87621600Y-75268600D01*
X151086700Y-74367200D02*
X149545400Y-75908500D01*
X137846900Y-117877100D02*
X130776600Y-117877100D01*
X49787500Y-17835000D02*
X47675800Y-17835000D01*
X49787500Y-55935000D02*
X47675800Y-55935000D01*
X136632200Y-62084000D02*
X141166100Y-57550100D01*
X142834500Y-109951100D02*
X142834600Y-109951100D01*
X64937500Y-36480000D02*
X61799900Y-33342400D01*
X23426400Y-38157300D02*
X23426400Y-39337500D01*
X104506700Y-17430000D02*
X103037500Y-17430000D01*
X103037500Y-17430000D02*
X102774700Y-17430000D01*
X149545400Y-75908500D02*
X142033500Y-75908500D01*
X85943000Y-98818300D02*
X66553000Y-98818300D01*
X61869600Y-74580000D02*
X64937500Y-74580000D01*
X118269300Y-24126300D02*
X118269300Y-31557600D01*
X83987500Y-53625000D02*
X85487500Y-52125000D01*
X68466500Y-62557400D02*
X66040300Y-60131200D01*
X125987500Y-74985000D02*
X123875800Y-74985000D01*
D24*
X99944600Y-32747400D02*
X97768600Y-32747400D01*
X140200900Y-55250000D02*
X140200900Y-53589700D01*
D25*
X104506700Y-17430000D02*
X104506700Y-17958700D01*
X85775800Y-33911700D02*
X85775800Y-33075000D01*
X25956300Y-37837500D02*
X24456300Y-39337500D01*
X83987500Y-34575000D02*
X84469500Y-34093000D01*
X28356300Y-37837500D02*
X25956300Y-37837500D01*
X102774700Y-17430000D02*
X99944600Y-20260100D01*
X117096400Y-22953400D02*
X118048900Y-23905800D01*
X123817400Y-107320700D02*
X124423600Y-107926900D01*
X125088800Y-109213300D02*
X129331500Y-104970600D01*
X125987500Y-17835000D02*
X123875800Y-17835000D01*
X45887500Y-19335000D02*
X46175800Y-19335000D01*
D24*
X89091300Y-37407700D02*
X88707400Y-37023800D01*
D25*
X103037500Y-74580000D02*
X102347400Y-75270100D01*
X85775800Y-71974300D02*
X85075100Y-72675000D01*
X104506700Y-17430000D02*
X104506700Y-16249100D01*
D24*
X140200900Y-53589700D02*
X140180600Y-53569400D01*
D25*
X122087500Y-57435000D02*
X123175100Y-57435000D01*
X66553000Y-98818300D02*
X64937500Y-97202800D01*
X143880300Y-111843700D02*
X137846900Y-117877100D01*
X118994600Y-60019600D02*
X118994600Y-71576800D01*
X24456300Y-58387500D02*
X21380900Y-61462900D01*
X78415500Y-52880600D02*
X79995700Y-51300400D01*
X65225800Y-74580000D02*
X64937500Y-74580000D01*
X61799900Y-23438900D02*
X50827500Y-23438900D01*
X36978500Y-99484700D02*
X48847400Y-99484700D01*
X23426400Y-39337500D02*
X24456300Y-39337500D01*
D24*
X85032000Y-34655500D02*
X84469500Y-34093000D01*
D25*
X102347400Y-75270100D02*
X87623100Y-75270100D01*
X68837500Y-15930000D02*
X66725800Y-15930000D01*
X123324700Y-37147800D02*
X123324700Y-36885000D01*
X87887500Y-33075000D02*
X85775800Y-33075000D01*
X24456300Y-77437500D02*
X25956300Y-75937500D01*
X61869600Y-64301900D02*
X66040300Y-60131200D01*
X58867300Y-89464800D02*
X58867300Y-74580000D01*
X123875800Y-56734300D02*
X123175100Y-57435000D01*
X106160800Y-19981100D02*
X106615800Y-20436100D01*
X140180600Y-53569400D02*
X139500000Y-54250000D01*
X87502300Y-75268600D02*
X85075100Y-72841400D01*
X142033500Y-75908500D02*
X139875000Y-73750000D01*
X48847400Y-99484700D02*
X58867300Y-89464800D01*
X122087500Y-85430200D02*
X122087500Y-76485000D01*
X45887500Y-19335000D02*
X42831700Y-22390800D01*
X24456300Y-58387500D02*
X25956300Y-56887500D01*
X65365800Y-17669100D02*
X66437500Y-17669100D01*
D24*
X43035800Y-64775900D02*
X43035800Y-70633300D01*
D25*
X122087500Y-19335000D02*
X122087500Y-19867200D01*
X80954800Y-56657700D02*
X78415500Y-54118500D01*
X45887500Y-38385000D02*
X47387500Y-36885000D01*
D24*
X123324700Y-38385000D02*
X123324700Y-37147800D01*
D25*
X103037500Y-74580000D02*
X103987100Y-73630400D01*
X33981300Y-96487500D02*
X36978500Y-99484700D01*
X125987500Y-55935000D02*
X123875800Y-55935000D01*
X66464200Y-18654400D02*
X66464200Y-17695800D01*
D24*
X141564100Y-57948100D02*
X142899000Y-57948100D01*
X141166100Y-57550100D02*
X141564100Y-57948100D01*
D25*
X46175800Y-57435000D02*
X45887500Y-57435000D01*
X50231700Y-73473400D02*
X57760700Y-73473400D01*
X68837500Y-54030000D02*
X66437500Y-54030000D01*
D24*
X87894200Y-37023800D02*
X85279000Y-34408500D01*
D25*
X79995700Y-51300400D02*
X80088400Y-51300400D01*
X85279000Y-34408500D02*
X85775800Y-33911700D01*
X78415500Y-54118500D02*
X78415500Y-52880600D01*
X64910800Y-18124100D02*
X65365800Y-17669100D01*
X141040600Y-52750000D02*
X140200900Y-53589700D01*
X103987100Y-73630400D02*
X103987100Y-73080000D01*
D24*
X43035800Y-70633300D02*
X47387500Y-74985000D01*
D25*
X74212600Y-59700700D02*
X71355900Y-62557400D01*
X42831700Y-22390800D02*
X42831700Y-25013800D01*
X83987500Y-53625000D02*
X80954800Y-56657700D01*
X123875800Y-74985000D02*
X123587500Y-74985000D01*
X150797400Y-69489700D02*
X151086700Y-69779000D01*
X61799900Y-23438900D02*
X64910800Y-20328000D01*
X68837500Y-73080000D02*
X66725800Y-73080000D01*
X25956300Y-75937500D02*
X28356300Y-75937500D01*
X80954800Y-56657700D02*
X77911800Y-59700700D01*
X124423600Y-107926900D02*
X124423600Y-108773800D01*
X99934500Y-68467800D02*
X103987100Y-72520400D01*
X47675800Y-55935000D02*
X46175800Y-57435000D01*
X83987500Y-15525000D02*
X85487500Y-14025000D01*
X122087500Y-19867200D02*
X118048900Y-23905800D01*
X103987100Y-72520400D02*
X103987100Y-73080000D01*
X128611300Y-24699700D02*
X136035500Y-24699700D01*
X85487500Y-52125000D02*
X87887500Y-52125000D01*
X109501400Y-22953400D02*
X117096400Y-22953400D01*
X26837500Y-20287500D02*
X27125800Y-20287500D01*
X143880300Y-110254200D02*
X143880300Y-111843700D01*
X64937500Y-97202800D02*
X64937500Y-95535000D01*
X50827500Y-23438900D02*
X46449700Y-19061100D01*
D24*
X45887500Y-61924200D02*
X43035800Y-64775900D01*
D25*
X80935800Y-50453000D02*
X80935800Y-37626700D01*
X68506300Y-20696500D02*
X66464200Y-18654400D01*
X99944600Y-33387100D02*
X103037500Y-36480000D01*
D24*
X88707400Y-37023800D02*
X87894200Y-37023800D01*
D25*
X106615800Y-20436100D02*
X106984100Y-20436100D01*
X124423600Y-108773800D02*
X124863100Y-109213300D01*
X64937500Y-95535000D02*
X66437500Y-94035000D01*
X27125800Y-20287500D02*
X28625800Y-18787500D01*
X33981300Y-96487500D02*
X35481300Y-94987500D01*
X103037500Y-55530000D02*
X104537500Y-54030000D01*
X122087500Y-57435000D02*
X121579200Y-57435000D01*
D24*
X93108300Y-37407700D02*
X89091300Y-37407700D01*
D25*
X31812100Y-25013800D02*
X27125800Y-20327500D01*
X35481300Y-94987500D02*
X37881300Y-94987500D01*
X21382800Y-41381100D02*
X23426400Y-39337500D01*
X123875800Y-17835000D02*
X123875800Y-19295400D01*
X64937500Y-36480000D02*
X66437500Y-34980000D01*
X123817300Y-107320700D02*
X123817400Y-107320700D01*
X85775800Y-71175000D02*
X85775800Y-71974300D01*
X121579200Y-57435000D02*
X118994600Y-60019600D01*
X129331500Y-104970600D02*
X129331500Y-96014100D01*
X47387500Y-36885000D02*
X49787500Y-36885000D01*
X80050200Y-61839100D02*
X80050200Y-68737700D01*
X66437500Y-94035000D02*
X68837500Y-94035000D01*
X42831700Y-35329200D02*
X45887500Y-38385000D01*
X61869600Y-74580000D02*
X61869600Y-64301900D01*
X42831700Y-25013800D02*
X31812100Y-25013800D01*
X66437500Y-17669100D02*
X66437500Y-17430000D01*
X123587500Y-74985000D02*
X122087500Y-76485000D01*
X66725800Y-73080000D02*
X65225800Y-74580000D01*
X123875800Y-19295400D02*
X123836200Y-19335000D01*
X64937500Y-95535000D02*
X58867300Y-89464800D01*
X49787500Y-74985000D02*
X49787500Y-73917600D01*
X123836200Y-19924600D02*
X128611300Y-24699700D01*
X49787500Y-73917600D02*
X50231700Y-73473400D01*
X27125800Y-20327500D02*
X27125800Y-20287500D01*
X21382800Y-55314000D02*
X21382800Y-41381100D01*
X66437500Y-34980000D02*
X68837500Y-34980000D01*
X64937500Y-59028400D02*
X64937500Y-55530000D01*
X123175100Y-57435000D02*
X123175100Y-58778400D01*
X118994600Y-71576800D02*
X107365200Y-71576800D01*
D24*
X142899000Y-57948100D02*
X150797400Y-65846500D01*
D25*
X123836200Y-19335000D02*
X123836200Y-19924600D01*
X141375000Y-72250000D02*
X143775000Y-72250000D01*
X124863100Y-109213300D02*
X125088800Y-109213300D01*
X139875000Y-73750000D02*
X141375000Y-72250000D01*
X77911800Y-59700700D02*
X80050200Y-61839100D01*
X87621600Y-75268600D02*
X87502300Y-75268600D01*
X91131300Y-93630000D02*
X85943000Y-98818300D01*
%TO.N,/matrix/SW15_A*%
D23*
X79000000Y-31473300D02*
X80413000Y-30060300D01*
X79000000Y-32200000D02*
X79000000Y-31473300D01*
X80413000Y-30060300D02*
X80413000Y-29647100D01*
X77137500Y-25360000D02*
X77137500Y-27355100D01*
%TO.N,/matrix/SW53_A*%
X106500000Y-92350000D02*
X105093700Y-92350000D01*
X101060800Y-88317100D02*
X101060800Y-84780500D01*
X101060800Y-84780500D02*
X103331300Y-82510000D01*
X105093700Y-92350000D02*
X101060800Y-88317100D01*
%TO.N,/power/RGB_SW_LEFT*%
D24*
X151171100Y-33997900D02*
X147587200Y-37581800D01*
X151171100Y-33800000D02*
X151171100Y-33997900D01*
%TO.N,/matrix/SW16_A*%
D23*
X112967000Y-27630500D02*
X115237500Y-25360000D01*
X116000000Y-37200000D02*
X116000000Y-35814400D01*
X112967000Y-32781400D02*
X112967000Y-27630500D01*
X116000000Y-35814400D02*
X112967000Y-32781400D01*
%TO.N,/power/RGB_FB_LEFT*%
X145287500Y-35795200D02*
X145287500Y-37854400D01*
X145287500Y-37854400D02*
X147875800Y-40442700D01*
X147875800Y-40442700D02*
X148179800Y-40442700D01*
%TO.N,/matrix/SW54_A*%
X77137500Y-84415000D02*
X77137500Y-86191700D01*
X82500000Y-88350000D02*
X82500000Y-87623300D01*
X82500000Y-87623300D02*
X78569100Y-87623300D01*
X78569100Y-87623300D02*
X77137500Y-86191700D01*
%TO.N,/matrix/SW3_A*%
X79500000Y-10449200D02*
X77137500Y-8086700D01*
X77137500Y-6310000D02*
X77137500Y-8086700D01*
X79500000Y-12700000D02*
X79500000Y-10449200D01*
%TO.N,/RGB_DATA_SHIFTED_LEFT*%
X130984700Y-35031700D02*
X132026100Y-35031700D01*
X132026100Y-35031700D02*
X135635700Y-38641300D01*
X93087500Y-19547500D02*
X90736500Y-21898500D01*
X93087500Y-15525000D02*
X93087500Y-19547500D01*
X138294600Y-38641300D02*
X138577600Y-38358300D01*
X105505200Y-32453000D02*
X106521800Y-33469600D01*
X135635700Y-38641300D02*
X138294600Y-38641300D01*
%TO.N,/matrix/SW40_A*%
X98000000Y-65144200D02*
X96187500Y-63331700D01*
X96187500Y-61555000D02*
X96187500Y-63331700D01*
X98000000Y-68700000D02*
X98000000Y-65144200D01*
%TO.N,/matrix/SW44_A*%
X117500000Y-70200000D02*
X117500000Y-67499200D01*
X117500000Y-67499200D02*
X115237500Y-65236700D01*
X115237500Y-63460000D02*
X115237500Y-65236700D01*
%TO.N,/matrix/SW58_A*%
X124383500Y-91397000D02*
X124134700Y-91645800D01*
X125312400Y-91645800D02*
X124383500Y-91396900D01*
X117279600Y-94551000D02*
X118018000Y-91795300D01*
X124383500Y-91396900D02*
X124383500Y-91397000D01*
X120184800Y-91645800D02*
X120035300Y-91795300D01*
X120035300Y-91795300D02*
X118018000Y-91795300D01*
X124134700Y-91645800D02*
X120184800Y-91645800D01*
%TO.N,/matrix/SW34_A*%
D24*
X137000000Y-56700000D02*
X137000000Y-50779200D01*
X134287500Y-46315000D02*
X134287500Y-48066700D01*
X137000000Y-50779200D02*
X134287500Y-48066700D01*
%TO.N,/matrix/SW20_A*%
D23*
X134287500Y-28875300D02*
X137000000Y-31587800D01*
X137000000Y-31587800D02*
X137000000Y-37850000D01*
X134287500Y-27265000D02*
X134287500Y-28875300D01*
%TO.N,/matrix/SW29_A*%
X79500000Y-50200000D02*
X79500000Y-48549200D01*
X77137500Y-44410000D02*
X77137500Y-46186700D01*
X79500000Y-48549200D02*
X77137500Y-46186700D01*
%TO.N,/matrix/SW19_A*%
X58087500Y-27265000D02*
X58087500Y-29041700D01*
X58087500Y-29041700D02*
X61037500Y-31991700D01*
X61037500Y-31991700D02*
X61037500Y-36700000D01*
%TO.N,/matrix/SW59_A*%
X139816800Y-91726200D02*
X139325000Y-92218000D01*
X139325000Y-92220200D02*
X137060900Y-94484300D01*
X140187600Y-83854100D02*
X139910300Y-84889100D01*
X139910300Y-89101800D02*
X139908800Y-89103300D01*
X139816800Y-91724000D02*
X139816800Y-91726200D01*
X139908800Y-91632000D02*
X139816800Y-91724000D01*
X136309600Y-97288300D02*
X137060900Y-94484300D01*
X139910300Y-84889100D02*
X139910300Y-89101800D01*
X139908800Y-89103300D02*
X139908800Y-91632000D01*
X139325000Y-92218000D02*
X139325000Y-92220200D01*
%TO.N,/matrix/SW43_A*%
X77137500Y-63460000D02*
X77137500Y-65236700D01*
X79000000Y-67099200D02*
X77137500Y-65236700D01*
X79000000Y-71200000D02*
X79000000Y-67099200D01*
%TO.N,/matrix/SW51_A*%
X40000000Y-71437900D02*
X36656300Y-68094200D01*
X40000000Y-74850000D02*
X40000000Y-71437900D01*
X36656300Y-66317500D02*
X36656300Y-68094200D01*
%TO.N,/matrix/SW7_A*%
X58087500Y-8215000D02*
X58087500Y-11118300D01*
X58087500Y-11118300D02*
X62284800Y-15315600D01*
X62050600Y-16700000D02*
X61000000Y-16700000D01*
X62859900Y-15890700D02*
X62050600Y-16700000D01*
%TO.N,/matrix/SW11_A*%
X39500000Y-20700000D02*
X39500000Y-19973300D01*
X39500000Y-19973300D02*
X40789500Y-18683800D01*
X39037500Y-10944200D02*
X40750200Y-12656900D01*
X40750200Y-12656900D02*
X40750200Y-17421200D01*
X40789500Y-18683800D02*
X40789500Y-18669300D01*
X39037500Y-9167500D02*
X39037500Y-10944200D01*
%TO.N,/matrix/SW13_A*%
X98500000Y-30200000D02*
X98500000Y-27544200D01*
X98500000Y-27544200D02*
X96187500Y-25231700D01*
X96187500Y-23455000D02*
X96187500Y-25231700D01*
%TO.N,/matrix/SW48_A*%
X136110800Y-72784400D02*
X134954900Y-73940300D01*
X135535300Y-68389500D02*
X135535300Y-72208900D01*
X137000000Y-75700000D02*
X137000000Y-77931200D01*
X134287500Y-65365000D02*
X134287500Y-67141700D01*
X134287500Y-67141700D02*
X135535300Y-68389500D01*
X134954900Y-73940300D02*
X134954900Y-77931200D01*
%TO.N,/matrix/SW47_A*%
X58087500Y-65365000D02*
X58087500Y-67141700D01*
X60000000Y-69054200D02*
X58087500Y-67141700D01*
X60000000Y-72200000D02*
X60000000Y-69054200D01*
%TO.N,/matrix/SW25_A*%
X98500000Y-46594200D02*
X96187500Y-44281700D01*
X98500000Y-48700000D02*
X98500000Y-46594200D01*
X96187500Y-42505000D02*
X96187500Y-44281700D01*
%TO.N,/matrix/SW8_A*%
X134287500Y-8215000D02*
X134287500Y-9991700D01*
X134287500Y-9991700D02*
X137000000Y-12704200D01*
X137000000Y-12704200D02*
X137000000Y-18700000D01*
%TO.N,/matrix/SW30_A*%
X115237500Y-44410000D02*
X115237500Y-46186700D01*
X117500000Y-48449200D02*
X115237500Y-46186700D01*
X117500000Y-51700000D02*
X117500000Y-48449200D01*
%TO.N,/rgb/RGB_LED_left_16*%
X131187500Y-57435000D02*
X133124200Y-57435000D01*
X49787500Y-57435000D02*
X49787500Y-58944200D01*
X133124200Y-57435000D02*
X133124200Y-59493200D01*
%TO.N,/rgb/RGB_LED_left_17*%
X125987500Y-57435000D02*
X125987500Y-60492300D01*
X33556300Y-58387500D02*
X35493000Y-58387500D01*
X56601200Y-60265200D02*
X55517000Y-60265200D01*
X55517000Y-60265200D02*
X55389600Y-60392600D01*
X35493000Y-58387500D02*
X35493000Y-60392600D01*
%TO.N,/rgb/RGB_LED_left_14*%
X68837500Y-55530000D02*
X68837500Y-61751900D01*
X112137500Y-55530000D02*
X112137500Y-59732900D01*
%TO.N,/rgb/RGB_LED_left_15*%
X56924200Y-57435000D02*
X57318200Y-57829000D01*
X57318200Y-57829000D02*
X57318200Y-61150200D01*
X106937500Y-55530000D02*
X106937500Y-59532900D01*
X54987500Y-57435000D02*
X56924200Y-57435000D01*
%TO.N,/rgb/RGB_LED_left_23*%
X131187500Y-76485000D02*
X131187500Y-79742000D01*
X49787500Y-76485000D02*
X49787500Y-79742000D01*
%TO.N,/rgb/RGB_LED_left_24*%
X33556300Y-77437500D02*
X35493000Y-77437500D01*
X122981600Y-77554200D02*
X122981600Y-77953600D01*
X124050800Y-76485000D02*
X122981600Y-77554200D01*
X35493000Y-78133600D02*
X35563500Y-78204100D01*
X35493000Y-77437500D02*
X35493000Y-78133600D01*
X125987500Y-76485000D02*
X124050800Y-76485000D01*
%TO.N,/rgb/RGB_LED_left_13*%
X142057300Y-57371400D02*
X142057300Y-55382200D01*
X143400000Y-54250000D02*
X141463300Y-54250000D01*
X74037500Y-55530000D02*
X75974200Y-55530000D01*
X142057300Y-55382200D02*
X141463300Y-54788200D01*
X75974200Y-55530000D02*
X75974200Y-57911100D01*
X141463300Y-54788200D02*
X141463300Y-54250000D01*
%TO.N,/rgb/RGB_LED_left_4*%
X37874200Y-21031400D02*
X37726100Y-21179500D01*
X37874200Y-20287500D02*
X37874200Y-21031400D01*
X35937500Y-20287500D02*
X37874200Y-20287500D01*
X125987500Y-19335000D02*
X125987500Y-20698800D01*
%TO.N,/rgb/RGB_LED_left_5*%
X30737500Y-20287500D02*
X30737500Y-22819500D01*
X93087500Y-35415100D02*
X93087500Y-34575000D01*
X91678000Y-36824600D02*
X93087500Y-35415100D01*
%TO.N,/rgb/RGB_LED_left_3*%
X131187500Y-19335000D02*
X131187500Y-21304600D01*
X49787500Y-21295800D02*
X49796300Y-21304600D01*
X49787500Y-19335000D02*
X49787500Y-21295800D01*
%TO.N,/rgb/RGB_LED_left_12*%
X148600000Y-54250000D02*
X148600000Y-56769700D01*
X87887500Y-53625000D02*
X87887500Y-57102400D01*
%TO.N,/rgb/RGB_LED_left_19*%
X87887500Y-72675000D02*
X87887500Y-74491800D01*
X148975000Y-73750000D02*
X148975000Y-75098600D01*
%TO.N,/rgb/RGB_LED_left_20*%
X74037500Y-74580000D02*
X74037500Y-76089800D01*
X141640200Y-73750000D02*
X141602400Y-73787800D01*
X143775000Y-73750000D02*
X141640200Y-73750000D01*
%TO.N,/rgb/RGB_LED_left_18*%
X28075100Y-58668700D02*
X28075100Y-60745400D01*
X28356300Y-58387500D02*
X28075100Y-58668700D01*
X93087500Y-72675000D02*
X93087500Y-74331200D01*
%TO.N,/rgb/RGB_LED_left_6*%
X75974200Y-36480000D02*
X75974200Y-34350200D01*
X75974200Y-34350200D02*
X77186800Y-33137600D01*
X74037500Y-36480000D02*
X75974200Y-36480000D01*
X87887500Y-34575000D02*
X87887500Y-35476700D01*
%TO.N,/rgb/RGB_LED_left_25*%
X28356300Y-89090800D02*
X32401900Y-93136400D01*
X100231300Y-93630000D02*
X100231300Y-96102000D01*
X28356300Y-77437500D02*
X28356300Y-89090800D01*
%TO.N,/rgb/RGB_LED_left_1*%
X114074200Y-17430000D02*
X114074200Y-20299700D01*
X68837500Y-17430000D02*
X68837500Y-19895900D01*
X112137500Y-17430000D02*
X114074200Y-17430000D01*
%TO.N,/rgb/RGB_LED_left_2*%
X106937500Y-17430000D02*
X106937500Y-19659400D01*
X54987500Y-19335000D02*
X56924200Y-19335000D01*
X56924200Y-19335000D02*
X57082000Y-19335000D01*
X57082000Y-19335000D02*
X57130300Y-19286700D01*
%TO.N,/rgb/RGB_LED_left_10*%
X34578900Y-40360000D02*
X34578900Y-40360100D01*
X35493000Y-39337500D02*
X35493000Y-39938400D01*
X125987500Y-38385000D02*
X125987500Y-39992600D01*
X33556300Y-39337500D02*
X35493000Y-39337500D01*
X35493000Y-39938400D02*
X35071400Y-40360000D01*
X35071400Y-40360000D02*
X34578900Y-40360000D01*
%TO.N,/rgb/RGB_LED_left_11*%
X93087500Y-53625000D02*
X93087500Y-55133300D01*
X28356300Y-39337500D02*
X28356300Y-44009100D01*
%TO.N,/rgb/RGB_LED_left_7*%
X114074200Y-36480000D02*
X114074200Y-39225000D01*
X68837500Y-36480000D02*
X68837500Y-39225000D01*
X112137500Y-36480000D02*
X114074200Y-36480000D01*
%TO.N,/rgb/RGB_LED_left_8*%
X106937500Y-36480000D02*
X105000800Y-36480000D01*
X56924200Y-38385000D02*
X56924200Y-38245500D01*
X56924200Y-38245500D02*
X57282600Y-37887100D01*
X105000800Y-36480000D02*
X105000800Y-38608300D01*
X54987500Y-38385000D02*
X56924200Y-38385000D01*
%TO.N,/rgb/RGB_LED_left_21*%
X68837500Y-74580000D02*
X68837500Y-76697100D01*
X112137500Y-74580000D02*
X114074200Y-74580000D01*
X114074200Y-74580000D02*
X114074200Y-76697100D01*
%TO.N,/rgb/RGB_LED_left_9*%
X131187500Y-38385000D02*
X131187500Y-39534100D01*
X49787500Y-38385000D02*
X49787500Y-39738500D01*
X131187500Y-39534100D02*
X130984700Y-39736900D01*
%TO.N,/rgb/RGB_LED_left_29*%
X125323600Y-107494800D02*
X125363600Y-107494800D01*
X147325900Y-103851200D02*
X147325900Y-108186200D01*
X125363600Y-107494800D02*
X125536200Y-107667400D01*
X125872500Y-105446200D02*
X125323600Y-107494800D01*
X147325900Y-108186200D02*
X145019600Y-110492500D01*
X146235600Y-103053800D02*
X146528500Y-103053800D01*
X146528500Y-103053800D02*
X147325900Y-103851200D01*
%TO.N,/rgb/RGB_LED_left_26*%
X74037500Y-95535000D02*
X75974200Y-95535000D01*
X95031300Y-93630000D02*
X93094600Y-93630000D01*
X93094600Y-93630000D02*
X93094600Y-93599800D01*
X93094600Y-93599800D02*
X92687400Y-93192600D01*
X75974200Y-95535000D02*
X75974200Y-92641600D01*
%TO.N,/rgb/RGB_LED_left_0*%
X85950800Y-15525000D02*
X85950800Y-15563400D01*
X87887500Y-15525000D02*
X85950800Y-15525000D01*
X75974200Y-17430000D02*
X75974200Y-16976300D01*
X85950800Y-15563400D02*
X85698500Y-15815700D01*
X74037500Y-17430000D02*
X75974200Y-17430000D01*
X75974200Y-16976300D02*
X77134800Y-15815700D01*
%TO.N,/rgb/RGB_LED_left_22*%
X105000800Y-74580000D02*
X105000800Y-78835800D01*
X106937500Y-74580000D02*
X105000800Y-74580000D01*
X56924200Y-76485000D02*
X56924200Y-78835800D01*
X54987500Y-76485000D02*
X56924200Y-76485000D01*
%TO.N,/rgb/RGB_LED_left_28*%
X37881300Y-96487500D02*
X37881300Y-98696800D01*
X128516600Y-98716900D02*
X128516600Y-98718500D01*
X128027400Y-98374900D02*
X128369400Y-98716900D01*
X128369400Y-98716900D02*
X128516600Y-98716900D01*
X127767300Y-98374900D02*
X128027400Y-98374900D01*
X127218400Y-100423400D02*
X127767300Y-98374900D01*
%TO.N,/rgb/RGB_LED_left_27*%
X68837500Y-95535000D02*
X66900800Y-95535000D01*
X66900800Y-95535000D02*
X66900800Y-98039600D01*
X43081300Y-96487500D02*
X43081300Y-98039600D01*
%TD*%
M02*
