M48
; DRILL file KiCad 10.0.5 date 2026-09-22T23:22:28
; FORMAT={-:-/ absolute / metric / decimal}
; #@! TF.CreationDate,2026-09-22T23:22:28+09:00
; #@! TF.GenerationSoftware,Kicad,Pcbnew,10.0.5
; #@! TF.FileFunction,MixedPlating,1,2
FMAT,2
METRIC
; #@! TA.AperFunction,Plated,PTH,ViaDrill
T1C0.300
; #@! TA.AperFunction,Plated,PTH,ComponentDrill
T2C0.750
; #@! TA.AperFunction,NonPlated,NPTH,ComponentDrill
T3C0.850
; #@! TA.AperFunction,NonPlated,NPTH,ComponentDrill
T4C1.800
; #@! TA.AperFunction,NonPlated,NPTH,ComponentDrill
T5C2.000
; #@! TA.AperFunction,NonPlated,NPTH,ComponentDrill
T6C2.200
; #@! TA.AperFunction,NonPlated,NPTH,ComponentDrill
T7C3.000
; #@! TA.AperFunction,NonPlated,NPTH,ComponentDrill
T8C3.050
; #@! TA.AperFunction,NonPlated,NPTH,ComponentDrill
T9C4.000
%
G90
G05
T1
X24.783Y-23.46
X25.875Y-58.068
X26.022Y-19.595
X26.493Y-43.232
X28.075Y-60.745
X28.356Y-44.009
X30.737Y-22.819
X32.402Y-93.136
X34.579Y-40.36
X35.493Y-60.393
X35.563Y-78.204
X37.726Y-21.179
X37.881Y-98.697
X39.343Y-51.83
X40.603Y-24.236
X40.75Y-17.421
X40.789Y-18.669
X41.0Y-51.83
X41.576Y-78.8
X42.485Y-59.483
X43.081Y-98.04
X45.387Y-16.216
X45.387Y-25.366
X47.892Y-73.688
X49.787Y-39.738
X49.787Y-58.944
X49.787Y-79.742
X49.796Y-21.305
X50.433Y-44.009
X52.0Y-92.248
X55.39Y-60.393
X56.601Y-60.265
X56.924Y-78.836
X57.13Y-19.287
X57.283Y-37.887
X57.318Y-61.15
X58.087Y-49.548
X60.5Y-59.546
X60.902Y-41.319
X60.93Y-50.953
X62.285Y-15.316
X62.86Y-15.891
X63.837Y-44.6
X63.996Y-17.486
X64.037Y-34.5
X64.037Y-38.0
X64.115Y-77.003
X64.438Y-43.232
X64.438Y-63.182
X65.237Y-51.7
X65.237Y-52.9
X65.688Y-18.446
X66.901Y-98.04
X68.837Y-19.896
X68.837Y-39.225
X68.837Y-61.752
X68.837Y-76.697
X74.037Y-76.09
X75.974Y-57.911
X75.974Y-92.642
X77.135Y-15.816
X77.138Y-27.355
X77.187Y-33.138
X78.933Y-77.325
X79.0Y-37.197
X79.5Y-18.083
X80.413Y-29.647
X80.837Y-61.9
X81.037Y-57.6
X82.5Y-90.417
X83.438Y-64.1
X83.487Y-37.586
X83.487Y-47.022
X84.949Y-71.624
X85.698Y-15.816
X87.888Y-35.477
X87.888Y-57.102
X87.888Y-74.492
X88.093Y-17.371
X88.093Y-22.401
X90.631Y-82.373
X90.736Y-21.898
X91.678Y-36.825
X92.687Y-93.193
X93.087Y-55.133
X93.087Y-74.331
X93.983Y-67.983
X98.5Y-37.818
X98.5Y-52.951
X99.0Y-18.083
X100.231Y-96.102
X100.75Y-31.971
X101.994Y-90.417
X102.537Y-10.834
X102.556Y-56.686
X102.942Y-18.365
X105.001Y-38.608
X105.001Y-78.836
X105.194Y-71.783
X105.505Y-32.453
X106.522Y-33.47
X106.938Y-19.659
X106.938Y-59.533
X112.137Y-59.733
X113.581Y-100.663
X114.074Y-20.3
X114.074Y-39.225
X114.074Y-76.697
X114.891Y-52.394
X114.998Y-93.998
X115.595Y-100.663
X116.0Y-41.608
X117.5Y-76.329
X117.873Y-72.371
X118.377Y-85.882
X118.608Y-12.002
X118.945Y-47.715
X121.587Y-23.253
X121.623Y-58.49
X122.982Y-77.954
X125.536Y-107.667
X125.987Y-20.699
X125.987Y-39.993
X125.987Y-60.492
X128.223Y-93.763
X128.517Y-98.718
X130.985Y-35.032
X130.985Y-39.737
X131.188Y-21.305
X131.188Y-79.742
X133.124Y-59.493
X134.955Y-77.931
X135.535Y-72.209
X135.569Y-61.286
X135.908Y-78.914
X135.921Y-103.996
X136.111Y-72.784
X136.869Y-45.1
X137.0Y-77.931
X137.649Y-32.029
X138.578Y-38.358
X138.862Y-6.527
X139.702Y-75.809
X139.947Y-29.911
X141.068Y-7.797
X141.602Y-73.788
X142.057Y-57.371
X143.753Y-34.985
X144.422Y-17.648
X145.02Y-110.492
X145.287Y-35.795
X146.118Y-35.87
X147.274Y-38.99
X147.587Y-37.582
X148.18Y-40.443
X148.6Y-56.77
X148.975Y-75.099
X151.171Y-33.8
X151.734Y-28.905
X151.734Y-31.953
X153.404Y-35.289
X155.599Y-14.989
T2
X141.5Y-30.55
X143.5Y-30.55
T3
X157.0Y-28.987
X157.0Y-31.987
T4
X138.452Y-108.919
X141.082Y-99.105
T5
X25.876Y-33.337
X25.876Y-52.387
X25.876Y-71.438
X28.258Y-14.287
X35.401Y-90.487
X36.036Y-33.337
X36.036Y-52.387
X36.036Y-71.438
X38.417Y-14.287
X45.561Y-90.487
X47.307Y-13.335
X47.307Y-32.385
X47.307Y-51.435
X47.307Y-70.485
X57.467Y-13.335
X57.467Y-32.385
X57.467Y-51.435
X57.467Y-70.485
X66.358Y-11.43
X66.358Y-30.48
X66.358Y-49.53
X66.358Y-68.58
X66.358Y-89.535
X76.517Y-11.43
X76.517Y-30.48
X76.517Y-49.53
X76.517Y-68.58
X76.517Y-89.535
X85.407Y-9.525
X85.407Y-28.575
X85.407Y-47.625
X85.407Y-66.675
X92.551Y-87.63
X95.567Y-9.525
X95.567Y-28.575
X95.567Y-47.625
X95.567Y-66.675
X102.711Y-87.63
X104.457Y-11.43
X104.457Y-30.48
X104.457Y-49.53
X104.457Y-68.58
X114.617Y-11.43
X114.617Y-30.48
X114.617Y-49.53
X114.617Y-68.58
X119.435Y-106.289
X122.065Y-96.475
X123.507Y-13.335
X123.507Y-32.385
X123.507Y-51.435
X123.507Y-70.485
X133.667Y-13.335
X133.667Y-32.385
X133.667Y-51.435
X133.667Y-70.485
X142.558Y-47.625
X142.558Y-66.675
X152.718Y-47.625
X152.718Y-66.675
T6
X21.15Y-38.608
X82.65Y-96.007
X148.25Y-26.307
T7
X27.146Y-30.797
X27.146Y-49.847
X27.146Y-68.897
X29.527Y-11.747
X33.496Y-28.258
X33.496Y-47.307
X33.496Y-66.358
X35.877Y-9.207
X36.671Y-87.947
X43.021Y-85.407
X48.578Y-10.795
X48.578Y-29.845
X48.578Y-48.895
X48.578Y-67.945
X54.927Y-8.255
X54.927Y-27.305
X54.927Y-46.355
X54.927Y-65.405
X67.627Y-8.89
X67.627Y-27.94
X67.627Y-46.99
X67.627Y-66.04
X67.627Y-86.995
X73.977Y-6.35
X73.977Y-25.4
X73.977Y-44.45
X73.977Y-63.5
X73.977Y-84.455
X86.677Y-6.985
X86.677Y-26.035
X86.677Y-45.085
X86.677Y-64.135
X93.027Y-4.445
X93.027Y-23.495
X93.027Y-42.545
X93.027Y-61.595
X93.821Y-85.09
X100.171Y-82.55
X105.727Y-8.89
X105.727Y-27.94
X105.727Y-46.99
X105.727Y-66.04
X112.078Y-6.35
X112.078Y-25.4
X112.078Y-44.45
X112.078Y-63.5
X116.5Y-97.614
X117.31Y-104.405
X124.777Y-10.795
X124.777Y-29.845
X124.777Y-48.895
X124.777Y-67.945
X131.127Y-8.255
X131.127Y-27.305
X131.127Y-46.355
X131.127Y-65.405
X135.518Y-100.244
X136.328Y-107.035
X136.677Y-115.543
X142.857Y-92.481
X143.827Y-45.085
X143.827Y-64.135
X150.177Y-42.545
X150.177Y-61.595
T8
X129.926Y-113.695
X136.086Y-90.706
T9
X30.956Y-33.337
X30.956Y-52.387
X30.956Y-71.438
X33.337Y-14.287
X40.481Y-90.487
X52.387Y-13.335
X52.387Y-32.385
X52.387Y-51.435
X52.387Y-70.485
X71.438Y-11.43
X71.438Y-30.48
X71.438Y-49.53
X71.438Y-68.58
X71.438Y-89.535
X90.487Y-9.525
X90.487Y-28.575
X90.487Y-47.625
X90.487Y-66.675
X97.631Y-87.63
X109.537Y-11.43
X109.537Y-30.48
X109.537Y-49.53
X109.537Y-68.58
X120.75Y-101.382
X128.588Y-13.335
X128.588Y-32.385
X128.588Y-51.435
X128.588Y-70.485
X139.767Y-104.012
X144.646Y-117.639
X147.637Y-47.625
X147.637Y-66.675
X150.806Y-94.65
M30
