%TF.GenerationSoftware,KiCad,Pcbnew,10.0.5*%
%TF.CreationDate,2026-09-22T23:22:17+09:00*%
%TF.ProjectId,keyboard,6b657962-6f61-4726-942e-6b696361645f,rev?*%
%TF.SameCoordinates,Original*%
%TF.FileFunction,Legend,Bot*%
%TF.FilePolarity,Positive*%
%FSLAX46Y46*%
G04 Gerber Fmt 4.6, Leading zero omitted, Abs format (unit mm)*
G04 Created by KiCad (PCBNEW 10.0.5) date 2026-09-22 23:22:17*
%MOMM*%
%LPD*%
G01*
G04 APERTURE LIST*
%ADD10C,0.150000*%
%ADD11C,0.120000*%
%ADD12C,0.200000*%
%ADD13C,0.100000*%
G04 APERTURE END LIST*
D10*
X149447023Y-57562200D02*
X149304166Y-57609819D01*
X149304166Y-57609819D02*
X149066071Y-57609819D01*
X149066071Y-57609819D02*
X148970833Y-57562200D01*
X148970833Y-57562200D02*
X148923214Y-57514580D01*
X148923214Y-57514580D02*
X148875595Y-57419342D01*
X148875595Y-57419342D02*
X148875595Y-57324104D01*
X148875595Y-57324104D02*
X148923214Y-57228866D01*
X148923214Y-57228866D02*
X148970833Y-57181247D01*
X148970833Y-57181247D02*
X149066071Y-57133628D01*
X149066071Y-57133628D02*
X149256547Y-57086009D01*
X149256547Y-57086009D02*
X149351785Y-57038390D01*
X149351785Y-57038390D02*
X149399404Y-56990771D01*
X149399404Y-56990771D02*
X149447023Y-56895533D01*
X149447023Y-56895533D02*
X149447023Y-56800295D01*
X149447023Y-56800295D02*
X149399404Y-56705057D01*
X149399404Y-56705057D02*
X149351785Y-56657438D01*
X149351785Y-56657438D02*
X149256547Y-56609819D01*
X149256547Y-56609819D02*
X149018452Y-56609819D01*
X149018452Y-56609819D02*
X148875595Y-56657438D01*
X148542261Y-56609819D02*
X148304166Y-57609819D01*
X148304166Y-57609819D02*
X148113690Y-56895533D01*
X148113690Y-56895533D02*
X147923214Y-57609819D01*
X147923214Y-57609819D02*
X147685119Y-56609819D01*
X146875595Y-56943152D02*
X146875595Y-57609819D01*
X147113690Y-56562200D02*
X147351785Y-57276485D01*
X147351785Y-57276485D02*
X146732738Y-57276485D01*
X145827976Y-57609819D02*
X146399404Y-57609819D01*
X146113690Y-57609819D02*
X146113690Y-56609819D01*
X146113690Y-56609819D02*
X146208928Y-56752676D01*
X146208928Y-56752676D02*
X146304166Y-56847914D01*
X146304166Y-56847914D02*
X146399404Y-56895533D01*
X110870832Y-2317200D02*
X110727975Y-2364819D01*
X110727975Y-2364819D02*
X110489880Y-2364819D01*
X110489880Y-2364819D02*
X110394642Y-2317200D01*
X110394642Y-2317200D02*
X110347023Y-2269580D01*
X110347023Y-2269580D02*
X110299404Y-2174342D01*
X110299404Y-2174342D02*
X110299404Y-2079104D01*
X110299404Y-2079104D02*
X110347023Y-1983866D01*
X110347023Y-1983866D02*
X110394642Y-1936247D01*
X110394642Y-1936247D02*
X110489880Y-1888628D01*
X110489880Y-1888628D02*
X110680356Y-1841009D01*
X110680356Y-1841009D02*
X110775594Y-1793390D01*
X110775594Y-1793390D02*
X110823213Y-1745771D01*
X110823213Y-1745771D02*
X110870832Y-1650533D01*
X110870832Y-1650533D02*
X110870832Y-1555295D01*
X110870832Y-1555295D02*
X110823213Y-1460057D01*
X110823213Y-1460057D02*
X110775594Y-1412438D01*
X110775594Y-1412438D02*
X110680356Y-1364819D01*
X110680356Y-1364819D02*
X110442261Y-1364819D01*
X110442261Y-1364819D02*
X110299404Y-1412438D01*
X109966070Y-1364819D02*
X109727975Y-2364819D01*
X109727975Y-2364819D02*
X109537499Y-1650533D01*
X109537499Y-1650533D02*
X109347023Y-2364819D01*
X109347023Y-2364819D02*
X109108928Y-1364819D01*
X108299404Y-1698152D02*
X108299404Y-2364819D01*
X108537499Y-1317200D02*
X108775594Y-2031485D01*
X108775594Y-2031485D02*
X108156547Y-2031485D01*
X149447023Y-38512200D02*
X149304166Y-38559819D01*
X149304166Y-38559819D02*
X149066071Y-38559819D01*
X149066071Y-38559819D02*
X148970833Y-38512200D01*
X148970833Y-38512200D02*
X148923214Y-38464580D01*
X148923214Y-38464580D02*
X148875595Y-38369342D01*
X148875595Y-38369342D02*
X148875595Y-38274104D01*
X148875595Y-38274104D02*
X148923214Y-38178866D01*
X148923214Y-38178866D02*
X148970833Y-38131247D01*
X148970833Y-38131247D02*
X149066071Y-38083628D01*
X149066071Y-38083628D02*
X149256547Y-38036009D01*
X149256547Y-38036009D02*
X149351785Y-37988390D01*
X149351785Y-37988390D02*
X149399404Y-37940771D01*
X149399404Y-37940771D02*
X149447023Y-37845533D01*
X149447023Y-37845533D02*
X149447023Y-37750295D01*
X149447023Y-37750295D02*
X149399404Y-37655057D01*
X149399404Y-37655057D02*
X149351785Y-37607438D01*
X149351785Y-37607438D02*
X149256547Y-37559819D01*
X149256547Y-37559819D02*
X149018452Y-37559819D01*
X149018452Y-37559819D02*
X148875595Y-37607438D01*
X148542261Y-37559819D02*
X148304166Y-38559819D01*
X148304166Y-38559819D02*
X148113690Y-37845533D01*
X148113690Y-37845533D02*
X147923214Y-38559819D01*
X147923214Y-38559819D02*
X147685119Y-37559819D01*
X147351785Y-37655057D02*
X147304166Y-37607438D01*
X147304166Y-37607438D02*
X147208928Y-37559819D01*
X147208928Y-37559819D02*
X146970833Y-37559819D01*
X146970833Y-37559819D02*
X146875595Y-37607438D01*
X146875595Y-37607438D02*
X146827976Y-37655057D01*
X146827976Y-37655057D02*
X146780357Y-37750295D01*
X146780357Y-37750295D02*
X146780357Y-37845533D01*
X146780357Y-37845533D02*
X146827976Y-37988390D01*
X146827976Y-37988390D02*
X147399404Y-38559819D01*
X147399404Y-38559819D02*
X146780357Y-38559819D01*
X145923214Y-37559819D02*
X146113690Y-37559819D01*
X146113690Y-37559819D02*
X146208928Y-37607438D01*
X146208928Y-37607438D02*
X146256547Y-37655057D01*
X146256547Y-37655057D02*
X146351785Y-37797914D01*
X146351785Y-37797914D02*
X146399404Y-37988390D01*
X146399404Y-37988390D02*
X146399404Y-38369342D01*
X146399404Y-38369342D02*
X146351785Y-38464580D01*
X146351785Y-38464580D02*
X146304166Y-38512200D01*
X146304166Y-38512200D02*
X146208928Y-38559819D01*
X146208928Y-38559819D02*
X146018452Y-38559819D01*
X146018452Y-38559819D02*
X145923214Y-38512200D01*
X145923214Y-38512200D02*
X145875595Y-38464580D01*
X145875595Y-38464580D02*
X145827976Y-38369342D01*
X145827976Y-38369342D02*
X145827976Y-38131247D01*
X145827976Y-38131247D02*
X145875595Y-38036009D01*
X145875595Y-38036009D02*
X145923214Y-37988390D01*
X145923214Y-37988390D02*
X146018452Y-37940771D01*
X146018452Y-37940771D02*
X146208928Y-37940771D01*
X146208928Y-37940771D02*
X146304166Y-37988390D01*
X146304166Y-37988390D02*
X146351785Y-38036009D01*
X146351785Y-38036009D02*
X146399404Y-38131247D01*
X42290823Y-81374700D02*
X42147966Y-81422319D01*
X42147966Y-81422319D02*
X41909871Y-81422319D01*
X41909871Y-81422319D02*
X41814633Y-81374700D01*
X41814633Y-81374700D02*
X41767014Y-81327080D01*
X41767014Y-81327080D02*
X41719395Y-81231842D01*
X41719395Y-81231842D02*
X41719395Y-81136604D01*
X41719395Y-81136604D02*
X41767014Y-81041366D01*
X41767014Y-81041366D02*
X41814633Y-80993747D01*
X41814633Y-80993747D02*
X41909871Y-80946128D01*
X41909871Y-80946128D02*
X42100347Y-80898509D01*
X42100347Y-80898509D02*
X42195585Y-80850890D01*
X42195585Y-80850890D02*
X42243204Y-80803271D01*
X42243204Y-80803271D02*
X42290823Y-80708033D01*
X42290823Y-80708033D02*
X42290823Y-80612795D01*
X42290823Y-80612795D02*
X42243204Y-80517557D01*
X42243204Y-80517557D02*
X42195585Y-80469938D01*
X42195585Y-80469938D02*
X42100347Y-80422319D01*
X42100347Y-80422319D02*
X41862252Y-80422319D01*
X41862252Y-80422319D02*
X41719395Y-80469938D01*
X41386061Y-80422319D02*
X41147966Y-81422319D01*
X41147966Y-81422319D02*
X40957490Y-80708033D01*
X40957490Y-80708033D02*
X40767014Y-81422319D01*
X40767014Y-81422319D02*
X40528919Y-80422319D01*
X39671776Y-80422319D02*
X40147966Y-80422319D01*
X40147966Y-80422319D02*
X40195585Y-80898509D01*
X40195585Y-80898509D02*
X40147966Y-80850890D01*
X40147966Y-80850890D02*
X40052728Y-80803271D01*
X40052728Y-80803271D02*
X39814633Y-80803271D01*
X39814633Y-80803271D02*
X39719395Y-80850890D01*
X39719395Y-80850890D02*
X39671776Y-80898509D01*
X39671776Y-80898509D02*
X39624157Y-80993747D01*
X39624157Y-80993747D02*
X39624157Y-81231842D01*
X39624157Y-81231842D02*
X39671776Y-81327080D01*
X39671776Y-81327080D02*
X39719395Y-81374700D01*
X39719395Y-81374700D02*
X39814633Y-81422319D01*
X39814633Y-81422319D02*
X40052728Y-81422319D01*
X40052728Y-81422319D02*
X40147966Y-81374700D01*
X40147966Y-81374700D02*
X40195585Y-81327080D01*
X38719395Y-80422319D02*
X39195585Y-80422319D01*
X39195585Y-80422319D02*
X39243204Y-80898509D01*
X39243204Y-80898509D02*
X39195585Y-80850890D01*
X39195585Y-80850890D02*
X39100347Y-80803271D01*
X39100347Y-80803271D02*
X38862252Y-80803271D01*
X38862252Y-80803271D02*
X38767014Y-80850890D01*
X38767014Y-80850890D02*
X38719395Y-80898509D01*
X38719395Y-80898509D02*
X38671776Y-80993747D01*
X38671776Y-80993747D02*
X38671776Y-81231842D01*
X38671776Y-81231842D02*
X38719395Y-81327080D01*
X38719395Y-81327080D02*
X38767014Y-81374700D01*
X38767014Y-81374700D02*
X38862252Y-81422319D01*
X38862252Y-81422319D02*
X39100347Y-81422319D01*
X39100347Y-81422319D02*
X39195585Y-81374700D01*
X39195585Y-81374700D02*
X39243204Y-81327080D01*
X32765823Y-43274700D02*
X32622966Y-43322319D01*
X32622966Y-43322319D02*
X32384871Y-43322319D01*
X32384871Y-43322319D02*
X32289633Y-43274700D01*
X32289633Y-43274700D02*
X32242014Y-43227080D01*
X32242014Y-43227080D02*
X32194395Y-43131842D01*
X32194395Y-43131842D02*
X32194395Y-43036604D01*
X32194395Y-43036604D02*
X32242014Y-42941366D01*
X32242014Y-42941366D02*
X32289633Y-42893747D01*
X32289633Y-42893747D02*
X32384871Y-42846128D01*
X32384871Y-42846128D02*
X32575347Y-42798509D01*
X32575347Y-42798509D02*
X32670585Y-42750890D01*
X32670585Y-42750890D02*
X32718204Y-42703271D01*
X32718204Y-42703271D02*
X32765823Y-42608033D01*
X32765823Y-42608033D02*
X32765823Y-42512795D01*
X32765823Y-42512795D02*
X32718204Y-42417557D01*
X32718204Y-42417557D02*
X32670585Y-42369938D01*
X32670585Y-42369938D02*
X32575347Y-42322319D01*
X32575347Y-42322319D02*
X32337252Y-42322319D01*
X32337252Y-42322319D02*
X32194395Y-42369938D01*
X31861061Y-42322319D02*
X31622966Y-43322319D01*
X31622966Y-43322319D02*
X31432490Y-42608033D01*
X31432490Y-42608033D02*
X31242014Y-43322319D01*
X31242014Y-43322319D02*
X31003919Y-42322319D01*
X30718204Y-42322319D02*
X30099157Y-42322319D01*
X30099157Y-42322319D02*
X30432490Y-42703271D01*
X30432490Y-42703271D02*
X30289633Y-42703271D01*
X30289633Y-42703271D02*
X30194395Y-42750890D01*
X30194395Y-42750890D02*
X30146776Y-42798509D01*
X30146776Y-42798509D02*
X30099157Y-42893747D01*
X30099157Y-42893747D02*
X30099157Y-43131842D01*
X30099157Y-43131842D02*
X30146776Y-43227080D01*
X30146776Y-43227080D02*
X30194395Y-43274700D01*
X30194395Y-43274700D02*
X30289633Y-43322319D01*
X30289633Y-43322319D02*
X30575347Y-43322319D01*
X30575347Y-43322319D02*
X30670585Y-43274700D01*
X30670585Y-43274700D02*
X30718204Y-43227080D01*
X29765823Y-42322319D02*
X29099157Y-42322319D01*
X29099157Y-42322319D02*
X29527728Y-43322319D01*
X91820832Y-412200D02*
X91677975Y-459819D01*
X91677975Y-459819D02*
X91439880Y-459819D01*
X91439880Y-459819D02*
X91344642Y-412200D01*
X91344642Y-412200D02*
X91297023Y-364580D01*
X91297023Y-364580D02*
X91249404Y-269342D01*
X91249404Y-269342D02*
X91249404Y-174104D01*
X91249404Y-174104D02*
X91297023Y-78866D01*
X91297023Y-78866D02*
X91344642Y-31247D01*
X91344642Y-31247D02*
X91439880Y16371D01*
X91439880Y16371D02*
X91630356Y63990D01*
X91630356Y63990D02*
X91725594Y111609D01*
X91725594Y111609D02*
X91773213Y159228D01*
X91773213Y159228D02*
X91820832Y254466D01*
X91820832Y254466D02*
X91820832Y349704D01*
X91820832Y349704D02*
X91773213Y444942D01*
X91773213Y444942D02*
X91725594Y492561D01*
X91725594Y492561D02*
X91630356Y540180D01*
X91630356Y540180D02*
X91392261Y540180D01*
X91392261Y540180D02*
X91249404Y492561D01*
X90916070Y540180D02*
X90677975Y-459819D01*
X90677975Y-459819D02*
X90487499Y254466D01*
X90487499Y254466D02*
X90297023Y-459819D01*
X90297023Y-459819D02*
X90058928Y540180D01*
X89154166Y-459819D02*
X89725594Y-459819D01*
X89439880Y-459819D02*
X89439880Y540180D01*
X89439880Y540180D02*
X89535118Y397323D01*
X89535118Y397323D02*
X89630356Y302085D01*
X89630356Y302085D02*
X89725594Y254466D01*
X54197023Y-42322200D02*
X54054166Y-42369819D01*
X54054166Y-42369819D02*
X53816071Y-42369819D01*
X53816071Y-42369819D02*
X53720833Y-42322200D01*
X53720833Y-42322200D02*
X53673214Y-42274580D01*
X53673214Y-42274580D02*
X53625595Y-42179342D01*
X53625595Y-42179342D02*
X53625595Y-42084104D01*
X53625595Y-42084104D02*
X53673214Y-41988866D01*
X53673214Y-41988866D02*
X53720833Y-41941247D01*
X53720833Y-41941247D02*
X53816071Y-41893628D01*
X53816071Y-41893628D02*
X54006547Y-41846009D01*
X54006547Y-41846009D02*
X54101785Y-41798390D01*
X54101785Y-41798390D02*
X54149404Y-41750771D01*
X54149404Y-41750771D02*
X54197023Y-41655533D01*
X54197023Y-41655533D02*
X54197023Y-41560295D01*
X54197023Y-41560295D02*
X54149404Y-41465057D01*
X54149404Y-41465057D02*
X54101785Y-41417438D01*
X54101785Y-41417438D02*
X54006547Y-41369819D01*
X54006547Y-41369819D02*
X53768452Y-41369819D01*
X53768452Y-41369819D02*
X53625595Y-41417438D01*
X53292261Y-41369819D02*
X53054166Y-42369819D01*
X53054166Y-42369819D02*
X52863690Y-41655533D01*
X52863690Y-41655533D02*
X52673214Y-42369819D01*
X52673214Y-42369819D02*
X52435119Y-41369819D01*
X52149404Y-41369819D02*
X51530357Y-41369819D01*
X51530357Y-41369819D02*
X51863690Y-41750771D01*
X51863690Y-41750771D02*
X51720833Y-41750771D01*
X51720833Y-41750771D02*
X51625595Y-41798390D01*
X51625595Y-41798390D02*
X51577976Y-41846009D01*
X51577976Y-41846009D02*
X51530357Y-41941247D01*
X51530357Y-41941247D02*
X51530357Y-42179342D01*
X51530357Y-42179342D02*
X51577976Y-42274580D01*
X51577976Y-42274580D02*
X51625595Y-42322200D01*
X51625595Y-42322200D02*
X51720833Y-42369819D01*
X51720833Y-42369819D02*
X52006547Y-42369819D01*
X52006547Y-42369819D02*
X52101785Y-42322200D01*
X52101785Y-42322200D02*
X52149404Y-42274580D01*
X51197023Y-41369819D02*
X50577976Y-41369819D01*
X50577976Y-41369819D02*
X50911309Y-41750771D01*
X50911309Y-41750771D02*
X50768452Y-41750771D01*
X50768452Y-41750771D02*
X50673214Y-41798390D01*
X50673214Y-41798390D02*
X50625595Y-41846009D01*
X50625595Y-41846009D02*
X50577976Y-41941247D01*
X50577976Y-41941247D02*
X50577976Y-42179342D01*
X50577976Y-42179342D02*
X50625595Y-42274580D01*
X50625595Y-42274580D02*
X50673214Y-42322200D01*
X50673214Y-42322200D02*
X50768452Y-42369819D01*
X50768452Y-42369819D02*
X51054166Y-42369819D01*
X51054166Y-42369819D02*
X51149404Y-42322200D01*
X51149404Y-42322200D02*
X51197023Y-42274580D01*
X32765823Y-24224700D02*
X32622966Y-24272319D01*
X32622966Y-24272319D02*
X32384871Y-24272319D01*
X32384871Y-24272319D02*
X32289633Y-24224700D01*
X32289633Y-24224700D02*
X32242014Y-24177080D01*
X32242014Y-24177080D02*
X32194395Y-24081842D01*
X32194395Y-24081842D02*
X32194395Y-23986604D01*
X32194395Y-23986604D02*
X32242014Y-23891366D01*
X32242014Y-23891366D02*
X32289633Y-23843747D01*
X32289633Y-23843747D02*
X32384871Y-23796128D01*
X32384871Y-23796128D02*
X32575347Y-23748509D01*
X32575347Y-23748509D02*
X32670585Y-23700890D01*
X32670585Y-23700890D02*
X32718204Y-23653271D01*
X32718204Y-23653271D02*
X32765823Y-23558033D01*
X32765823Y-23558033D02*
X32765823Y-23462795D01*
X32765823Y-23462795D02*
X32718204Y-23367557D01*
X32718204Y-23367557D02*
X32670585Y-23319938D01*
X32670585Y-23319938D02*
X32575347Y-23272319D01*
X32575347Y-23272319D02*
X32337252Y-23272319D01*
X32337252Y-23272319D02*
X32194395Y-23319938D01*
X31861061Y-23272319D02*
X31622966Y-24272319D01*
X31622966Y-24272319D02*
X31432490Y-23558033D01*
X31432490Y-23558033D02*
X31242014Y-24272319D01*
X31242014Y-24272319D02*
X31003919Y-23272319D01*
X30670585Y-23367557D02*
X30622966Y-23319938D01*
X30622966Y-23319938D02*
X30527728Y-23272319D01*
X30527728Y-23272319D02*
X30289633Y-23272319D01*
X30289633Y-23272319D02*
X30194395Y-23319938D01*
X30194395Y-23319938D02*
X30146776Y-23367557D01*
X30146776Y-23367557D02*
X30099157Y-23462795D01*
X30099157Y-23462795D02*
X30099157Y-23558033D01*
X30099157Y-23558033D02*
X30146776Y-23700890D01*
X30146776Y-23700890D02*
X30718204Y-24272319D01*
X30718204Y-24272319D02*
X30099157Y-24272319D01*
X29765823Y-23272319D02*
X29146776Y-23272319D01*
X29146776Y-23272319D02*
X29480109Y-23653271D01*
X29480109Y-23653271D02*
X29337252Y-23653271D01*
X29337252Y-23653271D02*
X29242014Y-23700890D01*
X29242014Y-23700890D02*
X29194395Y-23748509D01*
X29194395Y-23748509D02*
X29146776Y-23843747D01*
X29146776Y-23843747D02*
X29146776Y-24081842D01*
X29146776Y-24081842D02*
X29194395Y-24177080D01*
X29194395Y-24177080D02*
X29242014Y-24224700D01*
X29242014Y-24224700D02*
X29337252Y-24272319D01*
X29337252Y-24272319D02*
X29622966Y-24272319D01*
X29622966Y-24272319D02*
X29718204Y-24224700D01*
X29718204Y-24224700D02*
X29765823Y-24177080D01*
X73247023Y-21367200D02*
X73104166Y-21414819D01*
X73104166Y-21414819D02*
X72866071Y-21414819D01*
X72866071Y-21414819D02*
X72770833Y-21367200D01*
X72770833Y-21367200D02*
X72723214Y-21319580D01*
X72723214Y-21319580D02*
X72675595Y-21224342D01*
X72675595Y-21224342D02*
X72675595Y-21129104D01*
X72675595Y-21129104D02*
X72723214Y-21033866D01*
X72723214Y-21033866D02*
X72770833Y-20986247D01*
X72770833Y-20986247D02*
X72866071Y-20938628D01*
X72866071Y-20938628D02*
X73056547Y-20891009D01*
X73056547Y-20891009D02*
X73151785Y-20843390D01*
X73151785Y-20843390D02*
X73199404Y-20795771D01*
X73199404Y-20795771D02*
X73247023Y-20700533D01*
X73247023Y-20700533D02*
X73247023Y-20605295D01*
X73247023Y-20605295D02*
X73199404Y-20510057D01*
X73199404Y-20510057D02*
X73151785Y-20462438D01*
X73151785Y-20462438D02*
X73056547Y-20414819D01*
X73056547Y-20414819D02*
X72818452Y-20414819D01*
X72818452Y-20414819D02*
X72675595Y-20462438D01*
X72342261Y-20414819D02*
X72104166Y-21414819D01*
X72104166Y-21414819D02*
X71913690Y-20700533D01*
X71913690Y-20700533D02*
X71723214Y-21414819D01*
X71723214Y-21414819D02*
X71485119Y-20414819D01*
X70580357Y-21414819D02*
X71151785Y-21414819D01*
X70866071Y-21414819D02*
X70866071Y-20414819D01*
X70866071Y-20414819D02*
X70961309Y-20557676D01*
X70961309Y-20557676D02*
X71056547Y-20652914D01*
X71056547Y-20652914D02*
X71151785Y-20700533D01*
X69675595Y-20414819D02*
X70151785Y-20414819D01*
X70151785Y-20414819D02*
X70199404Y-20891009D01*
X70199404Y-20891009D02*
X70151785Y-20843390D01*
X70151785Y-20843390D02*
X70056547Y-20795771D01*
X70056547Y-20795771D02*
X69818452Y-20795771D01*
X69818452Y-20795771D02*
X69723214Y-20843390D01*
X69723214Y-20843390D02*
X69675595Y-20891009D01*
X69675595Y-20891009D02*
X69627976Y-20986247D01*
X69627976Y-20986247D02*
X69627976Y-21224342D01*
X69627976Y-21224342D02*
X69675595Y-21319580D01*
X69675595Y-21319580D02*
X69723214Y-21367200D01*
X69723214Y-21367200D02*
X69818452Y-21414819D01*
X69818452Y-21414819D02*
X70056547Y-21414819D01*
X70056547Y-21414819D02*
X70151785Y-21367200D01*
X70151785Y-21367200D02*
X70199404Y-21319580D01*
X111347023Y-21367200D02*
X111204166Y-21414819D01*
X111204166Y-21414819D02*
X110966071Y-21414819D01*
X110966071Y-21414819D02*
X110870833Y-21367200D01*
X110870833Y-21367200D02*
X110823214Y-21319580D01*
X110823214Y-21319580D02*
X110775595Y-21224342D01*
X110775595Y-21224342D02*
X110775595Y-21129104D01*
X110775595Y-21129104D02*
X110823214Y-21033866D01*
X110823214Y-21033866D02*
X110870833Y-20986247D01*
X110870833Y-20986247D02*
X110966071Y-20938628D01*
X110966071Y-20938628D02*
X111156547Y-20891009D01*
X111156547Y-20891009D02*
X111251785Y-20843390D01*
X111251785Y-20843390D02*
X111299404Y-20795771D01*
X111299404Y-20795771D02*
X111347023Y-20700533D01*
X111347023Y-20700533D02*
X111347023Y-20605295D01*
X111347023Y-20605295D02*
X111299404Y-20510057D01*
X111299404Y-20510057D02*
X111251785Y-20462438D01*
X111251785Y-20462438D02*
X111156547Y-20414819D01*
X111156547Y-20414819D02*
X110918452Y-20414819D01*
X110918452Y-20414819D02*
X110775595Y-20462438D01*
X110442261Y-20414819D02*
X110204166Y-21414819D01*
X110204166Y-21414819D02*
X110013690Y-20700533D01*
X110013690Y-20700533D02*
X109823214Y-21414819D01*
X109823214Y-21414819D02*
X109585119Y-20414819D01*
X108680357Y-21414819D02*
X109251785Y-21414819D01*
X108966071Y-21414819D02*
X108966071Y-20414819D01*
X108966071Y-20414819D02*
X109061309Y-20557676D01*
X109061309Y-20557676D02*
X109156547Y-20652914D01*
X109156547Y-20652914D02*
X109251785Y-20700533D01*
X107823214Y-20414819D02*
X108013690Y-20414819D01*
X108013690Y-20414819D02*
X108108928Y-20462438D01*
X108108928Y-20462438D02*
X108156547Y-20510057D01*
X108156547Y-20510057D02*
X108251785Y-20652914D01*
X108251785Y-20652914D02*
X108299404Y-20843390D01*
X108299404Y-20843390D02*
X108299404Y-21224342D01*
X108299404Y-21224342D02*
X108251785Y-21319580D01*
X108251785Y-21319580D02*
X108204166Y-21367200D01*
X108204166Y-21367200D02*
X108108928Y-21414819D01*
X108108928Y-21414819D02*
X107918452Y-21414819D01*
X107918452Y-21414819D02*
X107823214Y-21367200D01*
X107823214Y-21367200D02*
X107775595Y-21319580D01*
X107775595Y-21319580D02*
X107727976Y-21224342D01*
X107727976Y-21224342D02*
X107727976Y-20986247D01*
X107727976Y-20986247D02*
X107775595Y-20891009D01*
X107775595Y-20891009D02*
X107823214Y-20843390D01*
X107823214Y-20843390D02*
X107918452Y-20795771D01*
X107918452Y-20795771D02*
X108108928Y-20795771D01*
X108108928Y-20795771D02*
X108204166Y-20843390D01*
X108204166Y-20843390D02*
X108251785Y-20891009D01*
X108251785Y-20891009D02*
X108299404Y-20986247D01*
X73247023Y-80422200D02*
X73104166Y-80469819D01*
X73104166Y-80469819D02*
X72866071Y-80469819D01*
X72866071Y-80469819D02*
X72770833Y-80422200D01*
X72770833Y-80422200D02*
X72723214Y-80374580D01*
X72723214Y-80374580D02*
X72675595Y-80279342D01*
X72675595Y-80279342D02*
X72675595Y-80184104D01*
X72675595Y-80184104D02*
X72723214Y-80088866D01*
X72723214Y-80088866D02*
X72770833Y-80041247D01*
X72770833Y-80041247D02*
X72866071Y-79993628D01*
X72866071Y-79993628D02*
X73056547Y-79946009D01*
X73056547Y-79946009D02*
X73151785Y-79898390D01*
X73151785Y-79898390D02*
X73199404Y-79850771D01*
X73199404Y-79850771D02*
X73247023Y-79755533D01*
X73247023Y-79755533D02*
X73247023Y-79660295D01*
X73247023Y-79660295D02*
X73199404Y-79565057D01*
X73199404Y-79565057D02*
X73151785Y-79517438D01*
X73151785Y-79517438D02*
X73056547Y-79469819D01*
X73056547Y-79469819D02*
X72818452Y-79469819D01*
X72818452Y-79469819D02*
X72675595Y-79517438D01*
X72342261Y-79469819D02*
X72104166Y-80469819D01*
X72104166Y-80469819D02*
X71913690Y-79755533D01*
X71913690Y-79755533D02*
X71723214Y-80469819D01*
X71723214Y-80469819D02*
X71485119Y-79469819D01*
X70627976Y-79469819D02*
X71104166Y-79469819D01*
X71104166Y-79469819D02*
X71151785Y-79946009D01*
X71151785Y-79946009D02*
X71104166Y-79898390D01*
X71104166Y-79898390D02*
X71008928Y-79850771D01*
X71008928Y-79850771D02*
X70770833Y-79850771D01*
X70770833Y-79850771D02*
X70675595Y-79898390D01*
X70675595Y-79898390D02*
X70627976Y-79946009D01*
X70627976Y-79946009D02*
X70580357Y-80041247D01*
X70580357Y-80041247D02*
X70580357Y-80279342D01*
X70580357Y-80279342D02*
X70627976Y-80374580D01*
X70627976Y-80374580D02*
X70675595Y-80422200D01*
X70675595Y-80422200D02*
X70770833Y-80469819D01*
X70770833Y-80469819D02*
X71008928Y-80469819D01*
X71008928Y-80469819D02*
X71104166Y-80422200D01*
X71104166Y-80422200D02*
X71151785Y-80374580D01*
X69723214Y-79803152D02*
X69723214Y-80469819D01*
X69961309Y-79422200D02*
X70199404Y-80136485D01*
X70199404Y-80136485D02*
X69580357Y-80136485D01*
X72770832Y-2317200D02*
X72627975Y-2364819D01*
X72627975Y-2364819D02*
X72389880Y-2364819D01*
X72389880Y-2364819D02*
X72294642Y-2317200D01*
X72294642Y-2317200D02*
X72247023Y-2269580D01*
X72247023Y-2269580D02*
X72199404Y-2174342D01*
X72199404Y-2174342D02*
X72199404Y-2079104D01*
X72199404Y-2079104D02*
X72247023Y-1983866D01*
X72247023Y-1983866D02*
X72294642Y-1936247D01*
X72294642Y-1936247D02*
X72389880Y-1888628D01*
X72389880Y-1888628D02*
X72580356Y-1841009D01*
X72580356Y-1841009D02*
X72675594Y-1793390D01*
X72675594Y-1793390D02*
X72723213Y-1745771D01*
X72723213Y-1745771D02*
X72770832Y-1650533D01*
X72770832Y-1650533D02*
X72770832Y-1555295D01*
X72770832Y-1555295D02*
X72723213Y-1460057D01*
X72723213Y-1460057D02*
X72675594Y-1412438D01*
X72675594Y-1412438D02*
X72580356Y-1364819D01*
X72580356Y-1364819D02*
X72342261Y-1364819D01*
X72342261Y-1364819D02*
X72199404Y-1412438D01*
X71866070Y-1364819D02*
X71627975Y-2364819D01*
X71627975Y-2364819D02*
X71437499Y-1650533D01*
X71437499Y-1650533D02*
X71247023Y-2364819D01*
X71247023Y-2364819D02*
X71008928Y-1364819D01*
X70723213Y-1364819D02*
X70104166Y-1364819D01*
X70104166Y-1364819D02*
X70437499Y-1745771D01*
X70437499Y-1745771D02*
X70294642Y-1745771D01*
X70294642Y-1745771D02*
X70199404Y-1793390D01*
X70199404Y-1793390D02*
X70151785Y-1841009D01*
X70151785Y-1841009D02*
X70104166Y-1936247D01*
X70104166Y-1936247D02*
X70104166Y-2174342D01*
X70104166Y-2174342D02*
X70151785Y-2269580D01*
X70151785Y-2269580D02*
X70199404Y-2317200D01*
X70199404Y-2317200D02*
X70294642Y-2364819D01*
X70294642Y-2364819D02*
X70580356Y-2364819D01*
X70580356Y-2364819D02*
X70675594Y-2317200D01*
X70675594Y-2317200D02*
X70723213Y-2269580D01*
X92297023Y-57562200D02*
X92154166Y-57609819D01*
X92154166Y-57609819D02*
X91916071Y-57609819D01*
X91916071Y-57609819D02*
X91820833Y-57562200D01*
X91820833Y-57562200D02*
X91773214Y-57514580D01*
X91773214Y-57514580D02*
X91725595Y-57419342D01*
X91725595Y-57419342D02*
X91725595Y-57324104D01*
X91725595Y-57324104D02*
X91773214Y-57228866D01*
X91773214Y-57228866D02*
X91820833Y-57181247D01*
X91820833Y-57181247D02*
X91916071Y-57133628D01*
X91916071Y-57133628D02*
X92106547Y-57086009D01*
X92106547Y-57086009D02*
X92201785Y-57038390D01*
X92201785Y-57038390D02*
X92249404Y-56990771D01*
X92249404Y-56990771D02*
X92297023Y-56895533D01*
X92297023Y-56895533D02*
X92297023Y-56800295D01*
X92297023Y-56800295D02*
X92249404Y-56705057D01*
X92249404Y-56705057D02*
X92201785Y-56657438D01*
X92201785Y-56657438D02*
X92106547Y-56609819D01*
X92106547Y-56609819D02*
X91868452Y-56609819D01*
X91868452Y-56609819D02*
X91725595Y-56657438D01*
X91392261Y-56609819D02*
X91154166Y-57609819D01*
X91154166Y-57609819D02*
X90963690Y-56895533D01*
X90963690Y-56895533D02*
X90773214Y-57609819D01*
X90773214Y-57609819D02*
X90535119Y-56609819D01*
X89725595Y-56943152D02*
X89725595Y-57609819D01*
X89963690Y-56562200D02*
X90201785Y-57276485D01*
X90201785Y-57276485D02*
X89582738Y-57276485D01*
X89011309Y-56609819D02*
X88916071Y-56609819D01*
X88916071Y-56609819D02*
X88820833Y-56657438D01*
X88820833Y-56657438D02*
X88773214Y-56705057D01*
X88773214Y-56705057D02*
X88725595Y-56800295D01*
X88725595Y-56800295D02*
X88677976Y-56990771D01*
X88677976Y-56990771D02*
X88677976Y-57228866D01*
X88677976Y-57228866D02*
X88725595Y-57419342D01*
X88725595Y-57419342D02*
X88773214Y-57514580D01*
X88773214Y-57514580D02*
X88820833Y-57562200D01*
X88820833Y-57562200D02*
X88916071Y-57609819D01*
X88916071Y-57609819D02*
X89011309Y-57609819D01*
X89011309Y-57609819D02*
X89106547Y-57562200D01*
X89106547Y-57562200D02*
X89154166Y-57514580D01*
X89154166Y-57514580D02*
X89201785Y-57419342D01*
X89201785Y-57419342D02*
X89249404Y-57228866D01*
X89249404Y-57228866D02*
X89249404Y-56990771D01*
X89249404Y-56990771D02*
X89201785Y-56800295D01*
X89201785Y-56800295D02*
X89154166Y-56705057D01*
X89154166Y-56705057D02*
X89106547Y-56657438D01*
X89106547Y-56657438D02*
X89011309Y-56609819D01*
X111347023Y-59467200D02*
X111204166Y-59514819D01*
X111204166Y-59514819D02*
X110966071Y-59514819D01*
X110966071Y-59514819D02*
X110870833Y-59467200D01*
X110870833Y-59467200D02*
X110823214Y-59419580D01*
X110823214Y-59419580D02*
X110775595Y-59324342D01*
X110775595Y-59324342D02*
X110775595Y-59229104D01*
X110775595Y-59229104D02*
X110823214Y-59133866D01*
X110823214Y-59133866D02*
X110870833Y-59086247D01*
X110870833Y-59086247D02*
X110966071Y-59038628D01*
X110966071Y-59038628D02*
X111156547Y-58991009D01*
X111156547Y-58991009D02*
X111251785Y-58943390D01*
X111251785Y-58943390D02*
X111299404Y-58895771D01*
X111299404Y-58895771D02*
X111347023Y-58800533D01*
X111347023Y-58800533D02*
X111347023Y-58705295D01*
X111347023Y-58705295D02*
X111299404Y-58610057D01*
X111299404Y-58610057D02*
X111251785Y-58562438D01*
X111251785Y-58562438D02*
X111156547Y-58514819D01*
X111156547Y-58514819D02*
X110918452Y-58514819D01*
X110918452Y-58514819D02*
X110775595Y-58562438D01*
X110442261Y-58514819D02*
X110204166Y-59514819D01*
X110204166Y-59514819D02*
X110013690Y-58800533D01*
X110013690Y-58800533D02*
X109823214Y-59514819D01*
X109823214Y-59514819D02*
X109585119Y-58514819D01*
X108775595Y-58848152D02*
X108775595Y-59514819D01*
X109013690Y-58467200D02*
X109251785Y-59181485D01*
X109251785Y-59181485D02*
X108632738Y-59181485D01*
X107823214Y-58848152D02*
X107823214Y-59514819D01*
X108061309Y-58467200D02*
X108299404Y-59181485D01*
X108299404Y-59181485D02*
X107680357Y-59181485D01*
X112415950Y-97275468D02*
X112424972Y-97425782D01*
X112424972Y-97425782D02*
X112363348Y-97655764D01*
X112363348Y-97655764D02*
X112292703Y-97735433D01*
X112292703Y-97735433D02*
X112234381Y-97769104D01*
X112234381Y-97769104D02*
X112130064Y-97790451D01*
X112130064Y-97790451D02*
X112038071Y-97765802D01*
X112038071Y-97765802D02*
X111958403Y-97695156D01*
X111958403Y-97695156D02*
X111924731Y-97636835D01*
X111924731Y-97636835D02*
X111903384Y-97532517D01*
X111903384Y-97532517D02*
X111906686Y-97336207D01*
X111906686Y-97336207D02*
X111885339Y-97231889D01*
X111885339Y-97231889D02*
X111851667Y-97173568D01*
X111851667Y-97173568D02*
X111771999Y-97102922D01*
X111771999Y-97102922D02*
X111680006Y-97078272D01*
X111680006Y-97078272D02*
X111575689Y-97099619D01*
X111575689Y-97099619D02*
X111517367Y-97133291D01*
X111517367Y-97133291D02*
X111446721Y-97212959D01*
X111446721Y-97212959D02*
X111385098Y-97442942D01*
X111385098Y-97442942D02*
X111394120Y-97593256D01*
X111261851Y-97902906D02*
X112166153Y-98391708D01*
X112166153Y-98391708D02*
X111426907Y-98390823D01*
X111426907Y-98390823D02*
X112067555Y-98759680D01*
X112067555Y-98759680D02*
X111040006Y-98730843D01*
X110818161Y-99558779D02*
X110941408Y-99098814D01*
X110941408Y-99098814D02*
X111413698Y-99176065D01*
X111413698Y-99176065D02*
X111355376Y-99209737D01*
X111355376Y-99209737D02*
X111284730Y-99289405D01*
X111284730Y-99289405D02*
X111223107Y-99519387D01*
X111223107Y-99519387D02*
X111244454Y-99623705D01*
X111244454Y-99623705D02*
X111278126Y-99682026D01*
X111278126Y-99682026D02*
X111357794Y-99752672D01*
X111357794Y-99752672D02*
X111587776Y-99814296D01*
X111587776Y-99814296D02*
X111692094Y-99792949D01*
X111692094Y-99792949D02*
X111750415Y-99759277D01*
X111750415Y-99759277D02*
X111821061Y-99679609D01*
X111821061Y-99679609D02*
X111882685Y-99449626D01*
X111882685Y-99449626D02*
X111861338Y-99345309D01*
X111861338Y-99345309D02*
X111827666Y-99286988D01*
X111071908Y-100267656D02*
X111050561Y-100163338D01*
X111050561Y-100163338D02*
X111016889Y-100105017D01*
X111016889Y-100105017D02*
X110937221Y-100034371D01*
X110937221Y-100034371D02*
X110891224Y-100022046D01*
X110891224Y-100022046D02*
X110786907Y-100043393D01*
X110786907Y-100043393D02*
X110728586Y-100077065D01*
X110728586Y-100077065D02*
X110657940Y-100156733D01*
X110657940Y-100156733D02*
X110608641Y-100340719D01*
X110608641Y-100340719D02*
X110629988Y-100445037D01*
X110629988Y-100445037D02*
X110663660Y-100503358D01*
X110663660Y-100503358D02*
X110743328Y-100574004D01*
X110743328Y-100574004D02*
X110789324Y-100586329D01*
X110789324Y-100586329D02*
X110893642Y-100564982D01*
X110893642Y-100564982D02*
X110951963Y-100531310D01*
X110951963Y-100531310D02*
X111022609Y-100451642D01*
X111022609Y-100451642D02*
X111071908Y-100267656D01*
X111071908Y-100267656D02*
X111142554Y-100187988D01*
X111142554Y-100187988D02*
X111200875Y-100154316D01*
X111200875Y-100154316D02*
X111305193Y-100132969D01*
X111305193Y-100132969D02*
X111489178Y-100182268D01*
X111489178Y-100182268D02*
X111568847Y-100252913D01*
X111568847Y-100252913D02*
X111602518Y-100311235D01*
X111602518Y-100311235D02*
X111623865Y-100415552D01*
X111623865Y-100415552D02*
X111574567Y-100599538D01*
X111574567Y-100599538D02*
X111503921Y-100679206D01*
X111503921Y-100679206D02*
X111445600Y-100712878D01*
X111445600Y-100712878D02*
X111341282Y-100734225D01*
X111341282Y-100734225D02*
X111157296Y-100684926D01*
X111157296Y-100684926D02*
X111077628Y-100614280D01*
X111077628Y-100614280D02*
X111043956Y-100555959D01*
X111043956Y-100555959D02*
X111022609Y-100451642D01*
X130397023Y-42322200D02*
X130254166Y-42369819D01*
X130254166Y-42369819D02*
X130016071Y-42369819D01*
X130016071Y-42369819D02*
X129920833Y-42322200D01*
X129920833Y-42322200D02*
X129873214Y-42274580D01*
X129873214Y-42274580D02*
X129825595Y-42179342D01*
X129825595Y-42179342D02*
X129825595Y-42084104D01*
X129825595Y-42084104D02*
X129873214Y-41988866D01*
X129873214Y-41988866D02*
X129920833Y-41941247D01*
X129920833Y-41941247D02*
X130016071Y-41893628D01*
X130016071Y-41893628D02*
X130206547Y-41846009D01*
X130206547Y-41846009D02*
X130301785Y-41798390D01*
X130301785Y-41798390D02*
X130349404Y-41750771D01*
X130349404Y-41750771D02*
X130397023Y-41655533D01*
X130397023Y-41655533D02*
X130397023Y-41560295D01*
X130397023Y-41560295D02*
X130349404Y-41465057D01*
X130349404Y-41465057D02*
X130301785Y-41417438D01*
X130301785Y-41417438D02*
X130206547Y-41369819D01*
X130206547Y-41369819D02*
X129968452Y-41369819D01*
X129968452Y-41369819D02*
X129825595Y-41417438D01*
X129492261Y-41369819D02*
X129254166Y-42369819D01*
X129254166Y-42369819D02*
X129063690Y-41655533D01*
X129063690Y-41655533D02*
X128873214Y-42369819D01*
X128873214Y-42369819D02*
X128635119Y-41369819D01*
X128349404Y-41369819D02*
X127730357Y-41369819D01*
X127730357Y-41369819D02*
X128063690Y-41750771D01*
X128063690Y-41750771D02*
X127920833Y-41750771D01*
X127920833Y-41750771D02*
X127825595Y-41798390D01*
X127825595Y-41798390D02*
X127777976Y-41846009D01*
X127777976Y-41846009D02*
X127730357Y-41941247D01*
X127730357Y-41941247D02*
X127730357Y-42179342D01*
X127730357Y-42179342D02*
X127777976Y-42274580D01*
X127777976Y-42274580D02*
X127825595Y-42322200D01*
X127825595Y-42322200D02*
X127920833Y-42369819D01*
X127920833Y-42369819D02*
X128206547Y-42369819D01*
X128206547Y-42369819D02*
X128301785Y-42322200D01*
X128301785Y-42322200D02*
X128349404Y-42274580D01*
X126873214Y-41703152D02*
X126873214Y-42369819D01*
X127111309Y-41322200D02*
X127349404Y-42036485D01*
X127349404Y-42036485D02*
X126730357Y-42036485D01*
X130397023Y-23272200D02*
X130254166Y-23319819D01*
X130254166Y-23319819D02*
X130016071Y-23319819D01*
X130016071Y-23319819D02*
X129920833Y-23272200D01*
X129920833Y-23272200D02*
X129873214Y-23224580D01*
X129873214Y-23224580D02*
X129825595Y-23129342D01*
X129825595Y-23129342D02*
X129825595Y-23034104D01*
X129825595Y-23034104D02*
X129873214Y-22938866D01*
X129873214Y-22938866D02*
X129920833Y-22891247D01*
X129920833Y-22891247D02*
X130016071Y-22843628D01*
X130016071Y-22843628D02*
X130206547Y-22796009D01*
X130206547Y-22796009D02*
X130301785Y-22748390D01*
X130301785Y-22748390D02*
X130349404Y-22700771D01*
X130349404Y-22700771D02*
X130397023Y-22605533D01*
X130397023Y-22605533D02*
X130397023Y-22510295D01*
X130397023Y-22510295D02*
X130349404Y-22415057D01*
X130349404Y-22415057D02*
X130301785Y-22367438D01*
X130301785Y-22367438D02*
X130206547Y-22319819D01*
X130206547Y-22319819D02*
X129968452Y-22319819D01*
X129968452Y-22319819D02*
X129825595Y-22367438D01*
X129492261Y-22319819D02*
X129254166Y-23319819D01*
X129254166Y-23319819D02*
X129063690Y-22605533D01*
X129063690Y-22605533D02*
X128873214Y-23319819D01*
X128873214Y-23319819D02*
X128635119Y-22319819D01*
X128301785Y-22415057D02*
X128254166Y-22367438D01*
X128254166Y-22367438D02*
X128158928Y-22319819D01*
X128158928Y-22319819D02*
X127920833Y-22319819D01*
X127920833Y-22319819D02*
X127825595Y-22367438D01*
X127825595Y-22367438D02*
X127777976Y-22415057D01*
X127777976Y-22415057D02*
X127730357Y-22510295D01*
X127730357Y-22510295D02*
X127730357Y-22605533D01*
X127730357Y-22605533D02*
X127777976Y-22748390D01*
X127777976Y-22748390D02*
X128349404Y-23319819D01*
X128349404Y-23319819D02*
X127730357Y-23319819D01*
X127111309Y-22319819D02*
X127016071Y-22319819D01*
X127016071Y-22319819D02*
X126920833Y-22367438D01*
X126920833Y-22367438D02*
X126873214Y-22415057D01*
X126873214Y-22415057D02*
X126825595Y-22510295D01*
X126825595Y-22510295D02*
X126777976Y-22700771D01*
X126777976Y-22700771D02*
X126777976Y-22938866D01*
X126777976Y-22938866D02*
X126825595Y-23129342D01*
X126825595Y-23129342D02*
X126873214Y-23224580D01*
X126873214Y-23224580D02*
X126920833Y-23272200D01*
X126920833Y-23272200D02*
X127016071Y-23319819D01*
X127016071Y-23319819D02*
X127111309Y-23319819D01*
X127111309Y-23319819D02*
X127206547Y-23272200D01*
X127206547Y-23272200D02*
X127254166Y-23224580D01*
X127254166Y-23224580D02*
X127301785Y-23129342D01*
X127301785Y-23129342D02*
X127349404Y-22938866D01*
X127349404Y-22938866D02*
X127349404Y-22700771D01*
X127349404Y-22700771D02*
X127301785Y-22510295D01*
X127301785Y-22510295D02*
X127254166Y-22415057D01*
X127254166Y-22415057D02*
X127206547Y-22367438D01*
X127206547Y-22367438D02*
X127111309Y-22319819D01*
X73247023Y-40417200D02*
X73104166Y-40464819D01*
X73104166Y-40464819D02*
X72866071Y-40464819D01*
X72866071Y-40464819D02*
X72770833Y-40417200D01*
X72770833Y-40417200D02*
X72723214Y-40369580D01*
X72723214Y-40369580D02*
X72675595Y-40274342D01*
X72675595Y-40274342D02*
X72675595Y-40179104D01*
X72675595Y-40179104D02*
X72723214Y-40083866D01*
X72723214Y-40083866D02*
X72770833Y-40036247D01*
X72770833Y-40036247D02*
X72866071Y-39988628D01*
X72866071Y-39988628D02*
X73056547Y-39941009D01*
X73056547Y-39941009D02*
X73151785Y-39893390D01*
X73151785Y-39893390D02*
X73199404Y-39845771D01*
X73199404Y-39845771D02*
X73247023Y-39750533D01*
X73247023Y-39750533D02*
X73247023Y-39655295D01*
X73247023Y-39655295D02*
X73199404Y-39560057D01*
X73199404Y-39560057D02*
X73151785Y-39512438D01*
X73151785Y-39512438D02*
X73056547Y-39464819D01*
X73056547Y-39464819D02*
X72818452Y-39464819D01*
X72818452Y-39464819D02*
X72675595Y-39512438D01*
X72342261Y-39464819D02*
X72104166Y-40464819D01*
X72104166Y-40464819D02*
X71913690Y-39750533D01*
X71913690Y-39750533D02*
X71723214Y-40464819D01*
X71723214Y-40464819D02*
X71485119Y-39464819D01*
X71151785Y-39560057D02*
X71104166Y-39512438D01*
X71104166Y-39512438D02*
X71008928Y-39464819D01*
X71008928Y-39464819D02*
X70770833Y-39464819D01*
X70770833Y-39464819D02*
X70675595Y-39512438D01*
X70675595Y-39512438D02*
X70627976Y-39560057D01*
X70627976Y-39560057D02*
X70580357Y-39655295D01*
X70580357Y-39655295D02*
X70580357Y-39750533D01*
X70580357Y-39750533D02*
X70627976Y-39893390D01*
X70627976Y-39893390D02*
X71199404Y-40464819D01*
X71199404Y-40464819D02*
X70580357Y-40464819D01*
X70104166Y-40464819D02*
X69913690Y-40464819D01*
X69913690Y-40464819D02*
X69818452Y-40417200D01*
X69818452Y-40417200D02*
X69770833Y-40369580D01*
X69770833Y-40369580D02*
X69675595Y-40226723D01*
X69675595Y-40226723D02*
X69627976Y-40036247D01*
X69627976Y-40036247D02*
X69627976Y-39655295D01*
X69627976Y-39655295D02*
X69675595Y-39560057D01*
X69675595Y-39560057D02*
X69723214Y-39512438D01*
X69723214Y-39512438D02*
X69818452Y-39464819D01*
X69818452Y-39464819D02*
X70008928Y-39464819D01*
X70008928Y-39464819D02*
X70104166Y-39512438D01*
X70104166Y-39512438D02*
X70151785Y-39560057D01*
X70151785Y-39560057D02*
X70199404Y-39655295D01*
X70199404Y-39655295D02*
X70199404Y-39893390D01*
X70199404Y-39893390D02*
X70151785Y-39988628D01*
X70151785Y-39988628D02*
X70104166Y-40036247D01*
X70104166Y-40036247D02*
X70008928Y-40083866D01*
X70008928Y-40083866D02*
X69818452Y-40083866D01*
X69818452Y-40083866D02*
X69723214Y-40036247D01*
X69723214Y-40036247D02*
X69675595Y-39988628D01*
X69675595Y-39988628D02*
X69627976Y-39893390D01*
X54197023Y-23272200D02*
X54054166Y-23319819D01*
X54054166Y-23319819D02*
X53816071Y-23319819D01*
X53816071Y-23319819D02*
X53720833Y-23272200D01*
X53720833Y-23272200D02*
X53673214Y-23224580D01*
X53673214Y-23224580D02*
X53625595Y-23129342D01*
X53625595Y-23129342D02*
X53625595Y-23034104D01*
X53625595Y-23034104D02*
X53673214Y-22938866D01*
X53673214Y-22938866D02*
X53720833Y-22891247D01*
X53720833Y-22891247D02*
X53816071Y-22843628D01*
X53816071Y-22843628D02*
X54006547Y-22796009D01*
X54006547Y-22796009D02*
X54101785Y-22748390D01*
X54101785Y-22748390D02*
X54149404Y-22700771D01*
X54149404Y-22700771D02*
X54197023Y-22605533D01*
X54197023Y-22605533D02*
X54197023Y-22510295D01*
X54197023Y-22510295D02*
X54149404Y-22415057D01*
X54149404Y-22415057D02*
X54101785Y-22367438D01*
X54101785Y-22367438D02*
X54006547Y-22319819D01*
X54006547Y-22319819D02*
X53768452Y-22319819D01*
X53768452Y-22319819D02*
X53625595Y-22367438D01*
X53292261Y-22319819D02*
X53054166Y-23319819D01*
X53054166Y-23319819D02*
X52863690Y-22605533D01*
X52863690Y-22605533D02*
X52673214Y-23319819D01*
X52673214Y-23319819D02*
X52435119Y-22319819D01*
X51530357Y-23319819D02*
X52101785Y-23319819D01*
X51816071Y-23319819D02*
X51816071Y-22319819D01*
X51816071Y-22319819D02*
X51911309Y-22462676D01*
X51911309Y-22462676D02*
X52006547Y-22557914D01*
X52006547Y-22557914D02*
X52101785Y-22605533D01*
X51054166Y-23319819D02*
X50863690Y-23319819D01*
X50863690Y-23319819D02*
X50768452Y-23272200D01*
X50768452Y-23272200D02*
X50720833Y-23224580D01*
X50720833Y-23224580D02*
X50625595Y-23081723D01*
X50625595Y-23081723D02*
X50577976Y-22891247D01*
X50577976Y-22891247D02*
X50577976Y-22510295D01*
X50577976Y-22510295D02*
X50625595Y-22415057D01*
X50625595Y-22415057D02*
X50673214Y-22367438D01*
X50673214Y-22367438D02*
X50768452Y-22319819D01*
X50768452Y-22319819D02*
X50958928Y-22319819D01*
X50958928Y-22319819D02*
X51054166Y-22367438D01*
X51054166Y-22367438D02*
X51101785Y-22415057D01*
X51101785Y-22415057D02*
X51149404Y-22510295D01*
X51149404Y-22510295D02*
X51149404Y-22748390D01*
X51149404Y-22748390D02*
X51101785Y-22843628D01*
X51101785Y-22843628D02*
X51054166Y-22891247D01*
X51054166Y-22891247D02*
X50958928Y-22938866D01*
X50958928Y-22938866D02*
X50768452Y-22938866D01*
X50768452Y-22938866D02*
X50673214Y-22891247D01*
X50673214Y-22891247D02*
X50625595Y-22843628D01*
X50625595Y-22843628D02*
X50577976Y-22748390D01*
X73247023Y-59467200D02*
X73104166Y-59514819D01*
X73104166Y-59514819D02*
X72866071Y-59514819D01*
X72866071Y-59514819D02*
X72770833Y-59467200D01*
X72770833Y-59467200D02*
X72723214Y-59419580D01*
X72723214Y-59419580D02*
X72675595Y-59324342D01*
X72675595Y-59324342D02*
X72675595Y-59229104D01*
X72675595Y-59229104D02*
X72723214Y-59133866D01*
X72723214Y-59133866D02*
X72770833Y-59086247D01*
X72770833Y-59086247D02*
X72866071Y-59038628D01*
X72866071Y-59038628D02*
X73056547Y-58991009D01*
X73056547Y-58991009D02*
X73151785Y-58943390D01*
X73151785Y-58943390D02*
X73199404Y-58895771D01*
X73199404Y-58895771D02*
X73247023Y-58800533D01*
X73247023Y-58800533D02*
X73247023Y-58705295D01*
X73247023Y-58705295D02*
X73199404Y-58610057D01*
X73199404Y-58610057D02*
X73151785Y-58562438D01*
X73151785Y-58562438D02*
X73056547Y-58514819D01*
X73056547Y-58514819D02*
X72818452Y-58514819D01*
X72818452Y-58514819D02*
X72675595Y-58562438D01*
X72342261Y-58514819D02*
X72104166Y-59514819D01*
X72104166Y-59514819D02*
X71913690Y-58800533D01*
X71913690Y-58800533D02*
X71723214Y-59514819D01*
X71723214Y-59514819D02*
X71485119Y-58514819D01*
X70675595Y-58848152D02*
X70675595Y-59514819D01*
X70913690Y-58467200D02*
X71151785Y-59181485D01*
X71151785Y-59181485D02*
X70532738Y-59181485D01*
X70247023Y-58514819D02*
X69627976Y-58514819D01*
X69627976Y-58514819D02*
X69961309Y-58895771D01*
X69961309Y-58895771D02*
X69818452Y-58895771D01*
X69818452Y-58895771D02*
X69723214Y-58943390D01*
X69723214Y-58943390D02*
X69675595Y-58991009D01*
X69675595Y-58991009D02*
X69627976Y-59086247D01*
X69627976Y-59086247D02*
X69627976Y-59324342D01*
X69627976Y-59324342D02*
X69675595Y-59419580D01*
X69675595Y-59419580D02*
X69723214Y-59467200D01*
X69723214Y-59467200D02*
X69818452Y-59514819D01*
X69818452Y-59514819D02*
X70104166Y-59514819D01*
X70104166Y-59514819D02*
X70199404Y-59467200D01*
X70199404Y-59467200D02*
X70247023Y-59419580D01*
X32765823Y-62324700D02*
X32622966Y-62372319D01*
X32622966Y-62372319D02*
X32384871Y-62372319D01*
X32384871Y-62372319D02*
X32289633Y-62324700D01*
X32289633Y-62324700D02*
X32242014Y-62277080D01*
X32242014Y-62277080D02*
X32194395Y-62181842D01*
X32194395Y-62181842D02*
X32194395Y-62086604D01*
X32194395Y-62086604D02*
X32242014Y-61991366D01*
X32242014Y-61991366D02*
X32289633Y-61943747D01*
X32289633Y-61943747D02*
X32384871Y-61896128D01*
X32384871Y-61896128D02*
X32575347Y-61848509D01*
X32575347Y-61848509D02*
X32670585Y-61800890D01*
X32670585Y-61800890D02*
X32718204Y-61753271D01*
X32718204Y-61753271D02*
X32765823Y-61658033D01*
X32765823Y-61658033D02*
X32765823Y-61562795D01*
X32765823Y-61562795D02*
X32718204Y-61467557D01*
X32718204Y-61467557D02*
X32670585Y-61419938D01*
X32670585Y-61419938D02*
X32575347Y-61372319D01*
X32575347Y-61372319D02*
X32337252Y-61372319D01*
X32337252Y-61372319D02*
X32194395Y-61419938D01*
X31861061Y-61372319D02*
X31622966Y-62372319D01*
X31622966Y-62372319D02*
X31432490Y-61658033D01*
X31432490Y-61658033D02*
X31242014Y-62372319D01*
X31242014Y-62372319D02*
X31003919Y-61372319D01*
X30146776Y-61372319D02*
X30622966Y-61372319D01*
X30622966Y-61372319D02*
X30670585Y-61848509D01*
X30670585Y-61848509D02*
X30622966Y-61800890D01*
X30622966Y-61800890D02*
X30527728Y-61753271D01*
X30527728Y-61753271D02*
X30289633Y-61753271D01*
X30289633Y-61753271D02*
X30194395Y-61800890D01*
X30194395Y-61800890D02*
X30146776Y-61848509D01*
X30146776Y-61848509D02*
X30099157Y-61943747D01*
X30099157Y-61943747D02*
X30099157Y-62181842D01*
X30099157Y-62181842D02*
X30146776Y-62277080D01*
X30146776Y-62277080D02*
X30194395Y-62324700D01*
X30194395Y-62324700D02*
X30289633Y-62372319D01*
X30289633Y-62372319D02*
X30527728Y-62372319D01*
X30527728Y-62372319D02*
X30622966Y-62324700D01*
X30622966Y-62324700D02*
X30670585Y-62277080D01*
X29146776Y-62372319D02*
X29718204Y-62372319D01*
X29432490Y-62372319D02*
X29432490Y-61372319D01*
X29432490Y-61372319D02*
X29527728Y-61515176D01*
X29527728Y-61515176D02*
X29622966Y-61610414D01*
X29622966Y-61610414D02*
X29718204Y-61658033D01*
X53720832Y-4222200D02*
X53577975Y-4269819D01*
X53577975Y-4269819D02*
X53339880Y-4269819D01*
X53339880Y-4269819D02*
X53244642Y-4222200D01*
X53244642Y-4222200D02*
X53197023Y-4174580D01*
X53197023Y-4174580D02*
X53149404Y-4079342D01*
X53149404Y-4079342D02*
X53149404Y-3984104D01*
X53149404Y-3984104D02*
X53197023Y-3888866D01*
X53197023Y-3888866D02*
X53244642Y-3841247D01*
X53244642Y-3841247D02*
X53339880Y-3793628D01*
X53339880Y-3793628D02*
X53530356Y-3746009D01*
X53530356Y-3746009D02*
X53625594Y-3698390D01*
X53625594Y-3698390D02*
X53673213Y-3650771D01*
X53673213Y-3650771D02*
X53720832Y-3555533D01*
X53720832Y-3555533D02*
X53720832Y-3460295D01*
X53720832Y-3460295D02*
X53673213Y-3365057D01*
X53673213Y-3365057D02*
X53625594Y-3317438D01*
X53625594Y-3317438D02*
X53530356Y-3269819D01*
X53530356Y-3269819D02*
X53292261Y-3269819D01*
X53292261Y-3269819D02*
X53149404Y-3317438D01*
X52816070Y-3269819D02*
X52577975Y-4269819D01*
X52577975Y-4269819D02*
X52387499Y-3555533D01*
X52387499Y-3555533D02*
X52197023Y-4269819D01*
X52197023Y-4269819D02*
X51958928Y-3269819D01*
X51673213Y-3269819D02*
X51006547Y-3269819D01*
X51006547Y-3269819D02*
X51435118Y-4269819D01*
X35147023Y-5174700D02*
X35004166Y-5222319D01*
X35004166Y-5222319D02*
X34766071Y-5222319D01*
X34766071Y-5222319D02*
X34670833Y-5174700D01*
X34670833Y-5174700D02*
X34623214Y-5127080D01*
X34623214Y-5127080D02*
X34575595Y-5031842D01*
X34575595Y-5031842D02*
X34575595Y-4936604D01*
X34575595Y-4936604D02*
X34623214Y-4841366D01*
X34623214Y-4841366D02*
X34670833Y-4793747D01*
X34670833Y-4793747D02*
X34766071Y-4746128D01*
X34766071Y-4746128D02*
X34956547Y-4698509D01*
X34956547Y-4698509D02*
X35051785Y-4650890D01*
X35051785Y-4650890D02*
X35099404Y-4603271D01*
X35099404Y-4603271D02*
X35147023Y-4508033D01*
X35147023Y-4508033D02*
X35147023Y-4412795D01*
X35147023Y-4412795D02*
X35099404Y-4317557D01*
X35099404Y-4317557D02*
X35051785Y-4269938D01*
X35051785Y-4269938D02*
X34956547Y-4222319D01*
X34956547Y-4222319D02*
X34718452Y-4222319D01*
X34718452Y-4222319D02*
X34575595Y-4269938D01*
X34242261Y-4222319D02*
X34004166Y-5222319D01*
X34004166Y-5222319D02*
X33813690Y-4508033D01*
X33813690Y-4508033D02*
X33623214Y-5222319D01*
X33623214Y-5222319D02*
X33385119Y-4222319D01*
X32480357Y-5222319D02*
X33051785Y-5222319D01*
X32766071Y-5222319D02*
X32766071Y-4222319D01*
X32766071Y-4222319D02*
X32861309Y-4365176D01*
X32861309Y-4365176D02*
X32956547Y-4460414D01*
X32956547Y-4460414D02*
X33051785Y-4508033D01*
X31527976Y-5222319D02*
X32099404Y-5222319D01*
X31813690Y-5222319D02*
X31813690Y-4222319D01*
X31813690Y-4222319D02*
X31908928Y-4365176D01*
X31908928Y-4365176D02*
X32004166Y-4460414D01*
X32004166Y-4460414D02*
X32099404Y-4508033D01*
X92297023Y-19462200D02*
X92154166Y-19509819D01*
X92154166Y-19509819D02*
X91916071Y-19509819D01*
X91916071Y-19509819D02*
X91820833Y-19462200D01*
X91820833Y-19462200D02*
X91773214Y-19414580D01*
X91773214Y-19414580D02*
X91725595Y-19319342D01*
X91725595Y-19319342D02*
X91725595Y-19224104D01*
X91725595Y-19224104D02*
X91773214Y-19128866D01*
X91773214Y-19128866D02*
X91820833Y-19081247D01*
X91820833Y-19081247D02*
X91916071Y-19033628D01*
X91916071Y-19033628D02*
X92106547Y-18986009D01*
X92106547Y-18986009D02*
X92201785Y-18938390D01*
X92201785Y-18938390D02*
X92249404Y-18890771D01*
X92249404Y-18890771D02*
X92297023Y-18795533D01*
X92297023Y-18795533D02*
X92297023Y-18700295D01*
X92297023Y-18700295D02*
X92249404Y-18605057D01*
X92249404Y-18605057D02*
X92201785Y-18557438D01*
X92201785Y-18557438D02*
X92106547Y-18509819D01*
X92106547Y-18509819D02*
X91868452Y-18509819D01*
X91868452Y-18509819D02*
X91725595Y-18557438D01*
X91392261Y-18509819D02*
X91154166Y-19509819D01*
X91154166Y-19509819D02*
X90963690Y-18795533D01*
X90963690Y-18795533D02*
X90773214Y-19509819D01*
X90773214Y-19509819D02*
X90535119Y-18509819D01*
X89630357Y-19509819D02*
X90201785Y-19509819D01*
X89916071Y-19509819D02*
X89916071Y-18509819D01*
X89916071Y-18509819D02*
X90011309Y-18652676D01*
X90011309Y-18652676D02*
X90106547Y-18747914D01*
X90106547Y-18747914D02*
X90201785Y-18795533D01*
X89297023Y-18509819D02*
X88677976Y-18509819D01*
X88677976Y-18509819D02*
X89011309Y-18890771D01*
X89011309Y-18890771D02*
X88868452Y-18890771D01*
X88868452Y-18890771D02*
X88773214Y-18938390D01*
X88773214Y-18938390D02*
X88725595Y-18986009D01*
X88725595Y-18986009D02*
X88677976Y-19081247D01*
X88677976Y-19081247D02*
X88677976Y-19319342D01*
X88677976Y-19319342D02*
X88725595Y-19414580D01*
X88725595Y-19414580D02*
X88773214Y-19462200D01*
X88773214Y-19462200D02*
X88868452Y-19509819D01*
X88868452Y-19509819D02*
X89154166Y-19509819D01*
X89154166Y-19509819D02*
X89249404Y-19462200D01*
X89249404Y-19462200D02*
X89297023Y-19414580D01*
X130397023Y-61372200D02*
X130254166Y-61419819D01*
X130254166Y-61419819D02*
X130016071Y-61419819D01*
X130016071Y-61419819D02*
X129920833Y-61372200D01*
X129920833Y-61372200D02*
X129873214Y-61324580D01*
X129873214Y-61324580D02*
X129825595Y-61229342D01*
X129825595Y-61229342D02*
X129825595Y-61134104D01*
X129825595Y-61134104D02*
X129873214Y-61038866D01*
X129873214Y-61038866D02*
X129920833Y-60991247D01*
X129920833Y-60991247D02*
X130016071Y-60943628D01*
X130016071Y-60943628D02*
X130206547Y-60896009D01*
X130206547Y-60896009D02*
X130301785Y-60848390D01*
X130301785Y-60848390D02*
X130349404Y-60800771D01*
X130349404Y-60800771D02*
X130397023Y-60705533D01*
X130397023Y-60705533D02*
X130397023Y-60610295D01*
X130397023Y-60610295D02*
X130349404Y-60515057D01*
X130349404Y-60515057D02*
X130301785Y-60467438D01*
X130301785Y-60467438D02*
X130206547Y-60419819D01*
X130206547Y-60419819D02*
X129968452Y-60419819D01*
X129968452Y-60419819D02*
X129825595Y-60467438D01*
X129492261Y-60419819D02*
X129254166Y-61419819D01*
X129254166Y-61419819D02*
X129063690Y-60705533D01*
X129063690Y-60705533D02*
X128873214Y-61419819D01*
X128873214Y-61419819D02*
X128635119Y-60419819D01*
X127825595Y-60753152D02*
X127825595Y-61419819D01*
X128063690Y-60372200D02*
X128301785Y-61086485D01*
X128301785Y-61086485D02*
X127682738Y-61086485D01*
X127158928Y-60848390D02*
X127254166Y-60800771D01*
X127254166Y-60800771D02*
X127301785Y-60753152D01*
X127301785Y-60753152D02*
X127349404Y-60657914D01*
X127349404Y-60657914D02*
X127349404Y-60610295D01*
X127349404Y-60610295D02*
X127301785Y-60515057D01*
X127301785Y-60515057D02*
X127254166Y-60467438D01*
X127254166Y-60467438D02*
X127158928Y-60419819D01*
X127158928Y-60419819D02*
X126968452Y-60419819D01*
X126968452Y-60419819D02*
X126873214Y-60467438D01*
X126873214Y-60467438D02*
X126825595Y-60515057D01*
X126825595Y-60515057D02*
X126777976Y-60610295D01*
X126777976Y-60610295D02*
X126777976Y-60657914D01*
X126777976Y-60657914D02*
X126825595Y-60753152D01*
X126825595Y-60753152D02*
X126873214Y-60800771D01*
X126873214Y-60800771D02*
X126968452Y-60848390D01*
X126968452Y-60848390D02*
X127158928Y-60848390D01*
X127158928Y-60848390D02*
X127254166Y-60896009D01*
X127254166Y-60896009D02*
X127301785Y-60943628D01*
X127301785Y-60943628D02*
X127349404Y-61038866D01*
X127349404Y-61038866D02*
X127349404Y-61229342D01*
X127349404Y-61229342D02*
X127301785Y-61324580D01*
X127301785Y-61324580D02*
X127254166Y-61372200D01*
X127254166Y-61372200D02*
X127158928Y-61419819D01*
X127158928Y-61419819D02*
X126968452Y-61419819D01*
X126968452Y-61419819D02*
X126873214Y-61372200D01*
X126873214Y-61372200D02*
X126825595Y-61324580D01*
X126825595Y-61324580D02*
X126777976Y-61229342D01*
X126777976Y-61229342D02*
X126777976Y-61038866D01*
X126777976Y-61038866D02*
X126825595Y-60943628D01*
X126825595Y-60943628D02*
X126873214Y-60896009D01*
X126873214Y-60896009D02*
X126968452Y-60848390D01*
X54197023Y-61372200D02*
X54054166Y-61419819D01*
X54054166Y-61419819D02*
X53816071Y-61419819D01*
X53816071Y-61419819D02*
X53720833Y-61372200D01*
X53720833Y-61372200D02*
X53673214Y-61324580D01*
X53673214Y-61324580D02*
X53625595Y-61229342D01*
X53625595Y-61229342D02*
X53625595Y-61134104D01*
X53625595Y-61134104D02*
X53673214Y-61038866D01*
X53673214Y-61038866D02*
X53720833Y-60991247D01*
X53720833Y-60991247D02*
X53816071Y-60943628D01*
X53816071Y-60943628D02*
X54006547Y-60896009D01*
X54006547Y-60896009D02*
X54101785Y-60848390D01*
X54101785Y-60848390D02*
X54149404Y-60800771D01*
X54149404Y-60800771D02*
X54197023Y-60705533D01*
X54197023Y-60705533D02*
X54197023Y-60610295D01*
X54197023Y-60610295D02*
X54149404Y-60515057D01*
X54149404Y-60515057D02*
X54101785Y-60467438D01*
X54101785Y-60467438D02*
X54006547Y-60419819D01*
X54006547Y-60419819D02*
X53768452Y-60419819D01*
X53768452Y-60419819D02*
X53625595Y-60467438D01*
X53292261Y-60419819D02*
X53054166Y-61419819D01*
X53054166Y-61419819D02*
X52863690Y-60705533D01*
X52863690Y-60705533D02*
X52673214Y-61419819D01*
X52673214Y-61419819D02*
X52435119Y-60419819D01*
X51625595Y-60753152D02*
X51625595Y-61419819D01*
X51863690Y-60372200D02*
X52101785Y-61086485D01*
X52101785Y-61086485D02*
X51482738Y-61086485D01*
X51197023Y-60419819D02*
X50530357Y-60419819D01*
X50530357Y-60419819D02*
X50958928Y-61419819D01*
X92297023Y-38512200D02*
X92154166Y-38559819D01*
X92154166Y-38559819D02*
X91916071Y-38559819D01*
X91916071Y-38559819D02*
X91820833Y-38512200D01*
X91820833Y-38512200D02*
X91773214Y-38464580D01*
X91773214Y-38464580D02*
X91725595Y-38369342D01*
X91725595Y-38369342D02*
X91725595Y-38274104D01*
X91725595Y-38274104D02*
X91773214Y-38178866D01*
X91773214Y-38178866D02*
X91820833Y-38131247D01*
X91820833Y-38131247D02*
X91916071Y-38083628D01*
X91916071Y-38083628D02*
X92106547Y-38036009D01*
X92106547Y-38036009D02*
X92201785Y-37988390D01*
X92201785Y-37988390D02*
X92249404Y-37940771D01*
X92249404Y-37940771D02*
X92297023Y-37845533D01*
X92297023Y-37845533D02*
X92297023Y-37750295D01*
X92297023Y-37750295D02*
X92249404Y-37655057D01*
X92249404Y-37655057D02*
X92201785Y-37607438D01*
X92201785Y-37607438D02*
X92106547Y-37559819D01*
X92106547Y-37559819D02*
X91868452Y-37559819D01*
X91868452Y-37559819D02*
X91725595Y-37607438D01*
X91392261Y-37559819D02*
X91154166Y-38559819D01*
X91154166Y-38559819D02*
X90963690Y-37845533D01*
X90963690Y-37845533D02*
X90773214Y-38559819D01*
X90773214Y-38559819D02*
X90535119Y-37559819D01*
X90201785Y-37655057D02*
X90154166Y-37607438D01*
X90154166Y-37607438D02*
X90058928Y-37559819D01*
X90058928Y-37559819D02*
X89820833Y-37559819D01*
X89820833Y-37559819D02*
X89725595Y-37607438D01*
X89725595Y-37607438D02*
X89677976Y-37655057D01*
X89677976Y-37655057D02*
X89630357Y-37750295D01*
X89630357Y-37750295D02*
X89630357Y-37845533D01*
X89630357Y-37845533D02*
X89677976Y-37988390D01*
X89677976Y-37988390D02*
X90249404Y-38559819D01*
X90249404Y-38559819D02*
X89630357Y-38559819D01*
X88725595Y-37559819D02*
X89201785Y-37559819D01*
X89201785Y-37559819D02*
X89249404Y-38036009D01*
X89249404Y-38036009D02*
X89201785Y-37988390D01*
X89201785Y-37988390D02*
X89106547Y-37940771D01*
X89106547Y-37940771D02*
X88868452Y-37940771D01*
X88868452Y-37940771D02*
X88773214Y-37988390D01*
X88773214Y-37988390D02*
X88725595Y-38036009D01*
X88725595Y-38036009D02*
X88677976Y-38131247D01*
X88677976Y-38131247D02*
X88677976Y-38369342D01*
X88677976Y-38369342D02*
X88725595Y-38464580D01*
X88725595Y-38464580D02*
X88773214Y-38512200D01*
X88773214Y-38512200D02*
X88868452Y-38559819D01*
X88868452Y-38559819D02*
X89106547Y-38559819D01*
X89106547Y-38559819D02*
X89201785Y-38512200D01*
X89201785Y-38512200D02*
X89249404Y-38464580D01*
X129920832Y-4222200D02*
X129777975Y-4269819D01*
X129777975Y-4269819D02*
X129539880Y-4269819D01*
X129539880Y-4269819D02*
X129444642Y-4222200D01*
X129444642Y-4222200D02*
X129397023Y-4174580D01*
X129397023Y-4174580D02*
X129349404Y-4079342D01*
X129349404Y-4079342D02*
X129349404Y-3984104D01*
X129349404Y-3984104D02*
X129397023Y-3888866D01*
X129397023Y-3888866D02*
X129444642Y-3841247D01*
X129444642Y-3841247D02*
X129539880Y-3793628D01*
X129539880Y-3793628D02*
X129730356Y-3746009D01*
X129730356Y-3746009D02*
X129825594Y-3698390D01*
X129825594Y-3698390D02*
X129873213Y-3650771D01*
X129873213Y-3650771D02*
X129920832Y-3555533D01*
X129920832Y-3555533D02*
X129920832Y-3460295D01*
X129920832Y-3460295D02*
X129873213Y-3365057D01*
X129873213Y-3365057D02*
X129825594Y-3317438D01*
X129825594Y-3317438D02*
X129730356Y-3269819D01*
X129730356Y-3269819D02*
X129492261Y-3269819D01*
X129492261Y-3269819D02*
X129349404Y-3317438D01*
X129016070Y-3269819D02*
X128777975Y-4269819D01*
X128777975Y-4269819D02*
X128587499Y-3555533D01*
X128587499Y-3555533D02*
X128397023Y-4269819D01*
X128397023Y-4269819D02*
X128158928Y-3269819D01*
X127635118Y-3698390D02*
X127730356Y-3650771D01*
X127730356Y-3650771D02*
X127777975Y-3603152D01*
X127777975Y-3603152D02*
X127825594Y-3507914D01*
X127825594Y-3507914D02*
X127825594Y-3460295D01*
X127825594Y-3460295D02*
X127777975Y-3365057D01*
X127777975Y-3365057D02*
X127730356Y-3317438D01*
X127730356Y-3317438D02*
X127635118Y-3269819D01*
X127635118Y-3269819D02*
X127444642Y-3269819D01*
X127444642Y-3269819D02*
X127349404Y-3317438D01*
X127349404Y-3317438D02*
X127301785Y-3365057D01*
X127301785Y-3365057D02*
X127254166Y-3460295D01*
X127254166Y-3460295D02*
X127254166Y-3507914D01*
X127254166Y-3507914D02*
X127301785Y-3603152D01*
X127301785Y-3603152D02*
X127349404Y-3650771D01*
X127349404Y-3650771D02*
X127444642Y-3698390D01*
X127444642Y-3698390D02*
X127635118Y-3698390D01*
X127635118Y-3698390D02*
X127730356Y-3746009D01*
X127730356Y-3746009D02*
X127777975Y-3793628D01*
X127777975Y-3793628D02*
X127825594Y-3888866D01*
X127825594Y-3888866D02*
X127825594Y-4079342D01*
X127825594Y-4079342D02*
X127777975Y-4174580D01*
X127777975Y-4174580D02*
X127730356Y-4222200D01*
X127730356Y-4222200D02*
X127635118Y-4269819D01*
X127635118Y-4269819D02*
X127444642Y-4269819D01*
X127444642Y-4269819D02*
X127349404Y-4222200D01*
X127349404Y-4222200D02*
X127301785Y-4174580D01*
X127301785Y-4174580D02*
X127254166Y-4079342D01*
X127254166Y-4079342D02*
X127254166Y-3888866D01*
X127254166Y-3888866D02*
X127301785Y-3793628D01*
X127301785Y-3793628D02*
X127349404Y-3746009D01*
X127349404Y-3746009D02*
X127444642Y-3698390D01*
X111347023Y-40417200D02*
X111204166Y-40464819D01*
X111204166Y-40464819D02*
X110966071Y-40464819D01*
X110966071Y-40464819D02*
X110870833Y-40417200D01*
X110870833Y-40417200D02*
X110823214Y-40369580D01*
X110823214Y-40369580D02*
X110775595Y-40274342D01*
X110775595Y-40274342D02*
X110775595Y-40179104D01*
X110775595Y-40179104D02*
X110823214Y-40083866D01*
X110823214Y-40083866D02*
X110870833Y-40036247D01*
X110870833Y-40036247D02*
X110966071Y-39988628D01*
X110966071Y-39988628D02*
X111156547Y-39941009D01*
X111156547Y-39941009D02*
X111251785Y-39893390D01*
X111251785Y-39893390D02*
X111299404Y-39845771D01*
X111299404Y-39845771D02*
X111347023Y-39750533D01*
X111347023Y-39750533D02*
X111347023Y-39655295D01*
X111347023Y-39655295D02*
X111299404Y-39560057D01*
X111299404Y-39560057D02*
X111251785Y-39512438D01*
X111251785Y-39512438D02*
X111156547Y-39464819D01*
X111156547Y-39464819D02*
X110918452Y-39464819D01*
X110918452Y-39464819D02*
X110775595Y-39512438D01*
X110442261Y-39464819D02*
X110204166Y-40464819D01*
X110204166Y-40464819D02*
X110013690Y-39750533D01*
X110013690Y-39750533D02*
X109823214Y-40464819D01*
X109823214Y-40464819D02*
X109585119Y-39464819D01*
X109299404Y-39464819D02*
X108680357Y-39464819D01*
X108680357Y-39464819D02*
X109013690Y-39845771D01*
X109013690Y-39845771D02*
X108870833Y-39845771D01*
X108870833Y-39845771D02*
X108775595Y-39893390D01*
X108775595Y-39893390D02*
X108727976Y-39941009D01*
X108727976Y-39941009D02*
X108680357Y-40036247D01*
X108680357Y-40036247D02*
X108680357Y-40274342D01*
X108680357Y-40274342D02*
X108727976Y-40369580D01*
X108727976Y-40369580D02*
X108775595Y-40417200D01*
X108775595Y-40417200D02*
X108870833Y-40464819D01*
X108870833Y-40464819D02*
X109156547Y-40464819D01*
X109156547Y-40464819D02*
X109251785Y-40417200D01*
X109251785Y-40417200D02*
X109299404Y-40369580D01*
X108061309Y-39464819D02*
X107966071Y-39464819D01*
X107966071Y-39464819D02*
X107870833Y-39512438D01*
X107870833Y-39512438D02*
X107823214Y-39560057D01*
X107823214Y-39560057D02*
X107775595Y-39655295D01*
X107775595Y-39655295D02*
X107727976Y-39845771D01*
X107727976Y-39845771D02*
X107727976Y-40083866D01*
X107727976Y-40083866D02*
X107775595Y-40274342D01*
X107775595Y-40274342D02*
X107823214Y-40369580D01*
X107823214Y-40369580D02*
X107870833Y-40417200D01*
X107870833Y-40417200D02*
X107966071Y-40464819D01*
X107966071Y-40464819D02*
X108061309Y-40464819D01*
X108061309Y-40464819D02*
X108156547Y-40417200D01*
X108156547Y-40417200D02*
X108204166Y-40369580D01*
X108204166Y-40369580D02*
X108251785Y-40274342D01*
X108251785Y-40274342D02*
X108299404Y-40083866D01*
X108299404Y-40083866D02*
X108299404Y-39845771D01*
X108299404Y-39845771D02*
X108251785Y-39655295D01*
X108251785Y-39655295D02*
X108204166Y-39560057D01*
X108204166Y-39560057D02*
X108156547Y-39512438D01*
X108156547Y-39512438D02*
X108061309Y-39464819D01*
X101754819Y-12611905D02*
X100754819Y-12611905D01*
X100754819Y-12611905D02*
X100754819Y-12850000D01*
X100754819Y-12850000D02*
X100802438Y-12992857D01*
X100802438Y-12992857D02*
X100897676Y-13088095D01*
X100897676Y-13088095D02*
X100992914Y-13135714D01*
X100992914Y-13135714D02*
X101183390Y-13183333D01*
X101183390Y-13183333D02*
X101326247Y-13183333D01*
X101326247Y-13183333D02*
X101516723Y-13135714D01*
X101516723Y-13135714D02*
X101611961Y-13088095D01*
X101611961Y-13088095D02*
X101707200Y-12992857D01*
X101707200Y-12992857D02*
X101754819Y-12850000D01*
X101754819Y-12850000D02*
X101754819Y-12611905D01*
X101754819Y-14135714D02*
X101754819Y-13564286D01*
X101754819Y-13850000D02*
X100754819Y-13850000D01*
X100754819Y-13850000D02*
X100897676Y-13754762D01*
X100897676Y-13754762D02*
X100992914Y-13659524D01*
X100992914Y-13659524D02*
X101040533Y-13564286D01*
X100754819Y-69135714D02*
X99754819Y-69135714D01*
X99754819Y-69135714D02*
X99754819Y-69373809D01*
X99754819Y-69373809D02*
X99802438Y-69516666D01*
X99802438Y-69516666D02*
X99897676Y-69611904D01*
X99897676Y-69611904D02*
X99992914Y-69659523D01*
X99992914Y-69659523D02*
X100183390Y-69707142D01*
X100183390Y-69707142D02*
X100326247Y-69707142D01*
X100326247Y-69707142D02*
X100516723Y-69659523D01*
X100516723Y-69659523D02*
X100611961Y-69611904D01*
X100611961Y-69611904D02*
X100707200Y-69516666D01*
X100707200Y-69516666D02*
X100754819Y-69373809D01*
X100754819Y-69373809D02*
X100754819Y-69135714D01*
X100088152Y-70564285D02*
X100754819Y-70564285D01*
X99707200Y-70326190D02*
X100421485Y-70088095D01*
X100421485Y-70088095D02*
X100421485Y-70707142D01*
X99754819Y-71278571D02*
X99754819Y-71373809D01*
X99754819Y-71373809D02*
X99802438Y-71469047D01*
X99802438Y-71469047D02*
X99850057Y-71516666D01*
X99850057Y-71516666D02*
X99945295Y-71564285D01*
X99945295Y-71564285D02*
X100135771Y-71611904D01*
X100135771Y-71611904D02*
X100373866Y-71611904D01*
X100373866Y-71611904D02*
X100564342Y-71564285D01*
X100564342Y-71564285D02*
X100659580Y-71516666D01*
X100659580Y-71516666D02*
X100707200Y-71469047D01*
X100707200Y-71469047D02*
X100754819Y-71373809D01*
X100754819Y-71373809D02*
X100754819Y-71278571D01*
X100754819Y-71278571D02*
X100707200Y-71183333D01*
X100707200Y-71183333D02*
X100659580Y-71135714D01*
X100659580Y-71135714D02*
X100564342Y-71088095D01*
X100564342Y-71088095D02*
X100373866Y-71040476D01*
X100373866Y-71040476D02*
X100135771Y-71040476D01*
X100135771Y-71040476D02*
X99945295Y-71088095D01*
X99945295Y-71088095D02*
X99850057Y-71135714D01*
X99850057Y-71135714D02*
X99802438Y-71183333D01*
X99802438Y-71183333D02*
X99754819Y-71278571D01*
X143833333Y-27229819D02*
X143833333Y-27944104D01*
X143833333Y-27944104D02*
X143880952Y-28086961D01*
X143880952Y-28086961D02*
X143976190Y-28182200D01*
X143976190Y-28182200D02*
X144119047Y-28229819D01*
X144119047Y-28229819D02*
X144214285Y-28229819D01*
X142833333Y-28229819D02*
X143404761Y-28229819D01*
X143119047Y-28229819D02*
X143119047Y-27229819D01*
X143119047Y-27229819D02*
X143214285Y-27372676D01*
X143214285Y-27372676D02*
X143309523Y-27467914D01*
X143309523Y-27467914D02*
X143404761Y-27515533D01*
X147595238Y-50894819D02*
X148071428Y-50894819D01*
X148071428Y-50894819D02*
X148071428Y-49894819D01*
X147261904Y-50371009D02*
X146928571Y-50371009D01*
X146785714Y-50894819D02*
X147261904Y-50894819D01*
X147261904Y-50894819D02*
X147261904Y-49894819D01*
X147261904Y-49894819D02*
X146785714Y-49894819D01*
X146357142Y-50894819D02*
X146357142Y-49894819D01*
X146357142Y-49894819D02*
X146119047Y-49894819D01*
X146119047Y-49894819D02*
X145976190Y-49942438D01*
X145976190Y-49942438D02*
X145880952Y-50037676D01*
X145880952Y-50037676D02*
X145833333Y-50132914D01*
X145833333Y-50132914D02*
X145785714Y-50323390D01*
X145785714Y-50323390D02*
X145785714Y-50466247D01*
X145785714Y-50466247D02*
X145833333Y-50656723D01*
X145833333Y-50656723D02*
X145880952Y-50751961D01*
X145880952Y-50751961D02*
X145976190Y-50847200D01*
X145976190Y-50847200D02*
X146119047Y-50894819D01*
X146119047Y-50894819D02*
X146357142Y-50894819D01*
X145404761Y-49990057D02*
X145357142Y-49942438D01*
X145357142Y-49942438D02*
X145261904Y-49894819D01*
X145261904Y-49894819D02*
X145023809Y-49894819D01*
X145023809Y-49894819D02*
X144928571Y-49942438D01*
X144928571Y-49942438D02*
X144880952Y-49990057D01*
X144880952Y-49990057D02*
X144833333Y-50085295D01*
X144833333Y-50085295D02*
X144833333Y-50180533D01*
X144833333Y-50180533D02*
X144880952Y-50323390D01*
X144880952Y-50323390D02*
X145452380Y-50894819D01*
X145452380Y-50894819D02*
X144833333Y-50894819D01*
X143976190Y-49894819D02*
X144166666Y-49894819D01*
X144166666Y-49894819D02*
X144261904Y-49942438D01*
X144261904Y-49942438D02*
X144309523Y-49990057D01*
X144309523Y-49990057D02*
X144404761Y-50132914D01*
X144404761Y-50132914D02*
X144452380Y-50323390D01*
X144452380Y-50323390D02*
X144452380Y-50704342D01*
X144452380Y-50704342D02*
X144404761Y-50799580D01*
X144404761Y-50799580D02*
X144357142Y-50847200D01*
X144357142Y-50847200D02*
X144261904Y-50894819D01*
X144261904Y-50894819D02*
X144071428Y-50894819D01*
X144071428Y-50894819D02*
X143976190Y-50847200D01*
X143976190Y-50847200D02*
X143928571Y-50799580D01*
X143928571Y-50799580D02*
X143880952Y-50704342D01*
X143880952Y-50704342D02*
X143880952Y-50466247D01*
X143880952Y-50466247D02*
X143928571Y-50371009D01*
X143928571Y-50371009D02*
X143976190Y-50323390D01*
X143976190Y-50323390D02*
X144071428Y-50275771D01*
X144071428Y-50275771D02*
X144261904Y-50275771D01*
X144261904Y-50275771D02*
X144357142Y-50323390D01*
X144357142Y-50323390D02*
X144404761Y-50371009D01*
X144404761Y-50371009D02*
X144452380Y-50466247D01*
X139754819Y-38285714D02*
X138754819Y-38285714D01*
X138754819Y-38285714D02*
X138754819Y-38523809D01*
X138754819Y-38523809D02*
X138802438Y-38666666D01*
X138802438Y-38666666D02*
X138897676Y-38761904D01*
X138897676Y-38761904D02*
X138992914Y-38809523D01*
X138992914Y-38809523D02*
X139183390Y-38857142D01*
X139183390Y-38857142D02*
X139326247Y-38857142D01*
X139326247Y-38857142D02*
X139516723Y-38809523D01*
X139516723Y-38809523D02*
X139611961Y-38761904D01*
X139611961Y-38761904D02*
X139707200Y-38666666D01*
X139707200Y-38666666D02*
X139754819Y-38523809D01*
X139754819Y-38523809D02*
X139754819Y-38285714D01*
X138850057Y-39238095D02*
X138802438Y-39285714D01*
X138802438Y-39285714D02*
X138754819Y-39380952D01*
X138754819Y-39380952D02*
X138754819Y-39619047D01*
X138754819Y-39619047D02*
X138802438Y-39714285D01*
X138802438Y-39714285D02*
X138850057Y-39761904D01*
X138850057Y-39761904D02*
X138945295Y-39809523D01*
X138945295Y-39809523D02*
X139040533Y-39809523D01*
X139040533Y-39809523D02*
X139183390Y-39761904D01*
X139183390Y-39761904D02*
X139754819Y-39190476D01*
X139754819Y-39190476D02*
X139754819Y-39809523D01*
X138754819Y-40428571D02*
X138754819Y-40523809D01*
X138754819Y-40523809D02*
X138802438Y-40619047D01*
X138802438Y-40619047D02*
X138850057Y-40666666D01*
X138850057Y-40666666D02*
X138945295Y-40714285D01*
X138945295Y-40714285D02*
X139135771Y-40761904D01*
X139135771Y-40761904D02*
X139373866Y-40761904D01*
X139373866Y-40761904D02*
X139564342Y-40714285D01*
X139564342Y-40714285D02*
X139659580Y-40666666D01*
X139659580Y-40666666D02*
X139707200Y-40619047D01*
X139707200Y-40619047D02*
X139754819Y-40523809D01*
X139754819Y-40523809D02*
X139754819Y-40428571D01*
X139754819Y-40428571D02*
X139707200Y-40333333D01*
X139707200Y-40333333D02*
X139659580Y-40285714D01*
X139659580Y-40285714D02*
X139564342Y-40238095D01*
X139564342Y-40238095D02*
X139373866Y-40190476D01*
X139373866Y-40190476D02*
X139135771Y-40190476D01*
X139135771Y-40190476D02*
X138945295Y-40238095D01*
X138945295Y-40238095D02*
X138850057Y-40285714D01*
X138850057Y-40285714D02*
X138802438Y-40333333D01*
X138802438Y-40333333D02*
X138754819Y-40428571D01*
X101254819Y-49135714D02*
X100254819Y-49135714D01*
X100254819Y-49135714D02*
X100254819Y-49373809D01*
X100254819Y-49373809D02*
X100302438Y-49516666D01*
X100302438Y-49516666D02*
X100397676Y-49611904D01*
X100397676Y-49611904D02*
X100492914Y-49659523D01*
X100492914Y-49659523D02*
X100683390Y-49707142D01*
X100683390Y-49707142D02*
X100826247Y-49707142D01*
X100826247Y-49707142D02*
X101016723Y-49659523D01*
X101016723Y-49659523D02*
X101111961Y-49611904D01*
X101111961Y-49611904D02*
X101207200Y-49516666D01*
X101207200Y-49516666D02*
X101254819Y-49373809D01*
X101254819Y-49373809D02*
X101254819Y-49135714D01*
X100350057Y-50088095D02*
X100302438Y-50135714D01*
X100302438Y-50135714D02*
X100254819Y-50230952D01*
X100254819Y-50230952D02*
X100254819Y-50469047D01*
X100254819Y-50469047D02*
X100302438Y-50564285D01*
X100302438Y-50564285D02*
X100350057Y-50611904D01*
X100350057Y-50611904D02*
X100445295Y-50659523D01*
X100445295Y-50659523D02*
X100540533Y-50659523D01*
X100540533Y-50659523D02*
X100683390Y-50611904D01*
X100683390Y-50611904D02*
X101254819Y-50040476D01*
X101254819Y-50040476D02*
X101254819Y-50659523D01*
X100254819Y-51564285D02*
X100254819Y-51088095D01*
X100254819Y-51088095D02*
X100731009Y-51040476D01*
X100731009Y-51040476D02*
X100683390Y-51088095D01*
X100683390Y-51088095D02*
X100635771Y-51183333D01*
X100635771Y-51183333D02*
X100635771Y-51421428D01*
X100635771Y-51421428D02*
X100683390Y-51516666D01*
X100683390Y-51516666D02*
X100731009Y-51564285D01*
X100731009Y-51564285D02*
X100826247Y-51611904D01*
X100826247Y-51611904D02*
X101064342Y-51611904D01*
X101064342Y-51611904D02*
X101159580Y-51564285D01*
X101159580Y-51564285D02*
X101207200Y-51516666D01*
X101207200Y-51516666D02*
X101254819Y-51421428D01*
X101254819Y-51421428D02*
X101254819Y-51183333D01*
X101254819Y-51183333D02*
X101207200Y-51088095D01*
X101207200Y-51088095D02*
X101159580Y-51040476D01*
X120254819Y-70635714D02*
X119254819Y-70635714D01*
X119254819Y-70635714D02*
X119254819Y-70873809D01*
X119254819Y-70873809D02*
X119302438Y-71016666D01*
X119302438Y-71016666D02*
X119397676Y-71111904D01*
X119397676Y-71111904D02*
X119492914Y-71159523D01*
X119492914Y-71159523D02*
X119683390Y-71207142D01*
X119683390Y-71207142D02*
X119826247Y-71207142D01*
X119826247Y-71207142D02*
X120016723Y-71159523D01*
X120016723Y-71159523D02*
X120111961Y-71111904D01*
X120111961Y-71111904D02*
X120207200Y-71016666D01*
X120207200Y-71016666D02*
X120254819Y-70873809D01*
X120254819Y-70873809D02*
X120254819Y-70635714D01*
X119588152Y-72064285D02*
X120254819Y-72064285D01*
X119207200Y-71826190D02*
X119921485Y-71588095D01*
X119921485Y-71588095D02*
X119921485Y-72207142D01*
X119588152Y-73016666D02*
X120254819Y-73016666D01*
X119207200Y-72778571D02*
X119921485Y-72540476D01*
X119921485Y-72540476D02*
X119921485Y-73159523D01*
X147970238Y-70394819D02*
X148446428Y-70394819D01*
X148446428Y-70394819D02*
X148446428Y-69394819D01*
X147636904Y-69871009D02*
X147303571Y-69871009D01*
X147160714Y-70394819D02*
X147636904Y-70394819D01*
X147636904Y-70394819D02*
X147636904Y-69394819D01*
X147636904Y-69394819D02*
X147160714Y-69394819D01*
X146732142Y-70394819D02*
X146732142Y-69394819D01*
X146732142Y-69394819D02*
X146494047Y-69394819D01*
X146494047Y-69394819D02*
X146351190Y-69442438D01*
X146351190Y-69442438D02*
X146255952Y-69537676D01*
X146255952Y-69537676D02*
X146208333Y-69632914D01*
X146208333Y-69632914D02*
X146160714Y-69823390D01*
X146160714Y-69823390D02*
X146160714Y-69966247D01*
X146160714Y-69966247D02*
X146208333Y-70156723D01*
X146208333Y-70156723D02*
X146255952Y-70251961D01*
X146255952Y-70251961D02*
X146351190Y-70347200D01*
X146351190Y-70347200D02*
X146494047Y-70394819D01*
X146494047Y-70394819D02*
X146732142Y-70394819D01*
X145303571Y-69728152D02*
X145303571Y-70394819D01*
X145541666Y-69347200D02*
X145779761Y-70061485D01*
X145779761Y-70061485D02*
X145160714Y-70061485D01*
X144255952Y-70394819D02*
X144827380Y-70394819D01*
X144541666Y-70394819D02*
X144541666Y-69394819D01*
X144541666Y-69394819D02*
X144636904Y-69537676D01*
X144636904Y-69537676D02*
X144732142Y-69632914D01*
X144732142Y-69632914D02*
X144827380Y-69680533D01*
X139754819Y-76135714D02*
X138754819Y-76135714D01*
X138754819Y-76135714D02*
X138754819Y-76373809D01*
X138754819Y-76373809D02*
X138802438Y-76516666D01*
X138802438Y-76516666D02*
X138897676Y-76611904D01*
X138897676Y-76611904D02*
X138992914Y-76659523D01*
X138992914Y-76659523D02*
X139183390Y-76707142D01*
X139183390Y-76707142D02*
X139326247Y-76707142D01*
X139326247Y-76707142D02*
X139516723Y-76659523D01*
X139516723Y-76659523D02*
X139611961Y-76611904D01*
X139611961Y-76611904D02*
X139707200Y-76516666D01*
X139707200Y-76516666D02*
X139754819Y-76373809D01*
X139754819Y-76373809D02*
X139754819Y-76135714D01*
X139088152Y-77564285D02*
X139754819Y-77564285D01*
X138707200Y-77326190D02*
X139421485Y-77088095D01*
X139421485Y-77088095D02*
X139421485Y-77707142D01*
X139183390Y-78230952D02*
X139135771Y-78135714D01*
X139135771Y-78135714D02*
X139088152Y-78088095D01*
X139088152Y-78088095D02*
X138992914Y-78040476D01*
X138992914Y-78040476D02*
X138945295Y-78040476D01*
X138945295Y-78040476D02*
X138850057Y-78088095D01*
X138850057Y-78088095D02*
X138802438Y-78135714D01*
X138802438Y-78135714D02*
X138754819Y-78230952D01*
X138754819Y-78230952D02*
X138754819Y-78421428D01*
X138754819Y-78421428D02*
X138802438Y-78516666D01*
X138802438Y-78516666D02*
X138850057Y-78564285D01*
X138850057Y-78564285D02*
X138945295Y-78611904D01*
X138945295Y-78611904D02*
X138992914Y-78611904D01*
X138992914Y-78611904D02*
X139088152Y-78564285D01*
X139088152Y-78564285D02*
X139135771Y-78516666D01*
X139135771Y-78516666D02*
X139183390Y-78421428D01*
X139183390Y-78421428D02*
X139183390Y-78230952D01*
X139183390Y-78230952D02*
X139231009Y-78135714D01*
X139231009Y-78135714D02*
X139278628Y-78088095D01*
X139278628Y-78088095D02*
X139373866Y-78040476D01*
X139373866Y-78040476D02*
X139564342Y-78040476D01*
X139564342Y-78040476D02*
X139659580Y-78088095D01*
X139659580Y-78088095D02*
X139707200Y-78135714D01*
X139707200Y-78135714D02*
X139754819Y-78230952D01*
X139754819Y-78230952D02*
X139754819Y-78421428D01*
X139754819Y-78421428D02*
X139707200Y-78516666D01*
X139707200Y-78516666D02*
X139659580Y-78564285D01*
X139659580Y-78564285D02*
X139564342Y-78611904D01*
X139564342Y-78611904D02*
X139373866Y-78611904D01*
X139373866Y-78611904D02*
X139278628Y-78564285D01*
X139278628Y-78564285D02*
X139231009Y-78516666D01*
X139231009Y-78516666D02*
X139183390Y-78421428D01*
X158254819Y-72285714D02*
X157254819Y-72285714D01*
X157254819Y-72285714D02*
X157254819Y-72523809D01*
X157254819Y-72523809D02*
X157302438Y-72666666D01*
X157302438Y-72666666D02*
X157397676Y-72761904D01*
X157397676Y-72761904D02*
X157492914Y-72809523D01*
X157492914Y-72809523D02*
X157683390Y-72857142D01*
X157683390Y-72857142D02*
X157826247Y-72857142D01*
X157826247Y-72857142D02*
X158016723Y-72809523D01*
X158016723Y-72809523D02*
X158111961Y-72761904D01*
X158111961Y-72761904D02*
X158207200Y-72666666D01*
X158207200Y-72666666D02*
X158254819Y-72523809D01*
X158254819Y-72523809D02*
X158254819Y-72285714D01*
X157588152Y-73714285D02*
X158254819Y-73714285D01*
X157207200Y-73476190D02*
X157921485Y-73238095D01*
X157921485Y-73238095D02*
X157921485Y-73857142D01*
X158254819Y-74761904D02*
X158254819Y-74190476D01*
X158254819Y-74476190D02*
X157254819Y-74476190D01*
X157254819Y-74476190D02*
X157397676Y-74380952D01*
X157397676Y-74380952D02*
X157492914Y-74285714D01*
X157492914Y-74285714D02*
X157540533Y-74190476D01*
X62754819Y-72635714D02*
X61754819Y-72635714D01*
X61754819Y-72635714D02*
X61754819Y-72873809D01*
X61754819Y-72873809D02*
X61802438Y-73016666D01*
X61802438Y-73016666D02*
X61897676Y-73111904D01*
X61897676Y-73111904D02*
X61992914Y-73159523D01*
X61992914Y-73159523D02*
X62183390Y-73207142D01*
X62183390Y-73207142D02*
X62326247Y-73207142D01*
X62326247Y-73207142D02*
X62516723Y-73159523D01*
X62516723Y-73159523D02*
X62611961Y-73111904D01*
X62611961Y-73111904D02*
X62707200Y-73016666D01*
X62707200Y-73016666D02*
X62754819Y-72873809D01*
X62754819Y-72873809D02*
X62754819Y-72635714D01*
X62088152Y-74064285D02*
X62754819Y-74064285D01*
X61707200Y-73826190D02*
X62421485Y-73588095D01*
X62421485Y-73588095D02*
X62421485Y-74207142D01*
X61754819Y-74492857D02*
X61754819Y-75159523D01*
X61754819Y-75159523D02*
X62754819Y-74730952D01*
X139754819Y-19611905D02*
X138754819Y-19611905D01*
X138754819Y-19611905D02*
X138754819Y-19850000D01*
X138754819Y-19850000D02*
X138802438Y-19992857D01*
X138802438Y-19992857D02*
X138897676Y-20088095D01*
X138897676Y-20088095D02*
X138992914Y-20135714D01*
X138992914Y-20135714D02*
X139183390Y-20183333D01*
X139183390Y-20183333D02*
X139326247Y-20183333D01*
X139326247Y-20183333D02*
X139516723Y-20135714D01*
X139516723Y-20135714D02*
X139611961Y-20088095D01*
X139611961Y-20088095D02*
X139707200Y-19992857D01*
X139707200Y-19992857D02*
X139754819Y-19850000D01*
X139754819Y-19850000D02*
X139754819Y-19611905D01*
X139183390Y-20754762D02*
X139135771Y-20659524D01*
X139135771Y-20659524D02*
X139088152Y-20611905D01*
X139088152Y-20611905D02*
X138992914Y-20564286D01*
X138992914Y-20564286D02*
X138945295Y-20564286D01*
X138945295Y-20564286D02*
X138850057Y-20611905D01*
X138850057Y-20611905D02*
X138802438Y-20659524D01*
X138802438Y-20659524D02*
X138754819Y-20754762D01*
X138754819Y-20754762D02*
X138754819Y-20945238D01*
X138754819Y-20945238D02*
X138802438Y-21040476D01*
X138802438Y-21040476D02*
X138850057Y-21088095D01*
X138850057Y-21088095D02*
X138945295Y-21135714D01*
X138945295Y-21135714D02*
X138992914Y-21135714D01*
X138992914Y-21135714D02*
X139088152Y-21088095D01*
X139088152Y-21088095D02*
X139135771Y-21040476D01*
X139135771Y-21040476D02*
X139183390Y-20945238D01*
X139183390Y-20945238D02*
X139183390Y-20754762D01*
X139183390Y-20754762D02*
X139231009Y-20659524D01*
X139231009Y-20659524D02*
X139278628Y-20611905D01*
X139278628Y-20611905D02*
X139373866Y-20564286D01*
X139373866Y-20564286D02*
X139564342Y-20564286D01*
X139564342Y-20564286D02*
X139659580Y-20611905D01*
X139659580Y-20611905D02*
X139707200Y-20659524D01*
X139707200Y-20659524D02*
X139754819Y-20754762D01*
X139754819Y-20754762D02*
X139754819Y-20945238D01*
X139754819Y-20945238D02*
X139707200Y-21040476D01*
X139707200Y-21040476D02*
X139659580Y-21088095D01*
X139659580Y-21088095D02*
X139564342Y-21135714D01*
X139564342Y-21135714D02*
X139373866Y-21135714D01*
X139373866Y-21135714D02*
X139278628Y-21088095D01*
X139278628Y-21088095D02*
X139231009Y-21040476D01*
X139231009Y-21040476D02*
X139183390Y-20945238D01*
X158254819Y-53285714D02*
X157254819Y-53285714D01*
X157254819Y-53285714D02*
X157254819Y-53523809D01*
X157254819Y-53523809D02*
X157302438Y-53666666D01*
X157302438Y-53666666D02*
X157397676Y-53761904D01*
X157397676Y-53761904D02*
X157492914Y-53809523D01*
X157492914Y-53809523D02*
X157683390Y-53857142D01*
X157683390Y-53857142D02*
X157826247Y-53857142D01*
X157826247Y-53857142D02*
X158016723Y-53809523D01*
X158016723Y-53809523D02*
X158111961Y-53761904D01*
X158111961Y-53761904D02*
X158207200Y-53666666D01*
X158207200Y-53666666D02*
X158254819Y-53523809D01*
X158254819Y-53523809D02*
X158254819Y-53285714D01*
X157350057Y-54238095D02*
X157302438Y-54285714D01*
X157302438Y-54285714D02*
X157254819Y-54380952D01*
X157254819Y-54380952D02*
X157254819Y-54619047D01*
X157254819Y-54619047D02*
X157302438Y-54714285D01*
X157302438Y-54714285D02*
X157350057Y-54761904D01*
X157350057Y-54761904D02*
X157445295Y-54809523D01*
X157445295Y-54809523D02*
X157540533Y-54809523D01*
X157540533Y-54809523D02*
X157683390Y-54761904D01*
X157683390Y-54761904D02*
X158254819Y-54190476D01*
X158254819Y-54190476D02*
X158254819Y-54809523D01*
X157254819Y-55666666D02*
X157254819Y-55476190D01*
X157254819Y-55476190D02*
X157302438Y-55380952D01*
X157302438Y-55380952D02*
X157350057Y-55333333D01*
X157350057Y-55333333D02*
X157492914Y-55238095D01*
X157492914Y-55238095D02*
X157683390Y-55190476D01*
X157683390Y-55190476D02*
X158064342Y-55190476D01*
X158064342Y-55190476D02*
X158159580Y-55238095D01*
X158159580Y-55238095D02*
X158207200Y-55285714D01*
X158207200Y-55285714D02*
X158254819Y-55380952D01*
X158254819Y-55380952D02*
X158254819Y-55571428D01*
X158254819Y-55571428D02*
X158207200Y-55666666D01*
X158207200Y-55666666D02*
X158159580Y-55714285D01*
X158159580Y-55714285D02*
X158064342Y-55761904D01*
X158064342Y-55761904D02*
X157826247Y-55761904D01*
X157826247Y-55761904D02*
X157731009Y-55714285D01*
X157731009Y-55714285D02*
X157683390Y-55666666D01*
X157683390Y-55666666D02*
X157635771Y-55571428D01*
X157635771Y-55571428D02*
X157635771Y-55380952D01*
X157635771Y-55380952D02*
X157683390Y-55285714D01*
X157683390Y-55285714D02*
X157731009Y-55238095D01*
X157731009Y-55238095D02*
X157826247Y-55190476D01*
X81754819Y-32635714D02*
X80754819Y-32635714D01*
X80754819Y-32635714D02*
X80754819Y-32873809D01*
X80754819Y-32873809D02*
X80802438Y-33016666D01*
X80802438Y-33016666D02*
X80897676Y-33111904D01*
X80897676Y-33111904D02*
X80992914Y-33159523D01*
X80992914Y-33159523D02*
X81183390Y-33207142D01*
X81183390Y-33207142D02*
X81326247Y-33207142D01*
X81326247Y-33207142D02*
X81516723Y-33159523D01*
X81516723Y-33159523D02*
X81611961Y-33111904D01*
X81611961Y-33111904D02*
X81707200Y-33016666D01*
X81707200Y-33016666D02*
X81754819Y-32873809D01*
X81754819Y-32873809D02*
X81754819Y-32635714D01*
X81754819Y-34159523D02*
X81754819Y-33588095D01*
X81754819Y-33873809D02*
X80754819Y-33873809D01*
X80754819Y-33873809D02*
X80897676Y-33778571D01*
X80897676Y-33778571D02*
X80992914Y-33683333D01*
X80992914Y-33683333D02*
X81040533Y-33588095D01*
X80754819Y-35064285D02*
X80754819Y-34588095D01*
X80754819Y-34588095D02*
X81231009Y-34540476D01*
X81231009Y-34540476D02*
X81183390Y-34588095D01*
X81183390Y-34588095D02*
X81135771Y-34683333D01*
X81135771Y-34683333D02*
X81135771Y-34921428D01*
X81135771Y-34921428D02*
X81183390Y-35016666D01*
X81183390Y-35016666D02*
X81231009Y-35064285D01*
X81231009Y-35064285D02*
X81326247Y-35111904D01*
X81326247Y-35111904D02*
X81564342Y-35111904D01*
X81564342Y-35111904D02*
X81659580Y-35064285D01*
X81659580Y-35064285D02*
X81707200Y-35016666D01*
X81707200Y-35016666D02*
X81754819Y-34921428D01*
X81754819Y-34921428D02*
X81754819Y-34683333D01*
X81754819Y-34683333D02*
X81707200Y-34588095D01*
X81707200Y-34588095D02*
X81659580Y-34540476D01*
X82254819Y-50635714D02*
X81254819Y-50635714D01*
X81254819Y-50635714D02*
X81254819Y-50873809D01*
X81254819Y-50873809D02*
X81302438Y-51016666D01*
X81302438Y-51016666D02*
X81397676Y-51111904D01*
X81397676Y-51111904D02*
X81492914Y-51159523D01*
X81492914Y-51159523D02*
X81683390Y-51207142D01*
X81683390Y-51207142D02*
X81826247Y-51207142D01*
X81826247Y-51207142D02*
X82016723Y-51159523D01*
X82016723Y-51159523D02*
X82111961Y-51111904D01*
X82111961Y-51111904D02*
X82207200Y-51016666D01*
X82207200Y-51016666D02*
X82254819Y-50873809D01*
X82254819Y-50873809D02*
X82254819Y-50635714D01*
X81350057Y-51588095D02*
X81302438Y-51635714D01*
X81302438Y-51635714D02*
X81254819Y-51730952D01*
X81254819Y-51730952D02*
X81254819Y-51969047D01*
X81254819Y-51969047D02*
X81302438Y-52064285D01*
X81302438Y-52064285D02*
X81350057Y-52111904D01*
X81350057Y-52111904D02*
X81445295Y-52159523D01*
X81445295Y-52159523D02*
X81540533Y-52159523D01*
X81540533Y-52159523D02*
X81683390Y-52111904D01*
X81683390Y-52111904D02*
X82254819Y-51540476D01*
X82254819Y-51540476D02*
X82254819Y-52159523D01*
X82254819Y-52635714D02*
X82254819Y-52826190D01*
X82254819Y-52826190D02*
X82207200Y-52921428D01*
X82207200Y-52921428D02*
X82159580Y-52969047D01*
X82159580Y-52969047D02*
X82016723Y-53064285D01*
X82016723Y-53064285D02*
X81826247Y-53111904D01*
X81826247Y-53111904D02*
X81445295Y-53111904D01*
X81445295Y-53111904D02*
X81350057Y-53064285D01*
X81350057Y-53064285D02*
X81302438Y-53016666D01*
X81302438Y-53016666D02*
X81254819Y-52921428D01*
X81254819Y-52921428D02*
X81254819Y-52730952D01*
X81254819Y-52730952D02*
X81302438Y-52635714D01*
X81302438Y-52635714D02*
X81350057Y-52588095D01*
X81350057Y-52588095D02*
X81445295Y-52540476D01*
X81445295Y-52540476D02*
X81683390Y-52540476D01*
X81683390Y-52540476D02*
X81778628Y-52588095D01*
X81778628Y-52588095D02*
X81826247Y-52635714D01*
X81826247Y-52635714D02*
X81873866Y-52730952D01*
X81873866Y-52730952D02*
X81873866Y-52921428D01*
X81873866Y-52921428D02*
X81826247Y-53016666D01*
X81826247Y-53016666D02*
X81778628Y-53064285D01*
X81778628Y-53064285D02*
X81683390Y-53111904D01*
X109254819Y-92785714D02*
X108254819Y-92785714D01*
X108254819Y-92785714D02*
X108254819Y-93023809D01*
X108254819Y-93023809D02*
X108302438Y-93166666D01*
X108302438Y-93166666D02*
X108397676Y-93261904D01*
X108397676Y-93261904D02*
X108492914Y-93309523D01*
X108492914Y-93309523D02*
X108683390Y-93357142D01*
X108683390Y-93357142D02*
X108826247Y-93357142D01*
X108826247Y-93357142D02*
X109016723Y-93309523D01*
X109016723Y-93309523D02*
X109111961Y-93261904D01*
X109111961Y-93261904D02*
X109207200Y-93166666D01*
X109207200Y-93166666D02*
X109254819Y-93023809D01*
X109254819Y-93023809D02*
X109254819Y-92785714D01*
X108254819Y-94261904D02*
X108254819Y-93785714D01*
X108254819Y-93785714D02*
X108731009Y-93738095D01*
X108731009Y-93738095D02*
X108683390Y-93785714D01*
X108683390Y-93785714D02*
X108635771Y-93880952D01*
X108635771Y-93880952D02*
X108635771Y-94119047D01*
X108635771Y-94119047D02*
X108683390Y-94214285D01*
X108683390Y-94214285D02*
X108731009Y-94261904D01*
X108731009Y-94261904D02*
X108826247Y-94309523D01*
X108826247Y-94309523D02*
X109064342Y-94309523D01*
X109064342Y-94309523D02*
X109159580Y-94261904D01*
X109159580Y-94261904D02*
X109207200Y-94214285D01*
X109207200Y-94214285D02*
X109254819Y-94119047D01*
X109254819Y-94119047D02*
X109254819Y-93880952D01*
X109254819Y-93880952D02*
X109207200Y-93785714D01*
X109207200Y-93785714D02*
X109159580Y-93738095D01*
X108254819Y-94642857D02*
X108254819Y-95261904D01*
X108254819Y-95261904D02*
X108635771Y-94928571D01*
X108635771Y-94928571D02*
X108635771Y-95071428D01*
X108635771Y-95071428D02*
X108683390Y-95166666D01*
X108683390Y-95166666D02*
X108731009Y-95214285D01*
X108731009Y-95214285D02*
X108826247Y-95261904D01*
X108826247Y-95261904D02*
X109064342Y-95261904D01*
X109064342Y-95261904D02*
X109159580Y-95214285D01*
X109159580Y-95214285D02*
X109207200Y-95166666D01*
X109207200Y-95166666D02*
X109254819Y-95071428D01*
X109254819Y-95071428D02*
X109254819Y-94785714D01*
X109254819Y-94785714D02*
X109207200Y-94690476D01*
X109207200Y-94690476D02*
X109159580Y-94642857D01*
X54754819Y-90635714D02*
X53754819Y-90635714D01*
X53754819Y-90635714D02*
X53754819Y-90873809D01*
X53754819Y-90873809D02*
X53802438Y-91016666D01*
X53802438Y-91016666D02*
X53897676Y-91111904D01*
X53897676Y-91111904D02*
X53992914Y-91159523D01*
X53992914Y-91159523D02*
X54183390Y-91207142D01*
X54183390Y-91207142D02*
X54326247Y-91207142D01*
X54326247Y-91207142D02*
X54516723Y-91159523D01*
X54516723Y-91159523D02*
X54611961Y-91111904D01*
X54611961Y-91111904D02*
X54707200Y-91016666D01*
X54707200Y-91016666D02*
X54754819Y-90873809D01*
X54754819Y-90873809D02*
X54754819Y-90635714D01*
X53754819Y-92111904D02*
X53754819Y-91635714D01*
X53754819Y-91635714D02*
X54231009Y-91588095D01*
X54231009Y-91588095D02*
X54183390Y-91635714D01*
X54183390Y-91635714D02*
X54135771Y-91730952D01*
X54135771Y-91730952D02*
X54135771Y-91969047D01*
X54135771Y-91969047D02*
X54183390Y-92064285D01*
X54183390Y-92064285D02*
X54231009Y-92111904D01*
X54231009Y-92111904D02*
X54326247Y-92159523D01*
X54326247Y-92159523D02*
X54564342Y-92159523D01*
X54564342Y-92159523D02*
X54659580Y-92111904D01*
X54659580Y-92111904D02*
X54707200Y-92064285D01*
X54707200Y-92064285D02*
X54754819Y-91969047D01*
X54754819Y-91969047D02*
X54754819Y-91730952D01*
X54754819Y-91730952D02*
X54707200Y-91635714D01*
X54707200Y-91635714D02*
X54659580Y-91588095D01*
X53754819Y-93064285D02*
X53754819Y-92588095D01*
X53754819Y-92588095D02*
X54231009Y-92540476D01*
X54231009Y-92540476D02*
X54183390Y-92588095D01*
X54183390Y-92588095D02*
X54135771Y-92683333D01*
X54135771Y-92683333D02*
X54135771Y-92921428D01*
X54135771Y-92921428D02*
X54183390Y-93016666D01*
X54183390Y-93016666D02*
X54231009Y-93064285D01*
X54231009Y-93064285D02*
X54326247Y-93111904D01*
X54326247Y-93111904D02*
X54564342Y-93111904D01*
X54564342Y-93111904D02*
X54659580Y-93064285D01*
X54659580Y-93064285D02*
X54707200Y-93016666D01*
X54707200Y-93016666D02*
X54754819Y-92921428D01*
X54754819Y-92921428D02*
X54754819Y-92683333D01*
X54754819Y-92683333D02*
X54707200Y-92588095D01*
X54707200Y-92588095D02*
X54659580Y-92540476D01*
X43254819Y-38635714D02*
X42254819Y-38635714D01*
X42254819Y-38635714D02*
X42254819Y-38873809D01*
X42254819Y-38873809D02*
X42302438Y-39016666D01*
X42302438Y-39016666D02*
X42397676Y-39111904D01*
X42397676Y-39111904D02*
X42492914Y-39159523D01*
X42492914Y-39159523D02*
X42683390Y-39207142D01*
X42683390Y-39207142D02*
X42826247Y-39207142D01*
X42826247Y-39207142D02*
X43016723Y-39159523D01*
X43016723Y-39159523D02*
X43111961Y-39111904D01*
X43111961Y-39111904D02*
X43207200Y-39016666D01*
X43207200Y-39016666D02*
X43254819Y-38873809D01*
X43254819Y-38873809D02*
X43254819Y-38635714D01*
X42350057Y-39588095D02*
X42302438Y-39635714D01*
X42302438Y-39635714D02*
X42254819Y-39730952D01*
X42254819Y-39730952D02*
X42254819Y-39969047D01*
X42254819Y-39969047D02*
X42302438Y-40064285D01*
X42302438Y-40064285D02*
X42350057Y-40111904D01*
X42350057Y-40111904D02*
X42445295Y-40159523D01*
X42445295Y-40159523D02*
X42540533Y-40159523D01*
X42540533Y-40159523D02*
X42683390Y-40111904D01*
X42683390Y-40111904D02*
X43254819Y-39540476D01*
X43254819Y-39540476D02*
X43254819Y-40159523D01*
X42254819Y-40492857D02*
X42254819Y-41111904D01*
X42254819Y-41111904D02*
X42635771Y-40778571D01*
X42635771Y-40778571D02*
X42635771Y-40921428D01*
X42635771Y-40921428D02*
X42683390Y-41016666D01*
X42683390Y-41016666D02*
X42731009Y-41064285D01*
X42731009Y-41064285D02*
X42826247Y-41111904D01*
X42826247Y-41111904D02*
X43064342Y-41111904D01*
X43064342Y-41111904D02*
X43159580Y-41064285D01*
X43159580Y-41064285D02*
X43207200Y-41016666D01*
X43207200Y-41016666D02*
X43254819Y-40921428D01*
X43254819Y-40921428D02*
X43254819Y-40635714D01*
X43254819Y-40635714D02*
X43207200Y-40540476D01*
X43207200Y-40540476D02*
X43159580Y-40492857D01*
X63254819Y-53220714D02*
X62254819Y-53220714D01*
X62254819Y-53220714D02*
X62254819Y-53458809D01*
X62254819Y-53458809D02*
X62302438Y-53601666D01*
X62302438Y-53601666D02*
X62397676Y-53696904D01*
X62397676Y-53696904D02*
X62492914Y-53744523D01*
X62492914Y-53744523D02*
X62683390Y-53792142D01*
X62683390Y-53792142D02*
X62826247Y-53792142D01*
X62826247Y-53792142D02*
X63016723Y-53744523D01*
X63016723Y-53744523D02*
X63111961Y-53696904D01*
X63111961Y-53696904D02*
X63207200Y-53601666D01*
X63207200Y-53601666D02*
X63254819Y-53458809D01*
X63254819Y-53458809D02*
X63254819Y-53220714D01*
X62254819Y-54125476D02*
X62254819Y-54744523D01*
X62254819Y-54744523D02*
X62635771Y-54411190D01*
X62635771Y-54411190D02*
X62635771Y-54554047D01*
X62635771Y-54554047D02*
X62683390Y-54649285D01*
X62683390Y-54649285D02*
X62731009Y-54696904D01*
X62731009Y-54696904D02*
X62826247Y-54744523D01*
X62826247Y-54744523D02*
X63064342Y-54744523D01*
X63064342Y-54744523D02*
X63159580Y-54696904D01*
X63159580Y-54696904D02*
X63207200Y-54649285D01*
X63207200Y-54649285D02*
X63254819Y-54554047D01*
X63254819Y-54554047D02*
X63254819Y-54268333D01*
X63254819Y-54268333D02*
X63207200Y-54173095D01*
X63207200Y-54173095D02*
X63159580Y-54125476D01*
X62254819Y-55077857D02*
X62254819Y-55696904D01*
X62254819Y-55696904D02*
X62635771Y-55363571D01*
X62635771Y-55363571D02*
X62635771Y-55506428D01*
X62635771Y-55506428D02*
X62683390Y-55601666D01*
X62683390Y-55601666D02*
X62731009Y-55649285D01*
X62731009Y-55649285D02*
X62826247Y-55696904D01*
X62826247Y-55696904D02*
X63064342Y-55696904D01*
X63064342Y-55696904D02*
X63159580Y-55649285D01*
X63159580Y-55649285D02*
X63207200Y-55601666D01*
X63207200Y-55601666D02*
X63254819Y-55506428D01*
X63254819Y-55506428D02*
X63254819Y-55220714D01*
X63254819Y-55220714D02*
X63207200Y-55125476D01*
X63207200Y-55125476D02*
X63159580Y-55077857D01*
X120754819Y-19261905D02*
X119754819Y-19261905D01*
X119754819Y-19261905D02*
X119754819Y-19500000D01*
X119754819Y-19500000D02*
X119802438Y-19642857D01*
X119802438Y-19642857D02*
X119897676Y-19738095D01*
X119897676Y-19738095D02*
X119992914Y-19785714D01*
X119992914Y-19785714D02*
X120183390Y-19833333D01*
X120183390Y-19833333D02*
X120326247Y-19833333D01*
X120326247Y-19833333D02*
X120516723Y-19785714D01*
X120516723Y-19785714D02*
X120611961Y-19738095D01*
X120611961Y-19738095D02*
X120707200Y-19642857D01*
X120707200Y-19642857D02*
X120754819Y-19500000D01*
X120754819Y-19500000D02*
X120754819Y-19261905D01*
X120088152Y-20690476D02*
X120754819Y-20690476D01*
X119707200Y-20452381D02*
X120421485Y-20214286D01*
X120421485Y-20214286D02*
X120421485Y-20833333D01*
X63792319Y-37135714D02*
X62792319Y-37135714D01*
X62792319Y-37135714D02*
X62792319Y-37373809D01*
X62792319Y-37373809D02*
X62839938Y-37516666D01*
X62839938Y-37516666D02*
X62935176Y-37611904D01*
X62935176Y-37611904D02*
X63030414Y-37659523D01*
X63030414Y-37659523D02*
X63220890Y-37707142D01*
X63220890Y-37707142D02*
X63363747Y-37707142D01*
X63363747Y-37707142D02*
X63554223Y-37659523D01*
X63554223Y-37659523D02*
X63649461Y-37611904D01*
X63649461Y-37611904D02*
X63744700Y-37516666D01*
X63744700Y-37516666D02*
X63792319Y-37373809D01*
X63792319Y-37373809D02*
X63792319Y-37135714D01*
X63792319Y-38659523D02*
X63792319Y-38088095D01*
X63792319Y-38373809D02*
X62792319Y-38373809D01*
X62792319Y-38373809D02*
X62935176Y-38278571D01*
X62935176Y-38278571D02*
X63030414Y-38183333D01*
X63030414Y-38183333D02*
X63078033Y-38088095D01*
X63792319Y-39135714D02*
X63792319Y-39326190D01*
X63792319Y-39326190D02*
X63744700Y-39421428D01*
X63744700Y-39421428D02*
X63697080Y-39469047D01*
X63697080Y-39469047D02*
X63554223Y-39564285D01*
X63554223Y-39564285D02*
X63363747Y-39611904D01*
X63363747Y-39611904D02*
X62982795Y-39611904D01*
X62982795Y-39611904D02*
X62887557Y-39564285D01*
X62887557Y-39564285D02*
X62839938Y-39516666D01*
X62839938Y-39516666D02*
X62792319Y-39421428D01*
X62792319Y-39421428D02*
X62792319Y-39230952D01*
X62792319Y-39230952D02*
X62839938Y-39135714D01*
X62839938Y-39135714D02*
X62887557Y-39088095D01*
X62887557Y-39088095D02*
X62982795Y-39040476D01*
X62982795Y-39040476D02*
X63220890Y-39040476D01*
X63220890Y-39040476D02*
X63316128Y-39088095D01*
X63316128Y-39088095D02*
X63363747Y-39135714D01*
X63363747Y-39135714D02*
X63411366Y-39230952D01*
X63411366Y-39230952D02*
X63411366Y-39421428D01*
X63411366Y-39421428D02*
X63363747Y-39516666D01*
X63363747Y-39516666D02*
X63316128Y-39564285D01*
X63316128Y-39564285D02*
X63220890Y-39611904D01*
X81754819Y-71635714D02*
X80754819Y-71635714D01*
X80754819Y-71635714D02*
X80754819Y-71873809D01*
X80754819Y-71873809D02*
X80802438Y-72016666D01*
X80802438Y-72016666D02*
X80897676Y-72111904D01*
X80897676Y-72111904D02*
X80992914Y-72159523D01*
X80992914Y-72159523D02*
X81183390Y-72207142D01*
X81183390Y-72207142D02*
X81326247Y-72207142D01*
X81326247Y-72207142D02*
X81516723Y-72159523D01*
X81516723Y-72159523D02*
X81611961Y-72111904D01*
X81611961Y-72111904D02*
X81707200Y-72016666D01*
X81707200Y-72016666D02*
X81754819Y-71873809D01*
X81754819Y-71873809D02*
X81754819Y-71635714D01*
X81088152Y-73064285D02*
X81754819Y-73064285D01*
X80707200Y-72826190D02*
X81421485Y-72588095D01*
X81421485Y-72588095D02*
X81421485Y-73207142D01*
X80754819Y-73492857D02*
X80754819Y-74111904D01*
X80754819Y-74111904D02*
X81135771Y-73778571D01*
X81135771Y-73778571D02*
X81135771Y-73921428D01*
X81135771Y-73921428D02*
X81183390Y-74016666D01*
X81183390Y-74016666D02*
X81231009Y-74064285D01*
X81231009Y-74064285D02*
X81326247Y-74111904D01*
X81326247Y-74111904D02*
X81564342Y-74111904D01*
X81564342Y-74111904D02*
X81659580Y-74064285D01*
X81659580Y-74064285D02*
X81707200Y-74016666D01*
X81707200Y-74016666D02*
X81754819Y-73921428D01*
X81754819Y-73921428D02*
X81754819Y-73635714D01*
X81754819Y-73635714D02*
X81707200Y-73540476D01*
X81707200Y-73540476D02*
X81659580Y-73492857D01*
X120254819Y-52135714D02*
X119254819Y-52135714D01*
X119254819Y-52135714D02*
X119254819Y-52373809D01*
X119254819Y-52373809D02*
X119302438Y-52516666D01*
X119302438Y-52516666D02*
X119397676Y-52611904D01*
X119397676Y-52611904D02*
X119492914Y-52659523D01*
X119492914Y-52659523D02*
X119683390Y-52707142D01*
X119683390Y-52707142D02*
X119826247Y-52707142D01*
X119826247Y-52707142D02*
X120016723Y-52659523D01*
X120016723Y-52659523D02*
X120111961Y-52611904D01*
X120111961Y-52611904D02*
X120207200Y-52516666D01*
X120207200Y-52516666D02*
X120254819Y-52373809D01*
X120254819Y-52373809D02*
X120254819Y-52135714D01*
X119254819Y-53040476D02*
X119254819Y-53659523D01*
X119254819Y-53659523D02*
X119635771Y-53326190D01*
X119635771Y-53326190D02*
X119635771Y-53469047D01*
X119635771Y-53469047D02*
X119683390Y-53564285D01*
X119683390Y-53564285D02*
X119731009Y-53611904D01*
X119731009Y-53611904D02*
X119826247Y-53659523D01*
X119826247Y-53659523D02*
X120064342Y-53659523D01*
X120064342Y-53659523D02*
X120159580Y-53611904D01*
X120159580Y-53611904D02*
X120207200Y-53564285D01*
X120207200Y-53564285D02*
X120254819Y-53469047D01*
X120254819Y-53469047D02*
X120254819Y-53183333D01*
X120254819Y-53183333D02*
X120207200Y-53088095D01*
X120207200Y-53088095D02*
X120159580Y-53040476D01*
X119254819Y-54278571D02*
X119254819Y-54373809D01*
X119254819Y-54373809D02*
X119302438Y-54469047D01*
X119302438Y-54469047D02*
X119350057Y-54516666D01*
X119350057Y-54516666D02*
X119445295Y-54564285D01*
X119445295Y-54564285D02*
X119635771Y-54611904D01*
X119635771Y-54611904D02*
X119873866Y-54611904D01*
X119873866Y-54611904D02*
X120064342Y-54564285D01*
X120064342Y-54564285D02*
X120159580Y-54516666D01*
X120159580Y-54516666D02*
X120207200Y-54469047D01*
X120207200Y-54469047D02*
X120254819Y-54373809D01*
X120254819Y-54373809D02*
X120254819Y-54278571D01*
X120254819Y-54278571D02*
X120207200Y-54183333D01*
X120207200Y-54183333D02*
X120159580Y-54135714D01*
X120159580Y-54135714D02*
X120064342Y-54088095D01*
X120064342Y-54088095D02*
X119873866Y-54040476D01*
X119873866Y-54040476D02*
X119635771Y-54040476D01*
X119635771Y-54040476D02*
X119445295Y-54088095D01*
X119445295Y-54088095D02*
X119350057Y-54135714D01*
X119350057Y-54135714D02*
X119302438Y-54183333D01*
X119302438Y-54183333D02*
X119254819Y-54278571D01*
X139754819Y-57135714D02*
X138754819Y-57135714D01*
X138754819Y-57135714D02*
X138754819Y-57373809D01*
X138754819Y-57373809D02*
X138802438Y-57516666D01*
X138802438Y-57516666D02*
X138897676Y-57611904D01*
X138897676Y-57611904D02*
X138992914Y-57659523D01*
X138992914Y-57659523D02*
X139183390Y-57707142D01*
X139183390Y-57707142D02*
X139326247Y-57707142D01*
X139326247Y-57707142D02*
X139516723Y-57659523D01*
X139516723Y-57659523D02*
X139611961Y-57611904D01*
X139611961Y-57611904D02*
X139707200Y-57516666D01*
X139707200Y-57516666D02*
X139754819Y-57373809D01*
X139754819Y-57373809D02*
X139754819Y-57135714D01*
X138754819Y-58040476D02*
X138754819Y-58659523D01*
X138754819Y-58659523D02*
X139135771Y-58326190D01*
X139135771Y-58326190D02*
X139135771Y-58469047D01*
X139135771Y-58469047D02*
X139183390Y-58564285D01*
X139183390Y-58564285D02*
X139231009Y-58611904D01*
X139231009Y-58611904D02*
X139326247Y-58659523D01*
X139326247Y-58659523D02*
X139564342Y-58659523D01*
X139564342Y-58659523D02*
X139659580Y-58611904D01*
X139659580Y-58611904D02*
X139707200Y-58564285D01*
X139707200Y-58564285D02*
X139754819Y-58469047D01*
X139754819Y-58469047D02*
X139754819Y-58183333D01*
X139754819Y-58183333D02*
X139707200Y-58088095D01*
X139707200Y-58088095D02*
X139659580Y-58040476D01*
X139088152Y-59516666D02*
X139754819Y-59516666D01*
X138707200Y-59278571D02*
X139421485Y-59040476D01*
X139421485Y-59040476D02*
X139421485Y-59659523D01*
X85254819Y-88785714D02*
X84254819Y-88785714D01*
X84254819Y-88785714D02*
X84254819Y-89023809D01*
X84254819Y-89023809D02*
X84302438Y-89166666D01*
X84302438Y-89166666D02*
X84397676Y-89261904D01*
X84397676Y-89261904D02*
X84492914Y-89309523D01*
X84492914Y-89309523D02*
X84683390Y-89357142D01*
X84683390Y-89357142D02*
X84826247Y-89357142D01*
X84826247Y-89357142D02*
X85016723Y-89309523D01*
X85016723Y-89309523D02*
X85111961Y-89261904D01*
X85111961Y-89261904D02*
X85207200Y-89166666D01*
X85207200Y-89166666D02*
X85254819Y-89023809D01*
X85254819Y-89023809D02*
X85254819Y-88785714D01*
X84254819Y-90261904D02*
X84254819Y-89785714D01*
X84254819Y-89785714D02*
X84731009Y-89738095D01*
X84731009Y-89738095D02*
X84683390Y-89785714D01*
X84683390Y-89785714D02*
X84635771Y-89880952D01*
X84635771Y-89880952D02*
X84635771Y-90119047D01*
X84635771Y-90119047D02*
X84683390Y-90214285D01*
X84683390Y-90214285D02*
X84731009Y-90261904D01*
X84731009Y-90261904D02*
X84826247Y-90309523D01*
X84826247Y-90309523D02*
X85064342Y-90309523D01*
X85064342Y-90309523D02*
X85159580Y-90261904D01*
X85159580Y-90261904D02*
X85207200Y-90214285D01*
X85207200Y-90214285D02*
X85254819Y-90119047D01*
X85254819Y-90119047D02*
X85254819Y-89880952D01*
X85254819Y-89880952D02*
X85207200Y-89785714D01*
X85207200Y-89785714D02*
X85159580Y-89738095D01*
X84588152Y-91166666D02*
X85254819Y-91166666D01*
X84207200Y-90928571D02*
X84921485Y-90690476D01*
X84921485Y-90690476D02*
X84921485Y-91309523D01*
X128556678Y-90604872D02*
X128815497Y-89638946D01*
X128815497Y-89638946D02*
X128585514Y-89577323D01*
X128585514Y-89577323D02*
X128435200Y-89586345D01*
X128435200Y-89586345D02*
X128318558Y-89653689D01*
X128318558Y-89653689D02*
X128247912Y-89733357D01*
X128247912Y-89733357D02*
X128152617Y-89905018D01*
X128152617Y-89905018D02*
X128115642Y-90043007D01*
X128115642Y-90043007D02*
X128112340Y-90239318D01*
X128112340Y-90239318D02*
X128133687Y-90343636D01*
X128133687Y-90343636D02*
X128201031Y-90460278D01*
X128201031Y-90460278D02*
X128326695Y-90543249D01*
X128326695Y-90543249D02*
X128556678Y-90604872D01*
X127389606Y-89256880D02*
X127849571Y-89380127D01*
X127849571Y-89380127D02*
X127772320Y-89852417D01*
X127772320Y-89852417D02*
X127738648Y-89794096D01*
X127738648Y-89794096D02*
X127658980Y-89723450D01*
X127658980Y-89723450D02*
X127428998Y-89661826D01*
X127428998Y-89661826D02*
X127324680Y-89683173D01*
X127324680Y-89683173D02*
X127266359Y-89716845D01*
X127266359Y-89716845D02*
X127195713Y-89796513D01*
X127195713Y-89796513D02*
X127134090Y-90026495D01*
X127134090Y-90026495D02*
X127155437Y-90130813D01*
X127155437Y-90130813D02*
X127189108Y-90189134D01*
X127189108Y-90189134D02*
X127268777Y-90259780D01*
X127268777Y-90259780D02*
X127498759Y-90321404D01*
X127498759Y-90321404D02*
X127603077Y-90300057D01*
X127603077Y-90300057D02*
X127661398Y-90266385D01*
X126680730Y-89510627D02*
X126785047Y-89489280D01*
X126785047Y-89489280D02*
X126843368Y-89455608D01*
X126843368Y-89455608D02*
X126914014Y-89375940D01*
X126914014Y-89375940D02*
X126926339Y-89329944D01*
X126926339Y-89329944D02*
X126904992Y-89225626D01*
X126904992Y-89225626D02*
X126871320Y-89167305D01*
X126871320Y-89167305D02*
X126791652Y-89096659D01*
X126791652Y-89096659D02*
X126607666Y-89047360D01*
X126607666Y-89047360D02*
X126503349Y-89068707D01*
X126503349Y-89068707D02*
X126445027Y-89102379D01*
X126445027Y-89102379D02*
X126374381Y-89182047D01*
X126374381Y-89182047D02*
X126362057Y-89228043D01*
X126362057Y-89228043D02*
X126383404Y-89332361D01*
X126383404Y-89332361D02*
X126417076Y-89390682D01*
X126417076Y-89390682D02*
X126496744Y-89461328D01*
X126496744Y-89461328D02*
X126680730Y-89510627D01*
X126680730Y-89510627D02*
X126760398Y-89581273D01*
X126760398Y-89581273D02*
X126794070Y-89639594D01*
X126794070Y-89639594D02*
X126815417Y-89743912D01*
X126815417Y-89743912D02*
X126766118Y-89927898D01*
X126766118Y-89927898D02*
X126695472Y-90007566D01*
X126695472Y-90007566D02*
X126637151Y-90041238D01*
X126637151Y-90041238D02*
X126532833Y-90062585D01*
X126532833Y-90062585D02*
X126348847Y-90013286D01*
X126348847Y-90013286D02*
X126269179Y-89942640D01*
X126269179Y-89942640D02*
X126235507Y-89884319D01*
X126235507Y-89884319D02*
X126214160Y-89780001D01*
X126214160Y-89780001D02*
X126263459Y-89596015D01*
X126263459Y-89596015D02*
X126334105Y-89516347D01*
X126334105Y-89516347D02*
X126392426Y-89482675D01*
X126392426Y-89482675D02*
X126496744Y-89461328D01*
X43754819Y-56635714D02*
X42754819Y-56635714D01*
X42754819Y-56635714D02*
X42754819Y-56873809D01*
X42754819Y-56873809D02*
X42802438Y-57016666D01*
X42802438Y-57016666D02*
X42897676Y-57111904D01*
X42897676Y-57111904D02*
X42992914Y-57159523D01*
X42992914Y-57159523D02*
X43183390Y-57207142D01*
X43183390Y-57207142D02*
X43326247Y-57207142D01*
X43326247Y-57207142D02*
X43516723Y-57159523D01*
X43516723Y-57159523D02*
X43611961Y-57111904D01*
X43611961Y-57111904D02*
X43707200Y-57016666D01*
X43707200Y-57016666D02*
X43754819Y-56873809D01*
X43754819Y-56873809D02*
X43754819Y-56635714D01*
X42754819Y-57540476D02*
X42754819Y-58159523D01*
X42754819Y-58159523D02*
X43135771Y-57826190D01*
X43135771Y-57826190D02*
X43135771Y-57969047D01*
X43135771Y-57969047D02*
X43183390Y-58064285D01*
X43183390Y-58064285D02*
X43231009Y-58111904D01*
X43231009Y-58111904D02*
X43326247Y-58159523D01*
X43326247Y-58159523D02*
X43564342Y-58159523D01*
X43564342Y-58159523D02*
X43659580Y-58111904D01*
X43659580Y-58111904D02*
X43707200Y-58064285D01*
X43707200Y-58064285D02*
X43754819Y-57969047D01*
X43754819Y-57969047D02*
X43754819Y-57683333D01*
X43754819Y-57683333D02*
X43707200Y-57588095D01*
X43707200Y-57588095D02*
X43659580Y-57540476D01*
X42754819Y-58492857D02*
X42754819Y-59159523D01*
X42754819Y-59159523D02*
X43754819Y-58730952D01*
X139053710Y-86402230D02*
X139312529Y-85436304D01*
X139312529Y-85436304D02*
X139082546Y-85374681D01*
X139082546Y-85374681D02*
X138932232Y-85383703D01*
X138932232Y-85383703D02*
X138815590Y-85451047D01*
X138815590Y-85451047D02*
X138744944Y-85530715D01*
X138744944Y-85530715D02*
X138649649Y-85702376D01*
X138649649Y-85702376D02*
X138612674Y-85840365D01*
X138612674Y-85840365D02*
X138609372Y-86036676D01*
X138609372Y-86036676D02*
X138630719Y-86140994D01*
X138630719Y-86140994D02*
X138698063Y-86257636D01*
X138698063Y-86257636D02*
X138823727Y-86340607D01*
X138823727Y-86340607D02*
X139053710Y-86402230D01*
X137886638Y-85054238D02*
X138346603Y-85177485D01*
X138346603Y-85177485D02*
X138269352Y-85649775D01*
X138269352Y-85649775D02*
X138235680Y-85591454D01*
X138235680Y-85591454D02*
X138156012Y-85520808D01*
X138156012Y-85520808D02*
X137926030Y-85459184D01*
X137926030Y-85459184D02*
X137821712Y-85480531D01*
X137821712Y-85480531D02*
X137763391Y-85514203D01*
X137763391Y-85514203D02*
X137692745Y-85593871D01*
X137692745Y-85593871D02*
X137631122Y-85823853D01*
X137631122Y-85823853D02*
X137652469Y-85928171D01*
X137652469Y-85928171D02*
X137686140Y-85986492D01*
X137686140Y-85986492D02*
X137765809Y-86057138D01*
X137765809Y-86057138D02*
X137995791Y-86118762D01*
X137995791Y-86118762D02*
X138100109Y-86097415D01*
X138100109Y-86097415D02*
X138158430Y-86063743D01*
X137121858Y-85884592D02*
X136937872Y-85835293D01*
X136937872Y-85835293D02*
X136858204Y-85764647D01*
X136858204Y-85764647D02*
X136824532Y-85706326D01*
X136824532Y-85706326D02*
X136769513Y-85543687D01*
X136769513Y-85543687D02*
X136772816Y-85347377D01*
X136772816Y-85347377D02*
X136871413Y-84979405D01*
X136871413Y-84979405D02*
X136942059Y-84899737D01*
X136942059Y-84899737D02*
X137000381Y-84866065D01*
X137000381Y-84866065D02*
X137104698Y-84844718D01*
X137104698Y-84844718D02*
X137288684Y-84894017D01*
X137288684Y-84894017D02*
X137368352Y-84964663D01*
X137368352Y-84964663D02*
X137402024Y-85022984D01*
X137402024Y-85022984D02*
X137423371Y-85127302D01*
X137423371Y-85127302D02*
X137361747Y-85357284D01*
X137361747Y-85357284D02*
X137291102Y-85436952D01*
X137291102Y-85436952D02*
X137232780Y-85470624D01*
X137232780Y-85470624D02*
X137128463Y-85491971D01*
X137128463Y-85491971D02*
X136944477Y-85442672D01*
X136944477Y-85442672D02*
X136864809Y-85372026D01*
X136864809Y-85372026D02*
X136831137Y-85313705D01*
X136831137Y-85313705D02*
X136809790Y-85209387D01*
X82254819Y-13611905D02*
X81254819Y-13611905D01*
X81254819Y-13611905D02*
X81254819Y-13850000D01*
X81254819Y-13850000D02*
X81302438Y-13992857D01*
X81302438Y-13992857D02*
X81397676Y-14088095D01*
X81397676Y-14088095D02*
X81492914Y-14135714D01*
X81492914Y-14135714D02*
X81683390Y-14183333D01*
X81683390Y-14183333D02*
X81826247Y-14183333D01*
X81826247Y-14183333D02*
X82016723Y-14135714D01*
X82016723Y-14135714D02*
X82111961Y-14088095D01*
X82111961Y-14088095D02*
X82207200Y-13992857D01*
X82207200Y-13992857D02*
X82254819Y-13850000D01*
X82254819Y-13850000D02*
X82254819Y-13611905D01*
X81254819Y-14516667D02*
X81254819Y-15135714D01*
X81254819Y-15135714D02*
X81635771Y-14802381D01*
X81635771Y-14802381D02*
X81635771Y-14945238D01*
X81635771Y-14945238D02*
X81683390Y-15040476D01*
X81683390Y-15040476D02*
X81731009Y-15088095D01*
X81731009Y-15088095D02*
X81826247Y-15135714D01*
X81826247Y-15135714D02*
X82064342Y-15135714D01*
X82064342Y-15135714D02*
X82159580Y-15088095D01*
X82159580Y-15088095D02*
X82207200Y-15040476D01*
X82207200Y-15040476D02*
X82254819Y-14945238D01*
X82254819Y-14945238D02*
X82254819Y-14659524D01*
X82254819Y-14659524D02*
X82207200Y-14564286D01*
X82207200Y-14564286D02*
X82159580Y-14516667D01*
X101254819Y-30635714D02*
X100254819Y-30635714D01*
X100254819Y-30635714D02*
X100254819Y-30873809D01*
X100254819Y-30873809D02*
X100302438Y-31016666D01*
X100302438Y-31016666D02*
X100397676Y-31111904D01*
X100397676Y-31111904D02*
X100492914Y-31159523D01*
X100492914Y-31159523D02*
X100683390Y-31207142D01*
X100683390Y-31207142D02*
X100826247Y-31207142D01*
X100826247Y-31207142D02*
X101016723Y-31159523D01*
X101016723Y-31159523D02*
X101111961Y-31111904D01*
X101111961Y-31111904D02*
X101207200Y-31016666D01*
X101207200Y-31016666D02*
X101254819Y-30873809D01*
X101254819Y-30873809D02*
X101254819Y-30635714D01*
X101254819Y-32159523D02*
X101254819Y-31588095D01*
X101254819Y-31873809D02*
X100254819Y-31873809D01*
X100254819Y-31873809D02*
X100397676Y-31778571D01*
X100397676Y-31778571D02*
X100492914Y-31683333D01*
X100492914Y-31683333D02*
X100540533Y-31588095D01*
X100254819Y-32492857D02*
X100254819Y-33111904D01*
X100254819Y-33111904D02*
X100635771Y-32778571D01*
X100635771Y-32778571D02*
X100635771Y-32921428D01*
X100635771Y-32921428D02*
X100683390Y-33016666D01*
X100683390Y-33016666D02*
X100731009Y-33064285D01*
X100731009Y-33064285D02*
X100826247Y-33111904D01*
X100826247Y-33111904D02*
X101064342Y-33111904D01*
X101064342Y-33111904D02*
X101159580Y-33064285D01*
X101159580Y-33064285D02*
X101207200Y-33016666D01*
X101207200Y-33016666D02*
X101254819Y-32921428D01*
X101254819Y-32921428D02*
X101254819Y-32635714D01*
X101254819Y-32635714D02*
X101207200Y-32540476D01*
X101207200Y-32540476D02*
X101159580Y-32492857D01*
%TO.C,D1*%
D11*
X98000000Y-15600000D02*
X98000000Y-11700000D01*
X100000000Y-15600000D02*
X100000000Y-11700000D01*
%TO.C,LED34*%
D12*
X135787500Y-55185000D02*
X132787500Y-55185000D01*
X135787500Y-56785000D02*
X135787500Y-55185000D01*
D13*
X135187500Y-55185000D02*
X135787500Y-55185000D01*
X135787500Y-55785000D01*
X135187500Y-55185000D01*
G36*
X135787500Y-55785000D02*
G01*
X135187500Y-55185000D01*
X135787500Y-55185000D01*
X135787500Y-55785000D01*
G37*
%TO.C,LED30*%
D12*
X116737500Y-54880000D02*
X116737500Y-53280000D01*
%TO.C,LED48*%
X135787500Y-74235000D02*
X132787500Y-74235000D01*
X135787500Y-75835000D02*
X135787500Y-74235000D01*
D13*
X135187500Y-74235000D02*
X135787500Y-74235000D01*
X135787500Y-74835000D01*
X135187500Y-74235000D01*
G36*
X135787500Y-74835000D02*
G01*
X135187500Y-74235000D01*
X135787500Y-74235000D01*
X135787500Y-74835000D01*
G37*
%TO.C,LED11*%
D12*
X40537500Y-18037500D02*
X37537500Y-18037500D01*
X40537500Y-19637500D02*
X40537500Y-18037500D01*
D13*
X39937500Y-18037500D02*
X40537500Y-18037500D01*
X40537500Y-18637500D01*
X39937500Y-18037500D01*
G36*
X40537500Y-18637500D02*
G01*
X39937500Y-18037500D01*
X40537500Y-18037500D01*
X40537500Y-18637500D01*
G37*
%TO.C,LED8*%
D12*
X135787500Y-17085000D02*
X132787500Y-17085000D01*
X135787500Y-18685000D02*
X135787500Y-17085000D01*
D13*
X135187500Y-17085000D02*
X135787500Y-17085000D01*
X135787500Y-17685000D01*
X135187500Y-17085000D01*
G36*
X135787500Y-17685000D02*
G01*
X135187500Y-17085000D01*
X135787500Y-17085000D01*
X135787500Y-17685000D01*
G37*
%TO.C,J1*%
D11*
X139440000Y-29090000D02*
X140360000Y-29090000D01*
X139440000Y-30690000D02*
X140360000Y-30690000D01*
X139440000Y-36910000D02*
X139440000Y-29090000D01*
X140360000Y-29090000D02*
X140360000Y-30690000D01*
X140360000Y-30690000D02*
X140640000Y-30690000D01*
X142000000Y-32550000D02*
X142000000Y-36910000D01*
X143000000Y-32550000D02*
X142000000Y-32550000D01*
X143000000Y-36910000D02*
X143000000Y-32550000D01*
X143800000Y-34650000D02*
X143800000Y-36910000D01*
X144300000Y-34650000D02*
X144300000Y-36910000D01*
X144360000Y-30690000D02*
X144360000Y-29475000D01*
X144360000Y-30690000D02*
X144640000Y-30690000D01*
X144640000Y-29090000D02*
X145560000Y-29090000D01*
X144640000Y-30690000D02*
X144640000Y-29090000D01*
X145560000Y-29090000D02*
X145560000Y-36910000D01*
X145560000Y-30690000D02*
X144640000Y-30690000D01*
X145560000Y-36910000D02*
X139440000Y-36910000D01*
X140200000Y-33050000D02*
X141200000Y-33050000D01*
X141200000Y-34650000D01*
X140200000Y-34650000D01*
X140200000Y-33050000D01*
X143800000Y-33050000D02*
X144800000Y-33050000D01*
X144800000Y-34650000D01*
X143800000Y-34650000D01*
X143800000Y-33050000D01*
%TO.C,LED26*%
D12*
X153200000Y-52000000D02*
X150200000Y-52000000D01*
X153200000Y-53600000D02*
X153200000Y-52000000D01*
D13*
X152600000Y-52000000D02*
X153200000Y-52000000D01*
X153200000Y-52600000D01*
X152600000Y-52000000D01*
G36*
X153200000Y-52600000D02*
G01*
X152600000Y-52000000D01*
X153200000Y-52000000D01*
X153200000Y-52600000D01*
G37*
%TO.C,D20*%
D11*
X136000000Y-41750000D02*
X136000000Y-37850000D01*
X138000000Y-41750000D02*
X138000000Y-37850000D01*
%TO.C,D25*%
X99500000Y-52600000D02*
X99500000Y-48700000D01*
%TO.C,D44*%
X118500000Y-74100000D02*
X118500000Y-70200000D01*
%TO.C,LED41*%
D12*
X153575000Y-71500000D02*
X150575000Y-71500000D01*
X153575000Y-73100000D02*
X153575000Y-71500000D01*
D13*
X152975000Y-71500000D02*
X153575000Y-71500000D01*
X153575000Y-72100000D01*
X152975000Y-71500000D01*
G36*
X153575000Y-72100000D02*
G01*
X152975000Y-71500000D01*
X153575000Y-71500000D01*
X153575000Y-72100000D01*
G37*
%TO.C,D48*%
D11*
X136000000Y-79600000D02*
X136000000Y-75700000D01*
X138000000Y-79600000D02*
X138000000Y-75700000D01*
%TO.C,LED37*%
D12*
X38156300Y-56137500D02*
X35156300Y-56137500D01*
X38156300Y-57737500D02*
X38156300Y-56137500D01*
D13*
X37556300Y-56137500D02*
X38156300Y-56137500D01*
X38156300Y-56737500D01*
X37556300Y-56137500D01*
G36*
X38156300Y-56737500D02*
G01*
X37556300Y-56137500D01*
X38156300Y-56137500D01*
X38156300Y-56737500D01*
G37*
%TO.C,LED13*%
D12*
X97687500Y-33925000D02*
X97687500Y-32325000D01*
%TO.C,LED51*%
X38156300Y-75187500D02*
X35156300Y-75187500D01*
X38156300Y-76787500D02*
X38156300Y-75187500D01*
D13*
X37556300Y-75187500D02*
X38156300Y-75187500D01*
X38156300Y-75787500D01*
X37556300Y-75187500D01*
G36*
X38156300Y-75787500D02*
G01*
X37556300Y-75187500D01*
X38156300Y-75187500D01*
X38156300Y-75787500D01*
G37*
%TO.C,D41*%
D11*
X154500000Y-75750000D02*
X154500000Y-71850000D01*
X156500000Y-75750000D02*
X156500000Y-71850000D01*
%TO.C,LED4*%
D12*
X116737500Y-15180000D02*
X113737500Y-15180000D01*
X116737500Y-16780000D02*
X116737500Y-15180000D01*
D13*
X116137500Y-15180000D02*
X116737500Y-15180000D01*
X116737500Y-15780000D01*
X116137500Y-15180000D01*
G36*
X116737500Y-15780000D02*
G01*
X116137500Y-15180000D01*
X116737500Y-15180000D01*
X116737500Y-15780000D01*
G37*
%TO.C,LED23*%
D12*
X38156300Y-37087500D02*
X35156300Y-37087500D01*
X38156300Y-38687500D02*
X38156300Y-37087500D01*
D13*
X37556300Y-37087500D02*
X38156300Y-37087500D01*
X38156300Y-37687500D01*
X37556300Y-37087500D01*
G36*
X38156300Y-37687500D02*
G01*
X37556300Y-37087500D01*
X38156300Y-37087500D01*
X38156300Y-37687500D01*
G37*
%TO.C,LED16*%
D12*
X116737500Y-34230000D02*
X113737500Y-34230000D01*
X116737500Y-35830000D02*
X116737500Y-34230000D01*
D13*
X116137500Y-34230000D02*
X116737500Y-34230000D01*
X116737500Y-34830000D01*
X116137500Y-34230000D01*
G36*
X116737500Y-34830000D02*
G01*
X116137500Y-34230000D01*
X116737500Y-34230000D01*
X116737500Y-34830000D01*
G37*
%TO.C,D47*%
D11*
X61000000Y-76100000D02*
X61000000Y-72200000D01*
%TO.C,D8*%
X136000000Y-22600000D02*
X136000000Y-18700000D01*
X138000000Y-22600000D02*
X138000000Y-18700000D01*
%TO.C,D11*%
X38500000Y-24600000D02*
X38500000Y-20700000D01*
X40500000Y-24600000D02*
X40500000Y-20700000D01*
%TO.C,D26*%
X154500000Y-56750000D02*
X154500000Y-52850000D01*
X156500000Y-56750000D02*
X156500000Y-52850000D01*
%TO.C,LED43*%
D12*
X78637500Y-73930000D02*
X78637500Y-72330000D01*
%TO.C,D29*%
D11*
X80500000Y-54100000D02*
X80500000Y-50200000D01*
%TO.C,LED19*%
D12*
X59587500Y-36135000D02*
X56587500Y-36135000D01*
X59587500Y-37735000D02*
X59587500Y-36135000D01*
D13*
X58987500Y-36135000D02*
X59587500Y-36135000D01*
X59587500Y-36735000D01*
X58987500Y-36135000D01*
G36*
X59587500Y-36735000D02*
G01*
X58987500Y-36135000D01*
X59587500Y-36135000D01*
X59587500Y-36735000D01*
G37*
%TO.C,D53*%
D11*
X105500000Y-96250000D02*
X105500000Y-92350000D01*
X107500000Y-96250000D02*
X107500000Y-92350000D01*
%TO.C,LED59*%
D12*
X145252808Y-98028205D02*
X144476351Y-100925983D01*
X146798290Y-98442316D02*
X145252808Y-98028205D01*
D13*
X145097517Y-98607761D02*
X145252808Y-98028205D01*
X145832364Y-98183497D01*
X145097517Y-98607761D01*
G36*
X145832364Y-98183497D02*
G01*
X145097517Y-98607761D01*
X145252808Y-98028205D01*
X145832364Y-98183497D01*
G37*
%TO.C,LED53*%
D12*
X104831300Y-91380000D02*
X101831300Y-91380000D01*
X104831300Y-92980000D02*
X104831300Y-91380000D01*
D13*
X104231300Y-91380000D02*
X104831300Y-91380000D01*
X104831300Y-91980000D01*
X104231300Y-91380000D01*
G36*
X104831300Y-91980000D02*
G01*
X104231300Y-91380000D01*
X104831300Y-91380000D01*
X104831300Y-91980000D01*
G37*
%TO.C,D55*%
D11*
X51000000Y-94100000D02*
X51000000Y-90200000D01*
X53000000Y-94100000D02*
X53000000Y-90200000D01*
%TO.C,D23*%
X39500000Y-42100000D02*
X39500000Y-38200000D01*
X41500000Y-42100000D02*
X41500000Y-38200000D01*
%TO.C,D4*%
X117000000Y-22250000D02*
X117000000Y-18350000D01*
X119000000Y-22250000D02*
X119000000Y-18350000D01*
%TO.C,D19*%
X60037500Y-40600000D02*
X60037500Y-36700000D01*
X62037500Y-40600000D02*
X62037500Y-36700000D01*
%TO.C,D43*%
X80000000Y-75100000D02*
X80000000Y-71200000D01*
%TO.C,D51*%
X39000000Y-78750000D02*
X39000000Y-74850000D01*
X41000000Y-78750000D02*
X41000000Y-74850000D01*
%TO.C,D30*%
X118500000Y-55600000D02*
X118500000Y-51700000D01*
%TO.C,D7*%
X60000000Y-20600000D02*
X60000000Y-16700000D01*
X62000000Y-20600000D02*
X62000000Y-16700000D01*
%TO.C,D34*%
X136000000Y-60600000D02*
X136000000Y-56700000D01*
X138000000Y-60600000D02*
X138000000Y-56700000D01*
%TO.C,LED20*%
D12*
X135787500Y-36135000D02*
X132787500Y-36135000D01*
X135787500Y-37735000D02*
X135787500Y-36135000D01*
D13*
X135187500Y-36135000D02*
X135787500Y-36135000D01*
X135787500Y-36735000D01*
X135187500Y-36135000D01*
G36*
X135787500Y-36735000D02*
G01*
X135187500Y-36135000D01*
X135787500Y-36135000D01*
X135787500Y-36735000D01*
G37*
%TO.C,LED44*%
D12*
X116737500Y-73930000D02*
X116737500Y-72330000D01*
%TO.C,LED58*%
X126235608Y-95397805D02*
X125459151Y-98295583D01*
X127781090Y-95811916D02*
X126235608Y-95397805D01*
D13*
X126080317Y-95977361D02*
X126235608Y-95397805D01*
X126815164Y-95553097D01*
X126080317Y-95977361D01*
G36*
X126815164Y-95553097D02*
G01*
X126080317Y-95977361D01*
X126235608Y-95397805D01*
X126815164Y-95553097D01*
G37*
%TO.C,D54*%
D11*
X81500000Y-92250000D02*
X81500000Y-88350000D01*
X83500000Y-92250000D02*
X83500000Y-88350000D01*
%TO.C,D58*%
X128820714Y-93621169D02*
X125053603Y-92611774D01*
X129338352Y-91689317D02*
X125571241Y-90679923D01*
%TO.C,D37*%
X40000000Y-60100000D02*
X40000000Y-56200000D01*
X42000000Y-60100000D02*
X42000000Y-56200000D01*
%TO.C,LED1*%
D12*
X97687500Y-13275000D02*
X94687500Y-13275000D01*
X97687500Y-14875000D02*
X97687500Y-13275000D01*
D13*
X97087500Y-13275000D02*
X97687500Y-13275000D01*
X97687500Y-13875000D01*
X97087500Y-13275000D01*
G36*
X97687500Y-13875000D02*
G01*
X97087500Y-13275000D01*
X97687500Y-13275000D01*
X97687500Y-13875000D01*
G37*
%TO.C,LED54*%
D12*
X78637500Y-93285000D02*
X75637500Y-93285000D01*
X78637500Y-94885000D02*
X78637500Y-93285000D01*
D13*
X78037500Y-93285000D02*
X78637500Y-93285000D01*
X78637500Y-93885000D01*
X78037500Y-93285000D01*
G36*
X78637500Y-93885000D02*
G01*
X78037500Y-93285000D01*
X78637500Y-93285000D01*
X78637500Y-93885000D01*
G37*
%TO.C,D16*%
D11*
X115000000Y-41100000D02*
X115000000Y-37200000D01*
X117000000Y-41100000D02*
X117000000Y-37200000D01*
%TO.C,LED55*%
D12*
X47681300Y-94237500D02*
X44681300Y-94237500D01*
X47681300Y-95837500D02*
X47681300Y-94237500D01*
D13*
X47081300Y-94237500D02*
X47681300Y-94237500D01*
X47681300Y-94837500D01*
X47081300Y-94237500D01*
G36*
X47681300Y-94837500D02*
G01*
X47081300Y-94237500D01*
X47681300Y-94237500D01*
X47681300Y-94837500D01*
G37*
%TO.C,D59*%
D11*
X136161648Y-83810583D02*
X139928759Y-84819977D01*
X136679286Y-81878731D02*
X140446397Y-82888126D01*
%TO.C,LED25*%
D12*
X97687500Y-52975000D02*
X97687500Y-51375000D01*
%TO.C,D3*%
D11*
X80500000Y-16600000D02*
X80500000Y-12700000D01*
%TO.C,D13*%
X99500000Y-34100000D02*
X99500000Y-30200000D01*
%TO.C,LED7*%
D12*
X59587500Y-17085000D02*
X56587500Y-17085000D01*
X59587500Y-18685000D02*
X59587500Y-17085000D01*
D13*
X58987500Y-17085000D02*
X59587500Y-17085000D01*
X59587500Y-17685000D01*
X58987500Y-17085000D01*
G36*
X59587500Y-17685000D02*
G01*
X58987500Y-17085000D01*
X59587500Y-17085000D01*
X59587500Y-17685000D01*
G37*
%TD*%
M02*
