%TF.GenerationSoftware,KiCad,Pcbnew,10.0.5*%
%TF.CreationDate,2026-09-22T23:22:17+09:00*%
%TF.ProjectId,keyboard,6b657962-6f61-4726-942e-6b696361645f,rev?*%
%TF.SameCoordinates,Original*%
%TF.FileFunction,Legend,Top*%
%TF.FilePolarity,Positive*%
%FSLAX46Y46*%
G04 Gerber Fmt 4.6, Leading zero omitted, Abs format (unit mm)*
G04 Created by KiCad (PCBNEW 10.0.5) date 2026-09-22 23:22:17*
%MOMM*%
%LPD*%
G01*
G04 APERTURE LIST*
%ADD10C,0.101600*%
%ADD11C,0.125000*%
%ADD12C,0.100000*%
%ADD13C,0.127000*%
%ADD14C,0.504000*%
%ADD15C,0.120000*%
G04 APERTURE END LIST*
D10*
X148002976Y2227688D02*
X148002976Y1580069D01*
X148002976Y1580069D02*
X148041071Y1503879D01*
X148041071Y1503879D02*
X148079166Y1465784D01*
X148079166Y1465784D02*
X148155357Y1427688D01*
X148155357Y1427688D02*
X148307738Y1427688D01*
X148307738Y1427688D02*
X148383928Y1465784D01*
X148383928Y1465784D02*
X148422023Y1503879D01*
X148422023Y1503879D02*
X148460119Y1580069D01*
X148460119Y1580069D02*
X148460119Y2227688D01*
X149260118Y1427688D02*
X148802975Y1427688D01*
X149031547Y1427688D02*
X149031547Y2227688D01*
X149031547Y2227688D02*
X148955356Y2113403D01*
X148955356Y2113403D02*
X148879166Y2037212D01*
X148879166Y2037212D02*
X148802975Y1999117D01*
D11*
X137071428Y-29510880D02*
X137023809Y-29558500D01*
X137023809Y-29558500D02*
X136880952Y-29606119D01*
X136880952Y-29606119D02*
X136785714Y-29606119D01*
X136785714Y-29606119D02*
X136642857Y-29558500D01*
X136642857Y-29558500D02*
X136547619Y-29463261D01*
X136547619Y-29463261D02*
X136500000Y-29368023D01*
X136500000Y-29368023D02*
X136452381Y-29177547D01*
X136452381Y-29177547D02*
X136452381Y-29034690D01*
X136452381Y-29034690D02*
X136500000Y-28844214D01*
X136500000Y-28844214D02*
X136547619Y-28748976D01*
X136547619Y-28748976D02*
X136642857Y-28653738D01*
X136642857Y-28653738D02*
X136785714Y-28606119D01*
X136785714Y-28606119D02*
X136880952Y-28606119D01*
X136880952Y-28606119D02*
X137023809Y-28653738D01*
X137023809Y-28653738D02*
X137071428Y-28701357D01*
X137261905Y-29701357D02*
X138023809Y-29701357D01*
X138738095Y-29606119D02*
X138261905Y-29606119D01*
X138261905Y-29606119D02*
X138261905Y-28606119D01*
X139023810Y-29558500D02*
X139166667Y-29606119D01*
X139166667Y-29606119D02*
X139404762Y-29606119D01*
X139404762Y-29606119D02*
X139500000Y-29558500D01*
X139500000Y-29558500D02*
X139547619Y-29510880D01*
X139547619Y-29510880D02*
X139595238Y-29415642D01*
X139595238Y-29415642D02*
X139595238Y-29320404D01*
X139595238Y-29320404D02*
X139547619Y-29225166D01*
X139547619Y-29225166D02*
X139500000Y-29177547D01*
X139500000Y-29177547D02*
X139404762Y-29129928D01*
X139404762Y-29129928D02*
X139214286Y-29082309D01*
X139214286Y-29082309D02*
X139119048Y-29034690D01*
X139119048Y-29034690D02*
X139071429Y-28987071D01*
X139071429Y-28987071D02*
X139023810Y-28891833D01*
X139023810Y-28891833D02*
X139023810Y-28796595D01*
X139023810Y-28796595D02*
X139071429Y-28701357D01*
X139071429Y-28701357D02*
X139119048Y-28653738D01*
X139119048Y-28653738D02*
X139214286Y-28606119D01*
X139214286Y-28606119D02*
X139452381Y-28606119D01*
X139452381Y-28606119D02*
X139595238Y-28653738D01*
X140547619Y-29606119D02*
X139976191Y-29606119D01*
X140261905Y-29606119D02*
X140261905Y-28606119D01*
X140261905Y-28606119D02*
X140166667Y-28748976D01*
X140166667Y-28748976D02*
X140071429Y-28844214D01*
X140071429Y-28844214D02*
X139976191Y-28891833D01*
%TO.C,U1*%
D12*
X141627500Y-22021500D02*
X155597500Y-22021500D01*
D13*
X144117500Y-1066500D02*
X144121228Y-56228D01*
X144621228Y443500D02*
X152616500Y443500D01*
X153116500Y-56500D02*
X153116500Y-1066500D01*
D12*
X155597500Y-1066500D02*
X141627500Y-1066500D01*
D14*
X139764500Y-1482500D02*
G75*
G02*
X139260500Y-1482500I-252000J0D01*
G01*
X139260500Y-1482500D02*
G75*
G02*
X139764500Y-1482500I252000J0D01*
G01*
X141038500Y-2199500D02*
G75*
G02*
X140534500Y-2199500I-252000J0D01*
G01*
X140534500Y-2199500D02*
G75*
G02*
X141038500Y-2199500I252000J0D01*
G01*
D15*
%TO.C,U_RGB1*%
X145280000Y-36060000D02*
X145140000Y-35870000D01*
X145420000Y-35870000D01*
X145280000Y-36060000D01*
G36*
X145280000Y-36060000D02*
G01*
X145140000Y-35870000D01*
X145420000Y-35870000D01*
X145280000Y-36060000D01*
G37*
%TO.C,U_LS1*%
X138090000Y-32640000D02*
X139910000Y-32640000D01*
X138090000Y-32690000D02*
X138090000Y-32640000D01*
X139910000Y-32640000D02*
X139910000Y-32690000D01*
X139910000Y-33810000D02*
X139910000Y-34590000D01*
X139910000Y-35710000D02*
X139910000Y-35760000D01*
%TO.C,SWP1*%
X155500000Y-29087500D02*
X155500000Y-28887500D01*
X155500000Y-32087500D02*
X155500000Y-30387500D01*
X156600000Y-27037500D02*
X157400000Y-27037500D01*
X156600000Y-33937500D02*
X157400000Y-33937500D01*
%TD*%
M02*
