%TF.GenerationSoftware,KiCad,Pcbnew,10.0.5*%
%TF.CreationDate,2026-09-23T03:24:25+09:00*%
%TF.ProjectId,keyboard,6b657962-6f61-4726-942e-6b696361645f,rev?*%
%TF.SameCoordinates,Original*%
%TF.FileFunction,Other,User*%
%FSLAX46Y46*%
G04 Gerber Fmt 4.6, Leading zero omitted, Abs format (unit mm)*
G04 Created by KiCad (PCBNEW 10.0.5) date 2026-09-23 03:24:25*
%MOMM*%
%LPD*%
G01*
G04 APERTURE LIST*
%ADD10C,0.050000*%
%ADD11C,0.120000*%
G04 APERTURE END LIST*
D10*
%TO.C,SW41*%
X138287500Y-62345000D02*
X141287500Y-62345000D01*
X141287500Y-59625000D01*
X155687500Y-59625000D01*
X155687500Y-63305000D01*
X152737500Y-63305000D01*
X152737500Y-66075000D01*
X138287500Y-66075000D01*
X138287500Y-62345000D01*
%TO.C,SW4*%
X100187500Y-7100000D02*
X103187500Y-7100000D01*
X103187500Y-4380000D01*
X117587500Y-4380000D01*
X117587500Y-8060000D01*
X114637500Y-8060000D01*
X114637500Y-10830000D01*
X100187500Y-10830000D01*
X100187500Y-7100000D01*
%TO.C,SW26*%
X138287500Y-43295000D02*
X141287500Y-43295000D01*
X141287500Y-40575000D01*
X155687500Y-40575000D01*
X155687500Y-44255000D01*
X152737500Y-44255000D01*
X152737500Y-47025000D01*
X138287500Y-47025000D01*
X138287500Y-43295000D01*
%TO.C,SW55*%
X31131300Y-86157500D02*
X34131300Y-86157500D01*
X34131300Y-83437500D01*
X48531300Y-83437500D01*
X48531300Y-87117500D01*
X45581300Y-87117500D01*
X45581300Y-89887500D01*
X31131300Y-89887500D01*
X31131300Y-86157500D01*
%TO.C,SW37*%
X21606300Y-48057500D02*
X24606300Y-48057500D01*
X24606300Y-45337500D01*
X39006300Y-45337500D01*
X39006300Y-49017500D01*
X36056300Y-49017500D01*
X36056300Y-51787500D01*
X21606300Y-51787500D01*
X21606300Y-48057500D01*
%TO.C,SW1*%
X81137500Y-5195000D02*
X84137500Y-5195000D01*
X84137500Y-2475000D01*
X98537500Y-2475000D01*
X98537500Y-6155000D01*
X95587500Y-6155000D01*
X95587500Y-8925000D01*
X81137500Y-8925000D01*
X81137500Y-5195000D01*
%TO.C,SW33*%
X43037500Y-47105000D02*
X46037500Y-47105000D01*
X46037500Y-44385000D01*
X60437500Y-44385000D01*
X60437500Y-48065000D01*
X57487500Y-48065000D01*
X57487500Y-50835000D01*
X43037500Y-50835000D01*
X43037500Y-47105000D01*
%TO.C,SW23*%
X21606300Y-29007500D02*
X24606300Y-29007500D01*
X24606300Y-26287500D01*
X39006300Y-26287500D01*
X39006300Y-29967500D01*
X36056300Y-29967500D01*
X36056300Y-32737500D01*
X21606300Y-32737500D01*
X21606300Y-29007500D01*
%TO.C,SW15*%
X62087500Y-26150000D02*
X65087500Y-26150000D01*
X65087500Y-23430000D01*
X79487500Y-23430000D01*
X79487500Y-27110000D01*
X76537500Y-27110000D01*
X76537500Y-29880000D01*
X62087500Y-29880000D01*
X62087500Y-26150000D01*
%TO.C,SW53*%
X88281300Y-83300000D02*
X91281300Y-83300000D01*
X91281300Y-80580000D01*
X105681300Y-80580000D01*
X105681300Y-84260000D01*
X102731300Y-84260000D01*
X102731300Y-87030000D01*
X88281300Y-87030000D01*
X88281300Y-83300000D01*
%TO.C,SW16*%
X100187500Y-26150000D02*
X103187500Y-26150000D01*
X103187500Y-23430000D01*
X117587500Y-23430000D01*
X117587500Y-27110000D01*
X114637500Y-27110000D01*
X114637500Y-29880000D01*
X100187500Y-29880000D01*
X100187500Y-26150000D01*
%TO.C,SW54*%
X62087500Y-85205000D02*
X65087500Y-85205000D01*
X65087500Y-82485000D01*
X79487500Y-82485000D01*
X79487500Y-86165000D01*
X76537500Y-86165000D01*
X76537500Y-88935000D01*
X62087500Y-88935000D01*
X62087500Y-85205000D01*
%TO.C,SW3*%
X62087500Y-7100000D02*
X65087500Y-7100000D01*
X65087500Y-4380000D01*
X79487500Y-4380000D01*
X79487500Y-8060000D01*
X76537500Y-8060000D01*
X76537500Y-10830000D01*
X62087500Y-10830000D01*
X62087500Y-7100000D01*
%TO.C,SW40*%
X81137500Y-62345000D02*
X84137500Y-62345000D01*
X84137500Y-59625000D01*
X98537500Y-59625000D01*
X98537500Y-63305000D01*
X95587500Y-63305000D01*
X95587500Y-66075000D01*
X81137500Y-66075000D01*
X81137500Y-62345000D01*
%TO.C,SW44*%
X100187500Y-64250000D02*
X103187500Y-64250000D01*
X103187500Y-61530000D01*
X117587500Y-61530000D01*
X117587500Y-65210000D01*
X114637500Y-65210000D01*
X114637500Y-67980000D01*
X100187500Y-67980000D01*
X100187500Y-64250000D01*
%TO.C,SW58*%
X114147483Y-109292620D02*
X114923940Y-106394843D01*
X112296622Y-105690855D01*
X116023616Y-91781523D01*
X119578223Y-92733977D01*
X118814707Y-95583458D01*
X121490322Y-96300387D01*
X117750386Y-110258015D01*
X114147483Y-109292620D01*
%TO.C,SW34*%
X119237500Y-47105000D02*
X122237500Y-47105000D01*
X122237500Y-44385000D01*
X136637500Y-44385000D01*
X136637500Y-48065000D01*
X133687500Y-48065000D01*
X133687500Y-50835000D01*
X119237500Y-50835000D01*
X119237500Y-47105000D01*
%TO.C,SW20*%
X119237500Y-28055000D02*
X122237500Y-28055000D01*
X122237500Y-25335000D01*
X136637500Y-25335000D01*
X136637500Y-29015000D01*
X133687500Y-29015000D01*
X133687500Y-31785000D01*
X119237500Y-31785000D01*
X119237500Y-28055000D01*
%TO.C,SW29*%
X62087500Y-45200000D02*
X65087500Y-45200000D01*
X65087500Y-42480000D01*
X79487500Y-42480000D01*
X79487500Y-46160000D01*
X76537500Y-46160000D01*
X76537500Y-48930000D01*
X62087500Y-48930000D01*
X62087500Y-45200000D01*
%TO.C,SW19*%
X43037500Y-28055000D02*
X46037500Y-28055000D01*
X46037500Y-25335000D01*
X60437500Y-25335000D01*
X60437500Y-29015000D01*
X57487500Y-29015000D01*
X57487500Y-31785000D01*
X43037500Y-31785000D01*
X43037500Y-28055000D01*
%TO.C,SW59*%
X133164683Y-111923020D02*
X133941140Y-109025243D01*
X131313822Y-108321255D01*
X135040816Y-94411923D01*
X138595423Y-95364377D01*
X137831907Y-98213858D01*
X140507522Y-98930787D01*
X136767586Y-112888415D01*
X133164683Y-111923020D01*
%TO.C,SW43*%
X62087500Y-64250000D02*
X65087500Y-64250000D01*
X65087500Y-61530000D01*
X79487500Y-61530000D01*
X79487500Y-65210000D01*
X76537500Y-65210000D01*
X76537500Y-67980000D01*
X62087500Y-67980000D01*
X62087500Y-64250000D01*
%TO.C,SW51*%
X21606300Y-67107500D02*
X24606300Y-67107500D01*
X24606300Y-64387500D01*
X39006300Y-64387500D01*
X39006300Y-68067500D01*
X36056300Y-68067500D01*
X36056300Y-70837500D01*
X21606300Y-70837500D01*
X21606300Y-67107500D01*
%TO.C,SW7*%
X43037500Y-9005000D02*
X46037500Y-9005000D01*
X46037500Y-6285000D01*
X60437500Y-6285000D01*
X60437500Y-9965000D01*
X57487500Y-9965000D01*
X57487500Y-12735000D01*
X43037500Y-12735000D01*
X43037500Y-9005000D01*
%TO.C,SW11*%
X23987500Y-9957500D02*
X26987500Y-9957500D01*
X26987500Y-7237500D01*
X41387500Y-7237500D01*
X41387500Y-10917500D01*
X38437500Y-10917500D01*
X38437500Y-13687500D01*
X23987500Y-13687500D01*
X23987500Y-9957500D01*
%TO.C,SW13*%
X81137500Y-24245000D02*
X84137500Y-24245000D01*
X84137500Y-21525000D01*
X98537500Y-21525000D01*
X98537500Y-25205000D01*
X95587500Y-25205000D01*
X95587500Y-27975000D01*
X81137500Y-27975000D01*
X81137500Y-24245000D01*
%TO.C,SW48*%
X119237500Y-66155000D02*
X122237500Y-66155000D01*
X122237500Y-63435000D01*
X136637500Y-63435000D01*
X136637500Y-67115000D01*
X133687500Y-67115000D01*
X133687500Y-69885000D01*
X119237500Y-69885000D01*
X119237500Y-66155000D01*
%TO.C,SW47*%
X43037500Y-66155000D02*
X46037500Y-66155000D01*
X46037500Y-63435000D01*
X60437500Y-63435000D01*
X60437500Y-67115000D01*
X57487500Y-67115000D01*
X57487500Y-69885000D01*
X43037500Y-69885000D01*
X43037500Y-66155000D01*
%TO.C,SW25*%
X81137500Y-43295000D02*
X84137500Y-43295000D01*
X84137500Y-40575000D01*
X98537500Y-40575000D01*
X98537500Y-44255000D01*
X95587500Y-44255000D01*
X95587500Y-47025000D01*
X81137500Y-47025000D01*
X81137500Y-43295000D01*
%TO.C,SW8*%
X119237500Y-9005000D02*
X122237500Y-9005000D01*
X122237500Y-6285000D01*
X136637500Y-6285000D01*
X136637500Y-9965000D01*
X133687500Y-9965000D01*
X133687500Y-12735000D01*
X119237500Y-12735000D01*
X119237500Y-9005000D01*
%TO.C,SW30*%
X100187500Y-45200000D02*
X103187500Y-45200000D01*
X103187500Y-42480000D01*
X117587500Y-42480000D01*
X117587500Y-46160000D01*
X114637500Y-46160000D01*
X114637500Y-48930000D01*
X100187500Y-48930000D01*
X100187500Y-45200000D01*
%TO.C,D1*%
X97850000Y-11000000D02*
X97850000Y-15700000D01*
X100150000Y-11000000D02*
X97850000Y-11000000D01*
X100150000Y-15700000D02*
X97850000Y-15700000D01*
X100150000Y-15700000D02*
X100150000Y-11000000D01*
%TO.C,D40*%
X96850000Y-68000000D02*
X96850000Y-72700000D01*
X99150000Y-68000000D02*
X96850000Y-68000000D01*
X99150000Y-72700000D02*
X96850000Y-72700000D01*
X99150000Y-72700000D02*
X99150000Y-68000000D01*
%TO.C,LED34*%
D11*
X125087500Y-55185000D02*
X125087500Y-58185000D01*
X125087500Y-58185000D02*
X132087500Y-58185000D01*
X132087500Y-55185000D02*
X125087500Y-55185000D01*
X132087500Y-58185000D02*
X132087500Y-55185000D01*
%TO.C,LED30*%
X106037500Y-53280000D02*
X106037500Y-56280000D01*
X106037500Y-56280000D02*
X113037500Y-56280000D01*
X113037500Y-53280000D02*
X106037500Y-53280000D01*
X113037500Y-56280000D02*
X113037500Y-53280000D01*
%TO.C,C_RGB4*%
D10*
X102237500Y-15230000D02*
X103837500Y-15230000D01*
X103837500Y-18130000D01*
X102237500Y-18130000D01*
X102237500Y-15230000D01*
%TO.C,C_RGB16*%
X102237500Y-34280000D02*
X103837500Y-34280000D01*
X103837500Y-37180000D01*
X102237500Y-37180000D01*
X102237500Y-34280000D01*
%TO.C,C_RGB37*%
X23656300Y-56187500D02*
X25256300Y-56187500D01*
X25256300Y-59087500D01*
X23656300Y-59087500D01*
X23656300Y-56187500D01*
%TO.C,LED33*%
D11*
X48887500Y-55185000D02*
X48887500Y-58185000D01*
X48887500Y-58185000D02*
X55887500Y-58185000D01*
X55887500Y-55185000D02*
X48887500Y-55185000D01*
X55887500Y-58185000D02*
X55887500Y-55185000D01*
%TO.C,C_RGB1*%
D10*
X83187500Y-13325000D02*
X84787500Y-13325000D01*
X84787500Y-16225000D01*
X83187500Y-16225000D01*
X83187500Y-13325000D01*
%TO.C,LED48*%
D11*
X125087500Y-74235000D02*
X125087500Y-77235000D01*
X125087500Y-77235000D02*
X132087500Y-77235000D01*
X132087500Y-74235000D02*
X125087500Y-74235000D01*
X132087500Y-77235000D02*
X132087500Y-74235000D01*
%TO.C,C_RGB44*%
D10*
X102237500Y-72380000D02*
X103837500Y-72380000D01*
X103837500Y-75280000D01*
X102237500Y-75280000D01*
X102237500Y-72380000D01*
%TO.C,LED29*%
D11*
X67937500Y-53280000D02*
X67937500Y-56280000D01*
X67937500Y-56280000D02*
X74937500Y-56280000D01*
X74937500Y-53280000D02*
X67937500Y-53280000D01*
X74937500Y-56280000D02*
X74937500Y-53280000D01*
%TO.C,LED11*%
X29837500Y-18037500D02*
X29837500Y-21037500D01*
X29837500Y-21037500D02*
X36837500Y-21037500D01*
X36837500Y-18037500D02*
X29837500Y-18037500D01*
X36837500Y-21037500D02*
X36837500Y-18037500D01*
%TO.C,C_RGB20*%
D10*
X121287500Y-36185000D02*
X122887500Y-36185000D01*
X122887500Y-39085000D01*
X121287500Y-39085000D01*
X121287500Y-36185000D01*
%TO.C,LED8*%
D11*
X125087500Y-17085000D02*
X125087500Y-20085000D01*
X125087500Y-20085000D02*
X132087500Y-20085000D01*
X132087500Y-17085000D02*
X125087500Y-17085000D01*
X132087500Y-20085000D02*
X132087500Y-17085000D01*
%TO.C,J1*%
D10*
X139050000Y-28700000D02*
X145950000Y-28700000D01*
X145950000Y-37300000D01*
X139050000Y-37300000D01*
X139050000Y-28700000D01*
%TO.C,C_RGB29*%
X64137500Y-53330000D02*
X65737500Y-53330000D01*
X65737500Y-56230000D01*
X64137500Y-56230000D01*
X64137500Y-53330000D01*
%TO.C,LED26*%
D11*
X142500000Y-52000000D02*
X142500000Y-55000000D01*
X142500000Y-55000000D02*
X149500000Y-55000000D01*
X149500000Y-52000000D02*
X142500000Y-52000000D01*
X149500000Y-55000000D02*
X149500000Y-52000000D01*
%TO.C,D20*%
D10*
X135850000Y-37150000D02*
X135850000Y-41850000D01*
X138150000Y-37150000D02*
X135850000Y-37150000D01*
X138150000Y-41850000D02*
X135850000Y-41850000D01*
X138150000Y-41850000D02*
X138150000Y-37150000D01*
%TO.C,D25*%
X97350000Y-48000000D02*
X97350000Y-52700000D01*
X99650000Y-48000000D02*
X97350000Y-48000000D01*
X99650000Y-52700000D02*
X97350000Y-52700000D01*
X99650000Y-52700000D02*
X99650000Y-48000000D01*
%TO.C,D44*%
X116350000Y-69500000D02*
X116350000Y-74200000D01*
X118650000Y-69500000D02*
X116350000Y-69500000D01*
X118650000Y-74200000D02*
X116350000Y-74200000D01*
X118650000Y-74200000D02*
X118650000Y-69500000D01*
%TO.C,LED41*%
D11*
X142875000Y-71500000D02*
X142875000Y-74500000D01*
X142875000Y-74500000D02*
X149875000Y-74500000D01*
X149875000Y-71500000D02*
X142875000Y-71500000D01*
X149875000Y-74500000D02*
X149875000Y-71500000D01*
%TO.C,D48*%
D10*
X135850000Y-75000000D02*
X135850000Y-79700000D01*
X138150000Y-75000000D02*
X135850000Y-75000000D01*
X138150000Y-79700000D02*
X135850000Y-79700000D01*
X138150000Y-79700000D02*
X138150000Y-75000000D01*
%TO.C,LED37*%
D11*
X27456300Y-56137500D02*
X27456300Y-59137500D01*
X27456300Y-59137500D02*
X34456300Y-59137500D01*
X34456300Y-56137500D02*
X27456300Y-56137500D01*
X34456300Y-59137500D02*
X34456300Y-56137500D01*
%TO.C,C_RGB53*%
D10*
X90331300Y-91430000D02*
X91931300Y-91430000D01*
X91931300Y-94330000D01*
X90331300Y-94330000D01*
X90331300Y-91430000D01*
%TO.C,C_RGB59*%
X144349437Y-112797628D02*
X141548252Y-112047053D01*
X141962363Y-110501572D01*
X144763548Y-111252147D01*
X144349437Y-112797628D01*
%TO.C,LED13*%
D11*
X86987500Y-32325000D02*
X86987500Y-35325000D01*
X86987500Y-35325000D02*
X93987500Y-35325000D01*
X93987500Y-32325000D02*
X86987500Y-32325000D01*
X93987500Y-35325000D02*
X93987500Y-32325000D01*
%TO.C,LED51*%
X27456300Y-75187500D02*
X27456300Y-78187500D01*
X27456300Y-78187500D02*
X34456300Y-78187500D01*
X34456300Y-75187500D02*
X27456300Y-75187500D01*
X34456300Y-78187500D02*
X34456300Y-75187500D01*
%TO.C,D41*%
D10*
X154350000Y-71150000D02*
X154350000Y-75850000D01*
X156650000Y-71150000D02*
X154350000Y-71150000D01*
X156650000Y-75850000D02*
X154350000Y-75850000D01*
X156650000Y-75850000D02*
X156650000Y-71150000D01*
%TO.C,C_RGB41*%
X139075000Y-71550000D02*
X140675000Y-71550000D01*
X140675000Y-74450000D01*
X139075000Y-74450000D01*
X139075000Y-71550000D01*
%TO.C,C_RGB43*%
X64137500Y-72380000D02*
X65737500Y-72380000D01*
X65737500Y-75280000D01*
X64137500Y-75280000D01*
X64137500Y-72380000D01*
%TO.C,LED4*%
D11*
X106037500Y-15180000D02*
X106037500Y-18180000D01*
X106037500Y-18180000D02*
X113037500Y-18180000D01*
X113037500Y-15180000D02*
X106037500Y-15180000D01*
X113037500Y-18180000D02*
X113037500Y-15180000D01*
%TO.C,C_RGB7*%
D10*
X45087500Y-17135000D02*
X46687500Y-17135000D01*
X46687500Y-20035000D01*
X45087500Y-20035000D01*
X45087500Y-17135000D01*
%TO.C,C_RGB3*%
X64137500Y-15230000D02*
X65737500Y-15230000D01*
X65737500Y-18130000D01*
X64137500Y-18130000D01*
X64137500Y-15230000D01*
%TO.C,LED23*%
D11*
X27456300Y-37087500D02*
X27456300Y-40087500D01*
X27456300Y-40087500D02*
X34456300Y-40087500D01*
X34456300Y-37087500D02*
X27456300Y-37087500D01*
X34456300Y-40087500D02*
X34456300Y-37087500D01*
%TO.C,C_RGB48*%
D10*
X121287500Y-74285000D02*
X122887500Y-74285000D01*
X122887500Y-77185000D01*
X121287500Y-77185000D01*
X121287500Y-74285000D01*
%TO.C,LED16*%
D11*
X106037500Y-34230000D02*
X106037500Y-37230000D01*
X106037500Y-37230000D02*
X113037500Y-37230000D01*
X113037500Y-34230000D02*
X106037500Y-34230000D01*
X113037500Y-37230000D02*
X113037500Y-34230000D01*
%TO.C,C_RGB13*%
D10*
X83187500Y-32375000D02*
X84787500Y-32375000D01*
X84787500Y-35275000D01*
X83187500Y-35275000D01*
X83187500Y-32375000D01*
%TO.C,C_RGB47*%
X45087500Y-74285000D02*
X46687500Y-74285000D01*
X46687500Y-77185000D01*
X45087500Y-77185000D01*
X45087500Y-74285000D01*
%TO.C,C_RGB40*%
X83187500Y-70475000D02*
X84787500Y-70475000D01*
X84787500Y-73375000D01*
X83187500Y-73375000D01*
X83187500Y-70475000D01*
%TO.C,D47*%
X58850000Y-71500000D02*
X58850000Y-76200000D01*
X61150000Y-71500000D02*
X58850000Y-71500000D01*
X61150000Y-76200000D02*
X58850000Y-76200000D01*
X61150000Y-76200000D02*
X61150000Y-71500000D01*
%TO.C,LED40*%
D11*
X86987500Y-70425000D02*
X86987500Y-73425000D01*
X86987500Y-73425000D02*
X93987500Y-73425000D01*
X93987500Y-70425000D02*
X86987500Y-70425000D01*
X93987500Y-73425000D02*
X93987500Y-70425000D01*
%TO.C,D8*%
D10*
X135850000Y-18000000D02*
X135850000Y-22700000D01*
X138150000Y-18000000D02*
X135850000Y-18000000D01*
X138150000Y-22700000D02*
X135850000Y-22700000D01*
X138150000Y-22700000D02*
X138150000Y-18000000D01*
%TO.C,C_RGB26*%
X138700000Y-52050000D02*
X140300000Y-52050000D01*
X140300000Y-54950000D01*
X138700000Y-54950000D01*
X138700000Y-52050000D01*
%TO.C,D11*%
X38350000Y-20000000D02*
X38350000Y-24700000D01*
X40650000Y-20000000D02*
X38350000Y-20000000D01*
X40650000Y-24700000D02*
X38350000Y-24700000D01*
X40650000Y-24700000D02*
X40650000Y-20000000D01*
%TO.C,D26*%
X154350000Y-52150000D02*
X154350000Y-56850000D01*
X156650000Y-52150000D02*
X154350000Y-52150000D01*
X156650000Y-56850000D02*
X154350000Y-56850000D01*
X156650000Y-56850000D02*
X156650000Y-52150000D01*
%TO.C,D15*%
X77850000Y-31500000D02*
X77850000Y-36200000D01*
X80150000Y-31500000D02*
X77850000Y-31500000D01*
X80150000Y-36200000D02*
X77850000Y-36200000D01*
X80150000Y-36200000D02*
X80150000Y-31500000D01*
%TO.C,C_RGB23*%
X23656300Y-37137500D02*
X25256300Y-37137500D01*
X25256300Y-40037500D01*
X23656300Y-40037500D01*
X23656300Y-37137500D01*
%TO.C,C_RGB55*%
X33181300Y-94287500D02*
X34781300Y-94287500D01*
X34781300Y-97187500D01*
X33181300Y-97187500D01*
X33181300Y-94287500D01*
%TO.C,C_RGB19*%
X45087500Y-36185000D02*
X46687500Y-36185000D01*
X46687500Y-39085000D01*
X45087500Y-39085000D01*
X45087500Y-36185000D01*
%TO.C,LED43*%
D11*
X67937500Y-72330000D02*
X67937500Y-75330000D01*
X67937500Y-75330000D02*
X74937500Y-75330000D01*
X74937500Y-72330000D02*
X67937500Y-72330000D01*
X74937500Y-75330000D02*
X74937500Y-72330000D01*
%TO.C,D29*%
D10*
X78350000Y-49500000D02*
X78350000Y-54200000D01*
X80650000Y-49500000D02*
X78350000Y-49500000D01*
X80650000Y-54200000D02*
X78350000Y-54200000D01*
X80650000Y-54200000D02*
X80650000Y-49500000D01*
%TO.C,C_RGB30*%
X102237500Y-53330000D02*
X103837500Y-53330000D01*
X103837500Y-56230000D01*
X102237500Y-56230000D01*
X102237500Y-53330000D01*
%TO.C,LED19*%
D11*
X48887500Y-36135000D02*
X48887500Y-39135000D01*
X48887500Y-39135000D02*
X55887500Y-39135000D01*
X55887500Y-36135000D02*
X48887500Y-36135000D01*
X55887500Y-39135000D02*
X55887500Y-36135000D01*
%TO.C,D53*%
D10*
X105350000Y-91650000D02*
X105350000Y-96350000D01*
X107650000Y-91650000D02*
X105350000Y-91650000D01*
X107650000Y-96350000D02*
X105350000Y-96350000D01*
X107650000Y-96350000D02*
X107650000Y-91650000D01*
%TO.C,LED59*%
D11*
X142483445Y-108363612D02*
X145381222Y-109140069D01*
X144295178Y-101602131D02*
X142483445Y-108363612D01*
X145381222Y-109140069D02*
X147192955Y-102378588D01*
X147192955Y-102378588D02*
X144295178Y-101602131D01*
%TO.C,C_RGB11*%
D10*
X26037500Y-18087500D02*
X27637500Y-18087500D01*
X27637500Y-20987500D01*
X26037500Y-20987500D01*
X26037500Y-18087500D01*
%TO.C,LED53*%
D11*
X94131300Y-91380000D02*
X94131300Y-94380000D01*
X94131300Y-94380000D02*
X101131300Y-94380000D01*
X101131300Y-91380000D02*
X94131300Y-91380000D01*
X101131300Y-94380000D02*
X101131300Y-91380000D01*
%TO.C,D55*%
D10*
X50850000Y-89500000D02*
X50850000Y-94200000D01*
X53150000Y-89500000D02*
X50850000Y-89500000D01*
X53150000Y-94200000D02*
X50850000Y-94200000D01*
X53150000Y-94200000D02*
X53150000Y-89500000D01*
%TO.C,D23*%
X39350000Y-37500000D02*
X39350000Y-42200000D01*
X41650000Y-37500000D02*
X39350000Y-37500000D01*
X41650000Y-42200000D02*
X39350000Y-42200000D01*
X41650000Y-42200000D02*
X41650000Y-37500000D01*
%TO.C,D33*%
X59350000Y-52085000D02*
X59350000Y-56785000D01*
X61650000Y-52085000D02*
X59350000Y-52085000D01*
X61650000Y-56785000D02*
X59350000Y-56785000D01*
X61650000Y-56785000D02*
X61650000Y-52085000D01*
%TO.C,D4*%
X116850000Y-17650000D02*
X116850000Y-22350000D01*
X119150000Y-17650000D02*
X116850000Y-17650000D01*
X119150000Y-22350000D02*
X116850000Y-22350000D01*
X119150000Y-22350000D02*
X119150000Y-17650000D01*
%TO.C,D19*%
X59887500Y-36000000D02*
X59887500Y-40700000D01*
X62187500Y-36000000D02*
X59887500Y-36000000D01*
X62187500Y-40700000D02*
X59887500Y-40700000D01*
X62187500Y-40700000D02*
X62187500Y-36000000D01*
%TO.C,C_RGB15*%
X64137500Y-34280000D02*
X65737500Y-34280000D01*
X65737500Y-37180000D01*
X64137500Y-37180000D01*
X64137500Y-34280000D01*
%TO.C,D43*%
X77850000Y-70500000D02*
X77850000Y-75200000D01*
X80150000Y-70500000D02*
X77850000Y-70500000D01*
X80150000Y-75200000D02*
X77850000Y-75200000D01*
X80150000Y-75200000D02*
X80150000Y-70500000D01*
%TO.C,LED3*%
D11*
X67937500Y-15180000D02*
X67937500Y-18180000D01*
X67937500Y-18180000D02*
X74937500Y-18180000D01*
X74937500Y-15180000D02*
X67937500Y-15180000D01*
X74937500Y-18180000D02*
X74937500Y-15180000D01*
%TO.C,D51*%
D10*
X38850000Y-74150000D02*
X38850000Y-78850000D01*
X41150000Y-74150000D02*
X38850000Y-74150000D01*
X41150000Y-78850000D02*
X38850000Y-78850000D01*
X41150000Y-78850000D02*
X41150000Y-74150000D01*
%TO.C,D30*%
X116350000Y-51000000D02*
X116350000Y-55700000D01*
X118650000Y-51000000D02*
X116350000Y-51000000D01*
X118650000Y-55700000D02*
X116350000Y-55700000D01*
X118650000Y-55700000D02*
X118650000Y-51000000D01*
%TO.C,D7*%
X59850000Y-16000000D02*
X59850000Y-20700000D01*
X62150000Y-16000000D02*
X59850000Y-16000000D01*
X62150000Y-20700000D02*
X59850000Y-20700000D01*
X62150000Y-20700000D02*
X62150000Y-16000000D01*
%TO.C,D34*%
X135850000Y-56000000D02*
X135850000Y-60700000D01*
X138150000Y-56000000D02*
X135850000Y-56000000D01*
X138150000Y-60700000D02*
X135850000Y-60700000D01*
X138150000Y-60700000D02*
X138150000Y-56000000D01*
%TO.C,C_RGB58*%
X125332237Y-110167228D02*
X122531052Y-109416653D01*
X122945163Y-107871172D01*
X125746348Y-108621747D01*
X125332237Y-110167228D01*
%TO.C,LED20*%
D11*
X125087500Y-36135000D02*
X125087500Y-39135000D01*
X125087500Y-39135000D02*
X132087500Y-39135000D01*
X132087500Y-36135000D02*
X125087500Y-36135000D01*
X132087500Y-39135000D02*
X132087500Y-36135000D01*
%TO.C,LED44*%
X106037500Y-72330000D02*
X106037500Y-75330000D01*
X106037500Y-75330000D02*
X113037500Y-75330000D01*
X113037500Y-72330000D02*
X106037500Y-72330000D01*
X113037500Y-75330000D02*
X113037500Y-72330000D01*
%TO.C,LED58*%
X123466245Y-105733212D02*
X126364022Y-106509669D01*
X125277978Y-98971731D02*
X123466245Y-105733212D01*
X126364022Y-106509669D02*
X128175755Y-99748188D01*
X128175755Y-99748188D02*
X125277978Y-98971731D01*
%TO.C,D54*%
D10*
X81350000Y-87650000D02*
X81350000Y-92350000D01*
X83650000Y-87650000D02*
X81350000Y-87650000D01*
X83650000Y-92350000D02*
X81350000Y-92350000D01*
X83650000Y-92350000D02*
X83650000Y-87650000D01*
%TO.C,C_RGB33*%
X45087500Y-55235000D02*
X46687500Y-55235000D01*
X46687500Y-58135000D01*
X45087500Y-58135000D01*
X45087500Y-55235000D01*
%TO.C,D58*%
X124338632Y-92575490D02*
X128878484Y-93791939D01*
X124933916Y-90353861D02*
X124338632Y-92575490D01*
X129473768Y-91570310D02*
X124933916Y-90353861D01*
X129473768Y-91570310D02*
X128878484Y-93791939D01*
%TO.C,LED47*%
D11*
X48887500Y-74235000D02*
X48887500Y-77235000D01*
X48887500Y-77235000D02*
X55887500Y-77235000D01*
X55887500Y-74235000D02*
X48887500Y-74235000D01*
X55887500Y-77235000D02*
X55887500Y-74235000D01*
%TO.C,C_RGB25*%
D10*
X83187500Y-51425000D02*
X84787500Y-51425000D01*
X84787500Y-54325000D01*
X83187500Y-54325000D01*
X83187500Y-51425000D01*
%TO.C,D37*%
X39850000Y-55500000D02*
X39850000Y-60200000D01*
X42150000Y-55500000D02*
X39850000Y-55500000D01*
X42150000Y-60200000D02*
X39850000Y-60200000D01*
X42150000Y-60200000D02*
X42150000Y-55500000D01*
%TO.C,LED1*%
D11*
X86987500Y-13275000D02*
X86987500Y-16275000D01*
X86987500Y-16275000D02*
X93987500Y-16275000D01*
X93987500Y-13275000D02*
X86987500Y-13275000D01*
X93987500Y-16275000D02*
X93987500Y-13275000D01*
%TO.C,LED54*%
X67937500Y-93285000D02*
X67937500Y-96285000D01*
X67937500Y-96285000D02*
X74937500Y-96285000D01*
X74937500Y-93285000D02*
X67937500Y-93285000D01*
X74937500Y-96285000D02*
X74937500Y-93285000D01*
%TO.C,D16*%
D10*
X114850000Y-36500000D02*
X114850000Y-41200000D01*
X117150000Y-36500000D02*
X114850000Y-36500000D01*
X117150000Y-41200000D02*
X114850000Y-41200000D01*
X117150000Y-41200000D02*
X117150000Y-36500000D01*
%TO.C,LED15*%
D11*
X67937500Y-34230000D02*
X67937500Y-37230000D01*
X67937500Y-37230000D02*
X74937500Y-37230000D01*
X74937500Y-34230000D02*
X67937500Y-34230000D01*
X74937500Y-37230000D02*
X74937500Y-34230000D01*
%TO.C,LED55*%
X36981300Y-94237500D02*
X36981300Y-97237500D01*
X36981300Y-97237500D02*
X43981300Y-97237500D01*
X43981300Y-94237500D02*
X36981300Y-94237500D01*
X43981300Y-97237500D02*
X43981300Y-94237500D01*
%TO.C,D59*%
D10*
X136026232Y-83929590D02*
X136621516Y-81707961D01*
X136026232Y-83929590D02*
X140566084Y-85146039D01*
X140566084Y-85146039D02*
X141161368Y-82924410D01*
X141161368Y-82924410D02*
X136621516Y-81707961D01*
%TO.C,LED25*%
D11*
X86987500Y-51375000D02*
X86987500Y-54375000D01*
X86987500Y-54375000D02*
X93987500Y-54375000D01*
X93987500Y-51375000D02*
X86987500Y-51375000D01*
X93987500Y-54375000D02*
X93987500Y-51375000D01*
%TO.C,D3*%
D10*
X78350000Y-12000000D02*
X78350000Y-16700000D01*
X80650000Y-12000000D02*
X78350000Y-12000000D01*
X80650000Y-16700000D02*
X78350000Y-16700000D01*
X80650000Y-16700000D02*
X80650000Y-12000000D01*
%TO.C,D13*%
X97350000Y-29500000D02*
X97350000Y-34200000D01*
X99650000Y-29500000D02*
X97350000Y-29500000D01*
X99650000Y-34200000D02*
X97350000Y-34200000D01*
X99650000Y-34200000D02*
X99650000Y-29500000D01*
%TO.C,C_RGB54*%
X64137500Y-93335000D02*
X65737500Y-93335000D01*
X65737500Y-96235000D01*
X64137500Y-96235000D01*
X64137500Y-93335000D01*
%TO.C,C_RGB51*%
X23656300Y-75237500D02*
X25256300Y-75237500D01*
X25256300Y-78137500D01*
X23656300Y-78137500D01*
X23656300Y-75237500D01*
%TO.C,C_RGB34*%
X121287500Y-55235000D02*
X122887500Y-55235000D01*
X122887500Y-58135000D01*
X121287500Y-58135000D01*
X121287500Y-55235000D01*
%TO.C,LED7*%
D11*
X48887500Y-17085000D02*
X48887500Y-20085000D01*
X48887500Y-20085000D02*
X55887500Y-20085000D01*
X55887500Y-17085000D02*
X48887500Y-17085000D01*
X55887500Y-20085000D02*
X55887500Y-17085000D01*
%TO.C,C_RGB8*%
D10*
X121287500Y-17135000D02*
X122887500Y-17135000D01*
X122887500Y-20035000D01*
X121287500Y-20035000D01*
X121287500Y-17135000D01*
%TD*%
M02*
