%TF.GenerationSoftware,KiCad,Pcbnew,10.0.5*%
%TF.CreationDate,2026-09-23T03:24:25+09:00*%
%TF.ProjectId,keyboard,6b657962-6f61-4726-942e-6b696361645f,rev?*%
%TF.SameCoordinates,Original*%
%TF.FileFunction,OtherDrawing,Comment*%
%FSLAX46Y46*%
G04 Gerber Fmt 4.6, Leading zero omitted, Abs format (unit mm)*
G04 Created by KiCad (PCBNEW 10.0.5) date 2026-09-23 03:24:25*
%MOMM*%
%LPD*%
G01*
G04 APERTURE LIST*
%ADD10C,0.100000*%
%ADD11C,0.150000*%
G04 APERTURE END LIST*
D10*
X19050000Y-23812500D02*
X42862500Y-23812500D01*
X19050000Y-42862500D02*
X19050000Y-23812500D01*
X19050000Y-42862500D02*
X42862500Y-42862500D01*
X19050000Y-61912500D02*
X19050000Y-42862500D01*
X19050000Y-61912500D02*
X42862500Y-61912500D01*
X19050000Y-80962500D02*
X19050000Y-61912500D01*
X23812500Y-4762500D02*
X42862500Y-4762500D01*
X23812500Y-23812500D02*
X23812500Y-4762500D01*
X23812500Y-80962500D02*
X57150000Y-80962500D01*
X23812500Y-100012500D02*
X23812500Y-80962500D01*
X42862500Y-3810000D02*
X61912500Y-3810000D01*
X42862500Y-4762500D02*
X42862500Y-23812500D01*
X42862500Y-22860000D02*
X42862500Y-3810000D01*
X42862500Y-22860000D02*
X61912500Y-22860000D01*
X42862500Y-23812500D02*
X23812500Y-23812500D01*
X42862500Y-23812500D02*
X42862500Y-42862500D01*
X42862500Y-41910000D02*
X42862500Y-22860000D01*
X42862500Y-41910000D02*
X61912500Y-41910000D01*
X42862500Y-42862500D02*
X19050000Y-42862500D01*
X42862500Y-42862500D02*
X42862500Y-61912500D01*
X42862500Y-60960000D02*
X42862500Y-41910000D01*
X42862500Y-60960000D02*
X61912500Y-60960000D01*
X42862500Y-61912500D02*
X19050000Y-61912500D01*
X42862500Y-61912500D02*
X42862500Y-80962500D01*
X42862500Y-80010000D02*
X42862500Y-60960000D01*
X42862500Y-80962500D02*
X19050000Y-80962500D01*
X57150000Y-80010000D02*
X85725000Y-80010000D01*
X57150000Y-80962500D02*
X57150000Y-100012500D01*
X57150000Y-99060000D02*
X57150000Y-80010000D01*
X57150000Y-100012500D02*
X23812500Y-100012500D01*
X61912500Y-1905000D02*
X80962500Y-1905000D01*
X61912500Y-3810000D02*
X61912500Y-22860000D01*
X61912500Y-20955000D02*
X61912500Y-1905000D01*
X61912500Y-20955000D02*
X80962500Y-20955000D01*
X61912500Y-22860000D02*
X42862500Y-22860000D01*
X61912500Y-22860000D02*
X61912500Y-41910000D01*
X61912500Y-40005000D02*
X61912500Y-20955000D01*
X61912500Y-40005000D02*
X80962500Y-40005000D01*
X61912500Y-41910000D02*
X42862500Y-41910000D01*
X61912500Y-41910000D02*
X61912500Y-60960000D01*
X61912500Y-59055000D02*
X61912500Y-40005000D01*
X61912500Y-59055000D02*
X80962500Y-59055000D01*
X61912500Y-60960000D02*
X42862500Y-60960000D01*
X61912500Y-60960000D02*
X61912500Y-80010000D01*
X61912500Y-78105000D02*
X61912500Y-59055000D01*
X61912500Y-80010000D02*
X42862500Y-80010000D01*
X80962500Y0D02*
X100012500Y0D01*
X80962500Y-1905000D02*
X80962500Y-20955000D01*
X80962500Y-19050000D02*
X80962500Y0D01*
X80962500Y-19050000D02*
X100012500Y-19050000D01*
X80962500Y-20955000D02*
X61912500Y-20955000D01*
X80962500Y-20955000D02*
X80962500Y-40005000D01*
X80962500Y-38100000D02*
X80962500Y-19050000D01*
X80962500Y-38100000D02*
X100012500Y-38100000D01*
X80962500Y-40005000D02*
X61912500Y-40005000D01*
X80962500Y-40005000D02*
X80962500Y-59055000D01*
X80962500Y-57150000D02*
X80962500Y-38100000D01*
X80962500Y-57150000D02*
X100012500Y-57150000D01*
X80962500Y-59055000D02*
X61912500Y-59055000D01*
X80962500Y-59055000D02*
X80962500Y-78105000D01*
X80962500Y-76200000D02*
X80962500Y-57150000D01*
X80962500Y-78105000D02*
X61912500Y-78105000D01*
X85725000Y-78105000D02*
X109537500Y-78105000D01*
X85725000Y-80010000D02*
X85725000Y-99060000D01*
X85725000Y-97155000D02*
X85725000Y-78105000D01*
X85725000Y-99060000D02*
X57150000Y-99060000D01*
X100012500Y0D02*
X100012500Y-19050000D01*
X100012500Y-1905000D02*
X119062500Y-1905000D01*
X100012500Y-19050000D02*
X80962500Y-19050000D01*
X100012500Y-19050000D02*
X100012500Y-38100000D01*
X100012500Y-20955000D02*
X100012500Y-1905000D01*
X100012500Y-20955000D02*
X119062500Y-20955000D01*
X100012500Y-38100000D02*
X80962500Y-38100000D01*
X100012500Y-38100000D02*
X100012500Y-57150000D01*
X100012500Y-40005000D02*
X100012500Y-20955000D01*
X100012500Y-40005000D02*
X119062500Y-40005000D01*
X100012500Y-57150000D02*
X80962500Y-57150000D01*
X100012500Y-57150000D02*
X100012500Y-76200000D01*
X100012500Y-59055000D02*
X100012500Y-40005000D01*
X100012500Y-59055000D02*
X119062500Y-59055000D01*
X100012500Y-76200000D02*
X80962500Y-76200000D01*
X100012500Y-78105000D02*
X100012500Y-59055000D01*
X107851572Y-112717289D02*
X115247326Y-85115959D01*
X109537500Y-78105000D02*
X109537500Y-97155000D01*
X109537500Y-97155000D02*
X85725000Y-97155000D01*
X115247326Y-85115959D02*
X133648213Y-90046462D01*
X119062500Y-1905000D02*
X119062500Y-20955000D01*
X119062500Y-3810000D02*
X138112500Y-3810000D01*
X119062500Y-20955000D02*
X100012500Y-20955000D01*
X119062500Y-20955000D02*
X119062500Y-40005000D01*
X119062500Y-22860000D02*
X119062500Y-3810000D01*
X119062500Y-22860000D02*
X138112500Y-22860000D01*
X119062500Y-40005000D02*
X100012500Y-40005000D01*
X119062500Y-40005000D02*
X119062500Y-59055000D01*
X119062500Y-41910000D02*
X119062500Y-22860000D01*
X119062500Y-41910000D02*
X138112500Y-41910000D01*
X119062500Y-59055000D02*
X100012500Y-59055000D01*
X119062500Y-59055000D02*
X119062500Y-78105000D01*
X119062500Y-60960000D02*
X119062500Y-41910000D01*
X119062500Y-60960000D02*
X138112500Y-60960000D01*
X119062500Y-78105000D02*
X100012500Y-78105000D01*
X119062500Y-80010000D02*
X119062500Y-60960000D01*
X125019833Y-122248014D02*
X136113465Y-80846018D01*
X126252459Y-117647792D02*
X107851572Y-112717289D01*
X133648213Y-90046462D02*
X126252459Y-117647792D01*
X136113465Y-80846018D02*
X154514352Y-85776521D01*
X138112500Y-3810000D02*
X138112500Y-22860000D01*
X138112500Y-22860000D02*
X119062500Y-22860000D01*
X138112500Y-22860000D02*
X138112500Y-41910000D01*
X138112500Y-38100000D02*
X157162500Y-38100000D01*
X138112500Y-41910000D02*
X119062500Y-41910000D01*
X138112500Y-41910000D02*
X138112500Y-60960000D01*
X138112500Y-57150000D02*
X138112500Y-38100000D01*
X138112500Y-57150000D02*
X157162500Y-57150000D01*
X138112500Y-60960000D02*
X119062500Y-60960000D01*
X138112500Y-60960000D02*
X138112500Y-80010000D01*
X138112500Y-76200000D02*
X138112500Y-57150000D01*
X138112500Y-80010000D02*
X119062500Y-80010000D01*
X143420720Y-127178517D02*
X125019833Y-122248014D01*
X154514352Y-85776521D02*
X143420720Y-127178517D01*
X157162500Y-38100000D02*
X157162500Y-57150000D01*
X157162500Y-57150000D02*
X138112500Y-57150000D01*
X157162500Y-57150000D02*
X157162500Y-76200000D01*
X157162500Y-76200000D02*
X138112500Y-76200000D01*
%TO.C,SW41*%
D11*
X138112500Y-57150000D02*
X157162500Y-57150000D01*
X138112500Y-76200000D02*
X138112500Y-57150000D01*
X140637500Y-59675000D02*
X141637500Y-59675000D01*
X140637500Y-60675000D02*
X140637500Y-59675000D01*
X140637500Y-72675000D02*
X140637500Y-73675000D01*
X140637500Y-73675000D02*
X141637500Y-73675000D01*
X153637500Y-73675000D02*
X154637500Y-73675000D01*
X154637500Y-59675000D02*
X153637500Y-59675000D01*
X154637500Y-59675000D02*
X154637500Y-60675000D01*
X154637500Y-73675000D02*
X154637500Y-72675000D01*
X157162500Y-57150000D02*
X157162500Y-76200000D01*
X157162500Y-76200000D02*
X138112500Y-76200000D01*
%TO.C,SW4*%
X100012500Y-1905000D02*
X119062500Y-1905000D01*
X100012500Y-20955000D02*
X100012500Y-1905000D01*
X102537500Y-4430000D02*
X103537500Y-4430000D01*
X102537500Y-5430000D02*
X102537500Y-4430000D01*
X102537500Y-17430000D02*
X102537500Y-18430000D01*
X102537500Y-18430000D02*
X103537500Y-18430000D01*
X115537500Y-18430000D02*
X116537500Y-18430000D01*
X116537500Y-4430000D02*
X115537500Y-4430000D01*
X116537500Y-4430000D02*
X116537500Y-5430000D01*
X116537500Y-18430000D02*
X116537500Y-17430000D01*
X119062500Y-1905000D02*
X119062500Y-20955000D01*
X119062500Y-20955000D02*
X100012500Y-20955000D01*
%TO.C,SW26*%
X138112500Y-38100000D02*
X157162500Y-38100000D01*
X138112500Y-57150000D02*
X138112500Y-38100000D01*
X140637500Y-40625000D02*
X141637500Y-40625000D01*
X140637500Y-41625000D02*
X140637500Y-40625000D01*
X140637500Y-53625000D02*
X140637500Y-54625000D01*
X140637500Y-54625000D02*
X141637500Y-54625000D01*
X153637500Y-54625000D02*
X154637500Y-54625000D01*
X154637500Y-40625000D02*
X153637500Y-40625000D01*
X154637500Y-40625000D02*
X154637500Y-41625000D01*
X154637500Y-54625000D02*
X154637500Y-53625000D01*
X157162500Y-38100000D02*
X157162500Y-57150000D01*
X157162500Y-57150000D02*
X138112500Y-57150000D01*
%TO.C,SW55*%
X23812550Y-80962500D02*
X57150050Y-80962500D01*
X23812550Y-100012500D02*
X23812550Y-80962500D01*
X33481300Y-83487500D02*
X34481300Y-83487500D01*
X33481300Y-84487500D02*
X33481300Y-83487500D01*
X33481300Y-96487500D02*
X33481300Y-97487500D01*
X33481300Y-97487500D02*
X34481300Y-97487500D01*
X46481300Y-97487500D02*
X47481300Y-97487500D01*
X47481300Y-83487500D02*
X46481300Y-83487500D01*
X47481300Y-83487500D02*
X47481300Y-84487500D01*
X47481300Y-97487500D02*
X47481300Y-96487500D01*
X57150050Y-80962500D02*
X57150050Y-100012500D01*
X57150050Y-100012500D02*
X23812550Y-100012500D01*
%TO.C,SW37*%
X19050050Y-42862500D02*
X42862550Y-42862500D01*
X19050050Y-61912500D02*
X19050050Y-42862500D01*
X23956300Y-45387500D02*
X24956300Y-45387500D01*
X23956300Y-46387500D02*
X23956300Y-45387500D01*
X23956300Y-58387500D02*
X23956300Y-59387500D01*
X23956300Y-59387500D02*
X24956300Y-59387500D01*
X36956300Y-59387500D02*
X37956300Y-59387500D01*
X37956300Y-45387500D02*
X36956300Y-45387500D01*
X37956300Y-45387500D02*
X37956300Y-46387500D01*
X37956300Y-59387500D02*
X37956300Y-58387500D01*
X42862550Y-42862500D02*
X42862550Y-61912500D01*
X42862550Y-61912500D02*
X19050050Y-61912500D01*
%TO.C,SW1*%
X80962500Y0D02*
X100012500Y0D01*
X80962500Y-19050000D02*
X80962500Y0D01*
X83487500Y-2525000D02*
X84487500Y-2525000D01*
X83487500Y-3525000D02*
X83487500Y-2525000D01*
X83487500Y-15525000D02*
X83487500Y-16525000D01*
X83487500Y-16525000D02*
X84487500Y-16525000D01*
X96487500Y-16525000D02*
X97487500Y-16525000D01*
X97487500Y-2525000D02*
X96487500Y-2525000D01*
X97487500Y-2525000D02*
X97487500Y-3525000D01*
X97487500Y-16525000D02*
X97487500Y-15525000D01*
X100012500Y0D02*
X100012500Y-19050000D01*
X100012500Y-19050000D02*
X80962500Y-19050000D01*
%TO.C,SW33*%
X42862500Y-41910000D02*
X61912500Y-41910000D01*
X42862500Y-60960000D02*
X42862500Y-41910000D01*
X45387500Y-44435000D02*
X46387500Y-44435000D01*
X45387500Y-45435000D02*
X45387500Y-44435000D01*
X45387500Y-57435000D02*
X45387500Y-58435000D01*
X45387500Y-58435000D02*
X46387500Y-58435000D01*
X58387500Y-58435000D02*
X59387500Y-58435000D01*
X59387500Y-44435000D02*
X58387500Y-44435000D01*
X59387500Y-44435000D02*
X59387500Y-45435000D01*
X59387500Y-58435000D02*
X59387500Y-57435000D01*
X61912500Y-41910000D02*
X61912500Y-60960000D01*
X61912500Y-60960000D02*
X42862500Y-60960000D01*
%TO.C,SW23*%
X19050050Y-23812500D02*
X42862550Y-23812500D01*
X19050050Y-42862500D02*
X19050050Y-23812500D01*
X23956300Y-26337500D02*
X24956300Y-26337500D01*
X23956300Y-27337500D02*
X23956300Y-26337500D01*
X23956300Y-39337500D02*
X23956300Y-40337500D01*
X23956300Y-40337500D02*
X24956300Y-40337500D01*
X36956300Y-40337500D02*
X37956300Y-40337500D01*
X37956300Y-26337500D02*
X36956300Y-26337500D01*
X37956300Y-26337500D02*
X37956300Y-27337500D01*
X37956300Y-40337500D02*
X37956300Y-39337500D01*
X42862550Y-23812500D02*
X42862550Y-42862500D01*
X42862550Y-42862500D02*
X19050050Y-42862500D01*
%TO.C,SW15*%
X61912500Y-20955000D02*
X80962500Y-20955000D01*
X61912500Y-40005000D02*
X61912500Y-20955000D01*
X64437500Y-23480000D02*
X65437500Y-23480000D01*
X64437500Y-24480000D02*
X64437500Y-23480000D01*
X64437500Y-36480000D02*
X64437500Y-37480000D01*
X64437500Y-37480000D02*
X65437500Y-37480000D01*
X77437500Y-37480000D02*
X78437500Y-37480000D01*
X78437500Y-23480000D02*
X77437500Y-23480000D01*
X78437500Y-23480000D02*
X78437500Y-24480000D01*
X78437500Y-37480000D02*
X78437500Y-36480000D01*
X80962500Y-20955000D02*
X80962500Y-40005000D01*
X80962500Y-40005000D02*
X61912500Y-40005000D01*
%TO.C,SW53*%
X85725050Y-78105000D02*
X109537550Y-78105000D01*
X85725050Y-97155000D02*
X85725050Y-78105000D01*
X90631300Y-80630000D02*
X91631300Y-80630000D01*
X90631300Y-81630000D02*
X90631300Y-80630000D01*
X90631300Y-93630000D02*
X90631300Y-94630000D01*
X90631300Y-94630000D02*
X91631300Y-94630000D01*
X103631300Y-94630000D02*
X104631300Y-94630000D01*
X104631300Y-80630000D02*
X103631300Y-80630000D01*
X104631300Y-80630000D02*
X104631300Y-81630000D01*
X104631300Y-94630000D02*
X104631300Y-93630000D01*
X109537550Y-78105000D02*
X109537550Y-97155000D01*
X109537550Y-97155000D02*
X85725050Y-97155000D01*
%TO.C,SW16*%
X100012500Y-20955000D02*
X119062500Y-20955000D01*
X100012500Y-40005000D02*
X100012500Y-20955000D01*
X102537500Y-23480000D02*
X103537500Y-23480000D01*
X102537500Y-24480000D02*
X102537500Y-23480000D01*
X102537500Y-36480000D02*
X102537500Y-37480000D01*
X102537500Y-37480000D02*
X103537500Y-37480000D01*
X115537500Y-37480000D02*
X116537500Y-37480000D01*
X116537500Y-23480000D02*
X115537500Y-23480000D01*
X116537500Y-23480000D02*
X116537500Y-24480000D01*
X116537500Y-37480000D02*
X116537500Y-36480000D01*
X119062500Y-20955000D02*
X119062500Y-40005000D01*
X119062500Y-40005000D02*
X100012500Y-40005000D01*
%TO.C,SW54*%
X57150000Y-80010000D02*
X85725000Y-80010000D01*
X57150000Y-99060000D02*
X57150000Y-80010000D01*
X64437500Y-82535000D02*
X65437500Y-82535000D01*
X64437500Y-83535000D02*
X64437500Y-82535000D01*
X64437500Y-95535000D02*
X64437500Y-96535000D01*
X64437500Y-96535000D02*
X65437500Y-96535000D01*
X77437500Y-96535000D02*
X78437500Y-96535000D01*
X78437500Y-82535000D02*
X77437500Y-82535000D01*
X78437500Y-82535000D02*
X78437500Y-83535000D01*
X78437500Y-96535000D02*
X78437500Y-95535000D01*
X85725000Y-80010000D02*
X85725000Y-99060000D01*
X85725000Y-99060000D02*
X57150000Y-99060000D01*
%TO.C,SW3*%
X61912500Y-1905000D02*
X80962500Y-1905000D01*
X61912500Y-20955000D02*
X61912500Y-1905000D01*
X64437500Y-4430000D02*
X65437500Y-4430000D01*
X64437500Y-5430000D02*
X64437500Y-4430000D01*
X64437500Y-17430000D02*
X64437500Y-18430000D01*
X64437500Y-18430000D02*
X65437500Y-18430000D01*
X77437500Y-18430000D02*
X78437500Y-18430000D01*
X78437500Y-4430000D02*
X77437500Y-4430000D01*
X78437500Y-4430000D02*
X78437500Y-5430000D01*
X78437500Y-18430000D02*
X78437500Y-17430000D01*
X80962500Y-1905000D02*
X80962500Y-20955000D01*
X80962500Y-20955000D02*
X61912500Y-20955000D01*
%TO.C,SW40*%
X80962500Y-57150000D02*
X100012500Y-57150000D01*
X80962500Y-76200000D02*
X80962500Y-57150000D01*
X83487500Y-59675000D02*
X84487500Y-59675000D01*
X83487500Y-60675000D02*
X83487500Y-59675000D01*
X83487500Y-72675000D02*
X83487500Y-73675000D01*
X83487500Y-73675000D02*
X84487500Y-73675000D01*
X96487500Y-73675000D02*
X97487500Y-73675000D01*
X97487500Y-59675000D02*
X96487500Y-59675000D01*
X97487500Y-59675000D02*
X97487500Y-60675000D01*
X97487500Y-73675000D02*
X97487500Y-72675000D01*
X100012500Y-57150000D02*
X100012500Y-76200000D01*
X100012500Y-76200000D02*
X80962500Y-76200000D01*
%TO.C,SW44*%
X100012500Y-59055000D02*
X119062500Y-59055000D01*
X100012500Y-78105000D02*
X100012500Y-59055000D01*
X102537500Y-61580000D02*
X103537500Y-61580000D01*
X102537500Y-62580000D02*
X102537500Y-61580000D01*
X102537500Y-74580000D02*
X102537500Y-75580000D01*
X102537500Y-75580000D02*
X103537500Y-75580000D01*
X115537500Y-75580000D02*
X116537500Y-75580000D01*
X116537500Y-61580000D02*
X115537500Y-61580000D01*
X116537500Y-61580000D02*
X116537500Y-62580000D01*
X116537500Y-75580000D02*
X116537500Y-74580000D01*
X119062500Y-59055000D02*
X119062500Y-78105000D01*
X119062500Y-78105000D02*
X100012500Y-78105000D01*
%TO.C,SW58*%
X107851579Y-112717314D02*
X115247334Y-85115983D01*
X112176686Y-106331647D02*
X112435505Y-105365722D01*
X113142612Y-106590467D02*
X112176686Y-106331647D01*
X115247334Y-85115983D02*
X133648221Y-90046486D01*
X115800153Y-92808686D02*
X115541333Y-93774612D01*
X115800153Y-92808686D02*
X116766078Y-93067505D01*
X124733722Y-109696295D02*
X125699647Y-109955114D01*
X125699647Y-109955114D02*
X125958467Y-108989188D01*
X126252466Y-117647817D02*
X107851579Y-112717314D01*
X129064295Y-97398078D02*
X129323114Y-96432153D01*
X129323114Y-96432153D02*
X128357188Y-96173333D01*
X133648221Y-90046486D02*
X126252466Y-117647817D01*
%TO.C,SW34*%
X119062500Y-41910000D02*
X138112500Y-41910000D01*
X119062500Y-60960000D02*
X119062500Y-41910000D01*
X121587500Y-44435000D02*
X122587500Y-44435000D01*
X121587500Y-45435000D02*
X121587500Y-44435000D01*
X121587500Y-57435000D02*
X121587500Y-58435000D01*
X121587500Y-58435000D02*
X122587500Y-58435000D01*
X134587500Y-58435000D02*
X135587500Y-58435000D01*
X135587500Y-44435000D02*
X134587500Y-44435000D01*
X135587500Y-44435000D02*
X135587500Y-45435000D01*
X135587500Y-58435000D02*
X135587500Y-57435000D01*
X138112500Y-41910000D02*
X138112500Y-60960000D01*
X138112500Y-60960000D02*
X119062500Y-60960000D01*
%TO.C,SW20*%
X119062500Y-22860000D02*
X138112500Y-22860000D01*
X119062500Y-41910000D02*
X119062500Y-22860000D01*
X121587500Y-25385000D02*
X122587500Y-25385000D01*
X121587500Y-26385000D02*
X121587500Y-25385000D01*
X121587500Y-38385000D02*
X121587500Y-39385000D01*
X121587500Y-39385000D02*
X122587500Y-39385000D01*
X134587500Y-39385000D02*
X135587500Y-39385000D01*
X135587500Y-25385000D02*
X134587500Y-25385000D01*
X135587500Y-25385000D02*
X135587500Y-26385000D01*
X135587500Y-39385000D02*
X135587500Y-38385000D01*
X138112500Y-22860000D02*
X138112500Y-41910000D01*
X138112500Y-41910000D02*
X119062500Y-41910000D01*
%TO.C,SW29*%
X61912500Y-40005000D02*
X80962500Y-40005000D01*
X61912500Y-59055000D02*
X61912500Y-40005000D01*
X64437500Y-42530000D02*
X65437500Y-42530000D01*
X64437500Y-43530000D02*
X64437500Y-42530000D01*
X64437500Y-55530000D02*
X64437500Y-56530000D01*
X64437500Y-56530000D02*
X65437500Y-56530000D01*
X77437500Y-56530000D02*
X78437500Y-56530000D01*
X78437500Y-42530000D02*
X77437500Y-42530000D01*
X78437500Y-42530000D02*
X78437500Y-43530000D01*
X78437500Y-56530000D02*
X78437500Y-55530000D01*
X80962500Y-40005000D02*
X80962500Y-59055000D01*
X80962500Y-59055000D02*
X61912500Y-59055000D01*
%TO.C,SW19*%
X42862500Y-22860000D02*
X61912500Y-22860000D01*
X42862500Y-41910000D02*
X42862500Y-22860000D01*
X45387500Y-25385000D02*
X46387500Y-25385000D01*
X45387500Y-26385000D02*
X45387500Y-25385000D01*
X45387500Y-38385000D02*
X45387500Y-39385000D01*
X45387500Y-39385000D02*
X46387500Y-39385000D01*
X58387500Y-39385000D02*
X59387500Y-39385000D01*
X59387500Y-25385000D02*
X58387500Y-25385000D01*
X59387500Y-25385000D02*
X59387500Y-26385000D01*
X59387500Y-39385000D02*
X59387500Y-38385000D01*
X61912500Y-22860000D02*
X61912500Y-41910000D01*
X61912500Y-41910000D02*
X42862500Y-41910000D01*
%TO.C,SW43*%
X61912500Y-59055000D02*
X80962500Y-59055000D01*
X61912500Y-78105000D02*
X61912500Y-59055000D01*
X64437500Y-61580000D02*
X65437500Y-61580000D01*
X64437500Y-62580000D02*
X64437500Y-61580000D01*
X64437500Y-74580000D02*
X64437500Y-75580000D01*
X64437500Y-75580000D02*
X65437500Y-75580000D01*
X77437500Y-75580000D02*
X78437500Y-75580000D01*
X78437500Y-61580000D02*
X77437500Y-61580000D01*
X78437500Y-61580000D02*
X78437500Y-62580000D01*
X78437500Y-75580000D02*
X78437500Y-74580000D01*
X80962500Y-59055000D02*
X80962500Y-78105000D01*
X80962500Y-78105000D02*
X61912500Y-78105000D01*
%TO.C,SW51*%
X19050050Y-61912500D02*
X42862550Y-61912500D01*
X19050050Y-80962500D02*
X19050050Y-61912500D01*
X23956300Y-64437500D02*
X24956300Y-64437500D01*
X23956300Y-65437500D02*
X23956300Y-64437500D01*
X23956300Y-77437500D02*
X23956300Y-78437500D01*
X23956300Y-78437500D02*
X24956300Y-78437500D01*
X36956300Y-78437500D02*
X37956300Y-78437500D01*
X37956300Y-64437500D02*
X36956300Y-64437500D01*
X37956300Y-64437500D02*
X37956300Y-65437500D01*
X37956300Y-78437500D02*
X37956300Y-77437500D01*
X42862550Y-61912500D02*
X42862550Y-80962500D01*
X42862550Y-80962500D02*
X19050050Y-80962500D01*
%TO.C,SW7*%
X42862500Y-3810000D02*
X61912500Y-3810000D01*
X42862500Y-22860000D02*
X42862500Y-3810000D01*
X45387500Y-6335000D02*
X46387500Y-6335000D01*
X45387500Y-7335000D02*
X45387500Y-6335000D01*
X45387500Y-19335000D02*
X45387500Y-20335000D01*
X45387500Y-20335000D02*
X46387500Y-20335000D01*
X58387500Y-20335000D02*
X59387500Y-20335000D01*
X59387500Y-6335000D02*
X58387500Y-6335000D01*
X59387500Y-6335000D02*
X59387500Y-7335000D01*
X59387500Y-20335000D02*
X59387500Y-19335000D01*
X61912500Y-3810000D02*
X61912500Y-22860000D01*
X61912500Y-22860000D02*
X42862500Y-22860000D01*
%TO.C,SW11*%
X23812500Y-4762500D02*
X42862500Y-4762500D01*
X23812500Y-23812500D02*
X23812500Y-4762500D01*
X26337500Y-7287500D02*
X27337500Y-7287500D01*
X26337500Y-8287500D02*
X26337500Y-7287500D01*
X26337500Y-20287500D02*
X26337500Y-21287500D01*
X26337500Y-21287500D02*
X27337500Y-21287500D01*
X39337500Y-21287500D02*
X40337500Y-21287500D01*
X40337500Y-7287500D02*
X39337500Y-7287500D01*
X40337500Y-7287500D02*
X40337500Y-8287500D01*
X40337500Y-21287500D02*
X40337500Y-20287500D01*
X42862500Y-4762500D02*
X42862500Y-23812500D01*
X42862500Y-23812500D02*
X23812500Y-23812500D01*
%TO.C,SW13*%
X80962500Y-19050000D02*
X100012500Y-19050000D01*
X80962500Y-38100000D02*
X80962500Y-19050000D01*
X83487500Y-21575000D02*
X84487500Y-21575000D01*
X83487500Y-22575000D02*
X83487500Y-21575000D01*
X83487500Y-34575000D02*
X83487500Y-35575000D01*
X83487500Y-35575000D02*
X84487500Y-35575000D01*
X96487500Y-35575000D02*
X97487500Y-35575000D01*
X97487500Y-21575000D02*
X96487500Y-21575000D01*
X97487500Y-21575000D02*
X97487500Y-22575000D01*
X97487500Y-35575000D02*
X97487500Y-34575000D01*
X100012500Y-19050000D02*
X100012500Y-38100000D01*
X100012500Y-38100000D02*
X80962500Y-38100000D01*
%TO.C,SW48*%
X119062500Y-60960000D02*
X138112500Y-60960000D01*
X119062500Y-80010000D02*
X119062500Y-60960000D01*
X121587500Y-63485000D02*
X122587500Y-63485000D01*
X121587500Y-64485000D02*
X121587500Y-63485000D01*
X121587500Y-76485000D02*
X121587500Y-77485000D01*
X121587500Y-77485000D02*
X122587500Y-77485000D01*
X134587500Y-77485000D02*
X135587500Y-77485000D01*
X135587500Y-63485000D02*
X134587500Y-63485000D01*
X135587500Y-63485000D02*
X135587500Y-64485000D01*
X135587500Y-77485000D02*
X135587500Y-76485000D01*
X138112500Y-60960000D02*
X138112500Y-80010000D01*
X138112500Y-80010000D02*
X119062500Y-80010000D01*
%TO.C,SW47*%
X42862500Y-60960000D02*
X61912500Y-60960000D01*
X42862500Y-80010000D02*
X42862500Y-60960000D01*
X45387500Y-63485000D02*
X46387500Y-63485000D01*
X45387500Y-64485000D02*
X45387500Y-63485000D01*
X45387500Y-76485000D02*
X45387500Y-77485000D01*
X45387500Y-77485000D02*
X46387500Y-77485000D01*
X58387500Y-77485000D02*
X59387500Y-77485000D01*
X59387500Y-63485000D02*
X58387500Y-63485000D01*
X59387500Y-63485000D02*
X59387500Y-64485000D01*
X59387500Y-77485000D02*
X59387500Y-76485000D01*
X61912500Y-60960000D02*
X61912500Y-80010000D01*
X61912500Y-80010000D02*
X42862500Y-80010000D01*
%TO.C,SW25*%
X80962500Y-38100000D02*
X100012500Y-38100000D01*
X80962500Y-57150000D02*
X80962500Y-38100000D01*
X83487500Y-40625000D02*
X84487500Y-40625000D01*
X83487500Y-41625000D02*
X83487500Y-40625000D01*
X83487500Y-53625000D02*
X83487500Y-54625000D01*
X83487500Y-54625000D02*
X84487500Y-54625000D01*
X96487500Y-54625000D02*
X97487500Y-54625000D01*
X97487500Y-40625000D02*
X96487500Y-40625000D01*
X97487500Y-40625000D02*
X97487500Y-41625000D01*
X97487500Y-54625000D02*
X97487500Y-53625000D01*
X100012500Y-38100000D02*
X100012500Y-57150000D01*
X100012500Y-57150000D02*
X80962500Y-57150000D01*
%TO.C,SW8*%
X119062500Y-3810000D02*
X138112500Y-3810000D01*
X119062500Y-22860000D02*
X119062500Y-3810000D01*
X121587500Y-6335000D02*
X122587500Y-6335000D01*
X121587500Y-7335000D02*
X121587500Y-6335000D01*
X121587500Y-19335000D02*
X121587500Y-20335000D01*
X121587500Y-20335000D02*
X122587500Y-20335000D01*
X134587500Y-20335000D02*
X135587500Y-20335000D01*
X135587500Y-6335000D02*
X134587500Y-6335000D01*
X135587500Y-6335000D02*
X135587500Y-7335000D01*
X135587500Y-20335000D02*
X135587500Y-19335000D01*
X138112500Y-3810000D02*
X138112500Y-22860000D01*
X138112500Y-22860000D02*
X119062500Y-22860000D01*
%TO.C,SW30*%
X100012500Y-40005000D02*
X119062500Y-40005000D01*
X100012500Y-59055000D02*
X100012500Y-40005000D01*
X102537500Y-42530000D02*
X103537500Y-42530000D01*
X102537500Y-43530000D02*
X102537500Y-42530000D01*
X102537500Y-55530000D02*
X102537500Y-56530000D01*
X102537500Y-56530000D02*
X103537500Y-56530000D01*
X115537500Y-56530000D02*
X116537500Y-56530000D01*
X116537500Y-42530000D02*
X115537500Y-42530000D01*
X116537500Y-42530000D02*
X116537500Y-43530000D01*
X116537500Y-56530000D02*
X116537500Y-55530000D01*
X119062500Y-40005000D02*
X119062500Y-59055000D01*
X119062500Y-59055000D02*
X100012500Y-59055000D01*
%TD*%
M02*
