%TF.GenerationSoftware,KiCad,Pcbnew,10.0.5*%
%TF.CreationDate,2026-09-23T03:24:25+09:00*%
%TF.ProjectId,keyboard,6b657962-6f61-4726-942e-6b696361645f,rev?*%
%TF.SameCoordinates,Original*%
%TF.FileFunction,Soldermask,Bot*%
%TF.FilePolarity,Negative*%
%FSLAX46Y46*%
G04 Gerber Fmt 4.6, Leading zero omitted, Abs format (unit mm)*
G04 Created by KiCad (PCBNEW 10.0.5) date 2026-09-23 03:24:25*
%MOMM*%
%LPD*%
G01*
G04 APERTURE LIST*
G04 Aperture macros list*
%AMRoundRect*
0 Rectangle with rounded corners*
0 $1 Rounding radius*
0 $2 $3 $4 $5 $6 $7 $8 $9 X,Y pos of 4 corners*
0 Add a 4 corners polygon primitive as box body*
4,1,4,$2,$3,$4,$5,$6,$7,$8,$9,$2,$3,0*
0 Add four circle primitives for the rounded corners*
1,1,$1+$1,$2,$3*
1,1,$1+$1,$4,$5*
1,1,$1+$1,$6,$7*
1,1,$1+$1,$8,$9*
0 Add four rect primitives between the rounded corners*
20,1,$1+$1,$2,$3,$4,$5,0*
20,1,$1+$1,$4,$5,$6,$7,0*
20,1,$1+$1,$6,$7,$8,$9,0*
20,1,$1+$1,$8,$9,$2,$3,0*%
%AMRotRect*
0 Rectangle, with rotation*
0 The origin of the aperture is its center*
0 $1 length*
0 $2 width*
0 $3 Rotation angle, in degrees counterclockwise*
0 Add horizontal line*
21,1,$1,$2,0,0,$3*%
G04 Aperture macros list end*
%ADD10C,2.000000*%
%ADD11C,3.000000*%
%ADD12C,4.000000*%
%ADD13R,3.300000X3.000000*%
%ADD14C,0.850000*%
%ADD15RotRect,3.300000X3.000000X255.000000*%
%ADD16C,2.200000*%
%ADD17C,3.050000*%
%ADD18C,1.800000*%
%ADD19R,1.200000X0.900000*%
%ADD20R,2.200000X0.820000*%
%ADD21RoundRect,0.180000X0.270000X-0.270000X0.270000X0.270000X-0.270000X0.270000X-0.270000X-0.270000X0*%
%ADD22RoundRect,0.250000X0.350000X0.625000X-0.350000X0.625000X-0.350000X-0.625000X0.350000X-0.625000X0*%
%ADD23O,1.200000X1.750000*%
%ADD24RoundRect,0.180000X0.330681X0.190919X-0.190919X0.330681X-0.330681X-0.190919X0.190919X-0.330681X0*%
%ADD25RotRect,2.200000X0.820000X255.000000*%
%ADD26RotRect,0.900000X1.200000X165.000000*%
%ADD27RotRect,0.900000X1.200000X345.000000*%
G04 APERTURE END LIST*
D10*
%TO.C,SW41*%
X142557500Y-66675000D03*
D11*
X143827500Y-64135000D03*
D12*
X147637500Y-66675000D03*
D11*
X150177500Y-61595000D03*
D10*
X152717500Y-66675000D03*
D13*
X140187500Y-64095000D03*
X153787500Y-61555000D03*
%TD*%
D10*
%TO.C,SW4*%
X104457500Y-11430000D03*
D11*
X105727500Y-8890000D03*
D12*
X109537500Y-11430000D03*
D11*
X112077500Y-6350000D03*
D10*
X114617500Y-11430000D03*
D13*
X102087500Y-8850000D03*
X115687500Y-6310000D03*
%TD*%
D10*
%TO.C,SW26*%
X142557500Y-47625000D03*
D11*
X143827500Y-45085000D03*
D12*
X147637500Y-47625000D03*
D11*
X150177500Y-42545000D03*
D10*
X152717500Y-47625000D03*
D13*
X140187500Y-45045000D03*
X153787500Y-42505000D03*
%TD*%
D10*
%TO.C,SW55*%
X35401300Y-90487500D03*
D11*
X36671300Y-87947500D03*
D12*
X40481300Y-90487500D03*
D11*
X43021300Y-85407500D03*
D10*
X45561300Y-90487500D03*
D13*
X33031300Y-87907500D03*
X46631300Y-85367500D03*
%TD*%
D10*
%TO.C,SW37*%
X25876300Y-52387500D03*
D11*
X27146300Y-49847500D03*
D12*
X30956300Y-52387500D03*
D11*
X33496300Y-47307500D03*
D10*
X36036300Y-52387500D03*
D13*
X23506300Y-49807500D03*
X37106300Y-47267500D03*
%TD*%
D10*
%TO.C,SW1*%
X85407500Y-9525000D03*
D11*
X86677500Y-6985000D03*
D12*
X90487500Y-9525000D03*
D11*
X93027500Y-4445000D03*
D10*
X95567500Y-9525000D03*
D13*
X83037500Y-6945000D03*
X96637500Y-4405000D03*
%TD*%
D10*
%TO.C,SW33*%
X47307500Y-51435000D03*
D11*
X48577500Y-48895000D03*
D12*
X52387500Y-51435000D03*
D11*
X54927500Y-46355000D03*
D10*
X57467500Y-51435000D03*
D13*
X44937500Y-48855000D03*
X58537500Y-46315000D03*
%TD*%
D10*
%TO.C,SW23*%
X25876300Y-33337500D03*
D11*
X27146300Y-30797500D03*
D12*
X30956300Y-33337500D03*
D11*
X33496300Y-28257500D03*
D10*
X36036300Y-33337500D03*
D13*
X23506300Y-30757500D03*
X37106300Y-28217500D03*
%TD*%
D10*
%TO.C,SW15*%
X66357500Y-30480000D03*
D11*
X67627500Y-27940000D03*
D12*
X71437500Y-30480000D03*
D11*
X73977500Y-25400000D03*
D10*
X76517500Y-30480000D03*
D13*
X63987500Y-27900000D03*
X77587500Y-25360000D03*
%TD*%
D10*
%TO.C,SW53*%
X92551300Y-87630000D03*
D11*
X93821300Y-85090000D03*
D12*
X97631300Y-87630000D03*
D11*
X100171300Y-82550000D03*
D10*
X102711300Y-87630000D03*
D13*
X90181300Y-85050000D03*
X103781300Y-82510000D03*
%TD*%
D10*
%TO.C,SW16*%
X104457500Y-30480000D03*
D11*
X105727500Y-27940000D03*
D12*
X109537500Y-30480000D03*
D11*
X112077500Y-25400000D03*
D10*
X114617500Y-30480000D03*
D13*
X102087500Y-27900000D03*
X115687500Y-25360000D03*
%TD*%
D10*
%TO.C,SW54*%
X66357500Y-89535000D03*
D11*
X67627500Y-86995000D03*
D12*
X71437500Y-89535000D03*
D11*
X73977500Y-84455000D03*
D10*
X76517500Y-89535000D03*
D13*
X63987500Y-86955000D03*
X77587500Y-84415000D03*
%TD*%
D11*
%TO.C,STAB1*%
X136677300Y-115543500D03*
%TD*%
D10*
%TO.C,SW3*%
X66357500Y-11430000D03*
D11*
X67627500Y-8890000D03*
D12*
X71437500Y-11430000D03*
D11*
X73977500Y-6350000D03*
D10*
X76517500Y-11430000D03*
D13*
X63987500Y-8850000D03*
X77587500Y-6310000D03*
%TD*%
D14*
%TO.C,SWP1*%
X157000000Y-31987500D03*
X157000000Y-28987500D03*
%TD*%
D10*
%TO.C,SW40*%
X85407500Y-66675000D03*
D11*
X86677500Y-64135000D03*
D12*
X90487500Y-66675000D03*
D11*
X93027500Y-61595000D03*
D10*
X95567500Y-66675000D03*
D13*
X83037500Y-64095000D03*
X96637500Y-61555000D03*
%TD*%
D10*
%TO.C,SW44*%
X104457500Y-68580000D03*
D11*
X105727500Y-66040000D03*
D12*
X109537500Y-68580000D03*
D11*
X112077500Y-63500000D03*
D10*
X114617500Y-68580000D03*
D13*
X102087500Y-66000000D03*
X115687500Y-63460000D03*
%TD*%
D10*
%TO.C,SW58*%
X119435099Y-106288803D03*
D11*
X117310348Y-104404677D03*
D12*
X120749900Y-101381900D03*
D11*
X116500397Y-97613648D03*
D10*
X122064701Y-96474997D03*
D15*
X116329609Y-107910295D03*
X117396097Y-94116302D03*
%TD*%
D16*
%TO.C,H1*%
X21150000Y-38607500D03*
%TD*%
%TO.C,H2*%
X82650000Y-96007500D03*
%TD*%
%TO.C,H3*%
X148250000Y-26307500D03*
%TD*%
D10*
%TO.C,SW34*%
X123507500Y-51435000D03*
D11*
X124777500Y-48895000D03*
D12*
X128587500Y-51435000D03*
D11*
X131127500Y-46355000D03*
D10*
X133667500Y-51435000D03*
D13*
X121137500Y-48855000D03*
X134737500Y-46315000D03*
%TD*%
D10*
%TO.C,SW20*%
X123507500Y-32385000D03*
D11*
X124777500Y-29845000D03*
D12*
X128587500Y-32385000D03*
D11*
X131127500Y-27305000D03*
D10*
X133667500Y-32385000D03*
D13*
X121137500Y-29805000D03*
X134737500Y-27265000D03*
%TD*%
D10*
%TO.C,SW29*%
X66357500Y-49530000D03*
D11*
X67627500Y-46990000D03*
D12*
X71437500Y-49530000D03*
D11*
X73977500Y-44450000D03*
D10*
X76517500Y-49530000D03*
D13*
X63987500Y-46950000D03*
X77587500Y-44410000D03*
%TD*%
D10*
%TO.C,SW19*%
X47307500Y-32385000D03*
D11*
X48577500Y-29845000D03*
D12*
X52387500Y-32385000D03*
D11*
X54927500Y-27305000D03*
D10*
X57467500Y-32385000D03*
D13*
X44937500Y-29805000D03*
X58537500Y-27265000D03*
%TD*%
D11*
%TO.C,STAB2*%
X142856900Y-92481000D03*
%TD*%
D17*
%TO.C,SW59*%
X129925673Y-113695084D03*
D12*
X144646382Y-117639486D03*
D18*
X138452299Y-108919203D03*
D11*
X136327548Y-107035077D03*
D12*
X139767100Y-104012300D03*
D11*
X135517597Y-100244048D03*
D18*
X141081901Y-99105397D03*
D12*
X150806275Y-94650453D03*
D17*
X136085566Y-90706049D03*
D15*
X135398387Y-110502751D03*
X136438993Y-96805352D03*
%TD*%
D10*
%TO.C,SW43*%
X66357500Y-68580000D03*
D11*
X67627500Y-66040000D03*
D12*
X71437500Y-68580000D03*
D11*
X73977500Y-63500000D03*
D10*
X76517500Y-68580000D03*
D13*
X63987500Y-66000000D03*
X77587500Y-63460000D03*
%TD*%
D10*
%TO.C,SW51*%
X25876300Y-71437500D03*
D11*
X27146300Y-68897500D03*
D12*
X30956300Y-71437500D03*
D11*
X33496300Y-66357500D03*
D10*
X36036300Y-71437500D03*
D13*
X23506300Y-68857500D03*
X37106300Y-66317500D03*
%TD*%
D10*
%TO.C,SW7*%
X47307500Y-13335000D03*
D11*
X48577500Y-10795000D03*
D12*
X52387500Y-13335000D03*
D11*
X54927500Y-8255000D03*
D10*
X57467500Y-13335000D03*
D13*
X44937500Y-10755000D03*
X58537500Y-8215000D03*
%TD*%
D10*
%TO.C,SW11*%
X28257500Y-14287500D03*
D11*
X29527500Y-11747500D03*
D12*
X33337500Y-14287500D03*
D11*
X35877500Y-9207500D03*
D10*
X38417500Y-14287500D03*
D13*
X25887500Y-11707500D03*
X39487500Y-9167500D03*
%TD*%
D10*
%TO.C,SW13*%
X85407500Y-28575000D03*
D11*
X86677500Y-26035000D03*
D12*
X90487500Y-28575000D03*
D11*
X93027500Y-23495000D03*
D10*
X95567500Y-28575000D03*
D13*
X83037500Y-25995000D03*
X96637500Y-23455000D03*
%TD*%
D10*
%TO.C,SW48*%
X123507500Y-70485000D03*
D11*
X124777500Y-67945000D03*
D12*
X128587500Y-70485000D03*
D11*
X131127500Y-65405000D03*
D10*
X133667500Y-70485000D03*
D13*
X121137500Y-67905000D03*
X134737500Y-65365000D03*
%TD*%
D10*
%TO.C,SW47*%
X47307500Y-70485000D03*
D11*
X48577500Y-67945000D03*
D12*
X52387500Y-70485000D03*
D11*
X54927500Y-65405000D03*
D10*
X57467500Y-70485000D03*
D13*
X44937500Y-67905000D03*
X58537500Y-65365000D03*
%TD*%
D10*
%TO.C,SW25*%
X85407500Y-47625000D03*
D11*
X86677500Y-45085000D03*
D12*
X90487500Y-47625000D03*
D11*
X93027500Y-42545000D03*
D10*
X95567500Y-47625000D03*
D13*
X83037500Y-45045000D03*
X96637500Y-42505000D03*
%TD*%
D10*
%TO.C,SW8*%
X123507500Y-13335000D03*
D11*
X124777500Y-10795000D03*
D12*
X128587500Y-13335000D03*
D11*
X131127500Y-8255000D03*
D10*
X133667500Y-13335000D03*
D13*
X121137500Y-10755000D03*
X134737500Y-8215000D03*
%TD*%
D10*
%TO.C,SW30*%
X104457500Y-49530000D03*
D11*
X105727500Y-46990000D03*
D12*
X109537500Y-49530000D03*
D11*
X112077500Y-44450000D03*
D10*
X114617500Y-49530000D03*
D13*
X102087500Y-46950000D03*
X115687500Y-44410000D03*
%TD*%
D19*
%TO.C,D1*%
X99000000Y-15000000D03*
X99000000Y-11700000D03*
%TD*%
%TO.C,D40*%
X98000000Y-72000000D03*
X98000000Y-68700000D03*
%TD*%
D20*
%TO.C,LED34*%
X125427500Y-55935000D03*
X131747500Y-55935000D03*
X131747500Y-57435000D03*
X125427500Y-57435000D03*
%TD*%
%TO.C,LED30*%
X106377500Y-54030000D03*
X112697500Y-54030000D03*
X112697500Y-55530000D03*
X106377500Y-55530000D03*
%TD*%
D21*
%TO.C,C_RGB4*%
X103037500Y-17430000D03*
X103037500Y-15930000D03*
%TD*%
%TO.C,C_RGB16*%
X103037500Y-36480000D03*
X103037500Y-34980000D03*
%TD*%
%TO.C,C_RGB37*%
X24456300Y-58387500D03*
X24456300Y-56887500D03*
%TD*%
D20*
%TO.C,LED33*%
X49227500Y-55935000D03*
X55547500Y-55935000D03*
X55547500Y-57435000D03*
X49227500Y-57435000D03*
%TD*%
D21*
%TO.C,C_RGB1*%
X83987500Y-15525000D03*
X83987500Y-14025000D03*
%TD*%
D20*
%TO.C,LED48*%
X125427500Y-74985000D03*
X131747500Y-74985000D03*
X131747500Y-76485000D03*
X125427500Y-76485000D03*
%TD*%
D21*
%TO.C,C_RGB44*%
X103037500Y-74580000D03*
X103037500Y-73080000D03*
%TD*%
D20*
%TO.C,LED29*%
X68277500Y-54030000D03*
X74597500Y-54030000D03*
X74597500Y-55530000D03*
X68277500Y-55530000D03*
%TD*%
%TO.C,LED11*%
X30177500Y-18787500D03*
X36497500Y-18787500D03*
X36497500Y-20287500D03*
X30177500Y-20287500D03*
%TD*%
D21*
%TO.C,C_RGB20*%
X122087500Y-38385000D03*
X122087500Y-36885000D03*
%TD*%
D20*
%TO.C,LED8*%
X125427500Y-17835000D03*
X131747500Y-17835000D03*
X131747500Y-19335000D03*
X125427500Y-19335000D03*
%TD*%
D22*
%TO.C,J1*%
X143500000Y-30550000D03*
D23*
X141500000Y-30550000D03*
%TD*%
D21*
%TO.C,C_RGB29*%
X64937500Y-55530000D03*
X64937500Y-54030000D03*
%TD*%
D20*
%TO.C,LED26*%
X142840000Y-52750000D03*
X149160000Y-52750000D03*
X149160000Y-54250000D03*
X142840000Y-54250000D03*
%TD*%
D19*
%TO.C,D20*%
X137000000Y-41150000D03*
X137000000Y-37850000D03*
%TD*%
%TO.C,D25*%
X98500000Y-52000000D03*
X98500000Y-48700000D03*
%TD*%
%TO.C,D44*%
X117500000Y-73500000D03*
X117500000Y-70200000D03*
%TD*%
D20*
%TO.C,LED41*%
X143215000Y-72250000D03*
X149535000Y-72250000D03*
X149535000Y-73750000D03*
X143215000Y-73750000D03*
%TD*%
D19*
%TO.C,D48*%
X137000000Y-79000000D03*
X137000000Y-75700000D03*
%TD*%
D20*
%TO.C,LED37*%
X27796300Y-56887500D03*
X34116300Y-56887500D03*
X34116300Y-58387500D03*
X27796300Y-58387500D03*
%TD*%
D21*
%TO.C,C_RGB53*%
X91131300Y-93630000D03*
X91131300Y-92130000D03*
%TD*%
D24*
%TO.C,C_RGB59*%
X143880344Y-111843714D03*
X142431456Y-111455486D03*
%TD*%
D20*
%TO.C,LED13*%
X87327500Y-33075000D03*
X93647500Y-33075000D03*
X93647500Y-34575000D03*
X87327500Y-34575000D03*
%TD*%
%TO.C,LED51*%
X27796300Y-75937500D03*
X34116300Y-75937500D03*
X34116300Y-77437500D03*
X27796300Y-77437500D03*
%TD*%
D19*
%TO.C,D41*%
X155500000Y-75150000D03*
X155500000Y-71850000D03*
%TD*%
D21*
%TO.C,C_RGB41*%
X139875000Y-73750000D03*
X139875000Y-72250000D03*
%TD*%
%TO.C,C_RGB43*%
X64937500Y-74580000D03*
X64937500Y-73080000D03*
%TD*%
D20*
%TO.C,LED4*%
X106377500Y-15930000D03*
X112697500Y-15930000D03*
X112697500Y-17430000D03*
X106377500Y-17430000D03*
%TD*%
D21*
%TO.C,C_RGB7*%
X45887500Y-19335000D03*
X45887500Y-17835000D03*
%TD*%
%TO.C,C_RGB3*%
X64937500Y-17430000D03*
X64937500Y-15930000D03*
%TD*%
D20*
%TO.C,LED23*%
X27796300Y-37837500D03*
X34116300Y-37837500D03*
X34116300Y-39337500D03*
X27796300Y-39337500D03*
%TD*%
D21*
%TO.C,C_RGB48*%
X122087500Y-76485000D03*
X122087500Y-74985000D03*
%TD*%
D20*
%TO.C,LED16*%
X106377500Y-34980000D03*
X112697500Y-34980000D03*
X112697500Y-36480000D03*
X106377500Y-36480000D03*
%TD*%
D21*
%TO.C,C_RGB13*%
X83987500Y-34575000D03*
X83987500Y-33075000D03*
%TD*%
%TO.C,C_RGB47*%
X45887500Y-76485000D03*
X45887500Y-74985000D03*
%TD*%
%TO.C,C_RGB40*%
X83987500Y-72675000D03*
X83987500Y-71175000D03*
%TD*%
D19*
%TO.C,D47*%
X60000000Y-75500000D03*
X60000000Y-72200000D03*
%TD*%
D20*
%TO.C,LED40*%
X87327500Y-71175000D03*
X93647500Y-71175000D03*
X93647500Y-72675000D03*
X87327500Y-72675000D03*
%TD*%
D19*
%TO.C,D8*%
X137000000Y-22000000D03*
X137000000Y-18700000D03*
%TD*%
D21*
%TO.C,C_RGB26*%
X139500000Y-54250000D03*
X139500000Y-52750000D03*
%TD*%
D19*
%TO.C,D11*%
X39500000Y-24000000D03*
X39500000Y-20700000D03*
%TD*%
%TO.C,D26*%
X155500000Y-56150000D03*
X155500000Y-52850000D03*
%TD*%
%TO.C,D15*%
X79000000Y-35500000D03*
X79000000Y-32200000D03*
%TD*%
D21*
%TO.C,C_RGB23*%
X24456300Y-39337500D03*
X24456300Y-37837500D03*
%TD*%
%TO.C,C_RGB55*%
X33981300Y-96487500D03*
X33981300Y-94987500D03*
%TD*%
%TO.C,C_RGB19*%
X45887500Y-38385000D03*
X45887500Y-36885000D03*
%TD*%
D20*
%TO.C,LED43*%
X68277500Y-73080000D03*
X74597500Y-73080000D03*
X74597500Y-74580000D03*
X68277500Y-74580000D03*
%TD*%
D19*
%TO.C,D29*%
X79500000Y-53500000D03*
X79500000Y-50200000D03*
%TD*%
D21*
%TO.C,C_RGB30*%
X103037500Y-55530000D03*
X103037500Y-54030000D03*
%TD*%
D20*
%TO.C,LED19*%
X49227500Y-36885000D03*
X55547500Y-36885000D03*
X55547500Y-38385000D03*
X49227500Y-38385000D03*
%TD*%
D19*
%TO.C,D53*%
X106500000Y-95650000D03*
X106500000Y-92350000D03*
%TD*%
D25*
%TO.C,LED59*%
X143295887Y-108229311D03*
X144931624Y-102124661D03*
X146380513Y-102512889D03*
X144744776Y-108617539D03*
%TD*%
D21*
%TO.C,C_RGB11*%
X26837500Y-20287500D03*
X26837500Y-18787500D03*
%TD*%
D20*
%TO.C,LED53*%
X94471300Y-92130000D03*
X100791300Y-92130000D03*
X100791300Y-93630000D03*
X94471300Y-93630000D03*
%TD*%
D19*
%TO.C,D55*%
X52000000Y-93500000D03*
X52000000Y-90200000D03*
%TD*%
%TO.C,D23*%
X40500000Y-41500000D03*
X40500000Y-38200000D03*
%TD*%
%TO.C,D33*%
X60500000Y-56085000D03*
X60500000Y-52785000D03*
%TD*%
%TO.C,D4*%
X118000000Y-21650000D03*
X118000000Y-18350000D03*
%TD*%
%TO.C,D19*%
X61037500Y-40000000D03*
X61037500Y-36700000D03*
%TD*%
D21*
%TO.C,C_RGB15*%
X64937500Y-36480000D03*
X64937500Y-34980000D03*
%TD*%
D19*
%TO.C,D43*%
X79000000Y-74500000D03*
X79000000Y-71200000D03*
%TD*%
D20*
%TO.C,LED3*%
X68277500Y-15930000D03*
X74597500Y-15930000D03*
X74597500Y-17430000D03*
X68277500Y-17430000D03*
%TD*%
D19*
%TO.C,D51*%
X40000000Y-78150000D03*
X40000000Y-74850000D03*
%TD*%
%TO.C,D30*%
X117500000Y-55000000D03*
X117500000Y-51700000D03*
%TD*%
%TO.C,D7*%
X61000000Y-20000000D03*
X61000000Y-16700000D03*
%TD*%
%TO.C,D34*%
X137000000Y-60000000D03*
X137000000Y-56700000D03*
%TD*%
D24*
%TO.C,C_RGB58*%
X124863144Y-109213314D03*
X123414256Y-108825086D03*
%TD*%
D20*
%TO.C,LED20*%
X125427500Y-36885000D03*
X131747500Y-36885000D03*
X131747500Y-38385000D03*
X125427500Y-38385000D03*
%TD*%
%TO.C,LED44*%
X106377500Y-73080000D03*
X112697500Y-73080000D03*
X112697500Y-74580000D03*
X106377500Y-74580000D03*
%TD*%
D25*
%TO.C,LED58*%
X124278687Y-105598911D03*
X125914424Y-99494261D03*
X127363313Y-99882489D03*
X125727576Y-105987139D03*
%TD*%
D19*
%TO.C,D54*%
X82500000Y-91650000D03*
X82500000Y-88350000D03*
%TD*%
D21*
%TO.C,C_RGB33*%
X45887500Y-57435000D03*
X45887500Y-55935000D03*
%TD*%
D26*
%TO.C,D58*%
X128499978Y-92499950D03*
X125312422Y-91645850D03*
%TD*%
D20*
%TO.C,LED47*%
X49227500Y-74985000D03*
X55547500Y-74985000D03*
X55547500Y-76485000D03*
X49227500Y-76485000D03*
%TD*%
D21*
%TO.C,C_RGB25*%
X83987500Y-53625000D03*
X83987500Y-52125000D03*
%TD*%
D19*
%TO.C,D37*%
X41000000Y-59500000D03*
X41000000Y-56200000D03*
%TD*%
D20*
%TO.C,LED1*%
X87327500Y-14025000D03*
X93647500Y-14025000D03*
X93647500Y-15525000D03*
X87327500Y-15525000D03*
%TD*%
%TO.C,LED54*%
X68277500Y-94035000D03*
X74597500Y-94035000D03*
X74597500Y-95535000D03*
X68277500Y-95535000D03*
%TD*%
D19*
%TO.C,D16*%
X116000000Y-40500000D03*
X116000000Y-37200000D03*
%TD*%
D20*
%TO.C,LED15*%
X68277500Y-34980000D03*
X74597500Y-34980000D03*
X74597500Y-36480000D03*
X68277500Y-36480000D03*
%TD*%
%TO.C,LED55*%
X37321300Y-94987500D03*
X43641300Y-94987500D03*
X43641300Y-96487500D03*
X37321300Y-96487500D03*
%TD*%
D27*
%TO.C,D59*%
X137000022Y-82999950D03*
X140187578Y-83854050D03*
%TD*%
D20*
%TO.C,LED25*%
X87327500Y-52125000D03*
X93647500Y-52125000D03*
X93647500Y-53625000D03*
X87327500Y-53625000D03*
%TD*%
D19*
%TO.C,D3*%
X79500000Y-16000000D03*
X79500000Y-12700000D03*
%TD*%
%TO.C,D13*%
X98500000Y-33500000D03*
X98500000Y-30200000D03*
%TD*%
D21*
%TO.C,C_RGB54*%
X64937500Y-95535000D03*
X64937500Y-94035000D03*
%TD*%
%TO.C,C_RGB51*%
X24456300Y-77437500D03*
X24456300Y-75937500D03*
%TD*%
%TO.C,C_RGB34*%
X122087500Y-57435000D03*
X122087500Y-55935000D03*
%TD*%
D20*
%TO.C,LED7*%
X49227500Y-17835000D03*
X55547500Y-17835000D03*
X55547500Y-19335000D03*
X49227500Y-19335000D03*
%TD*%
D21*
%TO.C,C_RGB8*%
X122087500Y-19335000D03*
X122087500Y-17835000D03*
%TD*%
M02*
