0
SECTION
2
ENTITIES
0
POLYLINE
8
0
6
CONTINUOUS
66
1
70
1
0
VERTEX
8
0
10
111.0744759
20
-86.9957879
42
0.4142136
0
VERTEX
8
0
10
110.7209225
20
-87.6081603
0
VERTEX
8
0
10
114.0855701
20
-100.1651961
42
0.4142136
0
VERTEX
8
0
10
114.6979425
20
-100.5187495
0
VERTEX
8
0
10
127.2549783
20
-97.1541019
42
0.4142136
0
VERTEX
8
0
10
127.6085317
20
-96.5417295
0
VERTEX
8
0
10
124.2438841
20
-83.9846937
42
0.4142136
0
VERTEX
8
0
10
123.6315117
20
-83.6311403
0
SEQEND
0
POLYLINE
8
0
6
CONTINUOUS
66
1
70
1
0
VERTEX
8
0
10
92.0572761
20
-89.6261799
42
0.4142136
0
VERTEX
8
0
10
91.7037227
20
-90.2385523
0
VERTEX
8
0
10
95.0683703
20
-102.7955881
42
0.4142136
0
VERTEX
8
0
10
95.6807427
20
-103.1491415
0
VERTEX
8
0
10
108.2377785
20
-99.7844939
42
0.4142136
0
VERTEX
8
0
10
108.5913319
20
-99.1721215
0
VERTEX
8
0
10
105.2266843
20
-86.6150857
42
0.4142136
0
VERTEX
8
0
10
104.6143119
20
-86.2615323
0
SEQEND
0
POLYLINE
8
0
6
CONTINUOUS
66
1
70
1
0
VERTEX
8
0
10
140.6375
20
-6.5
42
0.4142136
0
VERTEX
8
0
10
141.1375
20
-7
0
VERTEX
8
0
10
154.1375
20
-7
42
0.4142136
0
VERTEX
8
0
10
154.6375
20
-6.5
0
VERTEX
8
0
10
154.6375
20
6.5
42
0.4142136
0
VERTEX
8
0
10
154.1375
20
7
0
VERTEX
8
0
10
141.1375
20
7
42
0.4142136
0
VERTEX
8
0
10
140.6375
20
6.5
0
SEQEND
0
POLYLINE
8
0
6
CONTINUOUS
66
1
70
1
0
VERTEX
8
0
10
121.5875
20
-8.405
42
0.4142136
0
VERTEX
8
0
10
122.0875
20
-8.905
0
VERTEX
8
0
10
135.0875
20
-8.905
42
0.4142136
0
VERTEX
8
0
10
135.5875
20
-8.405
0
VERTEX
8
0
10
135.5875
20
4.595
42
0.4142136
0
VERTEX
8
0
10
135.0875
20
5.095
0
VERTEX
8
0
10
122.0875
20
5.095
42
0.4142136
0
VERTEX
8
0
10
121.5875
20
4.595
0
SEQEND
0
POLYLINE
8
0
6
CONTINUOUS
66
1
70
1
0
VERTEX
8
0
10
159.6875
20
-8.405
42
0.4142136
0
VERTEX
8
0
10
160.1875
20
-8.905
0
VERTEX
8
0
10
173.1875
20
-8.905
42
0.4142136
0
VERTEX
8
0
10
173.6875
20
-8.405
0
VERTEX
8
0
10
173.6875
20
4.595
42
0.4142136
0
VERTEX
8
0
10
173.1875
20
5.095
0
VERTEX
8
0
10
160.1875
20
5.095
42
0.4142136
0
VERTEX
8
0
10
159.6875
20
4.595
0
SEQEND
0
POLYLINE
8
0
6
CONTINUOUS
66
1
70
1
0
VERTEX
8
0
10
102.5375
20
-10.31
42
0.4142136
0
VERTEX
8
0
10
103.0375
20
-10.81
0
VERTEX
8
0
10
116.0375
20
-10.81
42
0.4142136
0
VERTEX
8
0
10
116.5375
20
-10.31
0
VERTEX
8
0
10
116.5375
20
2.69
42
0.4142136
0
VERTEX
8
0
10
116.0375
20
3.19
0
VERTEX
8
0
10
103.0375
20
3.19
42
0.4142136
0
VERTEX
8
0
10
102.5375
20
2.69
0
SEQEND
0
POLYLINE
8
0
6
CONTINUOUS
66
1
70
1
0
VERTEX
8
0
10
178.7375
20
-10.31
42
0.4142136
0
VERTEX
8
0
10
179.2375
20
-10.81
0
VERTEX
8
0
10
192.2375
20
-10.81
42
0.4142136
0
VERTEX
8
0
10
192.7375
20
-10.31
0
VERTEX
8
0
10
192.7375
20
2.69
42
0.4142136
0
VERTEX
8
0
10
192.2375
20
3.19
0
VERTEX
8
0
10
179.2375
20
3.19
42
0.4142136
0
VERTEX
8
0
10
178.7375
20
2.69
0
SEQEND
0
POLYLINE
8
0
6
CONTINUOUS
66
1
70
1
0
VERTEX
8
0
10
197.7875
20
-11.2625
42
0.4142136
0
VERTEX
8
0
10
198.2875
20
-11.7625
0
VERTEX
8
0
10
211.2875
20
-11.7625
42
0.4142136
0
VERTEX
8
0
10
211.7875
20
-11.2625
0
VERTEX
8
0
10
211.7875
20
1.7375
42
0.4142136
0
VERTEX
8
0
10
211.2875
20
2.2375
0
VERTEX
8
0
10
198.2875
20
2.2375
42
0.4142136
0
VERTEX
8
0
10
197.7875
20
1.7375
0
SEQEND
0
POLYLINE
8
0
6
CONTINUOUS
66
1
70
1
0
VERTEX
8
0
10
140.6375
20
-25.55
42
0.4142136
0
VERTEX
8
0
10
141.1375
20
-26.05
0
VERTEX
8
0
10
154.1375
20
-26.05
42
0.4142136
0
VERTEX
8
0
10
154.6375
20
-25.55
0
VERTEX
8
0
10
154.6375
20
-12.55
42
0.4142136
0
VERTEX
8
0
10
154.1375
20
-12.05
0
VERTEX
8
0
10
141.1375
20
-12.05
42
0.4142136
0
VERTEX
8
0
10
140.6375
20
-12.55
0
SEQEND
0
POLYLINE
8
0
6
CONTINUOUS
66
1
70
1
0
VERTEX
8
0
10
121.5875
20
-27.455
42
0.4142136
0
VERTEX
8
0
10
122.0875
20
-27.955
0
VERTEX
8
0
10
135.0875
20
-27.955
42
0.4142136
0
VERTEX
8
0
10
135.5875
20
-27.455
0
VERTEX
8
0
10
135.5875
20
-14.455
42
0.4142136
0
VERTEX
8
0
10
135.0875
20
-13.955
0
VERTEX
8
0
10
122.0875
20
-13.955
42
0.4142136
0
VERTEX
8
0
10
121.5875
20
-14.455
0
SEQEND
0
POLYLINE
8
0
6
CONTINUOUS
66
1
70
1
0
VERTEX
8
0
10
159.6875
20
-27.455
42
0.4142136
0
VERTEX
8
0
10
160.1875
20
-27.955
0
VERTEX
8
0
10
173.1875
20
-27.955
42
0.4142136
0
VERTEX
8
0
10
173.6875
20
-27.455
0
VERTEX
8
0
10
173.6875
20
-14.455
42
0.4142136
0
VERTEX
8
0
10
173.1875
20
-13.955
0
VERTEX
8
0
10
160.1875
20
-13.955
42
0.4142136
0
VERTEX
8
0
10
159.6875
20
-14.455
0
SEQEND
0
POLYLINE
8
0
6
CONTINUOUS
66
1
70
1
0
VERTEX
8
0
10
102.5375
20
-29.36
42
0.4142136
0
VERTEX
8
0
10
103.0375
20
-29.86
0
VERTEX
8
0
10
116.0375
20
-29.86
42
0.4142136
0
VERTEX
8
0
10
116.5375
20
-29.36
0
VERTEX
8
0
10
116.5375
20
-16.36
42
0.4142136
0
VERTEX
8
0
10
116.0375
20
-15.86
0
VERTEX
8
0
10
103.0375
20
-15.86
42
0.4142136
0
VERTEX
8
0
10
102.5375
20
-16.36
0
SEQEND
0
POLYLINE
8
0
6
CONTINUOUS
66
1
70
1
0
VERTEX
8
0
10
178.7375
20
-29.36
42
0.4142136
0
VERTEX
8
0
10
179.2375
20
-29.86
0
VERTEX
8
0
10
192.2375
20
-29.86
42
0.4142136
0
VERTEX
8
0
10
192.7375
20
-29.36
0
VERTEX
8
0
10
192.7375
20
-16.36
42
0.4142136
0
VERTEX
8
0
10
192.2375
20
-15.86
0
VERTEX
8
0
10
179.2375
20
-15.86
42
0.4142136
0
VERTEX
8
0
10
178.7375
20
-16.36
0
SEQEND
0
POLYLINE
8
0
6
CONTINUOUS
66
1
70
1
0
VERTEX
8
0
10
200.16875
20
-30.3125
42
0.4142136
0
VERTEX
8
0
10
200.66875
20
-30.8125
0
VERTEX
8
0
10
213.66875
20
-30.8125
42
0.4142136
0
VERTEX
8
0
10
214.16875
20
-30.3125
0
VERTEX
8
0
10
214.16875
20
-17.3125
42
0.4142136
0
VERTEX
8
0
10
213.66875
20
-16.8125
0
VERTEX
8
0
10
200.66875
20
-16.8125
42
0.4142136
0
VERTEX
8
0
10
200.16875
20
-17.3125
0
SEQEND
0
POLYLINE
8
0
6
CONTINUOUS
66
1
70
1
0
VERTEX
8
0
10
83.4875
20
-44.6
42
0.4142136
0
VERTEX
8
0
10
83.9875
20
-45.1
0
VERTEX
8
0
10
96.9875
20
-45.1
42
0.4142136
0
VERTEX
8
0
10
97.4875
20
-44.6
0
VERTEX
8
0
10
97.4875
20
-31.6
42
0.4142136
0
VERTEX
8
0
10
96.9875
20
-31.1
0
VERTEX
8
0
10
83.9875
20
-31.1
42
0.4142136
0
VERTEX
8
0
10
83.4875
20
-31.6
0
SEQEND
0
POLYLINE
8
0
6
CONTINUOUS
66
1
70
1
0
VERTEX
8
0
10
140.6375
20
-44.6
42
0.4142136
0
VERTEX
8
0
10
141.1375
20
-45.1
0
VERTEX
8
0
10
154.1375
20
-45.1
42
0.4142136
0
VERTEX
8
0
10
154.6375
20
-44.6
0
VERTEX
8
0
10
154.6375
20
-31.6
42
0.4142136
0
VERTEX
8
0
10
154.1375
20
-31.1
0
VERTEX
8
0
10
141.1375
20
-31.1
42
0.4142136
0
VERTEX
8
0
10
140.6375
20
-31.6
0
SEQEND
0
POLYLINE
8
0
6
CONTINUOUS
66
1
70
1
0
VERTEX
8
0
10
121.5875
20
-46.505
42
0.4142136
0
VERTEX
8
0
10
122.0875
20
-47.005
0
VERTEX
8
0
10
135.0875
20
-47.005
42
0.4142136
0
VERTEX
8
0
10
135.5875
20
-46.505
0
VERTEX
8
0
10
135.5875
20
-33.505
42
0.4142136
0
VERTEX
8
0
10
135.0875
20
-33.005
0
VERTEX
8
0
10
122.0875
20
-33.005
42
0.4142136
0
VERTEX
8
0
10
121.5875
20
-33.505
0
SEQEND
0
POLYLINE
8
0
6
CONTINUOUS
66
1
70
1
0
VERTEX
8
0
10
159.6875
20
-46.505
42
0.4142136
0
VERTEX
8
0
10
160.1875
20
-47.005
0
VERTEX
8
0
10
173.1875
20
-47.005
42
0.4142136
0
VERTEX
8
0
10
173.6875
20
-46.505
0
VERTEX
8
0
10
173.6875
20
-33.505
42
0.4142136
0
VERTEX
8
0
10
173.1875
20
-33.005
0
VERTEX
8
0
10
160.1875
20
-33.005
42
0.4142136
0
VERTEX
8
0
10
159.6875
20
-33.505
0
SEQEND
0
POLYLINE
8
0
6
CONTINUOUS
66
1
70
1
0
VERTEX
8
0
10
102.5375
20
-48.41
42
0.4142136
0
VERTEX
8
0
10
103.0375
20
-48.91
0
VERTEX
8
0
10
116.0375
20
-48.91
42
0.4142136
0
VERTEX
8
0
10
116.5375
20
-48.41
0
VERTEX
8
0
10
116.5375
20
-35.41
42
0.4142136
0
VERTEX
8
0
10
116.0375
20
-34.91
0
VERTEX
8
0
10
103.0375
20
-34.91
42
0.4142136
0
VERTEX
8
0
10
102.5375
20
-35.41
0
SEQEND
0
POLYLINE
8
0
6
CONTINUOUS
66
1
70
1
0
VERTEX
8
0
10
178.7375
20
-48.41
42
0.4142136
0
VERTEX
8
0
10
179.2375
20
-48.91
0
VERTEX
8
0
10
192.2375
20
-48.91
42
0.4142136
0
VERTEX
8
0
10
192.7375
20
-48.41
0
VERTEX
8
0
10
192.7375
20
-35.41
42
0.4142136
0
VERTEX
8
0
10
192.2375
20
-34.91
0
VERTEX
8
0
10
179.2375
20
-34.91
42
0.4142136
0
VERTEX
8
0
10
178.7375
20
-35.41
0
SEQEND
0
POLYLINE
8
0
6
CONTINUOUS
66
1
70
1
0
VERTEX
8
0
10
200.16875
20
-49.3625
42
0.4142136
0
VERTEX
8
0
10
200.66875
20
-49.8625
0
VERTEX
8
0
10
213.66875
20
-49.8625
42
0.4142136
0
VERTEX
8
0
10
214.16875
20
-49.3625
0
VERTEX
8
0
10
214.16875
20
-36.3625
42
0.4142136
0
VERTEX
8
0
10
213.66875
20
-35.8625
0
VERTEX
8
0
10
200.66875
20
-35.8625
42
0.4142136
0
VERTEX
8
0
10
200.16875
20
-36.3625
0
SEQEND
0
POLYLINE
8
0
6
CONTINUOUS
66
1
70
1
0
VERTEX
8
0
10
83.4875
20
-62.6975
42
0.4142136
0
VERTEX
8
0
10
83.9875
20
-63.1975
0
VERTEX
8
0
10
96.9875
20
-63.1975
42
0.4142136
0
VERTEX
8
0
10
97.4875
20
-62.6975
0
VERTEX
8
0
10
97.4875
20
-49.6975
42
0.4142136
0
VERTEX
8
0
10
96.9875
20
-49.1975
0
VERTEX
8
0
10
83.9875
20
-49.1975
42
0.4142136
0
VERTEX
8
0
10
83.4875
20
-49.6975
0
SEQEND
0
POLYLINE
8
0
6
CONTINUOUS
66
1
70
1
0
VERTEX
8
0
10
140.6375
20
-63.65
42
0.4142136
0
VERTEX
8
0
10
141.1375
20
-64.15
0
VERTEX
8
0
10
154.1375
20
-64.15
42
0.4142136
0
VERTEX
8
0
10
154.6375
20
-63.65
0
VERTEX
8
0
10
154.6375
20
-50.65
42
0.4142136
0
VERTEX
8
0
10
154.1375
20
-50.15
0
VERTEX
8
0
10
141.1375
20
-50.15
42
0.4142136
0
VERTEX
8
0
10
140.6375
20
-50.65
0
SEQEND
0
POLYLINE
8
0
6
CONTINUOUS
66
1
70
1
0
VERTEX
8
0
10
121.5875
20
-65.555
42
0.4142136
0
VERTEX
8
0
10
122.0875
20
-66.055
0
VERTEX
8
0
10
135.0875
20
-66.055
42
0.4142136
0
VERTEX
8
0
10
135.5875
20
-65.555
0
VERTEX
8
0
10
135.5875
20
-52.555
42
0.4142136
0
VERTEX
8
0
10
135.0875
20
-52.055
0
VERTEX
8
0
10
122.0875
20
-52.055
42
0.4142136
0
VERTEX
8
0
10
121.5875
20
-52.555
0
SEQEND
0
POLYLINE
8
0
6
CONTINUOUS
66
1
70
1
0
VERTEX
8
0
10
159.6875
20
-65.555
42
0.4142136
0
VERTEX
8
0
10
160.1875
20
-66.055
0
VERTEX
8
0
10
173.1875
20
-66.055
42
0.4142136
0
VERTEX
8
0
10
173.6875
20
-65.555
0
VERTEX
8
0
10
173.6875
20
-52.555
42
0.4142136
0
VERTEX
8
0
10
173.1875
20
-52.055
0
VERTEX
8
0
10
160.1875
20
-52.055
42
0.4142136
0
VERTEX
8
0
10
159.6875
20
-52.555
0
SEQEND
0
POLYLINE
8
0
6
CONTINUOUS
66
1
70
1
0
VERTEX
8
0
10
102.5375
20
-67.46
42
0.4142136
0
VERTEX
8
0
10
103.0375
20
-67.96
0
VERTEX
8
0
10
116.0375
20
-67.96
42
0.4142136
0
VERTEX
8
0
10
116.5375
20
-67.46
0
VERTEX
8
0
10
116.5375
20
-54.46
42
0.4142136
0
VERTEX
8
0
10
116.0375
20
-53.96
0
VERTEX
8
0
10
103.0375
20
-53.96
42
0.4142136
0
VERTEX
8
0
10
102.5375
20
-54.46
0
SEQEND
0
POLYLINE
8
0
6
CONTINUOUS
66
1
70
1
0
VERTEX
8
0
10
178.7375
20
-67.46
42
0.4142136
0
VERTEX
8
0
10
179.2375
20
-67.96
0
VERTEX
8
0
10
192.2375
20
-67.96
42
0.4142136
0
VERTEX
8
0
10
192.7375
20
-67.46
0
VERTEX
8
0
10
192.7375
20
-54.46
42
0.4142136
0
VERTEX
8
0
10
192.2375
20
-53.96
0
VERTEX
8
0
10
179.2375
20
-53.96
42
0.4142136
0
VERTEX
8
0
10
178.7375
20
-54.46
0
SEQEND
0
POLYLINE
8
0
6
CONTINUOUS
66
1
70
1
0
VERTEX
8
0
10
200.16875
20
-68.4125
42
0.4142136
0
VERTEX
8
0
10
200.66875
20
-68.9125
0
VERTEX
8
0
10
213.66875
20
-68.9125
42
0.4142136
0
VERTEX
8
0
10
214.16875
20
-68.4125
0
VERTEX
8
0
10
214.16875
20
-55.4125
42
0.4142136
0
VERTEX
8
0
10
213.66875
20
-54.9125
0
VERTEX
8
0
10
200.66875
20
-54.9125
42
0.4142136
0
VERTEX
8
0
10
200.16875
20
-55.4125
0
SEQEND
0
POLYLINE
8
0
6
CONTINUOUS
66
1
70
1
0
VERTEX
8
0
10
106.9587092
20
-79.3629439
42
0.4142136
0
VERTEX
8
0
10
106.6051558
20
-79.9753163
0
VERTEX
8
0
10
108.1580701
20
-85.7708712
42
0.4142136
0
VERTEX
8
0
10
108.7704425
20
-86.1244247
0
VERTEX
8
0
10
122.293404
20
-82.500958
42
0.4142136
0
VERTEX
8
0
10
122.6469574
20
-81.8885856
0
VERTEX
8
0
10
121.0940431
20
-76.0930307
42
0.4142136
0
VERTEX
8
0
10
120.4816707
20
-75.7394772
0
SEQEND
0
POLYLINE
8
0
6
CONTINUOUS
66
1
70
1
0
VERTEX
8
0
10
113.1382727
20
-102.4253889
42
0.4142136
0
VERTEX
8
0
10
112.7847193
20
-103.0377613
0
VERTEX
8
0
10
114.3376336
20
-108.8333163
42
0.4142136
0
VERTEX
8
0
10
114.950006
20
-109.1868697
0
VERTEX
8
0
10
128.4729675
20
-105.563403
42
0.4142136
0
VERTEX
8
0
10
128.826521
20
-104.9510306
0
VERTEX
8
0
10
127.2736067
20
-99.1554757
42
0.4142136
0
VERTEX
8
0
10
126.6612342
20
-98.8019223
0
SEQEND
0
POLYLINE
8
0
6
CONTINUOUS
66
1
70
1
0
VERTEX
8
0
10
87.9415094
20
-81.9933359
42
0.4142136
0
VERTEX
8
0
10
87.587956
20
-82.6057083
0
VERTEX
8
0
10
89.1408703
20
-88.4012632
42
0.4142136
0
VERTEX
8
0
10
89.7532427
20
-88.7548167
0
VERTEX
8
0
10
103.2762042
20
-85.13135
42
0.4142136
0
VERTEX
8
0
10
103.6297576
20
-84.5189776
0
VERTEX
8
0
10
102.0768433
20
-78.7234227
42
0.4142136
0
VERTEX
8
0
10
101.4644709
20
-78.3698692
0
SEQEND
0
POLYLINE
8
0
6
CONTINUOUS
66
1
70
1
0
VERTEX
8
0
10
94.1210729
20
-105.0557809
42
0.4142136
0
VERTEX
8
0
10
93.7675195
20
-105.6681533
0
VERTEX
8
0
10
95.3204338
20
-111.4637083
42
0.4142136
0
VERTEX
8
0
10
95.9328062
20
-111.8172617
0
VERTEX
8
0
10
109.4557677
20
-108.193795
42
0.4142136
0
VERTEX
8
0
10
109.8093212
20
-107.5814226
0
VERTEX
8
0
10
108.2564069
20
-101.7858677
42
0.4142136
0
VERTEX
8
0
10
107.6440344
20
-101.4323143
0
SEQEND
0
POLYLINE
8
OUTLINE
66
1
70
1
0
VERTEX
8
OUTLINE
10
79.9625
20
-66.7225
30
0
0
VERTEX
8
OUTLINE
10
99.0125
20
-66.7225
30
0
0
VERTEX
8
OUTLINE
10
99.0125
20
-71.485
30
0
0
VERTEX
8
OUTLINE
10
100.13932
20
-71.485
30
0
0
VERTEX
8
OUTLINE
10
84.17553
20
-75.76249
30
0
0
VERTEX
8
OUTLINE
10
95.7868
20
-119.09633
30
0
0
VERTEX
8
OUTLINE
10
116.11953
20
-113.64819
30
0
0
VERTEX
8
OUTLINE
10
134.52042
20
-108.71768
30
0
0
VERTEX
8
OUTLINE
10
124.14178
20
-69.98406
30
0
0
VERTEX
8
OUTLINE
10
120.0625
20
-71.0771
30
0
0
VERTEX
8
OUTLINE
10
120.0625
20
-69.58
30
0
0
VERTEX
8
OUTLINE
10
139.1125
20
-69.58
30
0
0
VERTEX
8
OUTLINE
10
139.1125
20
-67.675
30
0
0
VERTEX
8
OUTLINE
10
156.1625
20
-67.675
30
0
0
VERTEX
8
OUTLINE
10
156.1625
20
-69.58
30
0
0
VERTEX
8
OUTLINE
10
175.2125
20
-69.58
30
0
0
VERTEX
8
OUTLINE
10
175.2125
20
-71.485
30
0
0
VERTEX
8
OUTLINE
10
194.2625
20
-71.485
30
0
0
VERTEX
8
OUTLINE
10
194.2625
20
-72.4375
30
0
0
VERTEX
8
OUTLINE
10
220.075
20
-72.4375
30
0
0
VERTEX
8
OUTLINE
10
220.075
20
-13.2875
30
0
0
VERTEX
8
OUTLINE
10
215.3125
20
-13.2875
30
0
0
VERTEX
8
OUTLINE
10
215.3125
20
5.7625
30
0
0
VERTEX
8
OUTLINE
10
196.2625
20
5.7625
30
0
0
VERTEX
8
OUTLINE
10
196.2625
20
6.715
30
0
0
VERTEX
8
OUTLINE
10
177.2125
20
6.715
30
0
0
VERTEX
8
OUTLINE
10
177.2125
20
8.62
30
0
0
VERTEX
8
OUTLINE
10
158.1625
20
8.62
30
0
0
VERTEX
8
OUTLINE
10
158.1625
20
10.525
30
0
0
VERTEX
8
OUTLINE
10
137.1125
20
10.525
30
0
0
VERTEX
8
OUTLINE
10
137.1125
20
8.62
30
0
0
VERTEX
8
OUTLINE
10
118.0625
20
8.62
30
0
0
VERTEX
8
OUTLINE
10
118.0625
20
6.715
30
0
0
VERTEX
8
OUTLINE
10
99.0125
20
6.715
30
0
0
VERTEX
8
OUTLINE
10
99.0125
20
-27.575
30
0
0
VERTEX
8
OUTLINE
10
79.9625
20
-27.575
30
0
0
VERTEX
8
OUTLINE
10
79.9625
20
-66.7225
30
0
0
VERTEX
8
OUTLINE
10
79.9625
20
-66.7225
30
0
0
SEQEND
8
OUTLINE
0
ENDSEC
0
EOF
