%TF.GenerationSoftware,KiCad,Pcbnew,10.0.5*%
%TF.CreationDate,2026-09-23T03:24:45+09:00*%
%TF.ProjectId,keyboard,6b657962-6f61-4726-942e-6b696361645f,rev?*%
%TF.SameCoordinates,Original*%
%TF.FileFunction,Other,User*%
%FSLAX46Y46*%
G04 Gerber Fmt 4.6, Leading zero omitted, Abs format (unit mm)*
G04 Created by KiCad (PCBNEW 10.0.5) date 2026-09-23 03:24:45*
%MOMM*%
%LPD*%
G01*
G04 APERTURE LIST*
%ADD10C,0.050000*%
%ADD11C,0.120000*%
G04 APERTURE END LIST*
D10*
%TO.C,SW39*%
X171625000Y-61392500D02*
X174625000Y-61392500D01*
X174625000Y-58672500D01*
X189025000Y-58672500D01*
X189025000Y-62352500D01*
X186075000Y-62352500D01*
X186075000Y-65122500D01*
X171625000Y-65122500D01*
X171625000Y-61392500D01*
%TO.C,SW22*%
X266875000Y-28055000D02*
X269875000Y-28055000D01*
X269875000Y-25335000D01*
X284275000Y-25335000D01*
X284275000Y-29015000D01*
X281325000Y-29015000D01*
X281325000Y-31785000D01*
X266875000Y-31785000D01*
X266875000Y-28055000D01*
%TO.C,SW5*%
X209725000Y-7100000D02*
X212725000Y-7100000D01*
X212725000Y-4380000D01*
X227125000Y-4380000D01*
X227125000Y-8060000D01*
X224175000Y-8060000D01*
X224175000Y-10830000D01*
X209725000Y-10830000D01*
X209725000Y-7100000D01*
%TO.C,SW38*%
X288306300Y-48057500D02*
X291306300Y-48057500D01*
X291306300Y-45337500D01*
X305706300Y-45337500D01*
X305706300Y-49017500D01*
X302756300Y-49017500D01*
X302756300Y-51787500D01*
X288306300Y-51787500D01*
X288306300Y-48057500D01*
%TO.C,SW32*%
X247825000Y-45200000D02*
X250825000Y-45200000D01*
X250825000Y-42480000D01*
X265225000Y-42480000D01*
X265225000Y-46160000D01*
X262275000Y-46160000D01*
X262275000Y-48930000D01*
X247825000Y-48930000D01*
X247825000Y-45200000D01*
%TO.C,SW2*%
X228775000Y-5195000D02*
X231775000Y-5195000D01*
X231775000Y-2475000D01*
X246175000Y-2475000D01*
X246175000Y-6155000D01*
X243225000Y-6155000D01*
X243225000Y-8925000D01*
X228775000Y-8925000D01*
X228775000Y-5195000D01*
%TO.C,SW45*%
X209725000Y-64250000D02*
X212725000Y-64250000D01*
X212725000Y-61530000D01*
X227125000Y-61530000D01*
X227125000Y-65210000D01*
X224175000Y-65210000D01*
X224175000Y-67980000D01*
X209725000Y-67980000D01*
X209725000Y-64250000D01*
%TO.C,SW17*%
X209725000Y-26150000D02*
X212725000Y-26150000D01*
X212725000Y-23430000D01*
X227125000Y-23430000D01*
X227125000Y-27110000D01*
X224175000Y-27110000D01*
X224175000Y-29880000D01*
X209725000Y-29880000D01*
X209725000Y-26150000D01*
%TO.C,SW14*%
X228775000Y-24245000D02*
X231775000Y-24245000D01*
X231775000Y-21525000D01*
X246175000Y-21525000D01*
X246175000Y-25205000D01*
X243225000Y-25205000D01*
X243225000Y-27975000D01*
X228775000Y-27975000D01*
X228775000Y-24245000D01*
%TO.C,SW46*%
X247825000Y-64250000D02*
X250825000Y-64250000D01*
X250825000Y-61530000D01*
X265225000Y-61530000D01*
X265225000Y-65210000D01*
X262275000Y-65210000D01*
X262275000Y-67980000D01*
X247825000Y-67980000D01*
X247825000Y-64250000D01*
%TO.C,SW18*%
X247825000Y-26150000D02*
X250825000Y-26150000D01*
X250825000Y-23430000D01*
X265225000Y-23430000D01*
X265225000Y-27110000D01*
X262275000Y-27110000D01*
X262275000Y-29880000D01*
X247825000Y-29880000D01*
X247825000Y-26150000D01*
%TO.C,SW57*%
X192397501Y-94078207D02*
X193173958Y-96975985D01*
X195801276Y-96271997D01*
X199528270Y-110181329D01*
X195973663Y-111133783D01*
X195210147Y-108284302D01*
X192534533Y-109001230D01*
X188794597Y-95043602D01*
X192397501Y-94078207D01*
%TO.C,SW49*%
X190675000Y-66155000D02*
X193675000Y-66155000D01*
X193675000Y-63435000D01*
X208075000Y-63435000D01*
X208075000Y-67115000D01*
X205125000Y-67115000D01*
X205125000Y-69885000D01*
X190675000Y-69885000D01*
X190675000Y-66155000D01*
%TO.C,SW10*%
X266875000Y-9005000D02*
X269875000Y-9005000D01*
X269875000Y-6285000D01*
X284275000Y-6285000D01*
X284275000Y-9965000D01*
X281325000Y-9965000D01*
X281325000Y-12735000D01*
X266875000Y-12735000D01*
X266875000Y-9005000D01*
%TO.C,SW12*%
X285925000Y-9957500D02*
X288925000Y-9957500D01*
X288925000Y-7237500D01*
X303325000Y-7237500D01*
X303325000Y-10917500D01*
X300375000Y-10917500D01*
X300375000Y-13687500D01*
X285925000Y-13687500D01*
X285925000Y-9957500D01*
%TO.C,SW42*%
X228775000Y-62345000D02*
X231775000Y-62345000D01*
X231775000Y-59625000D01*
X246175000Y-59625000D01*
X246175000Y-63305000D01*
X243225000Y-63305000D01*
X243225000Y-66075000D01*
X228775000Y-66075000D01*
X228775000Y-62345000D01*
%TO.C,SW36*%
X266875000Y-47105000D02*
X269875000Y-47105000D01*
X269875000Y-44385000D01*
X284275000Y-44385000D01*
X284275000Y-48065000D01*
X281325000Y-48065000D01*
X281325000Y-50835000D01*
X266875000Y-50835000D01*
X266875000Y-47105000D01*
%TO.C,SW52*%
X288306300Y-67107500D02*
X291306300Y-67107500D01*
X291306300Y-64387500D01*
X305706300Y-64387500D01*
X305706300Y-68067500D01*
X302756300Y-68067500D01*
X302756300Y-70837500D01*
X288306300Y-70837500D01*
X288306300Y-67107500D01*
%TO.C,SW27*%
X171625000Y-43295000D02*
X174625000Y-43295000D01*
X174625000Y-40575000D01*
X189025000Y-40575000D01*
X189025000Y-44255000D01*
X186075000Y-44255000D01*
X186075000Y-47025000D01*
X171625000Y-47025000D01*
X171625000Y-43295000D01*
%TO.C,SW6*%
X247825000Y-7100000D02*
X250825000Y-7100000D01*
X250825000Y-4380000D01*
X265225000Y-4380000D01*
X265225000Y-8060000D01*
X262275000Y-8060000D01*
X262275000Y-10830000D01*
X247825000Y-10830000D01*
X247825000Y-7100000D01*
%TO.C,SW31*%
X209725000Y-45200000D02*
X212725000Y-45200000D01*
X212725000Y-42480000D01*
X227125000Y-42480000D01*
X227125000Y-46160000D01*
X224175000Y-46160000D01*
X224175000Y-48930000D01*
X209725000Y-48930000D01*
X209725000Y-45200000D01*
%TO.C,SW35*%
X190675000Y-47105000D02*
X193675000Y-47105000D01*
X193675000Y-44385000D01*
X208075000Y-44385000D01*
X208075000Y-48065000D01*
X205125000Y-48065000D01*
X205125000Y-50835000D01*
X190675000Y-50835000D01*
X190675000Y-47105000D01*
%TO.C,SW28*%
X228775000Y-43295000D02*
X231775000Y-43295000D01*
X231775000Y-40575000D01*
X246175000Y-40575000D01*
X246175000Y-44255000D01*
X243225000Y-44255000D01*
X243225000Y-47025000D01*
X228775000Y-47025000D01*
X228775000Y-43295000D01*
%TO.C,SW9*%
X190675000Y-9005000D02*
X193675000Y-9005000D01*
X193675000Y-6285000D01*
X208075000Y-6285000D01*
X208075000Y-9965000D01*
X205125000Y-9965000D01*
X205125000Y-12735000D01*
X190675000Y-12735000D01*
X190675000Y-9005000D01*
%TO.C,SW24*%
X288306300Y-29007500D02*
X291306300Y-29007500D01*
X291306300Y-26287500D01*
X305706300Y-26287500D01*
X305706300Y-29967500D01*
X302756300Y-29967500D01*
X302756300Y-32737500D01*
X288306300Y-32737500D01*
X288306300Y-29007500D01*
%TO.C,SW21*%
X190675000Y-28055000D02*
X193675000Y-28055000D01*
X193675000Y-25335000D01*
X208075000Y-25335000D01*
X208075000Y-29015000D01*
X205125000Y-29015000D01*
X205125000Y-31785000D01*
X190675000Y-31785000D01*
X190675000Y-28055000D01*
%TO.C,SW56*%
X211414701Y-91447807D02*
X212191158Y-94345585D01*
X214818476Y-93641597D01*
X218545470Y-107550929D01*
X214990863Y-108503383D01*
X214227347Y-105653902D01*
X211551733Y-106370830D01*
X207811797Y-92413202D01*
X211414701Y-91447807D01*
%TO.C,SW50*%
X266875000Y-66155000D02*
X269875000Y-66155000D01*
X269875000Y-63435000D01*
X284275000Y-63435000D01*
X284275000Y-67115000D01*
X281325000Y-67115000D01*
X281325000Y-69885000D01*
X266875000Y-69885000D01*
X266875000Y-66155000D01*
%TO.C,D17*%
X223725000Y-32330000D02*
X223725000Y-34630000D01*
X223725000Y-34630000D02*
X228425000Y-34630000D01*
X228425000Y-32330000D02*
X223725000Y-32330000D01*
X228425000Y-32330000D02*
X228425000Y-34630000D01*
%TO.C,C_RGB50*%
X268925000Y-74285000D02*
X270525000Y-74285000D01*
X270525000Y-77185000D01*
X268925000Y-77185000D01*
X268925000Y-74285000D01*
%TO.C,LED18*%
D11*
X253675000Y-34230000D02*
X253675000Y-37230000D01*
X253675000Y-37230000D02*
X260675000Y-37230000D01*
X260675000Y-34230000D02*
X253675000Y-34230000D01*
X260675000Y-37230000D02*
X260675000Y-34230000D01*
%TO.C,D57*%
D10*
X187829961Y-109796016D02*
X189046410Y-114335868D01*
X190051590Y-109200732D02*
X187829961Y-109796016D01*
X191268039Y-113740584D02*
X189046410Y-114335868D01*
X191268039Y-113740584D02*
X190051590Y-109200732D01*
%TO.C,LED50*%
D11*
X272725000Y-74235000D02*
X272725000Y-77235000D01*
X272725000Y-77235000D02*
X279725000Y-77235000D01*
X279725000Y-74235000D02*
X272725000Y-74235000D01*
X279725000Y-77235000D02*
X279725000Y-74235000D01*
%TO.C,LED24*%
X294156300Y-37087500D02*
X294156300Y-40087500D01*
X294156300Y-40087500D02*
X301156300Y-40087500D01*
X301156300Y-37087500D02*
X294156300Y-37087500D01*
X301156300Y-40087500D02*
X301156300Y-37087500D01*
%TO.C,LED5*%
X215575000Y-15180000D02*
X215575000Y-18180000D01*
X215575000Y-18180000D02*
X222575000Y-18180000D01*
X222575000Y-15180000D02*
X215575000Y-15180000D01*
X222575000Y-18180000D02*
X222575000Y-15180000D01*
%TO.C,D22*%
D10*
X280875000Y-34235000D02*
X280875000Y-36535000D01*
X280875000Y-36535000D02*
X285575000Y-36535000D01*
X285575000Y-34235000D02*
X280875000Y-34235000D01*
X285575000Y-34235000D02*
X285575000Y-36535000D01*
%TO.C,D5*%
X223725000Y-13280000D02*
X223725000Y-15580000D01*
X223725000Y-15580000D02*
X228425000Y-15580000D01*
X228425000Y-13280000D02*
X223725000Y-13280000D01*
X228425000Y-13280000D02*
X228425000Y-15580000D01*
%TO.C,LED42*%
D11*
X234625000Y-70425000D02*
X234625000Y-73425000D01*
X234625000Y-73425000D02*
X241625000Y-73425000D01*
X241625000Y-70425000D02*
X234625000Y-70425000D01*
X241625000Y-73425000D02*
X241625000Y-70425000D01*
%TO.C,D49*%
D10*
X204675000Y-72335000D02*
X204675000Y-74635000D01*
X204675000Y-74635000D02*
X209375000Y-74635000D01*
X209375000Y-72335000D02*
X204675000Y-72335000D01*
X209375000Y-72335000D02*
X209375000Y-74635000D01*
%TO.C,C_RGB2*%
X230825000Y-13325000D02*
X232425000Y-13325000D01*
X232425000Y-16225000D01*
X230825000Y-16225000D01*
X230825000Y-13325000D01*
%TO.C,D50*%
X280875000Y-72335000D02*
X280875000Y-74635000D01*
X280875000Y-74635000D02*
X285575000Y-74635000D01*
X285575000Y-72335000D02*
X280875000Y-72335000D01*
X285575000Y-72335000D02*
X285575000Y-74635000D01*
%TO.C,D12*%
X299925000Y-16137500D02*
X299925000Y-18437500D01*
X299925000Y-18437500D02*
X304625000Y-18437500D01*
X304625000Y-16137500D02*
X299925000Y-16137500D01*
X304625000Y-16137500D02*
X304625000Y-18437500D01*
%TO.C,D32*%
X261825000Y-51380000D02*
X261825000Y-53680000D01*
X261825000Y-53680000D02*
X266525000Y-53680000D01*
X266525000Y-51380000D02*
X261825000Y-51380000D01*
X266525000Y-51380000D02*
X266525000Y-53680000D01*
%TO.C,C_RGB5*%
X211775000Y-15230000D02*
X213375000Y-15230000D01*
X213375000Y-18130000D01*
X211775000Y-18130000D01*
X211775000Y-15230000D01*
%TO.C,C_RGB27*%
X173675000Y-51425000D02*
X175275000Y-51425000D01*
X175275000Y-54325000D01*
X173675000Y-54325000D01*
X173675000Y-51425000D01*
%TO.C,C_RGB22*%
X268925000Y-36185000D02*
X270525000Y-36185000D01*
X270525000Y-39085000D01*
X268925000Y-39085000D01*
X268925000Y-36185000D01*
%TO.C,C_RGB9*%
X192725000Y-17135000D02*
X194325000Y-17135000D01*
X194325000Y-20035000D01*
X192725000Y-20035000D01*
X192725000Y-17135000D01*
%TO.C,LED57*%
D11*
X183209145Y-102596588D02*
X185020878Y-109358069D01*
X185020878Y-109358069D02*
X187918655Y-108581612D01*
X186106922Y-101820131D02*
X183209145Y-102596588D01*
X187918655Y-108581612D02*
X186106922Y-101820131D01*
%TO.C,C_RGB6*%
D10*
X249875000Y-15230000D02*
X251475000Y-15230000D01*
X251475000Y-18130000D01*
X249875000Y-18130000D01*
X249875000Y-15230000D01*
%TO.C,C_RGB49*%
X192725000Y-74285000D02*
X194325000Y-74285000D01*
X194325000Y-77185000D01*
X192725000Y-77185000D01*
X192725000Y-74285000D01*
%TO.C,D46*%
X261825000Y-70430000D02*
X261825000Y-72730000D01*
X261825000Y-72730000D02*
X266525000Y-72730000D01*
X266525000Y-70430000D02*
X261825000Y-70430000D01*
X266525000Y-70430000D02*
X266525000Y-72730000D01*
%TO.C,C_RGB42*%
X230825000Y-74250000D02*
X232425000Y-74250000D01*
X232425000Y-77150000D01*
X230825000Y-77150000D01*
X230825000Y-74250000D01*
%TO.C,LED38*%
D11*
X294156300Y-56137500D02*
X294156300Y-59137500D01*
X294156300Y-59137500D02*
X301156300Y-59137500D01*
X301156300Y-56137500D02*
X294156300Y-56137500D01*
X301156300Y-59137500D02*
X301156300Y-56137500D01*
%TO.C,C_RGB21*%
D10*
X192725000Y-36185000D02*
X194325000Y-36185000D01*
X194325000Y-39085000D01*
X192725000Y-39085000D01*
X192725000Y-36185000D01*
%TO.C,LED28*%
D11*
X234625000Y-51375000D02*
X234625000Y-54375000D01*
X234625000Y-54375000D02*
X241625000Y-54375000D01*
X241625000Y-51375000D02*
X234625000Y-51375000D01*
X241625000Y-54375000D02*
X241625000Y-51375000D01*
%TO.C,C_RGB36*%
D10*
X268925000Y-55235000D02*
X270525000Y-55235000D01*
X270525000Y-58135000D01*
X268925000Y-58135000D01*
X268925000Y-55235000D01*
%TO.C,C_RGB46*%
X249875000Y-72380000D02*
X251475000Y-72380000D01*
X251475000Y-75280000D01*
X249875000Y-75280000D01*
X249875000Y-72380000D01*
%TO.C,C_RGB17*%
X211775000Y-34280000D02*
X213375000Y-34280000D01*
X213375000Y-37180000D01*
X211775000Y-37180000D01*
X211775000Y-34280000D01*
%TO.C,LED14*%
D11*
X234625000Y-32325000D02*
X234625000Y-35325000D01*
X234625000Y-35325000D02*
X241625000Y-35325000D01*
X241625000Y-32325000D02*
X234625000Y-32325000D01*
X241625000Y-35325000D02*
X241625000Y-32325000D01*
%TO.C,LED2*%
X234625000Y-13275000D02*
X234625000Y-16275000D01*
X234625000Y-16275000D02*
X241625000Y-16275000D01*
X241625000Y-13275000D02*
X234625000Y-13275000D01*
X241625000Y-16275000D02*
X241625000Y-13275000D01*
%TO.C,C_RGB10*%
D10*
X268925000Y-17135000D02*
X270525000Y-17135000D01*
X270525000Y-20035000D01*
X268925000Y-20035000D01*
X268925000Y-17135000D01*
%TO.C,C_RGB24*%
X290356300Y-37137500D02*
X291956300Y-37137500D01*
X291956300Y-40037500D01*
X290356300Y-40037500D01*
X290356300Y-37137500D01*
%TO.C,D27*%
X185625000Y-49475000D02*
X185625000Y-51775000D01*
X185625000Y-51775000D02*
X190325000Y-51775000D01*
X190325000Y-49475000D02*
X185625000Y-49475000D01*
X190325000Y-49475000D02*
X190325000Y-51775000D01*
%TO.C,LED39*%
D11*
X177475000Y-69472500D02*
X177475000Y-72472500D01*
X177475000Y-72472500D02*
X184475000Y-72472500D01*
X184475000Y-69472500D02*
X177475000Y-69472500D01*
X184475000Y-72472500D02*
X184475000Y-69472500D01*
%TO.C,LED45*%
X215575000Y-72330000D02*
X215575000Y-75330000D01*
X215575000Y-75330000D02*
X222575000Y-75330000D01*
X222575000Y-72330000D02*
X215575000Y-72330000D01*
X222575000Y-75330000D02*
X222575000Y-72330000D01*
%TO.C,D36*%
D10*
X280875000Y-53285000D02*
X280875000Y-55585000D01*
X280875000Y-55585000D02*
X285575000Y-55585000D01*
X285575000Y-53285000D02*
X280875000Y-53285000D01*
X285575000Y-53285000D02*
X285575000Y-55585000D01*
%TO.C,D10*%
X280875000Y-15185000D02*
X280875000Y-17485000D01*
X280875000Y-17485000D02*
X285575000Y-17485000D01*
X285575000Y-15185000D02*
X280875000Y-15185000D01*
X285575000Y-15185000D02*
X285575000Y-17485000D01*
%TO.C,LED6*%
D11*
X253675000Y-15180000D02*
X253675000Y-18180000D01*
X253675000Y-18180000D02*
X260675000Y-18180000D01*
X260675000Y-15180000D02*
X253675000Y-15180000D01*
X260675000Y-18180000D02*
X260675000Y-15180000D01*
%TO.C,D2*%
D10*
X242775000Y-11375000D02*
X242775000Y-13675000D01*
X242775000Y-13675000D02*
X247475000Y-13675000D01*
X247475000Y-11375000D02*
X242775000Y-11375000D01*
X247475000Y-11375000D02*
X247475000Y-13675000D01*
%TO.C,C_RGB18*%
X249875000Y-34280000D02*
X251475000Y-34280000D01*
X251475000Y-37180000D01*
X249875000Y-37180000D01*
X249875000Y-34280000D01*
%TO.C,D28*%
X242775000Y-49475000D02*
X242775000Y-51775000D01*
X242775000Y-51775000D02*
X247475000Y-51775000D01*
X247475000Y-49475000D02*
X242775000Y-49475000D01*
X247475000Y-49475000D02*
X247475000Y-51775000D01*
%TO.C,D56*%
X206847161Y-107165616D02*
X208063610Y-111705468D01*
X209068790Y-106570332D02*
X206847161Y-107165616D01*
X210285239Y-111110184D02*
X208063610Y-111705468D01*
X210285239Y-111110184D02*
X209068790Y-106570332D01*
%TO.C,LED32*%
D11*
X253675000Y-53280000D02*
X253675000Y-56280000D01*
X253675000Y-56280000D02*
X260675000Y-56280000D01*
X260675000Y-53280000D02*
X253675000Y-53280000D01*
X260675000Y-56280000D02*
X260675000Y-53280000D01*
%TO.C,LED56*%
X202226345Y-99966188D02*
X204038078Y-106727669D01*
X204038078Y-106727669D02*
X206935855Y-105951212D01*
X205124122Y-99189731D02*
X202226345Y-99966188D01*
X206935855Y-105951212D02*
X205124122Y-99189731D01*
%TO.C,C_RGB28*%
D10*
X230825000Y-51425000D02*
X232425000Y-51425000D01*
X232425000Y-54325000D01*
X230825000Y-54325000D01*
X230825000Y-51425000D01*
%TO.C,LED35*%
D11*
X196525000Y-55185000D02*
X196525000Y-58185000D01*
X196525000Y-58185000D02*
X203525000Y-58185000D01*
X203525000Y-55185000D02*
X196525000Y-55185000D01*
X203525000Y-58185000D02*
X203525000Y-55185000D01*
%TO.C,LED31*%
X215575000Y-53280000D02*
X215575000Y-56280000D01*
X215575000Y-56280000D02*
X222575000Y-56280000D01*
X222575000Y-53280000D02*
X215575000Y-53280000D01*
X222575000Y-56280000D02*
X222575000Y-53280000D01*
%TO.C,LED21*%
X196525000Y-36135000D02*
X196525000Y-39135000D01*
X196525000Y-39135000D02*
X203525000Y-39135000D01*
X203525000Y-36135000D02*
X196525000Y-36135000D01*
X203525000Y-39135000D02*
X203525000Y-36135000D01*
%TO.C,LED12*%
X291775000Y-18037500D02*
X291775000Y-21037500D01*
X291775000Y-21037500D02*
X298775000Y-21037500D01*
X298775000Y-18037500D02*
X291775000Y-18037500D01*
X298775000Y-21037500D02*
X298775000Y-18037500D01*
%TO.C,LED49*%
X196525000Y-74235000D02*
X196525000Y-77235000D01*
X196525000Y-77235000D02*
X203525000Y-77235000D01*
X203525000Y-74235000D02*
X196525000Y-74235000D01*
X203525000Y-77235000D02*
X203525000Y-74235000D01*
%TO.C,D52*%
D10*
X302306300Y-73287500D02*
X302306300Y-75587500D01*
X302306300Y-75587500D02*
X307006300Y-75587500D01*
X307006300Y-73287500D02*
X302306300Y-73287500D01*
X307006300Y-73287500D02*
X307006300Y-75587500D01*
%TO.C,D6*%
X261825000Y-13280000D02*
X261825000Y-15580000D01*
X261825000Y-15580000D02*
X266525000Y-15580000D01*
X266525000Y-13280000D02*
X261825000Y-13280000D01*
X266525000Y-13280000D02*
X266525000Y-15580000D01*
%TO.C,C_RGB56*%
X201291152Y-96282747D02*
X204092337Y-95532172D01*
X204506448Y-97077653D01*
X201705263Y-97828228D01*
X201291152Y-96282747D01*
%TO.C,D18*%
X261825000Y-32330000D02*
X261825000Y-34630000D01*
X261825000Y-34630000D02*
X266525000Y-34630000D01*
X266525000Y-32330000D02*
X261825000Y-32330000D01*
X266525000Y-32330000D02*
X266525000Y-34630000D01*
%TO.C,D21*%
X204675000Y-34235000D02*
X204675000Y-36535000D01*
X204675000Y-36535000D02*
X209375000Y-36535000D01*
X209375000Y-34235000D02*
X204675000Y-34235000D01*
X209375000Y-34235000D02*
X209375000Y-36535000D01*
%TO.C,D45*%
X223725000Y-70430000D02*
X223725000Y-72730000D01*
X223725000Y-72730000D02*
X228425000Y-72730000D01*
X228425000Y-70430000D02*
X223725000Y-70430000D01*
X228425000Y-70430000D02*
X228425000Y-72730000D01*
%TO.C,C_RGB32*%
X249875000Y-53330000D02*
X251475000Y-53330000D01*
X251475000Y-56230000D01*
X249875000Y-56230000D01*
X249875000Y-53330000D01*
%TO.C,D9*%
X204675000Y-15185000D02*
X204675000Y-17485000D01*
X204675000Y-17485000D02*
X209375000Y-17485000D01*
X209375000Y-15185000D02*
X204675000Y-15185000D01*
X209375000Y-15185000D02*
X209375000Y-17485000D01*
%TO.C,LED36*%
D11*
X272725000Y-55185000D02*
X272725000Y-58185000D01*
X272725000Y-58185000D02*
X279725000Y-58185000D01*
X279725000Y-55185000D02*
X272725000Y-55185000D01*
X279725000Y-58185000D02*
X279725000Y-55185000D01*
%TO.C,LED10*%
X272725000Y-17085000D02*
X272725000Y-20085000D01*
X272725000Y-20085000D02*
X279725000Y-20085000D01*
X279725000Y-17085000D02*
X272725000Y-17085000D01*
X279725000Y-20085000D02*
X279725000Y-17085000D01*
%TO.C,LED27*%
X177475000Y-51375000D02*
X177475000Y-54375000D01*
X177475000Y-54375000D02*
X184475000Y-54375000D01*
X184475000Y-51375000D02*
X177475000Y-51375000D01*
X184475000Y-54375000D02*
X184475000Y-51375000D01*
%TO.C,C_RGB35*%
D10*
X192725000Y-55235000D02*
X194325000Y-55235000D01*
X194325000Y-58135000D01*
X192725000Y-58135000D01*
X192725000Y-55235000D01*
%TO.C,C_RGB14*%
X230825000Y-32375000D02*
X232425000Y-32375000D01*
X232425000Y-35275000D01*
X230825000Y-35275000D01*
X230825000Y-32375000D01*
%TO.C,LED52*%
D11*
X294156300Y-75187500D02*
X294156300Y-78187500D01*
X294156300Y-78187500D02*
X301156300Y-78187500D01*
X301156300Y-75187500D02*
X294156300Y-75187500D01*
X301156300Y-78187500D02*
X301156300Y-75187500D01*
%TO.C,LED17*%
X215575000Y-34230000D02*
X215575000Y-37230000D01*
X215575000Y-37230000D02*
X222575000Y-37230000D01*
X222575000Y-34230000D02*
X215575000Y-34230000D01*
X222575000Y-37230000D02*
X222575000Y-34230000D01*
%TO.C,C_RGB12*%
D10*
X287975000Y-18087500D02*
X289575000Y-18087500D01*
X289575000Y-20987500D01*
X287975000Y-20987500D01*
X287975000Y-18087500D01*
%TO.C,D42*%
X242775000Y-68525000D02*
X242775000Y-70825000D01*
X242775000Y-70825000D02*
X247475000Y-70825000D01*
X247475000Y-68525000D02*
X242775000Y-68525000D01*
X247475000Y-68525000D02*
X247475000Y-70825000D01*
%TO.C,C_RGB38*%
X290356300Y-56187500D02*
X291956300Y-56187500D01*
X291956300Y-59087500D01*
X290356300Y-59087500D01*
X290356300Y-56187500D01*
%TO.C,LED22*%
D11*
X272725000Y-36135000D02*
X272725000Y-39135000D01*
X272725000Y-39135000D02*
X279725000Y-39135000D01*
X279725000Y-36135000D02*
X272725000Y-36135000D01*
X279725000Y-39135000D02*
X279725000Y-36135000D01*
%TO.C,D38*%
D10*
X302306300Y-54237500D02*
X302306300Y-56537500D01*
X302306300Y-56537500D02*
X307006300Y-56537500D01*
X307006300Y-54237500D02*
X302306300Y-54237500D01*
X307006300Y-54237500D02*
X307006300Y-56537500D01*
%TO.C,D35*%
X204675000Y-53285000D02*
X204675000Y-55585000D01*
X204675000Y-55585000D02*
X209375000Y-55585000D01*
X209375000Y-53285000D02*
X204675000Y-53285000D01*
X209375000Y-53285000D02*
X209375000Y-55585000D01*
%TO.C,D31*%
X223725000Y-51380000D02*
X223725000Y-53680000D01*
X223725000Y-53680000D02*
X228425000Y-53680000D01*
X228425000Y-51380000D02*
X223725000Y-51380000D01*
X228425000Y-51380000D02*
X228425000Y-53680000D01*
%TO.C,LED46*%
D11*
X253675000Y-72330000D02*
X253675000Y-75330000D01*
X253675000Y-75330000D02*
X260675000Y-75330000D01*
X260675000Y-72330000D02*
X253675000Y-72330000D01*
X260675000Y-75330000D02*
X260675000Y-72330000D01*
%TO.C,D14*%
D10*
X242775000Y-30425000D02*
X242775000Y-32725000D01*
X242775000Y-32725000D02*
X247475000Y-32725000D01*
X247475000Y-30425000D02*
X242775000Y-30425000D01*
X247475000Y-30425000D02*
X247475000Y-32725000D01*
%TO.C,C_RGB52*%
X290356300Y-75237500D02*
X291956300Y-75237500D01*
X291956300Y-78137500D01*
X290356300Y-78137500D01*
X290356300Y-75237500D01*
%TO.C,C_RGB57*%
X182273952Y-98913147D02*
X185075137Y-98162572D01*
X185489248Y-99708053D01*
X182688063Y-100458628D01*
X182273952Y-98913147D01*
%TO.C,C_RGB31*%
X211775000Y-53330000D02*
X213375000Y-53330000D01*
X213375000Y-56230000D01*
X211775000Y-56230000D01*
X211775000Y-53330000D01*
%TO.C,J2*%
X177350000Y-24650000D02*
X184250000Y-24650000D01*
X184250000Y-33250000D01*
X177350000Y-33250000D01*
X177350000Y-24650000D01*
%TO.C,D39*%
X185625000Y-67572500D02*
X185625000Y-69872500D01*
X185625000Y-69872500D02*
X190325000Y-69872500D01*
X190325000Y-67572500D02*
X185625000Y-67572500D01*
X190325000Y-67572500D02*
X190325000Y-69872500D01*
%TO.C,C_RGB39*%
X173675000Y-69522500D02*
X175275000Y-69522500D01*
X175275000Y-72422500D01*
X173675000Y-72422500D01*
X173675000Y-69522500D01*
%TO.C,C_RGB45*%
X211775000Y-72380000D02*
X213375000Y-72380000D01*
X213375000Y-75280000D01*
X211775000Y-75280000D01*
X211775000Y-72380000D01*
%TO.C,LED9*%
D11*
X196525000Y-17085000D02*
X196525000Y-20085000D01*
X196525000Y-20085000D02*
X203525000Y-20085000D01*
X203525000Y-17085000D02*
X196525000Y-17085000D01*
X203525000Y-20085000D02*
X203525000Y-17085000D01*
%TO.C,D24*%
D10*
X302306300Y-35187500D02*
X302306300Y-37487500D01*
X302306300Y-37487500D02*
X307006300Y-37487500D01*
X307006300Y-35187500D02*
X302306300Y-35187500D01*
X307006300Y-35187500D02*
X307006300Y-37487500D01*
%TD*%
M02*
