0
SECTION
2
ENTITIES
0
POLYLINE
8
0
6
CONTINUOUS
66
1
70
1
0
VERTEX
8
0
10
-8.0902512
20
5.079157
42
0.4142136
0
VERTEX
8
0
10
-8.4438046
20
4.4667846
0
VERTEX
8
0
10
-5.079157
20
-8.0902512
42
0.4142136
0
VERTEX
8
0
10
-4.4667846
20
-8.4438046
0
VERTEX
8
0
10
8.0902512
20
-5.079157
42
0.4142136
0
VERTEX
8
0
10
8.4438046
20
-4.4667846
0
VERTEX
8
0
10
5.079157
20
8.0902512
42
0.4142136
0
VERTEX
8
0
10
4.4667846
20
8.4438046
0
SEQEND
0
POLYLINE
8
0
6
CONTINUOUS
66
1
70
1
0
VERTEX
8
0
10
-27.107451
20
2.4487651
42
0.4142136
0
VERTEX
8
0
10
-27.4610044
20
1.8363927
0
VERTEX
8
0
10
-24.0963568
20
-10.7206431
42
0.4142136
0
VERTEX
8
0
10
-23.4839844
20
-11.0741965
0
VERTEX
8
0
10
-10.9269486
20
-7.7095489
42
0.4142136
0
VERTEX
8
0
10
-10.5733952
20
-7.0971765
0
VERTEX
8
0
10
-13.9380428
20
5.4598593
42
0.4142136
0
VERTEX
8
0
10
-14.5504152
20
5.8134127
0
SEQEND
0
POLYLINE
8
0
6
CONTINUOUS
66
1
70
1
0
VERTEX
8
0
10
-84.4355499
20
-8.2257352
42
0.4142136
0
VERTEX
8
0
10
-83.8231775
20
-7.8721818
0
VERTEX
8
0
10
-80.4585299
20
4.684854
42
0.4142136
0
VERTEX
8
0
10
-80.8120833
20
5.2972264
0
VERTEX
8
0
10
-93.3691191
20
8.661874
42
0.4142136
0
VERTEX
8
0
10
-93.9814915
20
8.3083206
0
VERTEX
8
0
10
-97.3461391
20
-4.2487152
42
0.4142136
0
VERTEX
8
0
10
-96.9925857
20
-4.8610876
0
SEQEND
0
POLYLINE
8
0
6
CONTINUOUS
66
1
70
1
0
VERTEX
8
0
10
-65.4183501
20
-10.8561271
42
0.4142136
0
VERTEX
8
0
10
-64.8059777
20
-10.5025737
0
VERTEX
8
0
10
-61.4413301
20
2.0544621
42
0.4142136
0
VERTEX
8
0
10
-61.7948835
20
2.6668345
0
VERTEX
8
0
10
-74.3519193
20
6.0314821
42
0.4142136
0
VERTEX
8
0
10
-74.9642917
20
5.6779287
0
VERTEX
8
0
10
-78.3289393
20
-6.8791071
42
0.4142136
0
VERTEX
8
0
10
-77.9753859
20
-7.4914795
0
SEQEND
0
POLYLINE
8
0
6
CONTINUOUS
66
1
70
1
0
VERTEX
8
0
10
-126.1647271
20
85.5749449
42
0.4142136
0
VERTEX
8
0
10
-125.6647271
20
85.0749449
0
VERTEX
8
0
10
-112.6647271
20
85.0749449
42
0.4142136
0
VERTEX
8
0
10
-112.1647271
20
85.5749449
0
VERTEX
8
0
10
-112.1647271
20
98.5749449
42
0.4142136
0
VERTEX
8
0
10
-112.6647271
20
99.0749449
0
VERTEX
8
0
10
-125.6647271
20
99.0749449
42
0.4142136
0
VERTEX
8
0
10
-126.1647271
20
98.5749449
0
SEQEND
0
POLYLINE
8
0
6
CONTINUOUS
66
1
70
1
0
VERTEX
8
0
10
21.4727729
20
85.5749449
42
0.4142136
0
VERTEX
8
0
10
21.9727729
20
85.0749449
0
VERTEX
8
0
10
34.9727729
20
85.0749449
42
0.4142136
0
VERTEX
8
0
10
35.4727729
20
85.5749449
0
VERTEX
8
0
10
35.4727729
20
98.5749449
42
0.4142136
0
VERTEX
8
0
10
34.9727729
20
99.0749449
0
VERTEX
8
0
10
21.9727729
20
99.0749449
42
0.4142136
0
VERTEX
8
0
10
21.4727729
20
98.5749449
0
SEQEND
0
POLYLINE
8
0
6
CONTINUOUS
66
1
70
1
0
VERTEX
8
0
10
-145.2147271
20
83.6699449
42
0.4142136
0
VERTEX
8
0
10
-144.7147271
20
83.1699449
0
VERTEX
8
0
10
-131.7147271
20
83.1699449
42
0.4142136
0
VERTEX
8
0
10
-131.2147271
20
83.6699449
0
VERTEX
8
0
10
-131.2147271
20
96.6699449
42
0.4142136
0
VERTEX
8
0
10
-131.7147271
20
97.1699449
0
VERTEX
8
0
10
-144.7147271
20
97.1699449
42
0.4142136
0
VERTEX
8
0
10
-145.2147271
20
96.6699449
0
SEQEND
0
POLYLINE
8
0
6
CONTINUOUS
66
1
70
1
0
VERTEX
8
0
10
-107.1147271
20
83.6699449
42
0.4142136
0
VERTEX
8
0
10
-106.6147271
20
83.1699449
0
VERTEX
8
0
10
-93.6147271
20
83.1699449
42
0.4142136
0
VERTEX
8
0
10
-93.1147271
20
83.6699449
0
VERTEX
8
0
10
-93.1147271
20
96.6699449
42
0.4142136
0
VERTEX
8
0
10
-93.6147271
20
97.1699449
0
VERTEX
8
0
10
-106.6147271
20
97.1699449
42
0.4142136
0
VERTEX
8
0
10
-107.1147271
20
96.6699449
0
SEQEND
0
POLYLINE
8
0
6
CONTINUOUS
66
1
70
1
0
VERTEX
8
0
10
2.4227729
20
83.6699449
42
0.4142136
0
VERTEX
8
0
10
2.9227729
20
83.1699449
0
VERTEX
8
0
10
15.9227729
20
83.1699449
42
0.4142136
0
VERTEX
8
0
10
16.4227729
20
83.6699449
0
VERTEX
8
0
10
16.4227729
20
96.6699449
42
0.4142136
0
VERTEX
8
0
10
15.9227729
20
97.1699449
0
VERTEX
8
0
10
2.9227729
20
97.1699449
42
0.4142136
0
VERTEX
8
0
10
2.4227729
20
96.6699449
0
SEQEND
0
POLYLINE
8
0
6
CONTINUOUS
66
1
70
1
0
VERTEX
8
0
10
40.5227729
20
83.6699449
42
0.4142136
0
VERTEX
8
0
10
41.0227729
20
83.1699449
0
VERTEX
8
0
10
54.0227729
20
83.1699449
42
0.4142136
0
VERTEX
8
0
10
54.5227729
20
83.6699449
0
VERTEX
8
0
10
54.5227729
20
96.6699449
42
0.4142136
0
VERTEX
8
0
10
54.0227729
20
97.1699449
0
VERTEX
8
0
10
41.0227729
20
97.1699449
42
0.4142136
0
VERTEX
8
0
10
40.5227729
20
96.6699449
0
SEQEND
0
POLYLINE
8
0
6
CONTINUOUS
66
1
70
1
0
VERTEX
8
0
10
-164.2647271
20
81.7649449
42
0.4142136
0
VERTEX
8
0
10
-163.7647271
20
81.2649449
0
VERTEX
8
0
10
-150.7647271
20
81.2649449
42
0.4142136
0
VERTEX
8
0
10
-150.2647271
20
81.7649449
0
VERTEX
8
0
10
-150.2647271
20
94.7649449
42
0.4142136
0
VERTEX
8
0
10
-150.7647271
20
95.2649449
0
VERTEX
8
0
10
-163.7647271
20
95.2649449
42
0.4142136
0
VERTEX
8
0
10
-164.2647271
20
94.7649449
0
SEQEND
0
POLYLINE
8
0
6
CONTINUOUS
66
1
70
1
0
VERTEX
8
0
10
-88.0647271
20
81.7649449
42
0.4142136
0
VERTEX
8
0
10
-87.5647271
20
81.2649449
0
VERTEX
8
0
10
-74.5647271
20
81.2649449
42
0.4142136
0
VERTEX
8
0
10
-74.0647271
20
81.7649449
0
VERTEX
8
0
10
-74.0647271
20
94.7649449
42
0.4142136
0
VERTEX
8
0
10
-74.5647271
20
95.2649449
0
VERTEX
8
0
10
-87.5647271
20
95.2649449
42
0.4142136
0
VERTEX
8
0
10
-88.0647271
20
94.7649449
0
SEQEND
0
POLYLINE
8
0
6
CONTINUOUS
66
1
70
1
0
VERTEX
8
0
10
-16.6272271
20
81.7649449
42
0.4142136
0
VERTEX
8
0
10
-16.1272271
20
81.2649449
0
VERTEX
8
0
10
-3.1272271
20
81.2649449
42
0.4142136
0
VERTEX
8
0
10
-2.6272271
20
81.7649449
0
VERTEX
8
0
10
-2.6272271
20
94.7649449
42
0.4142136
0
VERTEX
8
0
10
-3.1272271
20
95.2649449
0
VERTEX
8
0
10
-16.1272271
20
95.2649449
42
0.4142136
0
VERTEX
8
0
10
-16.6272271
20
94.7649449
0
SEQEND
0
POLYLINE
8
0
6
CONTINUOUS
66
1
70
1
0
VERTEX
8
0
10
59.5727729
20
81.7649449
42
0.4142136
0
VERTEX
8
0
10
60.0727729
20
81.2649449
0
VERTEX
8
0
10
73.0727729
20
81.2649449
42
0.4142136
0
VERTEX
8
0
10
73.5727729
20
81.7649449
0
VERTEX
8
0
10
73.5727729
20
94.7649449
42
0.4142136
0
VERTEX
8
0
10
73.0727729
20
95.2649449
0
VERTEX
8
0
10
60.0727729
20
95.2649449
42
0.4142136
0
VERTEX
8
0
10
59.5727729
20
94.7649449
0
SEQEND
0
POLYLINE
8
0
6
CONTINUOUS
66
1
70
1
0
VERTEX
8
0
10
-183.3147271
20
80.8124449
42
0.4142136
0
VERTEX
8
0
10
-182.8147271
20
80.3124449
0
VERTEX
8
0
10
-169.8147271
20
80.3124449
42
0.4142136
0
VERTEX
8
0
10
-169.3147271
20
80.8124449
0
VERTEX
8
0
10
-169.3147271
20
93.8124449
42
0.4142136
0
VERTEX
8
0
10
-169.8147271
20
94.3124449
0
VERTEX
8
0
10
-182.8147271
20
94.3124449
42
0.4142136
0
VERTEX
8
0
10
-183.3147271
20
93.8124449
0
SEQEND
0
POLYLINE
8
0
6
CONTINUOUS
66
1
70
1
0
VERTEX
8
0
10
78.6227729
20
80.8124449
42
0.4142136
0
VERTEX
8
0
10
79.1227729
20
80.3124449
0
VERTEX
8
0
10
92.1227729
20
80.3124449
42
0.4142136
0
VERTEX
8
0
10
92.6227729
20
80.8124449
0
VERTEX
8
0
10
92.6227729
20
93.8124449
42
0.4142136
0
VERTEX
8
0
10
92.1227729
20
94.3124449
0
VERTEX
8
0
10
79.1227729
20
94.3124449
42
0.4142136
0
VERTEX
8
0
10
78.6227729
20
93.8124449
0
SEQEND
0
POLYLINE
8
0
6
CONTINUOUS
66
1
70
1
0
VERTEX
8
0
10
-126.1647271
20
66.5249449
42
0.4142136
0
VERTEX
8
0
10
-125.6647271
20
66.0249449
0
VERTEX
8
0
10
-112.6647271
20
66.0249449
42
0.4142136
0
VERTEX
8
0
10
-112.1647271
20
66.5249449
0
VERTEX
8
0
10
-112.1647271
20
79.5249449
42
0.4142136
0
VERTEX
8
0
10
-112.6647271
20
80.0249449
0
VERTEX
8
0
10
-125.6647271
20
80.0249449
42
0.4142136
0
VERTEX
8
0
10
-126.1647271
20
79.5249449
0
SEQEND
0
POLYLINE
8
0
6
CONTINUOUS
66
1
70
1
0
VERTEX
8
0
10
21.4727729
20
66.5249449
42
0.4142136
0
VERTEX
8
0
10
21.9727729
20
66.0249449
0
VERTEX
8
0
10
34.9727729
20
66.0249449
42
0.4142136
0
VERTEX
8
0
10
35.4727729
20
66.5249449
0
VERTEX
8
0
10
35.4727729
20
79.5249449
42
0.4142136
0
VERTEX
8
0
10
34.9727729
20
80.0249449
0
VERTEX
8
0
10
21.9727729
20
80.0249449
42
0.4142136
0
VERTEX
8
0
10
21.4727729
20
79.5249449
0
SEQEND
0
POLYLINE
8
0
6
CONTINUOUS
66
1
70
1
0
VERTEX
8
0
10
-145.2147271
20
64.6199449
42
0.4142136
0
VERTEX
8
0
10
-144.7147271
20
64.1199449
0
VERTEX
8
0
10
-131.7147271
20
64.1199449
42
0.4142136
0
VERTEX
8
0
10
-131.2147271
20
64.6199449
0
VERTEX
8
0
10
-131.2147271
20
77.6199449
42
0.4142136
0
VERTEX
8
0
10
-131.7147271
20
78.1199449
0
VERTEX
8
0
10
-144.7147271
20
78.1199449
42
0.4142136
0
VERTEX
8
0
10
-145.2147271
20
77.6199449
0
SEQEND
0
POLYLINE
8
0
6
CONTINUOUS
66
1
70
1
0
VERTEX
8
0
10
-107.1147271
20
64.6199449
42
0.4142136
0
VERTEX
8
0
10
-106.6147271
20
64.1199449
0
VERTEX
8
0
10
-93.6147271
20
64.1199449
42
0.4142136
0
VERTEX
8
0
10
-93.1147271
20
64.6199449
0
VERTEX
8
0
10
-93.1147271
20
77.6199449
42
0.4142136
0
VERTEX
8
0
10
-93.6147271
20
78.1199449
0
VERTEX
8
0
10
-106.6147271
20
78.1199449
42
0.4142136
0
VERTEX
8
0
10
-107.1147271
20
77.6199449
0
SEQEND
0
POLYLINE
8
0
6
CONTINUOUS
66
1
70
1
0
VERTEX
8
0
10
2.4227729
20
64.6199449
42
0.4142136
0
VERTEX
8
0
10
2.9227729
20
64.1199449
0
VERTEX
8
0
10
15.9227729
20
64.1199449
42
0.4142136
0
VERTEX
8
0
10
16.4227729
20
64.6199449
0
VERTEX
8
0
10
16.4227729
20
77.6199449
42
0.4142136
0
VERTEX
8
0
10
15.9227729
20
78.1199449
0
VERTEX
8
0
10
2.9227729
20
78.1199449
42
0.4142136
0
VERTEX
8
0
10
2.4227729
20
77.6199449
0
SEQEND
0
POLYLINE
8
0
6
CONTINUOUS
66
1
70
1
0
VERTEX
8
0
10
40.5227729
20
64.6199449
42
0.4142136
0
VERTEX
8
0
10
41.0227729
20
64.1199449
0
VERTEX
8
0
10
54.0227729
20
64.1199449
42
0.4142136
0
VERTEX
8
0
10
54.5227729
20
64.6199449
0
VERTEX
8
0
10
54.5227729
20
77.6199449
42
0.4142136
0
VERTEX
8
0
10
54.0227729
20
78.1199449
0
VERTEX
8
0
10
41.0227729
20
78.1199449
42
0.4142136
0
VERTEX
8
0
10
40.5227729
20
77.6199449
0
SEQEND
0
POLYLINE
8
0
6
CONTINUOUS
66
1
70
1
0
VERTEX
8
0
10
-164.2647271
20
62.7149449
42
0.4142136
0
VERTEX
8
0
10
-163.7647271
20
62.2149449
0
VERTEX
8
0
10
-150.7647271
20
62.2149449
42
0.4142136
0
VERTEX
8
0
10
-150.2647271
20
62.7149449
0
VERTEX
8
0
10
-150.2647271
20
75.7149449
42
0.4142136
0
VERTEX
8
0
10
-150.7647271
20
76.2149449
0
VERTEX
8
0
10
-163.7647271
20
76.2149449
42
0.4142136
0
VERTEX
8
0
10
-164.2647271
20
75.7149449
0
SEQEND
0
POLYLINE
8
0
6
CONTINUOUS
66
1
70
1
0
VERTEX
8
0
10
-88.0647271
20
62.7149449
42
0.4142136
0
VERTEX
8
0
10
-87.5647271
20
62.2149449
0
VERTEX
8
0
10
-74.5647271
20
62.2149449
42
0.4142136
0
VERTEX
8
0
10
-74.0647271
20
62.7149449
0
VERTEX
8
0
10
-74.0647271
20
75.7149449
42
0.4142136
0
VERTEX
8
0
10
-74.5647271
20
76.2149449
0
VERTEX
8
0
10
-87.5647271
20
76.2149449
42
0.4142136
0
VERTEX
8
0
10
-88.0647271
20
75.7149449
0
SEQEND
0
POLYLINE
8
0
6
CONTINUOUS
66
1
70
1
0
VERTEX
8
0
10
-16.6272271
20
62.7149449
42
0.4142136
0
VERTEX
8
0
10
-16.1272271
20
62.2149449
0
VERTEX
8
0
10
-3.1272271
20
62.2149449
42
0.4142136
0
VERTEX
8
0
10
-2.6272271
20
62.7149449
0
VERTEX
8
0
10
-2.6272271
20
75.7149449
42
0.4142136
0
VERTEX
8
0
10
-3.1272271
20
76.2149449
0
VERTEX
8
0
10
-16.1272271
20
76.2149449
42
0.4142136
0
VERTEX
8
0
10
-16.6272271
20
75.7149449
0
SEQEND
0
POLYLINE
8
0
6
CONTINUOUS
66
1
70
1
0
VERTEX
8
0
10
59.5727729
20
62.7149449
42
0.4142136
0
VERTEX
8
0
10
60.0727729
20
62.2149449
0
VERTEX
8
0
10
73.0727729
20
62.2149449
42
0.4142136
0
VERTEX
8
0
10
73.5727729
20
62.7149449
0
VERTEX
8
0
10
73.5727729
20
75.7149449
42
0.4142136
0
VERTEX
8
0
10
73.0727729
20
76.2149449
0
VERTEX
8
0
10
60.0727729
20
76.2149449
42
0.4142136
0
VERTEX
8
0
10
59.5727729
20
75.7149449
0
SEQEND
0
POLYLINE
8
0
6
CONTINUOUS
66
1
70
1
0
VERTEX
8
0
10
-185.6959771
20
61.7624449
42
0.4142136
0
VERTEX
8
0
10
-185.1959771
20
61.2624449
0
VERTEX
8
0
10
-172.1959771
20
61.2624449
42
0.4142136
0
VERTEX
8
0
10
-171.6959771
20
61.7624449
0
VERTEX
8
0
10
-171.6959771
20
74.7624449
42
0.4142136
0
VERTEX
8
0
10
-172.1959771
20
75.2624449
0
VERTEX
8
0
10
-185.1959771
20
75.2624449
42
0.4142136
0
VERTEX
8
0
10
-185.6959771
20
74.7624449
0
SEQEND
0
POLYLINE
8
0
6
CONTINUOUS
66
1
70
1
0
VERTEX
8
0
10
81.0040229
20
61.7624449
42
0.4142136
0
VERTEX
8
0
10
81.5040229
20
61.2624449
0
VERTEX
8
0
10
94.5040229
20
61.2624449
42
0.4142136
0
VERTEX
8
0
10
95.0040229
20
61.7624449
0
VERTEX
8
0
10
95.0040229
20
74.7624449
42
0.4142136
0
VERTEX
8
0
10
94.5040229
20
75.2624449
0
VERTEX
8
0
10
81.5040229
20
75.2624449
42
0.4142136
0
VERTEX
8
0
10
81.0040229
20
74.7624449
0
SEQEND
0
POLYLINE
8
0
6
CONTINUOUS
66
1
70
1
0
VERTEX
8
0
10
-126.1647271
20
47.4749449
42
0.4142136
0
VERTEX
8
0
10
-125.6647271
20
46.9749449
0
VERTEX
8
0
10
-112.6647271
20
46.9749449
42
0.4142136
0
VERTEX
8
0
10
-112.1647271
20
47.4749449
0
VERTEX
8
0
10
-112.1647271
20
60.4749449
42
0.4142136
0
VERTEX
8
0
10
-112.6647271
20
60.9749449
0
VERTEX
8
0
10
-125.6647271
20
60.9749449
42
0.4142136
0
VERTEX
8
0
10
-126.1647271
20
60.4749449
0
SEQEND
0
POLYLINE
8
0
6
CONTINUOUS
66
1
70
1
0
VERTEX
8
0
10
-69.0147271
20
47.4749449
42
0.4142136
0
VERTEX
8
0
10
-68.5147271
20
46.9749449
0
VERTEX
8
0
10
-55.5147271
20
46.9749449
42
0.4142136
0
VERTEX
8
0
10
-55.0147271
20
47.4749449
0
VERTEX
8
0
10
-55.0147271
20
60.4749449
42
0.4142136
0
VERTEX
8
0
10
-55.5147271
20
60.9749449
0
VERTEX
8
0
10
-68.5147271
20
60.9749449
42
0.4142136
0
VERTEX
8
0
10
-69.0147271
20
60.4749449
0
SEQEND
0
POLYLINE
8
0
6
CONTINUOUS
66
1
70
1
0
VERTEX
8
0
10
-35.6772271
20
47.4749449
42
0.4142136
0
VERTEX
8
0
10
-35.1772271
20
46.9749449
0
VERTEX
8
0
10
-22.1772271
20
46.9749449
42
0.4142136
0
VERTEX
8
0
10
-21.6772271
20
47.4749449
0
VERTEX
8
0
10
-21.6772271
20
60.4749449
42
0.4142136
0
VERTEX
8
0
10
-22.1772271
20
60.9749449
0
VERTEX
8
0
10
-35.1772271
20
60.9749449
42
0.4142136
0
VERTEX
8
0
10
-35.6772271
20
60.4749449
0
SEQEND
0
POLYLINE
8
0
6
CONTINUOUS
66
1
70
1
0
VERTEX
8
0
10
21.4727729
20
47.4749449
42
0.4142136
0
VERTEX
8
0
10
21.9727729
20
46.9749449
0
VERTEX
8
0
10
34.9727729
20
46.9749449
42
0.4142136
0
VERTEX
8
0
10
35.4727729
20
47.4749449
0
VERTEX
8
0
10
35.4727729
20
60.4749449
42
0.4142136
0
VERTEX
8
0
10
34.9727729
20
60.9749449
0
VERTEX
8
0
10
21.9727729
20
60.9749449
42
0.4142136
0
VERTEX
8
0
10
21.4727729
20
60.4749449
0
SEQEND
0
POLYLINE
8
0
6
CONTINUOUS
66
1
70
1
0
VERTEX
8
0
10
-145.2147271
20
45.5699449
42
0.4142136
0
VERTEX
8
0
10
-144.7147271
20
45.0699449
0
VERTEX
8
0
10
-131.7147271
20
45.0699449
42
0.4142136
0
VERTEX
8
0
10
-131.2147271
20
45.5699449
0
VERTEX
8
0
10
-131.2147271
20
58.5699449
42
0.4142136
0
VERTEX
8
0
10
-131.7147271
20
59.0699449
0
VERTEX
8
0
10
-144.7147271
20
59.0699449
42
0.4142136
0
VERTEX
8
0
10
-145.2147271
20
58.5699449
0
SEQEND
0
POLYLINE
8
0
6
CONTINUOUS
66
1
70
1
0
VERTEX
8
0
10
-107.1147271
20
45.5699449
42
0.4142136
0
VERTEX
8
0
10
-106.6147271
20
45.0699449
0
VERTEX
8
0
10
-93.6147271
20
45.0699449
42
0.4142136
0
VERTEX
8
0
10
-93.1147271
20
45.5699449
0
VERTEX
8
0
10
-93.1147271
20
58.5699449
42
0.4142136
0
VERTEX
8
0
10
-93.6147271
20
59.0699449
0
VERTEX
8
0
10
-106.6147271
20
59.0699449
42
0.4142136
0
VERTEX
8
0
10
-107.1147271
20
58.5699449
0
SEQEND
0
POLYLINE
8
0
6
CONTINUOUS
66
1
70
1
0
VERTEX
8
0
10
2.4227729
20
45.5699449
42
0.4142136
0
VERTEX
8
0
10
2.9227729
20
45.0699449
0
VERTEX
8
0
10
15.9227729
20
45.0699449
42
0.4142136
0
VERTEX
8
0
10
16.4227729
20
45.5699449
0
VERTEX
8
0
10
16.4227729
20
58.5699449
42
0.4142136
0
VERTEX
8
0
10
15.9227729
20
59.0699449
0
VERTEX
8
0
10
2.9227729
20
59.0699449
42
0.4142136
0
VERTEX
8
0
10
2.4227729
20
58.5699449
0
SEQEND
0
POLYLINE
8
0
6
CONTINUOUS
66
1
70
1
0
VERTEX
8
0
10
40.5227729
20
45.5699449
42
0.4142136
0
VERTEX
8
0
10
41.0227729
20
45.0699449
0
VERTEX
8
0
10
54.0227729
20
45.0699449
42
0.4142136
0
VERTEX
8
0
10
54.5227729
20
45.5699449
0
VERTEX
8
0
10
54.5227729
20
58.5699449
42
0.4142136
0
VERTEX
8
0
10
54.0227729
20
59.0699449
0
VERTEX
8
0
10
41.0227729
20
59.0699449
42
0.4142136
0
VERTEX
8
0
10
40.5227729
20
58.5699449
0
SEQEND
0
POLYLINE
8
0
6
CONTINUOUS
66
1
70
1
0
VERTEX
8
0
10
-164.2647271
20
43.6649449
42
0.4142136
0
VERTEX
8
0
10
-163.7647271
20
43.1649449
0
VERTEX
8
0
10
-150.7647271
20
43.1649449
42
0.4142136
0
VERTEX
8
0
10
-150.2647271
20
43.6649449
0
VERTEX
8
0
10
-150.2647271
20
56.6649449
42
0.4142136
0
VERTEX
8
0
10
-150.7647271
20
57.1649449
0
VERTEX
8
0
10
-163.7647271
20
57.1649449
42
0.4142136
0
VERTEX
8
0
10
-164.2647271
20
56.6649449
0
SEQEND
0
POLYLINE
8
0
6
CONTINUOUS
66
1
70
1
0
VERTEX
8
0
10
-88.0647271
20
43.6649449
42
0.4142136
0
VERTEX
8
0
10
-87.5647271
20
43.1649449
0
VERTEX
8
0
10
-74.5647271
20
43.1649449
42
0.4142136
0
VERTEX
8
0
10
-74.0647271
20
43.6649449
0
VERTEX
8
0
10
-74.0647271
20
56.6649449
42
0.4142136
0
VERTEX
8
0
10
-74.5647271
20
57.1649449
0
VERTEX
8
0
10
-87.5647271
20
57.1649449
42
0.4142136
0
VERTEX
8
0
10
-88.0647271
20
56.6649449
0
SEQEND
0
POLYLINE
8
0
6
CONTINUOUS
66
1
70
1
0
VERTEX
8
0
10
-16.6272271
20
43.6649449
42
0.4142136
0
VERTEX
8
0
10
-16.1272271
20
43.1649449
0
VERTEX
8
0
10
-3.1272271
20
43.1649449
42
0.4142136
0
VERTEX
8
0
10
-2.6272271
20
43.6649449
0
VERTEX
8
0
10
-2.6272271
20
56.6649449
42
0.4142136
0
VERTEX
8
0
10
-3.1272271
20
57.1649449
0
VERTEX
8
0
10
-16.1272271
20
57.1649449
42
0.4142136
0
VERTEX
8
0
10
-16.6272271
20
56.6649449
0
SEQEND
0
POLYLINE
8
0
6
CONTINUOUS
66
1
70
1
0
VERTEX
8
0
10
59.5727729
20
43.6649449
42
0.4142136
0
VERTEX
8
0
10
60.0727729
20
43.1649449
0
VERTEX
8
0
10
73.0727729
20
43.1649449
42
0.4142136
0
VERTEX
8
0
10
73.5727729
20
43.6649449
0
VERTEX
8
0
10
73.5727729
20
56.6649449
42
0.4142136
0
VERTEX
8
0
10
73.0727729
20
57.1649449
0
VERTEX
8
0
10
60.0727729
20
57.1649449
42
0.4142136
0
VERTEX
8
0
10
59.5727729
20
56.6649449
0
SEQEND
0
POLYLINE
8
0
6
CONTINUOUS
66
1
70
1
0
VERTEX
8
0
10
-185.6959771
20
42.7124449
42
0.4142136
0
VERTEX
8
0
10
-185.1959771
20
42.2124449
0
VERTEX
8
0
10
-172.1959771
20
42.2124449
42
0.4142136
0
VERTEX
8
0
10
-171.6959771
20
42.7124449
0
VERTEX
8
0
10
-171.6959771
20
55.7124449
42
0.4142136
0
VERTEX
8
0
10
-172.1959771
20
56.2124449
0
VERTEX
8
0
10
-185.1959771
20
56.2124449
42
0.4142136
0
VERTEX
8
0
10
-185.6959771
20
55.7124449
0
SEQEND
0
POLYLINE
8
0
6
CONTINUOUS
66
1
70
1
0
VERTEX
8
0
10
81.0040229
20
42.7124449
42
0.4142136
0
VERTEX
8
0
10
81.5040229
20
42.2124449
0
VERTEX
8
0
10
94.5040229
20
42.2124449
42
0.4142136
0
VERTEX
8
0
10
95.0040229
20
42.7124449
0
VERTEX
8
0
10
95.0040229
20
55.7124449
42
0.4142136
0
VERTEX
8
0
10
94.5040229
20
56.2124449
0
VERTEX
8
0
10
81.5040229
20
56.2124449
42
0.4142136
0
VERTEX
8
0
10
81.0040229
20
55.7124449
0
SEQEND
0
POLYLINE
8
0
6
CONTINUOUS
66
1
70
1
0
VERTEX
8
0
10
-35.6772271
20
29.3774449
42
0.4142136
0
VERTEX
8
0
10
-35.1772271
20
28.8774449
0
VERTEX
8
0
10
-22.1772271
20
28.8774449
42
0.4142136
0
VERTEX
8
0
10
-21.6772271
20
29.3774449
0
VERTEX
8
0
10
-21.6772271
20
42.3774449
42
0.4142136
0
VERTEX
8
0
10
-22.1772271
20
42.8774449
0
VERTEX
8
0
10
-35.1772271
20
42.8774449
42
0.4142136
0
VERTEX
8
0
10
-35.6772271
20
42.3774449
0
SEQEND
0
POLYLINE
8
0
6
CONTINUOUS
66
1
70
1
0
VERTEX
8
0
10
-126.1647271
20
28.4249449
42
0.4142136
0
VERTEX
8
0
10
-125.6647271
20
27.9249449
0
VERTEX
8
0
10
-112.6647271
20
27.9249449
42
0.4142136
0
VERTEX
8
0
10
-112.1647271
20
28.4249449
0
VERTEX
8
0
10
-112.1647271
20
41.4249449
42
0.4142136
0
VERTEX
8
0
10
-112.6647271
20
41.9249449
0
VERTEX
8
0
10
-125.6647271
20
41.9249449
42
0.4142136
0
VERTEX
8
0
10
-126.1647271
20
41.4249449
0
SEQEND
0
POLYLINE
8
0
6
CONTINUOUS
66
1
70
1
0
VERTEX
8
0
10
-69.0147271
20
28.4249449
42
0.4142136
0
VERTEX
8
0
10
-68.5147271
20
27.9249449
0
VERTEX
8
0
10
-55.5147271
20
27.9249449
42
0.4142136
0
VERTEX
8
0
10
-55.0147271
20
28.4249449
0
VERTEX
8
0
10
-55.0147271
20
41.4249449
42
0.4142136
0
VERTEX
8
0
10
-55.5147271
20
41.9249449
0
VERTEX
8
0
10
-68.5147271
20
41.9249449
42
0.4142136
0
VERTEX
8
0
10
-69.0147271
20
41.4249449
0
SEQEND
0
POLYLINE
8
0
6
CONTINUOUS
66
1
70
1
0
VERTEX
8
0
10
21.4727729
20
28.4249449
42
0.4142136
0
VERTEX
8
0
10
21.9727729
20
27.9249449
0
VERTEX
8
0
10
34.9727729
20
27.9249449
42
0.4142136
0
VERTEX
8
0
10
35.4727729
20
28.4249449
0
VERTEX
8
0
10
35.4727729
20
41.4249449
42
0.4142136
0
VERTEX
8
0
10
34.9727729
20
41.9249449
0
VERTEX
8
0
10
21.9727729
20
41.9249449
42
0.4142136
0
VERTEX
8
0
10
21.4727729
20
41.4249449
0
SEQEND
0
POLYLINE
8
0
6
CONTINUOUS
66
1
70
1
0
VERTEX
8
0
10
-145.2147271
20
26.5199449
42
0.4142136
0
VERTEX
8
0
10
-144.7147271
20
26.0199449
0
VERTEX
8
0
10
-131.7147271
20
26.0199449
42
0.4142136
0
VERTEX
8
0
10
-131.2147271
20
26.5199449
0
VERTEX
8
0
10
-131.2147271
20
39.5199449
42
0.4142136
0
VERTEX
8
0
10
-131.7147271
20
40.0199449
0
VERTEX
8
0
10
-144.7147271
20
40.0199449
42
0.4142136
0
VERTEX
8
0
10
-145.2147271
20
39.5199449
0
SEQEND
0
POLYLINE
8
0
6
CONTINUOUS
66
1
70
1
0
VERTEX
8
0
10
-107.1147271
20
26.5199449
42
0.4142136
0
VERTEX
8
0
10
-106.6147271
20
26.0199449
0
VERTEX
8
0
10
-93.6147271
20
26.0199449
42
0.4142136
0
VERTEX
8
0
10
-93.1147271
20
26.5199449
0
VERTEX
8
0
10
-93.1147271
20
39.5199449
42
0.4142136
0
VERTEX
8
0
10
-93.6147271
20
40.0199449
0
VERTEX
8
0
10
-106.6147271
20
40.0199449
42
0.4142136
0
VERTEX
8
0
10
-107.1147271
20
39.5199449
0
SEQEND
0
POLYLINE
8
0
6
CONTINUOUS
66
1
70
1
0
VERTEX
8
0
10
2.4227729
20
26.5199449
42
0.4142136
0
VERTEX
8
0
10
2.9227729
20
26.0199449
0
VERTEX
8
0
10
15.9227729
20
26.0199449
42
0.4142136
0
VERTEX
8
0
10
16.4227729
20
26.5199449
0
VERTEX
8
0
10
16.4227729
20
39.5199449
42
0.4142136
0
VERTEX
8
0
10
15.9227729
20
40.0199449
0
VERTEX
8
0
10
2.9227729
20
40.0199449
42
0.4142136
0
VERTEX
8
0
10
2.4227729
20
39.5199449
0
SEQEND
0
POLYLINE
8
0
6
CONTINUOUS
66
1
70
1
0
VERTEX
8
0
10
40.5227729
20
26.5199449
42
0.4142136
0
VERTEX
8
0
10
41.0227729
20
26.0199449
0
VERTEX
8
0
10
54.0227729
20
26.0199449
42
0.4142136
0
VERTEX
8
0
10
54.5227729
20
26.5199449
0
VERTEX
8
0
10
54.5227729
20
39.5199449
42
0.4142136
0
VERTEX
8
0
10
54.0227729
20
40.0199449
0
VERTEX
8
0
10
41.0227729
20
40.0199449
42
0.4142136
0
VERTEX
8
0
10
40.5227729
20
39.5199449
0
SEQEND
0
POLYLINE
8
0
6
CONTINUOUS
66
1
70
1
0
VERTEX
8
0
10
-164.2647271
20
24.6149449
42
0.4142136
0
VERTEX
8
0
10
-163.7647271
20
24.1149449
0
VERTEX
8
0
10
-150.7647271
20
24.1149449
42
0.4142136
0
VERTEX
8
0
10
-150.2647271
20
24.6149449
0
VERTEX
8
0
10
-150.2647271
20
37.6149449
42
0.4142136
0
VERTEX
8
0
10
-150.7647271
20
38.1149449
0
VERTEX
8
0
10
-163.7647271
20
38.1149449
42
0.4142136
0
VERTEX
8
0
10
-164.2647271
20
37.6149449
0
SEQEND
0
POLYLINE
8
0
6
CONTINUOUS
66
1
70
1
0
VERTEX
8
0
10
-88.0647271
20
24.6149449
42
0.4142136
0
VERTEX
8
0
10
-87.5647271
20
24.1149449
0
VERTEX
8
0
10
-74.5647271
20
24.1149449
42
0.4142136
0
VERTEX
8
0
10
-74.0647271
20
24.6149449
0
VERTEX
8
0
10
-74.0647271
20
37.6149449
42
0.4142136
0
VERTEX
8
0
10
-74.5647271
20
38.1149449
0
VERTEX
8
0
10
-87.5647271
20
38.1149449
42
0.4142136
0
VERTEX
8
0
10
-88.0647271
20
37.6149449
0
SEQEND
0
POLYLINE
8
0
6
CONTINUOUS
66
1
70
1
0
VERTEX
8
0
10
-16.6272271
20
24.6149449
42
0.4142136
0
VERTEX
8
0
10
-16.1272271
20
24.1149449
0
VERTEX
8
0
10
-3.1272271
20
24.1149449
42
0.4142136
0
VERTEX
8
0
10
-2.6272271
20
24.6149449
0
VERTEX
8
0
10
-2.6272271
20
37.6149449
42
0.4142136
0
VERTEX
8
0
10
-3.1272271
20
38.1149449
0
VERTEX
8
0
10
-16.1272271
20
38.1149449
42
0.4142136
0
VERTEX
8
0
10
-16.6272271
20
37.6149449
0
SEQEND
0
POLYLINE
8
0
6
CONTINUOUS
66
1
70
1
0
VERTEX
8
0
10
59.5727729
20
24.6149449
42
0.4142136
0
VERTEX
8
0
10
60.0727729
20
24.1149449
0
VERTEX
8
0
10
73.0727729
20
24.1149449
42
0.4142136
0
VERTEX
8
0
10
73.5727729
20
24.6149449
0
VERTEX
8
0
10
73.5727729
20
37.6149449
42
0.4142136
0
VERTEX
8
0
10
73.0727729
20
38.1149449
0
VERTEX
8
0
10
60.0727729
20
38.1149449
42
0.4142136
0
VERTEX
8
0
10
59.5727729
20
37.6149449
0
SEQEND
0
POLYLINE
8
0
6
CONTINUOUS
66
1
70
1
0
VERTEX
8
0
10
-185.6959771
20
23.6624449
42
0.4142136
0
VERTEX
8
0
10
-185.1959771
20
23.1624449
0
VERTEX
8
0
10
-172.1959771
20
23.1624449
42
0.4142136
0
VERTEX
8
0
10
-171.6959771
20
23.6624449
0
VERTEX
8
0
10
-171.6959771
20
36.6624449
42
0.4142136
0
VERTEX
8
0
10
-172.1959771
20
37.1624449
0
VERTEX
8
0
10
-185.1959771
20
37.1624449
42
0.4142136
0
VERTEX
8
0
10
-185.6959771
20
36.6624449
0
SEQEND
0
POLYLINE
8
0
6
CONTINUOUS
66
1
70
1
0
VERTEX
8
0
10
81.0040229
20
23.6624449
42
0.4142136
0
VERTEX
8
0
10
81.5040229
20
23.1624449
0
VERTEX
8
0
10
94.5040229
20
23.1624449
42
0.4142136
0
VERTEX
8
0
10
95.0040229
20
23.6624449
0
VERTEX
8
0
10
95.0040229
20
36.6624449
42
0.4142136
0
VERTEX
8
0
10
94.5040229
20
37.1624449
0
VERTEX
8
0
10
81.5040229
20
37.1624449
42
0.4142136
0
VERTEX
8
0
10
81.0040229
20
36.6624449
0
SEQEND
0
POLYLINE
8
0
6
CONTINUOUS
66
1
70
1
0
VERTEX
8
0
10
-119.0209771
20
7.4699449
42
0.4142136
0
VERTEX
8
0
10
-118.5209771
20
6.9699449
0
VERTEX
8
0
10
-105.5209771
20
6.9699449
42
0.4142136
0
VERTEX
8
0
10
-105.0209771
20
7.4699449
0
VERTEX
8
0
10
-105.0209771
20
20.4699449
42
0.4142136
0
VERTEX
8
0
10
-105.5209771
20
20.9699449
0
VERTEX
8
0
10
-118.5209771
20
20.9699449
42
0.4142136
0
VERTEX
8
0
10
-119.0209771
20
20.4699449
0
SEQEND
0
POLYLINE
8
0
6
CONTINUOUS
66
1
70
1
0
VERTEX
8
0
10
-145.2147271
20
5.5649449
42
0.4142136
0
VERTEX
8
0
10
-144.7147271
20
5.0649449
0
VERTEX
8
0
10
-131.7147271
20
5.0649449
42
0.4142136
0
VERTEX
8
0
10
-131.2147271
20
5.5649449
0
VERTEX
8
0
10
-131.2147271
20
18.5649449
42
0.4142136
0
VERTEX
8
0
10
-131.7147271
20
19.0649449
0
VERTEX
8
0
10
-144.7147271
20
19.0649449
42
0.4142136
0
VERTEX
8
0
10
-145.2147271
20
18.5649449
0
SEQEND
0
POLYLINE
8
0
6
CONTINUOUS
66
1
70
1
0
VERTEX
8
0
10
-176.1709771
20
4.6124449
42
0.4142136
0
VERTEX
8
0
10
-175.6709771
20
4.1124449
0
VERTEX
8
0
10
-162.6709771
20
4.1124449
42
0.4142136
0
VERTEX
8
0
10
-162.1709771
20
4.6124449
0
VERTEX
8
0
10
-162.1709771
20
17.6124449
42
0.4142136
0
VERTEX
8
0
10
-162.6709771
20
18.1124449
0
VERTEX
8
0
10
-175.6709771
20
18.1124449
42
0.4142136
0
VERTEX
8
0
10
-176.1709771
20
17.6124449
0
SEQEND
0
POLYLINE
8
0
6
CONTINUOUS
66
1
70
1
0
VERTEX
8
0
10
-12.2060179
20
12.712001
42
0.4142136
0
VERTEX
8
0
10
-12.5595713
20
12.0996286
0
VERTEX
8
0
10
-11.006657
20
6.3040737
42
0.4142136
0
VERTEX
8
0
10
-10.3942846
20
5.9505202
0
VERTEX
8
0
10
3.1286769
20
9.5739869
42
0.4142136
0
VERTEX
8
0
10
3.4822303
20
10.1863593
0
VERTEX
8
0
10
1.929316
20
15.9819142
42
0.4142136
0
VERTEX
8
0
10
1.3169436
20
16.3354677
0
SEQEND
0
POLYLINE
8
0
6
CONTINUOUS
66
1
70
1
0
VERTEX
8
0
10
-6.0264544
20
-10.350444
42
0.4142136
0
VERTEX
8
0
10
-6.3800078
20
-10.9628164
0
VERTEX
8
0
10
-4.8270935
20
-16.7583714
42
0.4142136
0
VERTEX
8
0
10
-4.2147211
20
-17.1119248
0
VERTEX
8
0
10
9.3082404
20
-13.4884581
42
0.4142136
0
VERTEX
8
0
10
9.6617939
20
-12.8760857
0
VERTEX
8
0
10
8.1088796
20
-7.0805308
42
0.4142136
0
VERTEX
8
0
10
7.4965071
20
-6.7269774
0
SEQEND
0
POLYLINE
8
0
6
CONTINUOUS
66
1
70
1
0
VERTEX
8
0
10
-31.2232177
20
10.0816091
42
0.4142136
0
VERTEX
8
0
10
-31.5767711
20
9.4692367
0
VERTEX
8
0
10
-30.0238568
20
3.6736818
42
0.4142136
0
VERTEX
8
0
10
-29.4114844
20
3.3201283
0
VERTEX
8
0
10
-15.8885229
20
6.943595
42
0.4142136
0
VERTEX
8
0
10
-15.5349695
20
7.5559674
0
VERTEX
8
0
10
-17.0878838
20
13.3515223
42
0.4142136
0
VERTEX
8
0
10
-17.7002562
20
13.7050758
0
SEQEND
0
POLYLINE
8
0
6
CONTINUOUS
66
1
70
1
0
VERTEX
8
0
10
-25.0436542
20
-12.9808359
42
0.4142136
0
VERTEX
8
0
10
-25.3972076
20
-13.5932083
0
VERTEX
8
0
10
-23.8442933
20
-19.3887633
42
0.4142136
0
VERTEX
8
0
10
-23.2319209
20
-19.7423167
0
VERTEX
8
0
10
-9.7089594
20
-16.11885
42
0.4142136
0
VERTEX
8
0
10
-9.3554059
20
-15.5064776
0
VERTEX
8
0
10
-10.9083202
20
-9.7109227
42
0.4142136
0
VERTEX
8
0
10
-11.5206927
20
-9.3573693
0
SEQEND
0
POLYLINE
8
0
6
CONTINUOUS
66
1
70
1
0
VERTEX
8
0
10
-65.6704136
20
-19.5242473
42
0.4142136
0
VERTEX
8
0
10
-65.0580412
20
-19.1706939
0
VERTEX
8
0
10
-63.5051269
20
-13.3751389
42
0.4142136
0
VERTEX
8
0
10
-63.8586803
20
-12.7627665
0
VERTEX
8
0
10
-77.3816419
20
-9.1392999
42
0.4142136
0
VERTEX
8
0
10
-77.9940143
20
-9.4928533
0
VERTEX
8
0
10
-79.5469285
20
-15.2884082
42
0.4142136
0
VERTEX
8
0
10
-79.1933752
20
-15.9007807
0
SEQEND
0
POLYLINE
8
0
6
CONTINUOUS
66
1
70
1
0
VERTEX
8
0
10
-59.4908501
20
3.5381978
42
0.4142136
0
VERTEX
8
0
10
-58.8784776
20
3.8917511
0
VERTEX
8
0
10
-57.3255634
20
9.6873061
42
0.4142136
0
VERTEX
8
0
10
-57.6791168
20
10.2996785
0
VERTEX
8
0
10
-71.2020783
20
13.9231451
42
0.4142136
0
VERTEX
8
0
10
-71.8144508
20
13.5695918
0
VERTEX
8
0
10
-73.367365
20
7.7740368
42
0.4142136
0
VERTEX
8
0
10
-73.0138116
20
7.1616644
0
SEQEND
0
POLYLINE
8
OUTLINE
66
1
70
1
0
VERTEX
8
OUTLINE
10
-191.60223
20
19.63744
30
0
0
VERTEX
8
OUTLINE
10
-186.83973
20
19.63744
30
0
0
VERTEX
8
OUTLINE
10
-186.83973
20
0.58744
30
0
0
VERTEX
8
OUTLINE
10
-151.50223
20
0.58744
30
0
0
VERTEX
8
OUTLINE
10
-151.50223
20
1.53994
30
0
0
VERTEX
8
OUTLINE
10
-122.92723
20
1.53994
30
0
0
VERTEX
8
OUTLINE
10
-122.92723
20
3.44494
30
0
0
VERTEX
8
OUTLINE
10
-99.11473
20
3.44494
30
0
0
VERTEX
8
OUTLINE
10
-99.11473
20
22.49494
30
0
0
VERTEX
8
OUTLINE
10
-91.58973
20
22.49494
30
0
0
VERTEX
8
OUTLINE
10
-91.58973
20
20.58994
30
0
0
VERTEX
8
OUTLINE
10
-74.61798
20
20.58994
30
0
0
VERTEX
8
OUTLINE
10
-76.71112
20
12.77823
30
0
0
VERTEX
8
OUTLINE
10
-95.112
20
17.70873
30
0
0
VERTEX
8
OUTLINE
10
-103.02539
20
-11.82445
30
0
0
VERTEX
8
OUTLINE
10
-84.62451
20
-16.75495
30
0
0
VERTEX
8
OUTLINE
10
-85.85713
20
-21.35517
30
0
0
VERTEX
8
OUTLINE
10
-65.52439
20
-26.80331
30
0
0
VERTEX
8
OUTLINE
10
-53.91313
20
16.53053
30
0
0
VERTEX
8
OUTLINE
10
-70.53973
20
20.98562
30
0
0
VERTEX
8
OUTLINE
10
-70.53973
20
24.39994
30
0
0
VERTEX
8
OUTLINE
10
-51.48973
20
24.39994
30
0
0
VERTEX
8
OUTLINE
10
-51.48973
20
63.47444
30
0
0
VERTEX
8
OUTLINE
10
-39.20223
20
63.47444
30
0
0
VERTEX
8
OUTLINE
10
-39.20223
20
25.35244
30
0
0
VERTEX
8
OUTLINE
10
-20.15223
20
25.35244
30
0
0
VERTEX
8
OUTLINE
10
-20.15223
20
20.58994
30
0
0
VERTEX
8
OUTLINE
10
-19.02544
20
20.58994
30
0
0
VERTEX
8
OUTLINE
10
-34.9892
20
16.31246
30
0
0
VERTEX
8
OUTLINE
10
-23.37793
20
-27.02138
30
0
0
VERTEX
8
OUTLINE
10
-4.97705
20
-22.09088
30
0
0
VERTEX
8
OUTLINE
10
15.35569
20
-16.64274
30
0
0
VERTEX
8
OUTLINE
10
4.97705
20
22.09088
30
0
0
VERTEX
8
OUTLINE
10
0.89777
20
20.99784
30
0
0
VERTEX
8
OUTLINE
10
0.89777
20
22.49494
30
0
0
VERTEX
8
OUTLINE
10
19.94777
20
22.49494
30
0
0
VERTEX
8
OUTLINE
10
19.94777
20
24.39994
30
0
0
VERTEX
8
OUTLINE
10
36.99777
20
24.39994
30
0
0
VERTEX
8
OUTLINE
10
36.99777
20
22.49494
30
0
0
VERTEX
8
OUTLINE
10
56.04777
20
22.49494
30
0
0
VERTEX
8
OUTLINE
10
56.04777
20
20.58994
30
0
0
VERTEX
8
OUTLINE
10
75.09777
20
20.58994
30
0
0
VERTEX
8
OUTLINE
10
75.09777
20
19.63744
30
0
0
VERTEX
8
OUTLINE
10
100.91027
20
19.63744
30
0
0
VERTEX
8
OUTLINE
10
100.91027
20
78.78744
30
0
0
VERTEX
8
OUTLINE
10
96.14777
20
78.78744
30
0
0
VERTEX
8
OUTLINE
10
96.14777
20
97.83744
30
0
0
VERTEX
8
OUTLINE
10
77.09777
20
97.83744
30
0
0
VERTEX
8
OUTLINE
10
77.09777
20
98.78994
30
0
0
VERTEX
8
OUTLINE
10
58.04777
20
98.78994
30
0
0
VERTEX
8
OUTLINE
10
58.04777
20
100.69494
30
0
0
VERTEX
8
OUTLINE
10
38.99777
20
100.69494
30
0
0
VERTEX
8
OUTLINE
10
38.99777
20
102.59994
30
0
0
VERTEX
8
OUTLINE
10
17.94777
20
102.59994
30
0
0
VERTEX
8
OUTLINE
10
17.94777
20
100.69494
30
0
0
VERTEX
8
OUTLINE
10
-1.10223
20
100.69494
30
0
0
VERTEX
8
OUTLINE
10
-1.10223
20
98.78994
30
0
0
VERTEX
8
OUTLINE
10
-20.15223
20
98.78994
30
0
0
VERTEX
8
OUTLINE
10
-20.15223
20
64.49994
30
0
0
VERTEX
8
OUTLINE
10
-39.19223
20
64.49994
30
0
0
VERTEX
8
OUTLINE
10
-39.19223
20
65.52544
30
0
0
VERTEX
8
OUTLINE
10
-51.49973
20
65.52544
30
0
0
VERTEX
8
OUTLINE
10
-51.49973
20
64.49994
30
0
0
VERTEX
8
OUTLINE
10
-70.53973
20
64.49994
30
0
0
VERTEX
8
OUTLINE
10
-70.53973
20
98.78994
30
0
0
VERTEX
8
OUTLINE
10
-89.58973
20
98.78994
30
0
0
VERTEX
8
OUTLINE
10
-89.58973
20
100.69494
30
0
0
VERTEX
8
OUTLINE
10
-108.63973
20
100.69494
30
0
0
VERTEX
8
OUTLINE
10
-108.63973
20
102.59994
30
0
0
VERTEX
8
OUTLINE
10
-129.68973
20
102.59994
30
0
0
VERTEX
8
OUTLINE
10
-129.68973
20
100.69494
30
0
0
VERTEX
8
OUTLINE
10
-148.73973
20
100.69494
30
0
0
VERTEX
8
OUTLINE
10
-148.73973
20
98.78994
30
0
0
VERTEX
8
OUTLINE
10
-167.78973
20
98.78994
30
0
0
VERTEX
8
OUTLINE
10
-167.78973
20
97.83744
30
0
0
VERTEX
8
OUTLINE
10
-186.83973
20
97.83744
30
0
0
VERTEX
8
OUTLINE
10
-186.83973
20
78.78744
30
0
0
VERTEX
8
OUTLINE
10
-191.60223
20
78.78744
30
0
0
VERTEX
8
OUTLINE
10
-191.60223
20
19.63744
30
0
0
VERTEX
8
OUTLINE
10
-191.60223
20
19.63744
30
0
0
SEQEND
8
OUTLINE
0
ENDSEC
0
EOF
